G04 #@! TF.GenerationSoftware,KiCad,Pcbnew,9.0.5*
G04 #@! TF.CreationDate,2025-10-24T16:35:50+02:00*
G04 #@! TF.ProjectId,Mini-EMS-ESP,4d696e69-2d45-44d5-932d-4553502e6b69,rev?*
G04 #@! TF.SameCoordinates,Original*
G04 #@! TF.FileFunction,Copper,L2,Inr*
G04 #@! TF.FilePolarity,Positive*
%FSLAX46Y46*%
G04 Gerber Fmt 4.6, Leading zero omitted, Abs format (unit mm)*
G04 Created by KiCad (PCBNEW 9.0.5) date 2025-10-24 16:35:50*
%MOMM*%
%LPD*%
G01*
G04 APERTURE LIST*
G04 Aperture macros list*
%AMRoundRect*
0 Rectangle with rounded corners*
0 $1 Rounding radius*
0 $2 $3 $4 $5 $6 $7 $8 $9 X,Y pos of 4 corners*
0 Add a 4 corners polygon primitive as box body*
4,1,4,$2,$3,$4,$5,$6,$7,$8,$9,$2,$3,0*
0 Add four circle primitives for the rounded corners*
1,1,$1+$1,$2,$3*
1,1,$1+$1,$4,$5*
1,1,$1+$1,$6,$7*
1,1,$1+$1,$8,$9*
0 Add four rect primitives between the rounded corners*
20,1,$1+$1,$2,$3,$4,$5,0*
20,1,$1+$1,$4,$5,$6,$7,0*
20,1,$1+$1,$6,$7,$8,$9,0*
20,1,$1+$1,$8,$9,$2,$3,0*%
G04 Aperture macros list end*
G04 #@! TA.AperFunction,ComponentPad*
%ADD10RoundRect,0.249999X-1.250001X1.250001X-1.250001X-1.250001X1.250001X-1.250001X1.250001X1.250001X0*%
G04 #@! TD*
G04 #@! TA.AperFunction,ComponentPad*
%ADD11C,3.000000*%
G04 #@! TD*
G04 #@! TA.AperFunction,ComponentPad*
%ADD12O,2.100000X1.000000*%
G04 #@! TD*
G04 #@! TA.AperFunction,ComponentPad*
%ADD13O,1.600000X1.000000*%
G04 #@! TD*
G04 #@! TA.AperFunction,HeatsinkPad*
%ADD14C,0.600000*%
G04 #@! TD*
G04 #@! TA.AperFunction,ViaPad*
%ADD15C,0.450000*%
G04 #@! TD*
G04 APERTURE END LIST*
D10*
X75590400Y-94136000D03*
D11*
X75590400Y-99136000D03*
D12*
X78006000Y-104392000D03*
X78006000Y-104392000D03*
D13*
X73826000Y-104392000D03*
X73826000Y-104392000D03*
D12*
X78006000Y-113032000D03*
X78006000Y-113032000D03*
D13*
X73826000Y-113032000D03*
X73826000Y-113032000D03*
D14*
X119159000Y-95351500D03*
X119159000Y-93826500D03*
X118396500Y-96114000D03*
X118396500Y-94589000D03*
X118396500Y-93064000D03*
X117634000Y-95351500D03*
X117634000Y-93826500D03*
X116871500Y-96114000D03*
X116871500Y-94589000D03*
X116871500Y-93064000D03*
X116109000Y-95351500D03*
X116109000Y-93826500D03*
D15*
X118745000Y-115443000D03*
X111556800Y-88849200D03*
X79502000Y-112522000D03*
X118745000Y-114554000D03*
X117221000Y-115443000D03*
X125603000Y-106553000D03*
X117221000Y-116332000D03*
X123444000Y-110845600D03*
X101953443Y-114501732D03*
X82677000Y-118999000D03*
X117983000Y-117221000D03*
X118745000Y-113665000D03*
X117221000Y-117221000D03*
X121285000Y-119761000D03*
X119761000Y-118745000D03*
X100203000Y-87503000D03*
X117983000Y-115443000D03*
X113588800Y-93040200D03*
X124841000Y-106553000D03*
X124307600Y-111607600D03*
X84963000Y-111633000D03*
X125120400Y-110845600D03*
X92456000Y-93726000D03*
X118999000Y-118745000D03*
X83058000Y-107188000D03*
X120523000Y-119761000D03*
X93218000Y-90170000D03*
X120523000Y-120777000D03*
X124104400Y-91897200D03*
X95123000Y-89535000D03*
X83058000Y-110490000D03*
X117221000Y-114554000D03*
X124079000Y-106553000D03*
X119761000Y-119761000D03*
X118999000Y-120777000D03*
X82042000Y-111506000D03*
X79375000Y-105029000D03*
X100838000Y-91821000D03*
X126746000Y-87249000D03*
X105283000Y-100457000D03*
X95123000Y-102489000D03*
X118745000Y-117221000D03*
X117983000Y-116332000D03*
X114604800Y-93040200D03*
X103682800Y-114503200D03*
X119761000Y-120777000D03*
X125120400Y-111607600D03*
X124079000Y-87249000D03*
X104775000Y-104394000D03*
X117221000Y-113665000D03*
X92456000Y-102235000D03*
X117983000Y-114554000D03*
X107315000Y-87249000D03*
X123317000Y-106553000D03*
X121285000Y-118745000D03*
X118999000Y-119761000D03*
X118745000Y-116332000D03*
X117983000Y-113665000D03*
X113842800Y-87122000D03*
X121285000Y-120777000D03*
X124307600Y-110845600D03*
X123444000Y-111607600D03*
X102815105Y-114501732D03*
X120523000Y-118745000D03*
X105123000Y-97188000D03*
X122021600Y-101142800D03*
X118973600Y-101142800D03*
X119989600Y-101142800D03*
X117955299Y-101138508D03*
X117449600Y-122021600D03*
X123037600Y-101142800D03*
X106553000Y-93091000D03*
X82753200Y-122021600D03*
X126746000Y-88519000D03*
X124333000Y-88519000D03*
X116433600Y-87071200D03*
X116939299Y-101138508D03*
X121005600Y-101142800D03*
X124053600Y-101142800D03*
X102666800Y-102592500D03*
X102158800Y-97078800D03*
X103505000Y-92185000D03*
X122275600Y-112979200D03*
X111760000Y-113030000D03*
X87503000Y-121285000D03*
X107543600Y-104800400D03*
X86360000Y-123190000D03*
X122936000Y-92025000D03*
X98044000Y-89052400D03*
X104648000Y-89052400D03*
X110109000Y-96139000D03*
X80330432Y-118735232D03*
X79603600Y-118719600D03*
X80137000Y-109855000D03*
X83185000Y-111506000D03*
X81153000Y-111142000D03*
X79947000Y-108913000D03*
X122783600Y-99009200D03*
G04 #@! TA.AperFunction,Conductor*
G36*
X127092481Y-86215800D02*
G01*
X127092541Y-86215809D01*
X127092603Y-86215800D01*
X127093457Y-86215800D01*
X127111837Y-86215821D01*
X127112351Y-86216182D01*
X127133498Y-86215844D01*
X127134494Y-86215846D01*
X127141305Y-86216041D01*
X127354644Y-86228052D01*
X127372354Y-86230339D01*
X127577316Y-86271990D01*
X127594512Y-86276797D01*
X127791368Y-86347480D01*
X127807693Y-86354709D01*
X127992338Y-86452952D01*
X128007452Y-86462450D01*
X128176070Y-86586223D01*
X128189660Y-86597795D01*
X128267794Y-86674697D01*
X128338722Y-86744508D01*
X128350522Y-86757929D01*
X128476943Y-86924539D01*
X128486691Y-86939517D01*
X128587847Y-87122564D01*
X128595341Y-87138787D01*
X128620739Y-87206137D01*
X128668375Y-87332459D01*
X128669135Y-87334473D01*
X128674220Y-87351605D01*
X128719120Y-87555875D01*
X128721689Y-87573561D01*
X128737059Y-87786317D01*
X128737381Y-87795253D01*
X128737175Y-123130898D01*
X128737175Y-123131033D01*
X128737153Y-123150224D01*
X128736795Y-123150736D01*
X128737130Y-123171819D01*
X128737129Y-123172879D01*
X128737066Y-123173091D01*
X128736933Y-123179712D01*
X128724926Y-123393022D01*
X128722638Y-123410746D01*
X128680991Y-123615692D01*
X128676180Y-123632903D01*
X128605503Y-123829744D01*
X128598268Y-123846084D01*
X128500032Y-124030719D01*
X128490522Y-124045851D01*
X128366764Y-124214447D01*
X128355179Y-124228053D01*
X128208473Y-124377108D01*
X128195051Y-124388909D01*
X128028445Y-124515325D01*
X128013468Y-124525073D01*
X127830413Y-124626232D01*
X127814189Y-124633726D01*
X127618498Y-124707519D01*
X127601366Y-124712603D01*
X127397106Y-124757499D01*
X127379420Y-124760068D01*
X127166569Y-124775443D01*
X127157625Y-124775765D01*
X72715544Y-124771584D01*
X72715409Y-124771584D01*
X72696218Y-124771561D01*
X72695707Y-124771203D01*
X72674632Y-124771536D01*
X72673551Y-124771535D01*
X72673341Y-124771473D01*
X72666723Y-124771339D01*
X72453427Y-124759325D01*
X72435704Y-124757037D01*
X72230758Y-124715385D01*
X72213547Y-124710573D01*
X72133525Y-124681838D01*
X72016711Y-124639891D01*
X72000383Y-124632661D01*
X71815750Y-124534419D01*
X71800621Y-124524911D01*
X71632025Y-124401148D01*
X71618420Y-124389563D01*
X71469370Y-124242858D01*
X71457570Y-124229436D01*
X71331160Y-124062834D01*
X71321412Y-124047857D01*
X71220254Y-123864801D01*
X71212765Y-123848588D01*
X71138970Y-123652887D01*
X71133892Y-123635775D01*
X71088992Y-123431497D01*
X71086426Y-123413830D01*
X71071034Y-123200760D01*
X71070712Y-123191826D01*
X71070712Y-123133982D01*
X85934500Y-123133982D01*
X85934500Y-123246018D01*
X85963497Y-123354237D01*
X86019515Y-123451263D01*
X86098737Y-123530485D01*
X86195763Y-123586503D01*
X86303982Y-123615500D01*
X86303984Y-123615500D01*
X86416016Y-123615500D01*
X86416018Y-123615500D01*
X86524237Y-123586503D01*
X86621263Y-123530485D01*
X86700485Y-123451263D01*
X86756503Y-123354237D01*
X86785500Y-123246018D01*
X86785500Y-123133982D01*
X86756503Y-123025763D01*
X86700485Y-122928737D01*
X86621263Y-122849515D01*
X86524237Y-122793497D01*
X86416018Y-122764500D01*
X86303982Y-122764500D01*
X86195763Y-122793497D01*
X86195760Y-122793498D01*
X86098740Y-122849513D01*
X86098734Y-122849517D01*
X86019517Y-122928734D01*
X86019513Y-122928740D01*
X85963498Y-123025760D01*
X85963497Y-123025763D01*
X85934500Y-123133982D01*
X71070712Y-123133982D01*
X71070712Y-123125854D01*
X71070714Y-122849517D01*
X71070718Y-121965582D01*
X82327700Y-121965582D01*
X82327700Y-122077618D01*
X82356697Y-122185837D01*
X82412715Y-122282863D01*
X82491937Y-122362085D01*
X82588963Y-122418103D01*
X82697182Y-122447100D01*
X82697184Y-122447100D01*
X82809216Y-122447100D01*
X82809218Y-122447100D01*
X82917437Y-122418103D01*
X83014463Y-122362085D01*
X83093685Y-122282863D01*
X83149703Y-122185837D01*
X83178700Y-122077618D01*
X83178700Y-121965582D01*
X117024100Y-121965582D01*
X117024100Y-122077618D01*
X117053097Y-122185837D01*
X117109115Y-122282863D01*
X117188337Y-122362085D01*
X117285363Y-122418103D01*
X117393582Y-122447100D01*
X117393584Y-122447100D01*
X117505616Y-122447100D01*
X117505618Y-122447100D01*
X117613837Y-122418103D01*
X117710863Y-122362085D01*
X117790085Y-122282863D01*
X117846103Y-122185837D01*
X117875100Y-122077618D01*
X117875100Y-121965582D01*
X117846103Y-121857363D01*
X117790085Y-121760337D01*
X117710863Y-121681115D01*
X117613837Y-121625097D01*
X117505618Y-121596100D01*
X117393582Y-121596100D01*
X117285363Y-121625097D01*
X117285360Y-121625098D01*
X117188340Y-121681113D01*
X117188334Y-121681117D01*
X117109117Y-121760334D01*
X117109113Y-121760340D01*
X117053098Y-121857360D01*
X117053097Y-121857363D01*
X117024100Y-121965582D01*
X83178700Y-121965582D01*
X83149703Y-121857363D01*
X83093685Y-121760337D01*
X83014463Y-121681115D01*
X82917437Y-121625097D01*
X82809218Y-121596100D01*
X82697182Y-121596100D01*
X82588963Y-121625097D01*
X82588960Y-121625098D01*
X82491940Y-121681113D01*
X82491934Y-121681117D01*
X82412717Y-121760334D01*
X82412713Y-121760340D01*
X82356698Y-121857360D01*
X82356697Y-121857363D01*
X82327700Y-121965582D01*
X71070718Y-121965582D01*
X71070722Y-121228982D01*
X87077500Y-121228982D01*
X87077500Y-121341018D01*
X87106497Y-121449237D01*
X87162515Y-121546263D01*
X87241737Y-121625485D01*
X87338763Y-121681503D01*
X87446982Y-121710500D01*
X87446984Y-121710500D01*
X87559016Y-121710500D01*
X87559018Y-121710500D01*
X87667237Y-121681503D01*
X87764263Y-121625485D01*
X87843485Y-121546263D01*
X87899503Y-121449237D01*
X87928500Y-121341018D01*
X87928500Y-121228982D01*
X87899503Y-121120763D01*
X87843485Y-121023737D01*
X87764263Y-120944515D01*
X87667237Y-120888497D01*
X87559018Y-120859500D01*
X87446982Y-120859500D01*
X87338763Y-120888497D01*
X87338760Y-120888498D01*
X87241740Y-120944513D01*
X87241734Y-120944517D01*
X87162517Y-121023734D01*
X87162513Y-121023740D01*
X87106498Y-121120760D01*
X87106497Y-121120763D01*
X87077500Y-121228982D01*
X71070722Y-121228982D01*
X71070734Y-118663582D01*
X79178100Y-118663582D01*
X79178100Y-118775618D01*
X79182289Y-118791249D01*
X79207097Y-118883836D01*
X79207098Y-118883839D01*
X79216122Y-118899469D01*
X79263115Y-118980863D01*
X79342337Y-119060085D01*
X79439363Y-119116103D01*
X79547582Y-119145100D01*
X79547584Y-119145100D01*
X79659616Y-119145100D01*
X79659618Y-119145100D01*
X79767837Y-119116103D01*
X79864863Y-119060085D01*
X79871519Y-119053429D01*
X79932842Y-119019944D01*
X80002534Y-119024928D01*
X80046881Y-119053429D01*
X80069169Y-119075717D01*
X80166195Y-119131735D01*
X80274414Y-119160732D01*
X80274416Y-119160732D01*
X80386448Y-119160732D01*
X80386450Y-119160732D01*
X80494669Y-119131735D01*
X80591695Y-119075717D01*
X80670917Y-118996495D01*
X80726935Y-118899469D01*
X80755932Y-118791250D01*
X80755932Y-118679214D01*
X80726935Y-118570995D01*
X80670917Y-118473969D01*
X80591695Y-118394747D01*
X80494669Y-118338729D01*
X80386450Y-118309732D01*
X80274414Y-118309732D01*
X80166195Y-118338729D01*
X80166192Y-118338730D01*
X80069172Y-118394745D01*
X80069162Y-118394752D01*
X80062505Y-118401409D01*
X80001179Y-118434889D01*
X79931488Y-118429899D01*
X79887150Y-118401402D01*
X79864865Y-118379117D01*
X79864863Y-118379115D01*
X79767837Y-118323097D01*
X79659618Y-118294100D01*
X79547582Y-118294100D01*
X79439363Y-118323097D01*
X79439360Y-118323098D01*
X79342340Y-118379113D01*
X79342334Y-118379117D01*
X79263117Y-118458334D01*
X79263113Y-118458340D01*
X79207098Y-118555360D01*
X79207097Y-118555363D01*
X79178100Y-118663582D01*
X71070734Y-118663582D01*
X71070761Y-112906999D01*
X72837149Y-112906999D01*
X72837150Y-112907000D01*
X73251758Y-112907000D01*
X73246444Y-112916204D01*
X73226000Y-112992504D01*
X73226000Y-113071496D01*
X73246444Y-113147796D01*
X73251758Y-113157000D01*
X72837150Y-113157000D01*
X72852899Y-113236176D01*
X72852901Y-113236184D01*
X72905664Y-113363566D01*
X72905671Y-113363579D01*
X72982275Y-113478226D01*
X73079773Y-113575724D01*
X73194420Y-113652328D01*
X73194433Y-113652335D01*
X73321813Y-113705097D01*
X73321823Y-113705100D01*
X73457053Y-113732000D01*
X73701000Y-113732000D01*
X73701000Y-113332000D01*
X73951000Y-113332000D01*
X73951000Y-113732000D01*
X74194946Y-113732000D01*
X74330176Y-113705100D01*
X74330186Y-113705097D01*
X74457566Y-113652335D01*
X74457579Y-113652328D01*
X74572226Y-113575724D01*
X74669724Y-113478226D01*
X74746328Y-113363579D01*
X74746335Y-113363566D01*
X74799098Y-113236184D01*
X74799100Y-113236176D01*
X74814850Y-113157000D01*
X74400242Y-113157000D01*
X74405556Y-113147796D01*
X74426000Y-113071496D01*
X74426000Y-112992504D01*
X74405556Y-112916204D01*
X74400242Y-112907000D01*
X74814850Y-112907000D01*
X74814850Y-112906999D01*
X76767149Y-112906999D01*
X76767150Y-112907000D01*
X77181758Y-112907000D01*
X77176444Y-112916204D01*
X77156000Y-112992504D01*
X77156000Y-113071496D01*
X77176444Y-113147796D01*
X77181758Y-113157000D01*
X76767150Y-113157000D01*
X76782899Y-113236176D01*
X76782901Y-113236184D01*
X76835664Y-113363566D01*
X76835671Y-113363579D01*
X76912275Y-113478226D01*
X77009773Y-113575724D01*
X77124420Y-113652328D01*
X77124433Y-113652335D01*
X77251813Y-113705097D01*
X77251823Y-113705100D01*
X77387053Y-113732000D01*
X77881000Y-113732000D01*
X77881000Y-113332000D01*
X78131000Y-113332000D01*
X78131000Y-113732000D01*
X78624946Y-113732000D01*
X78760176Y-113705100D01*
X78760186Y-113705097D01*
X78887566Y-113652335D01*
X78887579Y-113652328D01*
X79002226Y-113575724D01*
X79099724Y-113478226D01*
X79176328Y-113363579D01*
X79176335Y-113363566D01*
X79229098Y-113236184D01*
X79229100Y-113236176D01*
X79244850Y-113157000D01*
X78830242Y-113157000D01*
X78835556Y-113147796D01*
X78856000Y-113071496D01*
X78856000Y-112992504D01*
X78851037Y-112973982D01*
X111334500Y-112973982D01*
X111334500Y-113086018D01*
X111363497Y-113194237D01*
X111419515Y-113291263D01*
X111498737Y-113370485D01*
X111595763Y-113426503D01*
X111703982Y-113455500D01*
X111703984Y-113455500D01*
X111816016Y-113455500D01*
X111816018Y-113455500D01*
X111924237Y-113426503D01*
X112021263Y-113370485D01*
X112100485Y-113291263D01*
X112156503Y-113194237D01*
X112185500Y-113086018D01*
X112185500Y-112973982D01*
X112171888Y-112923182D01*
X121850100Y-112923182D01*
X121850100Y-113035218D01*
X121879097Y-113143437D01*
X121935115Y-113240463D01*
X122014337Y-113319685D01*
X122111363Y-113375703D01*
X122219582Y-113404700D01*
X122219584Y-113404700D01*
X122331616Y-113404700D01*
X122331618Y-113404700D01*
X122439837Y-113375703D01*
X122536863Y-113319685D01*
X122616085Y-113240463D01*
X122672103Y-113143437D01*
X122701100Y-113035218D01*
X122701100Y-112923182D01*
X122672103Y-112814963D01*
X122616085Y-112717937D01*
X122536863Y-112638715D01*
X122439837Y-112582697D01*
X122331618Y-112553700D01*
X122219582Y-112553700D01*
X122111363Y-112582697D01*
X122111360Y-112582698D01*
X122014340Y-112638713D01*
X122014334Y-112638717D01*
X121935117Y-112717934D01*
X121935113Y-112717940D01*
X121879098Y-112814960D01*
X121879097Y-112814963D01*
X121850100Y-112923182D01*
X112171888Y-112923182D01*
X112156503Y-112865763D01*
X112100485Y-112768737D01*
X112021263Y-112689515D01*
X111933275Y-112638715D01*
X111924239Y-112633498D01*
X111924238Y-112633497D01*
X111924237Y-112633497D01*
X111816018Y-112604500D01*
X111703982Y-112604500D01*
X111595763Y-112633497D01*
X111595760Y-112633498D01*
X111498740Y-112689513D01*
X111498734Y-112689517D01*
X111419517Y-112768734D01*
X111419513Y-112768740D01*
X111363498Y-112865760D01*
X111363498Y-112865761D01*
X111363497Y-112865763D01*
X111334500Y-112973982D01*
X78851037Y-112973982D01*
X78835556Y-112916204D01*
X78830242Y-112907000D01*
X79244850Y-112907000D01*
X79229100Y-112827823D01*
X79229098Y-112827815D01*
X79176335Y-112700433D01*
X79176328Y-112700420D01*
X79099724Y-112585773D01*
X79002226Y-112488275D01*
X78887579Y-112411671D01*
X78887566Y-112411664D01*
X78760186Y-112358902D01*
X78760176Y-112358899D01*
X78624946Y-112332000D01*
X78131000Y-112332000D01*
X78131000Y-112732000D01*
X77881000Y-112732000D01*
X77881000Y-112332000D01*
X77825378Y-112332000D01*
X77758339Y-112312315D01*
X77712584Y-112259511D01*
X77702640Y-112190353D01*
X77731665Y-112126797D01*
X77763378Y-112100613D01*
X77791142Y-112084582D01*
X77829365Y-112062515D01*
X77936515Y-111955365D01*
X78012281Y-111824135D01*
X78051500Y-111677766D01*
X78051500Y-111526234D01*
X78012281Y-111379865D01*
X78012273Y-111379852D01*
X77990281Y-111341760D01*
X77936515Y-111248635D01*
X77829365Y-111141485D01*
X77733235Y-111085984D01*
X77733232Y-111085982D01*
X80727500Y-111085982D01*
X80727500Y-111198018D01*
X80756497Y-111306237D01*
X80812515Y-111403263D01*
X80891737Y-111482485D01*
X80988763Y-111538503D01*
X81096982Y-111567500D01*
X81096984Y-111567500D01*
X81209016Y-111567500D01*
X81209018Y-111567500D01*
X81317237Y-111538503D01*
X81414263Y-111482485D01*
X81446766Y-111449982D01*
X82759500Y-111449982D01*
X82759500Y-111562018D01*
X82788497Y-111670237D01*
X82844515Y-111767263D01*
X82923737Y-111846485D01*
X83020763Y-111902503D01*
X83128982Y-111931500D01*
X83128984Y-111931500D01*
X83241016Y-111931500D01*
X83241018Y-111931500D01*
X83349237Y-111902503D01*
X83446263Y-111846485D01*
X83525485Y-111767263D01*
X83581503Y-111670237D01*
X83610500Y-111562018D01*
X83610500Y-111449982D01*
X83581503Y-111341763D01*
X83525485Y-111244737D01*
X83446263Y-111165515D01*
X83349237Y-111109497D01*
X83241018Y-111080500D01*
X83128982Y-111080500D01*
X83020763Y-111109497D01*
X83020760Y-111109498D01*
X82923740Y-111165513D01*
X82923734Y-111165517D01*
X82844517Y-111244734D01*
X82844513Y-111244740D01*
X82788498Y-111341760D01*
X82788497Y-111341763D01*
X82759500Y-111449982D01*
X81446766Y-111449982D01*
X81493485Y-111403263D01*
X81549503Y-111306237D01*
X81578500Y-111198018D01*
X81578500Y-111085982D01*
X81549503Y-110977763D01*
X81493485Y-110880737D01*
X81414263Y-110801515D01*
X81317237Y-110745497D01*
X81209018Y-110716500D01*
X81096982Y-110716500D01*
X80988763Y-110745497D01*
X80988760Y-110745498D01*
X80891740Y-110801513D01*
X80891734Y-110801517D01*
X80812517Y-110880734D01*
X80812513Y-110880740D01*
X80756498Y-110977760D01*
X80756497Y-110977763D01*
X80727500Y-111085982D01*
X77733232Y-111085982D01*
X77698136Y-111065719D01*
X77624950Y-111046109D01*
X77551766Y-111026500D01*
X77400234Y-111026500D01*
X77253863Y-111065719D01*
X77122635Y-111141485D01*
X77122632Y-111141487D01*
X77015487Y-111248632D01*
X77015485Y-111248635D01*
X76939719Y-111379863D01*
X76900500Y-111526234D01*
X76900500Y-111677765D01*
X76939719Y-111824136D01*
X76952623Y-111846486D01*
X77015485Y-111955365D01*
X77122635Y-112062515D01*
X77219031Y-112118169D01*
X77257746Y-112140522D01*
X77305962Y-112191089D01*
X77319184Y-112259696D01*
X77293216Y-112324561D01*
X77243199Y-112362470D01*
X77124430Y-112411666D01*
X77124420Y-112411671D01*
X77009773Y-112488275D01*
X76912275Y-112585773D01*
X76835671Y-112700420D01*
X76835664Y-112700433D01*
X76782901Y-112827815D01*
X76782899Y-112827823D01*
X76767149Y-112906999D01*
X74814850Y-112906999D01*
X74799100Y-112827823D01*
X74799098Y-112827815D01*
X74746335Y-112700433D01*
X74746328Y-112700420D01*
X74669724Y-112585773D01*
X74572226Y-112488275D01*
X74457579Y-112411671D01*
X74457566Y-112411664D01*
X74330186Y-112358902D01*
X74330176Y-112358899D01*
X74194946Y-112332000D01*
X73951000Y-112332000D01*
X73951000Y-112732000D01*
X73701000Y-112732000D01*
X73701000Y-112332000D01*
X73457054Y-112332000D01*
X73321823Y-112358899D01*
X73321813Y-112358902D01*
X73194433Y-112411664D01*
X73194420Y-112411671D01*
X73079773Y-112488275D01*
X72982275Y-112585773D01*
X72905671Y-112700420D01*
X72905664Y-112700433D01*
X72852901Y-112827815D01*
X72852899Y-112827823D01*
X72837149Y-112906999D01*
X71070761Y-112906999D01*
X71070780Y-108856982D01*
X79521500Y-108856982D01*
X79521500Y-108969018D01*
X79550497Y-109077237D01*
X79606515Y-109174263D01*
X79685737Y-109253485D01*
X79782763Y-109309503D01*
X79810320Y-109316886D01*
X79869980Y-109353249D01*
X79900511Y-109416095D01*
X79892217Y-109485471D01*
X79865910Y-109524342D01*
X79796514Y-109593738D01*
X79796513Y-109593740D01*
X79740498Y-109690760D01*
X79740497Y-109690763D01*
X79711500Y-109798982D01*
X79711500Y-109911018D01*
X79740497Y-110019237D01*
X79796515Y-110116263D01*
X79875737Y-110195485D01*
X79972763Y-110251503D01*
X80080982Y-110280500D01*
X80080984Y-110280500D01*
X80193016Y-110280500D01*
X80193018Y-110280500D01*
X80301237Y-110251503D01*
X80398263Y-110195485D01*
X80477485Y-110116263D01*
X80533503Y-110019237D01*
X80562500Y-109911018D01*
X80562500Y-109798982D01*
X80533503Y-109690763D01*
X80477485Y-109593737D01*
X80398263Y-109514515D01*
X80301237Y-109458497D01*
X80273676Y-109451112D01*
X80214017Y-109414748D01*
X80183488Y-109351901D01*
X80191783Y-109282526D01*
X80218085Y-109243662D01*
X80287485Y-109174263D01*
X80343503Y-109077237D01*
X80372500Y-108969018D01*
X80372500Y-108856982D01*
X80343503Y-108748763D01*
X80287485Y-108651737D01*
X80208263Y-108572515D01*
X80111237Y-108516497D01*
X80003018Y-108487500D01*
X79890982Y-108487500D01*
X79782763Y-108516497D01*
X79782760Y-108516498D01*
X79685740Y-108572513D01*
X79685734Y-108572517D01*
X79606517Y-108651734D01*
X79606513Y-108651740D01*
X79550498Y-108748760D01*
X79550497Y-108748763D01*
X79521500Y-108856982D01*
X71070780Y-108856982D01*
X71070802Y-104266999D01*
X72837149Y-104266999D01*
X72837150Y-104267000D01*
X73251758Y-104267000D01*
X73246444Y-104276204D01*
X73226000Y-104352504D01*
X73226000Y-104431496D01*
X73246444Y-104507796D01*
X73251758Y-104517000D01*
X72837150Y-104517000D01*
X72852899Y-104596176D01*
X72852901Y-104596184D01*
X72905664Y-104723566D01*
X72905671Y-104723579D01*
X72982275Y-104838226D01*
X73079773Y-104935724D01*
X73194420Y-105012328D01*
X73194433Y-105012335D01*
X73321813Y-105065097D01*
X73321823Y-105065100D01*
X73457053Y-105092000D01*
X73701000Y-105092000D01*
X73701000Y-104692000D01*
X73951000Y-104692000D01*
X73951000Y-105092000D01*
X74194946Y-105092000D01*
X74330176Y-105065100D01*
X74330186Y-105065097D01*
X74457566Y-105012335D01*
X74457579Y-105012328D01*
X74572226Y-104935724D01*
X74669724Y-104838226D01*
X74746328Y-104723579D01*
X74746335Y-104723566D01*
X74799098Y-104596184D01*
X74799100Y-104596176D01*
X74814850Y-104517000D01*
X74400242Y-104517000D01*
X74405556Y-104507796D01*
X74426000Y-104431496D01*
X74426000Y-104352504D01*
X74405556Y-104276204D01*
X74400242Y-104267000D01*
X74814850Y-104267000D01*
X74814850Y-104266999D01*
X76767149Y-104266999D01*
X76767150Y-104267000D01*
X77181758Y-104267000D01*
X77176444Y-104276204D01*
X77156000Y-104352504D01*
X77156000Y-104431496D01*
X77176444Y-104507796D01*
X77181758Y-104517000D01*
X76767150Y-104517000D01*
X76782899Y-104596176D01*
X76782901Y-104596184D01*
X76835664Y-104723566D01*
X76835671Y-104723579D01*
X76912275Y-104838226D01*
X77009773Y-104935724D01*
X77124420Y-105012328D01*
X77124429Y-105012333D01*
X77243199Y-105061529D01*
X77297602Y-105105370D01*
X77319667Y-105171664D01*
X77302388Y-105239363D01*
X77257747Y-105283477D01*
X77122635Y-105361485D01*
X77122632Y-105361487D01*
X77015487Y-105468632D01*
X77015485Y-105468635D01*
X76939719Y-105599863D01*
X76900500Y-105746234D01*
X76900500Y-105897765D01*
X76939719Y-106044136D01*
X76977602Y-106109750D01*
X77015485Y-106175365D01*
X77122635Y-106282515D01*
X77253865Y-106358281D01*
X77400234Y-106397500D01*
X77400236Y-106397500D01*
X77551764Y-106397500D01*
X77551766Y-106397500D01*
X77698135Y-106358281D01*
X77829365Y-106282515D01*
X77936515Y-106175365D01*
X78012281Y-106044135D01*
X78051500Y-105897766D01*
X78051500Y-105746234D01*
X78012281Y-105599865D01*
X77936515Y-105468635D01*
X77829365Y-105361485D01*
X77829363Y-105361484D01*
X77829361Y-105361482D01*
X77763378Y-105323387D01*
X77715162Y-105272820D01*
X77701940Y-105204213D01*
X77727908Y-105139348D01*
X77784822Y-105098820D01*
X77825378Y-105092000D01*
X77881000Y-105092000D01*
X77881000Y-104692000D01*
X78131000Y-104692000D01*
X78131000Y-105092000D01*
X78624946Y-105092000D01*
X78760176Y-105065100D01*
X78760186Y-105065097D01*
X78887566Y-105012335D01*
X78887579Y-105012328D01*
X79002226Y-104935724D01*
X79099724Y-104838226D01*
X79162428Y-104744382D01*
X107118100Y-104744382D01*
X107118100Y-104856418D01*
X107147097Y-104964637D01*
X107203115Y-105061663D01*
X107282337Y-105140885D01*
X107379363Y-105196903D01*
X107487582Y-105225900D01*
X107487584Y-105225900D01*
X107599616Y-105225900D01*
X107599618Y-105225900D01*
X107707837Y-105196903D01*
X107804863Y-105140885D01*
X107884085Y-105061663D01*
X107940103Y-104964637D01*
X107969100Y-104856418D01*
X107969100Y-104744382D01*
X107940103Y-104636163D01*
X107884085Y-104539137D01*
X107804863Y-104459915D01*
X107707837Y-104403897D01*
X107599618Y-104374900D01*
X107487582Y-104374900D01*
X107379363Y-104403897D01*
X107379360Y-104403898D01*
X107282340Y-104459913D01*
X107282334Y-104459917D01*
X107203117Y-104539134D01*
X107203113Y-104539140D01*
X107147098Y-104636160D01*
X107147097Y-104636163D01*
X107118100Y-104744382D01*
X79162428Y-104744382D01*
X79176328Y-104723579D01*
X79176333Y-104723569D01*
X79190735Y-104688802D01*
X79190735Y-104688800D01*
X79229098Y-104596184D01*
X79229100Y-104596176D01*
X79244850Y-104517000D01*
X78830242Y-104517000D01*
X78835556Y-104507796D01*
X78856000Y-104431496D01*
X78856000Y-104352504D01*
X78835556Y-104276204D01*
X78830242Y-104267000D01*
X79244850Y-104267000D01*
X79244850Y-104266999D01*
X79229100Y-104187823D01*
X79229098Y-104187815D01*
X79176335Y-104060433D01*
X79176328Y-104060420D01*
X79099724Y-103945773D01*
X79002226Y-103848275D01*
X78887579Y-103771671D01*
X78887566Y-103771664D01*
X78760186Y-103718902D01*
X78760176Y-103718899D01*
X78624946Y-103692000D01*
X78131000Y-103692000D01*
X78131000Y-104092000D01*
X77881000Y-104092000D01*
X77881000Y-103692000D01*
X77387054Y-103692000D01*
X77251823Y-103718899D01*
X77251813Y-103718902D01*
X77124433Y-103771664D01*
X77124420Y-103771671D01*
X77009773Y-103848275D01*
X76912275Y-103945773D01*
X76835671Y-104060420D01*
X76835664Y-104060433D01*
X76782901Y-104187815D01*
X76782899Y-104187823D01*
X76767149Y-104266999D01*
X74814850Y-104266999D01*
X74799100Y-104187823D01*
X74799098Y-104187815D01*
X74746335Y-104060433D01*
X74746328Y-104060420D01*
X74669724Y-103945773D01*
X74572226Y-103848275D01*
X74457579Y-103771671D01*
X74457566Y-103771664D01*
X74330186Y-103718902D01*
X74330176Y-103718899D01*
X74194946Y-103692000D01*
X73951000Y-103692000D01*
X73951000Y-104092000D01*
X73701000Y-104092000D01*
X73701000Y-103692000D01*
X73457054Y-103692000D01*
X73321823Y-103718899D01*
X73321813Y-103718902D01*
X73194433Y-103771664D01*
X73194420Y-103771671D01*
X73079773Y-103848275D01*
X72982275Y-103945773D01*
X72905671Y-104060420D01*
X72905664Y-104060433D01*
X72852901Y-104187815D01*
X72852899Y-104187823D01*
X72837149Y-104266999D01*
X71070802Y-104266999D01*
X71070810Y-102536482D01*
X102241300Y-102536482D01*
X102241300Y-102648518D01*
X102270297Y-102756737D01*
X102326315Y-102853763D01*
X102405537Y-102932985D01*
X102502563Y-102989003D01*
X102610782Y-103018000D01*
X102610784Y-103018000D01*
X102722816Y-103018000D01*
X102722818Y-103018000D01*
X102831037Y-102989003D01*
X102928063Y-102932985D01*
X103007285Y-102853763D01*
X103063303Y-102756737D01*
X103092300Y-102648518D01*
X103092300Y-102536482D01*
X103063303Y-102428263D01*
X103007285Y-102331237D01*
X102928063Y-102252015D01*
X102831037Y-102195997D01*
X102722818Y-102167000D01*
X102610782Y-102167000D01*
X102502563Y-102195997D01*
X102502560Y-102195998D01*
X102405540Y-102252013D01*
X102405534Y-102252017D01*
X102326317Y-102331234D01*
X102326313Y-102331240D01*
X102270298Y-102428260D01*
X102270297Y-102428263D01*
X102241300Y-102536482D01*
X71070810Y-102536482D01*
X71070817Y-101082490D01*
X116513799Y-101082490D01*
X116513799Y-101194526D01*
X116542796Y-101302745D01*
X116598814Y-101399771D01*
X116678036Y-101478993D01*
X116775062Y-101535011D01*
X116883281Y-101564008D01*
X116883283Y-101564008D01*
X116995315Y-101564008D01*
X116995317Y-101564008D01*
X117103536Y-101535011D01*
X117200562Y-101478993D01*
X117279784Y-101399771D01*
X117335802Y-101302745D01*
X117335802Y-101302744D01*
X117339866Y-101295706D01*
X117342989Y-101297509D01*
X117376275Y-101255950D01*
X117442503Y-101233687D01*
X117510253Y-101250763D01*
X117553184Y-101296599D01*
X117554732Y-101295706D01*
X117558796Y-101302745D01*
X117614814Y-101399771D01*
X117694036Y-101478993D01*
X117791062Y-101535011D01*
X117899281Y-101564008D01*
X117899283Y-101564008D01*
X118011315Y-101564008D01*
X118011317Y-101564008D01*
X118119536Y-101535011D01*
X118216562Y-101478993D01*
X118295784Y-101399771D01*
X118351802Y-101302745D01*
X118351802Y-101302744D01*
X118355866Y-101295706D01*
X118358785Y-101297391D01*
X118392751Y-101255169D01*
X118459026Y-101233046D01*
X118526740Y-101250266D01*
X118574395Y-101301362D01*
X118576585Y-101306150D01*
X118577096Y-101307036D01*
X118577097Y-101307037D01*
X118633115Y-101404063D01*
X118712337Y-101483285D01*
X118809363Y-101539303D01*
X118917582Y-101568300D01*
X118917584Y-101568300D01*
X119029616Y-101568300D01*
X119029618Y-101568300D01*
X119137837Y-101539303D01*
X119234863Y-101483285D01*
X119314085Y-101404063D01*
X119370103Y-101307037D01*
X119370103Y-101307036D01*
X119374167Y-101299998D01*
X119377290Y-101301801D01*
X119410576Y-101260242D01*
X119476804Y-101237979D01*
X119544554Y-101255055D01*
X119587485Y-101300891D01*
X119589033Y-101299998D01*
X119593097Y-101307037D01*
X119649115Y-101404063D01*
X119728337Y-101483285D01*
X119825363Y-101539303D01*
X119933582Y-101568300D01*
X119933584Y-101568300D01*
X120045616Y-101568300D01*
X120045618Y-101568300D01*
X120153837Y-101539303D01*
X120250863Y-101483285D01*
X120330085Y-101404063D01*
X120386103Y-101307037D01*
X120386103Y-101307036D01*
X120390167Y-101299998D01*
X120393290Y-101301801D01*
X120426576Y-101260242D01*
X120492804Y-101237979D01*
X120560554Y-101255055D01*
X120603485Y-101300891D01*
X120605033Y-101299998D01*
X120609097Y-101307037D01*
X120665115Y-101404063D01*
X120744337Y-101483285D01*
X120841363Y-101539303D01*
X120949582Y-101568300D01*
X120949584Y-101568300D01*
X121061616Y-101568300D01*
X121061618Y-101568300D01*
X121169837Y-101539303D01*
X121266863Y-101483285D01*
X121346085Y-101404063D01*
X121402103Y-101307037D01*
X121402103Y-101307036D01*
X121406167Y-101299998D01*
X121409290Y-101301801D01*
X121442576Y-101260242D01*
X121508804Y-101237979D01*
X121576554Y-101255055D01*
X121619485Y-101300891D01*
X121621033Y-101299998D01*
X121625097Y-101307037D01*
X121681115Y-101404063D01*
X121760337Y-101483285D01*
X121857363Y-101539303D01*
X121965582Y-101568300D01*
X121965584Y-101568300D01*
X122077616Y-101568300D01*
X122077618Y-101568300D01*
X122185837Y-101539303D01*
X122282863Y-101483285D01*
X122362085Y-101404063D01*
X122418103Y-101307037D01*
X122418103Y-101307036D01*
X122422167Y-101299998D01*
X122425290Y-101301801D01*
X122458576Y-101260242D01*
X122524804Y-101237979D01*
X122592554Y-101255055D01*
X122635485Y-101300891D01*
X122637033Y-101299998D01*
X122641097Y-101307037D01*
X122697115Y-101404063D01*
X122776337Y-101483285D01*
X122873363Y-101539303D01*
X122981582Y-101568300D01*
X122981584Y-101568300D01*
X123093616Y-101568300D01*
X123093618Y-101568300D01*
X123201837Y-101539303D01*
X123298863Y-101483285D01*
X123378085Y-101404063D01*
X123434103Y-101307037D01*
X123434103Y-101307036D01*
X123438167Y-101299998D01*
X123441290Y-101301801D01*
X123474576Y-101260242D01*
X123540804Y-101237979D01*
X123608554Y-101255055D01*
X123651485Y-101300891D01*
X123653033Y-101299998D01*
X123657097Y-101307037D01*
X123713115Y-101404063D01*
X123792337Y-101483285D01*
X123889363Y-101539303D01*
X123997582Y-101568300D01*
X123997584Y-101568300D01*
X124109616Y-101568300D01*
X124109618Y-101568300D01*
X124217837Y-101539303D01*
X124314863Y-101483285D01*
X124394085Y-101404063D01*
X124450103Y-101307037D01*
X124479100Y-101198818D01*
X124479100Y-101086782D01*
X124450103Y-100978563D01*
X124394085Y-100881537D01*
X124314863Y-100802315D01*
X124250179Y-100764969D01*
X124217839Y-100746298D01*
X124217838Y-100746297D01*
X124217837Y-100746297D01*
X124109618Y-100717300D01*
X123997582Y-100717300D01*
X123889363Y-100746297D01*
X123889360Y-100746298D01*
X123792340Y-100802313D01*
X123792334Y-100802317D01*
X123713117Y-100881534D01*
X123713113Y-100881540D01*
X123653033Y-100985602D01*
X123649960Y-100983828D01*
X123616303Y-101025581D01*
X123550005Y-101047635D01*
X123482308Y-101030344D01*
X123439792Y-100984663D01*
X123438167Y-100985602D01*
X123431623Y-100974268D01*
X123378085Y-100881537D01*
X123298863Y-100802315D01*
X123234179Y-100764969D01*
X123201839Y-100746298D01*
X123201838Y-100746297D01*
X123201837Y-100746297D01*
X123093618Y-100717300D01*
X122981582Y-100717300D01*
X122873363Y-100746297D01*
X122873360Y-100746298D01*
X122776340Y-100802313D01*
X122776334Y-100802317D01*
X122697117Y-100881534D01*
X122697113Y-100881540D01*
X122637033Y-100985602D01*
X122633960Y-100983828D01*
X122600303Y-101025581D01*
X122534005Y-101047635D01*
X122466308Y-101030344D01*
X122423792Y-100984663D01*
X122422167Y-100985602D01*
X122415623Y-100974268D01*
X122362085Y-100881537D01*
X122282863Y-100802315D01*
X122218179Y-100764969D01*
X122185839Y-100746298D01*
X122185838Y-100746297D01*
X122185837Y-100746297D01*
X122077618Y-100717300D01*
X121965582Y-100717300D01*
X121857363Y-100746297D01*
X121857360Y-100746298D01*
X121760340Y-100802313D01*
X121760334Y-100802317D01*
X121681117Y-100881534D01*
X121681113Y-100881540D01*
X121621033Y-100985602D01*
X121617960Y-100983828D01*
X121584303Y-101025581D01*
X121518005Y-101047635D01*
X121450308Y-101030344D01*
X121407792Y-100984663D01*
X121406167Y-100985602D01*
X121399623Y-100974268D01*
X121346085Y-100881537D01*
X121266863Y-100802315D01*
X121202179Y-100764969D01*
X121169839Y-100746298D01*
X121169838Y-100746297D01*
X121169837Y-100746297D01*
X121061618Y-100717300D01*
X120949582Y-100717300D01*
X120841363Y-100746297D01*
X120841360Y-100746298D01*
X120744340Y-100802313D01*
X120744334Y-100802317D01*
X120665117Y-100881534D01*
X120665113Y-100881540D01*
X120605033Y-100985602D01*
X120601960Y-100983828D01*
X120568303Y-101025581D01*
X120502005Y-101047635D01*
X120434308Y-101030344D01*
X120391792Y-100984663D01*
X120390167Y-100985602D01*
X120383623Y-100974268D01*
X120330085Y-100881537D01*
X120250863Y-100802315D01*
X120186179Y-100764969D01*
X120153839Y-100746298D01*
X120153838Y-100746297D01*
X120153837Y-100746297D01*
X120045618Y-100717300D01*
X119933582Y-100717300D01*
X119825363Y-100746297D01*
X119825360Y-100746298D01*
X119728340Y-100802313D01*
X119728334Y-100802317D01*
X119649117Y-100881534D01*
X119649113Y-100881540D01*
X119589033Y-100985602D01*
X119585960Y-100983828D01*
X119552303Y-101025581D01*
X119486005Y-101047635D01*
X119418308Y-101030344D01*
X119375792Y-100984663D01*
X119374167Y-100985602D01*
X119367623Y-100974268D01*
X119314085Y-100881537D01*
X119234863Y-100802315D01*
X119170179Y-100764969D01*
X119137839Y-100746298D01*
X119137838Y-100746297D01*
X119137837Y-100746297D01*
X119029618Y-100717300D01*
X118917582Y-100717300D01*
X118809363Y-100746297D01*
X118809360Y-100746298D01*
X118712340Y-100802313D01*
X118712334Y-100802317D01*
X118633117Y-100881534D01*
X118633113Y-100881540D01*
X118573033Y-100985602D01*
X118570138Y-100983931D01*
X118535981Y-101026253D01*
X118469671Y-101048268D01*
X118401984Y-101030938D01*
X118354412Y-100979765D01*
X118352296Y-100975127D01*
X118351800Y-100974268D01*
X118295784Y-100877245D01*
X118216562Y-100798023D01*
X118151878Y-100760677D01*
X118119538Y-100742006D01*
X118119537Y-100742005D01*
X118119536Y-100742005D01*
X118011317Y-100713008D01*
X117899281Y-100713008D01*
X117791062Y-100742005D01*
X117791059Y-100742006D01*
X117694039Y-100798021D01*
X117694033Y-100798025D01*
X117614816Y-100877242D01*
X117614812Y-100877248D01*
X117554732Y-100981310D01*
X117551659Y-100979536D01*
X117518002Y-101021289D01*
X117451704Y-101043343D01*
X117384007Y-101026052D01*
X117341491Y-100980371D01*
X117339866Y-100981310D01*
X117335800Y-100974268D01*
X117279784Y-100877245D01*
X117200562Y-100798023D01*
X117135878Y-100760677D01*
X117103538Y-100742006D01*
X117103537Y-100742005D01*
X117103536Y-100742005D01*
X116995317Y-100713008D01*
X116883281Y-100713008D01*
X116775062Y-100742005D01*
X116775059Y-100742006D01*
X116678039Y-100798021D01*
X116678033Y-100798025D01*
X116598816Y-100877242D01*
X116598812Y-100877248D01*
X116542797Y-100974268D01*
X116542796Y-100974271D01*
X116513799Y-101082490D01*
X71070817Y-101082490D01*
X71070827Y-99024549D01*
X73889900Y-99024549D01*
X73889900Y-99247450D01*
X73889901Y-99247466D01*
X73918994Y-99468452D01*
X73918995Y-99468457D01*
X73918996Y-99468463D01*
X73918997Y-99468465D01*
X73976690Y-99683780D01*
X73976693Y-99683790D01*
X74061993Y-99889722D01*
X74061995Y-99889726D01*
X74173452Y-100082774D01*
X74173457Y-100082780D01*
X74173458Y-100082782D01*
X74309151Y-100259622D01*
X74309157Y-100259629D01*
X74466770Y-100417242D01*
X74466776Y-100417247D01*
X74643626Y-100552948D01*
X74836674Y-100664405D01*
X74954012Y-100713008D01*
X75034381Y-100746298D01*
X75042619Y-100749710D01*
X75257937Y-100807404D01*
X75478943Y-100836500D01*
X75478950Y-100836500D01*
X75701850Y-100836500D01*
X75701857Y-100836500D01*
X75922863Y-100807404D01*
X76138181Y-100749710D01*
X76344126Y-100664405D01*
X76537174Y-100552948D01*
X76714024Y-100417247D01*
X76871647Y-100259624D01*
X77007348Y-100082774D01*
X77118805Y-99889726D01*
X77204110Y-99683781D01*
X77261804Y-99468463D01*
X77290900Y-99247457D01*
X77290900Y-99024543D01*
X77290365Y-99020483D01*
X77282566Y-98961241D01*
X77282566Y-98961240D01*
X77281505Y-98953182D01*
X122358100Y-98953182D01*
X122358100Y-99065218D01*
X122387097Y-99173437D01*
X122443115Y-99270463D01*
X122522337Y-99349685D01*
X122619363Y-99405703D01*
X122727582Y-99434700D01*
X122727584Y-99434700D01*
X122839616Y-99434700D01*
X122839618Y-99434700D01*
X122947837Y-99405703D01*
X123044863Y-99349685D01*
X123124085Y-99270463D01*
X123180103Y-99173437D01*
X123209100Y-99065218D01*
X123209100Y-98953182D01*
X123180103Y-98844963D01*
X123124085Y-98747937D01*
X123044863Y-98668715D01*
X122947837Y-98612697D01*
X122839618Y-98583700D01*
X122727582Y-98583700D01*
X122619363Y-98612697D01*
X122619360Y-98612698D01*
X122522340Y-98668713D01*
X122522334Y-98668717D01*
X122443117Y-98747934D01*
X122443113Y-98747940D01*
X122387098Y-98844960D01*
X122387097Y-98844963D01*
X122358100Y-98953182D01*
X77281505Y-98953182D01*
X77261805Y-98803547D01*
X77261804Y-98803537D01*
X77204110Y-98588219D01*
X77118805Y-98382274D01*
X77007348Y-98189226D01*
X76871647Y-98012376D01*
X76871642Y-98012370D01*
X76714029Y-97854757D01*
X76714022Y-97854751D01*
X76537182Y-97719058D01*
X76537180Y-97719057D01*
X76537174Y-97719052D01*
X76344126Y-97607595D01*
X76344122Y-97607593D01*
X76138190Y-97522293D01*
X76138183Y-97522291D01*
X76138181Y-97522290D01*
X75922863Y-97464596D01*
X75922857Y-97464595D01*
X75922852Y-97464594D01*
X75701866Y-97435501D01*
X75701863Y-97435500D01*
X75701857Y-97435500D01*
X75478943Y-97435500D01*
X75478937Y-97435500D01*
X75478933Y-97435501D01*
X75257947Y-97464594D01*
X75257940Y-97464595D01*
X75257937Y-97464596D01*
X75217978Y-97475303D01*
X75042619Y-97522290D01*
X75042609Y-97522293D01*
X74836677Y-97607593D01*
X74836673Y-97607595D01*
X74643626Y-97719052D01*
X74643617Y-97719058D01*
X74466777Y-97854751D01*
X74466770Y-97854757D01*
X74309157Y-98012370D01*
X74309151Y-98012377D01*
X74173458Y-98189217D01*
X74173452Y-98189226D01*
X74061995Y-98382273D01*
X74061993Y-98382277D01*
X73976693Y-98588209D01*
X73976690Y-98588219D01*
X73918997Y-98803534D01*
X73918994Y-98803547D01*
X73889901Y-99024533D01*
X73889900Y-99024549D01*
X71070827Y-99024549D01*
X71070836Y-97022782D01*
X101733300Y-97022782D01*
X101733300Y-97134818D01*
X101762297Y-97243037D01*
X101818315Y-97340063D01*
X101897537Y-97419285D01*
X101994563Y-97475303D01*
X102102782Y-97504300D01*
X102102784Y-97504300D01*
X102214816Y-97504300D01*
X102214818Y-97504300D01*
X102323037Y-97475303D01*
X102420063Y-97419285D01*
X102499285Y-97340063D01*
X102555303Y-97243037D01*
X102584300Y-97134818D01*
X102584300Y-97131982D01*
X104697500Y-97131982D01*
X104697500Y-97244018D01*
X104726497Y-97352237D01*
X104782515Y-97449263D01*
X104861737Y-97528485D01*
X104958763Y-97584503D01*
X105066982Y-97613500D01*
X105066984Y-97613500D01*
X105179016Y-97613500D01*
X105179018Y-97613500D01*
X105287237Y-97584503D01*
X105384263Y-97528485D01*
X105463485Y-97449263D01*
X105519503Y-97352237D01*
X105548500Y-97244018D01*
X105548500Y-97131982D01*
X105519503Y-97023763D01*
X105463485Y-96926737D01*
X105384263Y-96847515D01*
X105287237Y-96791497D01*
X105179018Y-96762500D01*
X105066982Y-96762500D01*
X104958763Y-96791497D01*
X104958760Y-96791498D01*
X104861740Y-96847513D01*
X104861734Y-96847517D01*
X104782517Y-96926734D01*
X104782513Y-96926740D01*
X104726498Y-97023760D01*
X104726497Y-97023763D01*
X104697500Y-97131982D01*
X102584300Y-97131982D01*
X102584300Y-97022782D01*
X102555303Y-96914563D01*
X102499285Y-96817537D01*
X102420063Y-96738315D01*
X102323037Y-96682297D01*
X102214818Y-96653300D01*
X102102782Y-96653300D01*
X101994563Y-96682297D01*
X101994560Y-96682298D01*
X101897540Y-96738313D01*
X101897534Y-96738317D01*
X101818317Y-96817534D01*
X101818313Y-96817540D01*
X101762298Y-96914560D01*
X101762297Y-96914563D01*
X101733300Y-97022782D01*
X71070836Y-97022782D01*
X71070840Y-96082982D01*
X109683500Y-96082982D01*
X109683500Y-96195018D01*
X109712497Y-96303237D01*
X109768515Y-96400263D01*
X109847737Y-96479485D01*
X109944763Y-96535503D01*
X110052982Y-96564500D01*
X110052984Y-96564500D01*
X110165016Y-96564500D01*
X110165018Y-96564500D01*
X110273237Y-96535503D01*
X110370263Y-96479485D01*
X110449485Y-96400263D01*
X110505503Y-96303237D01*
X110534500Y-96195018D01*
X110534500Y-96082982D01*
X110505503Y-95974763D01*
X110449485Y-95877737D01*
X110370263Y-95798515D01*
X110273237Y-95742497D01*
X110165018Y-95713500D01*
X110052982Y-95713500D01*
X109944763Y-95742497D01*
X109944760Y-95742498D01*
X109847740Y-95798513D01*
X109847734Y-95798517D01*
X109768517Y-95877734D01*
X109768513Y-95877740D01*
X109712498Y-95974760D01*
X109712497Y-95974763D01*
X109683500Y-96082982D01*
X71070840Y-96082982D01*
X71070856Y-92831729D01*
X73889900Y-92831729D01*
X73889900Y-95440260D01*
X73889901Y-95440266D01*
X73892754Y-95470700D01*
X73892754Y-95470702D01*
X73892755Y-95470703D01*
X73892755Y-95470705D01*
X73937606Y-95598882D01*
X74018249Y-95708150D01*
X74064788Y-95742497D01*
X74127517Y-95788793D01*
X74155301Y-95798515D01*
X74255698Y-95833646D01*
X74262723Y-95834304D01*
X74286133Y-95836500D01*
X76894666Y-95836499D01*
X76925100Y-95833646D01*
X77053283Y-95788793D01*
X77162550Y-95708150D01*
X77243193Y-95598883D01*
X77265619Y-95534791D01*
X77288046Y-95470702D01*
X77288046Y-95470700D01*
X77290900Y-95440267D01*
X77290899Y-93034982D01*
X106127500Y-93034982D01*
X106127500Y-93147018D01*
X106156497Y-93255237D01*
X106212515Y-93352263D01*
X106291737Y-93431485D01*
X106388763Y-93487503D01*
X106496982Y-93516500D01*
X106496984Y-93516500D01*
X106609016Y-93516500D01*
X106609018Y-93516500D01*
X106717237Y-93487503D01*
X106814263Y-93431485D01*
X106893485Y-93352263D01*
X106949503Y-93255237D01*
X106978500Y-93147018D01*
X106978500Y-93034982D01*
X106949503Y-92926763D01*
X106893485Y-92829737D01*
X106814263Y-92750515D01*
X106717237Y-92694497D01*
X106609018Y-92665500D01*
X106496982Y-92665500D01*
X106388763Y-92694497D01*
X106388760Y-92694498D01*
X106291740Y-92750513D01*
X106291734Y-92750517D01*
X106212517Y-92829734D01*
X106212513Y-92829740D01*
X106156498Y-92926760D01*
X106156497Y-92926763D01*
X106127500Y-93034982D01*
X77290899Y-93034982D01*
X77290899Y-92831734D01*
X77288046Y-92801300D01*
X77243193Y-92673117D01*
X77237571Y-92665500D01*
X77162550Y-92563849D01*
X77088523Y-92509215D01*
X77053283Y-92483207D01*
X77053281Y-92483206D01*
X76925101Y-92438353D01*
X76894670Y-92435500D01*
X74286139Y-92435500D01*
X74272151Y-92436811D01*
X74255700Y-92438354D01*
X74255697Y-92438354D01*
X74255696Y-92438355D01*
X74255694Y-92438355D01*
X74127517Y-92483206D01*
X74018249Y-92563849D01*
X73937606Y-92673118D01*
X73892753Y-92801297D01*
X73892753Y-92801299D01*
X73889900Y-92831729D01*
X71070856Y-92831729D01*
X71070859Y-92128982D01*
X103079500Y-92128982D01*
X103079500Y-92241018D01*
X103108497Y-92349237D01*
X103164515Y-92446263D01*
X103243737Y-92525485D01*
X103340763Y-92581503D01*
X103448982Y-92610500D01*
X103448984Y-92610500D01*
X103561016Y-92610500D01*
X103561018Y-92610500D01*
X103669237Y-92581503D01*
X103766263Y-92525485D01*
X103845485Y-92446263D01*
X103901503Y-92349237D01*
X103930500Y-92241018D01*
X103930500Y-92128982D01*
X103901503Y-92020763D01*
X103871607Y-91968982D01*
X122510500Y-91968982D01*
X122510500Y-92081018D01*
X122539497Y-92189237D01*
X122595515Y-92286263D01*
X122674737Y-92365485D01*
X122771763Y-92421503D01*
X122879982Y-92450500D01*
X122879984Y-92450500D01*
X122992016Y-92450500D01*
X122992018Y-92450500D01*
X123100237Y-92421503D01*
X123197263Y-92365485D01*
X123276485Y-92286263D01*
X123332503Y-92189237D01*
X123361500Y-92081018D01*
X123361500Y-91968982D01*
X123332503Y-91860763D01*
X123276485Y-91763737D01*
X123197263Y-91684515D01*
X123100237Y-91628497D01*
X122992018Y-91599500D01*
X122879982Y-91599500D01*
X122771763Y-91628497D01*
X122771760Y-91628498D01*
X122674740Y-91684513D01*
X122674734Y-91684517D01*
X122595517Y-91763734D01*
X122595513Y-91763740D01*
X122539498Y-91860760D01*
X122539497Y-91860763D01*
X122510500Y-91968982D01*
X103871607Y-91968982D01*
X103845485Y-91923737D01*
X103766263Y-91844515D01*
X103669237Y-91788497D01*
X103561018Y-91759500D01*
X103448982Y-91759500D01*
X103340763Y-91788497D01*
X103340760Y-91788498D01*
X103243740Y-91844513D01*
X103243734Y-91844517D01*
X103164517Y-91923734D01*
X103164513Y-91923740D01*
X103108498Y-92020760D01*
X103108497Y-92020763D01*
X103079500Y-92128982D01*
X71070859Y-92128982D01*
X71070874Y-88996382D01*
X97618500Y-88996382D01*
X97618500Y-89108418D01*
X97647497Y-89216637D01*
X97703515Y-89313663D01*
X97782737Y-89392885D01*
X97879763Y-89448903D01*
X97987982Y-89477900D01*
X97987984Y-89477900D01*
X98100016Y-89477900D01*
X98100018Y-89477900D01*
X98208237Y-89448903D01*
X98305263Y-89392885D01*
X98384485Y-89313663D01*
X98440503Y-89216637D01*
X98469500Y-89108418D01*
X98469500Y-88996382D01*
X104222500Y-88996382D01*
X104222500Y-89108418D01*
X104251497Y-89216637D01*
X104307515Y-89313663D01*
X104386737Y-89392885D01*
X104483763Y-89448903D01*
X104591982Y-89477900D01*
X104591984Y-89477900D01*
X104704016Y-89477900D01*
X104704018Y-89477900D01*
X104812237Y-89448903D01*
X104909263Y-89392885D01*
X104988485Y-89313663D01*
X105044503Y-89216637D01*
X105073500Y-89108418D01*
X105073500Y-88996382D01*
X105044503Y-88888163D01*
X104988485Y-88791137D01*
X104909263Y-88711915D01*
X104812237Y-88655897D01*
X104704018Y-88626900D01*
X104591982Y-88626900D01*
X104483763Y-88655897D01*
X104483760Y-88655898D01*
X104386740Y-88711913D01*
X104386734Y-88711917D01*
X104307517Y-88791134D01*
X104307513Y-88791140D01*
X104251498Y-88888160D01*
X104251497Y-88888163D01*
X104222500Y-88996382D01*
X98469500Y-88996382D01*
X98440503Y-88888163D01*
X98384485Y-88791137D01*
X98305263Y-88711915D01*
X98208237Y-88655897D01*
X98100018Y-88626900D01*
X97987982Y-88626900D01*
X97879763Y-88655897D01*
X97879760Y-88655898D01*
X97782740Y-88711913D01*
X97782734Y-88711917D01*
X97703517Y-88791134D01*
X97703513Y-88791140D01*
X97647498Y-88888160D01*
X97647497Y-88888163D01*
X97618500Y-88996382D01*
X71070874Y-88996382D01*
X71070876Y-88462982D01*
X123907500Y-88462982D01*
X123907500Y-88575018D01*
X123936497Y-88683237D01*
X123992515Y-88780263D01*
X124071737Y-88859485D01*
X124168763Y-88915503D01*
X124276982Y-88944500D01*
X124276984Y-88944500D01*
X124389016Y-88944500D01*
X124389018Y-88944500D01*
X124497237Y-88915503D01*
X124594263Y-88859485D01*
X124673485Y-88780263D01*
X124729503Y-88683237D01*
X124758500Y-88575018D01*
X124758500Y-88462982D01*
X126320500Y-88462982D01*
X126320500Y-88575018D01*
X126349497Y-88683237D01*
X126405515Y-88780263D01*
X126484737Y-88859485D01*
X126581763Y-88915503D01*
X126689982Y-88944500D01*
X126689984Y-88944500D01*
X126802016Y-88944500D01*
X126802018Y-88944500D01*
X126910237Y-88915503D01*
X127007263Y-88859485D01*
X127086485Y-88780263D01*
X127142503Y-88683237D01*
X127171500Y-88575018D01*
X127171500Y-88462982D01*
X127142503Y-88354763D01*
X127086485Y-88257737D01*
X127007263Y-88178515D01*
X126910237Y-88122497D01*
X126802018Y-88093500D01*
X126689982Y-88093500D01*
X126581763Y-88122497D01*
X126581760Y-88122498D01*
X126484740Y-88178513D01*
X126484734Y-88178517D01*
X126405517Y-88257734D01*
X126405513Y-88257740D01*
X126349498Y-88354760D01*
X126349497Y-88354763D01*
X126320500Y-88462982D01*
X124758500Y-88462982D01*
X124729503Y-88354763D01*
X124673485Y-88257737D01*
X124594263Y-88178515D01*
X124497237Y-88122497D01*
X124389018Y-88093500D01*
X124276982Y-88093500D01*
X124168763Y-88122497D01*
X124168760Y-88122498D01*
X124071740Y-88178513D01*
X124071734Y-88178517D01*
X123992517Y-88257734D01*
X123992513Y-88257740D01*
X123936498Y-88354760D01*
X123936497Y-88354763D01*
X123907500Y-88462982D01*
X71070876Y-88462982D01*
X71070879Y-87859574D01*
X71070900Y-87841137D01*
X71071260Y-87840627D01*
X71070923Y-87819486D01*
X71070925Y-87818487D01*
X71070987Y-87818274D01*
X71071120Y-87811666D01*
X71083134Y-87598336D01*
X71085422Y-87580619D01*
X71086857Y-87573561D01*
X71127074Y-87375662D01*
X71131880Y-87358470D01*
X71202570Y-87161602D01*
X71209789Y-87145300D01*
X71279021Y-87015182D01*
X116008100Y-87015182D01*
X116008100Y-87127218D01*
X116037097Y-87235437D01*
X116093115Y-87332463D01*
X116172337Y-87411685D01*
X116269363Y-87467703D01*
X116377582Y-87496700D01*
X116377584Y-87496700D01*
X116489616Y-87496700D01*
X116489618Y-87496700D01*
X116597837Y-87467703D01*
X116694863Y-87411685D01*
X116774085Y-87332463D01*
X116830103Y-87235437D01*
X116859100Y-87127218D01*
X116859100Y-87015182D01*
X116830103Y-86906963D01*
X116774085Y-86809937D01*
X116694863Y-86730715D01*
X116597837Y-86674697D01*
X116489618Y-86645700D01*
X116377582Y-86645700D01*
X116269363Y-86674697D01*
X116269360Y-86674698D01*
X116172340Y-86730713D01*
X116172334Y-86730717D01*
X116093117Y-86809934D01*
X116093113Y-86809940D01*
X116037098Y-86906960D01*
X116037097Y-86906963D01*
X116008100Y-87015182D01*
X71279021Y-87015182D01*
X71308043Y-86960637D01*
X71317537Y-86945531D01*
X71441306Y-86776920D01*
X71452879Y-86763327D01*
X71599598Y-86614259D01*
X71613010Y-86602466D01*
X71779626Y-86476041D01*
X71794594Y-86466298D01*
X71977661Y-86365131D01*
X71993859Y-86357648D01*
X72189566Y-86283845D01*
X72206679Y-86278766D01*
X72410962Y-86233861D01*
X72428637Y-86231293D01*
X72641441Y-86215915D01*
X72650375Y-86215594D01*
X127092481Y-86215800D01*
G37*
G04 #@! TD.AperFunction*
M02*
