G04 #@! TF.GenerationSoftware,KiCad,Pcbnew,9.0.5*
G04 #@! TF.CreationDate,2025-10-24T16:35:50+02:00*
G04 #@! TF.ProjectId,Mini-EMS-ESP,4d696e69-2d45-44d5-932d-4553502e6b69,rev?*
G04 #@! TF.SameCoordinates,Original*
G04 #@! TF.FileFunction,Copper,L4,Bot*
G04 #@! TF.FilePolarity,Positive*
%FSLAX46Y46*%
G04 Gerber Fmt 4.6, Leading zero omitted, Abs format (unit mm)*
G04 Created by KiCad (PCBNEW 9.0.5) date 2025-10-24 16:35:50*
%MOMM*%
%LPD*%
G01*
G04 APERTURE LIST*
G04 Aperture macros list*
%AMRoundRect*
0 Rectangle with rounded corners*
0 $1 Rounding radius*
0 $2 $3 $4 $5 $6 $7 $8 $9 X,Y pos of 4 corners*
0 Add a 4 corners polygon primitive as box body*
4,1,4,$2,$3,$4,$5,$6,$7,$8,$9,$2,$3,0*
0 Add four circle primitives for the rounded corners*
1,1,$1+$1,$2,$3*
1,1,$1+$1,$4,$5*
1,1,$1+$1,$6,$7*
1,1,$1+$1,$8,$9*
0 Add four rect primitives between the rounded corners*
20,1,$1+$1,$2,$3,$4,$5,0*
20,1,$1+$1,$4,$5,$6,$7,0*
20,1,$1+$1,$6,$7,$8,$9,0*
20,1,$1+$1,$8,$9,$2,$3,0*%
G04 Aperture macros list end*
G04 #@! TA.AperFunction,ComponentPad*
%ADD10RoundRect,0.249999X-1.250001X1.250001X-1.250001X-1.250001X1.250001X-1.250001X1.250001X1.250001X0*%
G04 #@! TD*
G04 #@! TA.AperFunction,ComponentPad*
%ADD11C,3.000000*%
G04 #@! TD*
G04 #@! TA.AperFunction,ComponentPad*
%ADD12O,2.100000X1.000000*%
G04 #@! TD*
G04 #@! TA.AperFunction,ComponentPad*
%ADD13O,1.600000X1.000000*%
G04 #@! TD*
G04 #@! TA.AperFunction,SMDPad,CuDef*
%ADD14R,1.500000X0.900000*%
G04 #@! TD*
G04 #@! TA.AperFunction,SMDPad,CuDef*
%ADD15R,0.900000X1.500000*%
G04 #@! TD*
G04 #@! TA.AperFunction,SMDPad,CuDef*
%ADD16R,1.050000X1.050000*%
G04 #@! TD*
G04 #@! TA.AperFunction,HeatsinkPad*
%ADD17C,0.600000*%
G04 #@! TD*
G04 #@! TA.AperFunction,HeatsinkPad*
%ADD18R,4.200000X4.200000*%
G04 #@! TD*
G04 #@! TA.AperFunction,ViaPad*
%ADD19C,0.450000*%
G04 #@! TD*
G04 #@! TA.AperFunction,Conductor*
%ADD20C,0.500000*%
G04 #@! TD*
G04 #@! TA.AperFunction,Conductor*
%ADD21C,0.250000*%
G04 #@! TD*
G04 APERTURE END LIST*
D10*
X75590400Y-94136000D03*
D11*
X75590400Y-99136000D03*
D12*
X78006000Y-104392000D03*
X78006000Y-104392000D03*
D13*
X73826000Y-104392000D03*
X73826000Y-104392000D03*
D12*
X78006000Y-113032000D03*
X78006000Y-113032000D03*
D13*
X73826000Y-113032000D03*
X73826000Y-113032000D03*
D14*
X125704000Y-87249000D03*
X125704000Y-88519000D03*
X125704000Y-89789000D03*
X125704000Y-91059000D03*
X125704000Y-92329000D03*
X125704000Y-93599000D03*
X125704000Y-94869000D03*
X125704000Y-96139000D03*
X125704000Y-97409000D03*
X125704000Y-98679000D03*
X125704000Y-99949000D03*
X125704000Y-101219000D03*
X125704000Y-102489000D03*
X125704000Y-103759000D03*
D15*
X122664000Y-105009000D03*
X121394000Y-105009000D03*
X120124000Y-105009000D03*
X118854000Y-105009000D03*
X117584000Y-105009000D03*
X116314000Y-105009000D03*
X115044000Y-105009000D03*
X113774000Y-105009000D03*
X112504000Y-105009000D03*
X111234000Y-105009000D03*
D14*
X108204000Y-103759000D03*
X108204000Y-102489000D03*
X108204000Y-101219000D03*
X108204000Y-99949000D03*
X108204000Y-98679000D03*
X108204000Y-97409000D03*
X108204000Y-96139000D03*
X108204000Y-94869000D03*
X108204000Y-93599000D03*
X108204000Y-92329000D03*
X108204000Y-91059000D03*
X108204000Y-89789000D03*
X108204000Y-88519000D03*
X108204000Y-87249000D03*
D16*
X119159000Y-96114000D03*
D17*
X119159000Y-95351500D03*
D16*
X119159000Y-94589000D03*
D17*
X119159000Y-93826500D03*
D16*
X119159000Y-93064000D03*
D17*
X118396500Y-96114000D03*
X118396500Y-94589000D03*
X118396500Y-93064000D03*
D16*
X117634000Y-96114000D03*
D17*
X117634000Y-95351500D03*
D16*
X117634000Y-94589000D03*
D18*
X117634000Y-94589000D03*
D17*
X117634000Y-93826500D03*
D16*
X117634000Y-93064000D03*
D17*
X116871500Y-96114000D03*
X116871500Y-94589000D03*
X116871500Y-93064000D03*
D16*
X116109000Y-96114000D03*
D17*
X116109000Y-95351500D03*
D16*
X116109000Y-94589000D03*
D17*
X116109000Y-93826500D03*
D16*
X116109000Y-93064000D03*
D19*
X118745000Y-115443000D03*
X111556800Y-88849200D03*
X79502000Y-112522000D03*
X118745000Y-114554000D03*
X117221000Y-115443000D03*
X125603000Y-106553000D03*
X117221000Y-116332000D03*
X123444000Y-110845600D03*
X101953443Y-114501732D03*
X82677000Y-118999000D03*
X117983000Y-117221000D03*
X118745000Y-113665000D03*
X117221000Y-117221000D03*
X121285000Y-119761000D03*
X119761000Y-118745000D03*
X100203000Y-87503000D03*
X117983000Y-115443000D03*
X113588800Y-93040200D03*
X124841000Y-106553000D03*
X124307600Y-111607600D03*
X84963000Y-111633000D03*
X125120400Y-110845600D03*
X92456000Y-93726000D03*
X118999000Y-118745000D03*
X83058000Y-107188000D03*
X120523000Y-119761000D03*
X93218000Y-90170000D03*
X120523000Y-120777000D03*
X124104400Y-91897200D03*
X95123000Y-89535000D03*
X83058000Y-110490000D03*
X117221000Y-114554000D03*
X124079000Y-106553000D03*
X119761000Y-119761000D03*
X118999000Y-120777000D03*
X82042000Y-111506000D03*
X79375000Y-105029000D03*
X100838000Y-91821000D03*
X126746000Y-87249000D03*
X105283000Y-100457000D03*
X95123000Y-102489000D03*
X118745000Y-117221000D03*
X117983000Y-116332000D03*
X114604800Y-93040200D03*
X103682800Y-114503200D03*
X119761000Y-120777000D03*
X125120400Y-111607600D03*
X124079000Y-87249000D03*
X104775000Y-104394000D03*
X117221000Y-113665000D03*
X92456000Y-102235000D03*
X117983000Y-114554000D03*
X107315000Y-87249000D03*
X123317000Y-106553000D03*
X121285000Y-118745000D03*
X118999000Y-119761000D03*
X118745000Y-116332000D03*
X117983000Y-113665000D03*
X113842800Y-87122000D03*
X121285000Y-120777000D03*
X124307600Y-110845600D03*
X123444000Y-111607600D03*
X102815105Y-114501732D03*
X120523000Y-118745000D03*
X105123000Y-97188000D03*
X122021600Y-101142800D03*
X118973600Y-101142800D03*
X119989600Y-101142800D03*
X117955299Y-101138508D03*
X117449600Y-122021600D03*
X123037600Y-101142800D03*
X106553000Y-93091000D03*
X82753200Y-122021600D03*
X126746000Y-88519000D03*
X124333000Y-88519000D03*
X116433600Y-87071200D03*
X116939299Y-101138508D03*
X121005600Y-101142800D03*
X124053600Y-101142800D03*
X102666800Y-102592500D03*
X102158800Y-97078800D03*
X103505000Y-92185000D03*
X122275600Y-112979200D03*
X111760000Y-113030000D03*
X87503000Y-121285000D03*
X107543600Y-104800400D03*
X86360000Y-123190000D03*
X122936000Y-92025000D03*
X98044000Y-89052400D03*
X104648000Y-89052400D03*
X110109000Y-96139000D03*
X80330432Y-118735232D03*
X79603600Y-118719600D03*
X80137000Y-109855000D03*
X83185000Y-111506000D03*
X81153000Y-111142000D03*
X79947000Y-108913000D03*
X122783600Y-99009200D03*
D20*
X122664000Y-105009000D02*
X122664000Y-105900000D01*
X124079000Y-87249000D02*
X125704000Y-87249000D01*
X107315000Y-87249000D02*
X108204000Y-87249000D01*
X125704000Y-87249000D02*
X126746000Y-87249000D01*
X122664000Y-105900000D02*
X123317000Y-106553000D01*
X125704000Y-88519000D02*
X126746000Y-88519000D01*
X124333000Y-88519000D02*
X125704000Y-88519000D01*
D21*
X102158800Y-102084500D02*
X102666800Y-102592500D01*
X102158800Y-97078800D02*
X102158800Y-102084500D01*
X107357877Y-98679000D02*
X103462939Y-94784061D01*
X108204000Y-98679000D02*
X107357877Y-98679000D01*
X103462939Y-92227061D02*
X103462939Y-94784061D01*
X103505000Y-92185000D02*
X103462939Y-92227061D01*
X111760000Y-113030000D02*
X120904000Y-113030000D01*
X120904000Y-113030000D02*
X122224800Y-113030000D01*
X122224800Y-113030000D02*
X122275600Y-112979200D01*
X107543600Y-104800400D02*
X108204000Y-104140000D01*
X87503000Y-121285000D02*
X91059000Y-121285000D01*
X108204000Y-104140000D02*
X108204000Y-103759000D01*
X91059000Y-121285000D02*
X107543600Y-104800400D01*
X108626673Y-105393727D02*
X116357400Y-97663000D01*
X89109000Y-121711000D02*
X91235454Y-121711000D01*
X125172000Y-89789000D02*
X125704000Y-89789000D01*
X122936000Y-92025000D02*
X125172000Y-89789000D01*
X91235454Y-121711000D02*
X107552727Y-105393727D01*
X87630000Y-123190000D02*
X89109000Y-121711000D01*
X86360000Y-123190000D02*
X87630000Y-123190000D01*
X116357400Y-97663000D02*
X120142000Y-97663000D01*
X120142000Y-97663000D02*
X122936000Y-94869000D01*
X122936000Y-94869000D02*
X122936000Y-92025000D01*
X107552727Y-105393727D02*
X108626673Y-105393727D01*
X104648000Y-89052400D02*
X98044000Y-89052400D01*
X110109000Y-89424000D02*
X110109000Y-96139000D01*
X108204000Y-88519000D02*
X109204000Y-88519000D01*
X109204000Y-88519000D02*
X110109000Y-89424000D01*
X103287123Y-91659000D02*
X106534000Y-91659000D01*
X106534000Y-91659000D02*
X107204000Y-92329000D01*
X98519454Y-92456000D02*
X102490123Y-92456000D01*
X84201000Y-114864664D02*
X84201000Y-106774454D01*
X80330432Y-118735232D02*
X84201000Y-114864664D01*
X102490123Y-92456000D02*
X103287123Y-91659000D01*
X84201000Y-106774454D02*
X98519454Y-92456000D01*
X107204000Y-92329000D02*
X108204000Y-92329000D01*
X83711000Y-106662000D02*
X83711000Y-113520000D01*
X108204000Y-91059000D02*
X107442000Y-91059000D01*
X107442000Y-91059000D02*
X107315000Y-91186000D01*
X99187000Y-91186000D02*
X83711000Y-106662000D01*
X107315000Y-91186000D02*
X99187000Y-91186000D01*
X83711000Y-114612200D02*
X79603600Y-118719600D01*
X83711000Y-113520000D02*
X83711000Y-114612200D01*
X80137000Y-109855000D02*
X80137000Y-110871000D01*
X81298000Y-112032000D02*
X82659000Y-112032000D01*
X82659000Y-112032000D02*
X83185000Y-111506000D01*
X80137000Y-110871000D02*
X81298000Y-112032000D01*
X81153000Y-110119000D02*
X79947000Y-108913000D01*
X81153000Y-111142000D02*
X81153000Y-110119000D01*
X111234000Y-104466123D02*
X115776523Y-99923600D01*
X111234000Y-105009000D02*
X111234000Y-104466123D01*
X115776523Y-99923600D02*
X121869200Y-99923600D01*
X121869200Y-99923600D02*
X122783600Y-99009200D01*
G04 #@! TA.AperFunction,Conductor*
G36*
X128086039Y-106064685D02*
G01*
X128131794Y-106117489D01*
X128143000Y-106169000D01*
X128143000Y-123193000D01*
X128123315Y-123260039D01*
X128070511Y-123305794D01*
X128019000Y-123317000D01*
X108836000Y-123317000D01*
X108768961Y-123297315D01*
X108723206Y-123244511D01*
X108712000Y-123193000D01*
X108712000Y-121965582D01*
X117024100Y-121965582D01*
X117024100Y-122077618D01*
X117053097Y-122185837D01*
X117109115Y-122282863D01*
X117188337Y-122362085D01*
X117285363Y-122418103D01*
X117393582Y-122447100D01*
X117393584Y-122447100D01*
X117505616Y-122447100D01*
X117505618Y-122447100D01*
X117613837Y-122418103D01*
X117710863Y-122362085D01*
X117790085Y-122282863D01*
X117846103Y-122185837D01*
X117875100Y-122077618D01*
X117875100Y-121965582D01*
X117846103Y-121857363D01*
X117790085Y-121760337D01*
X117710863Y-121681115D01*
X117613837Y-121625097D01*
X117505618Y-121596100D01*
X117393582Y-121596100D01*
X117285363Y-121625097D01*
X117285360Y-121625098D01*
X117188340Y-121681113D01*
X117188334Y-121681117D01*
X117109117Y-121760334D01*
X117109113Y-121760340D01*
X117053098Y-121857360D01*
X117053097Y-121857363D01*
X117024100Y-121965582D01*
X108712000Y-121965582D01*
X108712000Y-112973982D01*
X111334500Y-112973982D01*
X111334500Y-113086018D01*
X111363497Y-113194237D01*
X111419515Y-113291263D01*
X111498737Y-113370485D01*
X111595763Y-113426503D01*
X111703982Y-113455500D01*
X111703984Y-113455500D01*
X111816016Y-113455500D01*
X111816018Y-113455500D01*
X111924237Y-113426503D01*
X112018443Y-113372112D01*
X112080443Y-113355500D01*
X120861147Y-113355500D01*
X122043145Y-113355500D01*
X122105144Y-113372112D01*
X122111363Y-113375703D01*
X122219582Y-113404700D01*
X122219584Y-113404700D01*
X122331616Y-113404700D01*
X122331618Y-113404700D01*
X122439837Y-113375703D01*
X122536863Y-113319685D01*
X122616085Y-113240463D01*
X122672103Y-113143437D01*
X122701100Y-113035218D01*
X122701100Y-112923182D01*
X122672103Y-112814963D01*
X122616085Y-112717937D01*
X122536863Y-112638715D01*
X122439837Y-112582697D01*
X122331618Y-112553700D01*
X122219582Y-112553700D01*
X122111363Y-112582697D01*
X122111360Y-112582698D01*
X122014340Y-112638713D01*
X122014334Y-112638717D01*
X121984871Y-112668181D01*
X121923548Y-112701666D01*
X121897190Y-112704500D01*
X112080443Y-112704500D01*
X112018443Y-112687887D01*
X111924239Y-112633498D01*
X111924238Y-112633497D01*
X111924237Y-112633497D01*
X111816018Y-112604500D01*
X111703982Y-112604500D01*
X111595763Y-112633497D01*
X111595760Y-112633498D01*
X111498740Y-112689513D01*
X111498734Y-112689517D01*
X111419517Y-112768734D01*
X111419513Y-112768740D01*
X111363498Y-112865760D01*
X111363497Y-112865763D01*
X111334500Y-112973982D01*
X108712000Y-112973982D01*
X108712000Y-106169000D01*
X108731685Y-106101961D01*
X108784489Y-106056206D01*
X108836000Y-106045000D01*
X128019000Y-106045000D01*
X128086039Y-106064685D01*
G37*
G04 #@! TD.AperFunction*
M02*
