%TF.GenerationSoftware,KiCad,Pcbnew,9.0.5*%
%TF.CreationDate,2025-10-24T16:35:53+02:00*%
%TF.ProjectId,Mini-EMS-ESP,4d696e69-2d45-44d5-932d-4553502e6b69,rev?*%
%TF.SameCoordinates,Original*%
%TF.FileFunction,Drillmap*%
%TF.FilePolarity,Positive*%
%FSLAX45Y45*%
G04 Gerber Fmt 4.5, Leading zero omitted, Abs format (unit mm)*
G04 Created by KiCad (PCBNEW 9.0.5) date 2025-10-24 16:35:53*
%MOMM*%
%LPD*%
G01*
G04 APERTURE LIST*
%ADD10C,0.050000*%
%ADD11C,0.200000*%
%ADD12C,0.100000*%
G04 APERTURE END LIST*
D10*
X7099538Y-8781730D02*
G75*
G02*
X7264617Y-8614007I165082J2620D01*
G01*
X7265433Y-8614009D02*
X12713569Y-8614030D01*
X7099521Y-12319629D02*
X7099538Y-8781730D01*
X7267238Y-12484708D02*
G75*
G02*
X7099521Y-12319629I-2618J165078D01*
G01*
X12716188Y-12485127D02*
X7267238Y-12484708D01*
X12713568Y-8614030D02*
G75*
G02*
X12881291Y-8779109I2622J-165080D01*
G01*
X12881288Y-8779981D02*
X12881267Y-12317406D01*
X12881267Y-12317406D02*
G75*
G02*
X12716188Y-12485128I-165078J-2624D01*
G01*
D11*
D12*
X7715100Y-10549700D02*
X7780100Y-10614700D01*
X7780100Y-10549700D02*
X7715100Y-10614700D01*
X7715100Y-11127700D02*
X7780100Y-11192700D01*
X7780100Y-11127700D02*
X7715100Y-11192700D01*
D11*
X7357794Y-12799112D02*
X7357794Y-12599112D01*
X7357794Y-12599112D02*
X7405413Y-12599112D01*
X7405413Y-12599112D02*
X7433985Y-12608636D01*
X7433985Y-12608636D02*
X7453032Y-12627683D01*
X7453032Y-12627683D02*
X7462556Y-12646731D01*
X7462556Y-12646731D02*
X7472080Y-12684826D01*
X7472080Y-12684826D02*
X7472080Y-12713398D01*
X7472080Y-12713398D02*
X7462556Y-12751493D01*
X7462556Y-12751493D02*
X7453032Y-12770541D01*
X7453032Y-12770541D02*
X7433985Y-12789588D01*
X7433985Y-12789588D02*
X7405413Y-12799112D01*
X7405413Y-12799112D02*
X7357794Y-12799112D01*
X7557794Y-12799112D02*
X7557794Y-12665779D01*
X7557794Y-12703874D02*
X7567318Y-12684826D01*
X7567318Y-12684826D02*
X7576842Y-12675302D01*
X7576842Y-12675302D02*
X7595889Y-12665779D01*
X7595889Y-12665779D02*
X7614937Y-12665779D01*
X7681604Y-12799112D02*
X7681604Y-12665779D01*
X7681604Y-12599112D02*
X7672080Y-12608636D01*
X7672080Y-12608636D02*
X7681604Y-12618160D01*
X7681604Y-12618160D02*
X7691127Y-12608636D01*
X7691127Y-12608636D02*
X7681604Y-12599112D01*
X7681604Y-12599112D02*
X7681604Y-12618160D01*
X7805413Y-12799112D02*
X7786365Y-12789588D01*
X7786365Y-12789588D02*
X7776842Y-12770541D01*
X7776842Y-12770541D02*
X7776842Y-12599112D01*
X7910175Y-12799112D02*
X7891127Y-12789588D01*
X7891127Y-12789588D02*
X7881604Y-12770541D01*
X7881604Y-12770541D02*
X7881604Y-12599112D01*
X8138746Y-12799112D02*
X8138746Y-12599112D01*
X8138746Y-12599112D02*
X8205413Y-12741969D01*
X8205413Y-12741969D02*
X8272080Y-12599112D01*
X8272080Y-12599112D02*
X8272080Y-12799112D01*
X8453032Y-12799112D02*
X8453032Y-12694350D01*
X8453032Y-12694350D02*
X8443508Y-12675302D01*
X8443508Y-12675302D02*
X8424461Y-12665779D01*
X8424461Y-12665779D02*
X8386365Y-12665779D01*
X8386365Y-12665779D02*
X8367318Y-12675302D01*
X8453032Y-12789588D02*
X8433985Y-12799112D01*
X8433985Y-12799112D02*
X8386365Y-12799112D01*
X8386365Y-12799112D02*
X8367318Y-12789588D01*
X8367318Y-12789588D02*
X8357794Y-12770541D01*
X8357794Y-12770541D02*
X8357794Y-12751493D01*
X8357794Y-12751493D02*
X8367318Y-12732445D01*
X8367318Y-12732445D02*
X8386365Y-12722922D01*
X8386365Y-12722922D02*
X8433985Y-12722922D01*
X8433985Y-12722922D02*
X8453032Y-12713398D01*
X8548270Y-12665779D02*
X8548270Y-12865779D01*
X8548270Y-12675302D02*
X8567318Y-12665779D01*
X8567318Y-12665779D02*
X8605413Y-12665779D01*
X8605413Y-12665779D02*
X8624461Y-12675302D01*
X8624461Y-12675302D02*
X8633985Y-12684826D01*
X8633985Y-12684826D02*
X8643508Y-12703874D01*
X8643508Y-12703874D02*
X8643508Y-12761017D01*
X8643508Y-12761017D02*
X8633985Y-12780064D01*
X8633985Y-12780064D02*
X8624461Y-12789588D01*
X8624461Y-12789588D02*
X8605413Y-12799112D01*
X8605413Y-12799112D02*
X8567318Y-12799112D01*
X8567318Y-12799112D02*
X8548270Y-12789588D01*
X8729223Y-12780064D02*
X8738747Y-12789588D01*
X8738747Y-12789588D02*
X8729223Y-12799112D01*
X8729223Y-12799112D02*
X8719699Y-12789588D01*
X8719699Y-12789588D02*
X8729223Y-12780064D01*
X8729223Y-12780064D02*
X8729223Y-12799112D01*
X8729223Y-12675302D02*
X8738747Y-12684826D01*
X8738747Y-12684826D02*
X8729223Y-12694350D01*
X8729223Y-12694350D02*
X8719699Y-12684826D01*
X8719699Y-12684826D02*
X8729223Y-12675302D01*
X8729223Y-12675302D02*
X8729223Y-12694350D01*
D12*
X7032017Y-13095128D02*
X7097017Y-13160128D01*
X7097017Y-13095128D02*
X7032017Y-13160128D01*
D11*
X7395889Y-13019112D02*
X7414937Y-13019112D01*
X7414937Y-13019112D02*
X7433985Y-13028636D01*
X7433985Y-13028636D02*
X7443508Y-13038160D01*
X7443508Y-13038160D02*
X7453032Y-13057207D01*
X7453032Y-13057207D02*
X7462556Y-13095302D01*
X7462556Y-13095302D02*
X7462556Y-13142922D01*
X7462556Y-13142922D02*
X7453032Y-13181017D01*
X7453032Y-13181017D02*
X7443508Y-13200064D01*
X7443508Y-13200064D02*
X7433985Y-13209588D01*
X7433985Y-13209588D02*
X7414937Y-13219112D01*
X7414937Y-13219112D02*
X7395889Y-13219112D01*
X7395889Y-13219112D02*
X7376842Y-13209588D01*
X7376842Y-13209588D02*
X7367318Y-13200064D01*
X7367318Y-13200064D02*
X7357794Y-13181017D01*
X7357794Y-13181017D02*
X7348270Y-13142922D01*
X7348270Y-13142922D02*
X7348270Y-13095302D01*
X7348270Y-13095302D02*
X7357794Y-13057207D01*
X7357794Y-13057207D02*
X7367318Y-13038160D01*
X7367318Y-13038160D02*
X7376842Y-13028636D01*
X7376842Y-13028636D02*
X7395889Y-13019112D01*
X7548270Y-13200064D02*
X7557794Y-13209588D01*
X7557794Y-13209588D02*
X7548270Y-13219112D01*
X7548270Y-13219112D02*
X7538746Y-13209588D01*
X7538746Y-13209588D02*
X7548270Y-13200064D01*
X7548270Y-13200064D02*
X7548270Y-13219112D01*
X7729223Y-13019112D02*
X7691127Y-13019112D01*
X7691127Y-13019112D02*
X7672080Y-13028636D01*
X7672080Y-13028636D02*
X7662556Y-13038160D01*
X7662556Y-13038160D02*
X7643508Y-13066731D01*
X7643508Y-13066731D02*
X7633985Y-13104826D01*
X7633985Y-13104826D02*
X7633985Y-13181017D01*
X7633985Y-13181017D02*
X7643508Y-13200064D01*
X7643508Y-13200064D02*
X7653032Y-13209588D01*
X7653032Y-13209588D02*
X7672080Y-13219112D01*
X7672080Y-13219112D02*
X7710175Y-13219112D01*
X7710175Y-13219112D02*
X7729223Y-13209588D01*
X7729223Y-13209588D02*
X7738746Y-13200064D01*
X7738746Y-13200064D02*
X7748270Y-13181017D01*
X7748270Y-13181017D02*
X7748270Y-13133398D01*
X7748270Y-13133398D02*
X7738746Y-13114350D01*
X7738746Y-13114350D02*
X7729223Y-13104826D01*
X7729223Y-13104826D02*
X7710175Y-13095302D01*
X7710175Y-13095302D02*
X7672080Y-13095302D01*
X7672080Y-13095302D02*
X7653032Y-13104826D01*
X7653032Y-13104826D02*
X7643508Y-13114350D01*
X7643508Y-13114350D02*
X7633985Y-13133398D01*
X7929223Y-13019112D02*
X7833985Y-13019112D01*
X7833985Y-13019112D02*
X7824461Y-13114350D01*
X7824461Y-13114350D02*
X7833985Y-13104826D01*
X7833985Y-13104826D02*
X7853032Y-13095302D01*
X7853032Y-13095302D02*
X7900651Y-13095302D01*
X7900651Y-13095302D02*
X7919699Y-13104826D01*
X7919699Y-13104826D02*
X7929223Y-13114350D01*
X7929223Y-13114350D02*
X7938746Y-13133398D01*
X7938746Y-13133398D02*
X7938746Y-13181017D01*
X7938746Y-13181017D02*
X7929223Y-13200064D01*
X7929223Y-13200064D02*
X7919699Y-13209588D01*
X7919699Y-13209588D02*
X7900651Y-13219112D01*
X7900651Y-13219112D02*
X7853032Y-13219112D01*
X7853032Y-13219112D02*
X7833985Y-13209588D01*
X7833985Y-13209588D02*
X7824461Y-13200064D01*
X8062556Y-13019112D02*
X8081604Y-13019112D01*
X8081604Y-13019112D02*
X8100651Y-13028636D01*
X8100651Y-13028636D02*
X8110175Y-13038160D01*
X8110175Y-13038160D02*
X8119699Y-13057207D01*
X8119699Y-13057207D02*
X8129223Y-13095302D01*
X8129223Y-13095302D02*
X8129223Y-13142922D01*
X8129223Y-13142922D02*
X8119699Y-13181017D01*
X8119699Y-13181017D02*
X8110175Y-13200064D01*
X8110175Y-13200064D02*
X8100651Y-13209588D01*
X8100651Y-13209588D02*
X8081604Y-13219112D01*
X8081604Y-13219112D02*
X8062556Y-13219112D01*
X8062556Y-13219112D02*
X8043508Y-13209588D01*
X8043508Y-13209588D02*
X8033985Y-13200064D01*
X8033985Y-13200064D02*
X8024461Y-13181017D01*
X8024461Y-13181017D02*
X8014937Y-13142922D01*
X8014937Y-13142922D02*
X8014937Y-13095302D01*
X8014937Y-13095302D02*
X8024461Y-13057207D01*
X8024461Y-13057207D02*
X8033985Y-13038160D01*
X8033985Y-13038160D02*
X8043508Y-13028636D01*
X8043508Y-13028636D02*
X8062556Y-13019112D01*
X8214937Y-13219112D02*
X8214937Y-13085779D01*
X8214937Y-13104826D02*
X8224461Y-13095302D01*
X8224461Y-13095302D02*
X8243508Y-13085779D01*
X8243508Y-13085779D02*
X8272080Y-13085779D01*
X8272080Y-13085779D02*
X8291127Y-13095302D01*
X8291127Y-13095302D02*
X8300651Y-13114350D01*
X8300651Y-13114350D02*
X8300651Y-13219112D01*
X8300651Y-13114350D02*
X8310175Y-13095302D01*
X8310175Y-13095302D02*
X8329223Y-13085779D01*
X8329223Y-13085779D02*
X8357794Y-13085779D01*
X8357794Y-13085779D02*
X8376842Y-13095302D01*
X8376842Y-13095302D02*
X8386366Y-13114350D01*
X8386366Y-13114350D02*
X8386366Y-13219112D01*
X8481604Y-13219112D02*
X8481604Y-13085779D01*
X8481604Y-13104826D02*
X8491128Y-13095302D01*
X8491128Y-13095302D02*
X8510175Y-13085779D01*
X8510175Y-13085779D02*
X8538747Y-13085779D01*
X8538747Y-13085779D02*
X8557794Y-13095302D01*
X8557794Y-13095302D02*
X8567318Y-13114350D01*
X8567318Y-13114350D02*
X8567318Y-13219112D01*
X8567318Y-13114350D02*
X8576842Y-13095302D01*
X8576842Y-13095302D02*
X8595889Y-13085779D01*
X8595889Y-13085779D02*
X8624461Y-13085779D01*
X8624461Y-13085779D02*
X8643509Y-13095302D01*
X8643509Y-13095302D02*
X8653032Y-13114350D01*
X8653032Y-13114350D02*
X8653032Y-13219112D01*
X9043509Y-13009588D02*
X8872080Y-13266731D01*
X9300651Y-13019112D02*
X9319699Y-13019112D01*
X9319699Y-13019112D02*
X9338747Y-13028636D01*
X9338747Y-13028636D02*
X9348271Y-13038160D01*
X9348271Y-13038160D02*
X9357794Y-13057207D01*
X9357794Y-13057207D02*
X9367318Y-13095302D01*
X9367318Y-13095302D02*
X9367318Y-13142922D01*
X9367318Y-13142922D02*
X9357794Y-13181017D01*
X9357794Y-13181017D02*
X9348271Y-13200064D01*
X9348271Y-13200064D02*
X9338747Y-13209588D01*
X9338747Y-13209588D02*
X9319699Y-13219112D01*
X9319699Y-13219112D02*
X9300651Y-13219112D01*
X9300651Y-13219112D02*
X9281604Y-13209588D01*
X9281604Y-13209588D02*
X9272080Y-13200064D01*
X9272080Y-13200064D02*
X9262556Y-13181017D01*
X9262556Y-13181017D02*
X9253032Y-13142922D01*
X9253032Y-13142922D02*
X9253032Y-13095302D01*
X9253032Y-13095302D02*
X9262556Y-13057207D01*
X9262556Y-13057207D02*
X9272080Y-13038160D01*
X9272080Y-13038160D02*
X9281604Y-13028636D01*
X9281604Y-13028636D02*
X9300651Y-13019112D01*
X9453032Y-13200064D02*
X9462556Y-13209588D01*
X9462556Y-13209588D02*
X9453032Y-13219112D01*
X9453032Y-13219112D02*
X9443509Y-13209588D01*
X9443509Y-13209588D02*
X9453032Y-13200064D01*
X9453032Y-13200064D02*
X9453032Y-13219112D01*
X9586366Y-13019112D02*
X9605413Y-13019112D01*
X9605413Y-13019112D02*
X9624461Y-13028636D01*
X9624461Y-13028636D02*
X9633985Y-13038160D01*
X9633985Y-13038160D02*
X9643509Y-13057207D01*
X9643509Y-13057207D02*
X9653032Y-13095302D01*
X9653032Y-13095302D02*
X9653032Y-13142922D01*
X9653032Y-13142922D02*
X9643509Y-13181017D01*
X9643509Y-13181017D02*
X9633985Y-13200064D01*
X9633985Y-13200064D02*
X9624461Y-13209588D01*
X9624461Y-13209588D02*
X9605413Y-13219112D01*
X9605413Y-13219112D02*
X9586366Y-13219112D01*
X9586366Y-13219112D02*
X9567318Y-13209588D01*
X9567318Y-13209588D02*
X9557794Y-13200064D01*
X9557794Y-13200064D02*
X9548271Y-13181017D01*
X9548271Y-13181017D02*
X9538747Y-13142922D01*
X9538747Y-13142922D02*
X9538747Y-13095302D01*
X9538747Y-13095302D02*
X9548271Y-13057207D01*
X9548271Y-13057207D02*
X9557794Y-13038160D01*
X9557794Y-13038160D02*
X9567318Y-13028636D01*
X9567318Y-13028636D02*
X9586366Y-13019112D01*
X9729223Y-13038160D02*
X9738747Y-13028636D01*
X9738747Y-13028636D02*
X9757794Y-13019112D01*
X9757794Y-13019112D02*
X9805413Y-13019112D01*
X9805413Y-13019112D02*
X9824461Y-13028636D01*
X9824461Y-13028636D02*
X9833985Y-13038160D01*
X9833985Y-13038160D02*
X9843509Y-13057207D01*
X9843509Y-13057207D02*
X9843509Y-13076255D01*
X9843509Y-13076255D02*
X9833985Y-13104826D01*
X9833985Y-13104826D02*
X9719699Y-13219112D01*
X9719699Y-13219112D02*
X9843509Y-13219112D01*
X10024461Y-13019112D02*
X9929223Y-13019112D01*
X9929223Y-13019112D02*
X9919699Y-13114350D01*
X9919699Y-13114350D02*
X9929223Y-13104826D01*
X9929223Y-13104826D02*
X9948271Y-13095302D01*
X9948271Y-13095302D02*
X9995890Y-13095302D01*
X9995890Y-13095302D02*
X10014937Y-13104826D01*
X10014937Y-13104826D02*
X10024461Y-13114350D01*
X10024461Y-13114350D02*
X10033985Y-13133398D01*
X10033985Y-13133398D02*
X10033985Y-13181017D01*
X10033985Y-13181017D02*
X10024461Y-13200064D01*
X10024461Y-13200064D02*
X10014937Y-13209588D01*
X10014937Y-13209588D02*
X9995890Y-13219112D01*
X9995890Y-13219112D02*
X9948271Y-13219112D01*
X9948271Y-13219112D02*
X9929223Y-13209588D01*
X9929223Y-13209588D02*
X9919699Y-13200064D01*
X10205413Y-13019112D02*
X10167318Y-13019112D01*
X10167318Y-13019112D02*
X10148271Y-13028636D01*
X10148271Y-13028636D02*
X10138747Y-13038160D01*
X10138747Y-13038160D02*
X10119699Y-13066731D01*
X10119699Y-13066731D02*
X10110175Y-13104826D01*
X10110175Y-13104826D02*
X10110175Y-13181017D01*
X10110175Y-13181017D02*
X10119699Y-13200064D01*
X10119699Y-13200064D02*
X10129223Y-13209588D01*
X10129223Y-13209588D02*
X10148271Y-13219112D01*
X10148271Y-13219112D02*
X10186366Y-13219112D01*
X10186366Y-13219112D02*
X10205413Y-13209588D01*
X10205413Y-13209588D02*
X10214937Y-13200064D01*
X10214937Y-13200064D02*
X10224461Y-13181017D01*
X10224461Y-13181017D02*
X10224461Y-13133398D01*
X10224461Y-13133398D02*
X10214937Y-13114350D01*
X10214937Y-13114350D02*
X10205413Y-13104826D01*
X10205413Y-13104826D02*
X10186366Y-13095302D01*
X10186366Y-13095302D02*
X10148271Y-13095302D01*
X10148271Y-13095302D02*
X10129223Y-13104826D01*
X10129223Y-13104826D02*
X10119699Y-13114350D01*
X10119699Y-13114350D02*
X10110175Y-13133398D01*
X10300652Y-13019112D02*
X10300652Y-13057207D01*
X10376842Y-13019112D02*
X10376842Y-13057207D01*
X10672080Y-13295302D02*
X10662556Y-13285779D01*
X10662556Y-13285779D02*
X10643509Y-13257207D01*
X10643509Y-13257207D02*
X10633985Y-13238160D01*
X10633985Y-13238160D02*
X10624461Y-13209588D01*
X10624461Y-13209588D02*
X10614937Y-13161969D01*
X10614937Y-13161969D02*
X10614937Y-13123874D01*
X10614937Y-13123874D02*
X10624461Y-13076255D01*
X10624461Y-13076255D02*
X10633985Y-13047683D01*
X10633985Y-13047683D02*
X10643509Y-13028636D01*
X10643509Y-13028636D02*
X10662556Y-13000064D01*
X10662556Y-13000064D02*
X10672080Y-12990541D01*
X10738747Y-13038160D02*
X10748271Y-13028636D01*
X10748271Y-13028636D02*
X10767318Y-13019112D01*
X10767318Y-13019112D02*
X10814937Y-13019112D01*
X10814937Y-13019112D02*
X10833985Y-13028636D01*
X10833985Y-13028636D02*
X10843509Y-13038160D01*
X10843509Y-13038160D02*
X10853033Y-13057207D01*
X10853033Y-13057207D02*
X10853033Y-13076255D01*
X10853033Y-13076255D02*
X10843509Y-13104826D01*
X10843509Y-13104826D02*
X10729223Y-13219112D01*
X10729223Y-13219112D02*
X10853033Y-13219112D01*
X11091128Y-13219112D02*
X11091128Y-13019112D01*
X11176842Y-13219112D02*
X11176842Y-13114350D01*
X11176842Y-13114350D02*
X11167318Y-13095302D01*
X11167318Y-13095302D02*
X11148271Y-13085779D01*
X11148271Y-13085779D02*
X11119699Y-13085779D01*
X11119699Y-13085779D02*
X11100652Y-13095302D01*
X11100652Y-13095302D02*
X11091128Y-13104826D01*
X11300652Y-13219112D02*
X11281604Y-13209588D01*
X11281604Y-13209588D02*
X11272080Y-13200064D01*
X11272080Y-13200064D02*
X11262556Y-13181017D01*
X11262556Y-13181017D02*
X11262556Y-13123874D01*
X11262556Y-13123874D02*
X11272080Y-13104826D01*
X11272080Y-13104826D02*
X11281604Y-13095302D01*
X11281604Y-13095302D02*
X11300652Y-13085779D01*
X11300652Y-13085779D02*
X11329223Y-13085779D01*
X11329223Y-13085779D02*
X11348271Y-13095302D01*
X11348271Y-13095302D02*
X11357794Y-13104826D01*
X11357794Y-13104826D02*
X11367318Y-13123874D01*
X11367318Y-13123874D02*
X11367318Y-13181017D01*
X11367318Y-13181017D02*
X11357794Y-13200064D01*
X11357794Y-13200064D02*
X11348271Y-13209588D01*
X11348271Y-13209588D02*
X11329223Y-13219112D01*
X11329223Y-13219112D02*
X11300652Y-13219112D01*
X11481604Y-13219112D02*
X11462556Y-13209588D01*
X11462556Y-13209588D02*
X11453033Y-13190541D01*
X11453033Y-13190541D02*
X11453033Y-13019112D01*
X11633985Y-13209588D02*
X11614937Y-13219112D01*
X11614937Y-13219112D02*
X11576842Y-13219112D01*
X11576842Y-13219112D02*
X11557794Y-13209588D01*
X11557794Y-13209588D02*
X11548271Y-13190541D01*
X11548271Y-13190541D02*
X11548271Y-13114350D01*
X11548271Y-13114350D02*
X11557794Y-13095302D01*
X11557794Y-13095302D02*
X11576842Y-13085779D01*
X11576842Y-13085779D02*
X11614937Y-13085779D01*
X11614937Y-13085779D02*
X11633985Y-13095302D01*
X11633985Y-13095302D02*
X11643509Y-13114350D01*
X11643509Y-13114350D02*
X11643509Y-13133398D01*
X11643509Y-13133398D02*
X11548271Y-13152445D01*
X11719699Y-13209588D02*
X11738747Y-13219112D01*
X11738747Y-13219112D02*
X11776842Y-13219112D01*
X11776842Y-13219112D02*
X11795890Y-13209588D01*
X11795890Y-13209588D02*
X11805414Y-13190541D01*
X11805414Y-13190541D02*
X11805414Y-13181017D01*
X11805414Y-13181017D02*
X11795890Y-13161969D01*
X11795890Y-13161969D02*
X11776842Y-13152445D01*
X11776842Y-13152445D02*
X11748271Y-13152445D01*
X11748271Y-13152445D02*
X11729223Y-13142922D01*
X11729223Y-13142922D02*
X11719699Y-13123874D01*
X11719699Y-13123874D02*
X11719699Y-13114350D01*
X11719699Y-13114350D02*
X11729223Y-13095302D01*
X11729223Y-13095302D02*
X11748271Y-13085779D01*
X11748271Y-13085779D02*
X11776842Y-13085779D01*
X11776842Y-13085779D02*
X11795890Y-13095302D01*
X11872080Y-13295302D02*
X11881604Y-13285779D01*
X11881604Y-13285779D02*
X11900652Y-13257207D01*
X11900652Y-13257207D02*
X11910175Y-13238160D01*
X11910175Y-13238160D02*
X11919699Y-13209588D01*
X11919699Y-13209588D02*
X11929223Y-13161969D01*
X11929223Y-13161969D02*
X11929223Y-13123874D01*
X11929223Y-13123874D02*
X11919699Y-13076255D01*
X11919699Y-13076255D02*
X11910175Y-13047683D01*
X11910175Y-13047683D02*
X11900652Y-13028636D01*
X11900652Y-13028636D02*
X11881604Y-13000064D01*
X11881604Y-13000064D02*
X11872080Y-12990541D01*
X12233985Y-13295302D02*
X12224461Y-13285779D01*
X12224461Y-13285779D02*
X12205414Y-13257207D01*
X12205414Y-13257207D02*
X12195890Y-13238160D01*
X12195890Y-13238160D02*
X12186366Y-13209588D01*
X12186366Y-13209588D02*
X12176842Y-13161969D01*
X12176842Y-13161969D02*
X12176842Y-13123874D01*
X12176842Y-13123874D02*
X12186366Y-13076255D01*
X12186366Y-13076255D02*
X12195890Y-13047683D01*
X12195890Y-13047683D02*
X12205414Y-13028636D01*
X12205414Y-13028636D02*
X12224461Y-13000064D01*
X12224461Y-13000064D02*
X12233985Y-12990541D01*
X12310175Y-13085779D02*
X12310175Y-13219112D01*
X12310175Y-13104826D02*
X12319699Y-13095302D01*
X12319699Y-13095302D02*
X12338747Y-13085779D01*
X12338747Y-13085779D02*
X12367318Y-13085779D01*
X12367318Y-13085779D02*
X12386366Y-13095302D01*
X12386366Y-13095302D02*
X12395890Y-13114350D01*
X12395890Y-13114350D02*
X12395890Y-13219112D01*
X12519699Y-13219112D02*
X12500652Y-13209588D01*
X12500652Y-13209588D02*
X12491128Y-13200064D01*
X12491128Y-13200064D02*
X12481604Y-13181017D01*
X12481604Y-13181017D02*
X12481604Y-13123874D01*
X12481604Y-13123874D02*
X12491128Y-13104826D01*
X12491128Y-13104826D02*
X12500652Y-13095302D01*
X12500652Y-13095302D02*
X12519699Y-13085779D01*
X12519699Y-13085779D02*
X12548271Y-13085779D01*
X12548271Y-13085779D02*
X12567318Y-13095302D01*
X12567318Y-13095302D02*
X12576842Y-13104826D01*
X12576842Y-13104826D02*
X12586366Y-13123874D01*
X12586366Y-13123874D02*
X12586366Y-13181017D01*
X12586366Y-13181017D02*
X12576842Y-13200064D01*
X12576842Y-13200064D02*
X12567318Y-13209588D01*
X12567318Y-13209588D02*
X12548271Y-13219112D01*
X12548271Y-13219112D02*
X12519699Y-13219112D01*
X12643509Y-13085779D02*
X12719699Y-13085779D01*
X12672080Y-13019112D02*
X12672080Y-13190541D01*
X12672080Y-13190541D02*
X12681604Y-13209588D01*
X12681604Y-13209588D02*
X12700652Y-13219112D01*
X12700652Y-13219112D02*
X12719699Y-13219112D01*
X12938747Y-13085779D02*
X12938747Y-13285779D01*
X12938747Y-13095302D02*
X12957795Y-13085779D01*
X12957795Y-13085779D02*
X12995890Y-13085779D01*
X12995890Y-13085779D02*
X13014937Y-13095302D01*
X13014937Y-13095302D02*
X13024461Y-13104826D01*
X13024461Y-13104826D02*
X13033985Y-13123874D01*
X13033985Y-13123874D02*
X13033985Y-13181017D01*
X13033985Y-13181017D02*
X13024461Y-13200064D01*
X13024461Y-13200064D02*
X13014937Y-13209588D01*
X13014937Y-13209588D02*
X12995890Y-13219112D01*
X12995890Y-13219112D02*
X12957795Y-13219112D01*
X12957795Y-13219112D02*
X12938747Y-13209588D01*
X13148271Y-13219112D02*
X13129223Y-13209588D01*
X13129223Y-13209588D02*
X13119699Y-13190541D01*
X13119699Y-13190541D02*
X13119699Y-13019112D01*
X13310176Y-13219112D02*
X13310176Y-13114350D01*
X13310176Y-13114350D02*
X13300652Y-13095302D01*
X13300652Y-13095302D02*
X13281604Y-13085779D01*
X13281604Y-13085779D02*
X13243509Y-13085779D01*
X13243509Y-13085779D02*
X13224461Y-13095302D01*
X13310176Y-13209588D02*
X13291128Y-13219112D01*
X13291128Y-13219112D02*
X13243509Y-13219112D01*
X13243509Y-13219112D02*
X13224461Y-13209588D01*
X13224461Y-13209588D02*
X13214937Y-13190541D01*
X13214937Y-13190541D02*
X13214937Y-13171493D01*
X13214937Y-13171493D02*
X13224461Y-13152445D01*
X13224461Y-13152445D02*
X13243509Y-13142922D01*
X13243509Y-13142922D02*
X13291128Y-13142922D01*
X13291128Y-13142922D02*
X13310176Y-13133398D01*
X13376842Y-13085779D02*
X13453033Y-13085779D01*
X13405414Y-13019112D02*
X13405414Y-13190541D01*
X13405414Y-13190541D02*
X13414937Y-13209588D01*
X13414937Y-13209588D02*
X13433985Y-13219112D01*
X13433985Y-13219112D02*
X13453033Y-13219112D01*
X13595890Y-13209588D02*
X13576842Y-13219112D01*
X13576842Y-13219112D02*
X13538747Y-13219112D01*
X13538747Y-13219112D02*
X13519699Y-13209588D01*
X13519699Y-13209588D02*
X13510176Y-13190541D01*
X13510176Y-13190541D02*
X13510176Y-13114350D01*
X13510176Y-13114350D02*
X13519699Y-13095302D01*
X13519699Y-13095302D02*
X13538747Y-13085779D01*
X13538747Y-13085779D02*
X13576842Y-13085779D01*
X13576842Y-13085779D02*
X13595890Y-13095302D01*
X13595890Y-13095302D02*
X13605414Y-13114350D01*
X13605414Y-13114350D02*
X13605414Y-13133398D01*
X13605414Y-13133398D02*
X13510176Y-13152445D01*
X13776842Y-13219112D02*
X13776842Y-13019112D01*
X13776842Y-13209588D02*
X13757795Y-13219112D01*
X13757795Y-13219112D02*
X13719699Y-13219112D01*
X13719699Y-13219112D02*
X13700652Y-13209588D01*
X13700652Y-13209588D02*
X13691128Y-13200064D01*
X13691128Y-13200064D02*
X13681604Y-13181017D01*
X13681604Y-13181017D02*
X13681604Y-13123874D01*
X13681604Y-13123874D02*
X13691128Y-13104826D01*
X13691128Y-13104826D02*
X13700652Y-13095302D01*
X13700652Y-13095302D02*
X13719699Y-13085779D01*
X13719699Y-13085779D02*
X13757795Y-13085779D01*
X13757795Y-13085779D02*
X13776842Y-13095302D01*
X13853033Y-13295302D02*
X13862557Y-13285779D01*
X13862557Y-13285779D02*
X13881604Y-13257207D01*
X13881604Y-13257207D02*
X13891128Y-13238160D01*
X13891128Y-13238160D02*
X13900652Y-13209588D01*
X13900652Y-13209588D02*
X13910176Y-13161969D01*
X13910176Y-13161969D02*
X13910176Y-13123874D01*
X13910176Y-13123874D02*
X13900652Y-13076255D01*
X13900652Y-13076255D02*
X13891128Y-13047683D01*
X13891128Y-13047683D02*
X13881604Y-13028636D01*
X13881604Y-13028636D02*
X13862557Y-13000064D01*
X13862557Y-13000064D02*
X13853033Y-12990541D01*
M02*
