G04 #@! TF.GenerationSoftware,KiCad,Pcbnew,9.0.5*
G04 #@! TF.CreationDate,2025-10-24T16:35:50+02:00*
G04 #@! TF.ProjectId,Mini-EMS-ESP,4d696e69-2d45-44d5-932d-4553502e6b69,rev?*
G04 #@! TF.SameCoordinates,Original*
G04 #@! TF.FileFunction,Paste,Top*
G04 #@! TF.FilePolarity,Positive*
%FSLAX46Y46*%
G04 Gerber Fmt 4.6, Leading zero omitted, Abs format (unit mm)*
G04 Created by KiCad (PCBNEW 9.0.5) date 2025-10-24 16:35:50*
%MOMM*%
%LPD*%
G01*
G04 APERTURE LIST*
G04 Aperture macros list*
%AMRoundRect*
0 Rectangle with rounded corners*
0 $1 Rounding radius*
0 $2 $3 $4 $5 $6 $7 $8 $9 X,Y pos of 4 corners*
0 Add a 4 corners polygon primitive as box body*
4,1,4,$2,$3,$4,$5,$6,$7,$8,$9,$2,$3,0*
0 Add four circle primitives for the rounded corners*
1,1,$1+$1,$2,$3*
1,1,$1+$1,$4,$5*
1,1,$1+$1,$6,$7*
1,1,$1+$1,$8,$9*
0 Add four rect primitives between the rounded corners*
20,1,$1+$1,$2,$3,$4,$5,0*
20,1,$1+$1,$4,$5,$6,$7,0*
20,1,$1+$1,$6,$7,$8,$9,0*
20,1,$1+$1,$8,$9,$2,$3,0*%
G04 Aperture macros list end*
%ADD10RoundRect,0.250000X-0.450000X0.262500X-0.450000X-0.262500X0.450000X-0.262500X0.450000X0.262500X0*%
%ADD11RoundRect,0.250000X0.450000X-0.262500X0.450000X0.262500X-0.450000X0.262500X-0.450000X-0.262500X0*%
%ADD12RoundRect,0.250000X0.250000X0.475000X-0.250000X0.475000X-0.250000X-0.475000X0.250000X-0.475000X0*%
%ADD13RoundRect,0.250000X-0.475000X0.250000X-0.475000X-0.250000X0.475000X-0.250000X0.475000X0.250000X0*%
%ADD14RoundRect,0.225000X-0.225000X-0.375000X0.225000X-0.375000X0.225000X0.375000X-0.225000X0.375000X0*%
%ADD15RoundRect,0.250000X0.475000X-0.250000X0.475000X0.250000X-0.475000X0.250000X-0.475000X-0.250000X0*%
%ADD16RoundRect,0.250000X0.650000X-0.325000X0.650000X0.325000X-0.650000X0.325000X-0.650000X-0.325000X0*%
%ADD17RoundRect,0.150000X-0.150000X0.825000X-0.150000X-0.825000X0.150000X-0.825000X0.150000X0.825000X0*%
%ADD18RoundRect,0.150000X-0.150000X0.587500X-0.150000X-0.587500X0.150000X-0.587500X0.150000X0.587500X0*%
%ADD19RoundRect,0.250000X-0.262500X-0.450000X0.262500X-0.450000X0.262500X0.450000X-0.262500X0.450000X0*%
%ADD20RoundRect,0.250000X-1.000000X-0.650000X1.000000X-0.650000X1.000000X0.650000X-1.000000X0.650000X0*%
%ADD21RoundRect,0.250000X0.262500X0.450000X-0.262500X0.450000X-0.262500X-0.450000X0.262500X-0.450000X0*%
%ADD22RoundRect,0.243750X-0.456250X0.243750X-0.456250X-0.243750X0.456250X-0.243750X0.456250X0.243750X0*%
%ADD23RoundRect,0.150000X0.587500X0.150000X-0.587500X0.150000X-0.587500X-0.150000X0.587500X-0.150000X0*%
%ADD24RoundRect,0.250000X-0.250000X-0.475000X0.250000X-0.475000X0.250000X0.475000X-0.250000X0.475000X0*%
%ADD25RoundRect,0.225000X0.225000X0.375000X-0.225000X0.375000X-0.225000X-0.375000X0.225000X-0.375000X0*%
%ADD26RoundRect,0.250000X1.500000X-0.925000X1.500000X0.925000X-1.500000X0.925000X-1.500000X-0.925000X0*%
%ADD27RoundRect,0.225000X0.375000X-0.225000X0.375000X0.225000X-0.375000X0.225000X-0.375000X-0.225000X0*%
%ADD28RoundRect,0.150000X-0.825000X-0.150000X0.825000X-0.150000X0.825000X0.150000X-0.825000X0.150000X0*%
%ADD29RoundRect,0.250000X-0.650000X0.325000X-0.650000X-0.325000X0.650000X-0.325000X0.650000X0.325000X0*%
%ADD30RoundRect,0.250000X0.625000X-0.312500X0.625000X0.312500X-0.625000X0.312500X-0.625000X-0.312500X0*%
%ADD31RoundRect,0.250000X0.550000X-1.250000X0.550000X1.250000X-0.550000X1.250000X-0.550000X-1.250000X0*%
%ADD32RoundRect,0.250000X1.000000X-1.950000X1.000000X1.950000X-1.000000X1.950000X-1.000000X-1.950000X0*%
%ADD33RoundRect,0.250000X0.700000X-0.275000X0.700000X0.275000X-0.700000X0.275000X-0.700000X-0.275000X0*%
%ADD34R,1.450000X0.600000*%
%ADD35R,1.450000X0.300000*%
%ADD36RoundRect,0.250000X-0.650000X1.000000X-0.650000X-1.000000X0.650000X-1.000000X0.650000X1.000000X0*%
%ADD37RoundRect,0.150000X-0.150000X0.512500X-0.150000X-0.512500X0.150000X-0.512500X0.150000X0.512500X0*%
%ADD38RoundRect,0.100000X0.225000X0.100000X-0.225000X0.100000X-0.225000X-0.100000X0.225000X-0.100000X0*%
%ADD39RoundRect,0.225000X-0.375000X0.225000X-0.375000X-0.225000X0.375000X-0.225000X0.375000X0.225000X0*%
G04 APERTURE END LIST*
D10*
X107696000Y-91289500D03*
X107696000Y-93114500D03*
D11*
X92811600Y-114399700D03*
X92811600Y-112574700D03*
D12*
X121788000Y-111506000D03*
X119888000Y-111506000D03*
D13*
X106426000Y-98491000D03*
X106426000Y-100391000D03*
X120142000Y-103317000D03*
X120142000Y-105217000D03*
D14*
X89155000Y-101303667D03*
X92455000Y-101303667D03*
D15*
X123952000Y-114803000D03*
X123952000Y-112903000D03*
D16*
X86233000Y-114632000D03*
X86233000Y-111682000D03*
D17*
X104648000Y-90489000D03*
X103378000Y-90489000D03*
X102108000Y-90489000D03*
X100838000Y-90489000D03*
X100838000Y-95439000D03*
X102108000Y-95439000D03*
X103378000Y-95439000D03*
X104648000Y-95439000D03*
D18*
X97089000Y-88597500D03*
X95189000Y-88597500D03*
X96139000Y-90472500D03*
D10*
X103759000Y-102592500D03*
X103759000Y-104417500D03*
D17*
X81616000Y-117463189D03*
X80346000Y-117463189D03*
X79076000Y-117463189D03*
X77806000Y-117463189D03*
X76536000Y-117463189D03*
X75266000Y-117463189D03*
X73996000Y-117463189D03*
X72726000Y-117463189D03*
X72726000Y-122413189D03*
X73996000Y-122413189D03*
X75266000Y-122413189D03*
X76536000Y-122413189D03*
X77806000Y-122413189D03*
X79076000Y-122413189D03*
X80346000Y-122413189D03*
X81616000Y-122413189D03*
D10*
X98044000Y-98528500D03*
X98044000Y-100353500D03*
D19*
X110974500Y-120142000D03*
X112799500Y-120142000D03*
D10*
X123444000Y-117959500D03*
X123444000Y-119784500D03*
D20*
X119920000Y-108458000D03*
X123920000Y-108458000D03*
D21*
X99667700Y-106781600D03*
X97842700Y-106781600D03*
D22*
X124104400Y-92940900D03*
X124104400Y-94815900D03*
D23*
X90497900Y-114386400D03*
X90497900Y-112486400D03*
X88622900Y-113436400D03*
D24*
X101031000Y-87565000D03*
X102931000Y-87565000D03*
D25*
X92455000Y-95631000D03*
X89155000Y-95631000D03*
D26*
X114300000Y-110340000D03*
X114300000Y-104290000D03*
D21*
X112799500Y-115316000D03*
X110974500Y-115316000D03*
D27*
X91033600Y-122706400D03*
X91033600Y-119406400D03*
D10*
X100965000Y-98528500D03*
X100965000Y-100353500D03*
X100965000Y-102592500D03*
X100965000Y-104417500D03*
D11*
X103759000Y-100353500D03*
X103759000Y-98528500D03*
D28*
X115508000Y-113665000D03*
X115508000Y-114935000D03*
X115508000Y-116205000D03*
X115508000Y-117475000D03*
X120458000Y-117475000D03*
X120458000Y-116205000D03*
X120458000Y-114935000D03*
X120458000Y-113665000D03*
D16*
X126746000Y-114759000D03*
X126746000Y-111809000D03*
D19*
X110974500Y-113030000D03*
X112799500Y-113030000D03*
D29*
X124079000Y-102284000D03*
X124079000Y-105234000D03*
D14*
X89155000Y-92794667D03*
X92455000Y-92794667D03*
D10*
X116433600Y-88038300D03*
X116433600Y-89863300D03*
D12*
X91120000Y-104267000D03*
X89220000Y-104267000D03*
D24*
X90490000Y-90170000D03*
X92390000Y-90170000D03*
D25*
X110666800Y-88798400D03*
X107366800Y-88798400D03*
D30*
X95123000Y-95823500D03*
X95123000Y-92898500D03*
D15*
X113842800Y-89850000D03*
X113842800Y-87950000D03*
D10*
X115189000Y-119356500D03*
X115189000Y-121181500D03*
D15*
X83972400Y-121041200D03*
X83972400Y-119141200D03*
D19*
X107418500Y-96139000D03*
X109243500Y-96139000D03*
D31*
X114096800Y-98669200D03*
X114096800Y-94269200D03*
D25*
X91413600Y-117094000D03*
X88113600Y-117094000D03*
D11*
X124155200Y-99058100D03*
X124155200Y-97233100D03*
D32*
X102819200Y-121141600D03*
X102819200Y-112741600D03*
D24*
X110937000Y-117602000D03*
X112837000Y-117602000D03*
D19*
X81233000Y-106172000D03*
X83058000Y-106172000D03*
D24*
X101920000Y-106781600D03*
X103820000Y-106781600D03*
D33*
X85090000Y-95656800D03*
X85090000Y-92506800D03*
D29*
X122555000Y-87474000D03*
X122555000Y-90424000D03*
D34*
X78921000Y-105487000D03*
X78921000Y-106262000D03*
D35*
X78921000Y-106962000D03*
X78921000Y-107462000D03*
X78921000Y-107962000D03*
X78921000Y-108462000D03*
X78921000Y-108962000D03*
X78921000Y-109462000D03*
X78921000Y-109962000D03*
X78921000Y-110462000D03*
D34*
X78921000Y-111162000D03*
X78921000Y-111937000D03*
D20*
X90202000Y-108712000D03*
X94202000Y-108712000D03*
D30*
X98171000Y-95823500D03*
X98171000Y-92898500D03*
D29*
X106426000Y-106627400D03*
X106426000Y-109577400D03*
D36*
X94996000Y-117634000D03*
X94996000Y-121634000D03*
D19*
X81233000Y-109601000D03*
X83058000Y-109601000D03*
D11*
X98044000Y-104392100D03*
X98044000Y-102567100D03*
D25*
X92455000Y-98467334D03*
X89155000Y-98467334D03*
D10*
X117475000Y-119356500D03*
X117475000Y-121181500D03*
D33*
X85090000Y-101447800D03*
X85090000Y-98297800D03*
D37*
X83246000Y-112400500D03*
X82296000Y-112400500D03*
X81346000Y-112400500D03*
X81346000Y-114675500D03*
X82296000Y-114675500D03*
X83246000Y-114675500D03*
D10*
X106426000Y-102617900D03*
X106426000Y-104442900D03*
D38*
X87879000Y-122839000D03*
X87879000Y-122189000D03*
X87879000Y-121539000D03*
X85979000Y-121539000D03*
X85979000Y-122189000D03*
X85979000Y-122839000D03*
D11*
X95605600Y-114399700D03*
X95605600Y-112574700D03*
D39*
X95123000Y-98426000D03*
X95123000Y-101726000D03*
M02*
