G04 #@! TF.GenerationSoftware,KiCad,Pcbnew,9.0.5*
G04 #@! TF.CreationDate,2025-10-24T16:35:50+02:00*
G04 #@! TF.ProjectId,Mini-EMS-ESP,4d696e69-2d45-44d5-932d-4553502e6b69,rev?*
G04 #@! TF.SameCoordinates,Original*
G04 #@! TF.FileFunction,Legend,Top*
G04 #@! TF.FilePolarity,Positive*
%FSLAX46Y46*%
G04 Gerber Fmt 4.6, Leading zero omitted, Abs format (unit mm)*
G04 Created by KiCad (PCBNEW 9.0.5) date 2025-10-24 16:35:50*
%MOMM*%
%LPD*%
G01*
G04 APERTURE LIST*
%ADD10C,0.300000*%
%ADD11C,0.150000*%
%ADD12C,0.120000*%
%ADD13C,0.100000*%
G04 APERTURE END LIST*
D10*
X72147275Y-88883876D02*
X72147275Y-86883876D01*
X72147275Y-86883876D02*
X72813942Y-88312447D01*
X72813942Y-88312447D02*
X73480608Y-86883876D01*
X73480608Y-86883876D02*
X73480608Y-88883876D01*
X74432989Y-88883876D02*
X74432989Y-87550542D01*
X74432989Y-86883876D02*
X74337751Y-86979114D01*
X74337751Y-86979114D02*
X74432989Y-87074352D01*
X74432989Y-87074352D02*
X74528227Y-86979114D01*
X74528227Y-86979114D02*
X74432989Y-86883876D01*
X74432989Y-86883876D02*
X74432989Y-87074352D01*
X75385370Y-87550542D02*
X75385370Y-88883876D01*
X75385370Y-87741018D02*
X75480608Y-87645780D01*
X75480608Y-87645780D02*
X75671084Y-87550542D01*
X75671084Y-87550542D02*
X75956799Y-87550542D01*
X75956799Y-87550542D02*
X76147275Y-87645780D01*
X76147275Y-87645780D02*
X76242513Y-87836257D01*
X76242513Y-87836257D02*
X76242513Y-88883876D01*
X77194894Y-88883876D02*
X77194894Y-87550542D01*
X77194894Y-86883876D02*
X77099656Y-86979114D01*
X77099656Y-86979114D02*
X77194894Y-87074352D01*
X77194894Y-87074352D02*
X77290132Y-86979114D01*
X77290132Y-86979114D02*
X77194894Y-86883876D01*
X77194894Y-86883876D02*
X77194894Y-87074352D01*
X78147275Y-87836257D02*
X78813942Y-87836257D01*
X79099656Y-88883876D02*
X78147275Y-88883876D01*
X78147275Y-88883876D02*
X78147275Y-86883876D01*
X78147275Y-86883876D02*
X79099656Y-86883876D01*
X79956799Y-87836257D02*
X80623466Y-87836257D01*
X80909180Y-88883876D02*
X79956799Y-88883876D01*
X79956799Y-88883876D02*
X79956799Y-86883876D01*
X79956799Y-86883876D02*
X80909180Y-86883876D01*
D11*
X71455959Y-102971619D02*
X71789292Y-102971619D01*
X71932149Y-103495429D02*
X71455959Y-103495429D01*
X71455959Y-103495429D02*
X71455959Y-102495429D01*
X71455959Y-102495429D02*
X71932149Y-102495429D01*
X72360721Y-103495429D02*
X72360721Y-102495429D01*
X72360721Y-102495429D02*
X72694054Y-103209714D01*
X72694054Y-103209714D02*
X73027387Y-102495429D01*
X73027387Y-102495429D02*
X73027387Y-103495429D01*
X73455959Y-103447810D02*
X73598816Y-103495429D01*
X73598816Y-103495429D02*
X73836911Y-103495429D01*
X73836911Y-103495429D02*
X73932149Y-103447810D01*
X73932149Y-103447810D02*
X73979768Y-103400190D01*
X73979768Y-103400190D02*
X74027387Y-103304952D01*
X74027387Y-103304952D02*
X74027387Y-103209714D01*
X74027387Y-103209714D02*
X73979768Y-103114476D01*
X73979768Y-103114476D02*
X73932149Y-103066857D01*
X73932149Y-103066857D02*
X73836911Y-103019238D01*
X73836911Y-103019238D02*
X73646435Y-102971619D01*
X73646435Y-102971619D02*
X73551197Y-102924000D01*
X73551197Y-102924000D02*
X73503578Y-102876381D01*
X73503578Y-102876381D02*
X73455959Y-102781143D01*
X73455959Y-102781143D02*
X73455959Y-102685905D01*
X73455959Y-102685905D02*
X73503578Y-102590667D01*
X73503578Y-102590667D02*
X73551197Y-102543048D01*
X73551197Y-102543048D02*
X73646435Y-102495429D01*
X73646435Y-102495429D02*
X73884530Y-102495429D01*
X73884530Y-102495429D02*
X74027387Y-102543048D01*
X101142969Y-93545019D02*
X100666779Y-93545019D01*
X100666779Y-93545019D02*
X100666779Y-92545019D01*
X101476303Y-93545019D02*
X101476303Y-92545019D01*
X101476303Y-92545019D02*
X101809636Y-93259304D01*
X101809636Y-93259304D02*
X102142969Y-92545019D01*
X102142969Y-92545019D02*
X102142969Y-93545019D01*
X102523922Y-92545019D02*
X103142969Y-92545019D01*
X103142969Y-92545019D02*
X102809636Y-92925971D01*
X102809636Y-92925971D02*
X102952493Y-92925971D01*
X102952493Y-92925971D02*
X103047731Y-92973590D01*
X103047731Y-92973590D02*
X103095350Y-93021209D01*
X103095350Y-93021209D02*
X103142969Y-93116447D01*
X103142969Y-93116447D02*
X103142969Y-93354542D01*
X103142969Y-93354542D02*
X103095350Y-93449780D01*
X103095350Y-93449780D02*
X103047731Y-93497400D01*
X103047731Y-93497400D02*
X102952493Y-93545019D01*
X102952493Y-93545019D02*
X102666779Y-93545019D01*
X102666779Y-93545019D02*
X102571541Y-93497400D01*
X102571541Y-93497400D02*
X102523922Y-93449780D01*
X103619160Y-93545019D02*
X103809636Y-93545019D01*
X103809636Y-93545019D02*
X103904874Y-93497400D01*
X103904874Y-93497400D02*
X103952493Y-93449780D01*
X103952493Y-93449780D02*
X104047731Y-93306923D01*
X104047731Y-93306923D02*
X104095350Y-93116447D01*
X104095350Y-93116447D02*
X104095350Y-92735495D01*
X104095350Y-92735495D02*
X104047731Y-92640257D01*
X104047731Y-92640257D02*
X104000112Y-92592638D01*
X104000112Y-92592638D02*
X103904874Y-92545019D01*
X103904874Y-92545019D02*
X103714398Y-92545019D01*
X103714398Y-92545019D02*
X103619160Y-92592638D01*
X103619160Y-92592638D02*
X103571541Y-92640257D01*
X103571541Y-92640257D02*
X103523922Y-92735495D01*
X103523922Y-92735495D02*
X103523922Y-92973590D01*
X103523922Y-92973590D02*
X103571541Y-93068828D01*
X103571541Y-93068828D02*
X103619160Y-93116447D01*
X103619160Y-93116447D02*
X103714398Y-93164066D01*
X103714398Y-93164066D02*
X103904874Y-93164066D01*
X103904874Y-93164066D02*
X104000112Y-93116447D01*
X104000112Y-93116447D02*
X104047731Y-93068828D01*
X104047731Y-93068828D02*
X104095350Y-92973590D01*
X104428684Y-92545019D02*
X105047731Y-92545019D01*
X105047731Y-92545019D02*
X104714398Y-92925971D01*
X104714398Y-92925971D02*
X104857255Y-92925971D01*
X104857255Y-92925971D02*
X104952493Y-92973590D01*
X104952493Y-92973590D02*
X105000112Y-93021209D01*
X105000112Y-93021209D02*
X105047731Y-93116447D01*
X105047731Y-93116447D02*
X105047731Y-93354542D01*
X105047731Y-93354542D02*
X105000112Y-93449780D01*
X105000112Y-93449780D02*
X104952493Y-93497400D01*
X104952493Y-93497400D02*
X104857255Y-93545019D01*
X104857255Y-93545019D02*
X104571541Y-93545019D01*
X104571541Y-93545019D02*
X104476303Y-93497400D01*
X104476303Y-93497400D02*
X104428684Y-93449780D01*
X71405979Y-113830219D02*
X71405979Y-114639742D01*
X71405979Y-114639742D02*
X71453598Y-114734980D01*
X71453598Y-114734980D02*
X71501217Y-114782600D01*
X71501217Y-114782600D02*
X71596455Y-114830219D01*
X71596455Y-114830219D02*
X71786931Y-114830219D01*
X71786931Y-114830219D02*
X71882169Y-114782600D01*
X71882169Y-114782600D02*
X71929788Y-114734980D01*
X71929788Y-114734980D02*
X71977407Y-114639742D01*
X71977407Y-114639742D02*
X71977407Y-113830219D01*
X72405979Y-114782600D02*
X72548836Y-114830219D01*
X72548836Y-114830219D02*
X72786931Y-114830219D01*
X72786931Y-114830219D02*
X72882169Y-114782600D01*
X72882169Y-114782600D02*
X72929788Y-114734980D01*
X72929788Y-114734980D02*
X72977407Y-114639742D01*
X72977407Y-114639742D02*
X72977407Y-114544504D01*
X72977407Y-114544504D02*
X72929788Y-114449266D01*
X72929788Y-114449266D02*
X72882169Y-114401647D01*
X72882169Y-114401647D02*
X72786931Y-114354028D01*
X72786931Y-114354028D02*
X72596455Y-114306409D01*
X72596455Y-114306409D02*
X72501217Y-114258790D01*
X72501217Y-114258790D02*
X72453598Y-114211171D01*
X72453598Y-114211171D02*
X72405979Y-114115933D01*
X72405979Y-114115933D02*
X72405979Y-114020695D01*
X72405979Y-114020695D02*
X72453598Y-113925457D01*
X72453598Y-113925457D02*
X72501217Y-113877838D01*
X72501217Y-113877838D02*
X72596455Y-113830219D01*
X72596455Y-113830219D02*
X72834550Y-113830219D01*
X72834550Y-113830219D02*
X72977407Y-113877838D01*
X73739312Y-114306409D02*
X73882169Y-114354028D01*
X73882169Y-114354028D02*
X73929788Y-114401647D01*
X73929788Y-114401647D02*
X73977407Y-114496885D01*
X73977407Y-114496885D02*
X73977407Y-114639742D01*
X73977407Y-114639742D02*
X73929788Y-114734980D01*
X73929788Y-114734980D02*
X73882169Y-114782600D01*
X73882169Y-114782600D02*
X73786931Y-114830219D01*
X73786931Y-114830219D02*
X73405979Y-114830219D01*
X73405979Y-114830219D02*
X73405979Y-113830219D01*
X73405979Y-113830219D02*
X73739312Y-113830219D01*
X73739312Y-113830219D02*
X73834550Y-113877838D01*
X73834550Y-113877838D02*
X73882169Y-113925457D01*
X73882169Y-113925457D02*
X73929788Y-114020695D01*
X73929788Y-114020695D02*
X73929788Y-114115933D01*
X73929788Y-114115933D02*
X73882169Y-114211171D01*
X73882169Y-114211171D02*
X73834550Y-114258790D01*
X73834550Y-114258790D02*
X73739312Y-114306409D01*
X73739312Y-114306409D02*
X73405979Y-114306409D01*
D12*
X72456559Y-90412391D02*
X72206559Y-90055248D01*
X72027988Y-90412391D02*
X72027988Y-89662391D01*
X72027988Y-89662391D02*
X72313702Y-89662391D01*
X72313702Y-89662391D02*
X72385131Y-89698105D01*
X72385131Y-89698105D02*
X72420845Y-89733819D01*
X72420845Y-89733819D02*
X72456559Y-89805248D01*
X72456559Y-89805248D02*
X72456559Y-89912391D01*
X72456559Y-89912391D02*
X72420845Y-89983819D01*
X72420845Y-89983819D02*
X72385131Y-90019534D01*
X72385131Y-90019534D02*
X72313702Y-90055248D01*
X72313702Y-90055248D02*
X72027988Y-90055248D01*
X73063702Y-90376677D02*
X72992274Y-90412391D01*
X72992274Y-90412391D02*
X72849417Y-90412391D01*
X72849417Y-90412391D02*
X72777988Y-90376677D01*
X72777988Y-90376677D02*
X72742274Y-90305248D01*
X72742274Y-90305248D02*
X72742274Y-90019534D01*
X72742274Y-90019534D02*
X72777988Y-89948105D01*
X72777988Y-89948105D02*
X72849417Y-89912391D01*
X72849417Y-89912391D02*
X72992274Y-89912391D01*
X72992274Y-89912391D02*
X73063702Y-89948105D01*
X73063702Y-89948105D02*
X73099417Y-90019534D01*
X73099417Y-90019534D02*
X73099417Y-90090962D01*
X73099417Y-90090962D02*
X72742274Y-90162391D01*
X73349416Y-89912391D02*
X73527988Y-90412391D01*
X73527988Y-90412391D02*
X73706559Y-89912391D01*
X74706560Y-89662391D02*
X74777989Y-89662391D01*
X74777989Y-89662391D02*
X74849417Y-89698105D01*
X74849417Y-89698105D02*
X74885132Y-89733819D01*
X74885132Y-89733819D02*
X74920846Y-89805248D01*
X74920846Y-89805248D02*
X74956560Y-89948105D01*
X74956560Y-89948105D02*
X74956560Y-90126677D01*
X74956560Y-90126677D02*
X74920846Y-90269534D01*
X74920846Y-90269534D02*
X74885132Y-90340962D01*
X74885132Y-90340962D02*
X74849417Y-90376677D01*
X74849417Y-90376677D02*
X74777989Y-90412391D01*
X74777989Y-90412391D02*
X74706560Y-90412391D01*
X74706560Y-90412391D02*
X74635132Y-90376677D01*
X74635132Y-90376677D02*
X74599417Y-90340962D01*
X74599417Y-90340962D02*
X74563703Y-90269534D01*
X74563703Y-90269534D02*
X74527989Y-90126677D01*
X74527989Y-90126677D02*
X74527989Y-89948105D01*
X74527989Y-89948105D02*
X74563703Y-89805248D01*
X74563703Y-89805248D02*
X74599417Y-89733819D01*
X74599417Y-89733819D02*
X74635132Y-89698105D01*
X74635132Y-89698105D02*
X74706560Y-89662391D01*
X75277989Y-90340962D02*
X75313703Y-90376677D01*
X75313703Y-90376677D02*
X75277989Y-90412391D01*
X75277989Y-90412391D02*
X75242275Y-90376677D01*
X75242275Y-90376677D02*
X75277989Y-90340962D01*
X75277989Y-90340962D02*
X75277989Y-90412391D01*
X75599418Y-89733819D02*
X75635132Y-89698105D01*
X75635132Y-89698105D02*
X75706561Y-89662391D01*
X75706561Y-89662391D02*
X75885132Y-89662391D01*
X75885132Y-89662391D02*
X75956561Y-89698105D01*
X75956561Y-89698105D02*
X75992275Y-89733819D01*
X75992275Y-89733819D02*
X76027989Y-89805248D01*
X76027989Y-89805248D02*
X76027989Y-89876677D01*
X76027989Y-89876677D02*
X75992275Y-89983819D01*
X75992275Y-89983819D02*
X75563703Y-90412391D01*
X75563703Y-90412391D02*
X76027989Y-90412391D01*
X76885133Y-89733819D02*
X76920847Y-89698105D01*
X76920847Y-89698105D02*
X76992276Y-89662391D01*
X76992276Y-89662391D02*
X77170847Y-89662391D01*
X77170847Y-89662391D02*
X77242276Y-89698105D01*
X77242276Y-89698105D02*
X77277990Y-89733819D01*
X77277990Y-89733819D02*
X77313704Y-89805248D01*
X77313704Y-89805248D02*
X77313704Y-89876677D01*
X77313704Y-89876677D02*
X77277990Y-89983819D01*
X77277990Y-89983819D02*
X76849418Y-90412391D01*
X76849418Y-90412391D02*
X77313704Y-90412391D01*
X77777990Y-89662391D02*
X77849419Y-89662391D01*
X77849419Y-89662391D02*
X77920847Y-89698105D01*
X77920847Y-89698105D02*
X77956562Y-89733819D01*
X77956562Y-89733819D02*
X77992276Y-89805248D01*
X77992276Y-89805248D02*
X78027990Y-89948105D01*
X78027990Y-89948105D02*
X78027990Y-90126677D01*
X78027990Y-90126677D02*
X77992276Y-90269534D01*
X77992276Y-90269534D02*
X77956562Y-90340962D01*
X77956562Y-90340962D02*
X77920847Y-90376677D01*
X77920847Y-90376677D02*
X77849419Y-90412391D01*
X77849419Y-90412391D02*
X77777990Y-90412391D01*
X77777990Y-90412391D02*
X77706562Y-90376677D01*
X77706562Y-90376677D02*
X77670847Y-90340962D01*
X77670847Y-90340962D02*
X77635133Y-90269534D01*
X77635133Y-90269534D02*
X77599419Y-90126677D01*
X77599419Y-90126677D02*
X77599419Y-89948105D01*
X77599419Y-89948105D02*
X77635133Y-89805248D01*
X77635133Y-89805248D02*
X77670847Y-89733819D01*
X77670847Y-89733819D02*
X77706562Y-89698105D01*
X77706562Y-89698105D02*
X77777990Y-89662391D01*
X78313705Y-89733819D02*
X78349419Y-89698105D01*
X78349419Y-89698105D02*
X78420848Y-89662391D01*
X78420848Y-89662391D02*
X78599419Y-89662391D01*
X78599419Y-89662391D02*
X78670848Y-89698105D01*
X78670848Y-89698105D02*
X78706562Y-89733819D01*
X78706562Y-89733819D02*
X78742276Y-89805248D01*
X78742276Y-89805248D02*
X78742276Y-89876677D01*
X78742276Y-89876677D02*
X78706562Y-89983819D01*
X78706562Y-89983819D02*
X78277990Y-90412391D01*
X78277990Y-90412391D02*
X78742276Y-90412391D01*
X79420848Y-89662391D02*
X79063705Y-89662391D01*
X79063705Y-89662391D02*
X79027991Y-90019534D01*
X79027991Y-90019534D02*
X79063705Y-89983819D01*
X79063705Y-89983819D02*
X79135134Y-89948105D01*
X79135134Y-89948105D02*
X79313705Y-89948105D01*
X79313705Y-89948105D02*
X79385134Y-89983819D01*
X79385134Y-89983819D02*
X79420848Y-90019534D01*
X79420848Y-90019534D02*
X79456562Y-90090962D01*
X79456562Y-90090962D02*
X79456562Y-90269534D01*
X79456562Y-90269534D02*
X79420848Y-90340962D01*
X79420848Y-90340962D02*
X79385134Y-90376677D01*
X79385134Y-90376677D02*
X79313705Y-90412391D01*
X79313705Y-90412391D02*
X79135134Y-90412391D01*
X79135134Y-90412391D02*
X79063705Y-90376677D01*
X79063705Y-90376677D02*
X79027991Y-90340962D01*
D11*
X75285207Y-120460569D02*
X75237588Y-120508189D01*
X75237588Y-120508189D02*
X75094731Y-120555808D01*
X75094731Y-120555808D02*
X74999493Y-120555808D01*
X74999493Y-120555808D02*
X74856636Y-120508189D01*
X74856636Y-120508189D02*
X74761398Y-120412950D01*
X74761398Y-120412950D02*
X74713779Y-120317712D01*
X74713779Y-120317712D02*
X74666160Y-120127236D01*
X74666160Y-120127236D02*
X74666160Y-119984379D01*
X74666160Y-119984379D02*
X74713779Y-119793903D01*
X74713779Y-119793903D02*
X74761398Y-119698665D01*
X74761398Y-119698665D02*
X74856636Y-119603427D01*
X74856636Y-119603427D02*
X74999493Y-119555808D01*
X74999493Y-119555808D02*
X75094731Y-119555808D01*
X75094731Y-119555808D02*
X75237588Y-119603427D01*
X75237588Y-119603427D02*
X75285207Y-119651046D01*
X75713779Y-120555808D02*
X75713779Y-119555808D01*
X75713779Y-120031998D02*
X76285207Y-120031998D01*
X76285207Y-120555808D02*
X76285207Y-119555808D01*
X76666160Y-119555808D02*
X77285207Y-119555808D01*
X77285207Y-119555808D02*
X76951874Y-119936760D01*
X76951874Y-119936760D02*
X77094731Y-119936760D01*
X77094731Y-119936760D02*
X77189969Y-119984379D01*
X77189969Y-119984379D02*
X77237588Y-120031998D01*
X77237588Y-120031998D02*
X77285207Y-120127236D01*
X77285207Y-120127236D02*
X77285207Y-120365331D01*
X77285207Y-120365331D02*
X77237588Y-120460569D01*
X77237588Y-120460569D02*
X77189969Y-120508189D01*
X77189969Y-120508189D02*
X77094731Y-120555808D01*
X77094731Y-120555808D02*
X76809017Y-120555808D01*
X76809017Y-120555808D02*
X76713779Y-120508189D01*
X76713779Y-120508189D02*
X76666160Y-120460569D01*
X78142350Y-119889141D02*
X78142350Y-120555808D01*
X77904255Y-119508189D02*
X77666160Y-120222474D01*
X77666160Y-120222474D02*
X78285207Y-120222474D01*
X78856636Y-119555808D02*
X78951874Y-119555808D01*
X78951874Y-119555808D02*
X79047112Y-119603427D01*
X79047112Y-119603427D02*
X79094731Y-119651046D01*
X79094731Y-119651046D02*
X79142350Y-119746284D01*
X79142350Y-119746284D02*
X79189969Y-119936760D01*
X79189969Y-119936760D02*
X79189969Y-120174855D01*
X79189969Y-120174855D02*
X79142350Y-120365331D01*
X79142350Y-120365331D02*
X79094731Y-120460569D01*
X79094731Y-120460569D02*
X79047112Y-120508189D01*
X79047112Y-120508189D02*
X78951874Y-120555808D01*
X78951874Y-120555808D02*
X78856636Y-120555808D01*
X78856636Y-120555808D02*
X78761398Y-120508189D01*
X78761398Y-120508189D02*
X78713779Y-120460569D01*
X78713779Y-120460569D02*
X78666160Y-120365331D01*
X78666160Y-120365331D02*
X78618541Y-120174855D01*
X78618541Y-120174855D02*
X78618541Y-119936760D01*
X78618541Y-119936760D02*
X78666160Y-119746284D01*
X78666160Y-119746284D02*
X78713779Y-119651046D01*
X78713779Y-119651046D02*
X78761398Y-119603427D01*
X78761398Y-119603427D02*
X78856636Y-119555808D01*
X80189969Y-120460569D02*
X80142350Y-120508189D01*
X80142350Y-120508189D02*
X79999493Y-120555808D01*
X79999493Y-120555808D02*
X79904255Y-120555808D01*
X79904255Y-120555808D02*
X79761398Y-120508189D01*
X79761398Y-120508189D02*
X79666160Y-120412950D01*
X79666160Y-120412950D02*
X79618541Y-120317712D01*
X79618541Y-120317712D02*
X79570922Y-120127236D01*
X79570922Y-120127236D02*
X79570922Y-119984379D01*
X79570922Y-119984379D02*
X79618541Y-119793903D01*
X79618541Y-119793903D02*
X79666160Y-119698665D01*
X79666160Y-119698665D02*
X79761398Y-119603427D01*
X79761398Y-119603427D02*
X79904255Y-119555808D01*
X79904255Y-119555808D02*
X79999493Y-119555808D01*
X79999493Y-119555808D02*
X80142350Y-119603427D01*
X80142350Y-119603427D02*
X80189969Y-119651046D01*
D12*
X109555850Y-92324954D02*
X109198707Y-92574954D01*
X109555850Y-92753525D02*
X108805850Y-92753525D01*
X108805850Y-92753525D02*
X108805850Y-92467811D01*
X108805850Y-92467811D02*
X108841564Y-92396382D01*
X108841564Y-92396382D02*
X108877278Y-92360668D01*
X108877278Y-92360668D02*
X108948707Y-92324954D01*
X108948707Y-92324954D02*
X109055850Y-92324954D01*
X109055850Y-92324954D02*
X109127278Y-92360668D01*
X109127278Y-92360668D02*
X109162993Y-92396382D01*
X109162993Y-92396382D02*
X109198707Y-92467811D01*
X109198707Y-92467811D02*
X109198707Y-92753525D01*
X108805850Y-92074954D02*
X108805850Y-91610668D01*
X108805850Y-91610668D02*
X109091564Y-91860668D01*
X109091564Y-91860668D02*
X109091564Y-91753525D01*
X109091564Y-91753525D02*
X109127278Y-91682097D01*
X109127278Y-91682097D02*
X109162993Y-91646382D01*
X109162993Y-91646382D02*
X109234421Y-91610668D01*
X109234421Y-91610668D02*
X109412993Y-91610668D01*
X109412993Y-91610668D02*
X109484421Y-91646382D01*
X109484421Y-91646382D02*
X109520136Y-91682097D01*
X109520136Y-91682097D02*
X109555850Y-91753525D01*
X109555850Y-91753525D02*
X109555850Y-91967811D01*
X109555850Y-91967811D02*
X109520136Y-92039239D01*
X109520136Y-92039239D02*
X109484421Y-92074954D01*
X92329456Y-111592724D02*
X92079456Y-111235581D01*
X91900885Y-111592724D02*
X91900885Y-110842724D01*
X91900885Y-110842724D02*
X92186599Y-110842724D01*
X92186599Y-110842724D02*
X92258028Y-110878438D01*
X92258028Y-110878438D02*
X92293742Y-110914152D01*
X92293742Y-110914152D02*
X92329456Y-110985581D01*
X92329456Y-110985581D02*
X92329456Y-111092724D01*
X92329456Y-111092724D02*
X92293742Y-111164152D01*
X92293742Y-111164152D02*
X92258028Y-111199867D01*
X92258028Y-111199867D02*
X92186599Y-111235581D01*
X92186599Y-111235581D02*
X91900885Y-111235581D01*
X93043742Y-111592724D02*
X92615171Y-111592724D01*
X92829456Y-111592724D02*
X92829456Y-110842724D01*
X92829456Y-110842724D02*
X92758028Y-110949867D01*
X92758028Y-110949867D02*
X92686599Y-111021295D01*
X92686599Y-111021295D02*
X92615171Y-111057010D01*
X93329457Y-110914152D02*
X93365171Y-110878438D01*
X93365171Y-110878438D02*
X93436600Y-110842724D01*
X93436600Y-110842724D02*
X93615171Y-110842724D01*
X93615171Y-110842724D02*
X93686600Y-110878438D01*
X93686600Y-110878438D02*
X93722314Y-110914152D01*
X93722314Y-110914152D02*
X93758028Y-110985581D01*
X93758028Y-110985581D02*
X93758028Y-111057010D01*
X93758028Y-111057010D02*
X93722314Y-111164152D01*
X93722314Y-111164152D02*
X93293742Y-111592724D01*
X93293742Y-111592724D02*
X93758028Y-111592724D01*
X123164280Y-111465159D02*
X123128566Y-111500874D01*
X123128566Y-111500874D02*
X123021423Y-111536588D01*
X123021423Y-111536588D02*
X122949995Y-111536588D01*
X122949995Y-111536588D02*
X122842852Y-111500874D01*
X122842852Y-111500874D02*
X122771423Y-111429445D01*
X122771423Y-111429445D02*
X122735709Y-111358016D01*
X122735709Y-111358016D02*
X122699995Y-111215159D01*
X122699995Y-111215159D02*
X122699995Y-111108016D01*
X122699995Y-111108016D02*
X122735709Y-110965159D01*
X122735709Y-110965159D02*
X122771423Y-110893731D01*
X122771423Y-110893731D02*
X122842852Y-110822302D01*
X122842852Y-110822302D02*
X122949995Y-110786588D01*
X122949995Y-110786588D02*
X123021423Y-110786588D01*
X123021423Y-110786588D02*
X123128566Y-110822302D01*
X123128566Y-110822302D02*
X123164280Y-110858016D01*
X123521423Y-111536588D02*
X123664280Y-111536588D01*
X123664280Y-111536588D02*
X123735709Y-111500874D01*
X123735709Y-111500874D02*
X123771423Y-111465159D01*
X123771423Y-111465159D02*
X123842852Y-111358016D01*
X123842852Y-111358016D02*
X123878566Y-111215159D01*
X123878566Y-111215159D02*
X123878566Y-110929445D01*
X123878566Y-110929445D02*
X123842852Y-110858016D01*
X123842852Y-110858016D02*
X123807138Y-110822302D01*
X123807138Y-110822302D02*
X123735709Y-110786588D01*
X123735709Y-110786588D02*
X123592852Y-110786588D01*
X123592852Y-110786588D02*
X123521423Y-110822302D01*
X123521423Y-110822302D02*
X123485709Y-110858016D01*
X123485709Y-110858016D02*
X123449995Y-110929445D01*
X123449995Y-110929445D02*
X123449995Y-111108016D01*
X123449995Y-111108016D02*
X123485709Y-111179445D01*
X123485709Y-111179445D02*
X123521423Y-111215159D01*
X123521423Y-111215159D02*
X123592852Y-111250874D01*
X123592852Y-111250874D02*
X123735709Y-111250874D01*
X123735709Y-111250874D02*
X123807138Y-111215159D01*
X123807138Y-111215159D02*
X123842852Y-111179445D01*
X123842852Y-111179445D02*
X123878566Y-111108016D01*
X108268011Y-99583052D02*
X108303726Y-99618766D01*
X108303726Y-99618766D02*
X108339440Y-99725909D01*
X108339440Y-99725909D02*
X108339440Y-99797337D01*
X108339440Y-99797337D02*
X108303726Y-99904480D01*
X108303726Y-99904480D02*
X108232297Y-99975909D01*
X108232297Y-99975909D02*
X108160868Y-100011623D01*
X108160868Y-100011623D02*
X108018011Y-100047337D01*
X108018011Y-100047337D02*
X107910868Y-100047337D01*
X107910868Y-100047337D02*
X107768011Y-100011623D01*
X107768011Y-100011623D02*
X107696583Y-99975909D01*
X107696583Y-99975909D02*
X107625154Y-99904480D01*
X107625154Y-99904480D02*
X107589440Y-99797337D01*
X107589440Y-99797337D02*
X107589440Y-99725909D01*
X107589440Y-99725909D02*
X107625154Y-99618766D01*
X107625154Y-99618766D02*
X107660868Y-99583052D01*
X107589440Y-99333052D02*
X107589440Y-98868766D01*
X107589440Y-98868766D02*
X107875154Y-99118766D01*
X107875154Y-99118766D02*
X107875154Y-99011623D01*
X107875154Y-99011623D02*
X107910868Y-98940195D01*
X107910868Y-98940195D02*
X107946583Y-98904480D01*
X107946583Y-98904480D02*
X108018011Y-98868766D01*
X108018011Y-98868766D02*
X108196583Y-98868766D01*
X108196583Y-98868766D02*
X108268011Y-98904480D01*
X108268011Y-98904480D02*
X108303726Y-98940195D01*
X108303726Y-98940195D02*
X108339440Y-99011623D01*
X108339440Y-99011623D02*
X108339440Y-99225909D01*
X108339440Y-99225909D02*
X108303726Y-99297337D01*
X108303726Y-99297337D02*
X108268011Y-99333052D01*
X121935295Y-104723743D02*
X121971010Y-104759457D01*
X121971010Y-104759457D02*
X122006724Y-104866600D01*
X122006724Y-104866600D02*
X122006724Y-104938028D01*
X122006724Y-104938028D02*
X121971010Y-105045171D01*
X121971010Y-105045171D02*
X121899581Y-105116600D01*
X121899581Y-105116600D02*
X121828152Y-105152314D01*
X121828152Y-105152314D02*
X121685295Y-105188028D01*
X121685295Y-105188028D02*
X121578152Y-105188028D01*
X121578152Y-105188028D02*
X121435295Y-105152314D01*
X121435295Y-105152314D02*
X121363867Y-105116600D01*
X121363867Y-105116600D02*
X121292438Y-105045171D01*
X121292438Y-105045171D02*
X121256724Y-104938028D01*
X121256724Y-104938028D02*
X121256724Y-104866600D01*
X121256724Y-104866600D02*
X121292438Y-104759457D01*
X121292438Y-104759457D02*
X121328152Y-104723743D01*
X122006724Y-104009457D02*
X122006724Y-104438028D01*
X122006724Y-104223743D02*
X121256724Y-104223743D01*
X121256724Y-104223743D02*
X121363867Y-104295171D01*
X121363867Y-104295171D02*
X121435295Y-104366600D01*
X121435295Y-104366600D02*
X121471010Y-104438028D01*
X121328152Y-103723742D02*
X121292438Y-103688028D01*
X121292438Y-103688028D02*
X121256724Y-103616600D01*
X121256724Y-103616600D02*
X121256724Y-103438028D01*
X121256724Y-103438028D02*
X121292438Y-103366600D01*
X121292438Y-103366600D02*
X121328152Y-103330885D01*
X121328152Y-103330885D02*
X121399581Y-103295171D01*
X121399581Y-103295171D02*
X121471010Y-103295171D01*
X121471010Y-103295171D02*
X121578152Y-103330885D01*
X121578152Y-103330885D02*
X122006724Y-103759457D01*
X122006724Y-103759457D02*
X122006724Y-103295171D01*
X88224724Y-101899571D02*
X87474724Y-101899571D01*
X87474724Y-101899571D02*
X87474724Y-101721000D01*
X87474724Y-101721000D02*
X87510438Y-101613857D01*
X87510438Y-101613857D02*
X87581867Y-101542428D01*
X87581867Y-101542428D02*
X87653295Y-101506714D01*
X87653295Y-101506714D02*
X87796152Y-101471000D01*
X87796152Y-101471000D02*
X87903295Y-101471000D01*
X87903295Y-101471000D02*
X88046152Y-101506714D01*
X88046152Y-101506714D02*
X88117581Y-101542428D01*
X88117581Y-101542428D02*
X88189010Y-101613857D01*
X88189010Y-101613857D02*
X88224724Y-101721000D01*
X88224724Y-101721000D02*
X88224724Y-101899571D01*
X87724724Y-100828143D02*
X88224724Y-100828143D01*
X87439010Y-101006714D02*
X87974724Y-101185285D01*
X87974724Y-101185285D02*
X87974724Y-100721000D01*
X123469158Y-116394616D02*
X123433444Y-116430331D01*
X123433444Y-116430331D02*
X123326301Y-116466045D01*
X123326301Y-116466045D02*
X123254873Y-116466045D01*
X123254873Y-116466045D02*
X123147730Y-116430331D01*
X123147730Y-116430331D02*
X123076301Y-116358902D01*
X123076301Y-116358902D02*
X123040587Y-116287473D01*
X123040587Y-116287473D02*
X123004873Y-116144616D01*
X123004873Y-116144616D02*
X123004873Y-116037473D01*
X123004873Y-116037473D02*
X123040587Y-115894616D01*
X123040587Y-115894616D02*
X123076301Y-115823188D01*
X123076301Y-115823188D02*
X123147730Y-115751759D01*
X123147730Y-115751759D02*
X123254873Y-115716045D01*
X123254873Y-115716045D02*
X123326301Y-115716045D01*
X123326301Y-115716045D02*
X123433444Y-115751759D01*
X123433444Y-115751759D02*
X123469158Y-115787473D01*
X124183444Y-116466045D02*
X123754873Y-116466045D01*
X123969158Y-116466045D02*
X123969158Y-115716045D01*
X123969158Y-115716045D02*
X123897730Y-115823188D01*
X123897730Y-115823188D02*
X123826301Y-115894616D01*
X123826301Y-115894616D02*
X123754873Y-115930331D01*
X124826302Y-115966045D02*
X124826302Y-116466045D01*
X124647730Y-115680331D02*
X124469159Y-116216045D01*
X124469159Y-116216045D02*
X124933444Y-116216045D01*
X81301124Y-96885999D02*
X81836838Y-96885999D01*
X81836838Y-96885999D02*
X81943981Y-96921714D01*
X81943981Y-96921714D02*
X82015410Y-96993142D01*
X82015410Y-96993142D02*
X82051124Y-97100285D01*
X82051124Y-97100285D02*
X82051124Y-97171714D01*
X81622552Y-96421713D02*
X81586838Y-96493142D01*
X81586838Y-96493142D02*
X81551124Y-96528856D01*
X81551124Y-96528856D02*
X81479695Y-96564570D01*
X81479695Y-96564570D02*
X81443981Y-96564570D01*
X81443981Y-96564570D02*
X81372552Y-96528856D01*
X81372552Y-96528856D02*
X81336838Y-96493142D01*
X81336838Y-96493142D02*
X81301124Y-96421713D01*
X81301124Y-96421713D02*
X81301124Y-96278856D01*
X81301124Y-96278856D02*
X81336838Y-96207428D01*
X81336838Y-96207428D02*
X81372552Y-96171713D01*
X81372552Y-96171713D02*
X81443981Y-96135999D01*
X81443981Y-96135999D02*
X81479695Y-96135999D01*
X81479695Y-96135999D02*
X81551124Y-96171713D01*
X81551124Y-96171713D02*
X81586838Y-96207428D01*
X81586838Y-96207428D02*
X81622552Y-96278856D01*
X81622552Y-96278856D02*
X81622552Y-96421713D01*
X81622552Y-96421713D02*
X81658267Y-96493142D01*
X81658267Y-96493142D02*
X81693981Y-96528856D01*
X81693981Y-96528856D02*
X81765410Y-96564570D01*
X81765410Y-96564570D02*
X81908267Y-96564570D01*
X81908267Y-96564570D02*
X81979695Y-96528856D01*
X81979695Y-96528856D02*
X82015410Y-96493142D01*
X82015410Y-96493142D02*
X82051124Y-96421713D01*
X82051124Y-96421713D02*
X82051124Y-96278856D01*
X82051124Y-96278856D02*
X82015410Y-96207428D01*
X82015410Y-96207428D02*
X81979695Y-96171713D01*
X81979695Y-96171713D02*
X81908267Y-96135999D01*
X81908267Y-96135999D02*
X81765410Y-96135999D01*
X81765410Y-96135999D02*
X81693981Y-96171713D01*
X81693981Y-96171713D02*
X81658267Y-96207428D01*
X81658267Y-96207428D02*
X81622552Y-96278856D01*
X85765980Y-110555962D02*
X85730266Y-110591677D01*
X85730266Y-110591677D02*
X85623123Y-110627391D01*
X85623123Y-110627391D02*
X85551695Y-110627391D01*
X85551695Y-110627391D02*
X85444552Y-110591677D01*
X85444552Y-110591677D02*
X85373123Y-110520248D01*
X85373123Y-110520248D02*
X85337409Y-110448819D01*
X85337409Y-110448819D02*
X85301695Y-110305962D01*
X85301695Y-110305962D02*
X85301695Y-110198819D01*
X85301695Y-110198819D02*
X85337409Y-110055962D01*
X85337409Y-110055962D02*
X85373123Y-109984534D01*
X85373123Y-109984534D02*
X85444552Y-109913105D01*
X85444552Y-109913105D02*
X85551695Y-109877391D01*
X85551695Y-109877391D02*
X85623123Y-109877391D01*
X85623123Y-109877391D02*
X85730266Y-109913105D01*
X85730266Y-109913105D02*
X85765980Y-109948819D01*
X86480266Y-110627391D02*
X86051695Y-110627391D01*
X86265980Y-110627391D02*
X86265980Y-109877391D01*
X86265980Y-109877391D02*
X86194552Y-109984534D01*
X86194552Y-109984534D02*
X86123123Y-110055962D01*
X86123123Y-110055962D02*
X86051695Y-110091677D01*
X87158838Y-109877391D02*
X86801695Y-109877391D01*
X86801695Y-109877391D02*
X86765981Y-110234534D01*
X86765981Y-110234534D02*
X86801695Y-110198819D01*
X86801695Y-110198819D02*
X86873124Y-110163105D01*
X86873124Y-110163105D02*
X87051695Y-110163105D01*
X87051695Y-110163105D02*
X87123124Y-110198819D01*
X87123124Y-110198819D02*
X87158838Y-110234534D01*
X87158838Y-110234534D02*
X87194552Y-110305962D01*
X87194552Y-110305962D02*
X87194552Y-110484534D01*
X87194552Y-110484534D02*
X87158838Y-110555962D01*
X87158838Y-110555962D02*
X87123124Y-110591677D01*
X87123124Y-110591677D02*
X87051695Y-110627391D01*
X87051695Y-110627391D02*
X86873124Y-110627391D01*
X86873124Y-110627391D02*
X86801695Y-110591677D01*
X86801695Y-110591677D02*
X86765981Y-110555962D01*
X105733724Y-93535428D02*
X106340867Y-93535428D01*
X106340867Y-93535428D02*
X106412295Y-93499714D01*
X106412295Y-93499714D02*
X106448010Y-93464000D01*
X106448010Y-93464000D02*
X106483724Y-93392571D01*
X106483724Y-93392571D02*
X106483724Y-93249714D01*
X106483724Y-93249714D02*
X106448010Y-93178285D01*
X106448010Y-93178285D02*
X106412295Y-93142571D01*
X106412295Y-93142571D02*
X106340867Y-93106857D01*
X106340867Y-93106857D02*
X105733724Y-93106857D01*
X105805152Y-92785428D02*
X105769438Y-92749714D01*
X105769438Y-92749714D02*
X105733724Y-92678286D01*
X105733724Y-92678286D02*
X105733724Y-92499714D01*
X105733724Y-92499714D02*
X105769438Y-92428286D01*
X105769438Y-92428286D02*
X105805152Y-92392571D01*
X105805152Y-92392571D02*
X105876581Y-92356857D01*
X105876581Y-92356857D02*
X105948010Y-92356857D01*
X105948010Y-92356857D02*
X106055152Y-92392571D01*
X106055152Y-92392571D02*
X106483724Y-92821143D01*
X106483724Y-92821143D02*
X106483724Y-92356857D01*
X95722611Y-87376878D02*
X95651182Y-87341164D01*
X95651182Y-87341164D02*
X95579754Y-87269736D01*
X95579754Y-87269736D02*
X95472611Y-87162593D01*
X95472611Y-87162593D02*
X95401182Y-87126878D01*
X95401182Y-87126878D02*
X95329754Y-87126878D01*
X95365468Y-87305450D02*
X95294040Y-87269736D01*
X95294040Y-87269736D02*
X95222611Y-87198307D01*
X95222611Y-87198307D02*
X95186897Y-87055450D01*
X95186897Y-87055450D02*
X95186897Y-86805450D01*
X95186897Y-86805450D02*
X95222611Y-86662593D01*
X95222611Y-86662593D02*
X95294040Y-86591164D01*
X95294040Y-86591164D02*
X95365468Y-86555450D01*
X95365468Y-86555450D02*
X95508325Y-86555450D01*
X95508325Y-86555450D02*
X95579754Y-86591164D01*
X95579754Y-86591164D02*
X95651182Y-86662593D01*
X95651182Y-86662593D02*
X95686897Y-86805450D01*
X95686897Y-86805450D02*
X95686897Y-87055450D01*
X95686897Y-87055450D02*
X95651182Y-87198307D01*
X95651182Y-87198307D02*
X95579754Y-87269736D01*
X95579754Y-87269736D02*
X95508325Y-87305450D01*
X95508325Y-87305450D02*
X95365468Y-87305450D01*
X96401182Y-87305450D02*
X95972611Y-87305450D01*
X96186896Y-87305450D02*
X96186896Y-86555450D01*
X96186896Y-86555450D02*
X96115468Y-86662593D01*
X96115468Y-86662593D02*
X96044039Y-86734021D01*
X96044039Y-86734021D02*
X95972611Y-86769736D01*
X97115468Y-87305450D02*
X96686897Y-87305450D01*
X96901182Y-87305450D02*
X96901182Y-86555450D01*
X96901182Y-86555450D02*
X96829754Y-86662593D01*
X96829754Y-86662593D02*
X96758325Y-86734021D01*
X96758325Y-86734021D02*
X96686897Y-86769736D01*
D13*
X105428371Y-103579599D02*
X105142657Y-103779599D01*
X105428371Y-103922456D02*
X104828371Y-103922456D01*
X104828371Y-103922456D02*
X104828371Y-103693885D01*
X104828371Y-103693885D02*
X104856942Y-103636742D01*
X104856942Y-103636742D02*
X104885514Y-103608171D01*
X104885514Y-103608171D02*
X104942657Y-103579599D01*
X104942657Y-103579599D02*
X105028371Y-103579599D01*
X105028371Y-103579599D02*
X105085514Y-103608171D01*
X105085514Y-103608171D02*
X105114085Y-103636742D01*
X105114085Y-103636742D02*
X105142657Y-103693885D01*
X105142657Y-103693885D02*
X105142657Y-103922456D01*
X105085514Y-103236742D02*
X105056942Y-103293885D01*
X105056942Y-103293885D02*
X105028371Y-103322456D01*
X105028371Y-103322456D02*
X104971228Y-103351028D01*
X104971228Y-103351028D02*
X104942657Y-103351028D01*
X104942657Y-103351028D02*
X104885514Y-103322456D01*
X104885514Y-103322456D02*
X104856942Y-103293885D01*
X104856942Y-103293885D02*
X104828371Y-103236742D01*
X104828371Y-103236742D02*
X104828371Y-103122456D01*
X104828371Y-103122456D02*
X104856942Y-103065314D01*
X104856942Y-103065314D02*
X104885514Y-103036742D01*
X104885514Y-103036742D02*
X104942657Y-103008171D01*
X104942657Y-103008171D02*
X104971228Y-103008171D01*
X104971228Y-103008171D02*
X105028371Y-103036742D01*
X105028371Y-103036742D02*
X105056942Y-103065314D01*
X105056942Y-103065314D02*
X105085514Y-103122456D01*
X105085514Y-103122456D02*
X105085514Y-103236742D01*
X105085514Y-103236742D02*
X105114085Y-103293885D01*
X105114085Y-103293885D02*
X105142657Y-103322456D01*
X105142657Y-103322456D02*
X105199800Y-103351028D01*
X105199800Y-103351028D02*
X105314085Y-103351028D01*
X105314085Y-103351028D02*
X105371228Y-103322456D01*
X105371228Y-103322456D02*
X105399800Y-103293885D01*
X105399800Y-103293885D02*
X105428371Y-103236742D01*
X105428371Y-103236742D02*
X105428371Y-103122456D01*
X105428371Y-103122456D02*
X105399800Y-103065314D01*
X105399800Y-103065314D02*
X105371228Y-103036742D01*
X105371228Y-103036742D02*
X105314085Y-103008171D01*
X105314085Y-103008171D02*
X105199800Y-103008171D01*
X105199800Y-103008171D02*
X105142657Y-103036742D01*
X105142657Y-103036742D02*
X105114085Y-103065314D01*
X105114085Y-103065314D02*
X105085514Y-103122456D01*
D12*
X82552924Y-123391017D02*
X83160067Y-123391017D01*
X83160067Y-123391017D02*
X83231495Y-123355303D01*
X83231495Y-123355303D02*
X83267210Y-123319589D01*
X83267210Y-123319589D02*
X83302924Y-123248160D01*
X83302924Y-123248160D02*
X83302924Y-123105303D01*
X83302924Y-123105303D02*
X83267210Y-123033874D01*
X83267210Y-123033874D02*
X83231495Y-122998160D01*
X83231495Y-122998160D02*
X83160067Y-122962446D01*
X83160067Y-122962446D02*
X82552924Y-122962446D01*
X82802924Y-122283875D02*
X83302924Y-122283875D01*
X82517210Y-122462446D02*
X83052924Y-122641017D01*
X83052924Y-122641017D02*
X83052924Y-122176732D01*
D13*
X99789571Y-99566399D02*
X99503857Y-99766399D01*
X99789571Y-99909256D02*
X99189571Y-99909256D01*
X99189571Y-99909256D02*
X99189571Y-99680685D01*
X99189571Y-99680685D02*
X99218142Y-99623542D01*
X99218142Y-99623542D02*
X99246714Y-99594971D01*
X99246714Y-99594971D02*
X99303857Y-99566399D01*
X99303857Y-99566399D02*
X99389571Y-99566399D01*
X99389571Y-99566399D02*
X99446714Y-99594971D01*
X99446714Y-99594971D02*
X99475285Y-99623542D01*
X99475285Y-99623542D02*
X99503857Y-99680685D01*
X99503857Y-99680685D02*
X99503857Y-99909256D01*
X99389571Y-99052114D02*
X99789571Y-99052114D01*
X99161000Y-99194971D02*
X99589571Y-99337828D01*
X99589571Y-99337828D02*
X99589571Y-98966399D01*
D12*
X111379456Y-121955924D02*
X111129456Y-121598781D01*
X110950885Y-121955924D02*
X110950885Y-121205924D01*
X110950885Y-121205924D02*
X111236599Y-121205924D01*
X111236599Y-121205924D02*
X111308028Y-121241638D01*
X111308028Y-121241638D02*
X111343742Y-121277352D01*
X111343742Y-121277352D02*
X111379456Y-121348781D01*
X111379456Y-121348781D02*
X111379456Y-121455924D01*
X111379456Y-121455924D02*
X111343742Y-121527352D01*
X111343742Y-121527352D02*
X111308028Y-121563067D01*
X111308028Y-121563067D02*
X111236599Y-121598781D01*
X111236599Y-121598781D02*
X110950885Y-121598781D01*
X112093742Y-121955924D02*
X111665171Y-121955924D01*
X111879456Y-121955924D02*
X111879456Y-121205924D01*
X111879456Y-121205924D02*
X111808028Y-121313067D01*
X111808028Y-121313067D02*
X111736599Y-121384495D01*
X111736599Y-121384495D02*
X111665171Y-121420210D01*
X112736600Y-121455924D02*
X112736600Y-121955924D01*
X112558028Y-121170210D02*
X112379457Y-121705924D01*
X112379457Y-121705924D02*
X112843742Y-121705924D01*
X125434724Y-119354143D02*
X125077581Y-119604143D01*
X125434724Y-119782714D02*
X124684724Y-119782714D01*
X124684724Y-119782714D02*
X124684724Y-119497000D01*
X124684724Y-119497000D02*
X124720438Y-119425571D01*
X124720438Y-119425571D02*
X124756152Y-119389857D01*
X124756152Y-119389857D02*
X124827581Y-119354143D01*
X124827581Y-119354143D02*
X124934724Y-119354143D01*
X124934724Y-119354143D02*
X125006152Y-119389857D01*
X125006152Y-119389857D02*
X125041867Y-119425571D01*
X125041867Y-119425571D02*
X125077581Y-119497000D01*
X125077581Y-119497000D02*
X125077581Y-119782714D01*
X125434724Y-118639857D02*
X125434724Y-119068428D01*
X125434724Y-118854143D02*
X124684724Y-118854143D01*
X124684724Y-118854143D02*
X124791867Y-118925571D01*
X124791867Y-118925571D02*
X124863295Y-118997000D01*
X124863295Y-118997000D02*
X124899010Y-119068428D01*
X124684724Y-118389857D02*
X124684724Y-117925571D01*
X124684724Y-117925571D02*
X124970438Y-118175571D01*
X124970438Y-118175571D02*
X124970438Y-118068428D01*
X124970438Y-118068428D02*
X125006152Y-117997000D01*
X125006152Y-117997000D02*
X125041867Y-117961285D01*
X125041867Y-117961285D02*
X125113295Y-117925571D01*
X125113295Y-117925571D02*
X125291867Y-117925571D01*
X125291867Y-117925571D02*
X125363295Y-117961285D01*
X125363295Y-117961285D02*
X125399010Y-117997000D01*
X125399010Y-117997000D02*
X125434724Y-118068428D01*
X125434724Y-118068428D02*
X125434724Y-118282714D01*
X125434724Y-118282714D02*
X125399010Y-118354142D01*
X125399010Y-118354142D02*
X125363295Y-118389857D01*
X125632065Y-108786911D02*
X125632065Y-108036911D01*
X125632065Y-108036911D02*
X125810636Y-108036911D01*
X125810636Y-108036911D02*
X125917779Y-108072625D01*
X125917779Y-108072625D02*
X125989208Y-108144054D01*
X125989208Y-108144054D02*
X126024922Y-108215482D01*
X126024922Y-108215482D02*
X126060636Y-108358339D01*
X126060636Y-108358339D02*
X126060636Y-108465482D01*
X126060636Y-108465482D02*
X126024922Y-108608339D01*
X126024922Y-108608339D02*
X125989208Y-108679768D01*
X125989208Y-108679768D02*
X125917779Y-108751197D01*
X125917779Y-108751197D02*
X125810636Y-108786911D01*
X125810636Y-108786911D02*
X125632065Y-108786911D01*
X126774922Y-108786911D02*
X126346351Y-108786911D01*
X126560636Y-108786911D02*
X126560636Y-108036911D01*
X126560636Y-108036911D02*
X126489208Y-108144054D01*
X126489208Y-108144054D02*
X126417779Y-108215482D01*
X126417779Y-108215482D02*
X126346351Y-108251197D01*
X127239208Y-108036911D02*
X127310637Y-108036911D01*
X127310637Y-108036911D02*
X127382065Y-108072625D01*
X127382065Y-108072625D02*
X127417780Y-108108339D01*
X127417780Y-108108339D02*
X127453494Y-108179768D01*
X127453494Y-108179768D02*
X127489208Y-108322625D01*
X127489208Y-108322625D02*
X127489208Y-108501197D01*
X127489208Y-108501197D02*
X127453494Y-108644054D01*
X127453494Y-108644054D02*
X127417780Y-108715482D01*
X127417780Y-108715482D02*
X127382065Y-108751197D01*
X127382065Y-108751197D02*
X127310637Y-108786911D01*
X127310637Y-108786911D02*
X127239208Y-108786911D01*
X127239208Y-108786911D02*
X127167780Y-108751197D01*
X127167780Y-108751197D02*
X127132065Y-108715482D01*
X127132065Y-108715482D02*
X127096351Y-108644054D01*
X127096351Y-108644054D02*
X127060637Y-108501197D01*
X127060637Y-108501197D02*
X127060637Y-108322625D01*
X127060637Y-108322625D02*
X127096351Y-108179768D01*
X127096351Y-108179768D02*
X127132065Y-108108339D01*
X127132065Y-108108339D02*
X127167780Y-108072625D01*
X127167780Y-108072625D02*
X127239208Y-108036911D01*
D13*
X98369485Y-108476371D02*
X98169485Y-108190657D01*
X98026628Y-108476371D02*
X98026628Y-107876371D01*
X98026628Y-107876371D02*
X98255199Y-107876371D01*
X98255199Y-107876371D02*
X98312342Y-107904942D01*
X98312342Y-107904942D02*
X98340913Y-107933514D01*
X98340913Y-107933514D02*
X98369485Y-107990657D01*
X98369485Y-107990657D02*
X98369485Y-108076371D01*
X98369485Y-108076371D02*
X98340913Y-108133514D01*
X98340913Y-108133514D02*
X98312342Y-108162085D01*
X98312342Y-108162085D02*
X98255199Y-108190657D01*
X98255199Y-108190657D02*
X98026628Y-108190657D01*
X98598056Y-107933514D02*
X98626628Y-107904942D01*
X98626628Y-107904942D02*
X98683771Y-107876371D01*
X98683771Y-107876371D02*
X98826628Y-107876371D01*
X98826628Y-107876371D02*
X98883771Y-107904942D01*
X98883771Y-107904942D02*
X98912342Y-107933514D01*
X98912342Y-107933514D02*
X98940913Y-107990657D01*
X98940913Y-107990657D02*
X98940913Y-108047800D01*
X98940913Y-108047800D02*
X98912342Y-108133514D01*
X98912342Y-108133514D02*
X98569485Y-108476371D01*
X98569485Y-108476371D02*
X98940913Y-108476371D01*
X99455200Y-108076371D02*
X99455200Y-108476371D01*
X99312342Y-107847800D02*
X99169485Y-108276371D01*
X99169485Y-108276371D02*
X99540914Y-108276371D01*
D12*
X126056110Y-94781459D02*
X125306110Y-94781459D01*
X125306110Y-94781459D02*
X125306110Y-94602888D01*
X125306110Y-94602888D02*
X125341824Y-94495745D01*
X125341824Y-94495745D02*
X125413253Y-94424316D01*
X125413253Y-94424316D02*
X125484681Y-94388602D01*
X125484681Y-94388602D02*
X125627538Y-94352888D01*
X125627538Y-94352888D02*
X125734681Y-94352888D01*
X125734681Y-94352888D02*
X125877538Y-94388602D01*
X125877538Y-94388602D02*
X125948967Y-94424316D01*
X125948967Y-94424316D02*
X126020396Y-94495745D01*
X126020396Y-94495745D02*
X126056110Y-94602888D01*
X126056110Y-94602888D02*
X126056110Y-94781459D01*
X126056110Y-93638602D02*
X126056110Y-94067173D01*
X126056110Y-93852888D02*
X125306110Y-93852888D01*
X125306110Y-93852888D02*
X125413253Y-93924316D01*
X125413253Y-93924316D02*
X125484681Y-93995745D01*
X125484681Y-93995745D02*
X125520396Y-94067173D01*
X126056110Y-92924316D02*
X126056110Y-93352887D01*
X126056110Y-93138602D02*
X125306110Y-93138602D01*
X125306110Y-93138602D02*
X125413253Y-93210030D01*
X125413253Y-93210030D02*
X125484681Y-93281459D01*
X125484681Y-93281459D02*
X125520396Y-93352887D01*
X89488971Y-111613352D02*
X89417542Y-111577638D01*
X89417542Y-111577638D02*
X89346114Y-111506210D01*
X89346114Y-111506210D02*
X89238971Y-111399067D01*
X89238971Y-111399067D02*
X89167542Y-111363352D01*
X89167542Y-111363352D02*
X89096114Y-111363352D01*
X89131828Y-111541924D02*
X89060400Y-111506210D01*
X89060400Y-111506210D02*
X88988971Y-111434781D01*
X88988971Y-111434781D02*
X88953257Y-111291924D01*
X88953257Y-111291924D02*
X88953257Y-111041924D01*
X88953257Y-111041924D02*
X88988971Y-110899067D01*
X88988971Y-110899067D02*
X89060400Y-110827638D01*
X89060400Y-110827638D02*
X89131828Y-110791924D01*
X89131828Y-110791924D02*
X89274685Y-110791924D01*
X89274685Y-110791924D02*
X89346114Y-110827638D01*
X89346114Y-110827638D02*
X89417542Y-110899067D01*
X89417542Y-110899067D02*
X89453257Y-111041924D01*
X89453257Y-111041924D02*
X89453257Y-111291924D01*
X89453257Y-111291924D02*
X89417542Y-111434781D01*
X89417542Y-111434781D02*
X89346114Y-111506210D01*
X89346114Y-111506210D02*
X89274685Y-111541924D01*
X89274685Y-111541924D02*
X89131828Y-111541924D01*
X89703256Y-110791924D02*
X90167542Y-110791924D01*
X90167542Y-110791924D02*
X89917542Y-111077638D01*
X89917542Y-111077638D02*
X90024685Y-111077638D01*
X90024685Y-111077638D02*
X90096114Y-111113352D01*
X90096114Y-111113352D02*
X90131828Y-111149067D01*
X90131828Y-111149067D02*
X90167542Y-111220495D01*
X90167542Y-111220495D02*
X90167542Y-111399067D01*
X90167542Y-111399067D02*
X90131828Y-111470495D01*
X90131828Y-111470495D02*
X90096114Y-111506210D01*
X90096114Y-111506210D02*
X90024685Y-111541924D01*
X90024685Y-111541924D02*
X89810399Y-111541924D01*
X89810399Y-111541924D02*
X89738971Y-111506210D01*
X89738971Y-111506210D02*
X89703256Y-111470495D01*
X104360163Y-87796304D02*
X104324449Y-87832019D01*
X104324449Y-87832019D02*
X104217306Y-87867733D01*
X104217306Y-87867733D02*
X104145878Y-87867733D01*
X104145878Y-87867733D02*
X104038735Y-87832019D01*
X104038735Y-87832019D02*
X103967306Y-87760590D01*
X103967306Y-87760590D02*
X103931592Y-87689161D01*
X103931592Y-87689161D02*
X103895878Y-87546304D01*
X103895878Y-87546304D02*
X103895878Y-87439161D01*
X103895878Y-87439161D02*
X103931592Y-87296304D01*
X103931592Y-87296304D02*
X103967306Y-87224876D01*
X103967306Y-87224876D02*
X104038735Y-87153447D01*
X104038735Y-87153447D02*
X104145878Y-87117733D01*
X104145878Y-87117733D02*
X104217306Y-87117733D01*
X104217306Y-87117733D02*
X104324449Y-87153447D01*
X104324449Y-87153447D02*
X104360163Y-87189161D01*
X105003021Y-87117733D02*
X104860163Y-87117733D01*
X104860163Y-87117733D02*
X104788735Y-87153447D01*
X104788735Y-87153447D02*
X104753021Y-87189161D01*
X104753021Y-87189161D02*
X104681592Y-87296304D01*
X104681592Y-87296304D02*
X104645878Y-87439161D01*
X104645878Y-87439161D02*
X104645878Y-87724876D01*
X104645878Y-87724876D02*
X104681592Y-87796304D01*
X104681592Y-87796304D02*
X104717306Y-87832019D01*
X104717306Y-87832019D02*
X104788735Y-87867733D01*
X104788735Y-87867733D02*
X104931592Y-87867733D01*
X104931592Y-87867733D02*
X105003021Y-87832019D01*
X105003021Y-87832019D02*
X105038735Y-87796304D01*
X105038735Y-87796304D02*
X105074449Y-87724876D01*
X105074449Y-87724876D02*
X105074449Y-87546304D01*
X105074449Y-87546304D02*
X105038735Y-87474876D01*
X105038735Y-87474876D02*
X105003021Y-87439161D01*
X105003021Y-87439161D02*
X104931592Y-87403447D01*
X104931592Y-87403447D02*
X104788735Y-87403447D01*
X104788735Y-87403447D02*
X104717306Y-87439161D01*
X104717306Y-87439161D02*
X104681592Y-87474876D01*
X104681592Y-87474876D02*
X104645878Y-87546304D01*
X88275524Y-96184571D02*
X87525524Y-96184571D01*
X87525524Y-96184571D02*
X87525524Y-96006000D01*
X87525524Y-96006000D02*
X87561238Y-95898857D01*
X87561238Y-95898857D02*
X87632667Y-95827428D01*
X87632667Y-95827428D02*
X87704095Y-95791714D01*
X87704095Y-95791714D02*
X87846952Y-95756000D01*
X87846952Y-95756000D02*
X87954095Y-95756000D01*
X87954095Y-95756000D02*
X88096952Y-95791714D01*
X88096952Y-95791714D02*
X88168381Y-95827428D01*
X88168381Y-95827428D02*
X88239810Y-95898857D01*
X88239810Y-95898857D02*
X88275524Y-96006000D01*
X88275524Y-96006000D02*
X88275524Y-96184571D01*
X88275524Y-95041714D02*
X88275524Y-95470285D01*
X88275524Y-95256000D02*
X87525524Y-95256000D01*
X87525524Y-95256000D02*
X87632667Y-95327428D01*
X87632667Y-95327428D02*
X87704095Y-95398857D01*
X87704095Y-95398857D02*
X87739810Y-95470285D01*
X110464735Y-107460906D02*
X110464735Y-107818049D01*
X110464735Y-107818049D02*
X109714735Y-107818049D01*
X109714735Y-107282335D02*
X109714735Y-106818049D01*
X109714735Y-106818049D02*
X110000449Y-107068049D01*
X110000449Y-107068049D02*
X110000449Y-106960906D01*
X110000449Y-106960906D02*
X110036163Y-106889478D01*
X110036163Y-106889478D02*
X110071878Y-106853763D01*
X110071878Y-106853763D02*
X110143306Y-106818049D01*
X110143306Y-106818049D02*
X110321878Y-106818049D01*
X110321878Y-106818049D02*
X110393306Y-106853763D01*
X110393306Y-106853763D02*
X110429021Y-106889478D01*
X110429021Y-106889478D02*
X110464735Y-106960906D01*
X110464735Y-106960906D02*
X110464735Y-107175192D01*
X110464735Y-107175192D02*
X110429021Y-107246620D01*
X110429021Y-107246620D02*
X110393306Y-107282335D01*
X110017924Y-115798143D02*
X109660781Y-116048143D01*
X110017924Y-116226714D02*
X109267924Y-116226714D01*
X109267924Y-116226714D02*
X109267924Y-115941000D01*
X109267924Y-115941000D02*
X109303638Y-115869571D01*
X109303638Y-115869571D02*
X109339352Y-115833857D01*
X109339352Y-115833857D02*
X109410781Y-115798143D01*
X109410781Y-115798143D02*
X109517924Y-115798143D01*
X109517924Y-115798143D02*
X109589352Y-115833857D01*
X109589352Y-115833857D02*
X109625067Y-115869571D01*
X109625067Y-115869571D02*
X109660781Y-115941000D01*
X109660781Y-115941000D02*
X109660781Y-116226714D01*
X110017924Y-115083857D02*
X110017924Y-115512428D01*
X110017924Y-115298143D02*
X109267924Y-115298143D01*
X109267924Y-115298143D02*
X109375067Y-115369571D01*
X109375067Y-115369571D02*
X109446495Y-115441000D01*
X109446495Y-115441000D02*
X109482210Y-115512428D01*
X109267924Y-114405285D02*
X109267924Y-114762428D01*
X109267924Y-114762428D02*
X109625067Y-114798142D01*
X109625067Y-114798142D02*
X109589352Y-114762428D01*
X109589352Y-114762428D02*
X109553638Y-114691000D01*
X109553638Y-114691000D02*
X109553638Y-114512428D01*
X109553638Y-114512428D02*
X109589352Y-114441000D01*
X109589352Y-114441000D02*
X109625067Y-114405285D01*
X109625067Y-114405285D02*
X109696495Y-114369571D01*
X109696495Y-114369571D02*
X109875067Y-114369571D01*
X109875067Y-114369571D02*
X109946495Y-114405285D01*
X109946495Y-114405285D02*
X109982210Y-114441000D01*
X109982210Y-114441000D02*
X110017924Y-114512428D01*
X110017924Y-114512428D02*
X110017924Y-114691000D01*
X110017924Y-114691000D02*
X109982210Y-114762428D01*
X109982210Y-114762428D02*
X109946495Y-114798142D01*
X90480028Y-124394324D02*
X90480028Y-123644324D01*
X90480028Y-123644324D02*
X90658599Y-123644324D01*
X90658599Y-123644324D02*
X90765742Y-123680038D01*
X90765742Y-123680038D02*
X90837171Y-123751467D01*
X90837171Y-123751467D02*
X90872885Y-123822895D01*
X90872885Y-123822895D02*
X90908599Y-123965752D01*
X90908599Y-123965752D02*
X90908599Y-124072895D01*
X90908599Y-124072895D02*
X90872885Y-124215752D01*
X90872885Y-124215752D02*
X90837171Y-124287181D01*
X90837171Y-124287181D02*
X90765742Y-124358610D01*
X90765742Y-124358610D02*
X90658599Y-124394324D01*
X90658599Y-124394324D02*
X90480028Y-124394324D01*
X91158599Y-123644324D02*
X91658599Y-123644324D01*
X91658599Y-123644324D02*
X91337171Y-124394324D01*
X100865399Y-97673524D02*
X100615399Y-97316381D01*
X100436828Y-97673524D02*
X100436828Y-96923524D01*
X100436828Y-96923524D02*
X100722542Y-96923524D01*
X100722542Y-96923524D02*
X100793971Y-96959238D01*
X100793971Y-96959238D02*
X100829685Y-96994952D01*
X100829685Y-96994952D02*
X100865399Y-97066381D01*
X100865399Y-97066381D02*
X100865399Y-97173524D01*
X100865399Y-97173524D02*
X100829685Y-97244952D01*
X100829685Y-97244952D02*
X100793971Y-97280667D01*
X100793971Y-97280667D02*
X100722542Y-97316381D01*
X100722542Y-97316381D02*
X100436828Y-97316381D01*
X101508257Y-96923524D02*
X101365399Y-96923524D01*
X101365399Y-96923524D02*
X101293971Y-96959238D01*
X101293971Y-96959238D02*
X101258257Y-96994952D01*
X101258257Y-96994952D02*
X101186828Y-97102095D01*
X101186828Y-97102095D02*
X101151114Y-97244952D01*
X101151114Y-97244952D02*
X101151114Y-97530667D01*
X101151114Y-97530667D02*
X101186828Y-97602095D01*
X101186828Y-97602095D02*
X101222542Y-97637810D01*
X101222542Y-97637810D02*
X101293971Y-97673524D01*
X101293971Y-97673524D02*
X101436828Y-97673524D01*
X101436828Y-97673524D02*
X101508257Y-97637810D01*
X101508257Y-97637810D02*
X101543971Y-97602095D01*
X101543971Y-97602095D02*
X101579685Y-97530667D01*
X101579685Y-97530667D02*
X101579685Y-97352095D01*
X101579685Y-97352095D02*
X101543971Y-97280667D01*
X101543971Y-97280667D02*
X101508257Y-97244952D01*
X101508257Y-97244952D02*
X101436828Y-97209238D01*
X101436828Y-97209238D02*
X101293971Y-97209238D01*
X101293971Y-97209238D02*
X101222542Y-97244952D01*
X101222542Y-97244952D02*
X101186828Y-97280667D01*
X101186828Y-97280667D02*
X101151114Y-97352095D01*
D13*
X102634371Y-103579599D02*
X102348657Y-103779599D01*
X102634371Y-103922456D02*
X102034371Y-103922456D01*
X102034371Y-103922456D02*
X102034371Y-103693885D01*
X102034371Y-103693885D02*
X102062942Y-103636742D01*
X102062942Y-103636742D02*
X102091514Y-103608171D01*
X102091514Y-103608171D02*
X102148657Y-103579599D01*
X102148657Y-103579599D02*
X102234371Y-103579599D01*
X102234371Y-103579599D02*
X102291514Y-103608171D01*
X102291514Y-103608171D02*
X102320085Y-103636742D01*
X102320085Y-103636742D02*
X102348657Y-103693885D01*
X102348657Y-103693885D02*
X102348657Y-103922456D01*
X102034371Y-103379599D02*
X102034371Y-102979599D01*
X102034371Y-102979599D02*
X102634371Y-103236742D01*
D12*
X103608599Y-97622724D02*
X103358599Y-97265581D01*
X103180028Y-97622724D02*
X103180028Y-96872724D01*
X103180028Y-96872724D02*
X103465742Y-96872724D01*
X103465742Y-96872724D02*
X103537171Y-96908438D01*
X103537171Y-96908438D02*
X103572885Y-96944152D01*
X103572885Y-96944152D02*
X103608599Y-97015581D01*
X103608599Y-97015581D02*
X103608599Y-97122724D01*
X103608599Y-97122724D02*
X103572885Y-97194152D01*
X103572885Y-97194152D02*
X103537171Y-97229867D01*
X103537171Y-97229867D02*
X103465742Y-97265581D01*
X103465742Y-97265581D02*
X103180028Y-97265581D01*
X103965742Y-97622724D02*
X104108599Y-97622724D01*
X104108599Y-97622724D02*
X104180028Y-97587010D01*
X104180028Y-97587010D02*
X104215742Y-97551295D01*
X104215742Y-97551295D02*
X104287171Y-97444152D01*
X104287171Y-97444152D02*
X104322885Y-97301295D01*
X104322885Y-97301295D02*
X104322885Y-97015581D01*
X104322885Y-97015581D02*
X104287171Y-96944152D01*
X104287171Y-96944152D02*
X104251457Y-96908438D01*
X104251457Y-96908438D02*
X104180028Y-96872724D01*
X104180028Y-96872724D02*
X104037171Y-96872724D01*
X104037171Y-96872724D02*
X103965742Y-96908438D01*
X103965742Y-96908438D02*
X103930028Y-96944152D01*
X103930028Y-96944152D02*
X103894314Y-97015581D01*
X103894314Y-97015581D02*
X103894314Y-97194152D01*
X103894314Y-97194152D02*
X103930028Y-97265581D01*
X103930028Y-97265581D02*
X103965742Y-97301295D01*
X103965742Y-97301295D02*
X104037171Y-97337010D01*
X104037171Y-97337010D02*
X104180028Y-97337010D01*
X104180028Y-97337010D02*
X104251457Y-97301295D01*
X104251457Y-97301295D02*
X104287171Y-97265581D01*
X104287171Y-97265581D02*
X104322885Y-97194152D01*
X117427264Y-111799598D02*
X117427264Y-112406741D01*
X117427264Y-112406741D02*
X117462978Y-112478169D01*
X117462978Y-112478169D02*
X117498693Y-112513884D01*
X117498693Y-112513884D02*
X117570121Y-112549598D01*
X117570121Y-112549598D02*
X117712978Y-112549598D01*
X117712978Y-112549598D02*
X117784407Y-112513884D01*
X117784407Y-112513884D02*
X117820121Y-112478169D01*
X117820121Y-112478169D02*
X117855835Y-112406741D01*
X117855835Y-112406741D02*
X117855835Y-111799598D01*
X118141549Y-111799598D02*
X118605835Y-111799598D01*
X118605835Y-111799598D02*
X118355835Y-112085312D01*
X118355835Y-112085312D02*
X118462978Y-112085312D01*
X118462978Y-112085312D02*
X118534407Y-112121026D01*
X118534407Y-112121026D02*
X118570121Y-112156741D01*
X118570121Y-112156741D02*
X118605835Y-112228169D01*
X118605835Y-112228169D02*
X118605835Y-112406741D01*
X118605835Y-112406741D02*
X118570121Y-112478169D01*
X118570121Y-112478169D02*
X118534407Y-112513884D01*
X118534407Y-112513884D02*
X118462978Y-112549598D01*
X118462978Y-112549598D02*
X118248692Y-112549598D01*
X118248692Y-112549598D02*
X118177264Y-112513884D01*
X118177264Y-112513884D02*
X118141549Y-112478169D01*
X126671799Y-116448895D02*
X126636085Y-116484610D01*
X126636085Y-116484610D02*
X126528942Y-116520324D01*
X126528942Y-116520324D02*
X126457514Y-116520324D01*
X126457514Y-116520324D02*
X126350371Y-116484610D01*
X126350371Y-116484610D02*
X126278942Y-116413181D01*
X126278942Y-116413181D02*
X126243228Y-116341752D01*
X126243228Y-116341752D02*
X126207514Y-116198895D01*
X126207514Y-116198895D02*
X126207514Y-116091752D01*
X126207514Y-116091752D02*
X126243228Y-115948895D01*
X126243228Y-115948895D02*
X126278942Y-115877467D01*
X126278942Y-115877467D02*
X126350371Y-115806038D01*
X126350371Y-115806038D02*
X126457514Y-115770324D01*
X126457514Y-115770324D02*
X126528942Y-115770324D01*
X126528942Y-115770324D02*
X126636085Y-115806038D01*
X126636085Y-115806038D02*
X126671799Y-115841752D01*
X127100371Y-116091752D02*
X127028942Y-116056038D01*
X127028942Y-116056038D02*
X126993228Y-116020324D01*
X126993228Y-116020324D02*
X126957514Y-115948895D01*
X126957514Y-115948895D02*
X126957514Y-115913181D01*
X126957514Y-115913181D02*
X126993228Y-115841752D01*
X126993228Y-115841752D02*
X127028942Y-115806038D01*
X127028942Y-115806038D02*
X127100371Y-115770324D01*
X127100371Y-115770324D02*
X127243228Y-115770324D01*
X127243228Y-115770324D02*
X127314657Y-115806038D01*
X127314657Y-115806038D02*
X127350371Y-115841752D01*
X127350371Y-115841752D02*
X127386085Y-115913181D01*
X127386085Y-115913181D02*
X127386085Y-115948895D01*
X127386085Y-115948895D02*
X127350371Y-116020324D01*
X127350371Y-116020324D02*
X127314657Y-116056038D01*
X127314657Y-116056038D02*
X127243228Y-116091752D01*
X127243228Y-116091752D02*
X127100371Y-116091752D01*
X127100371Y-116091752D02*
X127028942Y-116127467D01*
X127028942Y-116127467D02*
X126993228Y-116163181D01*
X126993228Y-116163181D02*
X126957514Y-116234610D01*
X126957514Y-116234610D02*
X126957514Y-116377467D01*
X126957514Y-116377467D02*
X126993228Y-116448895D01*
X126993228Y-116448895D02*
X127028942Y-116484610D01*
X127028942Y-116484610D02*
X127100371Y-116520324D01*
X127100371Y-116520324D02*
X127243228Y-116520324D01*
X127243228Y-116520324D02*
X127314657Y-116484610D01*
X127314657Y-116484610D02*
X127350371Y-116448895D01*
X127350371Y-116448895D02*
X127386085Y-116377467D01*
X127386085Y-116377467D02*
X127386085Y-116234610D01*
X127386085Y-116234610D02*
X127350371Y-116163181D01*
X127350371Y-116163181D02*
X127314657Y-116127467D01*
X127314657Y-116127467D02*
X127243228Y-116091752D01*
X110017924Y-112953343D02*
X109660781Y-113203343D01*
X110017924Y-113381914D02*
X109267924Y-113381914D01*
X109267924Y-113381914D02*
X109267924Y-113096200D01*
X109267924Y-113096200D02*
X109303638Y-113024771D01*
X109303638Y-113024771D02*
X109339352Y-112989057D01*
X109339352Y-112989057D02*
X109410781Y-112953343D01*
X109410781Y-112953343D02*
X109517924Y-112953343D01*
X109517924Y-112953343D02*
X109589352Y-112989057D01*
X109589352Y-112989057D02*
X109625067Y-113024771D01*
X109625067Y-113024771D02*
X109660781Y-113096200D01*
X109660781Y-113096200D02*
X109660781Y-113381914D01*
X110017924Y-112239057D02*
X110017924Y-112667628D01*
X110017924Y-112453343D02*
X109267924Y-112453343D01*
X109267924Y-112453343D02*
X109375067Y-112524771D01*
X109375067Y-112524771D02*
X109446495Y-112596200D01*
X109446495Y-112596200D02*
X109482210Y-112667628D01*
X109267924Y-111596200D02*
X109267924Y-111739057D01*
X109267924Y-111739057D02*
X109303638Y-111810485D01*
X109303638Y-111810485D02*
X109339352Y-111846200D01*
X109339352Y-111846200D02*
X109446495Y-111917628D01*
X109446495Y-111917628D02*
X109589352Y-111953342D01*
X109589352Y-111953342D02*
X109875067Y-111953342D01*
X109875067Y-111953342D02*
X109946495Y-111917628D01*
X109946495Y-111917628D02*
X109982210Y-111881914D01*
X109982210Y-111881914D02*
X110017924Y-111810485D01*
X110017924Y-111810485D02*
X110017924Y-111667628D01*
X110017924Y-111667628D02*
X109982210Y-111596200D01*
X109982210Y-111596200D02*
X109946495Y-111560485D01*
X109946495Y-111560485D02*
X109875067Y-111524771D01*
X109875067Y-111524771D02*
X109696495Y-111524771D01*
X109696495Y-111524771D02*
X109625067Y-111560485D01*
X109625067Y-111560485D02*
X109589352Y-111596200D01*
X109589352Y-111596200D02*
X109553638Y-111667628D01*
X109553638Y-111667628D02*
X109553638Y-111810485D01*
X109553638Y-111810485D02*
X109589352Y-111881914D01*
X109589352Y-111881914D02*
X109625067Y-111917628D01*
X109625067Y-111917628D02*
X109696495Y-111953342D01*
X126096026Y-104260980D02*
X126131741Y-104296694D01*
X126131741Y-104296694D02*
X126167455Y-104403837D01*
X126167455Y-104403837D02*
X126167455Y-104475265D01*
X126167455Y-104475265D02*
X126131741Y-104582408D01*
X126131741Y-104582408D02*
X126060312Y-104653837D01*
X126060312Y-104653837D02*
X125988883Y-104689551D01*
X125988883Y-104689551D02*
X125846026Y-104725265D01*
X125846026Y-104725265D02*
X125738883Y-104725265D01*
X125738883Y-104725265D02*
X125596026Y-104689551D01*
X125596026Y-104689551D02*
X125524598Y-104653837D01*
X125524598Y-104653837D02*
X125453169Y-104582408D01*
X125453169Y-104582408D02*
X125417455Y-104475265D01*
X125417455Y-104475265D02*
X125417455Y-104403837D01*
X125417455Y-104403837D02*
X125453169Y-104296694D01*
X125453169Y-104296694D02*
X125488883Y-104260980D01*
X126167455Y-103546694D02*
X126167455Y-103975265D01*
X126167455Y-103760980D02*
X125417455Y-103760980D01*
X125417455Y-103760980D02*
X125524598Y-103832408D01*
X125524598Y-103832408D02*
X125596026Y-103903837D01*
X125596026Y-103903837D02*
X125631741Y-103975265D01*
X126167455Y-102832408D02*
X126167455Y-103260979D01*
X126167455Y-103046694D02*
X125417455Y-103046694D01*
X125417455Y-103046694D02*
X125524598Y-103118122D01*
X125524598Y-103118122D02*
X125596026Y-103189551D01*
X125596026Y-103189551D02*
X125631741Y-103260979D01*
X88224724Y-93348238D02*
X87474724Y-93348238D01*
X87474724Y-93348238D02*
X87474724Y-93169667D01*
X87474724Y-93169667D02*
X87510438Y-93062524D01*
X87510438Y-93062524D02*
X87581867Y-92991095D01*
X87581867Y-92991095D02*
X87653295Y-92955381D01*
X87653295Y-92955381D02*
X87796152Y-92919667D01*
X87796152Y-92919667D02*
X87903295Y-92919667D01*
X87903295Y-92919667D02*
X88046152Y-92955381D01*
X88046152Y-92955381D02*
X88117581Y-92991095D01*
X88117581Y-92991095D02*
X88189010Y-93062524D01*
X88189010Y-93062524D02*
X88224724Y-93169667D01*
X88224724Y-93169667D02*
X88224724Y-93348238D01*
X87546152Y-92633952D02*
X87510438Y-92598238D01*
X87510438Y-92598238D02*
X87474724Y-92526810D01*
X87474724Y-92526810D02*
X87474724Y-92348238D01*
X87474724Y-92348238D02*
X87510438Y-92276810D01*
X87510438Y-92276810D02*
X87546152Y-92241095D01*
X87546152Y-92241095D02*
X87617581Y-92205381D01*
X87617581Y-92205381D02*
X87689010Y-92205381D01*
X87689010Y-92205381D02*
X87796152Y-92241095D01*
X87796152Y-92241095D02*
X88224724Y-92669667D01*
X88224724Y-92669667D02*
X88224724Y-92205381D01*
X118296937Y-89423898D02*
X117939794Y-89673898D01*
X118296937Y-89852469D02*
X117546937Y-89852469D01*
X117546937Y-89852469D02*
X117546937Y-89566755D01*
X117546937Y-89566755D02*
X117582651Y-89495326D01*
X117582651Y-89495326D02*
X117618365Y-89459612D01*
X117618365Y-89459612D02*
X117689794Y-89423898D01*
X117689794Y-89423898D02*
X117796937Y-89423898D01*
X117796937Y-89423898D02*
X117868365Y-89459612D01*
X117868365Y-89459612D02*
X117904080Y-89495326D01*
X117904080Y-89495326D02*
X117939794Y-89566755D01*
X117939794Y-89566755D02*
X117939794Y-89852469D01*
X117618365Y-89138183D02*
X117582651Y-89102469D01*
X117582651Y-89102469D02*
X117546937Y-89031041D01*
X117546937Y-89031041D02*
X117546937Y-88852469D01*
X117546937Y-88852469D02*
X117582651Y-88781041D01*
X117582651Y-88781041D02*
X117618365Y-88745326D01*
X117618365Y-88745326D02*
X117689794Y-88709612D01*
X117689794Y-88709612D02*
X117761223Y-88709612D01*
X117761223Y-88709612D02*
X117868365Y-88745326D01*
X117868365Y-88745326D02*
X118296937Y-89173898D01*
X118296937Y-89173898D02*
X118296937Y-88709612D01*
X117618365Y-88423897D02*
X117582651Y-88388183D01*
X117582651Y-88388183D02*
X117546937Y-88316755D01*
X117546937Y-88316755D02*
X117546937Y-88138183D01*
X117546937Y-88138183D02*
X117582651Y-88066755D01*
X117582651Y-88066755D02*
X117618365Y-88031040D01*
X117618365Y-88031040D02*
X117689794Y-87995326D01*
X117689794Y-87995326D02*
X117761223Y-87995326D01*
X117761223Y-87995326D02*
X117868365Y-88031040D01*
X117868365Y-88031040D02*
X118296937Y-88459612D01*
X118296937Y-88459612D02*
X118296937Y-87995326D01*
X90039569Y-106128038D02*
X90003855Y-106163753D01*
X90003855Y-106163753D02*
X89896712Y-106199467D01*
X89896712Y-106199467D02*
X89825284Y-106199467D01*
X89825284Y-106199467D02*
X89718141Y-106163753D01*
X89718141Y-106163753D02*
X89646712Y-106092324D01*
X89646712Y-106092324D02*
X89610998Y-106020895D01*
X89610998Y-106020895D02*
X89575284Y-105878038D01*
X89575284Y-105878038D02*
X89575284Y-105770895D01*
X89575284Y-105770895D02*
X89610998Y-105628038D01*
X89610998Y-105628038D02*
X89646712Y-105556610D01*
X89646712Y-105556610D02*
X89718141Y-105485181D01*
X89718141Y-105485181D02*
X89825284Y-105449467D01*
X89825284Y-105449467D02*
X89896712Y-105449467D01*
X89896712Y-105449467D02*
X90003855Y-105485181D01*
X90003855Y-105485181D02*
X90039569Y-105520895D01*
X90753855Y-106199467D02*
X90325284Y-106199467D01*
X90539569Y-106199467D02*
X90539569Y-105449467D01*
X90539569Y-105449467D02*
X90468141Y-105556610D01*
X90468141Y-105556610D02*
X90396712Y-105628038D01*
X90396712Y-105628038D02*
X90325284Y-105663753D01*
X91310953Y-88913209D02*
X91275239Y-88948924D01*
X91275239Y-88948924D02*
X91168096Y-88984638D01*
X91168096Y-88984638D02*
X91096668Y-88984638D01*
X91096668Y-88984638D02*
X90989525Y-88948924D01*
X90989525Y-88948924D02*
X90918096Y-88877495D01*
X90918096Y-88877495D02*
X90882382Y-88806066D01*
X90882382Y-88806066D02*
X90846668Y-88663209D01*
X90846668Y-88663209D02*
X90846668Y-88556066D01*
X90846668Y-88556066D02*
X90882382Y-88413209D01*
X90882382Y-88413209D02*
X90918096Y-88341781D01*
X90918096Y-88341781D02*
X90989525Y-88270352D01*
X90989525Y-88270352D02*
X91096668Y-88234638D01*
X91096668Y-88234638D02*
X91168096Y-88234638D01*
X91168096Y-88234638D02*
X91275239Y-88270352D01*
X91275239Y-88270352D02*
X91310953Y-88306066D01*
X91596668Y-88306066D02*
X91632382Y-88270352D01*
X91632382Y-88270352D02*
X91703811Y-88234638D01*
X91703811Y-88234638D02*
X91882382Y-88234638D01*
X91882382Y-88234638D02*
X91953811Y-88270352D01*
X91953811Y-88270352D02*
X91989525Y-88306066D01*
X91989525Y-88306066D02*
X92025239Y-88377495D01*
X92025239Y-88377495D02*
X92025239Y-88448924D01*
X92025239Y-88448924D02*
X91989525Y-88556066D01*
X91989525Y-88556066D02*
X91560953Y-88984638D01*
X91560953Y-88984638D02*
X92025239Y-88984638D01*
X109936428Y-90866324D02*
X109936428Y-90116324D01*
X109936428Y-90116324D02*
X110114999Y-90116324D01*
X110114999Y-90116324D02*
X110222142Y-90152038D01*
X110222142Y-90152038D02*
X110293571Y-90223467D01*
X110293571Y-90223467D02*
X110329285Y-90294895D01*
X110329285Y-90294895D02*
X110364999Y-90437752D01*
X110364999Y-90437752D02*
X110364999Y-90544895D01*
X110364999Y-90544895D02*
X110329285Y-90687752D01*
X110329285Y-90687752D02*
X110293571Y-90759181D01*
X110293571Y-90759181D02*
X110222142Y-90830610D01*
X110222142Y-90830610D02*
X110114999Y-90866324D01*
X110114999Y-90866324D02*
X109936428Y-90866324D01*
X111007857Y-90116324D02*
X110864999Y-90116324D01*
X110864999Y-90116324D02*
X110793571Y-90152038D01*
X110793571Y-90152038D02*
X110757857Y-90187752D01*
X110757857Y-90187752D02*
X110686428Y-90294895D01*
X110686428Y-90294895D02*
X110650714Y-90437752D01*
X110650714Y-90437752D02*
X110650714Y-90723467D01*
X110650714Y-90723467D02*
X110686428Y-90794895D01*
X110686428Y-90794895D02*
X110722142Y-90830610D01*
X110722142Y-90830610D02*
X110793571Y-90866324D01*
X110793571Y-90866324D02*
X110936428Y-90866324D01*
X110936428Y-90866324D02*
X111007857Y-90830610D01*
X111007857Y-90830610D02*
X111043571Y-90794895D01*
X111043571Y-90794895D02*
X111079285Y-90723467D01*
X111079285Y-90723467D02*
X111079285Y-90544895D01*
X111079285Y-90544895D02*
X111043571Y-90473467D01*
X111043571Y-90473467D02*
X111007857Y-90437752D01*
X111007857Y-90437752D02*
X110936428Y-90402038D01*
X110936428Y-90402038D02*
X110793571Y-90402038D01*
X110793571Y-90402038D02*
X110722142Y-90437752D01*
X110722142Y-90437752D02*
X110686428Y-90473467D01*
X110686428Y-90473467D02*
X110650714Y-90544895D01*
X94404840Y-91921973D02*
X94154840Y-91564830D01*
X93976269Y-91921973D02*
X93976269Y-91171973D01*
X93976269Y-91171973D02*
X94261983Y-91171973D01*
X94261983Y-91171973D02*
X94333412Y-91207687D01*
X94333412Y-91207687D02*
X94369126Y-91243401D01*
X94369126Y-91243401D02*
X94404840Y-91314830D01*
X94404840Y-91314830D02*
X94404840Y-91421973D01*
X94404840Y-91421973D02*
X94369126Y-91493401D01*
X94369126Y-91493401D02*
X94333412Y-91529116D01*
X94333412Y-91529116D02*
X94261983Y-91564830D01*
X94261983Y-91564830D02*
X93976269Y-91564830D01*
X95119126Y-91921973D02*
X94690555Y-91921973D01*
X94904840Y-91921973D02*
X94904840Y-91171973D01*
X94904840Y-91171973D02*
X94833412Y-91279116D01*
X94833412Y-91279116D02*
X94761983Y-91350544D01*
X94761983Y-91350544D02*
X94690555Y-91386259D01*
X112584656Y-89375186D02*
X112620371Y-89410900D01*
X112620371Y-89410900D02*
X112656085Y-89518043D01*
X112656085Y-89518043D02*
X112656085Y-89589471D01*
X112656085Y-89589471D02*
X112620371Y-89696614D01*
X112620371Y-89696614D02*
X112548942Y-89768043D01*
X112548942Y-89768043D02*
X112477513Y-89803757D01*
X112477513Y-89803757D02*
X112334656Y-89839471D01*
X112334656Y-89839471D02*
X112227513Y-89839471D01*
X112227513Y-89839471D02*
X112084656Y-89803757D01*
X112084656Y-89803757D02*
X112013228Y-89768043D01*
X112013228Y-89768043D02*
X111941799Y-89696614D01*
X111941799Y-89696614D02*
X111906085Y-89589471D01*
X111906085Y-89589471D02*
X111906085Y-89518043D01*
X111906085Y-89518043D02*
X111941799Y-89410900D01*
X111941799Y-89410900D02*
X111977513Y-89375186D01*
X112656085Y-88660900D02*
X112656085Y-89089471D01*
X112656085Y-88875186D02*
X111906085Y-88875186D01*
X111906085Y-88875186D02*
X112013228Y-88946614D01*
X112013228Y-88946614D02*
X112084656Y-89018043D01*
X112084656Y-89018043D02*
X112120371Y-89089471D01*
X112227513Y-88232328D02*
X112191799Y-88303757D01*
X112191799Y-88303757D02*
X112156085Y-88339471D01*
X112156085Y-88339471D02*
X112084656Y-88375185D01*
X112084656Y-88375185D02*
X112048942Y-88375185D01*
X112048942Y-88375185D02*
X111977513Y-88339471D01*
X111977513Y-88339471D02*
X111941799Y-88303757D01*
X111941799Y-88303757D02*
X111906085Y-88232328D01*
X111906085Y-88232328D02*
X111906085Y-88089471D01*
X111906085Y-88089471D02*
X111941799Y-88018043D01*
X111941799Y-88018043D02*
X111977513Y-87982328D01*
X111977513Y-87982328D02*
X112048942Y-87946614D01*
X112048942Y-87946614D02*
X112084656Y-87946614D01*
X112084656Y-87946614D02*
X112156085Y-87982328D01*
X112156085Y-87982328D02*
X112191799Y-88018043D01*
X112191799Y-88018043D02*
X112227513Y-88089471D01*
X112227513Y-88089471D02*
X112227513Y-88232328D01*
X112227513Y-88232328D02*
X112263228Y-88303757D01*
X112263228Y-88303757D02*
X112298942Y-88339471D01*
X112298942Y-88339471D02*
X112370371Y-88375185D01*
X112370371Y-88375185D02*
X112513228Y-88375185D01*
X112513228Y-88375185D02*
X112584656Y-88339471D01*
X112584656Y-88339471D02*
X112620371Y-88303757D01*
X112620371Y-88303757D02*
X112656085Y-88232328D01*
X112656085Y-88232328D02*
X112656085Y-88089471D01*
X112656085Y-88089471D02*
X112620371Y-88018043D01*
X112620371Y-88018043D02*
X112584656Y-87982328D01*
X112584656Y-87982328D02*
X112513228Y-87946614D01*
X112513228Y-87946614D02*
X112370371Y-87946614D01*
X112370371Y-87946614D02*
X112298942Y-87982328D01*
X112298942Y-87982328D02*
X112263228Y-88018043D01*
X112263228Y-88018043D02*
X112227513Y-88089471D01*
X114529056Y-122921124D02*
X114279056Y-122563981D01*
X114100485Y-122921124D02*
X114100485Y-122171124D01*
X114100485Y-122171124D02*
X114386199Y-122171124D01*
X114386199Y-122171124D02*
X114457628Y-122206838D01*
X114457628Y-122206838D02*
X114493342Y-122242552D01*
X114493342Y-122242552D02*
X114529056Y-122313981D01*
X114529056Y-122313981D02*
X114529056Y-122421124D01*
X114529056Y-122421124D02*
X114493342Y-122492552D01*
X114493342Y-122492552D02*
X114457628Y-122528267D01*
X114457628Y-122528267D02*
X114386199Y-122563981D01*
X114386199Y-122563981D02*
X114100485Y-122563981D01*
X115243342Y-122921124D02*
X114814771Y-122921124D01*
X115029056Y-122921124D02*
X115029056Y-122171124D01*
X115029056Y-122171124D02*
X114957628Y-122278267D01*
X114957628Y-122278267D02*
X114886199Y-122349695D01*
X114886199Y-122349695D02*
X114814771Y-122385410D01*
X115493342Y-122171124D02*
X115993342Y-122171124D01*
X115993342Y-122171124D02*
X115671914Y-122921124D01*
X83477039Y-118067135D02*
X83441325Y-118102850D01*
X83441325Y-118102850D02*
X83334182Y-118138564D01*
X83334182Y-118138564D02*
X83262754Y-118138564D01*
X83262754Y-118138564D02*
X83155611Y-118102850D01*
X83155611Y-118102850D02*
X83084182Y-118031421D01*
X83084182Y-118031421D02*
X83048468Y-117959992D01*
X83048468Y-117959992D02*
X83012754Y-117817135D01*
X83012754Y-117817135D02*
X83012754Y-117709992D01*
X83012754Y-117709992D02*
X83048468Y-117567135D01*
X83048468Y-117567135D02*
X83084182Y-117495707D01*
X83084182Y-117495707D02*
X83155611Y-117424278D01*
X83155611Y-117424278D02*
X83262754Y-117388564D01*
X83262754Y-117388564D02*
X83334182Y-117388564D01*
X83334182Y-117388564D02*
X83441325Y-117424278D01*
X83441325Y-117424278D02*
X83477039Y-117459992D01*
X84191325Y-118138564D02*
X83762754Y-118138564D01*
X83977039Y-118138564D02*
X83977039Y-117388564D01*
X83977039Y-117388564D02*
X83905611Y-117495707D01*
X83905611Y-117495707D02*
X83834182Y-117567135D01*
X83834182Y-117567135D02*
X83762754Y-117602850D01*
X84834183Y-117388564D02*
X84691325Y-117388564D01*
X84691325Y-117388564D02*
X84619897Y-117424278D01*
X84619897Y-117424278D02*
X84584183Y-117459992D01*
X84584183Y-117459992D02*
X84512754Y-117567135D01*
X84512754Y-117567135D02*
X84477040Y-117709992D01*
X84477040Y-117709992D02*
X84477040Y-117995707D01*
X84477040Y-117995707D02*
X84512754Y-118067135D01*
X84512754Y-118067135D02*
X84548468Y-118102850D01*
X84548468Y-118102850D02*
X84619897Y-118138564D01*
X84619897Y-118138564D02*
X84762754Y-118138564D01*
X84762754Y-118138564D02*
X84834183Y-118102850D01*
X84834183Y-118102850D02*
X84869897Y-118067135D01*
X84869897Y-118067135D02*
X84905611Y-117995707D01*
X84905611Y-117995707D02*
X84905611Y-117817135D01*
X84905611Y-117817135D02*
X84869897Y-117745707D01*
X84869897Y-117745707D02*
X84834183Y-117709992D01*
X84834183Y-117709992D02*
X84762754Y-117674278D01*
X84762754Y-117674278D02*
X84619897Y-117674278D01*
X84619897Y-117674278D02*
X84548468Y-117709992D01*
X84548468Y-117709992D02*
X84512754Y-117745707D01*
X84512754Y-117745707D02*
X84477040Y-117817135D01*
X107870779Y-95068832D02*
X107620779Y-94711689D01*
X107442208Y-95068832D02*
X107442208Y-94318832D01*
X107442208Y-94318832D02*
X107727922Y-94318832D01*
X107727922Y-94318832D02*
X107799351Y-94354546D01*
X107799351Y-94354546D02*
X107835065Y-94390260D01*
X107835065Y-94390260D02*
X107870779Y-94461689D01*
X107870779Y-94461689D02*
X107870779Y-94568832D01*
X107870779Y-94568832D02*
X107835065Y-94640260D01*
X107835065Y-94640260D02*
X107799351Y-94675975D01*
X107799351Y-94675975D02*
X107727922Y-94711689D01*
X107727922Y-94711689D02*
X107442208Y-94711689D01*
X108585065Y-95068832D02*
X108156494Y-95068832D01*
X108370779Y-95068832D02*
X108370779Y-94318832D01*
X108370779Y-94318832D02*
X108299351Y-94425975D01*
X108299351Y-94425975D02*
X108227922Y-94497403D01*
X108227922Y-94497403D02*
X108156494Y-94533118D01*
X109049351Y-94318832D02*
X109120780Y-94318832D01*
X109120780Y-94318832D02*
X109192208Y-94354546D01*
X109192208Y-94354546D02*
X109227923Y-94390260D01*
X109227923Y-94390260D02*
X109263637Y-94461689D01*
X109263637Y-94461689D02*
X109299351Y-94604546D01*
X109299351Y-94604546D02*
X109299351Y-94783118D01*
X109299351Y-94783118D02*
X109263637Y-94925975D01*
X109263637Y-94925975D02*
X109227923Y-94997403D01*
X109227923Y-94997403D02*
X109192208Y-95033118D01*
X109192208Y-95033118D02*
X109120780Y-95068832D01*
X109120780Y-95068832D02*
X109049351Y-95068832D01*
X109049351Y-95068832D02*
X108977923Y-95033118D01*
X108977923Y-95033118D02*
X108942208Y-94997403D01*
X108942208Y-94997403D02*
X108906494Y-94925975D01*
X108906494Y-94925975D02*
X108870780Y-94783118D01*
X108870780Y-94783118D02*
X108870780Y-94604546D01*
X108870780Y-94604546D02*
X108906494Y-94461689D01*
X108906494Y-94461689D02*
X108942208Y-94390260D01*
X108942208Y-94390260D02*
X108977923Y-94354546D01*
X108977923Y-94354546D02*
X109049351Y-94318832D01*
X111328656Y-93182495D02*
X111292942Y-93218210D01*
X111292942Y-93218210D02*
X111185799Y-93253924D01*
X111185799Y-93253924D02*
X111114371Y-93253924D01*
X111114371Y-93253924D02*
X111007228Y-93218210D01*
X111007228Y-93218210D02*
X110935799Y-93146781D01*
X110935799Y-93146781D02*
X110900085Y-93075352D01*
X110900085Y-93075352D02*
X110864371Y-92932495D01*
X110864371Y-92932495D02*
X110864371Y-92825352D01*
X110864371Y-92825352D02*
X110900085Y-92682495D01*
X110900085Y-92682495D02*
X110935799Y-92611067D01*
X110935799Y-92611067D02*
X111007228Y-92539638D01*
X111007228Y-92539638D02*
X111114371Y-92503924D01*
X111114371Y-92503924D02*
X111185799Y-92503924D01*
X111185799Y-92503924D02*
X111292942Y-92539638D01*
X111292942Y-92539638D02*
X111328656Y-92575352D01*
X112042942Y-93253924D02*
X111614371Y-93253924D01*
X111828656Y-93253924D02*
X111828656Y-92503924D01*
X111828656Y-92503924D02*
X111757228Y-92611067D01*
X111757228Y-92611067D02*
X111685799Y-92682495D01*
X111685799Y-92682495D02*
X111614371Y-92718210D01*
X112292942Y-92503924D02*
X112757228Y-92503924D01*
X112757228Y-92503924D02*
X112507228Y-92789638D01*
X112507228Y-92789638D02*
X112614371Y-92789638D01*
X112614371Y-92789638D02*
X112685800Y-92825352D01*
X112685800Y-92825352D02*
X112721514Y-92861067D01*
X112721514Y-92861067D02*
X112757228Y-92932495D01*
X112757228Y-92932495D02*
X112757228Y-93111067D01*
X112757228Y-93111067D02*
X112721514Y-93182495D01*
X112721514Y-93182495D02*
X112685800Y-93218210D01*
X112685800Y-93218210D02*
X112614371Y-93253924D01*
X112614371Y-93253924D02*
X112400085Y-93253924D01*
X112400085Y-93253924D02*
X112328657Y-93218210D01*
X112328657Y-93218210D02*
X112292942Y-93182495D01*
X86009628Y-117485524D02*
X86009628Y-116735524D01*
X86009628Y-116735524D02*
X86188199Y-116735524D01*
X86188199Y-116735524D02*
X86295342Y-116771238D01*
X86295342Y-116771238D02*
X86366771Y-116842667D01*
X86366771Y-116842667D02*
X86402485Y-116914095D01*
X86402485Y-116914095D02*
X86438199Y-117056952D01*
X86438199Y-117056952D02*
X86438199Y-117164095D01*
X86438199Y-117164095D02*
X86402485Y-117306952D01*
X86402485Y-117306952D02*
X86366771Y-117378381D01*
X86366771Y-117378381D02*
X86295342Y-117449810D01*
X86295342Y-117449810D02*
X86188199Y-117485524D01*
X86188199Y-117485524D02*
X86009628Y-117485524D01*
X86866771Y-117056952D02*
X86795342Y-117021238D01*
X86795342Y-117021238D02*
X86759628Y-116985524D01*
X86759628Y-116985524D02*
X86723914Y-116914095D01*
X86723914Y-116914095D02*
X86723914Y-116878381D01*
X86723914Y-116878381D02*
X86759628Y-116806952D01*
X86759628Y-116806952D02*
X86795342Y-116771238D01*
X86795342Y-116771238D02*
X86866771Y-116735524D01*
X86866771Y-116735524D02*
X87009628Y-116735524D01*
X87009628Y-116735524D02*
X87081057Y-116771238D01*
X87081057Y-116771238D02*
X87116771Y-116806952D01*
X87116771Y-116806952D02*
X87152485Y-116878381D01*
X87152485Y-116878381D02*
X87152485Y-116914095D01*
X87152485Y-116914095D02*
X87116771Y-116985524D01*
X87116771Y-116985524D02*
X87081057Y-117021238D01*
X87081057Y-117021238D02*
X87009628Y-117056952D01*
X87009628Y-117056952D02*
X86866771Y-117056952D01*
X86866771Y-117056952D02*
X86795342Y-117092667D01*
X86795342Y-117092667D02*
X86759628Y-117128381D01*
X86759628Y-117128381D02*
X86723914Y-117199810D01*
X86723914Y-117199810D02*
X86723914Y-117342667D01*
X86723914Y-117342667D02*
X86759628Y-117414095D01*
X86759628Y-117414095D02*
X86795342Y-117449810D01*
X86795342Y-117449810D02*
X86866771Y-117485524D01*
X86866771Y-117485524D02*
X87009628Y-117485524D01*
X87009628Y-117485524D02*
X87081057Y-117449810D01*
X87081057Y-117449810D02*
X87116771Y-117414095D01*
X87116771Y-117414095D02*
X87152485Y-117342667D01*
X87152485Y-117342667D02*
X87152485Y-117199810D01*
X87152485Y-117199810D02*
X87116771Y-117128381D01*
X87116771Y-117128381D02*
X87081057Y-117092667D01*
X87081057Y-117092667D02*
X87009628Y-117056952D01*
X126019924Y-98627743D02*
X125662781Y-98877743D01*
X126019924Y-99056314D02*
X125269924Y-99056314D01*
X125269924Y-99056314D02*
X125269924Y-98770600D01*
X125269924Y-98770600D02*
X125305638Y-98699171D01*
X125305638Y-98699171D02*
X125341352Y-98663457D01*
X125341352Y-98663457D02*
X125412781Y-98627743D01*
X125412781Y-98627743D02*
X125519924Y-98627743D01*
X125519924Y-98627743D02*
X125591352Y-98663457D01*
X125591352Y-98663457D02*
X125627067Y-98699171D01*
X125627067Y-98699171D02*
X125662781Y-98770600D01*
X125662781Y-98770600D02*
X125662781Y-99056314D01*
X125341352Y-98342028D02*
X125305638Y-98306314D01*
X125305638Y-98306314D02*
X125269924Y-98234886D01*
X125269924Y-98234886D02*
X125269924Y-98056314D01*
X125269924Y-98056314D02*
X125305638Y-97984886D01*
X125305638Y-97984886D02*
X125341352Y-97949171D01*
X125341352Y-97949171D02*
X125412781Y-97913457D01*
X125412781Y-97913457D02*
X125484210Y-97913457D01*
X125484210Y-97913457D02*
X125591352Y-97949171D01*
X125591352Y-97949171D02*
X126019924Y-98377743D01*
X126019924Y-98377743D02*
X126019924Y-97913457D01*
X126019924Y-97199171D02*
X126019924Y-97627742D01*
X126019924Y-97413457D02*
X125269924Y-97413457D01*
X125269924Y-97413457D02*
X125377067Y-97484885D01*
X125377067Y-97484885D02*
X125448495Y-97556314D01*
X125448495Y-97556314D02*
X125484210Y-97627742D01*
X99341399Y-110962495D02*
X99305685Y-110998210D01*
X99305685Y-110998210D02*
X99198542Y-111033924D01*
X99198542Y-111033924D02*
X99127114Y-111033924D01*
X99127114Y-111033924D02*
X99019971Y-110998210D01*
X99019971Y-110998210D02*
X98948542Y-110926781D01*
X98948542Y-110926781D02*
X98912828Y-110855352D01*
X98912828Y-110855352D02*
X98877114Y-110712495D01*
X98877114Y-110712495D02*
X98877114Y-110605352D01*
X98877114Y-110605352D02*
X98912828Y-110462495D01*
X98912828Y-110462495D02*
X98948542Y-110391067D01*
X98948542Y-110391067D02*
X99019971Y-110319638D01*
X99019971Y-110319638D02*
X99127114Y-110283924D01*
X99127114Y-110283924D02*
X99198542Y-110283924D01*
X99198542Y-110283924D02*
X99305685Y-110319638D01*
X99305685Y-110319638D02*
X99341399Y-110355352D01*
X99591399Y-110283924D02*
X100091399Y-110283924D01*
X100091399Y-110283924D02*
X99769971Y-111033924D01*
X109946495Y-118439743D02*
X109982210Y-118475457D01*
X109982210Y-118475457D02*
X110017924Y-118582600D01*
X110017924Y-118582600D02*
X110017924Y-118654028D01*
X110017924Y-118654028D02*
X109982210Y-118761171D01*
X109982210Y-118761171D02*
X109910781Y-118832600D01*
X109910781Y-118832600D02*
X109839352Y-118868314D01*
X109839352Y-118868314D02*
X109696495Y-118904028D01*
X109696495Y-118904028D02*
X109589352Y-118904028D01*
X109589352Y-118904028D02*
X109446495Y-118868314D01*
X109446495Y-118868314D02*
X109375067Y-118832600D01*
X109375067Y-118832600D02*
X109303638Y-118761171D01*
X109303638Y-118761171D02*
X109267924Y-118654028D01*
X109267924Y-118654028D02*
X109267924Y-118582600D01*
X109267924Y-118582600D02*
X109303638Y-118475457D01*
X109303638Y-118475457D02*
X109339352Y-118439743D01*
X110017924Y-117725457D02*
X110017924Y-118154028D01*
X110017924Y-117939743D02*
X109267924Y-117939743D01*
X109267924Y-117939743D02*
X109375067Y-118011171D01*
X109375067Y-118011171D02*
X109446495Y-118082600D01*
X109446495Y-118082600D02*
X109482210Y-118154028D01*
X109267924Y-117261171D02*
X109267924Y-117189742D01*
X109267924Y-117189742D02*
X109303638Y-117118314D01*
X109303638Y-117118314D02*
X109339352Y-117082600D01*
X109339352Y-117082600D02*
X109410781Y-117046885D01*
X109410781Y-117046885D02*
X109553638Y-117011171D01*
X109553638Y-117011171D02*
X109732210Y-117011171D01*
X109732210Y-117011171D02*
X109875067Y-117046885D01*
X109875067Y-117046885D02*
X109946495Y-117082600D01*
X109946495Y-117082600D02*
X109982210Y-117118314D01*
X109982210Y-117118314D02*
X110017924Y-117189742D01*
X110017924Y-117189742D02*
X110017924Y-117261171D01*
X110017924Y-117261171D02*
X109982210Y-117332600D01*
X109982210Y-117332600D02*
X109946495Y-117368314D01*
X109946495Y-117368314D02*
X109875067Y-117404028D01*
X109875067Y-117404028D02*
X109732210Y-117439742D01*
X109732210Y-117439742D02*
X109553638Y-117439742D01*
X109553638Y-117439742D02*
X109410781Y-117404028D01*
X109410781Y-117404028D02*
X109339352Y-117368314D01*
X109339352Y-117368314D02*
X109303638Y-117332600D01*
X109303638Y-117332600D02*
X109267924Y-117261171D01*
X81659556Y-105030379D02*
X81409556Y-104673236D01*
X81230985Y-105030379D02*
X81230985Y-104280379D01*
X81230985Y-104280379D02*
X81516699Y-104280379D01*
X81516699Y-104280379D02*
X81588128Y-104316093D01*
X81588128Y-104316093D02*
X81623842Y-104351807D01*
X81623842Y-104351807D02*
X81659556Y-104423236D01*
X81659556Y-104423236D02*
X81659556Y-104530379D01*
X81659556Y-104530379D02*
X81623842Y-104601807D01*
X81623842Y-104601807D02*
X81588128Y-104637522D01*
X81588128Y-104637522D02*
X81516699Y-104673236D01*
X81516699Y-104673236D02*
X81230985Y-104673236D01*
X81945271Y-104351807D02*
X81980985Y-104316093D01*
X81980985Y-104316093D02*
X82052414Y-104280379D01*
X82052414Y-104280379D02*
X82230985Y-104280379D01*
X82230985Y-104280379D02*
X82302414Y-104316093D01*
X82302414Y-104316093D02*
X82338128Y-104351807D01*
X82338128Y-104351807D02*
X82373842Y-104423236D01*
X82373842Y-104423236D02*
X82373842Y-104494665D01*
X82373842Y-104494665D02*
X82338128Y-104601807D01*
X82338128Y-104601807D02*
X81909556Y-105030379D01*
X81909556Y-105030379D02*
X82373842Y-105030379D01*
X82838128Y-104280379D02*
X82909557Y-104280379D01*
X82909557Y-104280379D02*
X82980985Y-104316093D01*
X82980985Y-104316093D02*
X83016700Y-104351807D01*
X83016700Y-104351807D02*
X83052414Y-104423236D01*
X83052414Y-104423236D02*
X83088128Y-104566093D01*
X83088128Y-104566093D02*
X83088128Y-104744665D01*
X83088128Y-104744665D02*
X83052414Y-104887522D01*
X83052414Y-104887522D02*
X83016700Y-104958950D01*
X83016700Y-104958950D02*
X82980985Y-104994665D01*
X82980985Y-104994665D02*
X82909557Y-105030379D01*
X82909557Y-105030379D02*
X82838128Y-105030379D01*
X82838128Y-105030379D02*
X82766700Y-104994665D01*
X82766700Y-104994665D02*
X82730985Y-104958950D01*
X82730985Y-104958950D02*
X82695271Y-104887522D01*
X82695271Y-104887522D02*
X82659557Y-104744665D01*
X82659557Y-104744665D02*
X82659557Y-104566093D01*
X82659557Y-104566093D02*
X82695271Y-104423236D01*
X82695271Y-104423236D02*
X82730985Y-104351807D01*
X82730985Y-104351807D02*
X82766700Y-104316093D01*
X82766700Y-104316093D02*
X82838128Y-104280379D01*
X102743387Y-108574204D02*
X102707673Y-108609919D01*
X102707673Y-108609919D02*
X102600530Y-108645633D01*
X102600530Y-108645633D02*
X102529102Y-108645633D01*
X102529102Y-108645633D02*
X102421959Y-108609919D01*
X102421959Y-108609919D02*
X102350530Y-108538490D01*
X102350530Y-108538490D02*
X102314816Y-108467061D01*
X102314816Y-108467061D02*
X102279102Y-108324204D01*
X102279102Y-108324204D02*
X102279102Y-108217061D01*
X102279102Y-108217061D02*
X102314816Y-108074204D01*
X102314816Y-108074204D02*
X102350530Y-108002776D01*
X102350530Y-108002776D02*
X102421959Y-107931347D01*
X102421959Y-107931347D02*
X102529102Y-107895633D01*
X102529102Y-107895633D02*
X102600530Y-107895633D01*
X102600530Y-107895633D02*
X102707673Y-107931347D01*
X102707673Y-107931347D02*
X102743387Y-107967061D01*
X103421959Y-107895633D02*
X103064816Y-107895633D01*
X103064816Y-107895633D02*
X103029102Y-108252776D01*
X103029102Y-108252776D02*
X103064816Y-108217061D01*
X103064816Y-108217061D02*
X103136245Y-108181347D01*
X103136245Y-108181347D02*
X103314816Y-108181347D01*
X103314816Y-108181347D02*
X103386245Y-108217061D01*
X103386245Y-108217061D02*
X103421959Y-108252776D01*
X103421959Y-108252776D02*
X103457673Y-108324204D01*
X103457673Y-108324204D02*
X103457673Y-108502776D01*
X103457673Y-108502776D02*
X103421959Y-108574204D01*
X103421959Y-108574204D02*
X103386245Y-108609919D01*
X103386245Y-108609919D02*
X103314816Y-108645633D01*
X103314816Y-108645633D02*
X103136245Y-108645633D01*
X103136245Y-108645633D02*
X103064816Y-108609919D01*
X103064816Y-108609919D02*
X103029102Y-108574204D01*
X84965000Y-91492857D02*
X84607857Y-91492857D01*
X84607857Y-91492857D02*
X84607857Y-90742857D01*
X85607857Y-91492857D02*
X85179286Y-91492857D01*
X85393571Y-91492857D02*
X85393571Y-90742857D01*
X85393571Y-90742857D02*
X85322143Y-90850000D01*
X85322143Y-90850000D02*
X85250714Y-90921428D01*
X85250714Y-90921428D02*
X85179286Y-90957143D01*
X124567161Y-89428102D02*
X124602876Y-89463816D01*
X124602876Y-89463816D02*
X124638590Y-89570959D01*
X124638590Y-89570959D02*
X124638590Y-89642387D01*
X124638590Y-89642387D02*
X124602876Y-89749530D01*
X124602876Y-89749530D02*
X124531447Y-89820959D01*
X124531447Y-89820959D02*
X124460018Y-89856673D01*
X124460018Y-89856673D02*
X124317161Y-89892387D01*
X124317161Y-89892387D02*
X124210018Y-89892387D01*
X124210018Y-89892387D02*
X124067161Y-89856673D01*
X124067161Y-89856673D02*
X123995733Y-89820959D01*
X123995733Y-89820959D02*
X123924304Y-89749530D01*
X123924304Y-89749530D02*
X123888590Y-89642387D01*
X123888590Y-89642387D02*
X123888590Y-89570959D01*
X123888590Y-89570959D02*
X123924304Y-89463816D01*
X123924304Y-89463816D02*
X123960018Y-89428102D01*
X124638590Y-88713816D02*
X124638590Y-89142387D01*
X124638590Y-88928102D02*
X123888590Y-88928102D01*
X123888590Y-88928102D02*
X123995733Y-88999530D01*
X123995733Y-88999530D02*
X124067161Y-89070959D01*
X124067161Y-89070959D02*
X124102876Y-89142387D01*
X123888590Y-88463816D02*
X123888590Y-87963816D01*
X123888590Y-87963816D02*
X124638590Y-88285244D01*
X92352522Y-106708269D02*
X92352522Y-105958269D01*
X92352522Y-105958269D02*
X92531093Y-105958269D01*
X92531093Y-105958269D02*
X92638236Y-105993983D01*
X92638236Y-105993983D02*
X92709665Y-106065412D01*
X92709665Y-106065412D02*
X92745379Y-106136840D01*
X92745379Y-106136840D02*
X92781093Y-106279697D01*
X92781093Y-106279697D02*
X92781093Y-106386840D01*
X92781093Y-106386840D02*
X92745379Y-106529697D01*
X92745379Y-106529697D02*
X92709665Y-106601126D01*
X92709665Y-106601126D02*
X92638236Y-106672555D01*
X92638236Y-106672555D02*
X92531093Y-106708269D01*
X92531093Y-106708269D02*
X92352522Y-106708269D01*
X93066808Y-106029697D02*
X93102522Y-105993983D01*
X93102522Y-105993983D02*
X93173951Y-105958269D01*
X93173951Y-105958269D02*
X93352522Y-105958269D01*
X93352522Y-105958269D02*
X93423951Y-105993983D01*
X93423951Y-105993983D02*
X93459665Y-106029697D01*
X93459665Y-106029697D02*
X93495379Y-106101126D01*
X93495379Y-106101126D02*
X93495379Y-106172555D01*
X93495379Y-106172555D02*
X93459665Y-106279697D01*
X93459665Y-106279697D02*
X93031093Y-106708269D01*
X93031093Y-106708269D02*
X93495379Y-106708269D01*
X93923951Y-106279697D02*
X93852522Y-106243983D01*
X93852522Y-106243983D02*
X93816808Y-106208269D01*
X93816808Y-106208269D02*
X93781094Y-106136840D01*
X93781094Y-106136840D02*
X93781094Y-106101126D01*
X93781094Y-106101126D02*
X93816808Y-106029697D01*
X93816808Y-106029697D02*
X93852522Y-105993983D01*
X93852522Y-105993983D02*
X93923951Y-105958269D01*
X93923951Y-105958269D02*
X94066808Y-105958269D01*
X94066808Y-105958269D02*
X94138237Y-105993983D01*
X94138237Y-105993983D02*
X94173951Y-106029697D01*
X94173951Y-106029697D02*
X94209665Y-106101126D01*
X94209665Y-106101126D02*
X94209665Y-106136840D01*
X94209665Y-106136840D02*
X94173951Y-106208269D01*
X94173951Y-106208269D02*
X94138237Y-106243983D01*
X94138237Y-106243983D02*
X94066808Y-106279697D01*
X94066808Y-106279697D02*
X93923951Y-106279697D01*
X93923951Y-106279697D02*
X93852522Y-106315412D01*
X93852522Y-106315412D02*
X93816808Y-106351126D01*
X93816808Y-106351126D02*
X93781094Y-106422555D01*
X93781094Y-106422555D02*
X93781094Y-106565412D01*
X93781094Y-106565412D02*
X93816808Y-106636840D01*
X93816808Y-106636840D02*
X93852522Y-106672555D01*
X93852522Y-106672555D02*
X93923951Y-106708269D01*
X93923951Y-106708269D02*
X94066808Y-106708269D01*
X94066808Y-106708269D02*
X94138237Y-106672555D01*
X94138237Y-106672555D02*
X94173951Y-106636840D01*
X94173951Y-106636840D02*
X94209665Y-106565412D01*
X94209665Y-106565412D02*
X94209665Y-106422555D01*
X94209665Y-106422555D02*
X94173951Y-106351126D01*
X94173951Y-106351126D02*
X94138237Y-106315412D01*
X94138237Y-106315412D02*
X94066808Y-106279697D01*
X98062440Y-91921973D02*
X97812440Y-91564830D01*
X97633869Y-91921973D02*
X97633869Y-91171973D01*
X97633869Y-91171973D02*
X97919583Y-91171973D01*
X97919583Y-91171973D02*
X97991012Y-91207687D01*
X97991012Y-91207687D02*
X98026726Y-91243401D01*
X98026726Y-91243401D02*
X98062440Y-91314830D01*
X98062440Y-91314830D02*
X98062440Y-91421973D01*
X98062440Y-91421973D02*
X98026726Y-91493401D01*
X98026726Y-91493401D02*
X97991012Y-91529116D01*
X97991012Y-91529116D02*
X97919583Y-91564830D01*
X97919583Y-91564830D02*
X97633869Y-91564830D01*
X98348155Y-91243401D02*
X98383869Y-91207687D01*
X98383869Y-91207687D02*
X98455298Y-91171973D01*
X98455298Y-91171973D02*
X98633869Y-91171973D01*
X98633869Y-91171973D02*
X98705298Y-91207687D01*
X98705298Y-91207687D02*
X98741012Y-91243401D01*
X98741012Y-91243401D02*
X98776726Y-91314830D01*
X98776726Y-91314830D02*
X98776726Y-91386259D01*
X98776726Y-91386259D02*
X98741012Y-91493401D01*
X98741012Y-91493401D02*
X98312440Y-91921973D01*
X98312440Y-91921973D02*
X98776726Y-91921973D01*
X108420469Y-108206201D02*
X108456184Y-108241915D01*
X108456184Y-108241915D02*
X108491898Y-108349058D01*
X108491898Y-108349058D02*
X108491898Y-108420486D01*
X108491898Y-108420486D02*
X108456184Y-108527629D01*
X108456184Y-108527629D02*
X108384755Y-108599058D01*
X108384755Y-108599058D02*
X108313326Y-108634772D01*
X108313326Y-108634772D02*
X108170469Y-108670486D01*
X108170469Y-108670486D02*
X108063326Y-108670486D01*
X108063326Y-108670486D02*
X107920469Y-108634772D01*
X107920469Y-108634772D02*
X107849041Y-108599058D01*
X107849041Y-108599058D02*
X107777612Y-108527629D01*
X107777612Y-108527629D02*
X107741898Y-108420486D01*
X107741898Y-108420486D02*
X107741898Y-108349058D01*
X107741898Y-108349058D02*
X107777612Y-108241915D01*
X107777612Y-108241915D02*
X107813326Y-108206201D01*
X107991898Y-107563344D02*
X108491898Y-107563344D01*
X107706184Y-107741915D02*
X108241898Y-107920486D01*
X108241898Y-107920486D02*
X108241898Y-107456201D01*
X94442428Y-124140324D02*
X94442428Y-123390324D01*
X94442428Y-123390324D02*
X94620999Y-123390324D01*
X94620999Y-123390324D02*
X94728142Y-123426038D01*
X94728142Y-123426038D02*
X94799571Y-123497467D01*
X94799571Y-123497467D02*
X94835285Y-123568895D01*
X94835285Y-123568895D02*
X94870999Y-123711752D01*
X94870999Y-123711752D02*
X94870999Y-123818895D01*
X94870999Y-123818895D02*
X94835285Y-123961752D01*
X94835285Y-123961752D02*
X94799571Y-124033181D01*
X94799571Y-124033181D02*
X94728142Y-124104610D01*
X94728142Y-124104610D02*
X94620999Y-124140324D01*
X94620999Y-124140324D02*
X94442428Y-124140324D01*
X95228142Y-124140324D02*
X95370999Y-124140324D01*
X95370999Y-124140324D02*
X95442428Y-124104610D01*
X95442428Y-124104610D02*
X95478142Y-124068895D01*
X95478142Y-124068895D02*
X95549571Y-123961752D01*
X95549571Y-123961752D02*
X95585285Y-123818895D01*
X95585285Y-123818895D02*
X95585285Y-123533181D01*
X95585285Y-123533181D02*
X95549571Y-123461752D01*
X95549571Y-123461752D02*
X95513857Y-123426038D01*
X95513857Y-123426038D02*
X95442428Y-123390324D01*
X95442428Y-123390324D02*
X95299571Y-123390324D01*
X95299571Y-123390324D02*
X95228142Y-123426038D01*
X95228142Y-123426038D02*
X95192428Y-123461752D01*
X95192428Y-123461752D02*
X95156714Y-123533181D01*
X95156714Y-123533181D02*
X95156714Y-123711752D01*
X95156714Y-123711752D02*
X95192428Y-123783181D01*
X95192428Y-123783181D02*
X95228142Y-123818895D01*
X95228142Y-123818895D02*
X95299571Y-123854610D01*
X95299571Y-123854610D02*
X95442428Y-123854610D01*
X95442428Y-123854610D02*
X95513857Y-123818895D01*
X95513857Y-123818895D02*
X95549571Y-123783181D01*
X95549571Y-123783181D02*
X95585285Y-123711752D01*
X81659556Y-108459379D02*
X81409556Y-108102236D01*
X81230985Y-108459379D02*
X81230985Y-107709379D01*
X81230985Y-107709379D02*
X81516699Y-107709379D01*
X81516699Y-107709379D02*
X81588128Y-107745093D01*
X81588128Y-107745093D02*
X81623842Y-107780807D01*
X81623842Y-107780807D02*
X81659556Y-107852236D01*
X81659556Y-107852236D02*
X81659556Y-107959379D01*
X81659556Y-107959379D02*
X81623842Y-108030807D01*
X81623842Y-108030807D02*
X81588128Y-108066522D01*
X81588128Y-108066522D02*
X81516699Y-108102236D01*
X81516699Y-108102236D02*
X81230985Y-108102236D01*
X82373842Y-108459379D02*
X81945271Y-108459379D01*
X82159556Y-108459379D02*
X82159556Y-107709379D01*
X82159556Y-107709379D02*
X82088128Y-107816522D01*
X82088128Y-107816522D02*
X82016699Y-107887950D01*
X82016699Y-107887950D02*
X81945271Y-107923665D01*
X82730985Y-108459379D02*
X82873842Y-108459379D01*
X82873842Y-108459379D02*
X82945271Y-108423665D01*
X82945271Y-108423665D02*
X82980985Y-108387950D01*
X82980985Y-108387950D02*
X83052414Y-108280807D01*
X83052414Y-108280807D02*
X83088128Y-108137950D01*
X83088128Y-108137950D02*
X83088128Y-107852236D01*
X83088128Y-107852236D02*
X83052414Y-107780807D01*
X83052414Y-107780807D02*
X83016700Y-107745093D01*
X83016700Y-107745093D02*
X82945271Y-107709379D01*
X82945271Y-107709379D02*
X82802414Y-107709379D01*
X82802414Y-107709379D02*
X82730985Y-107745093D01*
X82730985Y-107745093D02*
X82695271Y-107780807D01*
X82695271Y-107780807D02*
X82659557Y-107852236D01*
X82659557Y-107852236D02*
X82659557Y-108030807D01*
X82659557Y-108030807D02*
X82695271Y-108102236D01*
X82695271Y-108102236D02*
X82730985Y-108137950D01*
X82730985Y-108137950D02*
X82802414Y-108173665D01*
X82802414Y-108173665D02*
X82945271Y-108173665D01*
X82945271Y-108173665D02*
X83016700Y-108137950D01*
X83016700Y-108137950D02*
X83052414Y-108102236D01*
X83052414Y-108102236D02*
X83088128Y-108030807D01*
D13*
X99687971Y-103579599D02*
X99402257Y-103779599D01*
X99687971Y-103922456D02*
X99087971Y-103922456D01*
X99087971Y-103922456D02*
X99087971Y-103693885D01*
X99087971Y-103693885D02*
X99116542Y-103636742D01*
X99116542Y-103636742D02*
X99145114Y-103608171D01*
X99145114Y-103608171D02*
X99202257Y-103579599D01*
X99202257Y-103579599D02*
X99287971Y-103579599D01*
X99287971Y-103579599D02*
X99345114Y-103608171D01*
X99345114Y-103608171D02*
X99373685Y-103636742D01*
X99373685Y-103636742D02*
X99402257Y-103693885D01*
X99402257Y-103693885D02*
X99402257Y-103922456D01*
X99087971Y-103036742D02*
X99087971Y-103322456D01*
X99087971Y-103322456D02*
X99373685Y-103351028D01*
X99373685Y-103351028D02*
X99345114Y-103322456D01*
X99345114Y-103322456D02*
X99316542Y-103265314D01*
X99316542Y-103265314D02*
X99316542Y-103122456D01*
X99316542Y-103122456D02*
X99345114Y-103065314D01*
X99345114Y-103065314D02*
X99373685Y-103036742D01*
X99373685Y-103036742D02*
X99430828Y-103008171D01*
X99430828Y-103008171D02*
X99573685Y-103008171D01*
X99573685Y-103008171D02*
X99630828Y-103036742D01*
X99630828Y-103036742D02*
X99659400Y-103065314D01*
X99659400Y-103065314D02*
X99687971Y-103122456D01*
X99687971Y-103122456D02*
X99687971Y-103265314D01*
X99687971Y-103265314D02*
X99659400Y-103322456D01*
X99659400Y-103322456D02*
X99630828Y-103351028D01*
D12*
X88275524Y-99054771D02*
X87525524Y-99054771D01*
X87525524Y-99054771D02*
X87525524Y-98876200D01*
X87525524Y-98876200D02*
X87561238Y-98769057D01*
X87561238Y-98769057D02*
X87632667Y-98697628D01*
X87632667Y-98697628D02*
X87704095Y-98661914D01*
X87704095Y-98661914D02*
X87846952Y-98626200D01*
X87846952Y-98626200D02*
X87954095Y-98626200D01*
X87954095Y-98626200D02*
X88096952Y-98661914D01*
X88096952Y-98661914D02*
X88168381Y-98697628D01*
X88168381Y-98697628D02*
X88239810Y-98769057D01*
X88239810Y-98769057D02*
X88275524Y-98876200D01*
X88275524Y-98876200D02*
X88275524Y-99054771D01*
X87525524Y-98376200D02*
X87525524Y-97911914D01*
X87525524Y-97911914D02*
X87811238Y-98161914D01*
X87811238Y-98161914D02*
X87811238Y-98054771D01*
X87811238Y-98054771D02*
X87846952Y-97983343D01*
X87846952Y-97983343D02*
X87882667Y-97947628D01*
X87882667Y-97947628D02*
X87954095Y-97911914D01*
X87954095Y-97911914D02*
X88132667Y-97911914D01*
X88132667Y-97911914D02*
X88204095Y-97947628D01*
X88204095Y-97947628D02*
X88239810Y-97983343D01*
X88239810Y-97983343D02*
X88275524Y-98054771D01*
X88275524Y-98054771D02*
X88275524Y-98269057D01*
X88275524Y-98269057D02*
X88239810Y-98340485D01*
X88239810Y-98340485D02*
X88204095Y-98376200D01*
X117119856Y-122921124D02*
X116869856Y-122563981D01*
X116691285Y-122921124D02*
X116691285Y-122171124D01*
X116691285Y-122171124D02*
X116976999Y-122171124D01*
X116976999Y-122171124D02*
X117048428Y-122206838D01*
X117048428Y-122206838D02*
X117084142Y-122242552D01*
X117084142Y-122242552D02*
X117119856Y-122313981D01*
X117119856Y-122313981D02*
X117119856Y-122421124D01*
X117119856Y-122421124D02*
X117084142Y-122492552D01*
X117084142Y-122492552D02*
X117048428Y-122528267D01*
X117048428Y-122528267D02*
X116976999Y-122563981D01*
X116976999Y-122563981D02*
X116691285Y-122563981D01*
X117834142Y-122921124D02*
X117405571Y-122921124D01*
X117619856Y-122921124D02*
X117619856Y-122171124D01*
X117619856Y-122171124D02*
X117548428Y-122278267D01*
X117548428Y-122278267D02*
X117476999Y-122349695D01*
X117476999Y-122349695D02*
X117405571Y-122385410D01*
X118262714Y-122492552D02*
X118191285Y-122456838D01*
X118191285Y-122456838D02*
X118155571Y-122421124D01*
X118155571Y-122421124D02*
X118119857Y-122349695D01*
X118119857Y-122349695D02*
X118119857Y-122313981D01*
X118119857Y-122313981D02*
X118155571Y-122242552D01*
X118155571Y-122242552D02*
X118191285Y-122206838D01*
X118191285Y-122206838D02*
X118262714Y-122171124D01*
X118262714Y-122171124D02*
X118405571Y-122171124D01*
X118405571Y-122171124D02*
X118477000Y-122206838D01*
X118477000Y-122206838D02*
X118512714Y-122242552D01*
X118512714Y-122242552D02*
X118548428Y-122313981D01*
X118548428Y-122313981D02*
X118548428Y-122349695D01*
X118548428Y-122349695D02*
X118512714Y-122421124D01*
X118512714Y-122421124D02*
X118477000Y-122456838D01*
X118477000Y-122456838D02*
X118405571Y-122492552D01*
X118405571Y-122492552D02*
X118262714Y-122492552D01*
X118262714Y-122492552D02*
X118191285Y-122528267D01*
X118191285Y-122528267D02*
X118155571Y-122563981D01*
X118155571Y-122563981D02*
X118119857Y-122635410D01*
X118119857Y-122635410D02*
X118119857Y-122778267D01*
X118119857Y-122778267D02*
X118155571Y-122849695D01*
X118155571Y-122849695D02*
X118191285Y-122885410D01*
X118191285Y-122885410D02*
X118262714Y-122921124D01*
X118262714Y-122921124D02*
X118405571Y-122921124D01*
X118405571Y-122921124D02*
X118477000Y-122885410D01*
X118477000Y-122885410D02*
X118512714Y-122849695D01*
X118512714Y-122849695D02*
X118548428Y-122778267D01*
X118548428Y-122778267D02*
X118548428Y-122635410D01*
X118548428Y-122635410D02*
X118512714Y-122563981D01*
X118512714Y-122563981D02*
X118477000Y-122528267D01*
X118477000Y-122528267D02*
X118405571Y-122492552D01*
X84965000Y-103227657D02*
X84607857Y-103227657D01*
X84607857Y-103227657D02*
X84607857Y-102477657D01*
X85179286Y-102549085D02*
X85215000Y-102513371D01*
X85215000Y-102513371D02*
X85286429Y-102477657D01*
X85286429Y-102477657D02*
X85465000Y-102477657D01*
X85465000Y-102477657D02*
X85536429Y-102513371D01*
X85536429Y-102513371D02*
X85572143Y-102549085D01*
X85572143Y-102549085D02*
X85607857Y-102620514D01*
X85607857Y-102620514D02*
X85607857Y-102691943D01*
X85607857Y-102691943D02*
X85572143Y-102799085D01*
X85572143Y-102799085D02*
X85143571Y-103227657D01*
X85143571Y-103227657D02*
X85607857Y-103227657D01*
X79184571Y-114551124D02*
X79184571Y-115158267D01*
X79184571Y-115158267D02*
X79220285Y-115229695D01*
X79220285Y-115229695D02*
X79256000Y-115265410D01*
X79256000Y-115265410D02*
X79327428Y-115301124D01*
X79327428Y-115301124D02*
X79470285Y-115301124D01*
X79470285Y-115301124D02*
X79541714Y-115265410D01*
X79541714Y-115265410D02*
X79577428Y-115229695D01*
X79577428Y-115229695D02*
X79613142Y-115158267D01*
X79613142Y-115158267D02*
X79613142Y-114551124D01*
X80327428Y-114551124D02*
X79970285Y-114551124D01*
X79970285Y-114551124D02*
X79934571Y-114908267D01*
X79934571Y-114908267D02*
X79970285Y-114872552D01*
X79970285Y-114872552D02*
X80041714Y-114836838D01*
X80041714Y-114836838D02*
X80220285Y-114836838D01*
X80220285Y-114836838D02*
X80291714Y-114872552D01*
X80291714Y-114872552D02*
X80327428Y-114908267D01*
X80327428Y-114908267D02*
X80363142Y-114979695D01*
X80363142Y-114979695D02*
X80363142Y-115158267D01*
X80363142Y-115158267D02*
X80327428Y-115229695D01*
X80327428Y-115229695D02*
X80291714Y-115265410D01*
X80291714Y-115265410D02*
X80220285Y-115301124D01*
X80220285Y-115301124D02*
X80041714Y-115301124D01*
X80041714Y-115301124D02*
X79970285Y-115265410D01*
X79970285Y-115265410D02*
X79934571Y-115229695D01*
X108309440Y-104029595D02*
X107952297Y-104279595D01*
X108309440Y-104458166D02*
X107559440Y-104458166D01*
X107559440Y-104458166D02*
X107559440Y-104172452D01*
X107559440Y-104172452D02*
X107595154Y-104101023D01*
X107595154Y-104101023D02*
X107630868Y-104065309D01*
X107630868Y-104065309D02*
X107702297Y-104029595D01*
X107702297Y-104029595D02*
X107809440Y-104029595D01*
X107809440Y-104029595D02*
X107880868Y-104065309D01*
X107880868Y-104065309D02*
X107916583Y-104101023D01*
X107916583Y-104101023D02*
X107952297Y-104172452D01*
X107952297Y-104172452D02*
X107952297Y-104458166D01*
X107630868Y-103743880D02*
X107595154Y-103708166D01*
X107595154Y-103708166D02*
X107559440Y-103636738D01*
X107559440Y-103636738D02*
X107559440Y-103458166D01*
X107559440Y-103458166D02*
X107595154Y-103386738D01*
X107595154Y-103386738D02*
X107630868Y-103351023D01*
X107630868Y-103351023D02*
X107702297Y-103315309D01*
X107702297Y-103315309D02*
X107773726Y-103315309D01*
X107773726Y-103315309D02*
X107880868Y-103351023D01*
X107880868Y-103351023D02*
X108309440Y-103779595D01*
X108309440Y-103779595D02*
X108309440Y-103315309D01*
X107559440Y-103065309D02*
X107559440Y-102601023D01*
X107559440Y-102601023D02*
X107845154Y-102851023D01*
X107845154Y-102851023D02*
X107845154Y-102743880D01*
X107845154Y-102743880D02*
X107880868Y-102672452D01*
X107880868Y-102672452D02*
X107916583Y-102636737D01*
X107916583Y-102636737D02*
X107988011Y-102601023D01*
X107988011Y-102601023D02*
X108166583Y-102601023D01*
X108166583Y-102601023D02*
X108238011Y-102636737D01*
X108238011Y-102636737D02*
X108273726Y-102672452D01*
X108273726Y-102672452D02*
X108309440Y-102743880D01*
X108309440Y-102743880D02*
X108309440Y-102958166D01*
X108309440Y-102958166D02*
X108273726Y-103029594D01*
X108273726Y-103029594D02*
X108238011Y-103065309D01*
X86840414Y-120648817D02*
X86768985Y-120613103D01*
X86768985Y-120613103D02*
X86697557Y-120541675D01*
X86697557Y-120541675D02*
X86590414Y-120434532D01*
X86590414Y-120434532D02*
X86518985Y-120398817D01*
X86518985Y-120398817D02*
X86447557Y-120398817D01*
X86483271Y-120577389D02*
X86411843Y-120541675D01*
X86411843Y-120541675D02*
X86340414Y-120470246D01*
X86340414Y-120470246D02*
X86304700Y-120327389D01*
X86304700Y-120327389D02*
X86304700Y-120077389D01*
X86304700Y-120077389D02*
X86340414Y-119934532D01*
X86340414Y-119934532D02*
X86411843Y-119863103D01*
X86411843Y-119863103D02*
X86483271Y-119827389D01*
X86483271Y-119827389D02*
X86626128Y-119827389D01*
X86626128Y-119827389D02*
X86697557Y-119863103D01*
X86697557Y-119863103D02*
X86768985Y-119934532D01*
X86768985Y-119934532D02*
X86804700Y-120077389D01*
X86804700Y-120077389D02*
X86804700Y-120327389D01*
X86804700Y-120327389D02*
X86768985Y-120470246D01*
X86768985Y-120470246D02*
X86697557Y-120541675D01*
X86697557Y-120541675D02*
X86626128Y-120577389D01*
X86626128Y-120577389D02*
X86483271Y-120577389D01*
X87090414Y-119898817D02*
X87126128Y-119863103D01*
X87126128Y-119863103D02*
X87197557Y-119827389D01*
X87197557Y-119827389D02*
X87376128Y-119827389D01*
X87376128Y-119827389D02*
X87447557Y-119863103D01*
X87447557Y-119863103D02*
X87483271Y-119898817D01*
X87483271Y-119898817D02*
X87518985Y-119970246D01*
X87518985Y-119970246D02*
X87518985Y-120041675D01*
X87518985Y-120041675D02*
X87483271Y-120148817D01*
X87483271Y-120148817D02*
X87054699Y-120577389D01*
X87054699Y-120577389D02*
X87518985Y-120577389D01*
X95123456Y-111592724D02*
X94873456Y-111235581D01*
X94694885Y-111592724D02*
X94694885Y-110842724D01*
X94694885Y-110842724D02*
X94980599Y-110842724D01*
X94980599Y-110842724D02*
X95052028Y-110878438D01*
X95052028Y-110878438D02*
X95087742Y-110914152D01*
X95087742Y-110914152D02*
X95123456Y-110985581D01*
X95123456Y-110985581D02*
X95123456Y-111092724D01*
X95123456Y-111092724D02*
X95087742Y-111164152D01*
X95087742Y-111164152D02*
X95052028Y-111199867D01*
X95052028Y-111199867D02*
X94980599Y-111235581D01*
X94980599Y-111235581D02*
X94694885Y-111235581D01*
X95837742Y-111592724D02*
X95409171Y-111592724D01*
X95623456Y-111592724D02*
X95623456Y-110842724D01*
X95623456Y-110842724D02*
X95552028Y-110949867D01*
X95552028Y-110949867D02*
X95480599Y-111021295D01*
X95480599Y-111021295D02*
X95409171Y-111057010D01*
X96552028Y-111592724D02*
X96123457Y-111592724D01*
X96337742Y-111592724D02*
X96337742Y-110842724D01*
X96337742Y-110842724D02*
X96266314Y-110949867D01*
X96266314Y-110949867D02*
X96194885Y-111021295D01*
X96194885Y-111021295D02*
X96123457Y-111057010D01*
X94594555Y-103450459D02*
X94594555Y-102700459D01*
X94594555Y-102700459D02*
X94773126Y-102700459D01*
X94773126Y-102700459D02*
X94880269Y-102736173D01*
X94880269Y-102736173D02*
X94951698Y-102807602D01*
X94951698Y-102807602D02*
X94987412Y-102879030D01*
X94987412Y-102879030D02*
X95023126Y-103021887D01*
X95023126Y-103021887D02*
X95023126Y-103129030D01*
X95023126Y-103129030D02*
X94987412Y-103271887D01*
X94987412Y-103271887D02*
X94951698Y-103343316D01*
X94951698Y-103343316D02*
X94880269Y-103414745D01*
X94880269Y-103414745D02*
X94773126Y-103450459D01*
X94773126Y-103450459D02*
X94594555Y-103450459D01*
X95701698Y-102700459D02*
X95344555Y-102700459D01*
X95344555Y-102700459D02*
X95308841Y-103057602D01*
X95308841Y-103057602D02*
X95344555Y-103021887D01*
X95344555Y-103021887D02*
X95415984Y-102986173D01*
X95415984Y-102986173D02*
X95594555Y-102986173D01*
X95594555Y-102986173D02*
X95665984Y-103021887D01*
X95665984Y-103021887D02*
X95701698Y-103057602D01*
X95701698Y-103057602D02*
X95737412Y-103129030D01*
X95737412Y-103129030D02*
X95737412Y-103307602D01*
X95737412Y-103307602D02*
X95701698Y-103379030D01*
X95701698Y-103379030D02*
X95665984Y-103414745D01*
X95665984Y-103414745D02*
X95594555Y-103450459D01*
X95594555Y-103450459D02*
X95415984Y-103450459D01*
X95415984Y-103450459D02*
X95344555Y-103414745D01*
X95344555Y-103414745D02*
X95308841Y-103379030D01*
X106961000Y-91974936D02*
X106961000Y-92429064D01*
X108431000Y-91974936D02*
X108431000Y-92429064D01*
X92076600Y-113714264D02*
X92076600Y-113260136D01*
X93546600Y-113714264D02*
X93546600Y-113260136D01*
X121099252Y-110771000D02*
X120576748Y-110771000D01*
X121099252Y-112241000D02*
X120576748Y-112241000D01*
X105691000Y-99179748D02*
X105691000Y-99702252D01*
X107161000Y-99179748D02*
X107161000Y-99702252D01*
X119407000Y-104005748D02*
X119407000Y-104528252D01*
X120877000Y-104005748D02*
X120877000Y-104528252D01*
X88445000Y-100303667D02*
X88445000Y-102303667D01*
X88445000Y-100303667D02*
X92455000Y-100303667D01*
X88445000Y-102303667D02*
X92455000Y-102303667D01*
X123217000Y-114114252D02*
X123217000Y-113591748D01*
X124687000Y-114114252D02*
X124687000Y-113591748D01*
X71470400Y-91516000D02*
X80710400Y-91516000D01*
X71470400Y-93836000D02*
X71470400Y-91516000D01*
X71470400Y-101756000D02*
X71470400Y-94436000D01*
X73590400Y-91516000D02*
X73590400Y-101756000D01*
X80710400Y-91516000D02*
X80710400Y-101756000D01*
X80710400Y-101756000D02*
X71470400Y-101756000D01*
X79790400Y-94136000D02*
G75*
G02*
X77790400Y-94136000I-1000000J0D01*
G01*
X77790400Y-94136000D02*
G75*
G02*
X79790400Y-94136000I1000000J0D01*
G01*
X79790400Y-99136000D02*
G75*
G02*
X77790400Y-99136000I-1000000J0D01*
G01*
X77790400Y-99136000D02*
G75*
G02*
X79790400Y-99136000I1000000J0D01*
G01*
X71470400Y-94136000D02*
X70860400Y-94576000D01*
X70860400Y-93696000D01*
X71470400Y-94136000D01*
G36*
X71470400Y-94136000D02*
G01*
X70860400Y-94576000D01*
X70860400Y-93696000D01*
X71470400Y-94136000D01*
G37*
X85323000Y-113868252D02*
X85323000Y-112445748D01*
X87143000Y-113868252D02*
X87143000Y-112445748D01*
X100183000Y-92964000D02*
X100183000Y-91014000D01*
X100183000Y-92964000D02*
X100183000Y-94914000D01*
X105303000Y-92964000D02*
X105303000Y-91014000D01*
X105303000Y-92964000D02*
X105303000Y-94914000D01*
X105538000Y-90504000D02*
X105208000Y-90264000D01*
X105538000Y-90024000D01*
X105538000Y-90504000D01*
G36*
X105538000Y-90504000D02*
G01*
X105208000Y-90264000D01*
X105538000Y-90024000D01*
X105538000Y-90504000D01*
G37*
X94579000Y-89535000D02*
X94579000Y-88885000D01*
X94579000Y-89535000D02*
X94579000Y-90185000D01*
X97699000Y-89535000D02*
X97699000Y-88885000D01*
X97699000Y-89535000D02*
X97699000Y-90185000D01*
X97979000Y-88612500D02*
X97649000Y-88372500D01*
X97979000Y-88132500D01*
X97979000Y-88612500D01*
G36*
X97979000Y-88612500D02*
G01*
X97649000Y-88372500D01*
X97979000Y-88132500D01*
X97979000Y-88612500D01*
G37*
X103024000Y-103277936D02*
X103024000Y-103732064D01*
X104494000Y-103277936D02*
X104494000Y-103732064D01*
X72111000Y-119938189D02*
X72111000Y-117988189D01*
X72111000Y-119938189D02*
X72111000Y-121888189D01*
X82231000Y-119938189D02*
X82231000Y-117988189D01*
X82231000Y-119938189D02*
X82231000Y-121888189D01*
X82506000Y-117478189D02*
X82176000Y-117238189D01*
X82506000Y-116998189D01*
X82506000Y-117478189D01*
G36*
X82506000Y-117478189D02*
G01*
X82176000Y-117238189D01*
X82506000Y-116998189D01*
X82506000Y-117478189D01*
G37*
X97309000Y-99213936D02*
X97309000Y-99668064D01*
X98779000Y-99213936D02*
X98779000Y-99668064D01*
X111659936Y-119407000D02*
X112114064Y-119407000D01*
X111659936Y-120877000D02*
X112114064Y-120877000D01*
X122709000Y-118644936D02*
X122709000Y-119099064D01*
X124179000Y-118644936D02*
X124179000Y-119099064D01*
X118410000Y-106808000D02*
X118410000Y-110108000D01*
X118410000Y-106808000D02*
X123920000Y-106808000D01*
X118410000Y-110108000D02*
X123920000Y-110108000D01*
X98982264Y-106046600D02*
X98528136Y-106046600D01*
X98982264Y-107516600D02*
X98528136Y-107516600D01*
X123144400Y-92193400D02*
X123144400Y-94878400D01*
X125064400Y-92193400D02*
X123144400Y-92193400D01*
X125064400Y-94878400D02*
X125064400Y-92193400D01*
X88800400Y-111876400D02*
X90320400Y-111876400D01*
X88800400Y-112876400D02*
X88800400Y-111876400D01*
X88800400Y-114996400D02*
X88800400Y-113996400D01*
X90320400Y-111876400D02*
X90320400Y-111926400D01*
X90320400Y-113046400D02*
X90320400Y-113826400D01*
X90320400Y-114946400D02*
X90320400Y-114996400D01*
X90320400Y-114996400D02*
X88800400Y-114996400D01*
X90860400Y-113816400D02*
X90620400Y-113486400D01*
X91100400Y-113486400D01*
X90860400Y-113816400D01*
G36*
X90860400Y-113816400D02*
G01*
X90620400Y-113486400D01*
X91100400Y-113486400D01*
X90860400Y-113816400D01*
G37*
X101719748Y-86830000D02*
X102242252Y-86830000D01*
X101719748Y-88300000D02*
X102242252Y-88300000D01*
X93165000Y-94631000D02*
X89155000Y-94631000D01*
X93165000Y-96631000D02*
X89155000Y-96631000D01*
X93165000Y-96631000D02*
X93165000Y-94631000D01*
X110890000Y-103805000D02*
X112290000Y-103805000D01*
X110890000Y-110825000D02*
X110890000Y-103805000D01*
X112290000Y-110825000D02*
X110890000Y-110825000D01*
X116310000Y-103805000D02*
X117710000Y-103805000D01*
X117710000Y-103805000D02*
X117710000Y-110825000D01*
X117710000Y-110825000D02*
X116310000Y-110825000D01*
X112114064Y-114581000D02*
X111659936Y-114581000D01*
X112114064Y-116051000D02*
X111659936Y-116051000D01*
X90033600Y-123416400D02*
X90033600Y-119406400D01*
X90033600Y-123416400D02*
X92033600Y-123416400D01*
X92033600Y-123416400D02*
X92033600Y-119406400D01*
X100230000Y-99213936D02*
X100230000Y-99668064D01*
X101700000Y-99213936D02*
X101700000Y-99668064D01*
X100230000Y-103277936D02*
X100230000Y-103732064D01*
X101700000Y-103277936D02*
X101700000Y-103732064D01*
X103024000Y-99668064D02*
X103024000Y-99213936D01*
X104494000Y-99668064D02*
X104494000Y-99213936D01*
X117983000Y-113010000D02*
X116033000Y-113010000D01*
X117983000Y-113010000D02*
X119933000Y-113010000D01*
X117983000Y-118130000D02*
X116033000Y-118130000D01*
X117983000Y-118130000D02*
X119933000Y-118130000D01*
X115283000Y-113105000D02*
X115043000Y-112775000D01*
X115523000Y-112775000D01*
X115283000Y-113105000D01*
G36*
X115283000Y-113105000D02*
G01*
X115043000Y-112775000D01*
X115523000Y-112775000D01*
X115283000Y-113105000D01*
G37*
X125836000Y-113995252D02*
X125836000Y-112572748D01*
X127656000Y-113995252D02*
X127656000Y-112572748D01*
X111659936Y-112295000D02*
X112114064Y-112295000D01*
X111659936Y-113765000D02*
X112114064Y-113765000D01*
X123169000Y-103047748D02*
X123169000Y-104470252D01*
X124989000Y-103047748D02*
X124989000Y-104470252D01*
X88445000Y-91794667D02*
X88445000Y-93794667D01*
X88445000Y-91794667D02*
X92455000Y-91794667D01*
X88445000Y-93794667D02*
X92455000Y-93794667D01*
X115698600Y-88723736D02*
X115698600Y-89177864D01*
X117168600Y-88723736D02*
X117168600Y-89177864D01*
X90431252Y-103532000D02*
X89908748Y-103532000D01*
X90431252Y-105002000D02*
X89908748Y-105002000D01*
X91178748Y-89435000D02*
X91701252Y-89435000D01*
X91178748Y-90905000D02*
X91701252Y-90905000D01*
X111376800Y-87798400D02*
X107366800Y-87798400D01*
X111376800Y-89798400D02*
X107366800Y-89798400D01*
X111376800Y-89798400D02*
X111376800Y-87798400D01*
X94213000Y-95088064D02*
X94213000Y-93633936D01*
X96033000Y-95088064D02*
X96033000Y-93633936D01*
X113107800Y-89161252D02*
X113107800Y-88638748D01*
X114577800Y-89161252D02*
X114577800Y-88638748D01*
X114454000Y-120041936D02*
X114454000Y-120496064D01*
X115924000Y-120041936D02*
X115924000Y-120496064D01*
X83237400Y-120352452D02*
X83237400Y-119829948D01*
X84707400Y-120352452D02*
X84707400Y-119829948D01*
X108103936Y-95404000D02*
X108558064Y-95404000D01*
X108103936Y-96874000D02*
X108558064Y-96874000D01*
X111336800Y-93709200D02*
X113036800Y-93709200D01*
X111336800Y-98164763D02*
X111336800Y-93709200D01*
X112099300Y-99781700D02*
X112724300Y-99781700D01*
X112401237Y-99229200D02*
X111336800Y-98164763D01*
X112401237Y-99229200D02*
X113036800Y-99229200D01*
X112411800Y-100094200D02*
X112411800Y-99469200D01*
X115792363Y-99229200D02*
X115156800Y-99229200D01*
X115792363Y-99229200D02*
X116856800Y-98164763D01*
X116856800Y-93709200D02*
X115156800Y-93709200D01*
X116856800Y-98164763D02*
X116856800Y-93709200D01*
X92123600Y-116094000D02*
X88113600Y-116094000D01*
X92123600Y-118094000D02*
X88113600Y-118094000D01*
X92123600Y-118094000D02*
X92123600Y-116094000D01*
X123420200Y-98372664D02*
X123420200Y-97918536D01*
X124890200Y-98372664D02*
X124890200Y-97918536D01*
X97459200Y-111581600D02*
X101309200Y-111581600D01*
X97459200Y-121237163D02*
X97459200Y-111581600D01*
X98523637Y-122301600D02*
X97459200Y-121237163D01*
X98523637Y-122301600D02*
X101309200Y-122301600D01*
X99434200Y-123166600D02*
X100684200Y-123166600D01*
X100059200Y-123791600D02*
X100059200Y-122541600D01*
X107114763Y-122301600D02*
X104329200Y-122301600D01*
X107114763Y-122301600D02*
X108179200Y-121237163D01*
X108179200Y-111581600D02*
X104329200Y-111581600D01*
X108179200Y-121237163D02*
X108179200Y-111581600D01*
X111625748Y-116867000D02*
X112148252Y-116867000D01*
X111625748Y-118337000D02*
X112148252Y-118337000D01*
X81918436Y-105437000D02*
X82372564Y-105437000D01*
X81918436Y-106907000D02*
X82372564Y-106907000D01*
X102608748Y-106046600D02*
X103131252Y-106046600D01*
X102608748Y-107516600D02*
X103131252Y-107516600D01*
X84180000Y-94917042D02*
X84180000Y-93246558D01*
X86000000Y-94917042D02*
X86000000Y-93246558D01*
X121645000Y-88237748D02*
X121645000Y-89660252D01*
X123465000Y-88237748D02*
X123465000Y-89660252D01*
X88692000Y-107062000D02*
X88692000Y-110362000D01*
X88692000Y-107062000D02*
X94202000Y-107062000D01*
X88692000Y-110362000D02*
X94202000Y-110362000D01*
X97261000Y-95088064D02*
X97261000Y-93633936D01*
X99081000Y-95088064D02*
X99081000Y-93633936D01*
X105516000Y-107391148D02*
X105516000Y-108813652D01*
X107336000Y-107391148D02*
X107336000Y-108813652D01*
X93346000Y-116124000D02*
X93346000Y-121634000D01*
X96646000Y-116124000D02*
X93346000Y-116124000D01*
X96646000Y-116124000D02*
X96646000Y-121634000D01*
X81918436Y-108866000D02*
X82372564Y-108866000D01*
X81918436Y-110336000D02*
X82372564Y-110336000D01*
X97309000Y-103706664D02*
X97309000Y-103252536D01*
X98779000Y-103706664D02*
X98779000Y-103252536D01*
X93165000Y-97467334D02*
X89155000Y-97467334D01*
X93165000Y-99467334D02*
X89155000Y-99467334D01*
X93165000Y-99467334D02*
X93165000Y-97467334D01*
X116740000Y-120041936D02*
X116740000Y-120496064D01*
X118210000Y-120041936D02*
X118210000Y-120496064D01*
X84180000Y-100708042D02*
X84180000Y-99037558D01*
X86000000Y-100708042D02*
X86000000Y-99037558D01*
X80736000Y-113538000D02*
X80736000Y-112738000D01*
X80736000Y-113538000D02*
X80736000Y-114338000D01*
X83856000Y-113538000D02*
X83856000Y-112738000D01*
X83856000Y-113538000D02*
X83856000Y-114338000D01*
X84136000Y-112478000D02*
X83806000Y-112238000D01*
X84136000Y-111998000D01*
X84136000Y-112478000D01*
G36*
X84136000Y-112478000D02*
G01*
X83806000Y-112238000D01*
X84136000Y-111998000D01*
X84136000Y-112478000D01*
G37*
X105691000Y-103303336D02*
X105691000Y-103757464D01*
X107161000Y-103303336D02*
X107161000Y-103757464D01*
X87629000Y-121029000D02*
X86229000Y-121029000D01*
X87639000Y-123349000D02*
X86229000Y-123349000D01*
X88249000Y-123629000D02*
X87769000Y-123629000D01*
X88009000Y-123299000D01*
X88249000Y-123629000D01*
G36*
X88249000Y-123629000D02*
G01*
X87769000Y-123629000D01*
X88009000Y-123299000D01*
X88249000Y-123629000D01*
G37*
X94870600Y-113714264D02*
X94870600Y-113260136D01*
X96340600Y-113714264D02*
X96340600Y-113260136D01*
X94123000Y-97716000D02*
X94123000Y-101726000D01*
X96123000Y-97716000D02*
X94123000Y-97716000D01*
X96123000Y-97716000D02*
X96123000Y-101726000D01*
M02*
