M48
; DRILL file {KiCad 9.0.5} date 2025-10-24T16:35:53+0200
; FORMAT={-:-/ absolute / metric / decimal}
; #@! TF.CreationDate,2025-10-24T16:35:53+02:00
; #@! TF.GenerationSoftware,Kicad,Pcbnew,9.0.5
; #@! TF.FileFunction,Plated,1,4,PTH
FMAT,2
METRIC
; #@! TA.AperFunction,Plated,PTH,ComponentDrill
T1C0.200
; #@! TA.AperFunction,Plated,PTH,ViaDrill
T2C0.300
; #@! TA.AperFunction,Plated,PTH,ComponentDrill
T3C0.600
; #@! TA.AperFunction,Plated,PTH,ComponentDrill
T4C1.300
%
G90
G05
T1
X116.109Y-93.826
X116.109Y-95.352
X116.871Y-93.064
X116.871Y-94.589
X116.871Y-96.114
X117.634Y-93.826
X117.634Y-95.352
X118.396Y-93.064
X118.396Y-94.589
X118.396Y-96.114
X119.159Y-93.826
X119.159Y-95.352
T2
X79.375Y-105.029
X79.502Y-112.522
X79.604Y-118.72
X79.947Y-108.913
X80.137Y-109.855
X80.33Y-118.735
X81.153Y-111.142
X82.042Y-111.506
X82.677Y-118.999
X82.753Y-122.022
X83.058Y-107.188
X83.058Y-110.49
X83.185Y-111.506
X84.963Y-111.633
X86.36Y-123.19
X87.503Y-121.285
X92.456Y-93.726
X92.456Y-102.235
X93.218Y-90.17
X95.123Y-89.535
X95.123Y-102.489
X98.044Y-89.052
X100.203Y-87.503
X100.838Y-91.821
X101.953Y-114.502
X102.159Y-97.079
X102.667Y-102.593
X102.815Y-114.502
X103.505Y-92.185
X103.683Y-114.503
X104.648Y-89.052
X104.775Y-104.394
X105.123Y-97.188
X105.283Y-100.457
X106.553Y-93.091
X107.315Y-87.249
X107.544Y-104.8
X110.109Y-96.139
X111.557Y-88.849
X111.76Y-113.03
X113.589Y-93.04
X113.843Y-87.122
X114.605Y-93.04
X116.434Y-87.071
X116.939Y-101.139
X117.221Y-113.665
X117.221Y-114.554
X117.221Y-115.443
X117.221Y-116.332
X117.221Y-117.221
X117.45Y-122.022
X117.955Y-101.139
X117.983Y-113.665
X117.983Y-114.554
X117.983Y-115.443
X117.983Y-116.332
X117.983Y-117.221
X118.745Y-113.665
X118.745Y-114.554
X118.745Y-115.443
X118.745Y-116.332
X118.745Y-117.221
X118.974Y-101.143
X118.999Y-118.745
X118.999Y-119.761
X118.999Y-120.777
X119.761Y-118.745
X119.761Y-119.761
X119.761Y-120.777
X119.99Y-101.143
X120.523Y-118.745
X120.523Y-119.761
X120.523Y-120.777
X121.006Y-101.143
X121.285Y-118.745
X121.285Y-119.761
X121.285Y-120.777
X122.022Y-101.143
X122.276Y-112.979
X122.784Y-99.009
X122.936Y-92.025
X123.038Y-101.143
X123.317Y-106.553
X123.444Y-110.846
X123.444Y-111.608
X124.054Y-101.143
X124.079Y-87.249
X124.079Y-106.553
X124.104Y-91.897
X124.308Y-110.846
X124.308Y-111.608
X124.333Y-88.519
X124.841Y-106.553
X125.12Y-110.846
X125.12Y-111.608
X125.603Y-106.553
X126.746Y-87.249
X126.746Y-88.519
T4
X75.59Y-94.136
X75.59Y-99.136
T3
G00X73.526Y-104.392
M15
G01X74.126Y-104.392
M16
G05
G00X74.126Y-104.392
M15
G01X73.526Y-104.392
M16
G05
G00X73.526Y-113.032
M15
G01X74.126Y-113.032
M16
G05
G00X74.126Y-113.032
M15
G01X73.526Y-113.032
M16
G05
G00X77.456Y-104.392
M15
G01X78.556Y-104.392
M16
G05
G00X78.556Y-104.392
M15
G01X77.456Y-104.392
M16
G05
G00X78.556Y-113.032
M15
G01X77.456Y-113.032
M16
G05
G00X77.456Y-113.032
M15
G01X78.556Y-113.032
M16
G05
M30
