%TF.GenerationSoftware,KiCad,Pcbnew,9.0.5*%
%TF.CreationDate,2025-10-24T16:35:53+02:00*%
%TF.ProjectId,Mini-EMS-ESP,4d696e69-2d45-44d5-932d-4553502e6b69,rev?*%
%TF.SameCoordinates,Original*%
%TF.FileFunction,Drillmap*%
%TF.FilePolarity,Positive*%
%FSLAX45Y45*%
G04 Gerber Fmt 4.5, Leading zero omitted, Abs format (unit mm)*
G04 Created by KiCad (PCBNEW 9.0.5) date 2025-10-24 16:35:53*
%MOMM*%
%LPD*%
G01*
G04 APERTURE LIST*
%ADD10C,0.050000*%
%ADD11C,0.200000*%
%ADD12C,0.100000*%
%ADD13C,0.130000*%
G04 APERTURE END LIST*
D10*
X7099538Y-8781730D02*
G75*
G02*
X7264617Y-8614007I165082J2620D01*
G01*
X7265433Y-8614009D02*
X12713569Y-8614030D01*
X7099521Y-12319629D02*
X7099538Y-8781730D01*
X7267238Y-12484708D02*
G75*
G02*
X7099521Y-12319629I-2618J165078D01*
G01*
X12716188Y-12485127D02*
X7267238Y-12484708D01*
X12713568Y-8614030D02*
G75*
G02*
X12881291Y-8779109I2622J-165080D01*
G01*
X12881288Y-8779981D02*
X12881267Y-12317406D01*
X12881267Y-12317406D02*
G75*
G02*
X12716188Y-12485128I-165078J-2624D01*
G01*
D11*
D12*
X11600900Y-9372650D02*
X11620900Y-9392650D01*
X11620900Y-9372650D02*
X11600900Y-9392650D01*
X11600900Y-9525150D02*
X11620900Y-9545150D01*
X11620900Y-9525150D02*
X11600900Y-9545150D01*
X11677150Y-9296400D02*
X11697150Y-9316400D01*
X11697150Y-9296400D02*
X11677150Y-9316400D01*
X11677150Y-9448900D02*
X11697150Y-9468900D01*
X11697150Y-9448900D02*
X11677150Y-9468900D01*
X11677150Y-9601400D02*
X11697150Y-9621400D01*
X11697150Y-9601400D02*
X11677150Y-9621400D01*
X11753400Y-9372650D02*
X11773400Y-9392650D01*
X11773400Y-9372650D02*
X11753400Y-9392650D01*
X11753400Y-9525150D02*
X11773400Y-9545150D01*
X11773400Y-9525150D02*
X11753400Y-9545150D01*
X11829650Y-9296400D02*
X11849650Y-9316400D01*
X11849650Y-9296400D02*
X11829650Y-9316400D01*
X11829650Y-9448900D02*
X11849650Y-9468900D01*
X11849650Y-9448900D02*
X11829650Y-9468900D01*
X11829650Y-9601400D02*
X11849650Y-9621400D01*
X11849650Y-9601400D02*
X11829650Y-9621400D01*
X11905900Y-9372650D02*
X11925900Y-9392650D01*
X11925900Y-9372650D02*
X11905900Y-9392650D01*
X11905900Y-9525150D02*
X11925900Y-9545150D01*
X11925900Y-9525150D02*
X11905900Y-9545150D01*
X7952500Y-10502900D02*
G75*
G02*
X7922500Y-10502900I-15000J0D01*
G01*
X7922500Y-10502900D02*
G75*
G02*
X7952500Y-10502900I15000J0D01*
G01*
X7965200Y-11252200D02*
G75*
G02*
X7935200Y-11252200I-15000J0D01*
G01*
X7935200Y-11252200D02*
G75*
G02*
X7965200Y-11252200I15000J0D01*
G01*
X7975360Y-11871960D02*
G75*
G02*
X7945360Y-11871960I-15000J0D01*
G01*
X7945360Y-11871960D02*
G75*
G02*
X7975360Y-11871960I15000J0D01*
G01*
X8009700Y-10891300D02*
G75*
G02*
X7979700Y-10891300I-15000J0D01*
G01*
X7979700Y-10891300D02*
G75*
G02*
X8009700Y-10891300I15000J0D01*
G01*
X8028700Y-10985500D02*
G75*
G02*
X7998700Y-10985500I-15000J0D01*
G01*
X7998700Y-10985500D02*
G75*
G02*
X8028700Y-10985500I15000J0D01*
G01*
X8048043Y-11873523D02*
G75*
G02*
X8018043Y-11873523I-15000J0D01*
G01*
X8018043Y-11873523D02*
G75*
G02*
X8048043Y-11873523I15000J0D01*
G01*
X8130300Y-11114200D02*
G75*
G02*
X8100300Y-11114200I-15000J0D01*
G01*
X8100300Y-11114200D02*
G75*
G02*
X8130300Y-11114200I15000J0D01*
G01*
X8219200Y-11150600D02*
G75*
G02*
X8189200Y-11150600I-15000J0D01*
G01*
X8189200Y-11150600D02*
G75*
G02*
X8219200Y-11150600I15000J0D01*
G01*
X8282700Y-11899900D02*
G75*
G02*
X8252700Y-11899900I-15000J0D01*
G01*
X8252700Y-11899900D02*
G75*
G02*
X8282700Y-11899900I15000J0D01*
G01*
X8290320Y-12202160D02*
G75*
G02*
X8260320Y-12202160I-15000J0D01*
G01*
X8260320Y-12202160D02*
G75*
G02*
X8290320Y-12202160I15000J0D01*
G01*
X8320800Y-10718800D02*
G75*
G02*
X8290800Y-10718800I-15000J0D01*
G01*
X8290800Y-10718800D02*
G75*
G02*
X8320800Y-10718800I15000J0D01*
G01*
X8320800Y-11049000D02*
G75*
G02*
X8290800Y-11049000I-15000J0D01*
G01*
X8290800Y-11049000D02*
G75*
G02*
X8320800Y-11049000I15000J0D01*
G01*
X8333500Y-11150600D02*
G75*
G02*
X8303500Y-11150600I-15000J0D01*
G01*
X8303500Y-11150600D02*
G75*
G02*
X8333500Y-11150600I15000J0D01*
G01*
X8511300Y-11163300D02*
G75*
G02*
X8481300Y-11163300I-15000J0D01*
G01*
X8481300Y-11163300D02*
G75*
G02*
X8511300Y-11163300I15000J0D01*
G01*
X8651000Y-12319000D02*
G75*
G02*
X8621000Y-12319000I-15000J0D01*
G01*
X8621000Y-12319000D02*
G75*
G02*
X8651000Y-12319000I15000J0D01*
G01*
X8765300Y-12128500D02*
G75*
G02*
X8735300Y-12128500I-15000J0D01*
G01*
X8735300Y-12128500D02*
G75*
G02*
X8765300Y-12128500I15000J0D01*
G01*
X9260600Y-9372600D02*
G75*
G02*
X9230600Y-9372600I-15000J0D01*
G01*
X9230600Y-9372600D02*
G75*
G02*
X9260600Y-9372600I15000J0D01*
G01*
X9260600Y-10223500D02*
G75*
G02*
X9230600Y-10223500I-15000J0D01*
G01*
X9230600Y-10223500D02*
G75*
G02*
X9260600Y-10223500I15000J0D01*
G01*
X9336800Y-9017000D02*
G75*
G02*
X9306800Y-9017000I-15000J0D01*
G01*
X9306800Y-9017000D02*
G75*
G02*
X9336800Y-9017000I15000J0D01*
G01*
X9527300Y-8953500D02*
G75*
G02*
X9497300Y-8953500I-15000J0D01*
G01*
X9497300Y-8953500D02*
G75*
G02*
X9527300Y-8953500I15000J0D01*
G01*
X9527300Y-10248900D02*
G75*
G02*
X9497300Y-10248900I-15000J0D01*
G01*
X9497300Y-10248900D02*
G75*
G02*
X9527300Y-10248900I15000J0D01*
G01*
X9819400Y-8905240D02*
G75*
G02*
X9789400Y-8905240I-15000J0D01*
G01*
X9789400Y-8905240D02*
G75*
G02*
X9819400Y-8905240I15000J0D01*
G01*
X10035300Y-8750300D02*
G75*
G02*
X10005300Y-8750300I-15000J0D01*
G01*
X10005300Y-8750300D02*
G75*
G02*
X10035300Y-8750300I15000J0D01*
G01*
X10098800Y-9182100D02*
G75*
G02*
X10068800Y-9182100I-15000J0D01*
G01*
X10068800Y-9182100D02*
G75*
G02*
X10098800Y-9182100I15000J0D01*
G01*
X10210344Y-11450173D02*
G75*
G02*
X10180344Y-11450173I-15000J0D01*
G01*
X10180344Y-11450173D02*
G75*
G02*
X10210344Y-11450173I15000J0D01*
G01*
X10230880Y-9707880D02*
G75*
G02*
X10200880Y-9707880I-15000J0D01*
G01*
X10200880Y-9707880D02*
G75*
G02*
X10230880Y-9707880I15000J0D01*
G01*
X10281680Y-10259250D02*
G75*
G02*
X10251680Y-10259250I-15000J0D01*
G01*
X10251680Y-10259250D02*
G75*
G02*
X10281680Y-10259250I15000J0D01*
G01*
X10296511Y-11450173D02*
G75*
G02*
X10266511Y-11450173I-15000J0D01*
G01*
X10266511Y-11450173D02*
G75*
G02*
X10296511Y-11450173I15000J0D01*
G01*
X10365500Y-9218500D02*
G75*
G02*
X10335500Y-9218500I-15000J0D01*
G01*
X10335500Y-9218500D02*
G75*
G02*
X10365500Y-9218500I15000J0D01*
G01*
X10383280Y-11450320D02*
G75*
G02*
X10353280Y-11450320I-15000J0D01*
G01*
X10353280Y-11450320D02*
G75*
G02*
X10383280Y-11450320I15000J0D01*
G01*
X10479800Y-8905240D02*
G75*
G02*
X10449800Y-8905240I-15000J0D01*
G01*
X10449800Y-8905240D02*
G75*
G02*
X10479800Y-8905240I15000J0D01*
G01*
X10492500Y-10439400D02*
G75*
G02*
X10462500Y-10439400I-15000J0D01*
G01*
X10462500Y-10439400D02*
G75*
G02*
X10492500Y-10439400I15000J0D01*
G01*
X10527300Y-9718800D02*
G75*
G02*
X10497300Y-9718800I-15000J0D01*
G01*
X10497300Y-9718800D02*
G75*
G02*
X10527300Y-9718800I15000J0D01*
G01*
X10543300Y-10045700D02*
G75*
G02*
X10513300Y-10045700I-15000J0D01*
G01*
X10513300Y-10045700D02*
G75*
G02*
X10543300Y-10045700I15000J0D01*
G01*
X10670300Y-9309100D02*
G75*
G02*
X10640300Y-9309100I-15000J0D01*
G01*
X10640300Y-9309100D02*
G75*
G02*
X10670300Y-9309100I15000J0D01*
G01*
X10746500Y-8724900D02*
G75*
G02*
X10716500Y-8724900I-15000J0D01*
G01*
X10716500Y-8724900D02*
G75*
G02*
X10746500Y-8724900I15000J0D01*
G01*
X10769360Y-10480040D02*
G75*
G02*
X10739360Y-10480040I-15000J0D01*
G01*
X10739360Y-10480040D02*
G75*
G02*
X10769360Y-10480040I15000J0D01*
G01*
X11025900Y-9613900D02*
G75*
G02*
X10995900Y-9613900I-15000J0D01*
G01*
X10995900Y-9613900D02*
G75*
G02*
X11025900Y-9613900I15000J0D01*
G01*
X11170680Y-8884920D02*
G75*
G02*
X11140680Y-8884920I-15000J0D01*
G01*
X11140680Y-8884920D02*
G75*
G02*
X11170680Y-8884920I15000J0D01*
G01*
X11191000Y-11303000D02*
G75*
G02*
X11161000Y-11303000I-15000J0D01*
G01*
X11161000Y-11303000D02*
G75*
G02*
X11191000Y-11303000I15000J0D01*
G01*
X11373880Y-9304020D02*
G75*
G02*
X11343880Y-9304020I-15000J0D01*
G01*
X11343880Y-9304020D02*
G75*
G02*
X11373880Y-9304020I15000J0D01*
G01*
X11399280Y-8712200D02*
G75*
G02*
X11369280Y-8712200I-15000J0D01*
G01*
X11369280Y-8712200D02*
G75*
G02*
X11399280Y-8712200I15000J0D01*
G01*
X11475480Y-9304020D02*
G75*
G02*
X11445480Y-9304020I-15000J0D01*
G01*
X11445480Y-9304020D02*
G75*
G02*
X11475480Y-9304020I15000J0D01*
G01*
X11658360Y-8707120D02*
G75*
G02*
X11628360Y-8707120I-15000J0D01*
G01*
X11628360Y-8707120D02*
G75*
G02*
X11658360Y-8707120I15000J0D01*
G01*
X11708930Y-10113851D02*
G75*
G02*
X11678930Y-10113851I-15000J0D01*
G01*
X11678930Y-10113851D02*
G75*
G02*
X11708930Y-10113851I15000J0D01*
G01*
X11737100Y-11366500D02*
G75*
G02*
X11707100Y-11366500I-15000J0D01*
G01*
X11707100Y-11366500D02*
G75*
G02*
X11737100Y-11366500I15000J0D01*
G01*
X11737100Y-11455400D02*
G75*
G02*
X11707100Y-11455400I-15000J0D01*
G01*
X11707100Y-11455400D02*
G75*
G02*
X11737100Y-11455400I15000J0D01*
G01*
X11737100Y-11544300D02*
G75*
G02*
X11707100Y-11544300I-15000J0D01*
G01*
X11707100Y-11544300D02*
G75*
G02*
X11737100Y-11544300I15000J0D01*
G01*
X11737100Y-11633200D02*
G75*
G02*
X11707100Y-11633200I-15000J0D01*
G01*
X11707100Y-11633200D02*
G75*
G02*
X11737100Y-11633200I15000J0D01*
G01*
X11737100Y-11722100D02*
G75*
G02*
X11707100Y-11722100I-15000J0D01*
G01*
X11707100Y-11722100D02*
G75*
G02*
X11737100Y-11722100I15000J0D01*
G01*
X11759960Y-12202160D02*
G75*
G02*
X11729960Y-12202160I-15000J0D01*
G01*
X11729960Y-12202160D02*
G75*
G02*
X11759960Y-12202160I15000J0D01*
G01*
X11810530Y-10113851D02*
G75*
G02*
X11780530Y-10113851I-15000J0D01*
G01*
X11780530Y-10113851D02*
G75*
G02*
X11810530Y-10113851I15000J0D01*
G01*
X11813300Y-11366500D02*
G75*
G02*
X11783300Y-11366500I-15000J0D01*
G01*
X11783300Y-11366500D02*
G75*
G02*
X11813300Y-11366500I15000J0D01*
G01*
X11813300Y-11455400D02*
G75*
G02*
X11783300Y-11455400I-15000J0D01*
G01*
X11783300Y-11455400D02*
G75*
G02*
X11813300Y-11455400I15000J0D01*
G01*
X11813300Y-11544300D02*
G75*
G02*
X11783300Y-11544300I-15000J0D01*
G01*
X11783300Y-11544300D02*
G75*
G02*
X11813300Y-11544300I15000J0D01*
G01*
X11813300Y-11633200D02*
G75*
G02*
X11783300Y-11633200I-15000J0D01*
G01*
X11783300Y-11633200D02*
G75*
G02*
X11813300Y-11633200I15000J0D01*
G01*
X11813300Y-11722100D02*
G75*
G02*
X11783300Y-11722100I-15000J0D01*
G01*
X11783300Y-11722100D02*
G75*
G02*
X11813300Y-11722100I15000J0D01*
G01*
X11889500Y-11366500D02*
G75*
G02*
X11859500Y-11366500I-15000J0D01*
G01*
X11859500Y-11366500D02*
G75*
G02*
X11889500Y-11366500I15000J0D01*
G01*
X11889500Y-11455400D02*
G75*
G02*
X11859500Y-11455400I-15000J0D01*
G01*
X11859500Y-11455400D02*
G75*
G02*
X11889500Y-11455400I15000J0D01*
G01*
X11889500Y-11544300D02*
G75*
G02*
X11859500Y-11544300I-15000J0D01*
G01*
X11859500Y-11544300D02*
G75*
G02*
X11889500Y-11544300I15000J0D01*
G01*
X11889500Y-11633200D02*
G75*
G02*
X11859500Y-11633200I-15000J0D01*
G01*
X11859500Y-11633200D02*
G75*
G02*
X11889500Y-11633200I15000J0D01*
G01*
X11889500Y-11722100D02*
G75*
G02*
X11859500Y-11722100I-15000J0D01*
G01*
X11859500Y-11722100D02*
G75*
G02*
X11889500Y-11722100I15000J0D01*
G01*
X11912360Y-10114280D02*
G75*
G02*
X11882360Y-10114280I-15000J0D01*
G01*
X11882360Y-10114280D02*
G75*
G02*
X11912360Y-10114280I15000J0D01*
G01*
X11914900Y-11874500D02*
G75*
G02*
X11884900Y-11874500I-15000J0D01*
G01*
X11884900Y-11874500D02*
G75*
G02*
X11914900Y-11874500I15000J0D01*
G01*
X11914900Y-11976100D02*
G75*
G02*
X11884900Y-11976100I-15000J0D01*
G01*
X11884900Y-11976100D02*
G75*
G02*
X11914900Y-11976100I15000J0D01*
G01*
X11914900Y-12077700D02*
G75*
G02*
X11884900Y-12077700I-15000J0D01*
G01*
X11884900Y-12077700D02*
G75*
G02*
X11914900Y-12077700I15000J0D01*
G01*
X11991100Y-11874500D02*
G75*
G02*
X11961100Y-11874500I-15000J0D01*
G01*
X11961100Y-11874500D02*
G75*
G02*
X11991100Y-11874500I15000J0D01*
G01*
X11991100Y-11976100D02*
G75*
G02*
X11961100Y-11976100I-15000J0D01*
G01*
X11961100Y-11976100D02*
G75*
G02*
X11991100Y-11976100I15000J0D01*
G01*
X11991100Y-12077700D02*
G75*
G02*
X11961100Y-12077700I-15000J0D01*
G01*
X11961100Y-12077700D02*
G75*
G02*
X11991100Y-12077700I15000J0D01*
G01*
X12013960Y-10114280D02*
G75*
G02*
X11983960Y-10114280I-15000J0D01*
G01*
X11983960Y-10114280D02*
G75*
G02*
X12013960Y-10114280I15000J0D01*
G01*
X12067300Y-11874500D02*
G75*
G02*
X12037300Y-11874500I-15000J0D01*
G01*
X12037300Y-11874500D02*
G75*
G02*
X12067300Y-11874500I15000J0D01*
G01*
X12067300Y-11976100D02*
G75*
G02*
X12037300Y-11976100I-15000J0D01*
G01*
X12037300Y-11976100D02*
G75*
G02*
X12067300Y-11976100I15000J0D01*
G01*
X12067300Y-12077700D02*
G75*
G02*
X12037300Y-12077700I-15000J0D01*
G01*
X12037300Y-12077700D02*
G75*
G02*
X12067300Y-12077700I15000J0D01*
G01*
X12115560Y-10114280D02*
G75*
G02*
X12085560Y-10114280I-15000J0D01*
G01*
X12085560Y-10114280D02*
G75*
G02*
X12115560Y-10114280I15000J0D01*
G01*
X12143500Y-11874500D02*
G75*
G02*
X12113500Y-11874500I-15000J0D01*
G01*
X12113500Y-11874500D02*
G75*
G02*
X12143500Y-11874500I15000J0D01*
G01*
X12143500Y-11976100D02*
G75*
G02*
X12113500Y-11976100I-15000J0D01*
G01*
X12113500Y-11976100D02*
G75*
G02*
X12143500Y-11976100I15000J0D01*
G01*
X12143500Y-12077700D02*
G75*
G02*
X12113500Y-12077700I-15000J0D01*
G01*
X12113500Y-12077700D02*
G75*
G02*
X12143500Y-12077700I15000J0D01*
G01*
X12217160Y-10114280D02*
G75*
G02*
X12187160Y-10114280I-15000J0D01*
G01*
X12187160Y-10114280D02*
G75*
G02*
X12217160Y-10114280I15000J0D01*
G01*
X12242560Y-11297920D02*
G75*
G02*
X12212560Y-11297920I-15000J0D01*
G01*
X12212560Y-11297920D02*
G75*
G02*
X12242560Y-11297920I15000J0D01*
G01*
X12293360Y-9900920D02*
G75*
G02*
X12263360Y-9900920I-15000J0D01*
G01*
X12263360Y-9900920D02*
G75*
G02*
X12293360Y-9900920I15000J0D01*
G01*
X12308600Y-9202500D02*
G75*
G02*
X12278600Y-9202500I-15000J0D01*
G01*
X12278600Y-9202500D02*
G75*
G02*
X12308600Y-9202500I15000J0D01*
G01*
X12318760Y-10114280D02*
G75*
G02*
X12288760Y-10114280I-15000J0D01*
G01*
X12288760Y-10114280D02*
G75*
G02*
X12318760Y-10114280I15000J0D01*
G01*
X12346700Y-10655300D02*
G75*
G02*
X12316700Y-10655300I-15000J0D01*
G01*
X12316700Y-10655300D02*
G75*
G02*
X12346700Y-10655300I15000J0D01*
G01*
X12359400Y-11084560D02*
G75*
G02*
X12329400Y-11084560I-15000J0D01*
G01*
X12329400Y-11084560D02*
G75*
G02*
X12359400Y-11084560I15000J0D01*
G01*
X12359400Y-11160760D02*
G75*
G02*
X12329400Y-11160760I-15000J0D01*
G01*
X12329400Y-11160760D02*
G75*
G02*
X12359400Y-11160760I15000J0D01*
G01*
X12420360Y-10114280D02*
G75*
G02*
X12390360Y-10114280I-15000J0D01*
G01*
X12390360Y-10114280D02*
G75*
G02*
X12420360Y-10114280I15000J0D01*
G01*
X12422900Y-8724900D02*
G75*
G02*
X12392900Y-8724900I-15000J0D01*
G01*
X12392900Y-8724900D02*
G75*
G02*
X12422900Y-8724900I15000J0D01*
G01*
X12422900Y-10655300D02*
G75*
G02*
X12392900Y-10655300I-15000J0D01*
G01*
X12392900Y-10655300D02*
G75*
G02*
X12422900Y-10655300I15000J0D01*
G01*
X12425440Y-9189720D02*
G75*
G02*
X12395440Y-9189720I-15000J0D01*
G01*
X12395440Y-9189720D02*
G75*
G02*
X12425440Y-9189720I15000J0D01*
G01*
X12445760Y-11084560D02*
G75*
G02*
X12415760Y-11084560I-15000J0D01*
G01*
X12415760Y-11084560D02*
G75*
G02*
X12445760Y-11084560I15000J0D01*
G01*
X12445760Y-11160760D02*
G75*
G02*
X12415760Y-11160760I-15000J0D01*
G01*
X12415760Y-11160760D02*
G75*
G02*
X12445760Y-11160760I15000J0D01*
G01*
X12448300Y-8851900D02*
G75*
G02*
X12418300Y-8851900I-15000J0D01*
G01*
X12418300Y-8851900D02*
G75*
G02*
X12448300Y-8851900I15000J0D01*
G01*
X12499100Y-10655300D02*
G75*
G02*
X12469100Y-10655300I-15000J0D01*
G01*
X12469100Y-10655300D02*
G75*
G02*
X12499100Y-10655300I15000J0D01*
G01*
X12527040Y-11084560D02*
G75*
G02*
X12497040Y-11084560I-15000J0D01*
G01*
X12497040Y-11084560D02*
G75*
G02*
X12527040Y-11084560I15000J0D01*
G01*
X12527040Y-11160760D02*
G75*
G02*
X12497040Y-11160760I-15000J0D01*
G01*
X12497040Y-11160760D02*
G75*
G02*
X12527040Y-11160760I15000J0D01*
G01*
X12575300Y-10655300D02*
G75*
G02*
X12545300Y-10655300I-15000J0D01*
G01*
X12545300Y-10655300D02*
G75*
G02*
X12575300Y-10655300I15000J0D01*
G01*
X12689600Y-8724900D02*
G75*
G02*
X12659600Y-8724900I-15000J0D01*
G01*
X12659600Y-8724900D02*
G75*
G02*
X12689600Y-8724900I15000J0D01*
G01*
X12689600Y-8851900D02*
G75*
G02*
X12659600Y-8851900I-15000J0D01*
G01*
X12659600Y-8851900D02*
G75*
G02*
X12689600Y-8851900I15000J0D01*
G01*
X7382600Y-10409200D02*
X7382600Y-10469200D01*
X7352600Y-10439200D02*
X7412600Y-10439200D01*
X7352600Y-10469200D02*
X7412600Y-10469200D01*
X7412600Y-10409200D02*
G75*
G02*
X7412600Y-10469200I0J-30000D01*
G01*
X7412600Y-10409200D02*
X7352600Y-10409200D01*
X7352600Y-10409200D02*
G75*
G03*
X7352600Y-10469200I0J-30000D01*
G01*
X7382600Y-10409200D02*
X7382600Y-10469200D01*
X7352600Y-10439200D02*
X7412600Y-10439200D01*
X7412600Y-10409200D02*
X7352600Y-10409200D01*
X7352600Y-10469200D02*
G75*
G02*
X7352600Y-10409200I0J30000D01*
G01*
X7352600Y-10469200D02*
X7412600Y-10469200D01*
X7412600Y-10469200D02*
G75*
G03*
X7412600Y-10409200I0J30000D01*
G01*
X7382600Y-11273200D02*
X7382600Y-11333200D01*
X7352600Y-11303200D02*
X7412600Y-11303200D01*
X7352600Y-11333200D02*
X7412600Y-11333200D01*
X7412600Y-11273200D02*
G75*
G02*
X7412600Y-11333200I0J-30000D01*
G01*
X7412600Y-11273200D02*
X7352600Y-11273200D01*
X7352600Y-11273200D02*
G75*
G03*
X7352600Y-11333200I0J-30000D01*
G01*
X7382600Y-11273200D02*
X7382600Y-11333200D01*
X7352600Y-11303200D02*
X7412600Y-11303200D01*
X7412600Y-11273200D02*
X7352600Y-11273200D01*
X7352600Y-11333200D02*
G75*
G02*
X7352600Y-11273200I0J30000D01*
G01*
X7352600Y-11333200D02*
X7412600Y-11333200D01*
X7412600Y-11333200D02*
G75*
G03*
X7412600Y-11273200I0J30000D01*
G01*
X7800600Y-10409200D02*
X7800600Y-10469200D01*
X7770600Y-10439200D02*
X7830600Y-10439200D01*
X7745600Y-10469200D02*
X7855600Y-10469200D01*
X7855600Y-10409200D02*
G75*
G02*
X7855600Y-10469200I0J-30000D01*
G01*
X7855600Y-10409200D02*
X7745600Y-10409200D01*
X7745600Y-10409200D02*
G75*
G03*
X7745600Y-10469200I0J-30000D01*
G01*
X7800600Y-10409200D02*
X7800600Y-10469200D01*
X7770600Y-10439200D02*
X7830600Y-10439200D01*
X7855600Y-10409200D02*
X7745600Y-10409200D01*
X7745600Y-10469200D02*
G75*
G02*
X7745600Y-10409200I0J30000D01*
G01*
X7745600Y-10469200D02*
X7855600Y-10469200D01*
X7855600Y-10469200D02*
G75*
G03*
X7855600Y-10409200I0J30000D01*
G01*
X7800600Y-11273200D02*
X7800600Y-11333200D01*
X7770600Y-11303200D02*
X7830600Y-11303200D01*
X7855600Y-11273200D02*
X7745600Y-11273200D01*
X7745600Y-11333200D02*
G75*
G02*
X7745600Y-11273200I0J30000D01*
G01*
X7745600Y-11333200D02*
X7855600Y-11333200D01*
X7855600Y-11333200D02*
G75*
G03*
X7855600Y-11273200I0J30000D01*
G01*
X7800600Y-11273200D02*
X7800600Y-11333200D01*
X7770600Y-11303200D02*
X7830600Y-11303200D01*
X7745600Y-11333200D02*
X7855600Y-11333200D01*
X7855600Y-11273200D02*
G75*
G02*
X7855600Y-11333200I0J-30000D01*
G01*
X7855600Y-11273200D02*
X7745600Y-11273200D01*
X7745600Y-11273200D02*
G75*
G03*
X7745600Y-11333200I0J-30000D01*
G01*
D13*
X7605002Y-9459562D02*
X7605002Y-9367638D01*
X7513078Y-9367638D01*
X7513078Y-9459562D01*
X7605002Y-9459562D01*
X7605002Y-9959562D02*
X7605002Y-9867638D01*
X7513078Y-9867638D01*
X7513078Y-9959562D01*
X7605002Y-9959562D01*
D11*
X7357794Y-12799112D02*
X7357794Y-12599112D01*
X7357794Y-12599112D02*
X7405413Y-12599112D01*
X7405413Y-12599112D02*
X7433985Y-12608636D01*
X7433985Y-12608636D02*
X7453032Y-12627683D01*
X7453032Y-12627683D02*
X7462556Y-12646731D01*
X7462556Y-12646731D02*
X7472080Y-12684826D01*
X7472080Y-12684826D02*
X7472080Y-12713398D01*
X7472080Y-12713398D02*
X7462556Y-12751493D01*
X7462556Y-12751493D02*
X7453032Y-12770541D01*
X7453032Y-12770541D02*
X7433985Y-12789588D01*
X7433985Y-12789588D02*
X7405413Y-12799112D01*
X7405413Y-12799112D02*
X7357794Y-12799112D01*
X7557794Y-12799112D02*
X7557794Y-12665779D01*
X7557794Y-12703874D02*
X7567318Y-12684826D01*
X7567318Y-12684826D02*
X7576842Y-12675302D01*
X7576842Y-12675302D02*
X7595889Y-12665779D01*
X7595889Y-12665779D02*
X7614937Y-12665779D01*
X7681604Y-12799112D02*
X7681604Y-12665779D01*
X7681604Y-12599112D02*
X7672080Y-12608636D01*
X7672080Y-12608636D02*
X7681604Y-12618160D01*
X7681604Y-12618160D02*
X7691127Y-12608636D01*
X7691127Y-12608636D02*
X7681604Y-12599112D01*
X7681604Y-12599112D02*
X7681604Y-12618160D01*
X7805413Y-12799112D02*
X7786365Y-12789588D01*
X7786365Y-12789588D02*
X7776842Y-12770541D01*
X7776842Y-12770541D02*
X7776842Y-12599112D01*
X7910175Y-12799112D02*
X7891127Y-12789588D01*
X7891127Y-12789588D02*
X7881604Y-12770541D01*
X7881604Y-12770541D02*
X7881604Y-12599112D01*
X8138746Y-12799112D02*
X8138746Y-12599112D01*
X8138746Y-12599112D02*
X8205413Y-12741969D01*
X8205413Y-12741969D02*
X8272080Y-12599112D01*
X8272080Y-12599112D02*
X8272080Y-12799112D01*
X8453032Y-12799112D02*
X8453032Y-12694350D01*
X8453032Y-12694350D02*
X8443508Y-12675302D01*
X8443508Y-12675302D02*
X8424461Y-12665779D01*
X8424461Y-12665779D02*
X8386365Y-12665779D01*
X8386365Y-12665779D02*
X8367318Y-12675302D01*
X8453032Y-12789588D02*
X8433985Y-12799112D01*
X8433985Y-12799112D02*
X8386365Y-12799112D01*
X8386365Y-12799112D02*
X8367318Y-12789588D01*
X8367318Y-12789588D02*
X8357794Y-12770541D01*
X8357794Y-12770541D02*
X8357794Y-12751493D01*
X8357794Y-12751493D02*
X8367318Y-12732445D01*
X8367318Y-12732445D02*
X8386365Y-12722922D01*
X8386365Y-12722922D02*
X8433985Y-12722922D01*
X8433985Y-12722922D02*
X8453032Y-12713398D01*
X8548270Y-12665779D02*
X8548270Y-12865779D01*
X8548270Y-12675302D02*
X8567318Y-12665779D01*
X8567318Y-12665779D02*
X8605413Y-12665779D01*
X8605413Y-12665779D02*
X8624461Y-12675302D01*
X8624461Y-12675302D02*
X8633985Y-12684826D01*
X8633985Y-12684826D02*
X8643508Y-12703874D01*
X8643508Y-12703874D02*
X8643508Y-12761017D01*
X8643508Y-12761017D02*
X8633985Y-12780064D01*
X8633985Y-12780064D02*
X8624461Y-12789588D01*
X8624461Y-12789588D02*
X8605413Y-12799112D01*
X8605413Y-12799112D02*
X8567318Y-12799112D01*
X8567318Y-12799112D02*
X8548270Y-12789588D01*
X8729223Y-12780064D02*
X8738747Y-12789588D01*
X8738747Y-12789588D02*
X8729223Y-12799112D01*
X8729223Y-12799112D02*
X8719699Y-12789588D01*
X8719699Y-12789588D02*
X8729223Y-12780064D01*
X8729223Y-12780064D02*
X8729223Y-12799112D01*
X8729223Y-12675302D02*
X8738747Y-12684826D01*
X8738747Y-12684826D02*
X8729223Y-12694350D01*
X8729223Y-12694350D02*
X8719699Y-12684826D01*
X8719699Y-12684826D02*
X8729223Y-12675302D01*
X8729223Y-12675302D02*
X8729223Y-12694350D01*
D12*
X7077017Y-13117628D02*
X7097017Y-13137628D01*
X7097017Y-13117628D02*
X7077017Y-13137628D01*
D11*
X7395889Y-13019112D02*
X7414937Y-13019112D01*
X7414937Y-13019112D02*
X7433985Y-13028636D01*
X7433985Y-13028636D02*
X7443508Y-13038160D01*
X7443508Y-13038160D02*
X7453032Y-13057207D01*
X7453032Y-13057207D02*
X7462556Y-13095302D01*
X7462556Y-13095302D02*
X7462556Y-13142922D01*
X7462556Y-13142922D02*
X7453032Y-13181017D01*
X7453032Y-13181017D02*
X7443508Y-13200064D01*
X7443508Y-13200064D02*
X7433985Y-13209588D01*
X7433985Y-13209588D02*
X7414937Y-13219112D01*
X7414937Y-13219112D02*
X7395889Y-13219112D01*
X7395889Y-13219112D02*
X7376842Y-13209588D01*
X7376842Y-13209588D02*
X7367318Y-13200064D01*
X7367318Y-13200064D02*
X7357794Y-13181017D01*
X7357794Y-13181017D02*
X7348270Y-13142922D01*
X7348270Y-13142922D02*
X7348270Y-13095302D01*
X7348270Y-13095302D02*
X7357794Y-13057207D01*
X7357794Y-13057207D02*
X7367318Y-13038160D01*
X7367318Y-13038160D02*
X7376842Y-13028636D01*
X7376842Y-13028636D02*
X7395889Y-13019112D01*
X7548270Y-13200064D02*
X7557794Y-13209588D01*
X7557794Y-13209588D02*
X7548270Y-13219112D01*
X7548270Y-13219112D02*
X7538746Y-13209588D01*
X7538746Y-13209588D02*
X7548270Y-13200064D01*
X7548270Y-13200064D02*
X7548270Y-13219112D01*
X7633985Y-13038160D02*
X7643508Y-13028636D01*
X7643508Y-13028636D02*
X7662556Y-13019112D01*
X7662556Y-13019112D02*
X7710175Y-13019112D01*
X7710175Y-13019112D02*
X7729223Y-13028636D01*
X7729223Y-13028636D02*
X7738746Y-13038160D01*
X7738746Y-13038160D02*
X7748270Y-13057207D01*
X7748270Y-13057207D02*
X7748270Y-13076255D01*
X7748270Y-13076255D02*
X7738746Y-13104826D01*
X7738746Y-13104826D02*
X7624461Y-13219112D01*
X7624461Y-13219112D02*
X7748270Y-13219112D01*
X7872080Y-13019112D02*
X7891127Y-13019112D01*
X7891127Y-13019112D02*
X7910175Y-13028636D01*
X7910175Y-13028636D02*
X7919699Y-13038160D01*
X7919699Y-13038160D02*
X7929223Y-13057207D01*
X7929223Y-13057207D02*
X7938746Y-13095302D01*
X7938746Y-13095302D02*
X7938746Y-13142922D01*
X7938746Y-13142922D02*
X7929223Y-13181017D01*
X7929223Y-13181017D02*
X7919699Y-13200064D01*
X7919699Y-13200064D02*
X7910175Y-13209588D01*
X7910175Y-13209588D02*
X7891127Y-13219112D01*
X7891127Y-13219112D02*
X7872080Y-13219112D01*
X7872080Y-13219112D02*
X7853032Y-13209588D01*
X7853032Y-13209588D02*
X7843508Y-13200064D01*
X7843508Y-13200064D02*
X7833985Y-13181017D01*
X7833985Y-13181017D02*
X7824461Y-13142922D01*
X7824461Y-13142922D02*
X7824461Y-13095302D01*
X7824461Y-13095302D02*
X7833985Y-13057207D01*
X7833985Y-13057207D02*
X7843508Y-13038160D01*
X7843508Y-13038160D02*
X7853032Y-13028636D01*
X7853032Y-13028636D02*
X7872080Y-13019112D01*
X8062556Y-13019112D02*
X8081604Y-13019112D01*
X8081604Y-13019112D02*
X8100651Y-13028636D01*
X8100651Y-13028636D02*
X8110175Y-13038160D01*
X8110175Y-13038160D02*
X8119699Y-13057207D01*
X8119699Y-13057207D02*
X8129223Y-13095302D01*
X8129223Y-13095302D02*
X8129223Y-13142922D01*
X8129223Y-13142922D02*
X8119699Y-13181017D01*
X8119699Y-13181017D02*
X8110175Y-13200064D01*
X8110175Y-13200064D02*
X8100651Y-13209588D01*
X8100651Y-13209588D02*
X8081604Y-13219112D01*
X8081604Y-13219112D02*
X8062556Y-13219112D01*
X8062556Y-13219112D02*
X8043508Y-13209588D01*
X8043508Y-13209588D02*
X8033985Y-13200064D01*
X8033985Y-13200064D02*
X8024461Y-13181017D01*
X8024461Y-13181017D02*
X8014937Y-13142922D01*
X8014937Y-13142922D02*
X8014937Y-13095302D01*
X8014937Y-13095302D02*
X8024461Y-13057207D01*
X8024461Y-13057207D02*
X8033985Y-13038160D01*
X8033985Y-13038160D02*
X8043508Y-13028636D01*
X8043508Y-13028636D02*
X8062556Y-13019112D01*
X8214937Y-13219112D02*
X8214937Y-13085779D01*
X8214937Y-13104826D02*
X8224461Y-13095302D01*
X8224461Y-13095302D02*
X8243508Y-13085779D01*
X8243508Y-13085779D02*
X8272080Y-13085779D01*
X8272080Y-13085779D02*
X8291127Y-13095302D01*
X8291127Y-13095302D02*
X8300651Y-13114350D01*
X8300651Y-13114350D02*
X8300651Y-13219112D01*
X8300651Y-13114350D02*
X8310175Y-13095302D01*
X8310175Y-13095302D02*
X8329223Y-13085779D01*
X8329223Y-13085779D02*
X8357794Y-13085779D01*
X8357794Y-13085779D02*
X8376842Y-13095302D01*
X8376842Y-13095302D02*
X8386366Y-13114350D01*
X8386366Y-13114350D02*
X8386366Y-13219112D01*
X8481604Y-13219112D02*
X8481604Y-13085779D01*
X8481604Y-13104826D02*
X8491128Y-13095302D01*
X8491128Y-13095302D02*
X8510175Y-13085779D01*
X8510175Y-13085779D02*
X8538747Y-13085779D01*
X8538747Y-13085779D02*
X8557794Y-13095302D01*
X8557794Y-13095302D02*
X8567318Y-13114350D01*
X8567318Y-13114350D02*
X8567318Y-13219112D01*
X8567318Y-13114350D02*
X8576842Y-13095302D01*
X8576842Y-13095302D02*
X8595889Y-13085779D01*
X8595889Y-13085779D02*
X8624461Y-13085779D01*
X8624461Y-13085779D02*
X8643509Y-13095302D01*
X8643509Y-13095302D02*
X8653032Y-13114350D01*
X8653032Y-13114350D02*
X8653032Y-13219112D01*
X9043509Y-13009588D02*
X8872080Y-13266731D01*
X9300651Y-13019112D02*
X9319699Y-13019112D01*
X9319699Y-13019112D02*
X9338747Y-13028636D01*
X9338747Y-13028636D02*
X9348271Y-13038160D01*
X9348271Y-13038160D02*
X9357794Y-13057207D01*
X9357794Y-13057207D02*
X9367318Y-13095302D01*
X9367318Y-13095302D02*
X9367318Y-13142922D01*
X9367318Y-13142922D02*
X9357794Y-13181017D01*
X9357794Y-13181017D02*
X9348271Y-13200064D01*
X9348271Y-13200064D02*
X9338747Y-13209588D01*
X9338747Y-13209588D02*
X9319699Y-13219112D01*
X9319699Y-13219112D02*
X9300651Y-13219112D01*
X9300651Y-13219112D02*
X9281604Y-13209588D01*
X9281604Y-13209588D02*
X9272080Y-13200064D01*
X9272080Y-13200064D02*
X9262556Y-13181017D01*
X9262556Y-13181017D02*
X9253032Y-13142922D01*
X9253032Y-13142922D02*
X9253032Y-13095302D01*
X9253032Y-13095302D02*
X9262556Y-13057207D01*
X9262556Y-13057207D02*
X9272080Y-13038160D01*
X9272080Y-13038160D02*
X9281604Y-13028636D01*
X9281604Y-13028636D02*
X9300651Y-13019112D01*
X9453032Y-13200064D02*
X9462556Y-13209588D01*
X9462556Y-13209588D02*
X9453032Y-13219112D01*
X9453032Y-13219112D02*
X9443509Y-13209588D01*
X9443509Y-13209588D02*
X9453032Y-13200064D01*
X9453032Y-13200064D02*
X9453032Y-13219112D01*
X9586366Y-13019112D02*
X9605413Y-13019112D01*
X9605413Y-13019112D02*
X9624461Y-13028636D01*
X9624461Y-13028636D02*
X9633985Y-13038160D01*
X9633985Y-13038160D02*
X9643509Y-13057207D01*
X9643509Y-13057207D02*
X9653032Y-13095302D01*
X9653032Y-13095302D02*
X9653032Y-13142922D01*
X9653032Y-13142922D02*
X9643509Y-13181017D01*
X9643509Y-13181017D02*
X9633985Y-13200064D01*
X9633985Y-13200064D02*
X9624461Y-13209588D01*
X9624461Y-13209588D02*
X9605413Y-13219112D01*
X9605413Y-13219112D02*
X9586366Y-13219112D01*
X9586366Y-13219112D02*
X9567318Y-13209588D01*
X9567318Y-13209588D02*
X9557794Y-13200064D01*
X9557794Y-13200064D02*
X9548271Y-13181017D01*
X9548271Y-13181017D02*
X9538747Y-13142922D01*
X9538747Y-13142922D02*
X9538747Y-13095302D01*
X9538747Y-13095302D02*
X9548271Y-13057207D01*
X9548271Y-13057207D02*
X9557794Y-13038160D01*
X9557794Y-13038160D02*
X9567318Y-13028636D01*
X9567318Y-13028636D02*
X9586366Y-13019112D01*
X9776842Y-13019112D02*
X9795890Y-13019112D01*
X9795890Y-13019112D02*
X9814937Y-13028636D01*
X9814937Y-13028636D02*
X9824461Y-13038160D01*
X9824461Y-13038160D02*
X9833985Y-13057207D01*
X9833985Y-13057207D02*
X9843509Y-13095302D01*
X9843509Y-13095302D02*
X9843509Y-13142922D01*
X9843509Y-13142922D02*
X9833985Y-13181017D01*
X9833985Y-13181017D02*
X9824461Y-13200064D01*
X9824461Y-13200064D02*
X9814937Y-13209588D01*
X9814937Y-13209588D02*
X9795890Y-13219112D01*
X9795890Y-13219112D02*
X9776842Y-13219112D01*
X9776842Y-13219112D02*
X9757794Y-13209588D01*
X9757794Y-13209588D02*
X9748271Y-13200064D01*
X9748271Y-13200064D02*
X9738747Y-13181017D01*
X9738747Y-13181017D02*
X9729223Y-13142922D01*
X9729223Y-13142922D02*
X9729223Y-13095302D01*
X9729223Y-13095302D02*
X9738747Y-13057207D01*
X9738747Y-13057207D02*
X9748271Y-13038160D01*
X9748271Y-13038160D02*
X9757794Y-13028636D01*
X9757794Y-13028636D02*
X9776842Y-13019112D01*
X9910175Y-13019112D02*
X10043509Y-13019112D01*
X10043509Y-13019112D02*
X9957794Y-13219112D01*
X10129223Y-13219112D02*
X10167318Y-13219112D01*
X10167318Y-13219112D02*
X10186366Y-13209588D01*
X10186366Y-13209588D02*
X10195890Y-13200064D01*
X10195890Y-13200064D02*
X10214937Y-13171493D01*
X10214937Y-13171493D02*
X10224461Y-13133398D01*
X10224461Y-13133398D02*
X10224461Y-13057207D01*
X10224461Y-13057207D02*
X10214937Y-13038160D01*
X10214937Y-13038160D02*
X10205413Y-13028636D01*
X10205413Y-13028636D02*
X10186366Y-13019112D01*
X10186366Y-13019112D02*
X10148271Y-13019112D01*
X10148271Y-13019112D02*
X10129223Y-13028636D01*
X10129223Y-13028636D02*
X10119699Y-13038160D01*
X10119699Y-13038160D02*
X10110175Y-13057207D01*
X10110175Y-13057207D02*
X10110175Y-13104826D01*
X10110175Y-13104826D02*
X10119699Y-13123874D01*
X10119699Y-13123874D02*
X10129223Y-13133398D01*
X10129223Y-13133398D02*
X10148271Y-13142922D01*
X10148271Y-13142922D02*
X10186366Y-13142922D01*
X10186366Y-13142922D02*
X10205413Y-13133398D01*
X10205413Y-13133398D02*
X10214937Y-13123874D01*
X10214937Y-13123874D02*
X10224461Y-13104826D01*
X10300652Y-13019112D02*
X10300652Y-13057207D01*
X10376842Y-13019112D02*
X10376842Y-13057207D01*
X10672080Y-13295302D02*
X10662556Y-13285779D01*
X10662556Y-13285779D02*
X10643509Y-13257207D01*
X10643509Y-13257207D02*
X10633985Y-13238160D01*
X10633985Y-13238160D02*
X10624461Y-13209588D01*
X10624461Y-13209588D02*
X10614937Y-13161969D01*
X10614937Y-13161969D02*
X10614937Y-13123874D01*
X10614937Y-13123874D02*
X10624461Y-13076255D01*
X10624461Y-13076255D02*
X10633985Y-13047683D01*
X10633985Y-13047683D02*
X10643509Y-13028636D01*
X10643509Y-13028636D02*
X10662556Y-13000064D01*
X10662556Y-13000064D02*
X10672080Y-12990541D01*
X10853033Y-13219112D02*
X10738747Y-13219112D01*
X10795890Y-13219112D02*
X10795890Y-13019112D01*
X10795890Y-13019112D02*
X10776842Y-13047683D01*
X10776842Y-13047683D02*
X10757794Y-13066731D01*
X10757794Y-13066731D02*
X10738747Y-13076255D01*
X10929223Y-13038160D02*
X10938747Y-13028636D01*
X10938747Y-13028636D02*
X10957794Y-13019112D01*
X10957794Y-13019112D02*
X11005414Y-13019112D01*
X11005414Y-13019112D02*
X11024461Y-13028636D01*
X11024461Y-13028636D02*
X11033985Y-13038160D01*
X11033985Y-13038160D02*
X11043509Y-13057207D01*
X11043509Y-13057207D02*
X11043509Y-13076255D01*
X11043509Y-13076255D02*
X11033985Y-13104826D01*
X11033985Y-13104826D02*
X10919699Y-13219112D01*
X10919699Y-13219112D02*
X11043509Y-13219112D01*
X11281604Y-13219112D02*
X11281604Y-13019112D01*
X11367318Y-13219112D02*
X11367318Y-13114350D01*
X11367318Y-13114350D02*
X11357794Y-13095302D01*
X11357794Y-13095302D02*
X11338747Y-13085779D01*
X11338747Y-13085779D02*
X11310175Y-13085779D01*
X11310175Y-13085779D02*
X11291128Y-13095302D01*
X11291128Y-13095302D02*
X11281604Y-13104826D01*
X11491128Y-13219112D02*
X11472080Y-13209588D01*
X11472080Y-13209588D02*
X11462556Y-13200064D01*
X11462556Y-13200064D02*
X11453033Y-13181017D01*
X11453033Y-13181017D02*
X11453033Y-13123874D01*
X11453033Y-13123874D02*
X11462556Y-13104826D01*
X11462556Y-13104826D02*
X11472080Y-13095302D01*
X11472080Y-13095302D02*
X11491128Y-13085779D01*
X11491128Y-13085779D02*
X11519699Y-13085779D01*
X11519699Y-13085779D02*
X11538747Y-13095302D01*
X11538747Y-13095302D02*
X11548271Y-13104826D01*
X11548271Y-13104826D02*
X11557794Y-13123874D01*
X11557794Y-13123874D02*
X11557794Y-13181017D01*
X11557794Y-13181017D02*
X11548271Y-13200064D01*
X11548271Y-13200064D02*
X11538747Y-13209588D01*
X11538747Y-13209588D02*
X11519699Y-13219112D01*
X11519699Y-13219112D02*
X11491128Y-13219112D01*
X11672080Y-13219112D02*
X11653033Y-13209588D01*
X11653033Y-13209588D02*
X11643509Y-13190541D01*
X11643509Y-13190541D02*
X11643509Y-13019112D01*
X11824461Y-13209588D02*
X11805414Y-13219112D01*
X11805414Y-13219112D02*
X11767318Y-13219112D01*
X11767318Y-13219112D02*
X11748271Y-13209588D01*
X11748271Y-13209588D02*
X11738747Y-13190541D01*
X11738747Y-13190541D02*
X11738747Y-13114350D01*
X11738747Y-13114350D02*
X11748271Y-13095302D01*
X11748271Y-13095302D02*
X11767318Y-13085779D01*
X11767318Y-13085779D02*
X11805414Y-13085779D01*
X11805414Y-13085779D02*
X11824461Y-13095302D01*
X11824461Y-13095302D02*
X11833985Y-13114350D01*
X11833985Y-13114350D02*
X11833985Y-13133398D01*
X11833985Y-13133398D02*
X11738747Y-13152445D01*
X11910175Y-13209588D02*
X11929223Y-13219112D01*
X11929223Y-13219112D02*
X11967318Y-13219112D01*
X11967318Y-13219112D02*
X11986366Y-13209588D01*
X11986366Y-13209588D02*
X11995890Y-13190541D01*
X11995890Y-13190541D02*
X11995890Y-13181017D01*
X11995890Y-13181017D02*
X11986366Y-13161969D01*
X11986366Y-13161969D02*
X11967318Y-13152445D01*
X11967318Y-13152445D02*
X11938747Y-13152445D01*
X11938747Y-13152445D02*
X11919699Y-13142922D01*
X11919699Y-13142922D02*
X11910175Y-13123874D01*
X11910175Y-13123874D02*
X11910175Y-13114350D01*
X11910175Y-13114350D02*
X11919699Y-13095302D01*
X11919699Y-13095302D02*
X11938747Y-13085779D01*
X11938747Y-13085779D02*
X11967318Y-13085779D01*
X11967318Y-13085779D02*
X11986366Y-13095302D01*
X12062556Y-13295302D02*
X12072080Y-13285779D01*
X12072080Y-13285779D02*
X12091128Y-13257207D01*
X12091128Y-13257207D02*
X12100652Y-13238160D01*
X12100652Y-13238160D02*
X12110175Y-13209588D01*
X12110175Y-13209588D02*
X12119699Y-13161969D01*
X12119699Y-13161969D02*
X12119699Y-13123874D01*
X12119699Y-13123874D02*
X12110175Y-13076255D01*
X12110175Y-13076255D02*
X12100652Y-13047683D01*
X12100652Y-13047683D02*
X12091128Y-13028636D01*
X12091128Y-13028636D02*
X12072080Y-13000064D01*
X12072080Y-13000064D02*
X12062556Y-12990541D01*
D12*
X7097017Y-13391628D02*
G75*
G02*
X7067017Y-13391628I-15000J0D01*
G01*
X7067017Y-13391628D02*
G75*
G02*
X7097017Y-13391628I15000J0D01*
G01*
D11*
X7395889Y-13283112D02*
X7414937Y-13283112D01*
X7414937Y-13283112D02*
X7433985Y-13292636D01*
X7433985Y-13292636D02*
X7443508Y-13302160D01*
X7443508Y-13302160D02*
X7453032Y-13321207D01*
X7453032Y-13321207D02*
X7462556Y-13359302D01*
X7462556Y-13359302D02*
X7462556Y-13406922D01*
X7462556Y-13406922D02*
X7453032Y-13445017D01*
X7453032Y-13445017D02*
X7443508Y-13464064D01*
X7443508Y-13464064D02*
X7433985Y-13473588D01*
X7433985Y-13473588D02*
X7414937Y-13483112D01*
X7414937Y-13483112D02*
X7395889Y-13483112D01*
X7395889Y-13483112D02*
X7376842Y-13473588D01*
X7376842Y-13473588D02*
X7367318Y-13464064D01*
X7367318Y-13464064D02*
X7357794Y-13445017D01*
X7357794Y-13445017D02*
X7348270Y-13406922D01*
X7348270Y-13406922D02*
X7348270Y-13359302D01*
X7348270Y-13359302D02*
X7357794Y-13321207D01*
X7357794Y-13321207D02*
X7367318Y-13302160D01*
X7367318Y-13302160D02*
X7376842Y-13292636D01*
X7376842Y-13292636D02*
X7395889Y-13283112D01*
X7548270Y-13464064D02*
X7557794Y-13473588D01*
X7557794Y-13473588D02*
X7548270Y-13483112D01*
X7548270Y-13483112D02*
X7538746Y-13473588D01*
X7538746Y-13473588D02*
X7548270Y-13464064D01*
X7548270Y-13464064D02*
X7548270Y-13483112D01*
X7624461Y-13283112D02*
X7748270Y-13283112D01*
X7748270Y-13283112D02*
X7681604Y-13359302D01*
X7681604Y-13359302D02*
X7710175Y-13359302D01*
X7710175Y-13359302D02*
X7729223Y-13368826D01*
X7729223Y-13368826D02*
X7738746Y-13378350D01*
X7738746Y-13378350D02*
X7748270Y-13397398D01*
X7748270Y-13397398D02*
X7748270Y-13445017D01*
X7748270Y-13445017D02*
X7738746Y-13464064D01*
X7738746Y-13464064D02*
X7729223Y-13473588D01*
X7729223Y-13473588D02*
X7710175Y-13483112D01*
X7710175Y-13483112D02*
X7653032Y-13483112D01*
X7653032Y-13483112D02*
X7633985Y-13473588D01*
X7633985Y-13473588D02*
X7624461Y-13464064D01*
X7872080Y-13283112D02*
X7891127Y-13283112D01*
X7891127Y-13283112D02*
X7910175Y-13292636D01*
X7910175Y-13292636D02*
X7919699Y-13302160D01*
X7919699Y-13302160D02*
X7929223Y-13321207D01*
X7929223Y-13321207D02*
X7938746Y-13359302D01*
X7938746Y-13359302D02*
X7938746Y-13406922D01*
X7938746Y-13406922D02*
X7929223Y-13445017D01*
X7929223Y-13445017D02*
X7919699Y-13464064D01*
X7919699Y-13464064D02*
X7910175Y-13473588D01*
X7910175Y-13473588D02*
X7891127Y-13483112D01*
X7891127Y-13483112D02*
X7872080Y-13483112D01*
X7872080Y-13483112D02*
X7853032Y-13473588D01*
X7853032Y-13473588D02*
X7843508Y-13464064D01*
X7843508Y-13464064D02*
X7833985Y-13445017D01*
X7833985Y-13445017D02*
X7824461Y-13406922D01*
X7824461Y-13406922D02*
X7824461Y-13359302D01*
X7824461Y-13359302D02*
X7833985Y-13321207D01*
X7833985Y-13321207D02*
X7843508Y-13302160D01*
X7843508Y-13302160D02*
X7853032Y-13292636D01*
X7853032Y-13292636D02*
X7872080Y-13283112D01*
X8062556Y-13283112D02*
X8081604Y-13283112D01*
X8081604Y-13283112D02*
X8100651Y-13292636D01*
X8100651Y-13292636D02*
X8110175Y-13302160D01*
X8110175Y-13302160D02*
X8119699Y-13321207D01*
X8119699Y-13321207D02*
X8129223Y-13359302D01*
X8129223Y-13359302D02*
X8129223Y-13406922D01*
X8129223Y-13406922D02*
X8119699Y-13445017D01*
X8119699Y-13445017D02*
X8110175Y-13464064D01*
X8110175Y-13464064D02*
X8100651Y-13473588D01*
X8100651Y-13473588D02*
X8081604Y-13483112D01*
X8081604Y-13483112D02*
X8062556Y-13483112D01*
X8062556Y-13483112D02*
X8043508Y-13473588D01*
X8043508Y-13473588D02*
X8033985Y-13464064D01*
X8033985Y-13464064D02*
X8024461Y-13445017D01*
X8024461Y-13445017D02*
X8014937Y-13406922D01*
X8014937Y-13406922D02*
X8014937Y-13359302D01*
X8014937Y-13359302D02*
X8024461Y-13321207D01*
X8024461Y-13321207D02*
X8033985Y-13302160D01*
X8033985Y-13302160D02*
X8043508Y-13292636D01*
X8043508Y-13292636D02*
X8062556Y-13283112D01*
X8214937Y-13483112D02*
X8214937Y-13349779D01*
X8214937Y-13368826D02*
X8224461Y-13359302D01*
X8224461Y-13359302D02*
X8243508Y-13349779D01*
X8243508Y-13349779D02*
X8272080Y-13349779D01*
X8272080Y-13349779D02*
X8291127Y-13359302D01*
X8291127Y-13359302D02*
X8300651Y-13378350D01*
X8300651Y-13378350D02*
X8300651Y-13483112D01*
X8300651Y-13378350D02*
X8310175Y-13359302D01*
X8310175Y-13359302D02*
X8329223Y-13349779D01*
X8329223Y-13349779D02*
X8357794Y-13349779D01*
X8357794Y-13349779D02*
X8376842Y-13359302D01*
X8376842Y-13359302D02*
X8386366Y-13378350D01*
X8386366Y-13378350D02*
X8386366Y-13483112D01*
X8481604Y-13483112D02*
X8481604Y-13349779D01*
X8481604Y-13368826D02*
X8491128Y-13359302D01*
X8491128Y-13359302D02*
X8510175Y-13349779D01*
X8510175Y-13349779D02*
X8538747Y-13349779D01*
X8538747Y-13349779D02*
X8557794Y-13359302D01*
X8557794Y-13359302D02*
X8567318Y-13378350D01*
X8567318Y-13378350D02*
X8567318Y-13483112D01*
X8567318Y-13378350D02*
X8576842Y-13359302D01*
X8576842Y-13359302D02*
X8595889Y-13349779D01*
X8595889Y-13349779D02*
X8624461Y-13349779D01*
X8624461Y-13349779D02*
X8643509Y-13359302D01*
X8643509Y-13359302D02*
X8653032Y-13378350D01*
X8653032Y-13378350D02*
X8653032Y-13483112D01*
X9043509Y-13273588D02*
X8872080Y-13530731D01*
X9300651Y-13283112D02*
X9319699Y-13283112D01*
X9319699Y-13283112D02*
X9338747Y-13292636D01*
X9338747Y-13292636D02*
X9348271Y-13302160D01*
X9348271Y-13302160D02*
X9357794Y-13321207D01*
X9357794Y-13321207D02*
X9367318Y-13359302D01*
X9367318Y-13359302D02*
X9367318Y-13406922D01*
X9367318Y-13406922D02*
X9357794Y-13445017D01*
X9357794Y-13445017D02*
X9348271Y-13464064D01*
X9348271Y-13464064D02*
X9338747Y-13473588D01*
X9338747Y-13473588D02*
X9319699Y-13483112D01*
X9319699Y-13483112D02*
X9300651Y-13483112D01*
X9300651Y-13483112D02*
X9281604Y-13473588D01*
X9281604Y-13473588D02*
X9272080Y-13464064D01*
X9272080Y-13464064D02*
X9262556Y-13445017D01*
X9262556Y-13445017D02*
X9253032Y-13406922D01*
X9253032Y-13406922D02*
X9253032Y-13359302D01*
X9253032Y-13359302D02*
X9262556Y-13321207D01*
X9262556Y-13321207D02*
X9272080Y-13302160D01*
X9272080Y-13302160D02*
X9281604Y-13292636D01*
X9281604Y-13292636D02*
X9300651Y-13283112D01*
X9453032Y-13464064D02*
X9462556Y-13473588D01*
X9462556Y-13473588D02*
X9453032Y-13483112D01*
X9453032Y-13483112D02*
X9443509Y-13473588D01*
X9443509Y-13473588D02*
X9453032Y-13464064D01*
X9453032Y-13464064D02*
X9453032Y-13483112D01*
X9586366Y-13283112D02*
X9605413Y-13283112D01*
X9605413Y-13283112D02*
X9624461Y-13292636D01*
X9624461Y-13292636D02*
X9633985Y-13302160D01*
X9633985Y-13302160D02*
X9643509Y-13321207D01*
X9643509Y-13321207D02*
X9653032Y-13359302D01*
X9653032Y-13359302D02*
X9653032Y-13406922D01*
X9653032Y-13406922D02*
X9643509Y-13445017D01*
X9643509Y-13445017D02*
X9633985Y-13464064D01*
X9633985Y-13464064D02*
X9624461Y-13473588D01*
X9624461Y-13473588D02*
X9605413Y-13483112D01*
X9605413Y-13483112D02*
X9586366Y-13483112D01*
X9586366Y-13483112D02*
X9567318Y-13473588D01*
X9567318Y-13473588D02*
X9557794Y-13464064D01*
X9557794Y-13464064D02*
X9548271Y-13445017D01*
X9548271Y-13445017D02*
X9538747Y-13406922D01*
X9538747Y-13406922D02*
X9538747Y-13359302D01*
X9538747Y-13359302D02*
X9548271Y-13321207D01*
X9548271Y-13321207D02*
X9557794Y-13302160D01*
X9557794Y-13302160D02*
X9567318Y-13292636D01*
X9567318Y-13292636D02*
X9586366Y-13283112D01*
X9843509Y-13483112D02*
X9729223Y-13483112D01*
X9786366Y-13483112D02*
X9786366Y-13283112D01*
X9786366Y-13283112D02*
X9767318Y-13311683D01*
X9767318Y-13311683D02*
X9748271Y-13330731D01*
X9748271Y-13330731D02*
X9729223Y-13340255D01*
X10033985Y-13483112D02*
X9919699Y-13483112D01*
X9976842Y-13483112D02*
X9976842Y-13283112D01*
X9976842Y-13283112D02*
X9957794Y-13311683D01*
X9957794Y-13311683D02*
X9938747Y-13330731D01*
X9938747Y-13330731D02*
X9919699Y-13340255D01*
X10148271Y-13368826D02*
X10129223Y-13359302D01*
X10129223Y-13359302D02*
X10119699Y-13349779D01*
X10119699Y-13349779D02*
X10110175Y-13330731D01*
X10110175Y-13330731D02*
X10110175Y-13321207D01*
X10110175Y-13321207D02*
X10119699Y-13302160D01*
X10119699Y-13302160D02*
X10129223Y-13292636D01*
X10129223Y-13292636D02*
X10148271Y-13283112D01*
X10148271Y-13283112D02*
X10186366Y-13283112D01*
X10186366Y-13283112D02*
X10205413Y-13292636D01*
X10205413Y-13292636D02*
X10214937Y-13302160D01*
X10214937Y-13302160D02*
X10224461Y-13321207D01*
X10224461Y-13321207D02*
X10224461Y-13330731D01*
X10224461Y-13330731D02*
X10214937Y-13349779D01*
X10214937Y-13349779D02*
X10205413Y-13359302D01*
X10205413Y-13359302D02*
X10186366Y-13368826D01*
X10186366Y-13368826D02*
X10148271Y-13368826D01*
X10148271Y-13368826D02*
X10129223Y-13378350D01*
X10129223Y-13378350D02*
X10119699Y-13387874D01*
X10119699Y-13387874D02*
X10110175Y-13406922D01*
X10110175Y-13406922D02*
X10110175Y-13445017D01*
X10110175Y-13445017D02*
X10119699Y-13464064D01*
X10119699Y-13464064D02*
X10129223Y-13473588D01*
X10129223Y-13473588D02*
X10148271Y-13483112D01*
X10148271Y-13483112D02*
X10186366Y-13483112D01*
X10186366Y-13483112D02*
X10205413Y-13473588D01*
X10205413Y-13473588D02*
X10214937Y-13464064D01*
X10214937Y-13464064D02*
X10224461Y-13445017D01*
X10224461Y-13445017D02*
X10224461Y-13406922D01*
X10224461Y-13406922D02*
X10214937Y-13387874D01*
X10214937Y-13387874D02*
X10205413Y-13378350D01*
X10205413Y-13378350D02*
X10186366Y-13368826D01*
X10300652Y-13283112D02*
X10300652Y-13321207D01*
X10376842Y-13283112D02*
X10376842Y-13321207D01*
X10672080Y-13559302D02*
X10662556Y-13549779D01*
X10662556Y-13549779D02*
X10643509Y-13521207D01*
X10643509Y-13521207D02*
X10633985Y-13502160D01*
X10633985Y-13502160D02*
X10624461Y-13473588D01*
X10624461Y-13473588D02*
X10614937Y-13425969D01*
X10614937Y-13425969D02*
X10614937Y-13387874D01*
X10614937Y-13387874D02*
X10624461Y-13340255D01*
X10624461Y-13340255D02*
X10633985Y-13311683D01*
X10633985Y-13311683D02*
X10643509Y-13292636D01*
X10643509Y-13292636D02*
X10662556Y-13264064D01*
X10662556Y-13264064D02*
X10672080Y-13254541D01*
X10757794Y-13483112D02*
X10795890Y-13483112D01*
X10795890Y-13483112D02*
X10814937Y-13473588D01*
X10814937Y-13473588D02*
X10824461Y-13464064D01*
X10824461Y-13464064D02*
X10843509Y-13435493D01*
X10843509Y-13435493D02*
X10853033Y-13397398D01*
X10853033Y-13397398D02*
X10853033Y-13321207D01*
X10853033Y-13321207D02*
X10843509Y-13302160D01*
X10843509Y-13302160D02*
X10833985Y-13292636D01*
X10833985Y-13292636D02*
X10814937Y-13283112D01*
X10814937Y-13283112D02*
X10776842Y-13283112D01*
X10776842Y-13283112D02*
X10757794Y-13292636D01*
X10757794Y-13292636D02*
X10748271Y-13302160D01*
X10748271Y-13302160D02*
X10738747Y-13321207D01*
X10738747Y-13321207D02*
X10738747Y-13368826D01*
X10738747Y-13368826D02*
X10748271Y-13387874D01*
X10748271Y-13387874D02*
X10757794Y-13397398D01*
X10757794Y-13397398D02*
X10776842Y-13406922D01*
X10776842Y-13406922D02*
X10814937Y-13406922D01*
X10814937Y-13406922D02*
X10833985Y-13397398D01*
X10833985Y-13397398D02*
X10843509Y-13387874D01*
X10843509Y-13387874D02*
X10853033Y-13368826D01*
X10967318Y-13368826D02*
X10948271Y-13359302D01*
X10948271Y-13359302D02*
X10938747Y-13349779D01*
X10938747Y-13349779D02*
X10929223Y-13330731D01*
X10929223Y-13330731D02*
X10929223Y-13321207D01*
X10929223Y-13321207D02*
X10938747Y-13302160D01*
X10938747Y-13302160D02*
X10948271Y-13292636D01*
X10948271Y-13292636D02*
X10967318Y-13283112D01*
X10967318Y-13283112D02*
X11005414Y-13283112D01*
X11005414Y-13283112D02*
X11024461Y-13292636D01*
X11024461Y-13292636D02*
X11033985Y-13302160D01*
X11033985Y-13302160D02*
X11043509Y-13321207D01*
X11043509Y-13321207D02*
X11043509Y-13330731D01*
X11043509Y-13330731D02*
X11033985Y-13349779D01*
X11033985Y-13349779D02*
X11024461Y-13359302D01*
X11024461Y-13359302D02*
X11005414Y-13368826D01*
X11005414Y-13368826D02*
X10967318Y-13368826D01*
X10967318Y-13368826D02*
X10948271Y-13378350D01*
X10948271Y-13378350D02*
X10938747Y-13387874D01*
X10938747Y-13387874D02*
X10929223Y-13406922D01*
X10929223Y-13406922D02*
X10929223Y-13445017D01*
X10929223Y-13445017D02*
X10938747Y-13464064D01*
X10938747Y-13464064D02*
X10948271Y-13473588D01*
X10948271Y-13473588D02*
X10967318Y-13483112D01*
X10967318Y-13483112D02*
X11005414Y-13483112D01*
X11005414Y-13483112D02*
X11024461Y-13473588D01*
X11024461Y-13473588D02*
X11033985Y-13464064D01*
X11033985Y-13464064D02*
X11043509Y-13445017D01*
X11043509Y-13445017D02*
X11043509Y-13406922D01*
X11043509Y-13406922D02*
X11033985Y-13387874D01*
X11033985Y-13387874D02*
X11024461Y-13378350D01*
X11024461Y-13378350D02*
X11005414Y-13368826D01*
X11281604Y-13483112D02*
X11281604Y-13283112D01*
X11367318Y-13483112D02*
X11367318Y-13378350D01*
X11367318Y-13378350D02*
X11357794Y-13359302D01*
X11357794Y-13359302D02*
X11338747Y-13349779D01*
X11338747Y-13349779D02*
X11310175Y-13349779D01*
X11310175Y-13349779D02*
X11291128Y-13359302D01*
X11291128Y-13359302D02*
X11281604Y-13368826D01*
X11491128Y-13483112D02*
X11472080Y-13473588D01*
X11472080Y-13473588D02*
X11462556Y-13464064D01*
X11462556Y-13464064D02*
X11453033Y-13445017D01*
X11453033Y-13445017D02*
X11453033Y-13387874D01*
X11453033Y-13387874D02*
X11462556Y-13368826D01*
X11462556Y-13368826D02*
X11472080Y-13359302D01*
X11472080Y-13359302D02*
X11491128Y-13349779D01*
X11491128Y-13349779D02*
X11519699Y-13349779D01*
X11519699Y-13349779D02*
X11538747Y-13359302D01*
X11538747Y-13359302D02*
X11548271Y-13368826D01*
X11548271Y-13368826D02*
X11557794Y-13387874D01*
X11557794Y-13387874D02*
X11557794Y-13445017D01*
X11557794Y-13445017D02*
X11548271Y-13464064D01*
X11548271Y-13464064D02*
X11538747Y-13473588D01*
X11538747Y-13473588D02*
X11519699Y-13483112D01*
X11519699Y-13483112D02*
X11491128Y-13483112D01*
X11672080Y-13483112D02*
X11653033Y-13473588D01*
X11653033Y-13473588D02*
X11643509Y-13454541D01*
X11643509Y-13454541D02*
X11643509Y-13283112D01*
X11824461Y-13473588D02*
X11805414Y-13483112D01*
X11805414Y-13483112D02*
X11767318Y-13483112D01*
X11767318Y-13483112D02*
X11748271Y-13473588D01*
X11748271Y-13473588D02*
X11738747Y-13454541D01*
X11738747Y-13454541D02*
X11738747Y-13378350D01*
X11738747Y-13378350D02*
X11748271Y-13359302D01*
X11748271Y-13359302D02*
X11767318Y-13349779D01*
X11767318Y-13349779D02*
X11805414Y-13349779D01*
X11805414Y-13349779D02*
X11824461Y-13359302D01*
X11824461Y-13359302D02*
X11833985Y-13378350D01*
X11833985Y-13378350D02*
X11833985Y-13397398D01*
X11833985Y-13397398D02*
X11738747Y-13416445D01*
X11910175Y-13473588D02*
X11929223Y-13483112D01*
X11929223Y-13483112D02*
X11967318Y-13483112D01*
X11967318Y-13483112D02*
X11986366Y-13473588D01*
X11986366Y-13473588D02*
X11995890Y-13454541D01*
X11995890Y-13454541D02*
X11995890Y-13445017D01*
X11995890Y-13445017D02*
X11986366Y-13425969D01*
X11986366Y-13425969D02*
X11967318Y-13416445D01*
X11967318Y-13416445D02*
X11938747Y-13416445D01*
X11938747Y-13416445D02*
X11919699Y-13406922D01*
X11919699Y-13406922D02*
X11910175Y-13387874D01*
X11910175Y-13387874D02*
X11910175Y-13378350D01*
X11910175Y-13378350D02*
X11919699Y-13359302D01*
X11919699Y-13359302D02*
X11938747Y-13349779D01*
X11938747Y-13349779D02*
X11967318Y-13349779D01*
X11967318Y-13349779D02*
X11986366Y-13359302D01*
X12062556Y-13559302D02*
X12072080Y-13549779D01*
X12072080Y-13549779D02*
X12091128Y-13521207D01*
X12091128Y-13521207D02*
X12100652Y-13502160D01*
X12100652Y-13502160D02*
X12110175Y-13473588D01*
X12110175Y-13473588D02*
X12119699Y-13425969D01*
X12119699Y-13425969D02*
X12119699Y-13387874D01*
X12119699Y-13387874D02*
X12110175Y-13340255D01*
X12110175Y-13340255D02*
X12100652Y-13311683D01*
X12100652Y-13311683D02*
X12091128Y-13292636D01*
X12091128Y-13292636D02*
X12072080Y-13264064D01*
X12072080Y-13264064D02*
X12062556Y-13254541D01*
D12*
X7067017Y-13625628D02*
X7067017Y-13685628D01*
X7037017Y-13655628D02*
X7097017Y-13655628D01*
D11*
X7395889Y-13547112D02*
X7414937Y-13547112D01*
X7414937Y-13547112D02*
X7433985Y-13556636D01*
X7433985Y-13556636D02*
X7443508Y-13566160D01*
X7443508Y-13566160D02*
X7453032Y-13585207D01*
X7453032Y-13585207D02*
X7462556Y-13623302D01*
X7462556Y-13623302D02*
X7462556Y-13670922D01*
X7462556Y-13670922D02*
X7453032Y-13709017D01*
X7453032Y-13709017D02*
X7443508Y-13728064D01*
X7443508Y-13728064D02*
X7433985Y-13737588D01*
X7433985Y-13737588D02*
X7414937Y-13747112D01*
X7414937Y-13747112D02*
X7395889Y-13747112D01*
X7395889Y-13747112D02*
X7376842Y-13737588D01*
X7376842Y-13737588D02*
X7367318Y-13728064D01*
X7367318Y-13728064D02*
X7357794Y-13709017D01*
X7357794Y-13709017D02*
X7348270Y-13670922D01*
X7348270Y-13670922D02*
X7348270Y-13623302D01*
X7348270Y-13623302D02*
X7357794Y-13585207D01*
X7357794Y-13585207D02*
X7367318Y-13566160D01*
X7367318Y-13566160D02*
X7376842Y-13556636D01*
X7376842Y-13556636D02*
X7395889Y-13547112D01*
X7548270Y-13728064D02*
X7557794Y-13737588D01*
X7557794Y-13737588D02*
X7548270Y-13747112D01*
X7548270Y-13747112D02*
X7538746Y-13737588D01*
X7538746Y-13737588D02*
X7548270Y-13728064D01*
X7548270Y-13728064D02*
X7548270Y-13747112D01*
X7729223Y-13547112D02*
X7691127Y-13547112D01*
X7691127Y-13547112D02*
X7672080Y-13556636D01*
X7672080Y-13556636D02*
X7662556Y-13566160D01*
X7662556Y-13566160D02*
X7643508Y-13594731D01*
X7643508Y-13594731D02*
X7633985Y-13632826D01*
X7633985Y-13632826D02*
X7633985Y-13709017D01*
X7633985Y-13709017D02*
X7643508Y-13728064D01*
X7643508Y-13728064D02*
X7653032Y-13737588D01*
X7653032Y-13737588D02*
X7672080Y-13747112D01*
X7672080Y-13747112D02*
X7710175Y-13747112D01*
X7710175Y-13747112D02*
X7729223Y-13737588D01*
X7729223Y-13737588D02*
X7738746Y-13728064D01*
X7738746Y-13728064D02*
X7748270Y-13709017D01*
X7748270Y-13709017D02*
X7748270Y-13661398D01*
X7748270Y-13661398D02*
X7738746Y-13642350D01*
X7738746Y-13642350D02*
X7729223Y-13632826D01*
X7729223Y-13632826D02*
X7710175Y-13623302D01*
X7710175Y-13623302D02*
X7672080Y-13623302D01*
X7672080Y-13623302D02*
X7653032Y-13632826D01*
X7653032Y-13632826D02*
X7643508Y-13642350D01*
X7643508Y-13642350D02*
X7633985Y-13661398D01*
X7872080Y-13547112D02*
X7891127Y-13547112D01*
X7891127Y-13547112D02*
X7910175Y-13556636D01*
X7910175Y-13556636D02*
X7919699Y-13566160D01*
X7919699Y-13566160D02*
X7929223Y-13585207D01*
X7929223Y-13585207D02*
X7938746Y-13623302D01*
X7938746Y-13623302D02*
X7938746Y-13670922D01*
X7938746Y-13670922D02*
X7929223Y-13709017D01*
X7929223Y-13709017D02*
X7919699Y-13728064D01*
X7919699Y-13728064D02*
X7910175Y-13737588D01*
X7910175Y-13737588D02*
X7891127Y-13747112D01*
X7891127Y-13747112D02*
X7872080Y-13747112D01*
X7872080Y-13747112D02*
X7853032Y-13737588D01*
X7853032Y-13737588D02*
X7843508Y-13728064D01*
X7843508Y-13728064D02*
X7833985Y-13709017D01*
X7833985Y-13709017D02*
X7824461Y-13670922D01*
X7824461Y-13670922D02*
X7824461Y-13623302D01*
X7824461Y-13623302D02*
X7833985Y-13585207D01*
X7833985Y-13585207D02*
X7843508Y-13566160D01*
X7843508Y-13566160D02*
X7853032Y-13556636D01*
X7853032Y-13556636D02*
X7872080Y-13547112D01*
X8062556Y-13547112D02*
X8081604Y-13547112D01*
X8081604Y-13547112D02*
X8100651Y-13556636D01*
X8100651Y-13556636D02*
X8110175Y-13566160D01*
X8110175Y-13566160D02*
X8119699Y-13585207D01*
X8119699Y-13585207D02*
X8129223Y-13623302D01*
X8129223Y-13623302D02*
X8129223Y-13670922D01*
X8129223Y-13670922D02*
X8119699Y-13709017D01*
X8119699Y-13709017D02*
X8110175Y-13728064D01*
X8110175Y-13728064D02*
X8100651Y-13737588D01*
X8100651Y-13737588D02*
X8081604Y-13747112D01*
X8081604Y-13747112D02*
X8062556Y-13747112D01*
X8062556Y-13747112D02*
X8043508Y-13737588D01*
X8043508Y-13737588D02*
X8033985Y-13728064D01*
X8033985Y-13728064D02*
X8024461Y-13709017D01*
X8024461Y-13709017D02*
X8014937Y-13670922D01*
X8014937Y-13670922D02*
X8014937Y-13623302D01*
X8014937Y-13623302D02*
X8024461Y-13585207D01*
X8024461Y-13585207D02*
X8033985Y-13566160D01*
X8033985Y-13566160D02*
X8043508Y-13556636D01*
X8043508Y-13556636D02*
X8062556Y-13547112D01*
X8214937Y-13747112D02*
X8214937Y-13613779D01*
X8214937Y-13632826D02*
X8224461Y-13623302D01*
X8224461Y-13623302D02*
X8243508Y-13613779D01*
X8243508Y-13613779D02*
X8272080Y-13613779D01*
X8272080Y-13613779D02*
X8291127Y-13623302D01*
X8291127Y-13623302D02*
X8300651Y-13642350D01*
X8300651Y-13642350D02*
X8300651Y-13747112D01*
X8300651Y-13642350D02*
X8310175Y-13623302D01*
X8310175Y-13623302D02*
X8329223Y-13613779D01*
X8329223Y-13613779D02*
X8357794Y-13613779D01*
X8357794Y-13613779D02*
X8376842Y-13623302D01*
X8376842Y-13623302D02*
X8386366Y-13642350D01*
X8386366Y-13642350D02*
X8386366Y-13747112D01*
X8481604Y-13747112D02*
X8481604Y-13613779D01*
X8481604Y-13632826D02*
X8491128Y-13623302D01*
X8491128Y-13623302D02*
X8510175Y-13613779D01*
X8510175Y-13613779D02*
X8538747Y-13613779D01*
X8538747Y-13613779D02*
X8557794Y-13623302D01*
X8557794Y-13623302D02*
X8567318Y-13642350D01*
X8567318Y-13642350D02*
X8567318Y-13747112D01*
X8567318Y-13642350D02*
X8576842Y-13623302D01*
X8576842Y-13623302D02*
X8595889Y-13613779D01*
X8595889Y-13613779D02*
X8624461Y-13613779D01*
X8624461Y-13613779D02*
X8643509Y-13623302D01*
X8643509Y-13623302D02*
X8653032Y-13642350D01*
X8653032Y-13642350D02*
X8653032Y-13747112D01*
X9043509Y-13537588D02*
X8872080Y-13794731D01*
X9300651Y-13547112D02*
X9319699Y-13547112D01*
X9319699Y-13547112D02*
X9338747Y-13556636D01*
X9338747Y-13556636D02*
X9348271Y-13566160D01*
X9348271Y-13566160D02*
X9357794Y-13585207D01*
X9357794Y-13585207D02*
X9367318Y-13623302D01*
X9367318Y-13623302D02*
X9367318Y-13670922D01*
X9367318Y-13670922D02*
X9357794Y-13709017D01*
X9357794Y-13709017D02*
X9348271Y-13728064D01*
X9348271Y-13728064D02*
X9338747Y-13737588D01*
X9338747Y-13737588D02*
X9319699Y-13747112D01*
X9319699Y-13747112D02*
X9300651Y-13747112D01*
X9300651Y-13747112D02*
X9281604Y-13737588D01*
X9281604Y-13737588D02*
X9272080Y-13728064D01*
X9272080Y-13728064D02*
X9262556Y-13709017D01*
X9262556Y-13709017D02*
X9253032Y-13670922D01*
X9253032Y-13670922D02*
X9253032Y-13623302D01*
X9253032Y-13623302D02*
X9262556Y-13585207D01*
X9262556Y-13585207D02*
X9272080Y-13566160D01*
X9272080Y-13566160D02*
X9281604Y-13556636D01*
X9281604Y-13556636D02*
X9300651Y-13547112D01*
X9453032Y-13728064D02*
X9462556Y-13737588D01*
X9462556Y-13737588D02*
X9453032Y-13747112D01*
X9453032Y-13747112D02*
X9443509Y-13737588D01*
X9443509Y-13737588D02*
X9453032Y-13728064D01*
X9453032Y-13728064D02*
X9453032Y-13747112D01*
X9586366Y-13547112D02*
X9605413Y-13547112D01*
X9605413Y-13547112D02*
X9624461Y-13556636D01*
X9624461Y-13556636D02*
X9633985Y-13566160D01*
X9633985Y-13566160D02*
X9643509Y-13585207D01*
X9643509Y-13585207D02*
X9653032Y-13623302D01*
X9653032Y-13623302D02*
X9653032Y-13670922D01*
X9653032Y-13670922D02*
X9643509Y-13709017D01*
X9643509Y-13709017D02*
X9633985Y-13728064D01*
X9633985Y-13728064D02*
X9624461Y-13737588D01*
X9624461Y-13737588D02*
X9605413Y-13747112D01*
X9605413Y-13747112D02*
X9586366Y-13747112D01*
X9586366Y-13747112D02*
X9567318Y-13737588D01*
X9567318Y-13737588D02*
X9557794Y-13728064D01*
X9557794Y-13728064D02*
X9548271Y-13709017D01*
X9548271Y-13709017D02*
X9538747Y-13670922D01*
X9538747Y-13670922D02*
X9538747Y-13623302D01*
X9538747Y-13623302D02*
X9548271Y-13585207D01*
X9548271Y-13585207D02*
X9557794Y-13566160D01*
X9557794Y-13566160D02*
X9567318Y-13556636D01*
X9567318Y-13556636D02*
X9586366Y-13547112D01*
X9729223Y-13566160D02*
X9738747Y-13556636D01*
X9738747Y-13556636D02*
X9757794Y-13547112D01*
X9757794Y-13547112D02*
X9805413Y-13547112D01*
X9805413Y-13547112D02*
X9824461Y-13556636D01*
X9824461Y-13556636D02*
X9833985Y-13566160D01*
X9833985Y-13566160D02*
X9843509Y-13585207D01*
X9843509Y-13585207D02*
X9843509Y-13604255D01*
X9843509Y-13604255D02*
X9833985Y-13632826D01*
X9833985Y-13632826D02*
X9719699Y-13747112D01*
X9719699Y-13747112D02*
X9843509Y-13747112D01*
X9910175Y-13547112D02*
X10033985Y-13547112D01*
X10033985Y-13547112D02*
X9967318Y-13623302D01*
X9967318Y-13623302D02*
X9995890Y-13623302D01*
X9995890Y-13623302D02*
X10014937Y-13632826D01*
X10014937Y-13632826D02*
X10024461Y-13642350D01*
X10024461Y-13642350D02*
X10033985Y-13661398D01*
X10033985Y-13661398D02*
X10033985Y-13709017D01*
X10033985Y-13709017D02*
X10024461Y-13728064D01*
X10024461Y-13728064D02*
X10014937Y-13737588D01*
X10014937Y-13737588D02*
X9995890Y-13747112D01*
X9995890Y-13747112D02*
X9938747Y-13747112D01*
X9938747Y-13747112D02*
X9919699Y-13737588D01*
X9919699Y-13737588D02*
X9910175Y-13728064D01*
X10205413Y-13547112D02*
X10167318Y-13547112D01*
X10167318Y-13547112D02*
X10148271Y-13556636D01*
X10148271Y-13556636D02*
X10138747Y-13566160D01*
X10138747Y-13566160D02*
X10119699Y-13594731D01*
X10119699Y-13594731D02*
X10110175Y-13632826D01*
X10110175Y-13632826D02*
X10110175Y-13709017D01*
X10110175Y-13709017D02*
X10119699Y-13728064D01*
X10119699Y-13728064D02*
X10129223Y-13737588D01*
X10129223Y-13737588D02*
X10148271Y-13747112D01*
X10148271Y-13747112D02*
X10186366Y-13747112D01*
X10186366Y-13747112D02*
X10205413Y-13737588D01*
X10205413Y-13737588D02*
X10214937Y-13728064D01*
X10214937Y-13728064D02*
X10224461Y-13709017D01*
X10224461Y-13709017D02*
X10224461Y-13661398D01*
X10224461Y-13661398D02*
X10214937Y-13642350D01*
X10214937Y-13642350D02*
X10205413Y-13632826D01*
X10205413Y-13632826D02*
X10186366Y-13623302D01*
X10186366Y-13623302D02*
X10148271Y-13623302D01*
X10148271Y-13623302D02*
X10129223Y-13632826D01*
X10129223Y-13632826D02*
X10119699Y-13642350D01*
X10119699Y-13642350D02*
X10110175Y-13661398D01*
X10300652Y-13547112D02*
X10300652Y-13585207D01*
X10376842Y-13547112D02*
X10376842Y-13585207D01*
X10672080Y-13823302D02*
X10662556Y-13813779D01*
X10662556Y-13813779D02*
X10643509Y-13785207D01*
X10643509Y-13785207D02*
X10633985Y-13766160D01*
X10633985Y-13766160D02*
X10624461Y-13737588D01*
X10624461Y-13737588D02*
X10614937Y-13689969D01*
X10614937Y-13689969D02*
X10614937Y-13651874D01*
X10614937Y-13651874D02*
X10624461Y-13604255D01*
X10624461Y-13604255D02*
X10633985Y-13575683D01*
X10633985Y-13575683D02*
X10643509Y-13556636D01*
X10643509Y-13556636D02*
X10662556Y-13528064D01*
X10662556Y-13528064D02*
X10672080Y-13518541D01*
X10786366Y-13547112D02*
X10805414Y-13547112D01*
X10805414Y-13547112D02*
X10824461Y-13556636D01*
X10824461Y-13556636D02*
X10833985Y-13566160D01*
X10833985Y-13566160D02*
X10843509Y-13585207D01*
X10843509Y-13585207D02*
X10853033Y-13623302D01*
X10853033Y-13623302D02*
X10853033Y-13670922D01*
X10853033Y-13670922D02*
X10843509Y-13709017D01*
X10843509Y-13709017D02*
X10833985Y-13728064D01*
X10833985Y-13728064D02*
X10824461Y-13737588D01*
X10824461Y-13737588D02*
X10805414Y-13747112D01*
X10805414Y-13747112D02*
X10786366Y-13747112D01*
X10786366Y-13747112D02*
X10767318Y-13737588D01*
X10767318Y-13737588D02*
X10757794Y-13728064D01*
X10757794Y-13728064D02*
X10748271Y-13709017D01*
X10748271Y-13709017D02*
X10738747Y-13670922D01*
X10738747Y-13670922D02*
X10738747Y-13623302D01*
X10738747Y-13623302D02*
X10748271Y-13585207D01*
X10748271Y-13585207D02*
X10757794Y-13566160D01*
X10757794Y-13566160D02*
X10767318Y-13556636D01*
X10767318Y-13556636D02*
X10786366Y-13547112D01*
X11091128Y-13747112D02*
X11091128Y-13547112D01*
X11176842Y-13747112D02*
X11176842Y-13642350D01*
X11176842Y-13642350D02*
X11167318Y-13623302D01*
X11167318Y-13623302D02*
X11148271Y-13613779D01*
X11148271Y-13613779D02*
X11119699Y-13613779D01*
X11119699Y-13613779D02*
X11100652Y-13623302D01*
X11100652Y-13623302D02*
X11091128Y-13632826D01*
X11300652Y-13747112D02*
X11281604Y-13737588D01*
X11281604Y-13737588D02*
X11272080Y-13728064D01*
X11272080Y-13728064D02*
X11262556Y-13709017D01*
X11262556Y-13709017D02*
X11262556Y-13651874D01*
X11262556Y-13651874D02*
X11272080Y-13632826D01*
X11272080Y-13632826D02*
X11281604Y-13623302D01*
X11281604Y-13623302D02*
X11300652Y-13613779D01*
X11300652Y-13613779D02*
X11329223Y-13613779D01*
X11329223Y-13613779D02*
X11348271Y-13623302D01*
X11348271Y-13623302D02*
X11357794Y-13632826D01*
X11357794Y-13632826D02*
X11367318Y-13651874D01*
X11367318Y-13651874D02*
X11367318Y-13709017D01*
X11367318Y-13709017D02*
X11357794Y-13728064D01*
X11357794Y-13728064D02*
X11348271Y-13737588D01*
X11348271Y-13737588D02*
X11329223Y-13747112D01*
X11329223Y-13747112D02*
X11300652Y-13747112D01*
X11481604Y-13747112D02*
X11462556Y-13737588D01*
X11462556Y-13737588D02*
X11453033Y-13718541D01*
X11453033Y-13718541D02*
X11453033Y-13547112D01*
X11633985Y-13737588D02*
X11614937Y-13747112D01*
X11614937Y-13747112D02*
X11576842Y-13747112D01*
X11576842Y-13747112D02*
X11557794Y-13737588D01*
X11557794Y-13737588D02*
X11548271Y-13718541D01*
X11548271Y-13718541D02*
X11548271Y-13642350D01*
X11548271Y-13642350D02*
X11557794Y-13623302D01*
X11557794Y-13623302D02*
X11576842Y-13613779D01*
X11576842Y-13613779D02*
X11614937Y-13613779D01*
X11614937Y-13613779D02*
X11633985Y-13623302D01*
X11633985Y-13623302D02*
X11643509Y-13642350D01*
X11643509Y-13642350D02*
X11643509Y-13661398D01*
X11643509Y-13661398D02*
X11548271Y-13680445D01*
X11719699Y-13737588D02*
X11738747Y-13747112D01*
X11738747Y-13747112D02*
X11776842Y-13747112D01*
X11776842Y-13747112D02*
X11795890Y-13737588D01*
X11795890Y-13737588D02*
X11805414Y-13718541D01*
X11805414Y-13718541D02*
X11805414Y-13709017D01*
X11805414Y-13709017D02*
X11795890Y-13689969D01*
X11795890Y-13689969D02*
X11776842Y-13680445D01*
X11776842Y-13680445D02*
X11748271Y-13680445D01*
X11748271Y-13680445D02*
X11729223Y-13670922D01*
X11729223Y-13670922D02*
X11719699Y-13651874D01*
X11719699Y-13651874D02*
X11719699Y-13642350D01*
X11719699Y-13642350D02*
X11729223Y-13623302D01*
X11729223Y-13623302D02*
X11748271Y-13613779D01*
X11748271Y-13613779D02*
X11776842Y-13613779D01*
X11776842Y-13613779D02*
X11795890Y-13623302D01*
X12043509Y-13670922D02*
X12195890Y-13670922D01*
X12119699Y-13747112D02*
X12119699Y-13594731D01*
X12472080Y-13632826D02*
X12453033Y-13623302D01*
X12453033Y-13623302D02*
X12443509Y-13613779D01*
X12443509Y-13613779D02*
X12433985Y-13594731D01*
X12433985Y-13594731D02*
X12433985Y-13585207D01*
X12433985Y-13585207D02*
X12443509Y-13566160D01*
X12443509Y-13566160D02*
X12453033Y-13556636D01*
X12453033Y-13556636D02*
X12472080Y-13547112D01*
X12472080Y-13547112D02*
X12510176Y-13547112D01*
X12510176Y-13547112D02*
X12529223Y-13556636D01*
X12529223Y-13556636D02*
X12538747Y-13566160D01*
X12538747Y-13566160D02*
X12548271Y-13585207D01*
X12548271Y-13585207D02*
X12548271Y-13594731D01*
X12548271Y-13594731D02*
X12538747Y-13613779D01*
X12538747Y-13613779D02*
X12529223Y-13623302D01*
X12529223Y-13623302D02*
X12510176Y-13632826D01*
X12510176Y-13632826D02*
X12472080Y-13632826D01*
X12472080Y-13632826D02*
X12453033Y-13642350D01*
X12453033Y-13642350D02*
X12443509Y-13651874D01*
X12443509Y-13651874D02*
X12433985Y-13670922D01*
X12433985Y-13670922D02*
X12433985Y-13709017D01*
X12433985Y-13709017D02*
X12443509Y-13728064D01*
X12443509Y-13728064D02*
X12453033Y-13737588D01*
X12453033Y-13737588D02*
X12472080Y-13747112D01*
X12472080Y-13747112D02*
X12510176Y-13747112D01*
X12510176Y-13747112D02*
X12529223Y-13737588D01*
X12529223Y-13737588D02*
X12538747Y-13728064D01*
X12538747Y-13728064D02*
X12548271Y-13709017D01*
X12548271Y-13709017D02*
X12548271Y-13670922D01*
X12548271Y-13670922D02*
X12538747Y-13651874D01*
X12538747Y-13651874D02*
X12529223Y-13642350D01*
X12529223Y-13642350D02*
X12510176Y-13632826D01*
X12776842Y-13737588D02*
X12795890Y-13747112D01*
X12795890Y-13747112D02*
X12833985Y-13747112D01*
X12833985Y-13747112D02*
X12853033Y-13737588D01*
X12853033Y-13737588D02*
X12862557Y-13718541D01*
X12862557Y-13718541D02*
X12862557Y-13709017D01*
X12862557Y-13709017D02*
X12853033Y-13689969D01*
X12853033Y-13689969D02*
X12833985Y-13680445D01*
X12833985Y-13680445D02*
X12805414Y-13680445D01*
X12805414Y-13680445D02*
X12786366Y-13670922D01*
X12786366Y-13670922D02*
X12776842Y-13651874D01*
X12776842Y-13651874D02*
X12776842Y-13642350D01*
X12776842Y-13642350D02*
X12786366Y-13623302D01*
X12786366Y-13623302D02*
X12805414Y-13613779D01*
X12805414Y-13613779D02*
X12833985Y-13613779D01*
X12833985Y-13613779D02*
X12853033Y-13623302D01*
X12976842Y-13747112D02*
X12957795Y-13737588D01*
X12957795Y-13737588D02*
X12948271Y-13718541D01*
X12948271Y-13718541D02*
X12948271Y-13547112D01*
X13081604Y-13747112D02*
X13062557Y-13737588D01*
X13062557Y-13737588D02*
X13053033Y-13728064D01*
X13053033Y-13728064D02*
X13043509Y-13709017D01*
X13043509Y-13709017D02*
X13043509Y-13651874D01*
X13043509Y-13651874D02*
X13053033Y-13632826D01*
X13053033Y-13632826D02*
X13062557Y-13623302D01*
X13062557Y-13623302D02*
X13081604Y-13613779D01*
X13081604Y-13613779D02*
X13110176Y-13613779D01*
X13110176Y-13613779D02*
X13129223Y-13623302D01*
X13129223Y-13623302D02*
X13138747Y-13632826D01*
X13138747Y-13632826D02*
X13148271Y-13651874D01*
X13148271Y-13651874D02*
X13148271Y-13709017D01*
X13148271Y-13709017D02*
X13138747Y-13728064D01*
X13138747Y-13728064D02*
X13129223Y-13737588D01*
X13129223Y-13737588D02*
X13110176Y-13747112D01*
X13110176Y-13747112D02*
X13081604Y-13747112D01*
X13205414Y-13613779D02*
X13281604Y-13613779D01*
X13233985Y-13547112D02*
X13233985Y-13718541D01*
X13233985Y-13718541D02*
X13243509Y-13737588D01*
X13243509Y-13737588D02*
X13262557Y-13747112D01*
X13262557Y-13747112D02*
X13281604Y-13747112D01*
X13338747Y-13737588D02*
X13357795Y-13747112D01*
X13357795Y-13747112D02*
X13395890Y-13747112D01*
X13395890Y-13747112D02*
X13414938Y-13737588D01*
X13414938Y-13737588D02*
X13424461Y-13718541D01*
X13424461Y-13718541D02*
X13424461Y-13709017D01*
X13424461Y-13709017D02*
X13414938Y-13689969D01*
X13414938Y-13689969D02*
X13395890Y-13680445D01*
X13395890Y-13680445D02*
X13367318Y-13680445D01*
X13367318Y-13680445D02*
X13348271Y-13670922D01*
X13348271Y-13670922D02*
X13338747Y-13651874D01*
X13338747Y-13651874D02*
X13338747Y-13642350D01*
X13338747Y-13642350D02*
X13348271Y-13623302D01*
X13348271Y-13623302D02*
X13367318Y-13613779D01*
X13367318Y-13613779D02*
X13395890Y-13613779D01*
X13395890Y-13613779D02*
X13414938Y-13623302D01*
X13491128Y-13823302D02*
X13500652Y-13813779D01*
X13500652Y-13813779D02*
X13519699Y-13785207D01*
X13519699Y-13785207D02*
X13529223Y-13766160D01*
X13529223Y-13766160D02*
X13538747Y-13737588D01*
X13538747Y-13737588D02*
X13548271Y-13689969D01*
X13548271Y-13689969D02*
X13548271Y-13651874D01*
X13548271Y-13651874D02*
X13538747Y-13604255D01*
X13538747Y-13604255D02*
X13529223Y-13575683D01*
X13529223Y-13575683D02*
X13519699Y-13556636D01*
X13519699Y-13556636D02*
X13500652Y-13528064D01*
X13500652Y-13528064D02*
X13491128Y-13518541D01*
D13*
X7077980Y-13965591D02*
X7077980Y-13873666D01*
X6986055Y-13873666D01*
X6986055Y-13965591D01*
X7077980Y-13965591D01*
D11*
X7462556Y-14011112D02*
X7348270Y-14011112D01*
X7405413Y-14011112D02*
X7405413Y-13811112D01*
X7405413Y-13811112D02*
X7386365Y-13839683D01*
X7386365Y-13839683D02*
X7367318Y-13858731D01*
X7367318Y-13858731D02*
X7348270Y-13868255D01*
X7548270Y-13992064D02*
X7557794Y-14001588D01*
X7557794Y-14001588D02*
X7548270Y-14011112D01*
X7548270Y-14011112D02*
X7538746Y-14001588D01*
X7538746Y-14001588D02*
X7548270Y-13992064D01*
X7548270Y-13992064D02*
X7548270Y-14011112D01*
X7624461Y-13811112D02*
X7748270Y-13811112D01*
X7748270Y-13811112D02*
X7681604Y-13887302D01*
X7681604Y-13887302D02*
X7710175Y-13887302D01*
X7710175Y-13887302D02*
X7729223Y-13896826D01*
X7729223Y-13896826D02*
X7738746Y-13906350D01*
X7738746Y-13906350D02*
X7748270Y-13925398D01*
X7748270Y-13925398D02*
X7748270Y-13973017D01*
X7748270Y-13973017D02*
X7738746Y-13992064D01*
X7738746Y-13992064D02*
X7729223Y-14001588D01*
X7729223Y-14001588D02*
X7710175Y-14011112D01*
X7710175Y-14011112D02*
X7653032Y-14011112D01*
X7653032Y-14011112D02*
X7633985Y-14001588D01*
X7633985Y-14001588D02*
X7624461Y-13992064D01*
X7872080Y-13811112D02*
X7891127Y-13811112D01*
X7891127Y-13811112D02*
X7910175Y-13820636D01*
X7910175Y-13820636D02*
X7919699Y-13830160D01*
X7919699Y-13830160D02*
X7929223Y-13849207D01*
X7929223Y-13849207D02*
X7938746Y-13887302D01*
X7938746Y-13887302D02*
X7938746Y-13934922D01*
X7938746Y-13934922D02*
X7929223Y-13973017D01*
X7929223Y-13973017D02*
X7919699Y-13992064D01*
X7919699Y-13992064D02*
X7910175Y-14001588D01*
X7910175Y-14001588D02*
X7891127Y-14011112D01*
X7891127Y-14011112D02*
X7872080Y-14011112D01*
X7872080Y-14011112D02*
X7853032Y-14001588D01*
X7853032Y-14001588D02*
X7843508Y-13992064D01*
X7843508Y-13992064D02*
X7833985Y-13973017D01*
X7833985Y-13973017D02*
X7824461Y-13934922D01*
X7824461Y-13934922D02*
X7824461Y-13887302D01*
X7824461Y-13887302D02*
X7833985Y-13849207D01*
X7833985Y-13849207D02*
X7843508Y-13830160D01*
X7843508Y-13830160D02*
X7853032Y-13820636D01*
X7853032Y-13820636D02*
X7872080Y-13811112D01*
X8062556Y-13811112D02*
X8081604Y-13811112D01*
X8081604Y-13811112D02*
X8100651Y-13820636D01*
X8100651Y-13820636D02*
X8110175Y-13830160D01*
X8110175Y-13830160D02*
X8119699Y-13849207D01*
X8119699Y-13849207D02*
X8129223Y-13887302D01*
X8129223Y-13887302D02*
X8129223Y-13934922D01*
X8129223Y-13934922D02*
X8119699Y-13973017D01*
X8119699Y-13973017D02*
X8110175Y-13992064D01*
X8110175Y-13992064D02*
X8100651Y-14001588D01*
X8100651Y-14001588D02*
X8081604Y-14011112D01*
X8081604Y-14011112D02*
X8062556Y-14011112D01*
X8062556Y-14011112D02*
X8043508Y-14001588D01*
X8043508Y-14001588D02*
X8033985Y-13992064D01*
X8033985Y-13992064D02*
X8024461Y-13973017D01*
X8024461Y-13973017D02*
X8014937Y-13934922D01*
X8014937Y-13934922D02*
X8014937Y-13887302D01*
X8014937Y-13887302D02*
X8024461Y-13849207D01*
X8024461Y-13849207D02*
X8033985Y-13830160D01*
X8033985Y-13830160D02*
X8043508Y-13820636D01*
X8043508Y-13820636D02*
X8062556Y-13811112D01*
X8214937Y-14011112D02*
X8214937Y-13877779D01*
X8214937Y-13896826D02*
X8224461Y-13887302D01*
X8224461Y-13887302D02*
X8243508Y-13877779D01*
X8243508Y-13877779D02*
X8272080Y-13877779D01*
X8272080Y-13877779D02*
X8291127Y-13887302D01*
X8291127Y-13887302D02*
X8300651Y-13906350D01*
X8300651Y-13906350D02*
X8300651Y-14011112D01*
X8300651Y-13906350D02*
X8310175Y-13887302D01*
X8310175Y-13887302D02*
X8329223Y-13877779D01*
X8329223Y-13877779D02*
X8357794Y-13877779D01*
X8357794Y-13877779D02*
X8376842Y-13887302D01*
X8376842Y-13887302D02*
X8386366Y-13906350D01*
X8386366Y-13906350D02*
X8386366Y-14011112D01*
X8481604Y-14011112D02*
X8481604Y-13877779D01*
X8481604Y-13896826D02*
X8491128Y-13887302D01*
X8491128Y-13887302D02*
X8510175Y-13877779D01*
X8510175Y-13877779D02*
X8538747Y-13877779D01*
X8538747Y-13877779D02*
X8557794Y-13887302D01*
X8557794Y-13887302D02*
X8567318Y-13906350D01*
X8567318Y-13906350D02*
X8567318Y-14011112D01*
X8567318Y-13906350D02*
X8576842Y-13887302D01*
X8576842Y-13887302D02*
X8595889Y-13877779D01*
X8595889Y-13877779D02*
X8624461Y-13877779D01*
X8624461Y-13877779D02*
X8643509Y-13887302D01*
X8643509Y-13887302D02*
X8653032Y-13906350D01*
X8653032Y-13906350D02*
X8653032Y-14011112D01*
X9043509Y-13801588D02*
X8872080Y-14058731D01*
X9300651Y-13811112D02*
X9319699Y-13811112D01*
X9319699Y-13811112D02*
X9338747Y-13820636D01*
X9338747Y-13820636D02*
X9348271Y-13830160D01*
X9348271Y-13830160D02*
X9357794Y-13849207D01*
X9357794Y-13849207D02*
X9367318Y-13887302D01*
X9367318Y-13887302D02*
X9367318Y-13934922D01*
X9367318Y-13934922D02*
X9357794Y-13973017D01*
X9357794Y-13973017D02*
X9348271Y-13992064D01*
X9348271Y-13992064D02*
X9338747Y-14001588D01*
X9338747Y-14001588D02*
X9319699Y-14011112D01*
X9319699Y-14011112D02*
X9300651Y-14011112D01*
X9300651Y-14011112D02*
X9281604Y-14001588D01*
X9281604Y-14001588D02*
X9272080Y-13992064D01*
X9272080Y-13992064D02*
X9262556Y-13973017D01*
X9262556Y-13973017D02*
X9253032Y-13934922D01*
X9253032Y-13934922D02*
X9253032Y-13887302D01*
X9253032Y-13887302D02*
X9262556Y-13849207D01*
X9262556Y-13849207D02*
X9272080Y-13830160D01*
X9272080Y-13830160D02*
X9281604Y-13820636D01*
X9281604Y-13820636D02*
X9300651Y-13811112D01*
X9453032Y-13992064D02*
X9462556Y-14001588D01*
X9462556Y-14001588D02*
X9453032Y-14011112D01*
X9453032Y-14011112D02*
X9443509Y-14001588D01*
X9443509Y-14001588D02*
X9453032Y-13992064D01*
X9453032Y-13992064D02*
X9453032Y-14011112D01*
X9586366Y-13811112D02*
X9605413Y-13811112D01*
X9605413Y-13811112D02*
X9624461Y-13820636D01*
X9624461Y-13820636D02*
X9633985Y-13830160D01*
X9633985Y-13830160D02*
X9643509Y-13849207D01*
X9643509Y-13849207D02*
X9653032Y-13887302D01*
X9653032Y-13887302D02*
X9653032Y-13934922D01*
X9653032Y-13934922D02*
X9643509Y-13973017D01*
X9643509Y-13973017D02*
X9633985Y-13992064D01*
X9633985Y-13992064D02*
X9624461Y-14001588D01*
X9624461Y-14001588D02*
X9605413Y-14011112D01*
X9605413Y-14011112D02*
X9586366Y-14011112D01*
X9586366Y-14011112D02*
X9567318Y-14001588D01*
X9567318Y-14001588D02*
X9557794Y-13992064D01*
X9557794Y-13992064D02*
X9548271Y-13973017D01*
X9548271Y-13973017D02*
X9538747Y-13934922D01*
X9538747Y-13934922D02*
X9538747Y-13887302D01*
X9538747Y-13887302D02*
X9548271Y-13849207D01*
X9548271Y-13849207D02*
X9557794Y-13830160D01*
X9557794Y-13830160D02*
X9567318Y-13820636D01*
X9567318Y-13820636D02*
X9586366Y-13811112D01*
X9833985Y-13811112D02*
X9738747Y-13811112D01*
X9738747Y-13811112D02*
X9729223Y-13906350D01*
X9729223Y-13906350D02*
X9738747Y-13896826D01*
X9738747Y-13896826D02*
X9757794Y-13887302D01*
X9757794Y-13887302D02*
X9805413Y-13887302D01*
X9805413Y-13887302D02*
X9824461Y-13896826D01*
X9824461Y-13896826D02*
X9833985Y-13906350D01*
X9833985Y-13906350D02*
X9843509Y-13925398D01*
X9843509Y-13925398D02*
X9843509Y-13973017D01*
X9843509Y-13973017D02*
X9833985Y-13992064D01*
X9833985Y-13992064D02*
X9824461Y-14001588D01*
X9824461Y-14001588D02*
X9805413Y-14011112D01*
X9805413Y-14011112D02*
X9757794Y-14011112D01*
X9757794Y-14011112D02*
X9738747Y-14001588D01*
X9738747Y-14001588D02*
X9729223Y-13992064D01*
X10033985Y-14011112D02*
X9919699Y-14011112D01*
X9976842Y-14011112D02*
X9976842Y-13811112D01*
X9976842Y-13811112D02*
X9957794Y-13839683D01*
X9957794Y-13839683D02*
X9938747Y-13858731D01*
X9938747Y-13858731D02*
X9919699Y-13868255D01*
X10110175Y-13830160D02*
X10119699Y-13820636D01*
X10119699Y-13820636D02*
X10138747Y-13811112D01*
X10138747Y-13811112D02*
X10186366Y-13811112D01*
X10186366Y-13811112D02*
X10205413Y-13820636D01*
X10205413Y-13820636D02*
X10214937Y-13830160D01*
X10214937Y-13830160D02*
X10224461Y-13849207D01*
X10224461Y-13849207D02*
X10224461Y-13868255D01*
X10224461Y-13868255D02*
X10214937Y-13896826D01*
X10214937Y-13896826D02*
X10100652Y-14011112D01*
X10100652Y-14011112D02*
X10224461Y-14011112D01*
X10300652Y-13811112D02*
X10300652Y-13849207D01*
X10376842Y-13811112D02*
X10376842Y-13849207D01*
X10672080Y-14087302D02*
X10662556Y-14077779D01*
X10662556Y-14077779D02*
X10643509Y-14049207D01*
X10643509Y-14049207D02*
X10633985Y-14030160D01*
X10633985Y-14030160D02*
X10624461Y-14001588D01*
X10624461Y-14001588D02*
X10614937Y-13953969D01*
X10614937Y-13953969D02*
X10614937Y-13915874D01*
X10614937Y-13915874D02*
X10624461Y-13868255D01*
X10624461Y-13868255D02*
X10633985Y-13839683D01*
X10633985Y-13839683D02*
X10643509Y-13820636D01*
X10643509Y-13820636D02*
X10662556Y-13792064D01*
X10662556Y-13792064D02*
X10672080Y-13782541D01*
X10738747Y-13830160D02*
X10748271Y-13820636D01*
X10748271Y-13820636D02*
X10767318Y-13811112D01*
X10767318Y-13811112D02*
X10814937Y-13811112D01*
X10814937Y-13811112D02*
X10833985Y-13820636D01*
X10833985Y-13820636D02*
X10843509Y-13830160D01*
X10843509Y-13830160D02*
X10853033Y-13849207D01*
X10853033Y-13849207D02*
X10853033Y-13868255D01*
X10853033Y-13868255D02*
X10843509Y-13896826D01*
X10843509Y-13896826D02*
X10729223Y-14011112D01*
X10729223Y-14011112D02*
X10853033Y-14011112D01*
X11091128Y-14011112D02*
X11091128Y-13811112D01*
X11176842Y-14011112D02*
X11176842Y-13906350D01*
X11176842Y-13906350D02*
X11167318Y-13887302D01*
X11167318Y-13887302D02*
X11148271Y-13877779D01*
X11148271Y-13877779D02*
X11119699Y-13877779D01*
X11119699Y-13877779D02*
X11100652Y-13887302D01*
X11100652Y-13887302D02*
X11091128Y-13896826D01*
X11300652Y-14011112D02*
X11281604Y-14001588D01*
X11281604Y-14001588D02*
X11272080Y-13992064D01*
X11272080Y-13992064D02*
X11262556Y-13973017D01*
X11262556Y-13973017D02*
X11262556Y-13915874D01*
X11262556Y-13915874D02*
X11272080Y-13896826D01*
X11272080Y-13896826D02*
X11281604Y-13887302D01*
X11281604Y-13887302D02*
X11300652Y-13877779D01*
X11300652Y-13877779D02*
X11329223Y-13877779D01*
X11329223Y-13877779D02*
X11348271Y-13887302D01*
X11348271Y-13887302D02*
X11357794Y-13896826D01*
X11357794Y-13896826D02*
X11367318Y-13915874D01*
X11367318Y-13915874D02*
X11367318Y-13973017D01*
X11367318Y-13973017D02*
X11357794Y-13992064D01*
X11357794Y-13992064D02*
X11348271Y-14001588D01*
X11348271Y-14001588D02*
X11329223Y-14011112D01*
X11329223Y-14011112D02*
X11300652Y-14011112D01*
X11481604Y-14011112D02*
X11462556Y-14001588D01*
X11462556Y-14001588D02*
X11453033Y-13982541D01*
X11453033Y-13982541D02*
X11453033Y-13811112D01*
X11633985Y-14001588D02*
X11614937Y-14011112D01*
X11614937Y-14011112D02*
X11576842Y-14011112D01*
X11576842Y-14011112D02*
X11557794Y-14001588D01*
X11557794Y-14001588D02*
X11548271Y-13982541D01*
X11548271Y-13982541D02*
X11548271Y-13906350D01*
X11548271Y-13906350D02*
X11557794Y-13887302D01*
X11557794Y-13887302D02*
X11576842Y-13877779D01*
X11576842Y-13877779D02*
X11614937Y-13877779D01*
X11614937Y-13877779D02*
X11633985Y-13887302D01*
X11633985Y-13887302D02*
X11643509Y-13906350D01*
X11643509Y-13906350D02*
X11643509Y-13925398D01*
X11643509Y-13925398D02*
X11548271Y-13944445D01*
X11719699Y-14001588D02*
X11738747Y-14011112D01*
X11738747Y-14011112D02*
X11776842Y-14011112D01*
X11776842Y-14011112D02*
X11795890Y-14001588D01*
X11795890Y-14001588D02*
X11805414Y-13982541D01*
X11805414Y-13982541D02*
X11805414Y-13973017D01*
X11805414Y-13973017D02*
X11795890Y-13953969D01*
X11795890Y-13953969D02*
X11776842Y-13944445D01*
X11776842Y-13944445D02*
X11748271Y-13944445D01*
X11748271Y-13944445D02*
X11729223Y-13934922D01*
X11729223Y-13934922D02*
X11719699Y-13915874D01*
X11719699Y-13915874D02*
X11719699Y-13906350D01*
X11719699Y-13906350D02*
X11729223Y-13887302D01*
X11729223Y-13887302D02*
X11748271Y-13877779D01*
X11748271Y-13877779D02*
X11776842Y-13877779D01*
X11776842Y-13877779D02*
X11795890Y-13887302D01*
X11872080Y-14087302D02*
X11881604Y-14077779D01*
X11881604Y-14077779D02*
X11900652Y-14049207D01*
X11900652Y-14049207D02*
X11910175Y-14030160D01*
X11910175Y-14030160D02*
X11919699Y-14001588D01*
X11919699Y-14001588D02*
X11929223Y-13953969D01*
X11929223Y-13953969D02*
X11929223Y-13915874D01*
X11929223Y-13915874D02*
X11919699Y-13868255D01*
X11919699Y-13868255D02*
X11910175Y-13839683D01*
X11910175Y-13839683D02*
X11900652Y-13820636D01*
X11900652Y-13820636D02*
X11881604Y-13792064D01*
X11881604Y-13792064D02*
X11872080Y-13782541D01*
M02*
