G04 #@! TF.GenerationSoftware,KiCad,Pcbnew,9.0.5*
G04 #@! TF.CreationDate,2025-10-24T16:35:50+02:00*
G04 #@! TF.ProjectId,Mini-EMS-ESP,4d696e69-2d45-44d5-932d-4553502e6b69,rev?*
G04 #@! TF.SameCoordinates,Original*
G04 #@! TF.FileFunction,Copper,L3,Inr*
G04 #@! TF.FilePolarity,Positive*
%FSLAX46Y46*%
G04 Gerber Fmt 4.6, Leading zero omitted, Abs format (unit mm)*
G04 Created by KiCad (PCBNEW 9.0.5) date 2025-10-24 16:35:50*
%MOMM*%
%LPD*%
G01*
G04 APERTURE LIST*
G04 Aperture macros list*
%AMRoundRect*
0 Rectangle with rounded corners*
0 $1 Rounding radius*
0 $2 $3 $4 $5 $6 $7 $8 $9 X,Y pos of 4 corners*
0 Add a 4 corners polygon primitive as box body*
4,1,4,$2,$3,$4,$5,$6,$7,$8,$9,$2,$3,0*
0 Add four circle primitives for the rounded corners*
1,1,$1+$1,$2,$3*
1,1,$1+$1,$4,$5*
1,1,$1+$1,$6,$7*
1,1,$1+$1,$8,$9*
0 Add four rect primitives between the rounded corners*
20,1,$1+$1,$2,$3,$4,$5,0*
20,1,$1+$1,$4,$5,$6,$7,0*
20,1,$1+$1,$6,$7,$8,$9,0*
20,1,$1+$1,$8,$9,$2,$3,0*%
G04 Aperture macros list end*
G04 #@! TA.AperFunction,ComponentPad*
%ADD10RoundRect,0.249999X-1.250001X1.250001X-1.250001X-1.250001X1.250001X-1.250001X1.250001X1.250001X0*%
G04 #@! TD*
G04 #@! TA.AperFunction,ComponentPad*
%ADD11C,3.000000*%
G04 #@! TD*
G04 #@! TA.AperFunction,ComponentPad*
%ADD12O,2.100000X1.000000*%
G04 #@! TD*
G04 #@! TA.AperFunction,ComponentPad*
%ADD13O,1.600000X1.000000*%
G04 #@! TD*
G04 #@! TA.AperFunction,HeatsinkPad*
%ADD14C,0.600000*%
G04 #@! TD*
G04 #@! TA.AperFunction,ViaPad*
%ADD15C,0.450000*%
G04 #@! TD*
G04 APERTURE END LIST*
D10*
X75590400Y-94136000D03*
D11*
X75590400Y-99136000D03*
D12*
X78006000Y-104392000D03*
X78006000Y-104392000D03*
D13*
X73826000Y-104392000D03*
X73826000Y-104392000D03*
D12*
X78006000Y-113032000D03*
X78006000Y-113032000D03*
D13*
X73826000Y-113032000D03*
X73826000Y-113032000D03*
D14*
X119159000Y-95351500D03*
X119159000Y-93826500D03*
X118396500Y-96114000D03*
X118396500Y-94589000D03*
X118396500Y-93064000D03*
X117634000Y-95351500D03*
X117634000Y-93826500D03*
X116871500Y-96114000D03*
X116871500Y-94589000D03*
X116871500Y-93064000D03*
X116109000Y-95351500D03*
X116109000Y-93826500D03*
D15*
X118745000Y-115443000D03*
X111556800Y-88849200D03*
X79502000Y-112522000D03*
X118745000Y-114554000D03*
X117221000Y-115443000D03*
X125603000Y-106553000D03*
X117221000Y-116332000D03*
X123444000Y-110845600D03*
X101953443Y-114501732D03*
X82677000Y-118999000D03*
X117983000Y-117221000D03*
X118745000Y-113665000D03*
X117221000Y-117221000D03*
X121285000Y-119761000D03*
X119761000Y-118745000D03*
X100203000Y-87503000D03*
X117983000Y-115443000D03*
X113588800Y-93040200D03*
X124841000Y-106553000D03*
X124307600Y-111607600D03*
X84963000Y-111633000D03*
X125120400Y-110845600D03*
X92456000Y-93726000D03*
X118999000Y-118745000D03*
X83058000Y-107188000D03*
X120523000Y-119761000D03*
X93218000Y-90170000D03*
X120523000Y-120777000D03*
X124104400Y-91897200D03*
X95123000Y-89535000D03*
X83058000Y-110490000D03*
X117221000Y-114554000D03*
X124079000Y-106553000D03*
X119761000Y-119761000D03*
X118999000Y-120777000D03*
X82042000Y-111506000D03*
X79375000Y-105029000D03*
X100838000Y-91821000D03*
X126746000Y-87249000D03*
X105283000Y-100457000D03*
X95123000Y-102489000D03*
X118745000Y-117221000D03*
X117983000Y-116332000D03*
X114604800Y-93040200D03*
X103682800Y-114503200D03*
X119761000Y-120777000D03*
X125120400Y-111607600D03*
X124079000Y-87249000D03*
X104775000Y-104394000D03*
X117221000Y-113665000D03*
X92456000Y-102235000D03*
X117983000Y-114554000D03*
X107315000Y-87249000D03*
X123317000Y-106553000D03*
X121285000Y-118745000D03*
X118999000Y-119761000D03*
X118745000Y-116332000D03*
X117983000Y-113665000D03*
X113842800Y-87122000D03*
X121285000Y-120777000D03*
X124307600Y-110845600D03*
X123444000Y-111607600D03*
X102815105Y-114501732D03*
X120523000Y-118745000D03*
X105123000Y-97188000D03*
X122021600Y-101142800D03*
X118973600Y-101142800D03*
X119989600Y-101142800D03*
X117955299Y-101138508D03*
X117449600Y-122021600D03*
X123037600Y-101142800D03*
X106553000Y-93091000D03*
X82753200Y-122021600D03*
X126746000Y-88519000D03*
X124333000Y-88519000D03*
X116433600Y-87071200D03*
X116939299Y-101138508D03*
X121005600Y-101142800D03*
X124053600Y-101142800D03*
X102666800Y-102592500D03*
X102158800Y-97078800D03*
X103505000Y-92185000D03*
X122275600Y-112979200D03*
X111760000Y-113030000D03*
X87503000Y-121285000D03*
X107543600Y-104800400D03*
X86360000Y-123190000D03*
X122936000Y-92025000D03*
X98044000Y-89052400D03*
X104648000Y-89052400D03*
X110109000Y-96139000D03*
X80330432Y-118735232D03*
X79603600Y-118719600D03*
X80137000Y-109855000D03*
X83185000Y-111506000D03*
X81153000Y-111142000D03*
X79947000Y-108913000D03*
X122783600Y-99009200D03*
G04 #@! TA.AperFunction,Conductor*
G36*
X127093457Y-86215800D02*
G01*
X127111837Y-86215821D01*
X127112351Y-86216182D01*
X127133498Y-86215844D01*
X127134494Y-86215846D01*
X127134707Y-86215908D01*
X127141310Y-86216041D01*
X127354644Y-86228052D01*
X127372354Y-86230339D01*
X127577316Y-86271990D01*
X127594512Y-86276797D01*
X127791368Y-86347480D01*
X127807693Y-86354709D01*
X127992338Y-86452952D01*
X128007452Y-86462450D01*
X128176070Y-86586223D01*
X128189660Y-86597795D01*
X128268486Y-86675378D01*
X128338722Y-86744508D01*
X128350522Y-86757929D01*
X128476943Y-86924539D01*
X128486691Y-86939517D01*
X128587847Y-87122564D01*
X128595341Y-87138787D01*
X128669135Y-87334473D01*
X128674220Y-87351605D01*
X128719120Y-87555875D01*
X128721689Y-87573561D01*
X128737059Y-87786317D01*
X128737381Y-87795253D01*
X128737175Y-123130898D01*
X128737175Y-123131033D01*
X128737153Y-123150224D01*
X128736795Y-123150736D01*
X128737130Y-123171819D01*
X128737129Y-123172879D01*
X128737066Y-123173091D01*
X128736933Y-123179712D01*
X128724926Y-123393022D01*
X128722638Y-123410746D01*
X128680991Y-123615692D01*
X128676180Y-123632903D01*
X128605503Y-123829744D01*
X128598268Y-123846084D01*
X128500032Y-124030719D01*
X128490522Y-124045851D01*
X128366764Y-124214447D01*
X128355179Y-124228053D01*
X128208473Y-124377108D01*
X128195051Y-124388909D01*
X128028445Y-124515325D01*
X128013468Y-124525073D01*
X127830413Y-124626232D01*
X127814189Y-124633726D01*
X127618498Y-124707519D01*
X127601366Y-124712603D01*
X127397106Y-124757499D01*
X127379420Y-124760068D01*
X127166569Y-124775443D01*
X127157625Y-124775765D01*
X72715544Y-124771584D01*
X72715409Y-124771584D01*
X72696218Y-124771561D01*
X72695707Y-124771203D01*
X72674632Y-124771536D01*
X72673551Y-124771535D01*
X72673341Y-124771473D01*
X72666723Y-124771339D01*
X72453427Y-124759325D01*
X72435704Y-124757037D01*
X72230758Y-124715385D01*
X72213547Y-124710573D01*
X72133525Y-124681838D01*
X72016711Y-124639891D01*
X72000383Y-124632661D01*
X71815750Y-124534419D01*
X71800621Y-124524911D01*
X71632025Y-124401148D01*
X71618420Y-124389563D01*
X71469370Y-124242858D01*
X71457570Y-124229436D01*
X71331160Y-124062834D01*
X71321412Y-124047857D01*
X71220254Y-123864801D01*
X71212765Y-123848588D01*
X71138970Y-123652887D01*
X71133892Y-123635775D01*
X71088992Y-123431497D01*
X71086426Y-123413830D01*
X71071034Y-123200760D01*
X71070712Y-123191826D01*
X71070712Y-123133982D01*
X85934500Y-123133982D01*
X85934500Y-123246018D01*
X85963497Y-123354237D01*
X86019515Y-123451263D01*
X86098737Y-123530485D01*
X86195763Y-123586503D01*
X86303982Y-123615500D01*
X86303984Y-123615500D01*
X86416016Y-123615500D01*
X86416018Y-123615500D01*
X86524237Y-123586503D01*
X86621263Y-123530485D01*
X86700485Y-123451263D01*
X86756503Y-123354237D01*
X86785500Y-123246018D01*
X86785500Y-123133982D01*
X86756503Y-123025763D01*
X86700485Y-122928737D01*
X86621263Y-122849515D01*
X86524237Y-122793497D01*
X86416018Y-122764500D01*
X86303982Y-122764500D01*
X86195763Y-122793497D01*
X86195760Y-122793498D01*
X86098740Y-122849513D01*
X86098734Y-122849517D01*
X86019517Y-122928734D01*
X86019513Y-122928740D01*
X85963498Y-123025760D01*
X85963497Y-123025763D01*
X85934500Y-123133982D01*
X71070712Y-123133982D01*
X71070712Y-123125854D01*
X71070721Y-121228982D01*
X87077500Y-121228982D01*
X87077500Y-121341018D01*
X87106497Y-121449237D01*
X87162515Y-121546263D01*
X87241737Y-121625485D01*
X87338763Y-121681503D01*
X87446982Y-121710500D01*
X87446984Y-121710500D01*
X87559016Y-121710500D01*
X87559018Y-121710500D01*
X87667237Y-121681503D01*
X87764263Y-121625485D01*
X87843485Y-121546263D01*
X87899503Y-121449237D01*
X87928500Y-121341018D01*
X87928500Y-121228982D01*
X87899503Y-121120763D01*
X87843485Y-121023737D01*
X87764263Y-120944515D01*
X87667237Y-120888497D01*
X87559018Y-120859500D01*
X87446982Y-120859500D01*
X87338763Y-120888497D01*
X87338760Y-120888498D01*
X87241740Y-120944513D01*
X87241734Y-120944517D01*
X87162517Y-121023734D01*
X87162513Y-121023740D01*
X87106498Y-121120760D01*
X87106497Y-121120763D01*
X87077500Y-121228982D01*
X71070721Y-121228982D01*
X71070733Y-118663582D01*
X79178100Y-118663582D01*
X79178100Y-118775618D01*
X79207097Y-118883837D01*
X79263115Y-118980863D01*
X79342337Y-119060085D01*
X79439363Y-119116103D01*
X79547582Y-119145100D01*
X79547584Y-119145100D01*
X79659616Y-119145100D01*
X79659618Y-119145100D01*
X79767837Y-119116103D01*
X79864863Y-119060085D01*
X79871519Y-119053429D01*
X79932842Y-119019944D01*
X80002534Y-119024928D01*
X80046881Y-119053429D01*
X80069169Y-119075717D01*
X80166195Y-119131735D01*
X80274414Y-119160732D01*
X80274416Y-119160732D01*
X80386448Y-119160732D01*
X80386450Y-119160732D01*
X80494669Y-119131735D01*
X80591695Y-119075717D01*
X80670917Y-118996495D01*
X80701813Y-118942982D01*
X82251500Y-118942982D01*
X82251500Y-119055018D01*
X82280497Y-119163237D01*
X82336515Y-119260263D01*
X82415737Y-119339485D01*
X82512763Y-119395503D01*
X82620982Y-119424500D01*
X82620984Y-119424500D01*
X82733016Y-119424500D01*
X82733018Y-119424500D01*
X82841237Y-119395503D01*
X82938263Y-119339485D01*
X83017485Y-119260263D01*
X83073503Y-119163237D01*
X83102500Y-119055018D01*
X83102500Y-118942982D01*
X83073503Y-118834763D01*
X83017485Y-118737737D01*
X82968730Y-118688982D01*
X118573500Y-118688982D01*
X118573500Y-118801018D01*
X118602497Y-118909237D01*
X118658515Y-119006263D01*
X118737737Y-119085485D01*
X118834763Y-119141503D01*
X118841802Y-119145567D01*
X118840028Y-119148639D01*
X118881781Y-119182297D01*
X118903835Y-119248595D01*
X118886544Y-119316292D01*
X118840863Y-119358807D01*
X118841802Y-119360433D01*
X118737740Y-119420513D01*
X118737734Y-119420517D01*
X118658517Y-119499734D01*
X118658513Y-119499740D01*
X118602498Y-119596760D01*
X118602497Y-119596763D01*
X118573500Y-119704982D01*
X118573500Y-119817018D01*
X118602497Y-119925237D01*
X118658515Y-120022263D01*
X118737737Y-120101485D01*
X118834763Y-120157503D01*
X118841802Y-120161567D01*
X118840028Y-120164639D01*
X118881781Y-120198297D01*
X118903835Y-120264595D01*
X118886544Y-120332292D01*
X118840863Y-120374807D01*
X118841802Y-120376433D01*
X118737740Y-120436513D01*
X118737734Y-120436517D01*
X118658517Y-120515734D01*
X118658513Y-120515740D01*
X118602498Y-120612760D01*
X118602497Y-120612763D01*
X118573500Y-120720982D01*
X118573500Y-120833018D01*
X118588366Y-120888497D01*
X118602497Y-120941236D01*
X118602498Y-120941239D01*
X118604391Y-120944517D01*
X118658515Y-121038263D01*
X118737737Y-121117485D01*
X118834763Y-121173503D01*
X118942982Y-121202500D01*
X118942984Y-121202500D01*
X119055016Y-121202500D01*
X119055018Y-121202500D01*
X119163237Y-121173503D01*
X119260263Y-121117485D01*
X119292319Y-121085429D01*
X119353642Y-121051944D01*
X119423334Y-121056928D01*
X119467681Y-121085429D01*
X119499737Y-121117485D01*
X119596763Y-121173503D01*
X119704982Y-121202500D01*
X119704984Y-121202500D01*
X119817016Y-121202500D01*
X119817018Y-121202500D01*
X119925237Y-121173503D01*
X120022263Y-121117485D01*
X120054319Y-121085429D01*
X120115642Y-121051944D01*
X120185334Y-121056928D01*
X120229681Y-121085429D01*
X120261737Y-121117485D01*
X120358763Y-121173503D01*
X120466982Y-121202500D01*
X120466984Y-121202500D01*
X120579016Y-121202500D01*
X120579018Y-121202500D01*
X120687237Y-121173503D01*
X120784263Y-121117485D01*
X120816319Y-121085429D01*
X120877642Y-121051944D01*
X120947334Y-121056928D01*
X120991681Y-121085429D01*
X121023737Y-121117485D01*
X121120763Y-121173503D01*
X121228982Y-121202500D01*
X121228984Y-121202500D01*
X121341016Y-121202500D01*
X121341018Y-121202500D01*
X121449237Y-121173503D01*
X121546263Y-121117485D01*
X121625485Y-121038263D01*
X121681503Y-120941237D01*
X121710500Y-120833018D01*
X121710500Y-120720982D01*
X121681503Y-120612763D01*
X121625485Y-120515737D01*
X121546263Y-120436515D01*
X121449237Y-120380497D01*
X121442198Y-120376433D01*
X121444001Y-120373309D01*
X121402442Y-120340024D01*
X121380179Y-120273796D01*
X121397255Y-120206046D01*
X121443091Y-120163114D01*
X121442198Y-120161567D01*
X121449237Y-120157503D01*
X121546263Y-120101485D01*
X121625485Y-120022263D01*
X121681503Y-119925237D01*
X121710500Y-119817018D01*
X121710500Y-119704982D01*
X121681503Y-119596763D01*
X121625485Y-119499737D01*
X121546263Y-119420515D01*
X121449237Y-119364497D01*
X121442198Y-119360433D01*
X121444001Y-119357309D01*
X121402442Y-119324024D01*
X121380179Y-119257796D01*
X121397255Y-119190046D01*
X121443091Y-119147114D01*
X121442198Y-119145567D01*
X121449237Y-119141503D01*
X121546263Y-119085485D01*
X121625485Y-119006263D01*
X121681503Y-118909237D01*
X121710500Y-118801018D01*
X121710500Y-118688982D01*
X121681503Y-118580763D01*
X121625485Y-118483737D01*
X121546263Y-118404515D01*
X121449237Y-118348497D01*
X121341018Y-118319500D01*
X121228982Y-118319500D01*
X121120763Y-118348497D01*
X121120760Y-118348498D01*
X121023740Y-118404513D01*
X121023734Y-118404517D01*
X120991681Y-118436571D01*
X120930358Y-118470056D01*
X120860666Y-118465072D01*
X120816319Y-118436571D01*
X120784265Y-118404517D01*
X120784263Y-118404515D01*
X120687237Y-118348497D01*
X120579018Y-118319500D01*
X120466982Y-118319500D01*
X120358763Y-118348497D01*
X120358760Y-118348498D01*
X120261740Y-118404513D01*
X120261734Y-118404517D01*
X120229681Y-118436571D01*
X120168358Y-118470056D01*
X120098666Y-118465072D01*
X120054319Y-118436571D01*
X120022265Y-118404517D01*
X120022263Y-118404515D01*
X119925237Y-118348497D01*
X119817018Y-118319500D01*
X119704982Y-118319500D01*
X119596763Y-118348497D01*
X119596760Y-118348498D01*
X119499740Y-118404513D01*
X119499734Y-118404517D01*
X119467681Y-118436571D01*
X119406358Y-118470056D01*
X119336666Y-118465072D01*
X119292319Y-118436571D01*
X119260265Y-118404517D01*
X119260263Y-118404515D01*
X119163237Y-118348497D01*
X119055018Y-118319500D01*
X118942982Y-118319500D01*
X118834763Y-118348497D01*
X118834760Y-118348498D01*
X118737740Y-118404513D01*
X118737734Y-118404517D01*
X118658517Y-118483734D01*
X118658513Y-118483740D01*
X118602498Y-118580760D01*
X118602497Y-118580763D01*
X118573500Y-118688982D01*
X82968730Y-118688982D01*
X82938263Y-118658515D01*
X82841237Y-118602497D01*
X82733018Y-118573500D01*
X82620982Y-118573500D01*
X82512763Y-118602497D01*
X82512760Y-118602498D01*
X82415740Y-118658513D01*
X82415734Y-118658517D01*
X82336517Y-118737734D01*
X82336513Y-118737740D01*
X82280498Y-118834760D01*
X82280497Y-118834763D01*
X82251500Y-118942982D01*
X80701813Y-118942982D01*
X80726935Y-118899469D01*
X80755932Y-118791250D01*
X80755932Y-118679214D01*
X80726935Y-118570995D01*
X80670917Y-118473969D01*
X80591695Y-118394747D01*
X80527011Y-118357401D01*
X80494671Y-118338730D01*
X80494670Y-118338729D01*
X80494669Y-118338729D01*
X80386450Y-118309732D01*
X80274414Y-118309732D01*
X80166195Y-118338729D01*
X80166192Y-118338730D01*
X80069172Y-118394745D01*
X80069162Y-118394752D01*
X80062505Y-118401409D01*
X80001179Y-118434889D01*
X79931488Y-118429899D01*
X79887150Y-118401402D01*
X79864865Y-118379117D01*
X79864863Y-118379115D01*
X79767837Y-118323097D01*
X79659618Y-118294100D01*
X79547582Y-118294100D01*
X79439363Y-118323097D01*
X79439360Y-118323098D01*
X79342340Y-118379113D01*
X79342334Y-118379117D01*
X79263117Y-118458334D01*
X79263113Y-118458340D01*
X79207098Y-118555360D01*
X79207097Y-118555363D01*
X79178100Y-118663582D01*
X71070733Y-118663582D01*
X71070753Y-114445714D01*
X101527943Y-114445714D01*
X101527943Y-114557750D01*
X101528337Y-114559218D01*
X101556940Y-114665968D01*
X101556941Y-114665971D01*
X101557789Y-114667439D01*
X101612958Y-114762995D01*
X101692180Y-114842217D01*
X101789206Y-114898235D01*
X101897425Y-114927232D01*
X101897427Y-114927232D01*
X102009459Y-114927232D01*
X102009461Y-114927232D01*
X102117680Y-114898235D01*
X102214706Y-114842217D01*
X102293928Y-114762995D01*
X102293928Y-114762994D01*
X102296593Y-114760330D01*
X102357916Y-114726845D01*
X102427608Y-114731829D01*
X102471955Y-114760330D01*
X102474620Y-114762995D01*
X102553842Y-114842217D01*
X102650868Y-114898235D01*
X102759087Y-114927232D01*
X102759089Y-114927232D01*
X102871121Y-114927232D01*
X102871123Y-114927232D01*
X102979342Y-114898235D01*
X103076368Y-114842217D01*
X103155590Y-114762995D01*
X103155592Y-114762990D01*
X103160624Y-114757959D01*
X103221947Y-114724474D01*
X103291639Y-114729458D01*
X103334293Y-114760990D01*
X103336568Y-114758716D01*
X103342315Y-114764463D01*
X103421537Y-114843685D01*
X103518563Y-114899703D01*
X103626782Y-114928700D01*
X103626784Y-114928700D01*
X103738816Y-114928700D01*
X103738818Y-114928700D01*
X103847037Y-114899703D01*
X103944063Y-114843685D01*
X104023285Y-114764463D01*
X104079303Y-114667437D01*
X104108300Y-114559218D01*
X104108300Y-114447182D01*
X104079303Y-114338963D01*
X104023285Y-114241937D01*
X103944063Y-114162715D01*
X103847037Y-114106697D01*
X103738818Y-114077700D01*
X103626782Y-114077700D01*
X103518563Y-114106697D01*
X103518560Y-114106698D01*
X103421540Y-114162713D01*
X103421538Y-114162714D01*
X103337279Y-114246973D01*
X103275955Y-114280457D01*
X103206264Y-114275473D01*
X103163615Y-114243937D01*
X103161337Y-114246216D01*
X103076370Y-114161249D01*
X103076368Y-114161247D01*
X103007200Y-114121313D01*
X102979344Y-114105230D01*
X102979343Y-114105229D01*
X102979342Y-114105229D01*
X102871123Y-114076232D01*
X102759087Y-114076232D01*
X102650868Y-114105229D01*
X102650865Y-114105230D01*
X102553845Y-114161245D01*
X102553839Y-114161249D01*
X102471955Y-114243134D01*
X102410632Y-114276619D01*
X102340940Y-114271635D01*
X102296593Y-114243134D01*
X102214708Y-114161249D01*
X102214706Y-114161247D01*
X102145538Y-114121313D01*
X102117682Y-114105230D01*
X102117681Y-114105229D01*
X102117680Y-114105229D01*
X102009461Y-114076232D01*
X101897425Y-114076232D01*
X101789206Y-114105229D01*
X101789203Y-114105230D01*
X101692183Y-114161245D01*
X101692177Y-114161249D01*
X101612960Y-114240466D01*
X101612956Y-114240472D01*
X101556941Y-114337492D01*
X101556940Y-114337495D01*
X101527943Y-114445714D01*
X71070753Y-114445714D01*
X71070759Y-113100995D01*
X72825499Y-113100995D01*
X72852418Y-113236322D01*
X72852421Y-113236332D01*
X72905221Y-113363804D01*
X72905228Y-113363817D01*
X72981885Y-113478541D01*
X72981888Y-113478545D01*
X73079454Y-113576111D01*
X73079458Y-113576114D01*
X73194182Y-113652771D01*
X73194195Y-113652778D01*
X73321667Y-113705578D01*
X73321672Y-113705580D01*
X73321676Y-113705580D01*
X73321677Y-113705581D01*
X73457004Y-113732500D01*
X73457007Y-113732500D01*
X74194995Y-113732500D01*
X74286041Y-113714389D01*
X74330328Y-113705580D01*
X74457811Y-113652775D01*
X74572542Y-113576114D01*
X74670114Y-113478542D01*
X74746775Y-113363811D01*
X74799580Y-113236328D01*
X74818057Y-113143439D01*
X74826500Y-113100995D01*
X76755499Y-113100995D01*
X76782418Y-113236322D01*
X76782421Y-113236332D01*
X76835221Y-113363804D01*
X76835228Y-113363817D01*
X76911885Y-113478541D01*
X76911888Y-113478545D01*
X77009454Y-113576111D01*
X77009458Y-113576114D01*
X77124182Y-113652771D01*
X77124195Y-113652778D01*
X77251667Y-113705578D01*
X77251672Y-113705580D01*
X77251676Y-113705580D01*
X77251677Y-113705581D01*
X77387004Y-113732500D01*
X77387007Y-113732500D01*
X78624995Y-113732500D01*
X78716041Y-113714389D01*
X78760328Y-113705580D01*
X78887811Y-113652775D01*
X78953352Y-113608982D01*
X116795500Y-113608982D01*
X116795500Y-113721018D01*
X116824497Y-113829237D01*
X116880515Y-113926263D01*
X116959737Y-114005485D01*
X116959740Y-114005487D01*
X116966186Y-114010433D01*
X116964245Y-114012961D01*
X117002123Y-114052703D01*
X117015332Y-114121313D01*
X116989351Y-114186172D01*
X116965115Y-114207171D01*
X116966186Y-114208567D01*
X116959734Y-114213517D01*
X116880517Y-114292734D01*
X116880513Y-114292740D01*
X116824498Y-114389760D01*
X116824497Y-114389763D01*
X116795500Y-114497982D01*
X116795500Y-114610018D01*
X116824497Y-114718237D01*
X116880515Y-114815263D01*
X116959737Y-114894485D01*
X116959740Y-114894487D01*
X116966186Y-114899433D01*
X116964245Y-114901961D01*
X117002123Y-114941703D01*
X117015332Y-115010313D01*
X116989351Y-115075172D01*
X116965115Y-115096171D01*
X116966186Y-115097567D01*
X116959734Y-115102517D01*
X116880517Y-115181734D01*
X116880513Y-115181740D01*
X116824498Y-115278760D01*
X116824497Y-115278763D01*
X116795500Y-115386982D01*
X116795500Y-115499018D01*
X116824497Y-115607237D01*
X116880515Y-115704263D01*
X116959737Y-115783485D01*
X116959740Y-115783487D01*
X116966186Y-115788433D01*
X116964245Y-115790961D01*
X117002123Y-115830703D01*
X117015332Y-115899313D01*
X116989351Y-115964172D01*
X116965115Y-115985171D01*
X116966186Y-115986567D01*
X116959734Y-115991517D01*
X116880517Y-116070734D01*
X116880513Y-116070740D01*
X116824498Y-116167760D01*
X116824497Y-116167763D01*
X116795500Y-116275982D01*
X116795500Y-116388018D01*
X116824497Y-116496237D01*
X116880515Y-116593263D01*
X116959737Y-116672485D01*
X116959740Y-116672487D01*
X116966186Y-116677433D01*
X116964245Y-116679961D01*
X117002123Y-116719703D01*
X117015332Y-116788313D01*
X116989351Y-116853172D01*
X116965115Y-116874171D01*
X116966186Y-116875567D01*
X116959734Y-116880517D01*
X116880517Y-116959734D01*
X116880513Y-116959740D01*
X116824498Y-117056760D01*
X116824497Y-117056763D01*
X116795500Y-117164982D01*
X116795500Y-117277018D01*
X116824497Y-117385237D01*
X116880515Y-117482263D01*
X116959737Y-117561485D01*
X117056763Y-117617503D01*
X117164982Y-117646500D01*
X117164984Y-117646500D01*
X117277016Y-117646500D01*
X117277018Y-117646500D01*
X117385237Y-117617503D01*
X117482263Y-117561485D01*
X117514319Y-117529429D01*
X117575642Y-117495944D01*
X117645334Y-117500928D01*
X117689681Y-117529429D01*
X117721737Y-117561485D01*
X117818763Y-117617503D01*
X117926982Y-117646500D01*
X117926984Y-117646500D01*
X118039016Y-117646500D01*
X118039018Y-117646500D01*
X118147237Y-117617503D01*
X118244263Y-117561485D01*
X118276319Y-117529429D01*
X118337642Y-117495944D01*
X118407334Y-117500928D01*
X118451681Y-117529429D01*
X118483737Y-117561485D01*
X118580763Y-117617503D01*
X118688982Y-117646500D01*
X118688984Y-117646500D01*
X118801016Y-117646500D01*
X118801018Y-117646500D01*
X118909237Y-117617503D01*
X119006263Y-117561485D01*
X119085485Y-117482263D01*
X119141503Y-117385237D01*
X119170500Y-117277018D01*
X119170500Y-117164982D01*
X119141503Y-117056763D01*
X119085485Y-116959737D01*
X119006263Y-116880515D01*
X119006260Y-116880513D01*
X118999814Y-116875567D01*
X119001757Y-116873033D01*
X118963896Y-116833337D01*
X118950663Y-116764732D01*
X118976621Y-116699863D01*
X119000889Y-116678834D01*
X118999814Y-116677433D01*
X119006255Y-116672489D01*
X119006263Y-116672485D01*
X119085485Y-116593263D01*
X119141503Y-116496237D01*
X119170500Y-116388018D01*
X119170500Y-116275982D01*
X119141503Y-116167763D01*
X119085485Y-116070737D01*
X119006263Y-115991515D01*
X119006260Y-115991513D01*
X118999814Y-115986567D01*
X119001757Y-115984033D01*
X118963896Y-115944337D01*
X118950663Y-115875732D01*
X118976621Y-115810863D01*
X119000889Y-115789834D01*
X118999814Y-115788433D01*
X119006255Y-115783489D01*
X119006263Y-115783485D01*
X119085485Y-115704263D01*
X119141503Y-115607237D01*
X119170500Y-115499018D01*
X119170500Y-115386982D01*
X119141503Y-115278763D01*
X119085485Y-115181737D01*
X119006263Y-115102515D01*
X119006260Y-115102513D01*
X118999814Y-115097567D01*
X119001757Y-115095033D01*
X118963896Y-115055337D01*
X118950663Y-114986732D01*
X118976621Y-114921863D01*
X119000889Y-114900834D01*
X118999814Y-114899433D01*
X119006255Y-114894489D01*
X119006263Y-114894485D01*
X119085485Y-114815263D01*
X119141503Y-114718237D01*
X119170500Y-114610018D01*
X119170500Y-114497982D01*
X119141503Y-114389763D01*
X119085485Y-114292737D01*
X119006263Y-114213515D01*
X119006260Y-114213513D01*
X118999814Y-114208567D01*
X119001757Y-114206033D01*
X118963896Y-114166337D01*
X118950663Y-114097732D01*
X118976621Y-114032863D01*
X119000889Y-114011834D01*
X118999814Y-114010433D01*
X119006255Y-114005489D01*
X119006263Y-114005485D01*
X119085485Y-113926263D01*
X119141503Y-113829237D01*
X119170500Y-113721018D01*
X119170500Y-113608982D01*
X119141503Y-113500763D01*
X119085485Y-113403737D01*
X119006263Y-113324515D01*
X118909237Y-113268497D01*
X118801018Y-113239500D01*
X118688982Y-113239500D01*
X118580763Y-113268497D01*
X118580760Y-113268498D01*
X118483740Y-113324513D01*
X118483734Y-113324517D01*
X118451681Y-113356571D01*
X118390358Y-113390056D01*
X118320666Y-113385072D01*
X118276319Y-113356571D01*
X118244265Y-113324517D01*
X118244263Y-113324515D01*
X118147237Y-113268497D01*
X118039018Y-113239500D01*
X117926982Y-113239500D01*
X117818763Y-113268497D01*
X117818760Y-113268498D01*
X117721740Y-113324513D01*
X117721734Y-113324517D01*
X117689681Y-113356571D01*
X117628358Y-113390056D01*
X117558666Y-113385072D01*
X117514319Y-113356571D01*
X117482265Y-113324517D01*
X117482263Y-113324515D01*
X117385237Y-113268497D01*
X117277018Y-113239500D01*
X117164982Y-113239500D01*
X117056763Y-113268497D01*
X117056760Y-113268498D01*
X116959740Y-113324513D01*
X116959734Y-113324517D01*
X116880517Y-113403734D01*
X116880513Y-113403740D01*
X116824498Y-113500760D01*
X116824497Y-113500763D01*
X116795500Y-113608982D01*
X78953352Y-113608982D01*
X79002542Y-113576114D01*
X79002545Y-113576111D01*
X79065483Y-113513174D01*
X79100111Y-113478545D01*
X79100114Y-113478542D01*
X79176775Y-113363811D01*
X79229580Y-113236328D01*
X79248057Y-113143439D01*
X79256500Y-113100995D01*
X79256500Y-113058328D01*
X79276185Y-112991289D01*
X79296158Y-112973982D01*
X111334500Y-112973982D01*
X111334500Y-113086018D01*
X111363497Y-113194237D01*
X111419515Y-113291263D01*
X111498737Y-113370485D01*
X111595763Y-113426503D01*
X111703982Y-113455500D01*
X111703984Y-113455500D01*
X111816016Y-113455500D01*
X111816018Y-113455500D01*
X111924237Y-113426503D01*
X112021263Y-113370485D01*
X112100485Y-113291263D01*
X112156503Y-113194237D01*
X112185500Y-113086018D01*
X112185500Y-112973982D01*
X112180927Y-112956914D01*
X112178312Y-112947154D01*
X112178310Y-112947149D01*
X112171888Y-112923182D01*
X121850100Y-112923182D01*
X121850100Y-113035218D01*
X121879097Y-113143437D01*
X121935115Y-113240463D01*
X122014337Y-113319685D01*
X122111363Y-113375703D01*
X122219582Y-113404700D01*
X122219584Y-113404700D01*
X122331616Y-113404700D01*
X122331618Y-113404700D01*
X122439837Y-113375703D01*
X122536863Y-113319685D01*
X122616085Y-113240463D01*
X122672103Y-113143437D01*
X122701100Y-113035218D01*
X122701100Y-112923182D01*
X122672103Y-112814963D01*
X122616085Y-112717937D01*
X122536863Y-112638715D01*
X122439837Y-112582697D01*
X122331618Y-112553700D01*
X122219582Y-112553700D01*
X122111363Y-112582697D01*
X122111360Y-112582698D01*
X122014340Y-112638713D01*
X122014334Y-112638717D01*
X121935117Y-112717934D01*
X121935113Y-112717940D01*
X121879098Y-112814960D01*
X121879097Y-112814963D01*
X121850100Y-112923182D01*
X112171888Y-112923182D01*
X112156503Y-112865763D01*
X112100485Y-112768737D01*
X112021263Y-112689515D01*
X111933275Y-112638715D01*
X111924239Y-112633498D01*
X111924238Y-112633497D01*
X111924237Y-112633497D01*
X111816018Y-112604500D01*
X111703982Y-112604500D01*
X111595763Y-112633497D01*
X111595760Y-112633498D01*
X111498740Y-112689513D01*
X111498734Y-112689517D01*
X111419517Y-112768734D01*
X111419513Y-112768740D01*
X111363498Y-112865760D01*
X111363498Y-112865761D01*
X111363497Y-112865763D01*
X111334500Y-112973982D01*
X79296158Y-112973982D01*
X79328989Y-112945534D01*
X79398147Y-112935590D01*
X79412581Y-112938550D01*
X79445982Y-112947500D01*
X79445985Y-112947500D01*
X79558016Y-112947500D01*
X79558018Y-112947500D01*
X79666237Y-112918503D01*
X79763263Y-112862485D01*
X79842485Y-112783263D01*
X79898503Y-112686237D01*
X79927500Y-112578018D01*
X79927500Y-112465982D01*
X79898503Y-112357763D01*
X79842485Y-112260737D01*
X79763263Y-112181515D01*
X79698579Y-112144169D01*
X79666239Y-112125498D01*
X79666238Y-112125497D01*
X79666237Y-112125497D01*
X79558018Y-112096500D01*
X79445982Y-112096500D01*
X79337763Y-112125497D01*
X79337760Y-112125498D01*
X79240740Y-112181513D01*
X79240734Y-112181517D01*
X79161517Y-112260734D01*
X79161513Y-112260740D01*
X79105498Y-112357760D01*
X79105495Y-112357767D01*
X79105076Y-112359333D01*
X79104361Y-112360504D01*
X79102388Y-112365270D01*
X79101644Y-112364962D01*
X79068708Y-112418991D01*
X79005860Y-112449517D01*
X78936484Y-112441219D01*
X78916412Y-112430335D01*
X78887817Y-112411228D01*
X78887804Y-112411221D01*
X78760332Y-112358421D01*
X78760322Y-112358418D01*
X78624995Y-112331500D01*
X78624993Y-112331500D01*
X77826244Y-112331500D01*
X77759205Y-112311815D01*
X77713450Y-112259011D01*
X77703506Y-112189853D01*
X77732531Y-112126297D01*
X77764244Y-112100113D01*
X77790738Y-112084816D01*
X77829365Y-112062515D01*
X77936515Y-111955365D01*
X78012281Y-111824135D01*
X78051500Y-111677766D01*
X78051500Y-111526234D01*
X78012281Y-111379865D01*
X77936515Y-111248635D01*
X77829365Y-111141485D01*
X77746828Y-111093832D01*
X77733232Y-111085982D01*
X80727500Y-111085982D01*
X80727500Y-111198018D01*
X80756497Y-111306237D01*
X80812515Y-111403263D01*
X80891737Y-111482485D01*
X80988763Y-111538503D01*
X81096982Y-111567500D01*
X81096984Y-111567500D01*
X81209016Y-111567500D01*
X81209018Y-111567500D01*
X81317237Y-111538503D01*
X81414263Y-111482485D01*
X81414265Y-111482482D01*
X81418039Y-111479587D01*
X81483208Y-111454390D01*
X81551653Y-111468426D01*
X81601644Y-111517239D01*
X81613974Y-111554281D01*
X81614397Y-111554168D01*
X81616297Y-111561260D01*
X81616468Y-111561773D01*
X81616500Y-111562016D01*
X81616500Y-111562018D01*
X81645497Y-111670237D01*
X81701515Y-111767263D01*
X81780737Y-111846485D01*
X81877763Y-111902503D01*
X81985982Y-111931500D01*
X81985984Y-111931500D01*
X82098016Y-111931500D01*
X82098018Y-111931500D01*
X82206237Y-111902503D01*
X82303263Y-111846485D01*
X82382485Y-111767263D01*
X82438503Y-111670237D01*
X82467500Y-111562018D01*
X82467500Y-111449982D01*
X82438503Y-111341763D01*
X82382485Y-111244737D01*
X82303263Y-111165515D01*
X82206237Y-111109497D01*
X82098018Y-111080500D01*
X81985982Y-111080500D01*
X81877763Y-111109497D01*
X81877760Y-111109498D01*
X81780730Y-111165518D01*
X81776949Y-111168420D01*
X81711778Y-111193610D01*
X81643334Y-111179566D01*
X81593348Y-111130749D01*
X81581026Y-111093718D01*
X81580603Y-111093832D01*
X81578697Y-111086719D01*
X81578529Y-111086214D01*
X81578500Y-111085995D01*
X81578500Y-111085982D01*
X81549503Y-110977763D01*
X81493485Y-110880737D01*
X81414263Y-110801515D01*
X81349579Y-110764169D01*
X81317239Y-110745498D01*
X81317238Y-110745497D01*
X81317237Y-110745497D01*
X81209018Y-110716500D01*
X81096982Y-110716500D01*
X80988763Y-110745497D01*
X80988760Y-110745498D01*
X80891740Y-110801513D01*
X80891734Y-110801517D01*
X80812517Y-110880734D01*
X80812513Y-110880740D01*
X80756498Y-110977760D01*
X80756497Y-110977763D01*
X80727500Y-111085982D01*
X77733232Y-111085982D01*
X77698136Y-111065719D01*
X77624950Y-111046109D01*
X77551766Y-111026500D01*
X77400234Y-111026500D01*
X77253863Y-111065719D01*
X77122635Y-111141485D01*
X77122632Y-111141487D01*
X77015487Y-111248632D01*
X77015485Y-111248635D01*
X76939719Y-111379863D01*
X76922705Y-111443363D01*
X76900500Y-111526234D01*
X76900500Y-111677766D01*
X76903515Y-111689017D01*
X76939719Y-111824136D01*
X76965543Y-111868863D01*
X77015485Y-111955365D01*
X77122635Y-112062515D01*
X77253865Y-112138281D01*
X77257201Y-112140207D01*
X77305416Y-112190774D01*
X77318638Y-112259382D01*
X77292670Y-112324246D01*
X77242653Y-112362155D01*
X77124192Y-112411223D01*
X77124182Y-112411228D01*
X77009458Y-112487885D01*
X77009454Y-112487888D01*
X76911888Y-112585454D01*
X76911885Y-112585458D01*
X76835228Y-112700182D01*
X76835221Y-112700195D01*
X76782421Y-112827667D01*
X76782418Y-112827677D01*
X76755500Y-112963004D01*
X76755500Y-112963007D01*
X76755500Y-113100993D01*
X76755500Y-113100995D01*
X76755499Y-113100995D01*
X74826500Y-113100995D01*
X74826500Y-112963004D01*
X74799581Y-112827677D01*
X74799580Y-112827676D01*
X74799580Y-112827672D01*
X74775170Y-112768740D01*
X74746778Y-112700195D01*
X74746771Y-112700182D01*
X74670114Y-112585458D01*
X74670111Y-112585454D01*
X74572545Y-112487888D01*
X74572541Y-112487885D01*
X74457817Y-112411228D01*
X74457804Y-112411221D01*
X74330332Y-112358421D01*
X74330322Y-112358418D01*
X74194995Y-112331500D01*
X74194993Y-112331500D01*
X73457007Y-112331500D01*
X73457005Y-112331500D01*
X73321677Y-112358418D01*
X73321667Y-112358421D01*
X73194195Y-112411221D01*
X73194182Y-112411228D01*
X73079458Y-112487885D01*
X73079454Y-112487888D01*
X72981888Y-112585454D01*
X72981885Y-112585458D01*
X72905228Y-112700182D01*
X72905221Y-112700195D01*
X72852421Y-112827667D01*
X72852418Y-112827677D01*
X72825500Y-112963004D01*
X72825500Y-112963007D01*
X72825500Y-113100993D01*
X72825500Y-113100995D01*
X72825499Y-113100995D01*
X71070759Y-113100995D01*
X71070772Y-110433982D01*
X82632500Y-110433982D01*
X82632500Y-110546018D01*
X82661497Y-110654237D01*
X82717515Y-110751263D01*
X82796737Y-110830485D01*
X82893763Y-110886503D01*
X82955149Y-110902951D01*
X83014808Y-110939314D01*
X83045338Y-111002161D01*
X83037044Y-111071537D01*
X82992559Y-111125415D01*
X82985056Y-111130111D01*
X82923743Y-111165510D01*
X82923734Y-111165517D01*
X82844517Y-111244734D01*
X82844513Y-111244740D01*
X82788498Y-111341760D01*
X82788497Y-111341763D01*
X82759500Y-111449982D01*
X82759500Y-111562018D01*
X82788497Y-111670237D01*
X82844515Y-111767263D01*
X82923737Y-111846485D01*
X83020763Y-111902503D01*
X83128982Y-111931500D01*
X83128984Y-111931500D01*
X83241016Y-111931500D01*
X83241018Y-111931500D01*
X83349237Y-111902503D01*
X83446263Y-111846485D01*
X83525485Y-111767263D01*
X83581503Y-111670237D01*
X83606490Y-111576982D01*
X84537500Y-111576982D01*
X84537500Y-111689018D01*
X84566497Y-111797237D01*
X84622515Y-111894263D01*
X84701737Y-111973485D01*
X84798763Y-112029503D01*
X84906982Y-112058500D01*
X84906984Y-112058500D01*
X85019016Y-112058500D01*
X85019018Y-112058500D01*
X85127237Y-112029503D01*
X85224263Y-111973485D01*
X85303485Y-111894263D01*
X85359503Y-111797237D01*
X85388500Y-111689018D01*
X85388500Y-111576982D01*
X85359503Y-111468763D01*
X85303485Y-111371737D01*
X85224263Y-111292515D01*
X85148261Y-111248635D01*
X85127239Y-111236498D01*
X85127238Y-111236497D01*
X85127237Y-111236497D01*
X85019018Y-111207500D01*
X84906982Y-111207500D01*
X84798763Y-111236497D01*
X84798760Y-111236498D01*
X84701740Y-111292513D01*
X84701734Y-111292517D01*
X84622517Y-111371734D01*
X84622513Y-111371740D01*
X84566498Y-111468760D01*
X84566497Y-111468763D01*
X84537500Y-111576982D01*
X83606490Y-111576982D01*
X83610500Y-111562018D01*
X83610500Y-111449982D01*
X83581503Y-111341763D01*
X83525485Y-111244737D01*
X83446263Y-111165515D01*
X83349237Y-111109497D01*
X83287848Y-111093048D01*
X83228190Y-111056684D01*
X83197661Y-110993837D01*
X83205956Y-110924461D01*
X83250441Y-110870583D01*
X83257945Y-110865887D01*
X83259556Y-110864956D01*
X83319263Y-110830485D01*
X83360166Y-110789582D01*
X123018500Y-110789582D01*
X123018500Y-110901618D01*
X123047497Y-111009837D01*
X123103515Y-111106863D01*
X123103517Y-111106865D01*
X123135571Y-111138919D01*
X123169056Y-111200242D01*
X123164072Y-111269934D01*
X123135571Y-111314281D01*
X123103517Y-111346334D01*
X123103513Y-111346340D01*
X123047498Y-111443360D01*
X123047497Y-111443363D01*
X123018500Y-111551582D01*
X123018500Y-111663618D01*
X123047497Y-111771837D01*
X123103515Y-111868863D01*
X123182737Y-111948085D01*
X123279763Y-112004103D01*
X123387982Y-112033100D01*
X123387984Y-112033100D01*
X123500016Y-112033100D01*
X123500018Y-112033100D01*
X123608237Y-112004103D01*
X123705263Y-111948085D01*
X123784485Y-111868863D01*
X123784485Y-111868862D01*
X123788119Y-111865229D01*
X123849442Y-111831744D01*
X123919134Y-111836728D01*
X123963481Y-111865229D01*
X123967115Y-111868863D01*
X124046337Y-111948085D01*
X124143363Y-112004103D01*
X124251582Y-112033100D01*
X124251584Y-112033100D01*
X124363616Y-112033100D01*
X124363618Y-112033100D01*
X124471837Y-112004103D01*
X124568863Y-111948085D01*
X124626319Y-111890629D01*
X124687642Y-111857144D01*
X124757334Y-111862128D01*
X124801681Y-111890629D01*
X124859137Y-111948085D01*
X124956163Y-112004103D01*
X125064382Y-112033100D01*
X125064384Y-112033100D01*
X125176416Y-112033100D01*
X125176418Y-112033100D01*
X125284637Y-112004103D01*
X125381663Y-111948085D01*
X125460885Y-111868863D01*
X125516903Y-111771837D01*
X125545900Y-111663618D01*
X125545900Y-111551582D01*
X125516903Y-111443363D01*
X125460885Y-111346337D01*
X125428829Y-111314281D01*
X125395344Y-111252958D01*
X125400328Y-111183266D01*
X125428829Y-111138919D01*
X125442333Y-111125415D01*
X125460885Y-111106863D01*
X125516903Y-111009837D01*
X125545900Y-110901618D01*
X125545900Y-110789582D01*
X125516903Y-110681363D01*
X125460885Y-110584337D01*
X125381663Y-110505115D01*
X125284637Y-110449097D01*
X125176418Y-110420100D01*
X125064382Y-110420100D01*
X124956163Y-110449097D01*
X124956160Y-110449098D01*
X124859140Y-110505113D01*
X124859134Y-110505117D01*
X124801681Y-110562571D01*
X124740358Y-110596056D01*
X124670666Y-110591072D01*
X124626319Y-110562571D01*
X124568865Y-110505117D01*
X124568863Y-110505115D01*
X124471837Y-110449097D01*
X124363618Y-110420100D01*
X124251582Y-110420100D01*
X124143363Y-110449097D01*
X124143360Y-110449098D01*
X124046340Y-110505113D01*
X124046334Y-110505117D01*
X123963481Y-110587971D01*
X123902158Y-110621456D01*
X123832466Y-110616472D01*
X123788119Y-110587971D01*
X123705265Y-110505117D01*
X123705263Y-110505115D01*
X123608237Y-110449097D01*
X123500018Y-110420100D01*
X123387982Y-110420100D01*
X123279763Y-110449097D01*
X123279760Y-110449098D01*
X123182740Y-110505113D01*
X123182734Y-110505117D01*
X123103517Y-110584334D01*
X123103513Y-110584340D01*
X123047498Y-110681360D01*
X123047497Y-110681363D01*
X123018500Y-110789582D01*
X83360166Y-110789582D01*
X83398485Y-110751263D01*
X83454503Y-110654237D01*
X83483500Y-110546018D01*
X83483500Y-110433982D01*
X83454503Y-110325763D01*
X83398485Y-110228737D01*
X83319263Y-110149515D01*
X83222237Y-110093497D01*
X83114018Y-110064500D01*
X83001982Y-110064500D01*
X82893763Y-110093497D01*
X82893760Y-110093498D01*
X82796740Y-110149513D01*
X82796734Y-110149517D01*
X82717517Y-110228734D01*
X82717513Y-110228740D01*
X82661498Y-110325760D01*
X82661497Y-110325763D01*
X82632500Y-110433982D01*
X71070772Y-110433982D01*
X71070779Y-108856982D01*
X79521500Y-108856982D01*
X79521500Y-108969018D01*
X79550497Y-109077237D01*
X79606515Y-109174263D01*
X79685737Y-109253485D01*
X79782763Y-109309503D01*
X79810320Y-109316886D01*
X79869980Y-109353249D01*
X79900511Y-109416095D01*
X79892217Y-109485471D01*
X79865910Y-109524342D01*
X79796514Y-109593738D01*
X79796513Y-109593740D01*
X79740498Y-109690760D01*
X79740497Y-109690763D01*
X79711500Y-109798982D01*
X79711500Y-109911018D01*
X79740497Y-110019237D01*
X79796515Y-110116263D01*
X79875737Y-110195485D01*
X79972763Y-110251503D01*
X80080982Y-110280500D01*
X80080984Y-110280500D01*
X80193016Y-110280500D01*
X80193018Y-110280500D01*
X80301237Y-110251503D01*
X80398263Y-110195485D01*
X80477485Y-110116263D01*
X80533503Y-110019237D01*
X80562500Y-109911018D01*
X80562500Y-109798982D01*
X80533503Y-109690763D01*
X80477485Y-109593737D01*
X80398263Y-109514515D01*
X80301237Y-109458497D01*
X80273676Y-109451112D01*
X80214017Y-109414748D01*
X80183488Y-109351901D01*
X80191783Y-109282526D01*
X80218085Y-109243662D01*
X80287485Y-109174263D01*
X80343503Y-109077237D01*
X80372500Y-108969018D01*
X80372500Y-108856982D01*
X80343503Y-108748763D01*
X80287485Y-108651737D01*
X80208263Y-108572515D01*
X80111237Y-108516497D01*
X80003018Y-108487500D01*
X79890982Y-108487500D01*
X79782763Y-108516497D01*
X79782760Y-108516498D01*
X79685740Y-108572513D01*
X79685734Y-108572517D01*
X79606517Y-108651734D01*
X79606513Y-108651740D01*
X79550498Y-108748760D01*
X79550497Y-108748763D01*
X79521500Y-108856982D01*
X71070779Y-108856982D01*
X71070787Y-107131982D01*
X82632500Y-107131982D01*
X82632500Y-107244018D01*
X82661497Y-107352237D01*
X82717515Y-107449263D01*
X82796737Y-107528485D01*
X82893763Y-107584503D01*
X83001982Y-107613500D01*
X83001984Y-107613500D01*
X83114016Y-107613500D01*
X83114018Y-107613500D01*
X83222237Y-107584503D01*
X83319263Y-107528485D01*
X83398485Y-107449263D01*
X83454503Y-107352237D01*
X83483500Y-107244018D01*
X83483500Y-107131982D01*
X83454503Y-107023763D01*
X83398485Y-106926737D01*
X83319263Y-106847515D01*
X83222237Y-106791497D01*
X83114018Y-106762500D01*
X83001982Y-106762500D01*
X82893763Y-106791497D01*
X82893760Y-106791498D01*
X82796740Y-106847513D01*
X82796734Y-106847517D01*
X82717517Y-106926734D01*
X82717513Y-106926740D01*
X82661498Y-107023760D01*
X82661497Y-107023763D01*
X82632500Y-107131982D01*
X71070787Y-107131982D01*
X71070790Y-106496982D01*
X122891500Y-106496982D01*
X122891500Y-106609018D01*
X122920497Y-106717237D01*
X122976515Y-106814263D01*
X123055737Y-106893485D01*
X123152763Y-106949503D01*
X123260982Y-106978500D01*
X123260984Y-106978500D01*
X123373016Y-106978500D01*
X123373018Y-106978500D01*
X123481237Y-106949503D01*
X123578263Y-106893485D01*
X123610319Y-106861429D01*
X123671642Y-106827944D01*
X123741334Y-106832928D01*
X123785681Y-106861429D01*
X123817737Y-106893485D01*
X123914763Y-106949503D01*
X124022982Y-106978500D01*
X124022984Y-106978500D01*
X124135016Y-106978500D01*
X124135018Y-106978500D01*
X124243237Y-106949503D01*
X124340263Y-106893485D01*
X124372319Y-106861429D01*
X124433642Y-106827944D01*
X124503334Y-106832928D01*
X124547681Y-106861429D01*
X124579737Y-106893485D01*
X124676763Y-106949503D01*
X124784982Y-106978500D01*
X124784984Y-106978500D01*
X124897016Y-106978500D01*
X124897018Y-106978500D01*
X125005237Y-106949503D01*
X125102263Y-106893485D01*
X125134319Y-106861429D01*
X125195642Y-106827944D01*
X125265334Y-106832928D01*
X125309681Y-106861429D01*
X125341737Y-106893485D01*
X125438763Y-106949503D01*
X125546982Y-106978500D01*
X125546984Y-106978500D01*
X125659016Y-106978500D01*
X125659018Y-106978500D01*
X125767237Y-106949503D01*
X125864263Y-106893485D01*
X125943485Y-106814263D01*
X125999503Y-106717237D01*
X126028500Y-106609018D01*
X126028500Y-106496982D01*
X125999503Y-106388763D01*
X125943485Y-106291737D01*
X125864263Y-106212515D01*
X125767237Y-106156497D01*
X125659018Y-106127500D01*
X125546982Y-106127500D01*
X125438763Y-106156497D01*
X125438760Y-106156498D01*
X125341740Y-106212513D01*
X125341734Y-106212517D01*
X125309681Y-106244571D01*
X125248358Y-106278056D01*
X125178666Y-106273072D01*
X125134319Y-106244571D01*
X125102265Y-106212517D01*
X125102263Y-106212515D01*
X125005237Y-106156497D01*
X124897018Y-106127500D01*
X124784982Y-106127500D01*
X124676763Y-106156497D01*
X124676760Y-106156498D01*
X124579740Y-106212513D01*
X124579734Y-106212517D01*
X124547681Y-106244571D01*
X124486358Y-106278056D01*
X124416666Y-106273072D01*
X124372319Y-106244571D01*
X124340265Y-106212517D01*
X124340263Y-106212515D01*
X124243237Y-106156497D01*
X124135018Y-106127500D01*
X124022982Y-106127500D01*
X123914763Y-106156497D01*
X123914760Y-106156498D01*
X123817740Y-106212513D01*
X123817734Y-106212517D01*
X123785681Y-106244571D01*
X123724358Y-106278056D01*
X123654666Y-106273072D01*
X123610319Y-106244571D01*
X123578265Y-106212517D01*
X123578263Y-106212515D01*
X123481237Y-106156497D01*
X123373018Y-106127500D01*
X123260982Y-106127500D01*
X123152763Y-106156497D01*
X123152760Y-106156498D01*
X123055740Y-106212513D01*
X123055734Y-106212517D01*
X122976517Y-106291734D01*
X122976513Y-106291740D01*
X122920498Y-106388760D01*
X122920497Y-106388763D01*
X122891500Y-106496982D01*
X71070790Y-106496982D01*
X71070800Y-104460995D01*
X72825499Y-104460995D01*
X72852418Y-104596322D01*
X72852421Y-104596332D01*
X72905221Y-104723804D01*
X72905228Y-104723817D01*
X72981885Y-104838541D01*
X72981888Y-104838545D01*
X73079454Y-104936111D01*
X73079458Y-104936114D01*
X73194182Y-105012771D01*
X73194195Y-105012778D01*
X73312206Y-105061659D01*
X73321672Y-105065580D01*
X73321676Y-105065580D01*
X73321677Y-105065581D01*
X73457004Y-105092500D01*
X73457007Y-105092500D01*
X74194995Y-105092500D01*
X74286041Y-105074389D01*
X74330328Y-105065580D01*
X74457811Y-105012775D01*
X74572542Y-104936114D01*
X74670114Y-104838542D01*
X74746775Y-104723811D01*
X74799580Y-104596328D01*
X74808389Y-104552041D01*
X74826500Y-104460995D01*
X76755499Y-104460995D01*
X76782418Y-104596322D01*
X76782421Y-104596332D01*
X76835221Y-104723804D01*
X76835228Y-104723817D01*
X76911885Y-104838541D01*
X76911888Y-104838545D01*
X77009454Y-104936111D01*
X77009458Y-104936114D01*
X77124182Y-105012771D01*
X77124195Y-105012778D01*
X77242652Y-105061844D01*
X77297056Y-105105685D01*
X77319121Y-105171979D01*
X77301842Y-105239678D01*
X77257201Y-105283792D01*
X77122635Y-105361485D01*
X77122632Y-105361487D01*
X77015487Y-105468632D01*
X77015485Y-105468635D01*
X76939719Y-105599863D01*
X76900500Y-105746234D01*
X76900500Y-105897765D01*
X76939719Y-106044136D01*
X76977602Y-106109750D01*
X77015485Y-106175365D01*
X77122635Y-106282515D01*
X77253865Y-106358281D01*
X77400234Y-106397500D01*
X77400236Y-106397500D01*
X77551764Y-106397500D01*
X77551766Y-106397500D01*
X77698135Y-106358281D01*
X77829365Y-106282515D01*
X77936515Y-106175365D01*
X78012281Y-106044135D01*
X78051500Y-105897766D01*
X78051500Y-105746234D01*
X78012281Y-105599865D01*
X77936515Y-105468635D01*
X77829365Y-105361485D01*
X77829363Y-105361484D01*
X77829361Y-105361482D01*
X77764244Y-105323887D01*
X77716028Y-105273320D01*
X77702806Y-105204713D01*
X77728774Y-105139848D01*
X77785688Y-105099320D01*
X77826244Y-105092500D01*
X78624995Y-105092500D01*
X78716041Y-105074389D01*
X78760328Y-105065580D01*
X78795281Y-105051101D01*
X78864749Y-105043632D01*
X78927228Y-105074906D01*
X78962508Y-105133567D01*
X78964470Y-105140886D01*
X78978497Y-105193238D01*
X78978498Y-105193239D01*
X78985123Y-105204713D01*
X79034515Y-105290263D01*
X79113737Y-105369485D01*
X79210763Y-105425503D01*
X79318982Y-105454500D01*
X79318984Y-105454500D01*
X79431016Y-105454500D01*
X79431018Y-105454500D01*
X79539237Y-105425503D01*
X79636263Y-105369485D01*
X79715485Y-105290263D01*
X79771503Y-105193237D01*
X79800500Y-105085018D01*
X79800500Y-104972982D01*
X79771503Y-104864763D01*
X79715485Y-104767737D01*
X79636263Y-104688515D01*
X79539237Y-104632497D01*
X79431018Y-104603500D01*
X79379248Y-104603500D01*
X79312209Y-104583815D01*
X79266454Y-104531011D01*
X79255252Y-104478463D01*
X79255349Y-104466775D01*
X79256500Y-104460993D01*
X79256500Y-104337982D01*
X104349500Y-104337982D01*
X104349500Y-104450018D01*
X104378497Y-104558237D01*
X104434515Y-104655263D01*
X104513737Y-104734485D01*
X104610763Y-104790503D01*
X104718982Y-104819500D01*
X104718984Y-104819500D01*
X104831016Y-104819500D01*
X104831018Y-104819500D01*
X104939237Y-104790503D01*
X105019121Y-104744382D01*
X107118100Y-104744382D01*
X107118100Y-104856418D01*
X107139455Y-104936114D01*
X107147097Y-104964636D01*
X107147098Y-104964639D01*
X107151915Y-104972982D01*
X107203115Y-105061663D01*
X107282337Y-105140885D01*
X107379363Y-105196903D01*
X107487582Y-105225900D01*
X107487584Y-105225900D01*
X107599616Y-105225900D01*
X107599618Y-105225900D01*
X107707837Y-105196903D01*
X107804863Y-105140885D01*
X107884085Y-105061663D01*
X107940103Y-104964637D01*
X107969100Y-104856418D01*
X107969100Y-104744382D01*
X107940103Y-104636163D01*
X107884085Y-104539137D01*
X107804863Y-104459915D01*
X107707837Y-104403897D01*
X107599618Y-104374900D01*
X107487582Y-104374900D01*
X107379363Y-104403897D01*
X107379360Y-104403898D01*
X107282340Y-104459913D01*
X107282334Y-104459917D01*
X107203117Y-104539134D01*
X107203113Y-104539140D01*
X107147098Y-104636160D01*
X107147097Y-104636163D01*
X107118100Y-104744382D01*
X105019121Y-104744382D01*
X105036263Y-104734485D01*
X105115485Y-104655263D01*
X105171503Y-104558237D01*
X105200500Y-104450018D01*
X105200500Y-104337982D01*
X105171503Y-104229763D01*
X105115485Y-104132737D01*
X105036263Y-104053515D01*
X104939237Y-103997497D01*
X104831018Y-103968500D01*
X104718982Y-103968500D01*
X104610763Y-103997497D01*
X104610760Y-103997498D01*
X104513740Y-104053513D01*
X104513734Y-104053517D01*
X104434517Y-104132734D01*
X104434513Y-104132740D01*
X104378498Y-104229760D01*
X104378497Y-104229763D01*
X104349500Y-104337982D01*
X79256500Y-104337982D01*
X79256500Y-104323007D01*
X79256500Y-104323004D01*
X79229581Y-104187677D01*
X79229580Y-104187676D01*
X79229580Y-104187672D01*
X79206827Y-104132740D01*
X79176778Y-104060195D01*
X79176771Y-104060182D01*
X79100114Y-103945458D01*
X79100111Y-103945454D01*
X79002545Y-103847888D01*
X79002541Y-103847885D01*
X78887817Y-103771228D01*
X78887804Y-103771221D01*
X78760332Y-103718421D01*
X78760322Y-103718418D01*
X78624995Y-103691500D01*
X78624993Y-103691500D01*
X77387007Y-103691500D01*
X77387005Y-103691500D01*
X77251677Y-103718418D01*
X77251667Y-103718421D01*
X77124195Y-103771221D01*
X77124182Y-103771228D01*
X77009458Y-103847885D01*
X77009454Y-103847888D01*
X76911888Y-103945454D01*
X76911885Y-103945458D01*
X76835228Y-104060182D01*
X76835221Y-104060195D01*
X76782421Y-104187667D01*
X76782418Y-104187677D01*
X76755500Y-104323004D01*
X76755500Y-104323007D01*
X76755500Y-104460993D01*
X76755500Y-104460995D01*
X76755499Y-104460995D01*
X74826500Y-104460995D01*
X74826500Y-104323004D01*
X74799581Y-104187677D01*
X74799580Y-104187676D01*
X74799580Y-104187672D01*
X74776827Y-104132740D01*
X74746778Y-104060195D01*
X74746771Y-104060182D01*
X74670114Y-103945458D01*
X74670111Y-103945454D01*
X74572545Y-103847888D01*
X74572541Y-103847885D01*
X74457817Y-103771228D01*
X74457804Y-103771221D01*
X74330332Y-103718421D01*
X74330322Y-103718418D01*
X74194995Y-103691500D01*
X74194993Y-103691500D01*
X73457007Y-103691500D01*
X73457005Y-103691500D01*
X73321677Y-103718418D01*
X73321667Y-103718421D01*
X73194195Y-103771221D01*
X73194182Y-103771228D01*
X73079458Y-103847885D01*
X73079454Y-103847888D01*
X72981888Y-103945454D01*
X72981885Y-103945458D01*
X72905228Y-104060182D01*
X72905221Y-104060195D01*
X72852421Y-104187667D01*
X72852418Y-104187677D01*
X72825500Y-104323004D01*
X72825500Y-104323007D01*
X72825500Y-104460993D01*
X72825500Y-104460995D01*
X72825499Y-104460995D01*
X71070800Y-104460995D01*
X71070811Y-102178982D01*
X92030500Y-102178982D01*
X92030500Y-102291018D01*
X92059497Y-102399237D01*
X92115515Y-102496263D01*
X92194737Y-102575485D01*
X92291763Y-102631503D01*
X92399982Y-102660500D01*
X92399984Y-102660500D01*
X92512016Y-102660500D01*
X92512018Y-102660500D01*
X92620237Y-102631503D01*
X92717263Y-102575485D01*
X92796485Y-102496263D01*
X92833020Y-102432982D01*
X94697500Y-102432982D01*
X94697500Y-102545018D01*
X94726497Y-102653237D01*
X94782515Y-102750263D01*
X94861737Y-102829485D01*
X94958763Y-102885503D01*
X95066982Y-102914500D01*
X95066984Y-102914500D01*
X95179016Y-102914500D01*
X95179018Y-102914500D01*
X95287237Y-102885503D01*
X95384263Y-102829485D01*
X95463485Y-102750263D01*
X95519503Y-102653237D01*
X95548500Y-102545018D01*
X95548500Y-102536482D01*
X102241300Y-102536482D01*
X102241300Y-102648518D01*
X102270297Y-102756737D01*
X102326315Y-102853763D01*
X102405537Y-102932985D01*
X102502563Y-102989003D01*
X102610782Y-103018000D01*
X102610784Y-103018000D01*
X102722816Y-103018000D01*
X102722818Y-103018000D01*
X102831037Y-102989003D01*
X102928063Y-102932985D01*
X103007285Y-102853763D01*
X103063303Y-102756737D01*
X103092300Y-102648518D01*
X103092300Y-102536482D01*
X103063303Y-102428263D01*
X103007285Y-102331237D01*
X102928063Y-102252015D01*
X102831037Y-102195997D01*
X102722818Y-102167000D01*
X102610782Y-102167000D01*
X102502563Y-102195997D01*
X102502560Y-102195998D01*
X102405540Y-102252013D01*
X102405534Y-102252017D01*
X102326317Y-102331234D01*
X102326313Y-102331240D01*
X102270298Y-102428260D01*
X102270297Y-102428263D01*
X102241300Y-102536482D01*
X95548500Y-102536482D01*
X95548500Y-102432982D01*
X95519503Y-102324763D01*
X95463485Y-102227737D01*
X95384263Y-102148515D01*
X95287237Y-102092497D01*
X95179018Y-102063500D01*
X95066982Y-102063500D01*
X94958763Y-102092497D01*
X94958760Y-102092498D01*
X94861740Y-102148513D01*
X94861734Y-102148517D01*
X94782517Y-102227734D01*
X94782513Y-102227740D01*
X94726498Y-102324760D01*
X94726497Y-102324763D01*
X94697500Y-102432982D01*
X92833020Y-102432982D01*
X92852503Y-102399237D01*
X92881500Y-102291018D01*
X92881500Y-102178982D01*
X92852503Y-102070763D01*
X92796485Y-101973737D01*
X92717263Y-101894515D01*
X92620237Y-101838497D01*
X92512018Y-101809500D01*
X92399982Y-101809500D01*
X92291763Y-101838497D01*
X92291760Y-101838498D01*
X92194740Y-101894513D01*
X92194734Y-101894517D01*
X92115517Y-101973734D01*
X92115513Y-101973740D01*
X92059498Y-102070760D01*
X92059497Y-102070763D01*
X92030500Y-102178982D01*
X71070811Y-102178982D01*
X71070826Y-99024549D01*
X73889900Y-99024549D01*
X73889900Y-99247450D01*
X73889901Y-99247466D01*
X73918994Y-99468452D01*
X73918995Y-99468457D01*
X73918996Y-99468463D01*
X73918997Y-99468465D01*
X73976690Y-99683780D01*
X73976693Y-99683790D01*
X74061993Y-99889722D01*
X74061995Y-99889726D01*
X74173452Y-100082774D01*
X74173457Y-100082780D01*
X74173458Y-100082782D01*
X74309151Y-100259622D01*
X74309157Y-100259629D01*
X74466770Y-100417242D01*
X74466776Y-100417247D01*
X74643626Y-100552948D01*
X74836674Y-100664405D01*
X75042619Y-100749710D01*
X75257937Y-100807404D01*
X75478943Y-100836500D01*
X75478950Y-100836500D01*
X75701850Y-100836500D01*
X75701857Y-100836500D01*
X75922863Y-100807404D01*
X76138181Y-100749710D01*
X76344126Y-100664405D01*
X76537174Y-100552948D01*
X76714024Y-100417247D01*
X76730289Y-100400982D01*
X104857500Y-100400982D01*
X104857500Y-100513018D01*
X104886497Y-100621237D01*
X104942515Y-100718263D01*
X105021737Y-100797485D01*
X105118763Y-100853503D01*
X105226982Y-100882500D01*
X105226984Y-100882500D01*
X105339016Y-100882500D01*
X105339018Y-100882500D01*
X105447237Y-100853503D01*
X105544263Y-100797485D01*
X105623485Y-100718263D01*
X105679503Y-100621237D01*
X105708500Y-100513018D01*
X105708500Y-100400982D01*
X105679503Y-100292763D01*
X105623485Y-100195737D01*
X105544263Y-100116515D01*
X105447237Y-100060497D01*
X105339018Y-100031500D01*
X105226982Y-100031500D01*
X105118763Y-100060497D01*
X105118760Y-100060498D01*
X105021740Y-100116513D01*
X105021734Y-100116517D01*
X104942517Y-100195734D01*
X104942513Y-100195740D01*
X104886498Y-100292760D01*
X104886497Y-100292763D01*
X104857500Y-100400982D01*
X76730289Y-100400982D01*
X76826098Y-100305174D01*
X76871642Y-100259629D01*
X76871647Y-100259624D01*
X77007348Y-100082774D01*
X77118805Y-99889726D01*
X77204110Y-99683781D01*
X77261804Y-99468463D01*
X77290900Y-99247457D01*
X77290900Y-99024543D01*
X77290365Y-99020483D01*
X77282566Y-98961241D01*
X77282566Y-98961240D01*
X77281505Y-98953182D01*
X122358100Y-98953182D01*
X122358100Y-99065218D01*
X122387097Y-99173437D01*
X122443115Y-99270463D01*
X122522337Y-99349685D01*
X122619363Y-99405703D01*
X122727582Y-99434700D01*
X122727584Y-99434700D01*
X122839616Y-99434700D01*
X122839618Y-99434700D01*
X122947837Y-99405703D01*
X123044863Y-99349685D01*
X123124085Y-99270463D01*
X123180103Y-99173437D01*
X123209100Y-99065218D01*
X123209100Y-98953182D01*
X123180103Y-98844963D01*
X123124085Y-98747937D01*
X123044863Y-98668715D01*
X122947837Y-98612697D01*
X122839618Y-98583700D01*
X122727582Y-98583700D01*
X122619363Y-98612697D01*
X122619360Y-98612698D01*
X122522340Y-98668713D01*
X122522334Y-98668717D01*
X122443117Y-98747934D01*
X122443113Y-98747940D01*
X122387098Y-98844960D01*
X122387097Y-98844963D01*
X122358100Y-98953182D01*
X77281505Y-98953182D01*
X77261805Y-98803547D01*
X77261804Y-98803537D01*
X77204110Y-98588219D01*
X77118805Y-98382274D01*
X77007348Y-98189226D01*
X76871647Y-98012376D01*
X76871642Y-98012370D01*
X76714029Y-97854757D01*
X76714022Y-97854751D01*
X76537182Y-97719058D01*
X76537180Y-97719057D01*
X76537174Y-97719052D01*
X76344126Y-97607595D01*
X76344122Y-97607593D01*
X76138190Y-97522293D01*
X76138183Y-97522291D01*
X76138181Y-97522290D01*
X75922863Y-97464596D01*
X75922857Y-97464595D01*
X75922852Y-97464594D01*
X75701866Y-97435501D01*
X75701863Y-97435500D01*
X75701857Y-97435500D01*
X75478943Y-97435500D01*
X75478937Y-97435500D01*
X75478933Y-97435501D01*
X75257947Y-97464594D01*
X75257940Y-97464595D01*
X75257937Y-97464596D01*
X75217978Y-97475303D01*
X75042619Y-97522290D01*
X75042609Y-97522293D01*
X74836677Y-97607593D01*
X74836673Y-97607595D01*
X74643626Y-97719052D01*
X74643617Y-97719058D01*
X74466777Y-97854751D01*
X74466770Y-97854757D01*
X74309157Y-98012370D01*
X74309151Y-98012377D01*
X74173458Y-98189217D01*
X74173452Y-98189226D01*
X74061995Y-98382273D01*
X74061993Y-98382277D01*
X73976693Y-98588209D01*
X73976690Y-98588219D01*
X73918997Y-98803534D01*
X73918994Y-98803547D01*
X73889901Y-99024533D01*
X73889900Y-99024549D01*
X71070826Y-99024549D01*
X71070835Y-97022782D01*
X101733300Y-97022782D01*
X101733300Y-97134818D01*
X101762297Y-97243037D01*
X101818315Y-97340063D01*
X101897537Y-97419285D01*
X101994563Y-97475303D01*
X102102782Y-97504300D01*
X102102784Y-97504300D01*
X102214816Y-97504300D01*
X102214818Y-97504300D01*
X102323037Y-97475303D01*
X102420063Y-97419285D01*
X102499285Y-97340063D01*
X102555303Y-97243037D01*
X102584300Y-97134818D01*
X102584300Y-97022782D01*
X102555303Y-96914563D01*
X102499285Y-96817537D01*
X102420063Y-96738315D01*
X102323037Y-96682297D01*
X102214818Y-96653300D01*
X102102782Y-96653300D01*
X101994563Y-96682297D01*
X101994560Y-96682298D01*
X101897540Y-96738313D01*
X101897534Y-96738317D01*
X101818317Y-96817534D01*
X101818313Y-96817540D01*
X101762298Y-96914560D01*
X101762297Y-96914563D01*
X101733300Y-97022782D01*
X71070835Y-97022782D01*
X71070839Y-96082982D01*
X109683500Y-96082982D01*
X109683500Y-96195017D01*
X109712497Y-96303236D01*
X109712498Y-96303239D01*
X109731169Y-96335579D01*
X109768515Y-96400263D01*
X109847737Y-96479485D01*
X109944763Y-96535503D01*
X110052982Y-96564500D01*
X110052984Y-96564500D01*
X110165016Y-96564500D01*
X110165018Y-96564500D01*
X110273237Y-96535503D01*
X110370263Y-96479485D01*
X110449485Y-96400263D01*
X110505503Y-96303237D01*
X110534500Y-96195018D01*
X110534500Y-96082982D01*
X110505503Y-95974763D01*
X110449485Y-95877737D01*
X110370263Y-95798515D01*
X110289695Y-95751999D01*
X110273239Y-95742498D01*
X110273238Y-95742497D01*
X110273237Y-95742497D01*
X110165018Y-95713500D01*
X110052982Y-95713500D01*
X109944763Y-95742497D01*
X109944760Y-95742498D01*
X109847740Y-95798513D01*
X109847734Y-95798517D01*
X109768517Y-95877734D01*
X109768513Y-95877740D01*
X109712498Y-95974760D01*
X109712497Y-95974763D01*
X109683500Y-96082982D01*
X71070839Y-96082982D01*
X71070855Y-92831729D01*
X73889900Y-92831729D01*
X73889900Y-95440260D01*
X73889901Y-95440266D01*
X73892754Y-95470700D01*
X73892754Y-95470702D01*
X73892755Y-95470703D01*
X73892755Y-95470705D01*
X73937606Y-95598882D01*
X74018249Y-95708150D01*
X74064788Y-95742497D01*
X74127517Y-95788793D01*
X74155301Y-95798515D01*
X74255698Y-95833646D01*
X74262723Y-95834304D01*
X74286133Y-95836500D01*
X76894666Y-95836499D01*
X76925100Y-95833646D01*
X77053283Y-95788793D01*
X77162550Y-95708150D01*
X77243193Y-95598883D01*
X77285554Y-95477823D01*
X77288046Y-95470702D01*
X77288046Y-95470700D01*
X77290900Y-95440267D01*
X77290899Y-93669982D01*
X92030500Y-93669982D01*
X92030500Y-93782017D01*
X92059497Y-93890236D01*
X92059498Y-93890239D01*
X92060741Y-93892392D01*
X92115515Y-93987263D01*
X92194737Y-94066485D01*
X92291763Y-94122503D01*
X92399982Y-94151500D01*
X92399984Y-94151500D01*
X92512016Y-94151500D01*
X92512018Y-94151500D01*
X92620237Y-94122503D01*
X92717263Y-94066485D01*
X92796485Y-93987263D01*
X92852503Y-93890237D01*
X92881500Y-93782018D01*
X92881500Y-93760608D01*
X115608500Y-93760608D01*
X115608500Y-93892391D01*
X115642608Y-94019687D01*
X115668116Y-94063867D01*
X115708500Y-94133814D01*
X115801686Y-94227000D01*
X115915814Y-94292892D01*
X116043108Y-94327000D01*
X116043110Y-94327000D01*
X116174888Y-94327000D01*
X116174892Y-94327000D01*
X116235328Y-94310806D01*
X116305173Y-94312469D01*
X116363036Y-94351631D01*
X116390541Y-94415859D01*
X116387193Y-94462674D01*
X116371000Y-94523108D01*
X116371000Y-94654891D01*
X116387193Y-94715325D01*
X116385530Y-94785175D01*
X116346367Y-94843037D01*
X116282139Y-94870541D01*
X116235325Y-94867193D01*
X116174892Y-94851000D01*
X116043108Y-94851000D01*
X115915812Y-94885108D01*
X115801686Y-94951000D01*
X115801683Y-94951002D01*
X115708502Y-95044183D01*
X115708500Y-95044186D01*
X115642608Y-95158312D01*
X115637237Y-95178359D01*
X115608500Y-95285608D01*
X115608500Y-95417392D01*
X115614629Y-95440266D01*
X115642608Y-95544687D01*
X115668116Y-95588867D01*
X115708500Y-95658814D01*
X115801686Y-95752000D01*
X115915814Y-95817892D01*
X116043108Y-95852000D01*
X116043110Y-95852000D01*
X116174888Y-95852000D01*
X116174892Y-95852000D01*
X116235328Y-95835806D01*
X116305173Y-95837469D01*
X116363036Y-95876631D01*
X116390541Y-95940859D01*
X116387192Y-95987674D01*
X116371000Y-96048108D01*
X116371000Y-96179892D01*
X116375053Y-96195017D01*
X116405108Y-96307187D01*
X116438054Y-96364250D01*
X116471000Y-96421314D01*
X116564186Y-96514500D01*
X116678314Y-96580392D01*
X116805608Y-96614500D01*
X116805610Y-96614500D01*
X116937390Y-96614500D01*
X116937392Y-96614500D01*
X117064686Y-96580392D01*
X117178814Y-96514500D01*
X117272000Y-96421314D01*
X117337892Y-96307186D01*
X117372000Y-96179892D01*
X117372000Y-96048108D01*
X117355806Y-95987670D01*
X117357469Y-95917825D01*
X117396631Y-95859963D01*
X117460859Y-95832458D01*
X117507668Y-95835805D01*
X117568108Y-95852000D01*
X117568111Y-95852000D01*
X117699888Y-95852000D01*
X117699892Y-95852000D01*
X117760328Y-95835806D01*
X117830173Y-95837469D01*
X117888036Y-95876631D01*
X117915541Y-95940859D01*
X117912192Y-95987674D01*
X117896000Y-96048108D01*
X117896000Y-96179892D01*
X117900053Y-96195017D01*
X117930108Y-96307187D01*
X117963054Y-96364250D01*
X117996000Y-96421314D01*
X118089186Y-96514500D01*
X118203314Y-96580392D01*
X118330608Y-96614500D01*
X118330610Y-96614500D01*
X118462390Y-96614500D01*
X118462392Y-96614500D01*
X118589686Y-96580392D01*
X118703814Y-96514500D01*
X118797000Y-96421314D01*
X118862892Y-96307186D01*
X118897000Y-96179892D01*
X118897000Y-96048108D01*
X118880806Y-95987670D01*
X118882469Y-95917825D01*
X118921631Y-95859963D01*
X118985859Y-95832458D01*
X119032668Y-95835805D01*
X119093108Y-95852000D01*
X119093111Y-95852000D01*
X119224890Y-95852000D01*
X119224892Y-95852000D01*
X119352186Y-95817892D01*
X119466314Y-95752000D01*
X119559500Y-95658814D01*
X119625392Y-95544686D01*
X119659500Y-95417392D01*
X119659500Y-95285608D01*
X119625392Y-95158314D01*
X119559500Y-95044186D01*
X119466314Y-94951000D01*
X119409250Y-94918054D01*
X119352187Y-94885108D01*
X119279119Y-94865530D01*
X119224892Y-94851000D01*
X119093108Y-94851000D01*
X119032674Y-94867193D01*
X118962824Y-94865530D01*
X118904961Y-94826367D01*
X118877458Y-94762138D01*
X118880805Y-94715331D01*
X118897000Y-94654892D01*
X118897000Y-94523108D01*
X118880806Y-94462670D01*
X118882469Y-94392825D01*
X118921631Y-94334963D01*
X118985859Y-94307458D01*
X119032668Y-94310805D01*
X119093108Y-94327000D01*
X119093111Y-94327000D01*
X119224890Y-94327000D01*
X119224892Y-94327000D01*
X119352186Y-94292892D01*
X119466314Y-94227000D01*
X119559500Y-94133814D01*
X119625392Y-94019686D01*
X119659500Y-93892392D01*
X119659500Y-93760608D01*
X119625392Y-93633314D01*
X119559500Y-93519186D01*
X119466314Y-93426000D01*
X119387828Y-93380686D01*
X119352187Y-93360108D01*
X119279119Y-93340530D01*
X119224892Y-93326000D01*
X119093108Y-93326000D01*
X119032674Y-93342193D01*
X118962824Y-93340530D01*
X118904961Y-93301367D01*
X118877458Y-93237138D01*
X118880805Y-93190331D01*
X118897000Y-93129892D01*
X118897000Y-92998108D01*
X118862892Y-92870814D01*
X118797000Y-92756686D01*
X118703814Y-92663500D01*
X118646750Y-92630554D01*
X118589687Y-92597608D01*
X118526039Y-92580554D01*
X118462392Y-92563500D01*
X118330608Y-92563500D01*
X118203312Y-92597608D01*
X118089186Y-92663500D01*
X118089183Y-92663502D01*
X117996002Y-92756683D01*
X117996000Y-92756686D01*
X117930108Y-92870812D01*
X117896000Y-92998108D01*
X117896000Y-93129891D01*
X117912193Y-93190325D01*
X117910530Y-93260175D01*
X117871367Y-93318037D01*
X117807139Y-93345541D01*
X117760325Y-93342193D01*
X117699892Y-93326000D01*
X117568108Y-93326000D01*
X117507674Y-93342193D01*
X117437824Y-93340530D01*
X117379961Y-93301367D01*
X117352458Y-93237138D01*
X117355805Y-93190331D01*
X117372000Y-93129892D01*
X117372000Y-92998108D01*
X117337892Y-92870814D01*
X117272000Y-92756686D01*
X117178814Y-92663500D01*
X117121750Y-92630554D01*
X117064687Y-92597608D01*
X117001039Y-92580554D01*
X116937392Y-92563500D01*
X116805608Y-92563500D01*
X116678312Y-92597608D01*
X116564186Y-92663500D01*
X116564183Y-92663502D01*
X116471002Y-92756683D01*
X116471000Y-92756686D01*
X116405108Y-92870812D01*
X116371000Y-92998108D01*
X116371000Y-93129891D01*
X116387193Y-93190325D01*
X116385530Y-93260175D01*
X116346367Y-93318037D01*
X116282139Y-93345541D01*
X116235325Y-93342193D01*
X116174892Y-93326000D01*
X116043108Y-93326000D01*
X115915812Y-93360108D01*
X115801686Y-93426000D01*
X115801683Y-93426002D01*
X115708502Y-93519183D01*
X115708500Y-93519186D01*
X115642608Y-93633312D01*
X115608500Y-93760608D01*
X92881500Y-93760608D01*
X92881500Y-93669982D01*
X92852503Y-93561763D01*
X92796485Y-93464737D01*
X92717263Y-93385515D01*
X92620237Y-93329497D01*
X92512018Y-93300500D01*
X92399982Y-93300500D01*
X92291763Y-93329497D01*
X92291760Y-93329498D01*
X92194740Y-93385513D01*
X92194734Y-93385517D01*
X92115517Y-93464734D01*
X92115513Y-93464740D01*
X92059498Y-93561760D01*
X92059497Y-93561763D01*
X92030500Y-93669982D01*
X77290899Y-93669982D01*
X77290899Y-92984182D01*
X113163300Y-92984182D01*
X113163300Y-93096218D01*
X113192297Y-93204437D01*
X113248315Y-93301463D01*
X113327537Y-93380685D01*
X113424563Y-93436703D01*
X113532782Y-93465700D01*
X113532784Y-93465700D01*
X113644816Y-93465700D01*
X113644818Y-93465700D01*
X113753037Y-93436703D01*
X113850063Y-93380685D01*
X113929285Y-93301463D01*
X113985303Y-93204437D01*
X113985303Y-93204436D01*
X113989367Y-93197398D01*
X113992490Y-93199201D01*
X114025776Y-93157642D01*
X114092004Y-93135379D01*
X114159754Y-93152455D01*
X114202685Y-93198291D01*
X114204233Y-93197398D01*
X114208297Y-93204437D01*
X114264315Y-93301463D01*
X114343537Y-93380685D01*
X114440563Y-93436703D01*
X114548782Y-93465700D01*
X114548784Y-93465700D01*
X114660816Y-93465700D01*
X114660818Y-93465700D01*
X114769037Y-93436703D01*
X114866063Y-93380685D01*
X114945285Y-93301463D01*
X115001303Y-93204437D01*
X115030300Y-93096218D01*
X115030300Y-92984182D01*
X115001303Y-92875963D01*
X114945285Y-92778937D01*
X114866063Y-92699715D01*
X114769037Y-92643697D01*
X114660818Y-92614700D01*
X114548782Y-92614700D01*
X114440563Y-92643697D01*
X114440560Y-92643698D01*
X114343540Y-92699713D01*
X114343534Y-92699717D01*
X114264317Y-92778934D01*
X114264313Y-92778940D01*
X114204233Y-92883002D01*
X114201160Y-92881228D01*
X114167503Y-92922981D01*
X114101205Y-92945035D01*
X114033508Y-92927744D01*
X113990992Y-92882063D01*
X113989367Y-92883002D01*
X113959767Y-92831734D01*
X113929285Y-92778937D01*
X113850063Y-92699715D01*
X113753037Y-92643697D01*
X113644818Y-92614700D01*
X113532782Y-92614700D01*
X113424563Y-92643697D01*
X113424560Y-92643698D01*
X113327540Y-92699713D01*
X113327534Y-92699717D01*
X113248317Y-92778934D01*
X113248313Y-92778940D01*
X113192298Y-92875960D01*
X113192297Y-92875963D01*
X113163300Y-92984182D01*
X77290899Y-92984182D01*
X77290899Y-92831734D01*
X77288046Y-92801300D01*
X77243193Y-92673117D01*
X77221480Y-92643697D01*
X77162550Y-92563849D01*
X77088523Y-92509215D01*
X77053283Y-92483207D01*
X77053281Y-92483206D01*
X76925101Y-92438353D01*
X76894670Y-92435500D01*
X74286139Y-92435500D01*
X74272151Y-92436811D01*
X74255700Y-92438354D01*
X74255697Y-92438354D01*
X74255696Y-92438355D01*
X74255694Y-92438355D01*
X74127517Y-92483206D01*
X74018249Y-92563849D01*
X73937606Y-92673118D01*
X73892753Y-92801297D01*
X73892753Y-92801299D01*
X73889900Y-92831729D01*
X71070855Y-92831729D01*
X71070860Y-91764982D01*
X100412500Y-91764982D01*
X100412500Y-91877018D01*
X100441497Y-91985237D01*
X100497515Y-92082263D01*
X100576737Y-92161485D01*
X100673763Y-92217503D01*
X100781982Y-92246500D01*
X100781984Y-92246500D01*
X100894016Y-92246500D01*
X100894018Y-92246500D01*
X101002237Y-92217503D01*
X101099263Y-92161485D01*
X101131766Y-92128982D01*
X103079500Y-92128982D01*
X103079500Y-92241018D01*
X103108497Y-92349237D01*
X103164515Y-92446263D01*
X103243737Y-92525485D01*
X103340763Y-92581503D01*
X103448982Y-92610500D01*
X103448984Y-92610500D01*
X103561016Y-92610500D01*
X103561018Y-92610500D01*
X103669237Y-92581503D01*
X103766263Y-92525485D01*
X103845485Y-92446263D01*
X103901503Y-92349237D01*
X103930500Y-92241018D01*
X103930500Y-92128982D01*
X103901503Y-92020763D01*
X103871607Y-91968982D01*
X122510500Y-91968982D01*
X122510500Y-92081018D01*
X122539497Y-92189237D01*
X122595515Y-92286263D01*
X122674737Y-92365485D01*
X122771763Y-92421503D01*
X122879982Y-92450500D01*
X122879984Y-92450500D01*
X122992016Y-92450500D01*
X122992018Y-92450500D01*
X123100237Y-92421503D01*
X123197263Y-92365485D01*
X123276485Y-92286263D01*
X123332503Y-92189237D01*
X123361500Y-92081018D01*
X123361500Y-91968982D01*
X123332503Y-91860763D01*
X123321198Y-91841182D01*
X123678900Y-91841182D01*
X123678900Y-91953218D01*
X123707205Y-92058852D01*
X123707897Y-92061436D01*
X123707898Y-92061439D01*
X123719202Y-92081018D01*
X123763915Y-92158463D01*
X123843137Y-92237685D01*
X123940163Y-92293703D01*
X124048382Y-92322700D01*
X124048384Y-92322700D01*
X124160416Y-92322700D01*
X124160418Y-92322700D01*
X124268637Y-92293703D01*
X124365663Y-92237685D01*
X124444885Y-92158463D01*
X124500903Y-92061437D01*
X124529900Y-91953218D01*
X124529900Y-91841182D01*
X124500903Y-91732963D01*
X124444885Y-91635937D01*
X124365663Y-91556715D01*
X124268637Y-91500697D01*
X124160418Y-91471700D01*
X124048382Y-91471700D01*
X123940163Y-91500697D01*
X123940160Y-91500698D01*
X123843140Y-91556713D01*
X123843134Y-91556717D01*
X123763917Y-91635934D01*
X123763913Y-91635940D01*
X123707898Y-91732960D01*
X123707897Y-91732963D01*
X123678900Y-91841182D01*
X123321198Y-91841182D01*
X123276485Y-91763737D01*
X123197263Y-91684515D01*
X123113129Y-91635940D01*
X123100239Y-91628498D01*
X123100238Y-91628497D01*
X123100237Y-91628497D01*
X122992018Y-91599500D01*
X122879982Y-91599500D01*
X122771763Y-91628497D01*
X122771760Y-91628498D01*
X122674740Y-91684513D01*
X122674734Y-91684517D01*
X122595517Y-91763734D01*
X122595513Y-91763740D01*
X122539498Y-91860760D01*
X122539497Y-91860763D01*
X122510500Y-91968982D01*
X103871607Y-91968982D01*
X103845485Y-91923737D01*
X103766263Y-91844515D01*
X103669237Y-91788497D01*
X103561018Y-91759500D01*
X103448982Y-91759500D01*
X103340763Y-91788497D01*
X103340760Y-91788498D01*
X103243740Y-91844513D01*
X103243734Y-91844517D01*
X103164517Y-91923734D01*
X103164513Y-91923740D01*
X103108498Y-92020760D01*
X103108497Y-92020763D01*
X103079500Y-92128982D01*
X101131766Y-92128982D01*
X101178485Y-92082263D01*
X101234503Y-91985237D01*
X101263500Y-91877018D01*
X101263500Y-91764982D01*
X101234503Y-91656763D01*
X101178485Y-91559737D01*
X101099263Y-91480515D01*
X101002237Y-91424497D01*
X100894018Y-91395500D01*
X100781982Y-91395500D01*
X100673763Y-91424497D01*
X100673760Y-91424498D01*
X100576740Y-91480513D01*
X100576734Y-91480517D01*
X100497517Y-91559734D01*
X100497513Y-91559740D01*
X100441498Y-91656760D01*
X100441497Y-91656763D01*
X100412500Y-91764982D01*
X71070860Y-91764982D01*
X71070868Y-90113982D01*
X92792500Y-90113982D01*
X92792500Y-90226018D01*
X92821497Y-90334237D01*
X92877515Y-90431263D01*
X92956737Y-90510485D01*
X93053763Y-90566503D01*
X93161982Y-90595500D01*
X93161984Y-90595500D01*
X93274016Y-90595500D01*
X93274018Y-90595500D01*
X93382237Y-90566503D01*
X93479263Y-90510485D01*
X93558485Y-90431263D01*
X93614503Y-90334237D01*
X93643500Y-90226018D01*
X93643500Y-90113982D01*
X93614503Y-90005763D01*
X93558485Y-89908737D01*
X93479263Y-89829515D01*
X93382237Y-89773497D01*
X93274018Y-89744500D01*
X93161982Y-89744500D01*
X93053763Y-89773497D01*
X93053760Y-89773498D01*
X92956740Y-89829513D01*
X92956734Y-89829517D01*
X92877517Y-89908734D01*
X92877513Y-89908740D01*
X92821498Y-90005760D01*
X92821497Y-90005763D01*
X92792500Y-90113982D01*
X71070868Y-90113982D01*
X71070871Y-89478982D01*
X94697500Y-89478982D01*
X94697500Y-89591018D01*
X94726497Y-89699237D01*
X94782515Y-89796263D01*
X94861737Y-89875485D01*
X94958763Y-89931503D01*
X95066982Y-89960500D01*
X95066984Y-89960500D01*
X95179016Y-89960500D01*
X95179018Y-89960500D01*
X95287237Y-89931503D01*
X95384263Y-89875485D01*
X95463485Y-89796263D01*
X95519503Y-89699237D01*
X95548500Y-89591018D01*
X95548500Y-89478982D01*
X95519503Y-89370763D01*
X95463485Y-89273737D01*
X95384263Y-89194515D01*
X95287237Y-89138497D01*
X95179018Y-89109500D01*
X95066982Y-89109500D01*
X94958763Y-89138497D01*
X94958760Y-89138498D01*
X94861740Y-89194513D01*
X94861734Y-89194517D01*
X94782517Y-89273734D01*
X94782513Y-89273740D01*
X94726498Y-89370760D01*
X94726497Y-89370763D01*
X94697500Y-89478982D01*
X71070871Y-89478982D01*
X71070873Y-88996382D01*
X97618500Y-88996382D01*
X97618500Y-89108418D01*
X97647497Y-89216637D01*
X97703515Y-89313663D01*
X97782737Y-89392885D01*
X97879763Y-89448903D01*
X97987982Y-89477900D01*
X97987984Y-89477900D01*
X98100016Y-89477900D01*
X98100018Y-89477900D01*
X98208237Y-89448903D01*
X98305263Y-89392885D01*
X98384485Y-89313663D01*
X98440503Y-89216637D01*
X98469500Y-89108418D01*
X98469500Y-88996382D01*
X104222500Y-88996382D01*
X104222500Y-89108418D01*
X104251497Y-89216637D01*
X104307515Y-89313663D01*
X104386737Y-89392885D01*
X104483763Y-89448903D01*
X104591982Y-89477900D01*
X104591984Y-89477900D01*
X104704016Y-89477900D01*
X104704018Y-89477900D01*
X104812237Y-89448903D01*
X104909263Y-89392885D01*
X104988485Y-89313663D01*
X105044503Y-89216637D01*
X105073500Y-89108418D01*
X105073500Y-88996382D01*
X105044503Y-88888163D01*
X104989666Y-88793182D01*
X111131300Y-88793182D01*
X111131300Y-88905218D01*
X111160297Y-89013437D01*
X111216315Y-89110463D01*
X111295537Y-89189685D01*
X111392563Y-89245703D01*
X111500782Y-89274700D01*
X111500784Y-89274700D01*
X111612816Y-89274700D01*
X111612818Y-89274700D01*
X111721037Y-89245703D01*
X111818063Y-89189685D01*
X111897285Y-89110463D01*
X111953303Y-89013437D01*
X111982300Y-88905218D01*
X111982300Y-88793182D01*
X111953303Y-88684963D01*
X111897285Y-88587937D01*
X111818063Y-88508715D01*
X111721037Y-88452697D01*
X111612818Y-88423700D01*
X111500782Y-88423700D01*
X111392563Y-88452697D01*
X111392560Y-88452698D01*
X111295540Y-88508713D01*
X111295534Y-88508717D01*
X111216317Y-88587934D01*
X111216313Y-88587940D01*
X111160298Y-88684960D01*
X111160297Y-88684963D01*
X111131300Y-88793182D01*
X104989666Y-88793182D01*
X104988485Y-88791137D01*
X104909263Y-88711915D01*
X104812237Y-88655897D01*
X104704018Y-88626900D01*
X104591982Y-88626900D01*
X104483763Y-88655897D01*
X104483760Y-88655898D01*
X104386740Y-88711913D01*
X104386734Y-88711917D01*
X104307517Y-88791134D01*
X104307513Y-88791140D01*
X104251498Y-88888160D01*
X104251497Y-88888163D01*
X104222500Y-88996382D01*
X98469500Y-88996382D01*
X98440503Y-88888163D01*
X98384485Y-88791137D01*
X98305263Y-88711915D01*
X98208237Y-88655897D01*
X98100018Y-88626900D01*
X97987982Y-88626900D01*
X97879763Y-88655897D01*
X97879760Y-88655898D01*
X97782740Y-88711913D01*
X97782734Y-88711917D01*
X97703517Y-88791134D01*
X97703513Y-88791140D01*
X97647498Y-88888160D01*
X97647497Y-88888163D01*
X97618500Y-88996382D01*
X71070873Y-88996382D01*
X71070879Y-87859574D01*
X71070900Y-87841137D01*
X71071260Y-87840627D01*
X71070923Y-87819486D01*
X71070925Y-87818487D01*
X71070987Y-87818274D01*
X71071120Y-87811666D01*
X71083134Y-87598336D01*
X71085422Y-87580619D01*
X71112580Y-87446982D01*
X99777500Y-87446982D01*
X99777500Y-87559018D01*
X99806497Y-87667237D01*
X99862515Y-87764263D01*
X99941737Y-87843485D01*
X100038763Y-87899503D01*
X100146982Y-87928500D01*
X100146984Y-87928500D01*
X100259016Y-87928500D01*
X100259018Y-87928500D01*
X100367237Y-87899503D01*
X100464263Y-87843485D01*
X100543485Y-87764263D01*
X100599503Y-87667237D01*
X100628500Y-87559018D01*
X100628500Y-87446982D01*
X100599503Y-87338763D01*
X100543485Y-87241737D01*
X100494730Y-87192982D01*
X106889500Y-87192982D01*
X106889500Y-87305018D01*
X106918497Y-87413237D01*
X106974515Y-87510263D01*
X107053737Y-87589485D01*
X107150763Y-87645503D01*
X107258982Y-87674500D01*
X107258984Y-87674500D01*
X107371016Y-87674500D01*
X107371018Y-87674500D01*
X107479237Y-87645503D01*
X107576263Y-87589485D01*
X107655485Y-87510263D01*
X107711503Y-87413237D01*
X107740500Y-87305018D01*
X107740500Y-87192982D01*
X107711503Y-87084763D01*
X107700660Y-87065982D01*
X113417300Y-87065982D01*
X113417300Y-87178018D01*
X113446297Y-87286237D01*
X113502315Y-87383263D01*
X113581537Y-87462485D01*
X113678563Y-87518503D01*
X113786782Y-87547500D01*
X113786784Y-87547500D01*
X113898816Y-87547500D01*
X113898818Y-87547500D01*
X114007037Y-87518503D01*
X114104063Y-87462485D01*
X114183285Y-87383263D01*
X114239303Y-87286237D01*
X114264290Y-87192982D01*
X123653500Y-87192982D01*
X123653500Y-87305018D01*
X123682497Y-87413237D01*
X123738515Y-87510263D01*
X123817737Y-87589485D01*
X123914763Y-87645503D01*
X124022982Y-87674500D01*
X124022984Y-87674500D01*
X124135016Y-87674500D01*
X124135018Y-87674500D01*
X124243237Y-87645503D01*
X124340263Y-87589485D01*
X124419485Y-87510263D01*
X124475503Y-87413237D01*
X124504500Y-87305018D01*
X124504500Y-87192982D01*
X126320500Y-87192982D01*
X126320500Y-87305018D01*
X126349497Y-87413237D01*
X126405515Y-87510263D01*
X126484737Y-87589485D01*
X126581763Y-87645503D01*
X126689982Y-87674500D01*
X126689984Y-87674500D01*
X126802016Y-87674500D01*
X126802018Y-87674500D01*
X126910237Y-87645503D01*
X127007263Y-87589485D01*
X127086485Y-87510263D01*
X127142503Y-87413237D01*
X127171500Y-87305018D01*
X127171500Y-87192982D01*
X127142503Y-87084763D01*
X127086485Y-86987737D01*
X127007263Y-86908515D01*
X126910237Y-86852497D01*
X126802018Y-86823500D01*
X126689982Y-86823500D01*
X126581763Y-86852497D01*
X126581760Y-86852498D01*
X126484740Y-86908513D01*
X126484734Y-86908517D01*
X126405517Y-86987734D01*
X126405513Y-86987740D01*
X126349498Y-87084760D01*
X126349498Y-87084761D01*
X126349497Y-87084763D01*
X126320500Y-87192982D01*
X124504500Y-87192982D01*
X124475503Y-87084763D01*
X124419485Y-86987737D01*
X124340263Y-86908515D01*
X124243237Y-86852497D01*
X124135018Y-86823500D01*
X124022982Y-86823500D01*
X123914763Y-86852497D01*
X123914760Y-86852498D01*
X123817740Y-86908513D01*
X123817734Y-86908517D01*
X123738517Y-86987734D01*
X123738513Y-86987740D01*
X123682498Y-87084760D01*
X123682498Y-87084761D01*
X123682497Y-87084763D01*
X123653500Y-87192982D01*
X114264290Y-87192982D01*
X114268300Y-87178018D01*
X114268300Y-87065982D01*
X114239303Y-86957763D01*
X114183285Y-86860737D01*
X114104063Y-86781515D01*
X114007037Y-86725497D01*
X113898818Y-86696500D01*
X113786782Y-86696500D01*
X113678563Y-86725497D01*
X113678560Y-86725498D01*
X113581540Y-86781513D01*
X113581534Y-86781517D01*
X113502317Y-86860734D01*
X113502313Y-86860740D01*
X113446298Y-86957760D01*
X113446297Y-86957763D01*
X113417300Y-87065982D01*
X107700660Y-87065982D01*
X107655485Y-86987737D01*
X107576263Y-86908515D01*
X107479237Y-86852497D01*
X107371018Y-86823500D01*
X107258982Y-86823500D01*
X107150763Y-86852497D01*
X107150760Y-86852498D01*
X107053740Y-86908513D01*
X107053734Y-86908517D01*
X106974517Y-86987734D01*
X106974513Y-86987740D01*
X106918498Y-87084760D01*
X106918498Y-87084761D01*
X106918497Y-87084763D01*
X106889500Y-87192982D01*
X100494730Y-87192982D01*
X100464263Y-87162515D01*
X100367237Y-87106497D01*
X100259018Y-87077500D01*
X100146982Y-87077500D01*
X100038763Y-87106497D01*
X100038760Y-87106498D01*
X99941740Y-87162513D01*
X99941734Y-87162517D01*
X99862517Y-87241734D01*
X99862513Y-87241740D01*
X99806498Y-87338760D01*
X99806497Y-87338763D01*
X99777500Y-87446982D01*
X71112580Y-87446982D01*
X71127074Y-87375659D01*
X71131880Y-87358470D01*
X71202570Y-87161602D01*
X71209789Y-87145300D01*
X71308043Y-86960637D01*
X71317539Y-86945528D01*
X71441311Y-86776913D01*
X71452879Y-86763327D01*
X71599598Y-86614259D01*
X71613010Y-86602466D01*
X71779626Y-86476041D01*
X71794594Y-86466298D01*
X71977661Y-86365131D01*
X71993859Y-86357648D01*
X72189566Y-86283845D01*
X72206679Y-86278766D01*
X72410962Y-86233861D01*
X72428637Y-86231293D01*
X72641441Y-86215915D01*
X72650375Y-86215594D01*
X127093457Y-86215800D01*
G37*
G04 #@! TD.AperFunction*
M02*
