G04 #@! TF.GenerationSoftware,KiCad,Pcbnew,9.0.4*
G04 #@! TF.CreationDate,2025-10-03T12:39:18+02:00*
G04 #@! TF.ProjectId,Mini-EMS-ESP,4d696e69-2d45-44d5-932d-4553502e6b69,rev?*
G04 #@! TF.SameCoordinates,Original*
G04 #@! TF.FileFunction,Legend,Bot*
G04 #@! TF.FilePolarity,Positive*
%FSLAX46Y46*%
G04 Gerber Fmt 4.6, Leading zero omitted, Abs format (unit mm)*
G04 Created by KiCad (PCBNEW 9.0.4) date 2025-10-03 12:39:18*
%MOMM*%
%LPD*%
G01*
G04 APERTURE LIST*
%ADD10C,0.150000*%
%ADD11C,0.120000*%
G04 APERTURE END LIST*
D10*
X127018819Y-103167095D02*
X127828342Y-103167095D01*
X127828342Y-103167095D02*
X127923580Y-103214714D01*
X127923580Y-103214714D02*
X127971200Y-103262333D01*
X127971200Y-103262333D02*
X128018819Y-103357571D01*
X128018819Y-103357571D02*
X128018819Y-103548047D01*
X128018819Y-103548047D02*
X127971200Y-103643285D01*
X127971200Y-103643285D02*
X127923580Y-103690904D01*
X127923580Y-103690904D02*
X127828342Y-103738523D01*
X127828342Y-103738523D02*
X127018819Y-103738523D01*
X128018819Y-104738523D02*
X128018819Y-104167095D01*
X128018819Y-104452809D02*
X127018819Y-104452809D01*
X127018819Y-104452809D02*
X127161676Y-104357571D01*
X127161676Y-104357571D02*
X127256914Y-104262333D01*
X127256914Y-104262333D02*
X127304533Y-104167095D01*
D11*
X107834000Y-79639000D02*
X107834000Y-86054000D01*
X107834000Y-104599000D02*
X107834000Y-105379000D01*
X107834000Y-105379000D02*
X108834000Y-105379000D01*
X126074000Y-79639000D02*
X107834000Y-79639000D01*
X126074000Y-79639000D02*
X126074000Y-85799000D01*
X126074000Y-104599000D02*
X126074000Y-105379000D01*
X126074000Y-105379000D02*
X125074000Y-105379000D01*
X126579000Y-86524000D02*
X126079000Y-86524000D01*
X126079000Y-86024000D01*
X126579000Y-86524000D01*
G36*
X126579000Y-86524000D02*
G01*
X126079000Y-86524000D01*
X126079000Y-86024000D01*
X126579000Y-86524000D01*
G37*
M02*
