M48
; DRILL file {KiCad 9.0.4} date 2025-10-03T12:39:36+0200
; FORMAT={-:-/ absolute / metric / decimal}
; #@! TF.CreationDate,2025-10-03T12:39:36+02:00
; #@! TF.GenerationSoftware,Kicad,Pcbnew,9.0.4
; #@! TF.FileFunction,Plated,1,4,PTH
FMAT,2
METRIC
; #@! TA.AperFunction,Plated,PTH,ComponentDrill
T1C0.200
; #@! TA.AperFunction,Plated,PTH,ViaDrill
T2C0.300
; #@! TA.AperFunction,Plated,PTH,ComponentDrill
T3C0.600
; #@! TA.AperFunction,Plated,PTH,ComponentDrill
T4C1.320
%
G90
G05
T1
X116.109Y-93.826
X116.109Y-95.352
X116.871Y-93.064
X116.871Y-94.589
X116.871Y-96.114
X117.634Y-93.826
X117.634Y-95.352
X118.396Y-93.064
X118.396Y-94.589
X118.396Y-96.114
X119.159Y-93.826
X119.159Y-95.352
T2
X78.359Y-118.872
X79.375Y-105.029
X79.502Y-112.522
X79.629Y-118.745
X79.947Y-108.913
X80.137Y-109.855
X81.153Y-111.142
X81.534Y-117.475
X82.042Y-111.506
X82.448Y-121.818
X82.677Y-118.999
X83.058Y-107.188
X83.058Y-110.49
X83.185Y-111.506
X84.963Y-111.633
X86.36Y-123.19
X87.503Y-121.285
X92.253Y-115.164
X92.456Y-93.726
X92.456Y-102.235
X93.218Y-90.17
X94.539Y-113.995
X95.123Y-89.535
X95.123Y-102.489
X98.044Y-89.052
X100.203Y-87.503
X100.838Y-91.821
X100.838Y-106.985
X101.779Y-101.779
X101.854Y-112.522
X101.889Y-109.712
X102.006Y-98.501
X102.743Y-112.522
X103.378Y-107.137
X103.505Y-92.185
X103.632Y-112.522
X104.648Y-89.052
X104.775Y-104.394
X105.123Y-97.188
X105.283Y-100.457
X106.553Y-93.091
X107.315Y-87.249
X107.544Y-104.8
X110.109Y-96.139
X110.363Y-98.679
X110.363Y-99.695
X111.76Y-113.03
X112.776Y-101.6
X113.792Y-101.6
X113.843Y-87.122
X114.808Y-101.6
X115.824Y-101.6
X116.434Y-87.071
X116.84Y-101.6
X117.221Y-98.679
X117.221Y-99.695
X117.221Y-113.665
X117.221Y-114.554
X117.221Y-115.443
X117.221Y-116.332
X117.221Y-117.221
X117.856Y-101.6
X117.983Y-113.665
X117.983Y-114.554
X117.983Y-115.443
X117.983Y-116.332
X117.983Y-117.221
X118.364Y-121.158
X118.745Y-113.665
X118.745Y-114.554
X118.745Y-115.443
X118.745Y-116.332
X118.745Y-117.221
X118.999Y-118.745
X118.999Y-119.761
X118.999Y-120.777
X119.126Y-103.378
X119.761Y-118.745
X119.761Y-119.761
X119.761Y-120.777
X120.523Y-118.745
X120.523Y-119.761
X120.523Y-120.777
X121.285Y-118.745
X121.285Y-119.761
X121.285Y-120.777
X122.809Y-114.935
X122.936Y-92.025
X123.317Y-106.553
X124.079Y-87.249
X124.079Y-106.553
X124.104Y-91.897
X124.333Y-88.519
X124.841Y-106.553
X125.603Y-106.553
X126.746Y-87.249
X126.746Y-88.519
X126.949Y-96.164
T4
X77.597Y-94.136
X77.597Y-99.136
T3
G00X74.126Y-104.392
M15
G01X73.526Y-104.392
M16
G05
G00X73.526Y-104.392
M15
G01X74.126Y-104.392
M16
G05
G00X74.126Y-113.032
M15
G01X73.526Y-113.032
M16
G05
G00X73.526Y-113.032
M15
G01X74.126Y-113.032
M16
G05
G00X77.456Y-104.392
M15
G01X78.556Y-104.392
M16
G05
G00X78.556Y-104.392
M15
G01X77.456Y-104.392
M16
G05
G00X78.556Y-113.032
M15
G01X77.456Y-113.032
M16
G05
G00X77.456Y-113.032
M15
G01X78.556Y-113.032
M16
G05
M30
