%TF.GenerationSoftware,KiCad,Pcbnew,9.0.4*%
%TF.CreationDate,2025-10-03T12:39:36+02:00*%
%TF.ProjectId,Mini-EMS-ESP,4d696e69-2d45-44d5-932d-4553502e6b69,rev?*%
%TF.SameCoordinates,Original*%
%TF.FileFunction,Drillmap*%
%TF.FilePolarity,Positive*%
%FSLAX45Y45*%
G04 Gerber Fmt 4.5, Leading zero omitted, Abs format (unit mm)*
G04 Created by KiCad (PCBNEW 9.0.4) date 2025-10-03 12:39:36*
%MOMM*%
%LPD*%
G01*
G04 APERTURE LIST*
%ADD10C,0.050000*%
%ADD11C,0.200000*%
%ADD12C,0.100000*%
G04 APERTURE END LIST*
D10*
X7099300Y-8585200D02*
X12877800Y-8585200D01*
X12877800Y-12484100D01*
X7099300Y-12484100D01*
X7099300Y-8585200D01*
D11*
D12*
X7715100Y-10549700D02*
X7780100Y-10614700D01*
X7780100Y-10549700D02*
X7715100Y-10614700D01*
X7715100Y-11127700D02*
X7780100Y-11192700D01*
X7780100Y-11127700D02*
X7715100Y-11192700D01*
D11*
X7357577Y-12798084D02*
X7357577Y-12598084D01*
X7357577Y-12598084D02*
X7405196Y-12598084D01*
X7405196Y-12598084D02*
X7433767Y-12607608D01*
X7433767Y-12607608D02*
X7452815Y-12626655D01*
X7452815Y-12626655D02*
X7462339Y-12645703D01*
X7462339Y-12645703D02*
X7471862Y-12683798D01*
X7471862Y-12683798D02*
X7471862Y-12712369D01*
X7471862Y-12712369D02*
X7462339Y-12750465D01*
X7462339Y-12750465D02*
X7452815Y-12769512D01*
X7452815Y-12769512D02*
X7433767Y-12788560D01*
X7433767Y-12788560D02*
X7405196Y-12798084D01*
X7405196Y-12798084D02*
X7357577Y-12798084D01*
X7557577Y-12798084D02*
X7557577Y-12664750D01*
X7557577Y-12702846D02*
X7567101Y-12683798D01*
X7567101Y-12683798D02*
X7576624Y-12674274D01*
X7576624Y-12674274D02*
X7595672Y-12664750D01*
X7595672Y-12664750D02*
X7614720Y-12664750D01*
X7681386Y-12798084D02*
X7681386Y-12664750D01*
X7681386Y-12598084D02*
X7671862Y-12607608D01*
X7671862Y-12607608D02*
X7681386Y-12617131D01*
X7681386Y-12617131D02*
X7690910Y-12607608D01*
X7690910Y-12607608D02*
X7681386Y-12598084D01*
X7681386Y-12598084D02*
X7681386Y-12617131D01*
X7805196Y-12798084D02*
X7786148Y-12788560D01*
X7786148Y-12788560D02*
X7776624Y-12769512D01*
X7776624Y-12769512D02*
X7776624Y-12598084D01*
X7909958Y-12798084D02*
X7890910Y-12788560D01*
X7890910Y-12788560D02*
X7881386Y-12769512D01*
X7881386Y-12769512D02*
X7881386Y-12598084D01*
X8138529Y-12798084D02*
X8138529Y-12598084D01*
X8138529Y-12598084D02*
X8205196Y-12740941D01*
X8205196Y-12740941D02*
X8271862Y-12598084D01*
X8271862Y-12598084D02*
X8271862Y-12798084D01*
X8452815Y-12798084D02*
X8452815Y-12693322D01*
X8452815Y-12693322D02*
X8443291Y-12674274D01*
X8443291Y-12674274D02*
X8424244Y-12664750D01*
X8424244Y-12664750D02*
X8386148Y-12664750D01*
X8386148Y-12664750D02*
X8367101Y-12674274D01*
X8452815Y-12788560D02*
X8433767Y-12798084D01*
X8433767Y-12798084D02*
X8386148Y-12798084D01*
X8386148Y-12798084D02*
X8367101Y-12788560D01*
X8367101Y-12788560D02*
X8357577Y-12769512D01*
X8357577Y-12769512D02*
X8357577Y-12750465D01*
X8357577Y-12750465D02*
X8367101Y-12731417D01*
X8367101Y-12731417D02*
X8386148Y-12721893D01*
X8386148Y-12721893D02*
X8433767Y-12721893D01*
X8433767Y-12721893D02*
X8452815Y-12712369D01*
X8548053Y-12664750D02*
X8548053Y-12864750D01*
X8548053Y-12674274D02*
X8567101Y-12664750D01*
X8567101Y-12664750D02*
X8605196Y-12664750D01*
X8605196Y-12664750D02*
X8624244Y-12674274D01*
X8624244Y-12674274D02*
X8633767Y-12683798D01*
X8633767Y-12683798D02*
X8643291Y-12702846D01*
X8643291Y-12702846D02*
X8643291Y-12759988D01*
X8643291Y-12759988D02*
X8633767Y-12779036D01*
X8633767Y-12779036D02*
X8624244Y-12788560D01*
X8624244Y-12788560D02*
X8605196Y-12798084D01*
X8605196Y-12798084D02*
X8567101Y-12798084D01*
X8567101Y-12798084D02*
X8548053Y-12788560D01*
X8729005Y-12779036D02*
X8738529Y-12788560D01*
X8738529Y-12788560D02*
X8729005Y-12798084D01*
X8729005Y-12798084D02*
X8719482Y-12788560D01*
X8719482Y-12788560D02*
X8729005Y-12779036D01*
X8729005Y-12779036D02*
X8729005Y-12798084D01*
X8729005Y-12674274D02*
X8738529Y-12683798D01*
X8738529Y-12683798D02*
X8729005Y-12693322D01*
X8729005Y-12693322D02*
X8719482Y-12683798D01*
X8719482Y-12683798D02*
X8729005Y-12674274D01*
X8729005Y-12674274D02*
X8729005Y-12693322D01*
D12*
X7031800Y-13094100D02*
X7096800Y-13159100D01*
X7096800Y-13094100D02*
X7031800Y-13159100D01*
D11*
X7395672Y-13018084D02*
X7414720Y-13018084D01*
X7414720Y-13018084D02*
X7433767Y-13027608D01*
X7433767Y-13027608D02*
X7443291Y-13037131D01*
X7443291Y-13037131D02*
X7452815Y-13056179D01*
X7452815Y-13056179D02*
X7462339Y-13094274D01*
X7462339Y-13094274D02*
X7462339Y-13141893D01*
X7462339Y-13141893D02*
X7452815Y-13179988D01*
X7452815Y-13179988D02*
X7443291Y-13199036D01*
X7443291Y-13199036D02*
X7433767Y-13208560D01*
X7433767Y-13208560D02*
X7414720Y-13218084D01*
X7414720Y-13218084D02*
X7395672Y-13218084D01*
X7395672Y-13218084D02*
X7376624Y-13208560D01*
X7376624Y-13208560D02*
X7367101Y-13199036D01*
X7367101Y-13199036D02*
X7357577Y-13179988D01*
X7357577Y-13179988D02*
X7348053Y-13141893D01*
X7348053Y-13141893D02*
X7348053Y-13094274D01*
X7348053Y-13094274D02*
X7357577Y-13056179D01*
X7357577Y-13056179D02*
X7367101Y-13037131D01*
X7367101Y-13037131D02*
X7376624Y-13027608D01*
X7376624Y-13027608D02*
X7395672Y-13018084D01*
X7548053Y-13199036D02*
X7557577Y-13208560D01*
X7557577Y-13208560D02*
X7548053Y-13218084D01*
X7548053Y-13218084D02*
X7538529Y-13208560D01*
X7538529Y-13208560D02*
X7548053Y-13199036D01*
X7548053Y-13199036D02*
X7548053Y-13218084D01*
X7729005Y-13018084D02*
X7690910Y-13018084D01*
X7690910Y-13018084D02*
X7671862Y-13027608D01*
X7671862Y-13027608D02*
X7662339Y-13037131D01*
X7662339Y-13037131D02*
X7643291Y-13065703D01*
X7643291Y-13065703D02*
X7633767Y-13103798D01*
X7633767Y-13103798D02*
X7633767Y-13179988D01*
X7633767Y-13179988D02*
X7643291Y-13199036D01*
X7643291Y-13199036D02*
X7652815Y-13208560D01*
X7652815Y-13208560D02*
X7671862Y-13218084D01*
X7671862Y-13218084D02*
X7709958Y-13218084D01*
X7709958Y-13218084D02*
X7729005Y-13208560D01*
X7729005Y-13208560D02*
X7738529Y-13199036D01*
X7738529Y-13199036D02*
X7748053Y-13179988D01*
X7748053Y-13179988D02*
X7748053Y-13132369D01*
X7748053Y-13132369D02*
X7738529Y-13113322D01*
X7738529Y-13113322D02*
X7729005Y-13103798D01*
X7729005Y-13103798D02*
X7709958Y-13094274D01*
X7709958Y-13094274D02*
X7671862Y-13094274D01*
X7671862Y-13094274D02*
X7652815Y-13103798D01*
X7652815Y-13103798D02*
X7643291Y-13113322D01*
X7643291Y-13113322D02*
X7633767Y-13132369D01*
X7929005Y-13018084D02*
X7833767Y-13018084D01*
X7833767Y-13018084D02*
X7824243Y-13113322D01*
X7824243Y-13113322D02*
X7833767Y-13103798D01*
X7833767Y-13103798D02*
X7852815Y-13094274D01*
X7852815Y-13094274D02*
X7900434Y-13094274D01*
X7900434Y-13094274D02*
X7919482Y-13103798D01*
X7919482Y-13103798D02*
X7929005Y-13113322D01*
X7929005Y-13113322D02*
X7938529Y-13132369D01*
X7938529Y-13132369D02*
X7938529Y-13179988D01*
X7938529Y-13179988D02*
X7929005Y-13199036D01*
X7929005Y-13199036D02*
X7919482Y-13208560D01*
X7919482Y-13208560D02*
X7900434Y-13218084D01*
X7900434Y-13218084D02*
X7852815Y-13218084D01*
X7852815Y-13218084D02*
X7833767Y-13208560D01*
X7833767Y-13208560D02*
X7824243Y-13199036D01*
X8062339Y-13018084D02*
X8081386Y-13018084D01*
X8081386Y-13018084D02*
X8100434Y-13027608D01*
X8100434Y-13027608D02*
X8109958Y-13037131D01*
X8109958Y-13037131D02*
X8119482Y-13056179D01*
X8119482Y-13056179D02*
X8129005Y-13094274D01*
X8129005Y-13094274D02*
X8129005Y-13141893D01*
X8129005Y-13141893D02*
X8119482Y-13179988D01*
X8119482Y-13179988D02*
X8109958Y-13199036D01*
X8109958Y-13199036D02*
X8100434Y-13208560D01*
X8100434Y-13208560D02*
X8081386Y-13218084D01*
X8081386Y-13218084D02*
X8062339Y-13218084D01*
X8062339Y-13218084D02*
X8043291Y-13208560D01*
X8043291Y-13208560D02*
X8033767Y-13199036D01*
X8033767Y-13199036D02*
X8024243Y-13179988D01*
X8024243Y-13179988D02*
X8014720Y-13141893D01*
X8014720Y-13141893D02*
X8014720Y-13094274D01*
X8014720Y-13094274D02*
X8024243Y-13056179D01*
X8024243Y-13056179D02*
X8033767Y-13037131D01*
X8033767Y-13037131D02*
X8043291Y-13027608D01*
X8043291Y-13027608D02*
X8062339Y-13018084D01*
X8214720Y-13218084D02*
X8214720Y-13084750D01*
X8214720Y-13103798D02*
X8224243Y-13094274D01*
X8224243Y-13094274D02*
X8243291Y-13084750D01*
X8243291Y-13084750D02*
X8271863Y-13084750D01*
X8271863Y-13084750D02*
X8290910Y-13094274D01*
X8290910Y-13094274D02*
X8300434Y-13113322D01*
X8300434Y-13113322D02*
X8300434Y-13218084D01*
X8300434Y-13113322D02*
X8309958Y-13094274D01*
X8309958Y-13094274D02*
X8329005Y-13084750D01*
X8329005Y-13084750D02*
X8357577Y-13084750D01*
X8357577Y-13084750D02*
X8376624Y-13094274D01*
X8376624Y-13094274D02*
X8386148Y-13113322D01*
X8386148Y-13113322D02*
X8386148Y-13218084D01*
X8481386Y-13218084D02*
X8481386Y-13084750D01*
X8481386Y-13103798D02*
X8490910Y-13094274D01*
X8490910Y-13094274D02*
X8509958Y-13084750D01*
X8509958Y-13084750D02*
X8538529Y-13084750D01*
X8538529Y-13084750D02*
X8557577Y-13094274D01*
X8557577Y-13094274D02*
X8567101Y-13113322D01*
X8567101Y-13113322D02*
X8567101Y-13218084D01*
X8567101Y-13113322D02*
X8576625Y-13094274D01*
X8576625Y-13094274D02*
X8595672Y-13084750D01*
X8595672Y-13084750D02*
X8624244Y-13084750D01*
X8624244Y-13084750D02*
X8643291Y-13094274D01*
X8643291Y-13094274D02*
X8652815Y-13113322D01*
X8652815Y-13113322D02*
X8652815Y-13218084D01*
X9043291Y-13008560D02*
X8871863Y-13265703D01*
X9300434Y-13018084D02*
X9319482Y-13018084D01*
X9319482Y-13018084D02*
X9338529Y-13027608D01*
X9338529Y-13027608D02*
X9348053Y-13037131D01*
X9348053Y-13037131D02*
X9357577Y-13056179D01*
X9357577Y-13056179D02*
X9367101Y-13094274D01*
X9367101Y-13094274D02*
X9367101Y-13141893D01*
X9367101Y-13141893D02*
X9357577Y-13179988D01*
X9357577Y-13179988D02*
X9348053Y-13199036D01*
X9348053Y-13199036D02*
X9338529Y-13208560D01*
X9338529Y-13208560D02*
X9319482Y-13218084D01*
X9319482Y-13218084D02*
X9300434Y-13218084D01*
X9300434Y-13218084D02*
X9281387Y-13208560D01*
X9281387Y-13208560D02*
X9271863Y-13199036D01*
X9271863Y-13199036D02*
X9262339Y-13179988D01*
X9262339Y-13179988D02*
X9252815Y-13141893D01*
X9252815Y-13141893D02*
X9252815Y-13094274D01*
X9252815Y-13094274D02*
X9262339Y-13056179D01*
X9262339Y-13056179D02*
X9271863Y-13037131D01*
X9271863Y-13037131D02*
X9281387Y-13027608D01*
X9281387Y-13027608D02*
X9300434Y-13018084D01*
X9452815Y-13199036D02*
X9462339Y-13208560D01*
X9462339Y-13208560D02*
X9452815Y-13218084D01*
X9452815Y-13218084D02*
X9443291Y-13208560D01*
X9443291Y-13208560D02*
X9452815Y-13199036D01*
X9452815Y-13199036D02*
X9452815Y-13218084D01*
X9586148Y-13018084D02*
X9605196Y-13018084D01*
X9605196Y-13018084D02*
X9624244Y-13027608D01*
X9624244Y-13027608D02*
X9633768Y-13037131D01*
X9633768Y-13037131D02*
X9643291Y-13056179D01*
X9643291Y-13056179D02*
X9652815Y-13094274D01*
X9652815Y-13094274D02*
X9652815Y-13141893D01*
X9652815Y-13141893D02*
X9643291Y-13179988D01*
X9643291Y-13179988D02*
X9633768Y-13199036D01*
X9633768Y-13199036D02*
X9624244Y-13208560D01*
X9624244Y-13208560D02*
X9605196Y-13218084D01*
X9605196Y-13218084D02*
X9586148Y-13218084D01*
X9586148Y-13218084D02*
X9567101Y-13208560D01*
X9567101Y-13208560D02*
X9557577Y-13199036D01*
X9557577Y-13199036D02*
X9548053Y-13179988D01*
X9548053Y-13179988D02*
X9538529Y-13141893D01*
X9538529Y-13141893D02*
X9538529Y-13094274D01*
X9538529Y-13094274D02*
X9548053Y-13056179D01*
X9548053Y-13056179D02*
X9557577Y-13037131D01*
X9557577Y-13037131D02*
X9567101Y-13027608D01*
X9567101Y-13027608D02*
X9586148Y-13018084D01*
X9729006Y-13037131D02*
X9738529Y-13027608D01*
X9738529Y-13027608D02*
X9757577Y-13018084D01*
X9757577Y-13018084D02*
X9805196Y-13018084D01*
X9805196Y-13018084D02*
X9824244Y-13027608D01*
X9824244Y-13027608D02*
X9833768Y-13037131D01*
X9833768Y-13037131D02*
X9843291Y-13056179D01*
X9843291Y-13056179D02*
X9843291Y-13075227D01*
X9843291Y-13075227D02*
X9833768Y-13103798D01*
X9833768Y-13103798D02*
X9719482Y-13218084D01*
X9719482Y-13218084D02*
X9843291Y-13218084D01*
X10024244Y-13018084D02*
X9929006Y-13018084D01*
X9929006Y-13018084D02*
X9919482Y-13113322D01*
X9919482Y-13113322D02*
X9929006Y-13103798D01*
X9929006Y-13103798D02*
X9948053Y-13094274D01*
X9948053Y-13094274D02*
X9995672Y-13094274D01*
X9995672Y-13094274D02*
X10014720Y-13103798D01*
X10014720Y-13103798D02*
X10024244Y-13113322D01*
X10024244Y-13113322D02*
X10033768Y-13132369D01*
X10033768Y-13132369D02*
X10033768Y-13179988D01*
X10033768Y-13179988D02*
X10024244Y-13199036D01*
X10024244Y-13199036D02*
X10014720Y-13208560D01*
X10014720Y-13208560D02*
X9995672Y-13218084D01*
X9995672Y-13218084D02*
X9948053Y-13218084D01*
X9948053Y-13218084D02*
X9929006Y-13208560D01*
X9929006Y-13208560D02*
X9919482Y-13199036D01*
X10205196Y-13018084D02*
X10167101Y-13018084D01*
X10167101Y-13018084D02*
X10148053Y-13027608D01*
X10148053Y-13027608D02*
X10138529Y-13037131D01*
X10138529Y-13037131D02*
X10119482Y-13065703D01*
X10119482Y-13065703D02*
X10109958Y-13103798D01*
X10109958Y-13103798D02*
X10109958Y-13179988D01*
X10109958Y-13179988D02*
X10119482Y-13199036D01*
X10119482Y-13199036D02*
X10129006Y-13208560D01*
X10129006Y-13208560D02*
X10148053Y-13218084D01*
X10148053Y-13218084D02*
X10186149Y-13218084D01*
X10186149Y-13218084D02*
X10205196Y-13208560D01*
X10205196Y-13208560D02*
X10214720Y-13199036D01*
X10214720Y-13199036D02*
X10224244Y-13179988D01*
X10224244Y-13179988D02*
X10224244Y-13132369D01*
X10224244Y-13132369D02*
X10214720Y-13113322D01*
X10214720Y-13113322D02*
X10205196Y-13103798D01*
X10205196Y-13103798D02*
X10186149Y-13094274D01*
X10186149Y-13094274D02*
X10148053Y-13094274D01*
X10148053Y-13094274D02*
X10129006Y-13103798D01*
X10129006Y-13103798D02*
X10119482Y-13113322D01*
X10119482Y-13113322D02*
X10109958Y-13132369D01*
X10300434Y-13018084D02*
X10300434Y-13056179D01*
X10376625Y-13018084D02*
X10376625Y-13056179D01*
X10671863Y-13294274D02*
X10662339Y-13284750D01*
X10662339Y-13284750D02*
X10643291Y-13256179D01*
X10643291Y-13256179D02*
X10633768Y-13237131D01*
X10633768Y-13237131D02*
X10624244Y-13208560D01*
X10624244Y-13208560D02*
X10614720Y-13160941D01*
X10614720Y-13160941D02*
X10614720Y-13122846D01*
X10614720Y-13122846D02*
X10624244Y-13075227D01*
X10624244Y-13075227D02*
X10633768Y-13046655D01*
X10633768Y-13046655D02*
X10643291Y-13027608D01*
X10643291Y-13027608D02*
X10662339Y-12999036D01*
X10662339Y-12999036D02*
X10671863Y-12989512D01*
X10738530Y-13037131D02*
X10748053Y-13027608D01*
X10748053Y-13027608D02*
X10767101Y-13018084D01*
X10767101Y-13018084D02*
X10814720Y-13018084D01*
X10814720Y-13018084D02*
X10833768Y-13027608D01*
X10833768Y-13027608D02*
X10843291Y-13037131D01*
X10843291Y-13037131D02*
X10852815Y-13056179D01*
X10852815Y-13056179D02*
X10852815Y-13075227D01*
X10852815Y-13075227D02*
X10843291Y-13103798D01*
X10843291Y-13103798D02*
X10729006Y-13218084D01*
X10729006Y-13218084D02*
X10852815Y-13218084D01*
X11090911Y-13218084D02*
X11090911Y-13018084D01*
X11176625Y-13218084D02*
X11176625Y-13113322D01*
X11176625Y-13113322D02*
X11167101Y-13094274D01*
X11167101Y-13094274D02*
X11148053Y-13084750D01*
X11148053Y-13084750D02*
X11119482Y-13084750D01*
X11119482Y-13084750D02*
X11100434Y-13094274D01*
X11100434Y-13094274D02*
X11090911Y-13103798D01*
X11300434Y-13218084D02*
X11281387Y-13208560D01*
X11281387Y-13208560D02*
X11271863Y-13199036D01*
X11271863Y-13199036D02*
X11262339Y-13179988D01*
X11262339Y-13179988D02*
X11262339Y-13122846D01*
X11262339Y-13122846D02*
X11271863Y-13103798D01*
X11271863Y-13103798D02*
X11281387Y-13094274D01*
X11281387Y-13094274D02*
X11300434Y-13084750D01*
X11300434Y-13084750D02*
X11329006Y-13084750D01*
X11329006Y-13084750D02*
X11348053Y-13094274D01*
X11348053Y-13094274D02*
X11357577Y-13103798D01*
X11357577Y-13103798D02*
X11367101Y-13122846D01*
X11367101Y-13122846D02*
X11367101Y-13179988D01*
X11367101Y-13179988D02*
X11357577Y-13199036D01*
X11357577Y-13199036D02*
X11348053Y-13208560D01*
X11348053Y-13208560D02*
X11329006Y-13218084D01*
X11329006Y-13218084D02*
X11300434Y-13218084D01*
X11481387Y-13218084D02*
X11462339Y-13208560D01*
X11462339Y-13208560D02*
X11452815Y-13189512D01*
X11452815Y-13189512D02*
X11452815Y-13018084D01*
X11633768Y-13208560D02*
X11614720Y-13218084D01*
X11614720Y-13218084D02*
X11576625Y-13218084D01*
X11576625Y-13218084D02*
X11557577Y-13208560D01*
X11557577Y-13208560D02*
X11548053Y-13189512D01*
X11548053Y-13189512D02*
X11548053Y-13113322D01*
X11548053Y-13113322D02*
X11557577Y-13094274D01*
X11557577Y-13094274D02*
X11576625Y-13084750D01*
X11576625Y-13084750D02*
X11614720Y-13084750D01*
X11614720Y-13084750D02*
X11633768Y-13094274D01*
X11633768Y-13094274D02*
X11643291Y-13113322D01*
X11643291Y-13113322D02*
X11643291Y-13132369D01*
X11643291Y-13132369D02*
X11548053Y-13151417D01*
X11719482Y-13208560D02*
X11738530Y-13218084D01*
X11738530Y-13218084D02*
X11776625Y-13218084D01*
X11776625Y-13218084D02*
X11795672Y-13208560D01*
X11795672Y-13208560D02*
X11805196Y-13189512D01*
X11805196Y-13189512D02*
X11805196Y-13179988D01*
X11805196Y-13179988D02*
X11795672Y-13160941D01*
X11795672Y-13160941D02*
X11776625Y-13151417D01*
X11776625Y-13151417D02*
X11748053Y-13151417D01*
X11748053Y-13151417D02*
X11729006Y-13141893D01*
X11729006Y-13141893D02*
X11719482Y-13122846D01*
X11719482Y-13122846D02*
X11719482Y-13113322D01*
X11719482Y-13113322D02*
X11729006Y-13094274D01*
X11729006Y-13094274D02*
X11748053Y-13084750D01*
X11748053Y-13084750D02*
X11776625Y-13084750D01*
X11776625Y-13084750D02*
X11795672Y-13094274D01*
X11871863Y-13294274D02*
X11881387Y-13284750D01*
X11881387Y-13284750D02*
X11900434Y-13256179D01*
X11900434Y-13256179D02*
X11909958Y-13237131D01*
X11909958Y-13237131D02*
X11919482Y-13208560D01*
X11919482Y-13208560D02*
X11929006Y-13160941D01*
X11929006Y-13160941D02*
X11929006Y-13122846D01*
X11929006Y-13122846D02*
X11919482Y-13075227D01*
X11919482Y-13075227D02*
X11909958Y-13046655D01*
X11909958Y-13046655D02*
X11900434Y-13027608D01*
X11900434Y-13027608D02*
X11881387Y-12999036D01*
X11881387Y-12999036D02*
X11871863Y-12989512D01*
X12233768Y-13294274D02*
X12224244Y-13284750D01*
X12224244Y-13284750D02*
X12205196Y-13256179D01*
X12205196Y-13256179D02*
X12195672Y-13237131D01*
X12195672Y-13237131D02*
X12186149Y-13208560D01*
X12186149Y-13208560D02*
X12176625Y-13160941D01*
X12176625Y-13160941D02*
X12176625Y-13122846D01*
X12176625Y-13122846D02*
X12186149Y-13075227D01*
X12186149Y-13075227D02*
X12195672Y-13046655D01*
X12195672Y-13046655D02*
X12205196Y-13027608D01*
X12205196Y-13027608D02*
X12224244Y-12999036D01*
X12224244Y-12999036D02*
X12233768Y-12989512D01*
X12309958Y-13084750D02*
X12309958Y-13218084D01*
X12309958Y-13103798D02*
X12319482Y-13094274D01*
X12319482Y-13094274D02*
X12338530Y-13084750D01*
X12338530Y-13084750D02*
X12367101Y-13084750D01*
X12367101Y-13084750D02*
X12386149Y-13094274D01*
X12386149Y-13094274D02*
X12395672Y-13113322D01*
X12395672Y-13113322D02*
X12395672Y-13218084D01*
X12519482Y-13218084D02*
X12500434Y-13208560D01*
X12500434Y-13208560D02*
X12490911Y-13199036D01*
X12490911Y-13199036D02*
X12481387Y-13179988D01*
X12481387Y-13179988D02*
X12481387Y-13122846D01*
X12481387Y-13122846D02*
X12490911Y-13103798D01*
X12490911Y-13103798D02*
X12500434Y-13094274D01*
X12500434Y-13094274D02*
X12519482Y-13084750D01*
X12519482Y-13084750D02*
X12548053Y-13084750D01*
X12548053Y-13084750D02*
X12567101Y-13094274D01*
X12567101Y-13094274D02*
X12576625Y-13103798D01*
X12576625Y-13103798D02*
X12586149Y-13122846D01*
X12586149Y-13122846D02*
X12586149Y-13179988D01*
X12586149Y-13179988D02*
X12576625Y-13199036D01*
X12576625Y-13199036D02*
X12567101Y-13208560D01*
X12567101Y-13208560D02*
X12548053Y-13218084D01*
X12548053Y-13218084D02*
X12519482Y-13218084D01*
X12643292Y-13084750D02*
X12719482Y-13084750D01*
X12671863Y-13018084D02*
X12671863Y-13189512D01*
X12671863Y-13189512D02*
X12681387Y-13208560D01*
X12681387Y-13208560D02*
X12700434Y-13218084D01*
X12700434Y-13218084D02*
X12719482Y-13218084D01*
X12938530Y-13084750D02*
X12938530Y-13284750D01*
X12938530Y-13094274D02*
X12957577Y-13084750D01*
X12957577Y-13084750D02*
X12995673Y-13084750D01*
X12995673Y-13084750D02*
X13014720Y-13094274D01*
X13014720Y-13094274D02*
X13024244Y-13103798D01*
X13024244Y-13103798D02*
X13033768Y-13122846D01*
X13033768Y-13122846D02*
X13033768Y-13179988D01*
X13033768Y-13179988D02*
X13024244Y-13199036D01*
X13024244Y-13199036D02*
X13014720Y-13208560D01*
X13014720Y-13208560D02*
X12995673Y-13218084D01*
X12995673Y-13218084D02*
X12957577Y-13218084D01*
X12957577Y-13218084D02*
X12938530Y-13208560D01*
X13148053Y-13218084D02*
X13129006Y-13208560D01*
X13129006Y-13208560D02*
X13119482Y-13189512D01*
X13119482Y-13189512D02*
X13119482Y-13018084D01*
X13309958Y-13218084D02*
X13309958Y-13113322D01*
X13309958Y-13113322D02*
X13300434Y-13094274D01*
X13300434Y-13094274D02*
X13281387Y-13084750D01*
X13281387Y-13084750D02*
X13243292Y-13084750D01*
X13243292Y-13084750D02*
X13224244Y-13094274D01*
X13309958Y-13208560D02*
X13290911Y-13218084D01*
X13290911Y-13218084D02*
X13243292Y-13218084D01*
X13243292Y-13218084D02*
X13224244Y-13208560D01*
X13224244Y-13208560D02*
X13214720Y-13189512D01*
X13214720Y-13189512D02*
X13214720Y-13170465D01*
X13214720Y-13170465D02*
X13224244Y-13151417D01*
X13224244Y-13151417D02*
X13243292Y-13141893D01*
X13243292Y-13141893D02*
X13290911Y-13141893D01*
X13290911Y-13141893D02*
X13309958Y-13132369D01*
X13376625Y-13084750D02*
X13452815Y-13084750D01*
X13405196Y-13018084D02*
X13405196Y-13189512D01*
X13405196Y-13189512D02*
X13414720Y-13208560D01*
X13414720Y-13208560D02*
X13433768Y-13218084D01*
X13433768Y-13218084D02*
X13452815Y-13218084D01*
X13595673Y-13208560D02*
X13576625Y-13218084D01*
X13576625Y-13218084D02*
X13538530Y-13218084D01*
X13538530Y-13218084D02*
X13519482Y-13208560D01*
X13519482Y-13208560D02*
X13509958Y-13189512D01*
X13509958Y-13189512D02*
X13509958Y-13113322D01*
X13509958Y-13113322D02*
X13519482Y-13094274D01*
X13519482Y-13094274D02*
X13538530Y-13084750D01*
X13538530Y-13084750D02*
X13576625Y-13084750D01*
X13576625Y-13084750D02*
X13595673Y-13094274D01*
X13595673Y-13094274D02*
X13605196Y-13113322D01*
X13605196Y-13113322D02*
X13605196Y-13132369D01*
X13605196Y-13132369D02*
X13509958Y-13151417D01*
X13776625Y-13218084D02*
X13776625Y-13018084D01*
X13776625Y-13208560D02*
X13757577Y-13218084D01*
X13757577Y-13218084D02*
X13719482Y-13218084D01*
X13719482Y-13218084D02*
X13700434Y-13208560D01*
X13700434Y-13208560D02*
X13690911Y-13199036D01*
X13690911Y-13199036D02*
X13681387Y-13179988D01*
X13681387Y-13179988D02*
X13681387Y-13122846D01*
X13681387Y-13122846D02*
X13690911Y-13103798D01*
X13690911Y-13103798D02*
X13700434Y-13094274D01*
X13700434Y-13094274D02*
X13719482Y-13084750D01*
X13719482Y-13084750D02*
X13757577Y-13084750D01*
X13757577Y-13084750D02*
X13776625Y-13094274D01*
X13852815Y-13294274D02*
X13862339Y-13284750D01*
X13862339Y-13284750D02*
X13881387Y-13256179D01*
X13881387Y-13256179D02*
X13890911Y-13237131D01*
X13890911Y-13237131D02*
X13900434Y-13208560D01*
X13900434Y-13208560D02*
X13909958Y-13160941D01*
X13909958Y-13160941D02*
X13909958Y-13122846D01*
X13909958Y-13122846D02*
X13900434Y-13075227D01*
X13900434Y-13075227D02*
X13890911Y-13046655D01*
X13890911Y-13046655D02*
X13881387Y-13027608D01*
X13881387Y-13027608D02*
X13862339Y-12999036D01*
X13862339Y-12999036D02*
X13852815Y-12989512D01*
M02*
