G04 #@! TF.GenerationSoftware,KiCad,Pcbnew,9.0.4*
G04 #@! TF.CreationDate,2025-10-03T12:39:18+02:00*
G04 #@! TF.ProjectId,Mini-EMS-ESP,4d696e69-2d45-44d5-932d-4553502e6b69,rev?*
G04 #@! TF.SameCoordinates,Original*
G04 #@! TF.FileFunction,Copper,L3,Inr*
G04 #@! TF.FilePolarity,Positive*
%FSLAX46Y46*%
G04 Gerber Fmt 4.6, Leading zero omitted, Abs format (unit mm)*
G04 Created by KiCad (PCBNEW 9.0.4) date 2025-10-03 12:39:18*
%MOMM*%
%LPD*%
G01*
G04 APERTURE LIST*
G04 #@! TA.AperFunction,ComponentPad*
%ADD10O,1.600000X1.000000*%
G04 #@! TD*
G04 #@! TA.AperFunction,ComponentPad*
%ADD11O,2.100000X1.000000*%
G04 #@! TD*
G04 #@! TA.AperFunction,ComponentPad*
%ADD12R,3.960000X1.980000*%
G04 #@! TD*
G04 #@! TA.AperFunction,ComponentPad*
%ADD13O,3.960000X1.980000*%
G04 #@! TD*
G04 #@! TA.AperFunction,HeatsinkPad*
%ADD14C,0.600000*%
G04 #@! TD*
G04 #@! TA.AperFunction,ViaPad*
%ADD15C,0.450000*%
G04 #@! TD*
G04 APERTURE END LIST*
D10*
X73826000Y-113032000D03*
X73826000Y-113032000D03*
D11*
X78006000Y-113032000D03*
X78006000Y-113032000D03*
D10*
X73826000Y-104392000D03*
X73826000Y-104392000D03*
D11*
X78006000Y-104392000D03*
X78006000Y-104392000D03*
D12*
X77597000Y-94136000D03*
D13*
X77597000Y-99136000D03*
D14*
X119159000Y-95351500D03*
X119159000Y-93826500D03*
X118396500Y-96114000D03*
X118396500Y-94589000D03*
X118396500Y-93064000D03*
X117634000Y-95351500D03*
X117634000Y-93826500D03*
X116871500Y-96114000D03*
X116871500Y-94589000D03*
X116871500Y-93064000D03*
X116109000Y-95351500D03*
X116109000Y-93826500D03*
D15*
X101889168Y-109712368D03*
X94538800Y-113995200D03*
X92252800Y-115163600D03*
X118745000Y-115443000D03*
X79502000Y-112522000D03*
X118745000Y-114554000D03*
X103632000Y-112522000D03*
X117221000Y-115443000D03*
X125603000Y-106553000D03*
X117221000Y-116332000D03*
X82677000Y-118999000D03*
X101854000Y-112522000D03*
X117983000Y-117221000D03*
X102743000Y-112522000D03*
X118745000Y-113665000D03*
X117221000Y-117221000D03*
X121285000Y-119761000D03*
X119761000Y-118745000D03*
X81534000Y-117475000D03*
X100203000Y-87503000D03*
X117983000Y-115443000D03*
X117221000Y-98679000D03*
X124841000Y-106553000D03*
X84963000Y-111633000D03*
X92456000Y-93726000D03*
X118999000Y-118745000D03*
X83058000Y-107188000D03*
X120523000Y-119761000D03*
X93218000Y-90170000D03*
X120523000Y-120777000D03*
X124104400Y-91897200D03*
X95123000Y-89535000D03*
X83058000Y-110490000D03*
X117221000Y-114554000D03*
X124079000Y-106553000D03*
X119761000Y-119761000D03*
X118999000Y-120777000D03*
X82042000Y-111506000D03*
X79375000Y-105029000D03*
X100838000Y-91821000D03*
X126746000Y-87249000D03*
X105283000Y-100457000D03*
X95123000Y-102489000D03*
X118745000Y-117221000D03*
X117983000Y-116332000D03*
X117221000Y-99695000D03*
X119761000Y-120777000D03*
X124079000Y-87249000D03*
X104775000Y-104394000D03*
X117221000Y-113665000D03*
X92456000Y-102235000D03*
X117983000Y-114554000D03*
X107315000Y-87249000D03*
X123317000Y-106553000D03*
X121285000Y-118745000D03*
X118999000Y-119761000D03*
X118745000Y-116332000D03*
X117983000Y-113665000D03*
X113842800Y-87122000D03*
X121285000Y-120777000D03*
X120523000Y-118745000D03*
X105123000Y-97188000D03*
X115824000Y-101600000D03*
X112776000Y-101600000D03*
X118364000Y-121158000D03*
X113792000Y-101600000D03*
X110363000Y-99695000D03*
X116840000Y-101600000D03*
X106553000Y-93091000D03*
X126746000Y-88519000D03*
X124333000Y-88519000D03*
X110363000Y-98679000D03*
X116433600Y-87071200D03*
X119126000Y-103378000D03*
X82448400Y-121818400D03*
X114808000Y-101600000D03*
X117856000Y-101600000D03*
X102006400Y-98501200D03*
X103378000Y-107137200D03*
X100838000Y-106984800D03*
X101778750Y-101778750D03*
X103505000Y-92185000D03*
X122809000Y-114935000D03*
X111760000Y-113030000D03*
X87503000Y-121285000D03*
X107543600Y-104800400D03*
X86360000Y-123190000D03*
X122936000Y-92025000D03*
X98044000Y-89052400D03*
X104648000Y-89052400D03*
X110109000Y-96139000D03*
X79629000Y-118745000D03*
X78359000Y-118872000D03*
X80137000Y-109855000D03*
X83185000Y-111506000D03*
X81153000Y-111142000D03*
X79947000Y-108913000D03*
X126949200Y-96164400D03*
G04 #@! TA.AperFunction,Conductor*
G36*
X128645539Y-85947185D02*
G01*
X128691294Y-85999989D01*
X128702500Y-86051500D01*
X128702500Y-124641500D01*
X128682815Y-124708539D01*
X128630011Y-124754294D01*
X128578500Y-124765500D01*
X71192500Y-124765500D01*
X71125461Y-124745815D01*
X71079706Y-124693011D01*
X71068500Y-124641500D01*
X71068500Y-123133982D01*
X85934500Y-123133982D01*
X85934500Y-123246018D01*
X85963497Y-123354237D01*
X86019515Y-123451263D01*
X86098737Y-123530485D01*
X86195763Y-123586503D01*
X86303982Y-123615500D01*
X86303984Y-123615500D01*
X86416016Y-123615500D01*
X86416018Y-123615500D01*
X86524237Y-123586503D01*
X86621263Y-123530485D01*
X86700485Y-123451263D01*
X86756503Y-123354237D01*
X86785500Y-123246018D01*
X86785500Y-123133982D01*
X86756503Y-123025763D01*
X86700485Y-122928737D01*
X86621263Y-122849515D01*
X86524237Y-122793497D01*
X86416018Y-122764500D01*
X86303982Y-122764500D01*
X86195763Y-122793497D01*
X86195760Y-122793498D01*
X86098740Y-122849513D01*
X86098734Y-122849517D01*
X86019517Y-122928734D01*
X86019513Y-122928740D01*
X85963498Y-123025760D01*
X85963497Y-123025763D01*
X85934500Y-123133982D01*
X71068500Y-123133982D01*
X71068500Y-121228982D01*
X87077500Y-121228982D01*
X87077500Y-121341018D01*
X87106497Y-121449237D01*
X87162515Y-121546263D01*
X87241737Y-121625485D01*
X87338763Y-121681503D01*
X87446982Y-121710500D01*
X87446984Y-121710500D01*
X87559016Y-121710500D01*
X87559018Y-121710500D01*
X87667237Y-121681503D01*
X87764263Y-121625485D01*
X87843485Y-121546263D01*
X87899503Y-121449237D01*
X87928500Y-121341018D01*
X87928500Y-121228982D01*
X87899503Y-121120763D01*
X87843485Y-121023737D01*
X87764263Y-120944515D01*
X87667237Y-120888497D01*
X87559018Y-120859500D01*
X87446982Y-120859500D01*
X87338763Y-120888497D01*
X87338760Y-120888498D01*
X87241740Y-120944513D01*
X87241734Y-120944517D01*
X87162517Y-121023734D01*
X87162513Y-121023740D01*
X87106498Y-121120760D01*
X87106497Y-121120763D01*
X87077500Y-121228982D01*
X71068500Y-121228982D01*
X71068500Y-118815982D01*
X77933500Y-118815982D01*
X77933500Y-118928018D01*
X77962497Y-119036237D01*
X78018515Y-119133263D01*
X78097737Y-119212485D01*
X78194763Y-119268503D01*
X78302982Y-119297500D01*
X78302984Y-119297500D01*
X78415016Y-119297500D01*
X78415018Y-119297500D01*
X78523237Y-119268503D01*
X78620263Y-119212485D01*
X78699485Y-119133263D01*
X78755503Y-119036237D01*
X78784500Y-118928018D01*
X78784500Y-118815982D01*
X78755503Y-118707763D01*
X78744660Y-118688982D01*
X79203500Y-118688982D01*
X79203500Y-118801018D01*
X79232497Y-118909237D01*
X79288515Y-119006263D01*
X79367737Y-119085485D01*
X79464763Y-119141503D01*
X79572982Y-119170500D01*
X79572984Y-119170500D01*
X79685016Y-119170500D01*
X79685018Y-119170500D01*
X79793237Y-119141503D01*
X79890263Y-119085485D01*
X79969485Y-119006263D01*
X80006020Y-118942982D01*
X82251500Y-118942982D01*
X82251500Y-119055018D01*
X82280497Y-119163237D01*
X82336515Y-119260263D01*
X82415737Y-119339485D01*
X82512763Y-119395503D01*
X82620982Y-119424500D01*
X82620984Y-119424500D01*
X82733016Y-119424500D01*
X82733018Y-119424500D01*
X82841237Y-119395503D01*
X82938263Y-119339485D01*
X83017485Y-119260263D01*
X83073503Y-119163237D01*
X83102500Y-119055018D01*
X83102500Y-118942982D01*
X83073503Y-118834763D01*
X83017485Y-118737737D01*
X82968730Y-118688982D01*
X118573500Y-118688982D01*
X118573500Y-118801018D01*
X118602497Y-118909237D01*
X118658515Y-119006263D01*
X118737737Y-119085485D01*
X118834760Y-119141501D01*
X118841802Y-119145567D01*
X118840028Y-119148639D01*
X118881781Y-119182297D01*
X118903835Y-119248595D01*
X118886544Y-119316292D01*
X118840863Y-119358807D01*
X118841802Y-119360433D01*
X118737740Y-119420513D01*
X118737734Y-119420517D01*
X118658517Y-119499734D01*
X118658513Y-119499740D01*
X118602498Y-119596760D01*
X118602497Y-119596763D01*
X118573500Y-119704982D01*
X118573500Y-119817018D01*
X118602497Y-119925237D01*
X118658515Y-120022263D01*
X118737737Y-120101485D01*
X118834763Y-120157503D01*
X118841802Y-120161567D01*
X118840028Y-120164639D01*
X118881781Y-120198297D01*
X118903835Y-120264595D01*
X118886544Y-120332292D01*
X118840863Y-120374807D01*
X118841802Y-120376433D01*
X118737740Y-120436513D01*
X118737734Y-120436517D01*
X118658517Y-120515734D01*
X118658513Y-120515740D01*
X118602498Y-120612760D01*
X118602497Y-120612763D01*
X118573500Y-120720982D01*
X118573500Y-120833018D01*
X118588366Y-120888497D01*
X118602497Y-120941236D01*
X118602498Y-120941239D01*
X118604391Y-120944517D01*
X118658515Y-121038263D01*
X118737737Y-121117485D01*
X118834763Y-121173503D01*
X118942982Y-121202500D01*
X118942984Y-121202500D01*
X119055016Y-121202500D01*
X119055018Y-121202500D01*
X119163237Y-121173503D01*
X119260263Y-121117485D01*
X119292319Y-121085429D01*
X119353642Y-121051944D01*
X119423334Y-121056928D01*
X119467681Y-121085429D01*
X119499737Y-121117485D01*
X119596763Y-121173503D01*
X119704982Y-121202500D01*
X119704984Y-121202500D01*
X119817016Y-121202500D01*
X119817018Y-121202500D01*
X119925237Y-121173503D01*
X120022263Y-121117485D01*
X120054319Y-121085429D01*
X120115642Y-121051944D01*
X120185334Y-121056928D01*
X120229681Y-121085429D01*
X120261737Y-121117485D01*
X120358763Y-121173503D01*
X120466982Y-121202500D01*
X120466984Y-121202500D01*
X120579016Y-121202500D01*
X120579018Y-121202500D01*
X120687237Y-121173503D01*
X120784263Y-121117485D01*
X120816319Y-121085429D01*
X120877642Y-121051944D01*
X120947334Y-121056928D01*
X120991681Y-121085429D01*
X121023737Y-121117485D01*
X121120763Y-121173503D01*
X121228982Y-121202500D01*
X121228984Y-121202500D01*
X121341016Y-121202500D01*
X121341018Y-121202500D01*
X121449237Y-121173503D01*
X121546263Y-121117485D01*
X121625485Y-121038263D01*
X121681503Y-120941237D01*
X121710500Y-120833018D01*
X121710500Y-120720982D01*
X121681503Y-120612763D01*
X121625485Y-120515737D01*
X121546263Y-120436515D01*
X121449237Y-120380497D01*
X121442198Y-120376433D01*
X121444001Y-120373309D01*
X121402442Y-120340024D01*
X121380179Y-120273796D01*
X121397255Y-120206046D01*
X121443091Y-120163114D01*
X121442198Y-120161567D01*
X121449237Y-120157503D01*
X121546263Y-120101485D01*
X121625485Y-120022263D01*
X121681503Y-119925237D01*
X121710500Y-119817018D01*
X121710500Y-119704982D01*
X121681503Y-119596763D01*
X121625485Y-119499737D01*
X121546263Y-119420515D01*
X121449237Y-119364497D01*
X121442198Y-119360433D01*
X121444001Y-119357309D01*
X121402442Y-119324024D01*
X121380179Y-119257796D01*
X121397255Y-119190046D01*
X121443091Y-119147114D01*
X121442198Y-119145567D01*
X121449240Y-119141501D01*
X121546263Y-119085485D01*
X121625485Y-119006263D01*
X121681503Y-118909237D01*
X121710500Y-118801018D01*
X121710500Y-118688982D01*
X121681503Y-118580763D01*
X121625485Y-118483737D01*
X121546263Y-118404515D01*
X121449237Y-118348497D01*
X121341018Y-118319500D01*
X121228982Y-118319500D01*
X121120763Y-118348497D01*
X121120760Y-118348498D01*
X121023740Y-118404513D01*
X121023734Y-118404517D01*
X120991681Y-118436571D01*
X120930358Y-118470056D01*
X120860666Y-118465072D01*
X120816319Y-118436571D01*
X120784265Y-118404517D01*
X120784263Y-118404515D01*
X120687237Y-118348497D01*
X120579018Y-118319500D01*
X120466982Y-118319500D01*
X120358763Y-118348497D01*
X120358760Y-118348498D01*
X120261740Y-118404513D01*
X120261734Y-118404517D01*
X120229681Y-118436571D01*
X120168358Y-118470056D01*
X120098666Y-118465072D01*
X120054319Y-118436571D01*
X120022265Y-118404517D01*
X120022263Y-118404515D01*
X119925237Y-118348497D01*
X119817018Y-118319500D01*
X119704982Y-118319500D01*
X119596763Y-118348497D01*
X119596760Y-118348498D01*
X119499740Y-118404513D01*
X119499734Y-118404517D01*
X119467681Y-118436571D01*
X119406358Y-118470056D01*
X119336666Y-118465072D01*
X119292319Y-118436571D01*
X119260265Y-118404517D01*
X119260263Y-118404515D01*
X119163237Y-118348497D01*
X119055018Y-118319500D01*
X118942982Y-118319500D01*
X118834763Y-118348497D01*
X118834760Y-118348498D01*
X118737740Y-118404513D01*
X118737734Y-118404517D01*
X118658517Y-118483734D01*
X118658513Y-118483740D01*
X118602498Y-118580760D01*
X118602497Y-118580763D01*
X118573500Y-118688982D01*
X82968730Y-118688982D01*
X82938263Y-118658515D01*
X82841237Y-118602497D01*
X82733018Y-118573500D01*
X82620982Y-118573500D01*
X82512763Y-118602497D01*
X82512760Y-118602498D01*
X82415740Y-118658513D01*
X82415734Y-118658517D01*
X82336517Y-118737734D01*
X82336513Y-118737740D01*
X82280498Y-118834760D01*
X82280497Y-118834763D01*
X82251500Y-118942982D01*
X80006020Y-118942982D01*
X80025503Y-118909237D01*
X80054500Y-118801018D01*
X80054500Y-118688982D01*
X80025503Y-118580763D01*
X79969485Y-118483737D01*
X79890263Y-118404515D01*
X79793237Y-118348497D01*
X79685018Y-118319500D01*
X79572982Y-118319500D01*
X79464763Y-118348497D01*
X79464760Y-118348498D01*
X79367740Y-118404513D01*
X79367734Y-118404517D01*
X79288517Y-118483734D01*
X79288513Y-118483740D01*
X79232498Y-118580760D01*
X79232497Y-118580763D01*
X79203500Y-118688982D01*
X78744660Y-118688982D01*
X78699485Y-118610737D01*
X78620263Y-118531515D01*
X78523237Y-118475497D01*
X78415018Y-118446500D01*
X78302982Y-118446500D01*
X78194763Y-118475497D01*
X78194760Y-118475498D01*
X78097740Y-118531513D01*
X78097734Y-118531517D01*
X78018517Y-118610734D01*
X78018513Y-118610740D01*
X77962498Y-118707760D01*
X77962498Y-118707761D01*
X77962497Y-118707763D01*
X77933500Y-118815982D01*
X71068500Y-118815982D01*
X71068500Y-117418982D01*
X81108500Y-117418982D01*
X81108500Y-117531018D01*
X81137497Y-117639237D01*
X81193515Y-117736263D01*
X81272737Y-117815485D01*
X81369763Y-117871503D01*
X81477982Y-117900500D01*
X81477984Y-117900500D01*
X81590016Y-117900500D01*
X81590018Y-117900500D01*
X81698237Y-117871503D01*
X81795263Y-117815485D01*
X81874485Y-117736263D01*
X81930503Y-117639237D01*
X81959500Y-117531018D01*
X81959500Y-117418982D01*
X81930503Y-117310763D01*
X81874485Y-117213737D01*
X81795263Y-117134515D01*
X81698237Y-117078497D01*
X81590018Y-117049500D01*
X81477982Y-117049500D01*
X81369763Y-117078497D01*
X81369760Y-117078498D01*
X81272740Y-117134513D01*
X81272734Y-117134517D01*
X81193517Y-117213734D01*
X81193513Y-117213740D01*
X81137498Y-117310760D01*
X81137497Y-117310763D01*
X81108500Y-117418982D01*
X71068500Y-117418982D01*
X71068500Y-115107582D01*
X91827300Y-115107582D01*
X91827300Y-115219618D01*
X91842270Y-115275485D01*
X91856297Y-115327836D01*
X91856298Y-115327839D01*
X91874969Y-115360179D01*
X91912315Y-115424863D01*
X91991537Y-115504085D01*
X92088563Y-115560103D01*
X92196782Y-115589100D01*
X92196784Y-115589100D01*
X92308816Y-115589100D01*
X92308818Y-115589100D01*
X92417037Y-115560103D01*
X92514063Y-115504085D01*
X92593285Y-115424863D01*
X92649303Y-115327837D01*
X92678300Y-115219618D01*
X92678300Y-115107582D01*
X92649303Y-114999363D01*
X92593285Y-114902337D01*
X92514063Y-114823115D01*
X92417037Y-114767097D01*
X92308818Y-114738100D01*
X92196782Y-114738100D01*
X92088563Y-114767097D01*
X92088560Y-114767098D01*
X91991540Y-114823113D01*
X91991534Y-114823117D01*
X91912317Y-114902334D01*
X91912313Y-114902340D01*
X91856298Y-114999360D01*
X91856297Y-114999363D01*
X91827300Y-115107582D01*
X71068500Y-115107582D01*
X71068500Y-113939182D01*
X94113300Y-113939182D01*
X94113300Y-114051218D01*
X94142297Y-114159437D01*
X94198315Y-114256463D01*
X94277537Y-114335685D01*
X94374563Y-114391703D01*
X94482782Y-114420700D01*
X94482784Y-114420700D01*
X94594816Y-114420700D01*
X94594818Y-114420700D01*
X94703037Y-114391703D01*
X94800063Y-114335685D01*
X94879285Y-114256463D01*
X94935303Y-114159437D01*
X94964300Y-114051218D01*
X94964300Y-113939182D01*
X94935303Y-113830963D01*
X94879285Y-113733937D01*
X94800063Y-113654715D01*
X94720851Y-113608982D01*
X116795500Y-113608982D01*
X116795500Y-113721018D01*
X116798963Y-113733940D01*
X116824497Y-113829236D01*
X116824498Y-113829239D01*
X116839999Y-113856088D01*
X116880515Y-113926263D01*
X116959737Y-114005485D01*
X116959740Y-114005487D01*
X116966186Y-114010433D01*
X116964245Y-114012961D01*
X117002123Y-114052703D01*
X117015332Y-114121313D01*
X116989351Y-114186172D01*
X116965115Y-114207171D01*
X116966186Y-114208567D01*
X116959734Y-114213517D01*
X116880517Y-114292734D01*
X116880513Y-114292740D01*
X116824498Y-114389760D01*
X116824497Y-114389763D01*
X116795500Y-114497982D01*
X116795500Y-114610018D01*
X116824497Y-114718237D01*
X116880515Y-114815263D01*
X116959737Y-114894485D01*
X116959740Y-114894487D01*
X116966186Y-114899433D01*
X116964245Y-114901961D01*
X117002123Y-114941703D01*
X117015332Y-115010313D01*
X116989351Y-115075172D01*
X116965115Y-115096171D01*
X116966186Y-115097567D01*
X116959734Y-115102517D01*
X116880517Y-115181734D01*
X116880513Y-115181740D01*
X116824498Y-115278760D01*
X116824497Y-115278763D01*
X116795500Y-115386982D01*
X116795500Y-115499018D01*
X116824497Y-115607237D01*
X116880515Y-115704263D01*
X116959737Y-115783485D01*
X116959740Y-115783487D01*
X116966186Y-115788433D01*
X116964245Y-115790961D01*
X117002123Y-115830703D01*
X117015332Y-115899313D01*
X116989351Y-115964172D01*
X116965115Y-115985171D01*
X116966186Y-115986567D01*
X116959734Y-115991517D01*
X116880517Y-116070734D01*
X116880513Y-116070740D01*
X116824498Y-116167760D01*
X116824497Y-116167763D01*
X116795500Y-116275982D01*
X116795500Y-116388018D01*
X116824497Y-116496237D01*
X116880515Y-116593263D01*
X116959737Y-116672485D01*
X116959740Y-116672487D01*
X116966186Y-116677433D01*
X116964245Y-116679961D01*
X117002123Y-116719703D01*
X117015332Y-116788313D01*
X116989351Y-116853172D01*
X116965115Y-116874171D01*
X116966186Y-116875567D01*
X116959734Y-116880517D01*
X116880517Y-116959734D01*
X116880513Y-116959740D01*
X116824498Y-117056760D01*
X116824497Y-117056763D01*
X116795500Y-117164982D01*
X116795500Y-117277018D01*
X116824497Y-117385237D01*
X116880515Y-117482263D01*
X116959737Y-117561485D01*
X117056763Y-117617503D01*
X117164982Y-117646500D01*
X117164984Y-117646500D01*
X117277016Y-117646500D01*
X117277018Y-117646500D01*
X117385237Y-117617503D01*
X117482263Y-117561485D01*
X117514319Y-117529429D01*
X117575642Y-117495944D01*
X117645334Y-117500928D01*
X117689681Y-117529429D01*
X117721737Y-117561485D01*
X117818763Y-117617503D01*
X117926982Y-117646500D01*
X117926984Y-117646500D01*
X118039016Y-117646500D01*
X118039018Y-117646500D01*
X118147237Y-117617503D01*
X118244263Y-117561485D01*
X118276319Y-117529429D01*
X118337642Y-117495944D01*
X118407334Y-117500928D01*
X118451681Y-117529429D01*
X118483737Y-117561485D01*
X118580763Y-117617503D01*
X118688982Y-117646500D01*
X118688984Y-117646500D01*
X118801016Y-117646500D01*
X118801018Y-117646500D01*
X118909237Y-117617503D01*
X119006263Y-117561485D01*
X119085485Y-117482263D01*
X119141503Y-117385237D01*
X119170500Y-117277018D01*
X119170500Y-117164982D01*
X119141503Y-117056763D01*
X119085485Y-116959737D01*
X119006263Y-116880515D01*
X119006260Y-116880513D01*
X118999814Y-116875567D01*
X119001757Y-116873033D01*
X118963896Y-116833337D01*
X118950663Y-116764732D01*
X118976621Y-116699863D01*
X119000889Y-116678834D01*
X118999814Y-116677433D01*
X119006255Y-116672489D01*
X119006263Y-116672485D01*
X119085485Y-116593263D01*
X119141503Y-116496237D01*
X119170500Y-116388018D01*
X119170500Y-116275982D01*
X119141503Y-116167763D01*
X119085485Y-116070737D01*
X119006263Y-115991515D01*
X119006260Y-115991513D01*
X118999814Y-115986567D01*
X119001757Y-115984033D01*
X118963896Y-115944337D01*
X118950663Y-115875732D01*
X118976621Y-115810863D01*
X119000889Y-115789834D01*
X118999814Y-115788433D01*
X119006255Y-115783489D01*
X119006263Y-115783485D01*
X119085485Y-115704263D01*
X119141503Y-115607237D01*
X119170500Y-115499018D01*
X119170500Y-115386982D01*
X119141503Y-115278763D01*
X119085485Y-115181737D01*
X119006263Y-115102515D01*
X119006260Y-115102513D01*
X118999814Y-115097567D01*
X119001757Y-115095033D01*
X118963896Y-115055337D01*
X118950663Y-114986732D01*
X118976621Y-114921863D01*
X118984626Y-114912652D01*
X118996831Y-114899930D01*
X119006263Y-114894485D01*
X119021766Y-114878982D01*
X122383500Y-114878982D01*
X122383500Y-114991018D01*
X122411676Y-115096171D01*
X122412497Y-115099236D01*
X122412498Y-115099239D01*
X122414391Y-115102517D01*
X122468515Y-115196263D01*
X122547737Y-115275485D01*
X122644763Y-115331503D01*
X122752982Y-115360500D01*
X122752984Y-115360500D01*
X122865016Y-115360500D01*
X122865018Y-115360500D01*
X122973237Y-115331503D01*
X123070263Y-115275485D01*
X123149485Y-115196263D01*
X123205503Y-115099237D01*
X123234500Y-114991018D01*
X123234500Y-114878982D01*
X123205503Y-114770763D01*
X123149485Y-114673737D01*
X123070263Y-114594515D01*
X122973237Y-114538497D01*
X122865018Y-114509500D01*
X122752982Y-114509500D01*
X122644763Y-114538497D01*
X122644760Y-114538498D01*
X122547740Y-114594513D01*
X122547734Y-114594517D01*
X122468517Y-114673734D01*
X122468513Y-114673740D01*
X122412498Y-114770760D01*
X122412497Y-114770763D01*
X122383500Y-114878982D01*
X119021766Y-114878982D01*
X119085485Y-114815263D01*
X119141503Y-114718237D01*
X119170500Y-114610018D01*
X119170500Y-114497982D01*
X119141503Y-114389763D01*
X119085485Y-114292737D01*
X119006263Y-114213515D01*
X119006260Y-114213513D01*
X118999814Y-114208567D01*
X119001757Y-114206033D01*
X118963896Y-114166337D01*
X118950663Y-114097732D01*
X118976621Y-114032863D01*
X119000889Y-114011834D01*
X118999814Y-114010433D01*
X119006255Y-114005489D01*
X119006263Y-114005485D01*
X119085485Y-113926263D01*
X119141503Y-113829237D01*
X119170500Y-113721018D01*
X119170500Y-113608982D01*
X119141503Y-113500763D01*
X119085485Y-113403737D01*
X119006263Y-113324515D01*
X118909237Y-113268497D01*
X118801018Y-113239500D01*
X118688982Y-113239500D01*
X118580763Y-113268497D01*
X118580760Y-113268498D01*
X118483740Y-113324513D01*
X118483734Y-113324517D01*
X118451681Y-113356571D01*
X118390358Y-113390056D01*
X118320666Y-113385072D01*
X118276319Y-113356571D01*
X118244265Y-113324517D01*
X118244263Y-113324515D01*
X118147237Y-113268497D01*
X118039018Y-113239500D01*
X117926982Y-113239500D01*
X117818763Y-113268497D01*
X117818760Y-113268498D01*
X117721740Y-113324513D01*
X117721734Y-113324517D01*
X117689681Y-113356571D01*
X117628358Y-113390056D01*
X117558666Y-113385072D01*
X117514319Y-113356571D01*
X117482265Y-113324517D01*
X117482263Y-113324515D01*
X117385237Y-113268497D01*
X117277018Y-113239500D01*
X117164982Y-113239500D01*
X117056763Y-113268497D01*
X117056760Y-113268498D01*
X116959740Y-113324513D01*
X116959734Y-113324517D01*
X116880517Y-113403734D01*
X116880513Y-113403740D01*
X116824498Y-113500760D01*
X116824497Y-113500763D01*
X116795500Y-113608982D01*
X94720851Y-113608982D01*
X94703037Y-113598697D01*
X94594818Y-113569700D01*
X94482782Y-113569700D01*
X94374563Y-113598697D01*
X94374560Y-113598698D01*
X94277540Y-113654713D01*
X94277534Y-113654717D01*
X94198317Y-113733934D01*
X94198313Y-113733940D01*
X94142298Y-113830960D01*
X94142297Y-113830963D01*
X94113300Y-113939182D01*
X71068500Y-113939182D01*
X71068500Y-113100995D01*
X72825499Y-113100995D01*
X72852418Y-113236322D01*
X72852421Y-113236332D01*
X72905221Y-113363804D01*
X72905228Y-113363817D01*
X72981885Y-113478541D01*
X72981888Y-113478545D01*
X73079454Y-113576111D01*
X73079458Y-113576114D01*
X73194182Y-113652771D01*
X73194195Y-113652778D01*
X73321667Y-113705578D01*
X73321672Y-113705580D01*
X73321676Y-113705580D01*
X73321677Y-113705581D01*
X73457004Y-113732500D01*
X73457007Y-113732500D01*
X74194995Y-113732500D01*
X74286041Y-113714389D01*
X74330328Y-113705580D01*
X74453123Y-113654717D01*
X74457804Y-113652778D01*
X74457804Y-113652777D01*
X74457811Y-113652775D01*
X74572542Y-113576114D01*
X74670114Y-113478542D01*
X74746775Y-113363811D01*
X74799580Y-113236328D01*
X74826500Y-113100995D01*
X76755499Y-113100995D01*
X76782418Y-113236322D01*
X76782421Y-113236332D01*
X76835221Y-113363804D01*
X76835228Y-113363817D01*
X76911885Y-113478541D01*
X76911888Y-113478545D01*
X77009454Y-113576111D01*
X77009458Y-113576114D01*
X77124182Y-113652771D01*
X77124195Y-113652778D01*
X77251667Y-113705578D01*
X77251672Y-113705580D01*
X77251676Y-113705580D01*
X77251677Y-113705581D01*
X77387004Y-113732500D01*
X77387007Y-113732500D01*
X78624995Y-113732500D01*
X78716041Y-113714389D01*
X78760328Y-113705580D01*
X78883123Y-113654717D01*
X78887804Y-113652778D01*
X78887804Y-113652777D01*
X78887811Y-113652775D01*
X79002542Y-113576114D01*
X79100114Y-113478542D01*
X79176775Y-113363811D01*
X79229580Y-113236328D01*
X79256500Y-113100993D01*
X79256500Y-113058328D01*
X79276185Y-112991289D01*
X79296158Y-112973982D01*
X111334500Y-112973982D01*
X111334500Y-113086018D01*
X111363497Y-113194237D01*
X111419515Y-113291263D01*
X111498737Y-113370485D01*
X111595763Y-113426503D01*
X111703982Y-113455500D01*
X111703984Y-113455500D01*
X111816016Y-113455500D01*
X111816018Y-113455500D01*
X111924237Y-113426503D01*
X112021263Y-113370485D01*
X112100485Y-113291263D01*
X112156503Y-113194237D01*
X112185500Y-113086018D01*
X112185500Y-112973982D01*
X112156503Y-112865763D01*
X112100485Y-112768737D01*
X112021263Y-112689515D01*
X111924237Y-112633497D01*
X111816018Y-112604500D01*
X111703982Y-112604500D01*
X111595763Y-112633497D01*
X111595760Y-112633498D01*
X111498740Y-112689513D01*
X111498734Y-112689517D01*
X111419517Y-112768734D01*
X111419513Y-112768740D01*
X111363498Y-112865760D01*
X111363497Y-112865763D01*
X111334500Y-112973982D01*
X79296158Y-112973982D01*
X79328989Y-112945534D01*
X79398147Y-112935590D01*
X79412581Y-112938550D01*
X79445982Y-112947500D01*
X79445985Y-112947500D01*
X79558016Y-112947500D01*
X79558018Y-112947500D01*
X79666237Y-112918503D01*
X79763263Y-112862485D01*
X79842485Y-112783263D01*
X79898503Y-112686237D01*
X79927500Y-112578018D01*
X79927500Y-112465982D01*
X101428500Y-112465982D01*
X101428500Y-112578018D01*
X101443366Y-112633497D01*
X101457497Y-112686236D01*
X101457498Y-112686239D01*
X101459391Y-112689517D01*
X101513515Y-112783263D01*
X101592737Y-112862485D01*
X101689763Y-112918503D01*
X101797982Y-112947500D01*
X101797984Y-112947500D01*
X101910016Y-112947500D01*
X101910018Y-112947500D01*
X102018237Y-112918503D01*
X102115263Y-112862485D01*
X102194485Y-112783263D01*
X102194489Y-112783255D01*
X102199433Y-112776814D01*
X102201966Y-112778757D01*
X102241663Y-112740896D01*
X102310268Y-112727663D01*
X102375137Y-112753621D01*
X102396165Y-112777889D01*
X102397567Y-112776814D01*
X102402513Y-112783260D01*
X102402515Y-112783263D01*
X102481737Y-112862485D01*
X102578763Y-112918503D01*
X102686982Y-112947500D01*
X102686984Y-112947500D01*
X102799016Y-112947500D01*
X102799018Y-112947500D01*
X102907237Y-112918503D01*
X103004263Y-112862485D01*
X103083485Y-112783263D01*
X103083489Y-112783255D01*
X103088433Y-112776814D01*
X103090966Y-112778757D01*
X103130663Y-112740896D01*
X103199268Y-112727663D01*
X103264137Y-112753621D01*
X103285165Y-112777889D01*
X103286567Y-112776814D01*
X103291513Y-112783260D01*
X103291515Y-112783263D01*
X103370737Y-112862485D01*
X103467763Y-112918503D01*
X103575982Y-112947500D01*
X103575984Y-112947500D01*
X103688016Y-112947500D01*
X103688018Y-112947500D01*
X103796237Y-112918503D01*
X103893263Y-112862485D01*
X103972485Y-112783263D01*
X104028503Y-112686237D01*
X104057500Y-112578018D01*
X104057500Y-112465982D01*
X104028503Y-112357763D01*
X103972485Y-112260737D01*
X103893263Y-112181515D01*
X103828579Y-112144169D01*
X103796239Y-112125498D01*
X103796238Y-112125497D01*
X103796237Y-112125497D01*
X103688018Y-112096500D01*
X103575982Y-112096500D01*
X103467763Y-112125497D01*
X103467760Y-112125498D01*
X103370740Y-112181513D01*
X103370734Y-112181517D01*
X103291517Y-112260734D01*
X103286567Y-112267186D01*
X103284038Y-112265245D01*
X103244297Y-112303123D01*
X103175687Y-112316332D01*
X103110828Y-112290351D01*
X103089828Y-112266115D01*
X103088433Y-112267186D01*
X103083487Y-112260740D01*
X103083485Y-112260737D01*
X103004263Y-112181515D01*
X102939579Y-112144169D01*
X102907239Y-112125498D01*
X102907238Y-112125497D01*
X102907237Y-112125497D01*
X102799018Y-112096500D01*
X102686982Y-112096500D01*
X102578763Y-112125497D01*
X102578760Y-112125498D01*
X102481740Y-112181513D01*
X102481734Y-112181517D01*
X102402517Y-112260734D01*
X102397567Y-112267186D01*
X102395038Y-112265245D01*
X102355297Y-112303123D01*
X102286687Y-112316332D01*
X102221828Y-112290351D01*
X102200828Y-112266115D01*
X102199433Y-112267186D01*
X102194487Y-112260740D01*
X102194485Y-112260737D01*
X102115263Y-112181515D01*
X102050579Y-112144169D01*
X102018239Y-112125498D01*
X102018238Y-112125497D01*
X102018237Y-112125497D01*
X101910018Y-112096500D01*
X101797982Y-112096500D01*
X101689763Y-112125497D01*
X101689760Y-112125498D01*
X101592740Y-112181513D01*
X101592734Y-112181517D01*
X101513517Y-112260734D01*
X101513513Y-112260740D01*
X101457498Y-112357760D01*
X101457497Y-112357763D01*
X101428500Y-112465982D01*
X79927500Y-112465982D01*
X79898503Y-112357763D01*
X79842485Y-112260737D01*
X79763263Y-112181515D01*
X79698579Y-112144169D01*
X79666239Y-112125498D01*
X79666238Y-112125497D01*
X79666237Y-112125497D01*
X79558018Y-112096500D01*
X79445982Y-112096500D01*
X79337763Y-112125497D01*
X79337760Y-112125498D01*
X79240740Y-112181513D01*
X79240734Y-112181517D01*
X79161517Y-112260734D01*
X79161513Y-112260740D01*
X79105498Y-112357760D01*
X79105495Y-112357767D01*
X79105076Y-112359333D01*
X79104361Y-112360504D01*
X79102388Y-112365270D01*
X79101644Y-112364962D01*
X79068708Y-112418991D01*
X79005860Y-112449517D01*
X78936484Y-112441219D01*
X78916412Y-112430335D01*
X78887817Y-112411228D01*
X78887804Y-112411221D01*
X78760332Y-112358421D01*
X78760322Y-112358418D01*
X78624995Y-112331500D01*
X78624993Y-112331500D01*
X77826244Y-112331500D01*
X77759205Y-112311815D01*
X77713450Y-112259011D01*
X77703506Y-112189853D01*
X77732531Y-112126297D01*
X77764244Y-112100113D01*
X77790738Y-112084816D01*
X77829365Y-112062515D01*
X77936515Y-111955365D01*
X78012281Y-111824135D01*
X78051500Y-111677766D01*
X78051500Y-111526234D01*
X78012281Y-111379865D01*
X77936515Y-111248635D01*
X77829365Y-111141485D01*
X77746828Y-111093832D01*
X77733232Y-111085982D01*
X80727500Y-111085982D01*
X80727500Y-111198018D01*
X80756497Y-111306237D01*
X80812515Y-111403263D01*
X80891737Y-111482485D01*
X80988763Y-111538503D01*
X81096982Y-111567500D01*
X81096984Y-111567500D01*
X81209016Y-111567500D01*
X81209018Y-111567500D01*
X81317237Y-111538503D01*
X81414263Y-111482485D01*
X81414265Y-111482482D01*
X81418039Y-111479587D01*
X81483208Y-111454390D01*
X81551653Y-111468426D01*
X81601644Y-111517239D01*
X81613974Y-111554281D01*
X81614397Y-111554168D01*
X81616297Y-111561260D01*
X81616468Y-111561773D01*
X81616500Y-111562016D01*
X81616500Y-111562018D01*
X81645497Y-111670237D01*
X81701515Y-111767263D01*
X81780737Y-111846485D01*
X81877763Y-111902503D01*
X81985982Y-111931500D01*
X81985984Y-111931500D01*
X82098016Y-111931500D01*
X82098018Y-111931500D01*
X82206237Y-111902503D01*
X82303263Y-111846485D01*
X82382485Y-111767263D01*
X82438503Y-111670237D01*
X82467500Y-111562018D01*
X82467500Y-111449982D01*
X82438503Y-111341763D01*
X82382485Y-111244737D01*
X82303263Y-111165515D01*
X82206237Y-111109497D01*
X82098018Y-111080500D01*
X81985982Y-111080500D01*
X81877763Y-111109497D01*
X81877760Y-111109498D01*
X81780730Y-111165518D01*
X81776949Y-111168420D01*
X81711778Y-111193610D01*
X81643334Y-111179566D01*
X81593348Y-111130749D01*
X81581026Y-111093718D01*
X81580603Y-111093832D01*
X81578697Y-111086719D01*
X81578529Y-111086214D01*
X81578500Y-111085995D01*
X81578500Y-111085982D01*
X81549503Y-110977763D01*
X81493485Y-110880737D01*
X81414263Y-110801515D01*
X81349579Y-110764169D01*
X81317239Y-110745498D01*
X81317238Y-110745497D01*
X81317237Y-110745497D01*
X81209018Y-110716500D01*
X81096982Y-110716500D01*
X80988763Y-110745497D01*
X80988760Y-110745498D01*
X80891740Y-110801513D01*
X80891734Y-110801517D01*
X80812517Y-110880734D01*
X80812513Y-110880740D01*
X80756498Y-110977760D01*
X80756497Y-110977763D01*
X80727500Y-111085982D01*
X77733232Y-111085982D01*
X77698136Y-111065719D01*
X77624950Y-111046109D01*
X77551766Y-111026500D01*
X77400234Y-111026500D01*
X77253863Y-111065719D01*
X77122635Y-111141485D01*
X77122632Y-111141487D01*
X77015487Y-111248632D01*
X77015485Y-111248635D01*
X76939719Y-111379863D01*
X76933449Y-111403265D01*
X76900500Y-111526234D01*
X76900500Y-111677766D01*
X76903515Y-111689017D01*
X76939719Y-111824136D01*
X76952623Y-111846486D01*
X77015485Y-111955365D01*
X77122635Y-112062515D01*
X77253865Y-112138281D01*
X77257201Y-112140207D01*
X77305416Y-112190774D01*
X77318638Y-112259382D01*
X77292670Y-112324246D01*
X77242653Y-112362155D01*
X77124192Y-112411223D01*
X77124182Y-112411228D01*
X77009458Y-112487885D01*
X77009454Y-112487888D01*
X76911888Y-112585454D01*
X76911885Y-112585458D01*
X76835228Y-112700182D01*
X76835221Y-112700195D01*
X76782421Y-112827667D01*
X76782418Y-112827677D01*
X76755500Y-112963004D01*
X76755500Y-112963007D01*
X76755500Y-113100993D01*
X76755500Y-113100995D01*
X76755499Y-113100995D01*
X74826500Y-113100995D01*
X74826500Y-113100993D01*
X74826500Y-112963007D01*
X74826500Y-112963004D01*
X74799581Y-112827677D01*
X74799580Y-112827676D01*
X74799580Y-112827672D01*
X74779319Y-112778757D01*
X74746778Y-112700195D01*
X74746771Y-112700182D01*
X74670114Y-112585458D01*
X74670111Y-112585454D01*
X74572545Y-112487888D01*
X74572541Y-112487885D01*
X74457817Y-112411228D01*
X74457804Y-112411221D01*
X74330332Y-112358421D01*
X74330322Y-112358418D01*
X74194995Y-112331500D01*
X74194993Y-112331500D01*
X73457007Y-112331500D01*
X73457005Y-112331500D01*
X73321677Y-112358418D01*
X73321667Y-112358421D01*
X73194195Y-112411221D01*
X73194182Y-112411228D01*
X73079458Y-112487885D01*
X73079454Y-112487888D01*
X72981888Y-112585454D01*
X72981885Y-112585458D01*
X72905228Y-112700182D01*
X72905221Y-112700195D01*
X72852421Y-112827667D01*
X72852418Y-112827677D01*
X72825500Y-112963004D01*
X72825500Y-112963007D01*
X72825500Y-113100993D01*
X72825500Y-113100995D01*
X72825499Y-113100995D01*
X71068500Y-113100995D01*
X71068500Y-110433982D01*
X82632500Y-110433982D01*
X82632500Y-110546018D01*
X82661497Y-110654237D01*
X82717515Y-110751263D01*
X82796737Y-110830485D01*
X82893763Y-110886503D01*
X82955149Y-110902951D01*
X83014808Y-110939314D01*
X83045338Y-111002161D01*
X83037044Y-111071537D01*
X82992559Y-111125415D01*
X82985056Y-111130111D01*
X82923743Y-111165510D01*
X82923734Y-111165517D01*
X82844517Y-111244734D01*
X82844513Y-111244740D01*
X82788498Y-111341760D01*
X82788497Y-111341763D01*
X82759500Y-111449982D01*
X82759500Y-111562018D01*
X82788497Y-111670237D01*
X82844515Y-111767263D01*
X82923737Y-111846485D01*
X83020763Y-111902503D01*
X83128982Y-111931500D01*
X83128984Y-111931500D01*
X83241016Y-111931500D01*
X83241018Y-111931500D01*
X83349237Y-111902503D01*
X83446263Y-111846485D01*
X83525485Y-111767263D01*
X83581503Y-111670237D01*
X83606490Y-111576982D01*
X84537500Y-111576982D01*
X84537500Y-111689018D01*
X84566497Y-111797237D01*
X84622515Y-111894263D01*
X84701737Y-111973485D01*
X84798763Y-112029503D01*
X84906982Y-112058500D01*
X84906984Y-112058500D01*
X85019016Y-112058500D01*
X85019018Y-112058500D01*
X85127237Y-112029503D01*
X85224263Y-111973485D01*
X85303485Y-111894263D01*
X85359503Y-111797237D01*
X85388500Y-111689018D01*
X85388500Y-111576982D01*
X85359503Y-111468763D01*
X85303485Y-111371737D01*
X85224263Y-111292515D01*
X85148261Y-111248635D01*
X85127239Y-111236498D01*
X85127238Y-111236497D01*
X85127237Y-111236497D01*
X85019018Y-111207500D01*
X84906982Y-111207500D01*
X84798763Y-111236497D01*
X84798760Y-111236498D01*
X84701740Y-111292513D01*
X84701734Y-111292517D01*
X84622517Y-111371734D01*
X84622513Y-111371740D01*
X84566498Y-111468760D01*
X84566497Y-111468763D01*
X84537500Y-111576982D01*
X83606490Y-111576982D01*
X83610500Y-111562018D01*
X83610500Y-111449982D01*
X83581503Y-111341763D01*
X83525485Y-111244737D01*
X83446263Y-111165515D01*
X83349237Y-111109497D01*
X83287848Y-111093048D01*
X83228190Y-111056684D01*
X83197661Y-110993837D01*
X83205956Y-110924461D01*
X83250441Y-110870583D01*
X83257945Y-110865887D01*
X83259556Y-110864956D01*
X83319263Y-110830485D01*
X83398485Y-110751263D01*
X83454503Y-110654237D01*
X83483500Y-110546018D01*
X83483500Y-110433982D01*
X83454503Y-110325763D01*
X83398485Y-110228737D01*
X83319263Y-110149515D01*
X83222237Y-110093497D01*
X83114018Y-110064500D01*
X83001982Y-110064500D01*
X82893763Y-110093497D01*
X82893760Y-110093498D01*
X82796740Y-110149513D01*
X82796734Y-110149517D01*
X82717517Y-110228734D01*
X82717513Y-110228740D01*
X82661498Y-110325760D01*
X82661497Y-110325763D01*
X82632500Y-110433982D01*
X71068500Y-110433982D01*
X71068500Y-108856982D01*
X79521500Y-108856982D01*
X79521500Y-108969018D01*
X79550497Y-109077237D01*
X79606515Y-109174263D01*
X79685737Y-109253485D01*
X79782763Y-109309503D01*
X79810320Y-109316886D01*
X79869980Y-109353249D01*
X79900511Y-109416095D01*
X79892217Y-109485471D01*
X79865910Y-109524342D01*
X79796514Y-109593738D01*
X79796513Y-109593740D01*
X79740498Y-109690760D01*
X79740498Y-109690761D01*
X79740497Y-109690763D01*
X79711500Y-109798982D01*
X79711500Y-109911018D01*
X79740497Y-110019237D01*
X79796515Y-110116263D01*
X79875737Y-110195485D01*
X79972763Y-110251503D01*
X80080982Y-110280500D01*
X80080984Y-110280500D01*
X80193016Y-110280500D01*
X80193018Y-110280500D01*
X80301237Y-110251503D01*
X80398263Y-110195485D01*
X80477485Y-110116263D01*
X80533503Y-110019237D01*
X80562500Y-109911018D01*
X80562500Y-109798982D01*
X80533503Y-109690763D01*
X80513635Y-109656350D01*
X101463668Y-109656350D01*
X101463668Y-109768386D01*
X101492665Y-109876605D01*
X101548683Y-109973631D01*
X101627905Y-110052853D01*
X101724931Y-110108871D01*
X101833150Y-110137868D01*
X101833152Y-110137868D01*
X101945184Y-110137868D01*
X101945186Y-110137868D01*
X102053405Y-110108871D01*
X102150431Y-110052853D01*
X102229653Y-109973631D01*
X102285671Y-109876605D01*
X102314668Y-109768386D01*
X102314668Y-109656350D01*
X102285671Y-109548131D01*
X102229653Y-109451105D01*
X102150431Y-109371883D01*
X102085747Y-109334537D01*
X102053407Y-109315866D01*
X102053406Y-109315865D01*
X102053405Y-109315865D01*
X101945186Y-109286868D01*
X101833150Y-109286868D01*
X101724931Y-109315865D01*
X101724928Y-109315866D01*
X101627908Y-109371881D01*
X101627902Y-109371885D01*
X101548685Y-109451102D01*
X101548681Y-109451108D01*
X101492666Y-109548128D01*
X101492665Y-109548131D01*
X101463668Y-109656350D01*
X80513635Y-109656350D01*
X80477485Y-109593737D01*
X80398263Y-109514515D01*
X80301237Y-109458497D01*
X80273676Y-109451112D01*
X80214017Y-109414748D01*
X80183488Y-109351901D01*
X80191783Y-109282526D01*
X80218085Y-109243662D01*
X80287485Y-109174263D01*
X80343503Y-109077237D01*
X80372500Y-108969018D01*
X80372500Y-108856982D01*
X80343503Y-108748763D01*
X80287485Y-108651737D01*
X80208263Y-108572515D01*
X80111237Y-108516497D01*
X80003018Y-108487500D01*
X79890982Y-108487500D01*
X79782763Y-108516497D01*
X79782760Y-108516498D01*
X79685740Y-108572513D01*
X79685734Y-108572517D01*
X79606517Y-108651734D01*
X79606513Y-108651740D01*
X79550498Y-108748760D01*
X79550497Y-108748763D01*
X79521500Y-108856982D01*
X71068500Y-108856982D01*
X71068500Y-107131982D01*
X82632500Y-107131982D01*
X82632500Y-107244018D01*
X82661497Y-107352237D01*
X82717515Y-107449263D01*
X82796737Y-107528485D01*
X82893763Y-107584503D01*
X83001982Y-107613500D01*
X83001984Y-107613500D01*
X83114016Y-107613500D01*
X83114018Y-107613500D01*
X83222237Y-107584503D01*
X83319263Y-107528485D01*
X83398485Y-107449263D01*
X83454503Y-107352237D01*
X83483500Y-107244018D01*
X83483500Y-107131982D01*
X83454503Y-107023763D01*
X83399666Y-106928782D01*
X100412500Y-106928782D01*
X100412500Y-107040818D01*
X100441497Y-107149037D01*
X100497515Y-107246063D01*
X100576737Y-107325285D01*
X100673763Y-107381303D01*
X100781982Y-107410300D01*
X100781984Y-107410300D01*
X100894016Y-107410300D01*
X100894018Y-107410300D01*
X101002237Y-107381303D01*
X101099263Y-107325285D01*
X101178485Y-107246063D01*
X101234503Y-107149037D01*
X101252685Y-107081182D01*
X102952500Y-107081182D01*
X102952500Y-107193218D01*
X102981497Y-107301437D01*
X103037515Y-107398463D01*
X103116737Y-107477685D01*
X103213763Y-107533703D01*
X103321982Y-107562700D01*
X103321984Y-107562700D01*
X103434016Y-107562700D01*
X103434018Y-107562700D01*
X103542237Y-107533703D01*
X103639263Y-107477685D01*
X103718485Y-107398463D01*
X103774503Y-107301437D01*
X103803500Y-107193218D01*
X103803500Y-107081182D01*
X103774503Y-106972963D01*
X103718485Y-106875937D01*
X103639263Y-106796715D01*
X103574579Y-106759369D01*
X103542239Y-106740698D01*
X103542238Y-106740697D01*
X103542237Y-106740697D01*
X103434018Y-106711700D01*
X103321982Y-106711700D01*
X103213763Y-106740697D01*
X103213760Y-106740698D01*
X103116740Y-106796713D01*
X103116734Y-106796717D01*
X103037517Y-106875934D01*
X103037513Y-106875940D01*
X102981498Y-106972960D01*
X102981497Y-106972963D01*
X102952500Y-107081182D01*
X101252685Y-107081182D01*
X101263500Y-107040818D01*
X101263500Y-106928782D01*
X101234503Y-106820563D01*
X101178485Y-106723537D01*
X101099263Y-106644315D01*
X101002237Y-106588297D01*
X100894018Y-106559300D01*
X100781982Y-106559300D01*
X100673763Y-106588297D01*
X100673760Y-106588298D01*
X100576740Y-106644313D01*
X100576734Y-106644317D01*
X100497517Y-106723534D01*
X100497513Y-106723540D01*
X100441498Y-106820560D01*
X100441497Y-106820563D01*
X100412500Y-106928782D01*
X83399666Y-106928782D01*
X83398485Y-106926737D01*
X83319263Y-106847515D01*
X83231275Y-106796715D01*
X83222239Y-106791498D01*
X83222238Y-106791497D01*
X83222237Y-106791497D01*
X83114018Y-106762500D01*
X83001982Y-106762500D01*
X82893763Y-106791497D01*
X82893760Y-106791498D01*
X82796740Y-106847513D01*
X82796734Y-106847517D01*
X82717517Y-106926734D01*
X82717513Y-106926740D01*
X82661498Y-107023760D01*
X82661497Y-107023763D01*
X82632500Y-107131982D01*
X71068500Y-107131982D01*
X71068500Y-106496982D01*
X122891500Y-106496982D01*
X122891500Y-106609018D01*
X122919014Y-106711700D01*
X122920497Y-106717236D01*
X122920498Y-106717239D01*
X122924134Y-106723537D01*
X122976515Y-106814263D01*
X123055737Y-106893485D01*
X123152763Y-106949503D01*
X123260982Y-106978500D01*
X123260984Y-106978500D01*
X123373016Y-106978500D01*
X123373018Y-106978500D01*
X123481237Y-106949503D01*
X123578263Y-106893485D01*
X123610319Y-106861429D01*
X123671642Y-106827944D01*
X123741334Y-106832928D01*
X123785681Y-106861429D01*
X123817737Y-106893485D01*
X123914763Y-106949503D01*
X124022982Y-106978500D01*
X124022984Y-106978500D01*
X124135016Y-106978500D01*
X124135018Y-106978500D01*
X124243237Y-106949503D01*
X124340263Y-106893485D01*
X124372319Y-106861429D01*
X124433642Y-106827944D01*
X124503334Y-106832928D01*
X124547681Y-106861429D01*
X124579737Y-106893485D01*
X124676763Y-106949503D01*
X124784982Y-106978500D01*
X124784984Y-106978500D01*
X124897016Y-106978500D01*
X124897018Y-106978500D01*
X125005237Y-106949503D01*
X125102263Y-106893485D01*
X125134319Y-106861429D01*
X125195642Y-106827944D01*
X125265334Y-106832928D01*
X125309681Y-106861429D01*
X125341737Y-106893485D01*
X125438763Y-106949503D01*
X125546982Y-106978500D01*
X125546984Y-106978500D01*
X125659016Y-106978500D01*
X125659018Y-106978500D01*
X125767237Y-106949503D01*
X125864263Y-106893485D01*
X125943485Y-106814263D01*
X125999503Y-106717237D01*
X126028500Y-106609018D01*
X126028500Y-106496982D01*
X125999503Y-106388763D01*
X125943485Y-106291737D01*
X125864263Y-106212515D01*
X125767237Y-106156497D01*
X125659018Y-106127500D01*
X125546982Y-106127500D01*
X125438763Y-106156497D01*
X125438760Y-106156498D01*
X125341740Y-106212513D01*
X125341734Y-106212517D01*
X125309681Y-106244571D01*
X125248358Y-106278056D01*
X125178666Y-106273072D01*
X125134319Y-106244571D01*
X125102265Y-106212517D01*
X125102263Y-106212515D01*
X125005237Y-106156497D01*
X124897018Y-106127500D01*
X124784982Y-106127500D01*
X124676763Y-106156497D01*
X124676760Y-106156498D01*
X124579740Y-106212513D01*
X124579734Y-106212517D01*
X124547681Y-106244571D01*
X124486358Y-106278056D01*
X124416666Y-106273072D01*
X124372319Y-106244571D01*
X124340265Y-106212517D01*
X124340263Y-106212515D01*
X124243237Y-106156497D01*
X124135018Y-106127500D01*
X124022982Y-106127500D01*
X123914763Y-106156497D01*
X123914760Y-106156498D01*
X123817740Y-106212513D01*
X123817734Y-106212517D01*
X123785681Y-106244571D01*
X123724358Y-106278056D01*
X123654666Y-106273072D01*
X123610319Y-106244571D01*
X123578265Y-106212517D01*
X123578263Y-106212515D01*
X123481237Y-106156497D01*
X123373018Y-106127500D01*
X123260982Y-106127500D01*
X123152763Y-106156497D01*
X123152760Y-106156498D01*
X123055740Y-106212513D01*
X123055734Y-106212517D01*
X122976517Y-106291734D01*
X122976513Y-106291740D01*
X122920498Y-106388760D01*
X122920497Y-106388763D01*
X122891500Y-106496982D01*
X71068500Y-106496982D01*
X71068500Y-104460995D01*
X72825499Y-104460995D01*
X72852418Y-104596322D01*
X72852421Y-104596332D01*
X72905221Y-104723804D01*
X72905228Y-104723817D01*
X72981885Y-104838541D01*
X72981888Y-104838545D01*
X73079454Y-104936111D01*
X73079458Y-104936114D01*
X73194182Y-105012771D01*
X73194195Y-105012778D01*
X73312206Y-105061659D01*
X73321672Y-105065580D01*
X73321676Y-105065580D01*
X73321677Y-105065581D01*
X73457004Y-105092500D01*
X73457007Y-105092500D01*
X74194995Y-105092500D01*
X74286041Y-105074389D01*
X74330328Y-105065580D01*
X74457811Y-105012775D01*
X74572542Y-104936114D01*
X74670114Y-104838542D01*
X74746775Y-104723811D01*
X74799580Y-104596328D01*
X74808389Y-104552041D01*
X74826500Y-104460995D01*
X76755499Y-104460995D01*
X76782418Y-104596322D01*
X76782421Y-104596332D01*
X76835221Y-104723804D01*
X76835228Y-104723817D01*
X76911885Y-104838541D01*
X76911888Y-104838545D01*
X77009454Y-104936111D01*
X77009458Y-104936114D01*
X77124182Y-105012771D01*
X77124195Y-105012778D01*
X77242652Y-105061844D01*
X77297056Y-105105685D01*
X77319121Y-105171979D01*
X77301842Y-105239678D01*
X77257201Y-105283792D01*
X77122635Y-105361485D01*
X77122632Y-105361487D01*
X77015487Y-105468632D01*
X77015485Y-105468635D01*
X76939719Y-105599863D01*
X76900500Y-105746234D01*
X76900500Y-105897765D01*
X76939719Y-106044136D01*
X76977602Y-106109750D01*
X77015485Y-106175365D01*
X77122635Y-106282515D01*
X77253865Y-106358281D01*
X77400234Y-106397500D01*
X77400236Y-106397500D01*
X77551764Y-106397500D01*
X77551766Y-106397500D01*
X77698135Y-106358281D01*
X77829365Y-106282515D01*
X77936515Y-106175365D01*
X78012281Y-106044135D01*
X78051500Y-105897766D01*
X78051500Y-105746234D01*
X78012281Y-105599865D01*
X77936515Y-105468635D01*
X77829365Y-105361485D01*
X77829363Y-105361484D01*
X77829361Y-105361482D01*
X77764244Y-105323887D01*
X77716028Y-105273320D01*
X77702806Y-105204713D01*
X77728774Y-105139848D01*
X77785688Y-105099320D01*
X77826244Y-105092500D01*
X78624995Y-105092500D01*
X78716041Y-105074389D01*
X78760328Y-105065580D01*
X78795281Y-105051101D01*
X78864749Y-105043632D01*
X78927228Y-105074906D01*
X78962508Y-105133567D01*
X78964470Y-105140886D01*
X78978497Y-105193238D01*
X78978498Y-105193239D01*
X78985123Y-105204713D01*
X79034515Y-105290263D01*
X79113737Y-105369485D01*
X79210763Y-105425503D01*
X79318982Y-105454500D01*
X79318984Y-105454500D01*
X79431016Y-105454500D01*
X79431018Y-105454500D01*
X79539237Y-105425503D01*
X79636263Y-105369485D01*
X79715485Y-105290263D01*
X79771503Y-105193237D01*
X79800500Y-105085018D01*
X79800500Y-104972982D01*
X79771503Y-104864763D01*
X79715485Y-104767737D01*
X79636263Y-104688515D01*
X79539237Y-104632497D01*
X79431018Y-104603500D01*
X79379248Y-104603500D01*
X79312209Y-104583815D01*
X79266454Y-104531011D01*
X79255252Y-104478463D01*
X79255349Y-104466775D01*
X79256500Y-104460993D01*
X79256500Y-104337982D01*
X104349500Y-104337982D01*
X104349500Y-104450018D01*
X104378497Y-104558237D01*
X104434515Y-104655263D01*
X104513737Y-104734485D01*
X104610763Y-104790503D01*
X104718982Y-104819500D01*
X104718984Y-104819500D01*
X104831016Y-104819500D01*
X104831018Y-104819500D01*
X104939237Y-104790503D01*
X105019121Y-104744382D01*
X107118100Y-104744382D01*
X107118100Y-104856418D01*
X107139455Y-104936114D01*
X107147097Y-104964636D01*
X107147098Y-104964639D01*
X107151915Y-104972982D01*
X107203115Y-105061663D01*
X107282337Y-105140885D01*
X107379363Y-105196903D01*
X107487582Y-105225900D01*
X107487584Y-105225900D01*
X107599616Y-105225900D01*
X107599618Y-105225900D01*
X107707837Y-105196903D01*
X107804863Y-105140885D01*
X107884085Y-105061663D01*
X107940103Y-104964637D01*
X107969100Y-104856418D01*
X107969100Y-104744382D01*
X107940103Y-104636163D01*
X107884085Y-104539137D01*
X107804863Y-104459915D01*
X107707837Y-104403897D01*
X107599618Y-104374900D01*
X107487582Y-104374900D01*
X107379363Y-104403897D01*
X107379360Y-104403898D01*
X107282340Y-104459913D01*
X107282334Y-104459917D01*
X107203117Y-104539134D01*
X107203113Y-104539140D01*
X107147098Y-104636160D01*
X107147097Y-104636163D01*
X107118100Y-104744382D01*
X105019121Y-104744382D01*
X105036263Y-104734485D01*
X105115485Y-104655263D01*
X105171503Y-104558237D01*
X105200500Y-104450018D01*
X105200500Y-104337982D01*
X105171503Y-104229763D01*
X105115485Y-104132737D01*
X105036263Y-104053515D01*
X104939237Y-103997497D01*
X104831018Y-103968500D01*
X104718982Y-103968500D01*
X104610763Y-103997497D01*
X104610760Y-103997498D01*
X104513740Y-104053513D01*
X104513734Y-104053517D01*
X104434517Y-104132734D01*
X104434513Y-104132740D01*
X104378498Y-104229760D01*
X104378497Y-104229763D01*
X104349500Y-104337982D01*
X79256500Y-104337982D01*
X79256500Y-104323007D01*
X79256500Y-104323004D01*
X79229581Y-104187677D01*
X79229580Y-104187676D01*
X79229580Y-104187672D01*
X79206827Y-104132740D01*
X79176778Y-104060195D01*
X79176771Y-104060182D01*
X79100114Y-103945458D01*
X79100111Y-103945454D01*
X79002545Y-103847888D01*
X79002541Y-103847885D01*
X78887817Y-103771228D01*
X78887804Y-103771221D01*
X78760332Y-103718421D01*
X78760322Y-103718418D01*
X78624995Y-103691500D01*
X78624993Y-103691500D01*
X77387007Y-103691500D01*
X77387005Y-103691500D01*
X77251677Y-103718418D01*
X77251667Y-103718421D01*
X77124195Y-103771221D01*
X77124182Y-103771228D01*
X77009458Y-103847885D01*
X77009454Y-103847888D01*
X76911888Y-103945454D01*
X76911885Y-103945458D01*
X76835228Y-104060182D01*
X76835221Y-104060195D01*
X76782421Y-104187667D01*
X76782418Y-104187677D01*
X76755500Y-104323004D01*
X76755500Y-104323007D01*
X76755500Y-104460993D01*
X76755500Y-104460995D01*
X76755499Y-104460995D01*
X74826500Y-104460995D01*
X74826500Y-104323004D01*
X74799581Y-104187677D01*
X74799580Y-104187676D01*
X74799580Y-104187672D01*
X74776827Y-104132740D01*
X74746778Y-104060195D01*
X74746771Y-104060182D01*
X74670114Y-103945458D01*
X74670111Y-103945454D01*
X74572545Y-103847888D01*
X74572541Y-103847885D01*
X74457817Y-103771228D01*
X74457804Y-103771221D01*
X74330332Y-103718421D01*
X74330322Y-103718418D01*
X74194995Y-103691500D01*
X74194993Y-103691500D01*
X73457007Y-103691500D01*
X73457005Y-103691500D01*
X73321677Y-103718418D01*
X73321667Y-103718421D01*
X73194195Y-103771221D01*
X73194182Y-103771228D01*
X73079458Y-103847885D01*
X73079454Y-103847888D01*
X72981888Y-103945454D01*
X72981885Y-103945458D01*
X72905228Y-104060182D01*
X72905221Y-104060195D01*
X72852421Y-104187667D01*
X72852418Y-104187677D01*
X72825500Y-104323004D01*
X72825500Y-104323007D01*
X72825500Y-104460993D01*
X72825500Y-104460995D01*
X72825499Y-104460995D01*
X71068500Y-104460995D01*
X71068500Y-102178982D01*
X92030500Y-102178982D01*
X92030500Y-102291018D01*
X92059497Y-102399237D01*
X92115515Y-102496263D01*
X92194737Y-102575485D01*
X92291763Y-102631503D01*
X92399982Y-102660500D01*
X92399984Y-102660500D01*
X92512016Y-102660500D01*
X92512018Y-102660500D01*
X92620237Y-102631503D01*
X92717263Y-102575485D01*
X92796485Y-102496263D01*
X92833020Y-102432982D01*
X94697500Y-102432982D01*
X94697500Y-102545018D01*
X94726497Y-102653237D01*
X94782515Y-102750263D01*
X94861737Y-102829485D01*
X94958763Y-102885503D01*
X95066982Y-102914500D01*
X95066984Y-102914500D01*
X95179016Y-102914500D01*
X95179018Y-102914500D01*
X95287237Y-102885503D01*
X95384263Y-102829485D01*
X95463485Y-102750263D01*
X95519503Y-102653237D01*
X95548500Y-102545018D01*
X95548500Y-102432982D01*
X95519503Y-102324763D01*
X95463485Y-102227737D01*
X95384263Y-102148515D01*
X95287237Y-102092497D01*
X95179018Y-102063500D01*
X95066982Y-102063500D01*
X94958763Y-102092497D01*
X94958760Y-102092498D01*
X94861740Y-102148513D01*
X94861734Y-102148517D01*
X94782517Y-102227734D01*
X94782513Y-102227740D01*
X94726498Y-102324760D01*
X94726497Y-102324763D01*
X94697500Y-102432982D01*
X92833020Y-102432982D01*
X92852503Y-102399237D01*
X92881500Y-102291018D01*
X92881500Y-102178982D01*
X92852503Y-102070763D01*
X92796485Y-101973737D01*
X92717263Y-101894515D01*
X92620239Y-101838498D01*
X92620238Y-101838497D01*
X92615189Y-101837144D01*
X92604869Y-101834379D01*
X92567028Y-101824239D01*
X92512018Y-101809500D01*
X92399982Y-101809500D01*
X92291763Y-101838497D01*
X92291760Y-101838498D01*
X92194740Y-101894513D01*
X92194734Y-101894517D01*
X92115517Y-101973734D01*
X92115513Y-101973740D01*
X92059498Y-102070760D01*
X92059497Y-102070763D01*
X92030500Y-102178982D01*
X71068500Y-102178982D01*
X71068500Y-101722732D01*
X101353250Y-101722732D01*
X101353250Y-101834768D01*
X101382247Y-101942987D01*
X101438265Y-102040013D01*
X101517487Y-102119235D01*
X101614513Y-102175253D01*
X101722732Y-102204250D01*
X101722734Y-102204250D01*
X101834766Y-102204250D01*
X101834768Y-102204250D01*
X101942987Y-102175253D01*
X102040013Y-102119235D01*
X102119235Y-102040013D01*
X102175253Y-101942987D01*
X102204250Y-101834768D01*
X102204250Y-101722732D01*
X102175253Y-101614513D01*
X102119235Y-101517487D01*
X102040013Y-101438265D01*
X101942987Y-101382247D01*
X101834768Y-101353250D01*
X101722732Y-101353250D01*
X101614513Y-101382247D01*
X101614510Y-101382248D01*
X101517490Y-101438263D01*
X101517484Y-101438267D01*
X101438267Y-101517484D01*
X101438263Y-101517490D01*
X101382248Y-101614510D01*
X101382247Y-101614513D01*
X101353250Y-101722732D01*
X71068500Y-101722732D01*
X71068500Y-100400982D01*
X104857500Y-100400982D01*
X104857500Y-100513018D01*
X104886497Y-100621237D01*
X104942515Y-100718263D01*
X105021737Y-100797485D01*
X105118763Y-100853503D01*
X105226982Y-100882500D01*
X105226984Y-100882500D01*
X105339016Y-100882500D01*
X105339018Y-100882500D01*
X105447237Y-100853503D01*
X105544263Y-100797485D01*
X105623485Y-100718263D01*
X105679503Y-100621237D01*
X105708500Y-100513018D01*
X105708500Y-100400982D01*
X105679503Y-100292763D01*
X105623485Y-100195737D01*
X105544263Y-100116515D01*
X105447237Y-100060497D01*
X105339018Y-100031500D01*
X105226982Y-100031500D01*
X105118763Y-100060497D01*
X105118760Y-100060498D01*
X105021740Y-100116513D01*
X105021734Y-100116517D01*
X104942517Y-100195734D01*
X104942513Y-100195740D01*
X104886498Y-100292760D01*
X104886497Y-100292763D01*
X104857500Y-100400982D01*
X71068500Y-100400982D01*
X71068500Y-99042300D01*
X75416500Y-99042300D01*
X75416500Y-99229699D01*
X75436270Y-99354517D01*
X75445814Y-99414776D01*
X75503721Y-99592993D01*
X75584237Y-99751017D01*
X75588794Y-99759959D01*
X75588795Y-99759962D01*
X75634587Y-99822988D01*
X75698938Y-99911559D01*
X75831441Y-100044062D01*
X75896738Y-100091503D01*
X75983037Y-100154204D01*
X75983038Y-100154204D01*
X75983042Y-100154207D01*
X76150007Y-100239279D01*
X76328224Y-100297186D01*
X76420765Y-100311843D01*
X76513301Y-100326500D01*
X76513306Y-100326500D01*
X78680699Y-100326500D01*
X78764822Y-100313175D01*
X78865776Y-100297186D01*
X79043993Y-100239279D01*
X79210958Y-100154207D01*
X79362559Y-100044062D01*
X79495062Y-99911559D01*
X79605207Y-99759958D01*
X79690279Y-99592993D01*
X79748186Y-99414776D01*
X79766603Y-99298497D01*
X79777500Y-99229699D01*
X79777500Y-99042300D01*
X79754597Y-98897702D01*
X79748186Y-98857224D01*
X79690279Y-98679007D01*
X79605207Y-98512042D01*
X79556630Y-98445182D01*
X101580900Y-98445182D01*
X101580900Y-98557218D01*
X101609897Y-98665437D01*
X101665915Y-98762463D01*
X101745137Y-98841685D01*
X101842163Y-98897703D01*
X101950382Y-98926700D01*
X101950384Y-98926700D01*
X102062416Y-98926700D01*
X102062418Y-98926700D01*
X102170637Y-98897703D01*
X102267663Y-98841685D01*
X102346885Y-98762463D01*
X102402903Y-98665437D01*
X102414279Y-98622982D01*
X116795500Y-98622982D01*
X116795500Y-98735018D01*
X116824497Y-98843237D01*
X116880515Y-98940263D01*
X116959737Y-99019485D01*
X117056763Y-99075503D01*
X117063802Y-99079567D01*
X117062028Y-99082639D01*
X117103781Y-99116297D01*
X117125835Y-99182595D01*
X117108544Y-99250292D01*
X117062863Y-99292807D01*
X117063802Y-99294433D01*
X116959740Y-99354513D01*
X116959734Y-99354517D01*
X116880517Y-99433734D01*
X116880513Y-99433740D01*
X116824498Y-99530760D01*
X116824497Y-99530763D01*
X116795500Y-99638982D01*
X116795500Y-99751018D01*
X116824497Y-99859237D01*
X116880515Y-99956263D01*
X116959737Y-100035485D01*
X117056763Y-100091503D01*
X117164982Y-100120500D01*
X117164984Y-100120500D01*
X117277016Y-100120500D01*
X117277018Y-100120500D01*
X117385237Y-100091503D01*
X117482263Y-100035485D01*
X117561485Y-99956263D01*
X117617503Y-99859237D01*
X117646500Y-99751018D01*
X117646500Y-99638982D01*
X117617503Y-99530763D01*
X117561485Y-99433737D01*
X117482263Y-99354515D01*
X117385237Y-99298497D01*
X117378198Y-99294433D01*
X117380001Y-99291309D01*
X117338442Y-99258024D01*
X117316179Y-99191796D01*
X117333255Y-99124046D01*
X117379091Y-99081114D01*
X117378198Y-99079567D01*
X117385237Y-99075503D01*
X117482263Y-99019485D01*
X117561485Y-98940263D01*
X117617503Y-98843237D01*
X117646500Y-98735018D01*
X117646500Y-98622982D01*
X117617503Y-98514763D01*
X117561485Y-98417737D01*
X117482263Y-98338515D01*
X117385237Y-98282497D01*
X117277018Y-98253500D01*
X117164982Y-98253500D01*
X117056763Y-98282497D01*
X117056760Y-98282498D01*
X116959740Y-98338513D01*
X116959734Y-98338517D01*
X116880517Y-98417734D01*
X116880513Y-98417740D01*
X116824498Y-98514760D01*
X116824497Y-98514763D01*
X116795500Y-98622982D01*
X102414279Y-98622982D01*
X102431900Y-98557218D01*
X102431900Y-98445182D01*
X102402903Y-98336963D01*
X102346885Y-98239937D01*
X102267663Y-98160715D01*
X102170637Y-98104697D01*
X102062418Y-98075700D01*
X101950382Y-98075700D01*
X101842163Y-98104697D01*
X101842160Y-98104698D01*
X101745140Y-98160713D01*
X101745134Y-98160717D01*
X101665917Y-98239934D01*
X101665913Y-98239940D01*
X101609898Y-98336960D01*
X101609897Y-98336963D01*
X101580900Y-98445182D01*
X79556630Y-98445182D01*
X79495062Y-98360441D01*
X79362559Y-98227938D01*
X79270035Y-98160715D01*
X79210962Y-98117795D01*
X79210959Y-98117794D01*
X79210960Y-98117794D01*
X79210958Y-98117793D01*
X79043993Y-98032721D01*
X78865776Y-97974814D01*
X78865770Y-97974813D01*
X78680699Y-97945500D01*
X78680694Y-97945500D01*
X76513306Y-97945500D01*
X76513301Y-97945500D01*
X76328229Y-97974813D01*
X76328227Y-97974813D01*
X76328224Y-97974814D01*
X76150007Y-98032721D01*
X76150004Y-98032722D01*
X76150002Y-98032723D01*
X75983040Y-98117794D01*
X75983037Y-98117795D01*
X75869477Y-98200302D01*
X75831441Y-98227938D01*
X75831439Y-98227940D01*
X75831438Y-98227940D01*
X75698940Y-98360438D01*
X75698940Y-98360439D01*
X75698938Y-98360441D01*
X75671302Y-98398477D01*
X75588795Y-98512037D01*
X75588794Y-98512040D01*
X75503723Y-98679002D01*
X75503722Y-98679004D01*
X75503721Y-98679007D01*
X75445814Y-98857224D01*
X75445813Y-98857227D01*
X75445813Y-98857229D01*
X75416500Y-99042300D01*
X71068500Y-99042300D01*
X71068500Y-96082982D01*
X109683500Y-96082982D01*
X109683500Y-96195018D01*
X109690306Y-96220416D01*
X109712497Y-96303236D01*
X109712498Y-96303239D01*
X109727161Y-96328636D01*
X109768515Y-96400263D01*
X109847737Y-96479485D01*
X109944763Y-96535503D01*
X110052982Y-96564500D01*
X110052984Y-96564500D01*
X110165016Y-96564500D01*
X110165018Y-96564500D01*
X110273237Y-96535503D01*
X110370263Y-96479485D01*
X110449485Y-96400263D01*
X110505503Y-96303237D01*
X110534500Y-96195018D01*
X110534500Y-96082982D01*
X110505503Y-95974763D01*
X110449485Y-95877737D01*
X110370263Y-95798515D01*
X110289695Y-95751999D01*
X110273239Y-95742498D01*
X110273238Y-95742497D01*
X110273237Y-95742497D01*
X110165018Y-95713500D01*
X110052982Y-95713500D01*
X109944763Y-95742497D01*
X109944760Y-95742498D01*
X109847740Y-95798513D01*
X109847734Y-95798517D01*
X109768517Y-95877734D01*
X109768513Y-95877740D01*
X109712498Y-95974760D01*
X109712497Y-95974763D01*
X109683500Y-96082982D01*
X71068500Y-96082982D01*
X71068500Y-93126247D01*
X75416500Y-93126247D01*
X75416500Y-95145752D01*
X75428131Y-95204229D01*
X75428132Y-95204230D01*
X75472447Y-95270552D01*
X75538769Y-95314867D01*
X75538770Y-95314868D01*
X75597247Y-95326499D01*
X75597250Y-95326500D01*
X75597252Y-95326500D01*
X79596750Y-95326500D01*
X79596751Y-95326499D01*
X79611568Y-95323552D01*
X79655229Y-95314868D01*
X79655229Y-95314867D01*
X79655231Y-95314867D01*
X79721552Y-95270552D01*
X79765867Y-95204231D01*
X79765867Y-95204229D01*
X79765868Y-95204229D01*
X79777499Y-95145752D01*
X79777500Y-95145750D01*
X79777500Y-93669982D01*
X92030500Y-93669982D01*
X92030500Y-93782017D01*
X92059497Y-93890236D01*
X92059498Y-93890239D01*
X92060741Y-93892392D01*
X92115515Y-93987263D01*
X92194737Y-94066485D01*
X92291763Y-94122503D01*
X92399982Y-94151500D01*
X92399984Y-94151500D01*
X92512016Y-94151500D01*
X92512018Y-94151500D01*
X92620237Y-94122503D01*
X92717263Y-94066485D01*
X92796485Y-93987263D01*
X92852503Y-93890237D01*
X92881500Y-93782018D01*
X92881500Y-93760608D01*
X115608500Y-93760608D01*
X115608500Y-93892391D01*
X115642608Y-94019687D01*
X115668116Y-94063867D01*
X115708500Y-94133814D01*
X115801686Y-94227000D01*
X115915814Y-94292892D01*
X116043108Y-94327000D01*
X116043110Y-94327000D01*
X116174888Y-94327000D01*
X116174892Y-94327000D01*
X116235328Y-94310806D01*
X116305173Y-94312469D01*
X116363036Y-94351631D01*
X116390541Y-94415859D01*
X116387193Y-94462674D01*
X116371000Y-94523108D01*
X116371000Y-94654891D01*
X116387193Y-94715325D01*
X116385530Y-94785175D01*
X116346367Y-94843037D01*
X116282139Y-94870541D01*
X116235325Y-94867193D01*
X116174892Y-94851000D01*
X116043108Y-94851000D01*
X115915812Y-94885108D01*
X115801686Y-94951000D01*
X115801683Y-94951002D01*
X115708502Y-95044183D01*
X115708500Y-95044186D01*
X115642608Y-95158312D01*
X115608500Y-95285608D01*
X115608500Y-95417391D01*
X115642608Y-95544687D01*
X115668116Y-95588867D01*
X115708500Y-95658814D01*
X115801686Y-95752000D01*
X115915814Y-95817892D01*
X116043108Y-95852000D01*
X116043110Y-95852000D01*
X116174888Y-95852000D01*
X116174892Y-95852000D01*
X116235328Y-95835806D01*
X116305173Y-95837469D01*
X116363036Y-95876631D01*
X116390541Y-95940859D01*
X116387193Y-95987674D01*
X116383847Y-96000163D01*
X116371000Y-96048108D01*
X116371000Y-96179892D01*
X116375053Y-96195017D01*
X116405108Y-96307187D01*
X116417494Y-96328639D01*
X116471000Y-96421314D01*
X116564186Y-96514500D01*
X116678314Y-96580392D01*
X116805608Y-96614500D01*
X116805610Y-96614500D01*
X116937390Y-96614500D01*
X116937392Y-96614500D01*
X117064686Y-96580392D01*
X117178814Y-96514500D01*
X117272000Y-96421314D01*
X117337892Y-96307186D01*
X117372000Y-96179892D01*
X117372000Y-96048108D01*
X117355806Y-95987670D01*
X117357469Y-95917825D01*
X117396631Y-95859963D01*
X117460859Y-95832458D01*
X117507668Y-95835805D01*
X117568108Y-95852000D01*
X117568111Y-95852000D01*
X117699888Y-95852000D01*
X117699892Y-95852000D01*
X117760328Y-95835806D01*
X117830173Y-95837469D01*
X117888036Y-95876631D01*
X117915541Y-95940859D01*
X117912193Y-95987674D01*
X117908847Y-96000163D01*
X117896000Y-96048108D01*
X117896000Y-96179892D01*
X117900053Y-96195017D01*
X117930108Y-96307187D01*
X117942494Y-96328639D01*
X117996000Y-96421314D01*
X118089186Y-96514500D01*
X118203314Y-96580392D01*
X118330608Y-96614500D01*
X118330610Y-96614500D01*
X118462390Y-96614500D01*
X118462392Y-96614500D01*
X118589686Y-96580392D01*
X118703814Y-96514500D01*
X118797000Y-96421314D01*
X118862892Y-96307186D01*
X118897000Y-96179892D01*
X118897000Y-96108382D01*
X126523700Y-96108382D01*
X126523700Y-96220418D01*
X126552697Y-96328637D01*
X126608715Y-96425663D01*
X126687937Y-96504885D01*
X126784963Y-96560903D01*
X126893182Y-96589900D01*
X126893184Y-96589900D01*
X127005216Y-96589900D01*
X127005218Y-96589900D01*
X127113437Y-96560903D01*
X127210463Y-96504885D01*
X127289685Y-96425663D01*
X127345703Y-96328637D01*
X127374700Y-96220418D01*
X127374700Y-96108382D01*
X127345703Y-96000163D01*
X127289685Y-95903137D01*
X127210463Y-95823915D01*
X127113437Y-95767897D01*
X127005218Y-95738900D01*
X126893182Y-95738900D01*
X126784963Y-95767897D01*
X126784960Y-95767898D01*
X126687940Y-95823913D01*
X126687934Y-95823917D01*
X126608717Y-95903134D01*
X126608713Y-95903140D01*
X126552698Y-96000160D01*
X126552697Y-96000163D01*
X126523700Y-96108382D01*
X118897000Y-96108382D01*
X118897000Y-96048108D01*
X118878852Y-95980378D01*
X118877798Y-95972910D01*
X118881809Y-95945509D01*
X118882469Y-95917825D01*
X118886800Y-95911425D01*
X118887920Y-95903778D01*
X118906110Y-95882894D01*
X118921631Y-95859963D01*
X118928734Y-95856920D01*
X118933812Y-95851092D01*
X118960406Y-95843357D01*
X118985859Y-95832458D01*
X118995512Y-95833148D01*
X119000902Y-95831581D01*
X119009583Y-95834154D01*
X119032668Y-95835805D01*
X119093108Y-95852000D01*
X119093111Y-95852000D01*
X119224890Y-95852000D01*
X119224892Y-95852000D01*
X119352186Y-95817892D01*
X119466314Y-95752000D01*
X119559500Y-95658814D01*
X119625392Y-95544686D01*
X119659500Y-95417392D01*
X119659500Y-95285608D01*
X119625392Y-95158314D01*
X119559500Y-95044186D01*
X119466314Y-94951000D01*
X119409250Y-94918054D01*
X119352187Y-94885108D01*
X119279119Y-94865530D01*
X119224892Y-94851000D01*
X119093108Y-94851000D01*
X119032674Y-94867193D01*
X118962824Y-94865530D01*
X118904961Y-94826367D01*
X118877458Y-94762138D01*
X118880805Y-94715331D01*
X118897000Y-94654892D01*
X118897000Y-94523108D01*
X118880806Y-94462670D01*
X118882469Y-94392825D01*
X118921631Y-94334963D01*
X118985859Y-94307458D01*
X119032668Y-94310805D01*
X119093108Y-94327000D01*
X119093111Y-94327000D01*
X119224890Y-94327000D01*
X119224892Y-94327000D01*
X119352186Y-94292892D01*
X119466314Y-94227000D01*
X119559500Y-94133814D01*
X119625392Y-94019686D01*
X119659500Y-93892392D01*
X119659500Y-93760608D01*
X119625392Y-93633314D01*
X119559500Y-93519186D01*
X119466314Y-93426000D01*
X119396189Y-93385513D01*
X119352187Y-93360108D01*
X119279119Y-93340530D01*
X119224892Y-93326000D01*
X119093108Y-93326000D01*
X119032674Y-93342193D01*
X118962824Y-93340530D01*
X118904961Y-93301367D01*
X118877458Y-93237138D01*
X118880805Y-93190331D01*
X118897000Y-93129892D01*
X118897000Y-92998108D01*
X118862892Y-92870814D01*
X118797000Y-92756686D01*
X118703814Y-92663500D01*
X118612014Y-92610499D01*
X118589687Y-92597608D01*
X118526039Y-92580554D01*
X118462392Y-92563500D01*
X118330608Y-92563500D01*
X118203312Y-92597608D01*
X118089186Y-92663500D01*
X118089183Y-92663502D01*
X117996002Y-92756683D01*
X117996000Y-92756686D01*
X117930108Y-92870812D01*
X117896000Y-92998108D01*
X117896000Y-93129891D01*
X117912193Y-93190325D01*
X117910530Y-93260175D01*
X117871367Y-93318037D01*
X117807139Y-93345541D01*
X117760325Y-93342193D01*
X117699892Y-93326000D01*
X117568108Y-93326000D01*
X117507674Y-93342193D01*
X117437824Y-93340530D01*
X117379961Y-93301367D01*
X117352458Y-93237138D01*
X117355805Y-93190331D01*
X117372000Y-93129892D01*
X117372000Y-92998108D01*
X117337892Y-92870814D01*
X117272000Y-92756686D01*
X117178814Y-92663500D01*
X117087014Y-92610499D01*
X117064687Y-92597608D01*
X117001039Y-92580554D01*
X116937392Y-92563500D01*
X116805608Y-92563500D01*
X116678312Y-92597608D01*
X116564186Y-92663500D01*
X116564183Y-92663502D01*
X116471002Y-92756683D01*
X116471000Y-92756686D01*
X116405108Y-92870812D01*
X116371000Y-92998108D01*
X116371000Y-93129891D01*
X116387193Y-93190325D01*
X116385530Y-93260175D01*
X116346367Y-93318037D01*
X116282139Y-93345541D01*
X116235325Y-93342193D01*
X116174892Y-93326000D01*
X116043108Y-93326000D01*
X115915812Y-93360108D01*
X115801686Y-93426000D01*
X115801683Y-93426002D01*
X115708502Y-93519183D01*
X115708500Y-93519186D01*
X115642608Y-93633312D01*
X115608500Y-93760608D01*
X92881500Y-93760608D01*
X92881500Y-93669982D01*
X92852503Y-93561763D01*
X92796485Y-93464737D01*
X92717263Y-93385515D01*
X92620237Y-93329497D01*
X92512018Y-93300500D01*
X92399982Y-93300500D01*
X92291763Y-93329497D01*
X92291760Y-93329498D01*
X92194740Y-93385513D01*
X92194734Y-93385517D01*
X92115517Y-93464734D01*
X92115513Y-93464740D01*
X92059498Y-93561760D01*
X92059497Y-93561763D01*
X92030500Y-93669982D01*
X79777500Y-93669982D01*
X79777500Y-93126249D01*
X79777499Y-93126247D01*
X79765868Y-93067770D01*
X79765867Y-93067769D01*
X79721552Y-93001447D01*
X79655230Y-92957132D01*
X79655229Y-92957131D01*
X79596752Y-92945500D01*
X79596748Y-92945500D01*
X75597252Y-92945500D01*
X75597247Y-92945500D01*
X75538770Y-92957131D01*
X75538769Y-92957132D01*
X75472447Y-93001447D01*
X75428132Y-93067769D01*
X75428131Y-93067770D01*
X75416500Y-93126247D01*
X71068500Y-93126247D01*
X71068500Y-91764982D01*
X100412500Y-91764982D01*
X100412500Y-91877018D01*
X100441497Y-91985237D01*
X100497515Y-92082263D01*
X100576737Y-92161485D01*
X100673763Y-92217503D01*
X100781982Y-92246500D01*
X100781984Y-92246500D01*
X100894016Y-92246500D01*
X100894018Y-92246500D01*
X101002237Y-92217503D01*
X101099263Y-92161485D01*
X101131766Y-92128982D01*
X103079500Y-92128982D01*
X103079500Y-92241018D01*
X103108497Y-92349237D01*
X103164515Y-92446263D01*
X103243737Y-92525485D01*
X103340763Y-92581503D01*
X103448982Y-92610500D01*
X103448984Y-92610500D01*
X103561016Y-92610500D01*
X103561018Y-92610500D01*
X103669237Y-92581503D01*
X103766263Y-92525485D01*
X103845485Y-92446263D01*
X103901503Y-92349237D01*
X103930500Y-92241018D01*
X103930500Y-92128982D01*
X103901503Y-92020763D01*
X103871607Y-91968982D01*
X122510500Y-91968982D01*
X122510500Y-92081018D01*
X122539497Y-92189237D01*
X122595515Y-92286263D01*
X122674737Y-92365485D01*
X122771763Y-92421503D01*
X122879982Y-92450500D01*
X122879984Y-92450500D01*
X122992016Y-92450500D01*
X122992018Y-92450500D01*
X123100237Y-92421503D01*
X123197263Y-92365485D01*
X123276485Y-92286263D01*
X123332503Y-92189237D01*
X123361500Y-92081018D01*
X123361500Y-91968982D01*
X123332503Y-91860763D01*
X123321198Y-91841182D01*
X123678900Y-91841182D01*
X123678900Y-91953218D01*
X123707205Y-92058852D01*
X123707897Y-92061436D01*
X123707898Y-92061439D01*
X123719202Y-92081018D01*
X123763915Y-92158463D01*
X123843137Y-92237685D01*
X123940163Y-92293703D01*
X124048382Y-92322700D01*
X124048384Y-92322700D01*
X124160416Y-92322700D01*
X124160418Y-92322700D01*
X124268637Y-92293703D01*
X124365663Y-92237685D01*
X124444885Y-92158463D01*
X124500903Y-92061437D01*
X124529900Y-91953218D01*
X124529900Y-91841182D01*
X124500903Y-91732963D01*
X124444885Y-91635937D01*
X124365663Y-91556715D01*
X124268637Y-91500697D01*
X124160418Y-91471700D01*
X124048382Y-91471700D01*
X123940163Y-91500697D01*
X123940160Y-91500698D01*
X123843140Y-91556713D01*
X123843134Y-91556717D01*
X123763917Y-91635934D01*
X123763913Y-91635940D01*
X123707898Y-91732960D01*
X123707897Y-91732963D01*
X123678900Y-91841182D01*
X123321198Y-91841182D01*
X123276485Y-91763737D01*
X123197263Y-91684515D01*
X123113129Y-91635940D01*
X123100239Y-91628498D01*
X123100238Y-91628497D01*
X123100237Y-91628497D01*
X122992018Y-91599500D01*
X122879982Y-91599500D01*
X122771763Y-91628497D01*
X122771760Y-91628498D01*
X122674740Y-91684513D01*
X122674734Y-91684517D01*
X122595517Y-91763734D01*
X122595513Y-91763740D01*
X122539498Y-91860760D01*
X122539497Y-91860763D01*
X122510500Y-91968982D01*
X103871607Y-91968982D01*
X103845485Y-91923737D01*
X103766263Y-91844515D01*
X103669237Y-91788497D01*
X103561018Y-91759500D01*
X103448982Y-91759500D01*
X103340763Y-91788497D01*
X103340760Y-91788498D01*
X103243740Y-91844513D01*
X103243734Y-91844517D01*
X103164517Y-91923734D01*
X103164513Y-91923740D01*
X103108498Y-92020760D01*
X103108497Y-92020763D01*
X103079500Y-92128982D01*
X101131766Y-92128982D01*
X101178485Y-92082263D01*
X101234503Y-91985237D01*
X101263500Y-91877018D01*
X101263500Y-91764982D01*
X101234503Y-91656763D01*
X101178485Y-91559737D01*
X101099263Y-91480515D01*
X101002237Y-91424497D01*
X100894018Y-91395500D01*
X100781982Y-91395500D01*
X100673763Y-91424497D01*
X100673760Y-91424498D01*
X100576740Y-91480513D01*
X100576734Y-91480517D01*
X100497517Y-91559734D01*
X100497513Y-91559740D01*
X100441498Y-91656760D01*
X100441497Y-91656763D01*
X100412500Y-91764982D01*
X71068500Y-91764982D01*
X71068500Y-90113982D01*
X92792500Y-90113982D01*
X92792500Y-90226018D01*
X92821497Y-90334237D01*
X92877515Y-90431263D01*
X92956737Y-90510485D01*
X93053763Y-90566503D01*
X93161982Y-90595500D01*
X93161984Y-90595500D01*
X93274016Y-90595500D01*
X93274018Y-90595500D01*
X93382237Y-90566503D01*
X93479263Y-90510485D01*
X93558485Y-90431263D01*
X93614503Y-90334237D01*
X93643500Y-90226018D01*
X93643500Y-90113982D01*
X93614503Y-90005763D01*
X93558485Y-89908737D01*
X93479263Y-89829515D01*
X93382237Y-89773497D01*
X93274018Y-89744500D01*
X93161982Y-89744500D01*
X93053763Y-89773497D01*
X93053760Y-89773498D01*
X92956740Y-89829513D01*
X92956734Y-89829517D01*
X92877517Y-89908734D01*
X92877513Y-89908740D01*
X92821498Y-90005760D01*
X92821497Y-90005763D01*
X92792500Y-90113982D01*
X71068500Y-90113982D01*
X71068500Y-89478982D01*
X94697500Y-89478982D01*
X94697500Y-89591018D01*
X94726497Y-89699237D01*
X94782515Y-89796263D01*
X94861737Y-89875485D01*
X94958763Y-89931503D01*
X95066982Y-89960500D01*
X95066984Y-89960500D01*
X95179016Y-89960500D01*
X95179018Y-89960500D01*
X95287237Y-89931503D01*
X95384263Y-89875485D01*
X95463485Y-89796263D01*
X95519503Y-89699237D01*
X95548500Y-89591018D01*
X95548500Y-89478982D01*
X95519503Y-89370763D01*
X95463485Y-89273737D01*
X95384263Y-89194515D01*
X95287237Y-89138497D01*
X95179018Y-89109500D01*
X95066982Y-89109500D01*
X94958763Y-89138497D01*
X94958760Y-89138498D01*
X94861740Y-89194513D01*
X94861734Y-89194517D01*
X94782517Y-89273734D01*
X94782513Y-89273740D01*
X94726498Y-89370760D01*
X94726497Y-89370763D01*
X94697500Y-89478982D01*
X71068500Y-89478982D01*
X71068500Y-88996382D01*
X97618500Y-88996382D01*
X97618500Y-89108418D01*
X97647497Y-89216637D01*
X97703515Y-89313663D01*
X97782737Y-89392885D01*
X97879763Y-89448903D01*
X97987982Y-89477900D01*
X97987984Y-89477900D01*
X98100016Y-89477900D01*
X98100018Y-89477900D01*
X98208237Y-89448903D01*
X98305263Y-89392885D01*
X98384485Y-89313663D01*
X98440503Y-89216637D01*
X98469500Y-89108418D01*
X98469500Y-88996382D01*
X104222500Y-88996382D01*
X104222500Y-89108418D01*
X104251497Y-89216637D01*
X104307515Y-89313663D01*
X104386737Y-89392885D01*
X104483763Y-89448903D01*
X104591982Y-89477900D01*
X104591984Y-89477900D01*
X104704016Y-89477900D01*
X104704018Y-89477900D01*
X104812237Y-89448903D01*
X104909263Y-89392885D01*
X104988485Y-89313663D01*
X105044503Y-89216637D01*
X105073500Y-89108418D01*
X105073500Y-88996382D01*
X105044503Y-88888163D01*
X104988485Y-88791137D01*
X104909263Y-88711915D01*
X104812237Y-88655897D01*
X104704018Y-88626900D01*
X104591982Y-88626900D01*
X104483763Y-88655897D01*
X104483760Y-88655898D01*
X104386740Y-88711913D01*
X104386734Y-88711917D01*
X104307517Y-88791134D01*
X104307513Y-88791140D01*
X104251498Y-88888160D01*
X104251497Y-88888163D01*
X104222500Y-88996382D01*
X98469500Y-88996382D01*
X98440503Y-88888163D01*
X98384485Y-88791137D01*
X98305263Y-88711915D01*
X98208237Y-88655897D01*
X98100018Y-88626900D01*
X97987982Y-88626900D01*
X97879763Y-88655897D01*
X97879760Y-88655898D01*
X97782740Y-88711913D01*
X97782734Y-88711917D01*
X97703517Y-88791134D01*
X97703513Y-88791140D01*
X97647498Y-88888160D01*
X97647497Y-88888163D01*
X97618500Y-88996382D01*
X71068500Y-88996382D01*
X71068500Y-87446982D01*
X99777500Y-87446982D01*
X99777500Y-87559018D01*
X99806497Y-87667237D01*
X99862515Y-87764263D01*
X99941737Y-87843485D01*
X100038763Y-87899503D01*
X100146982Y-87928500D01*
X100146984Y-87928500D01*
X100259016Y-87928500D01*
X100259018Y-87928500D01*
X100367237Y-87899503D01*
X100464263Y-87843485D01*
X100543485Y-87764263D01*
X100599503Y-87667237D01*
X100628500Y-87559018D01*
X100628500Y-87446982D01*
X100599503Y-87338763D01*
X100543485Y-87241737D01*
X100494730Y-87192982D01*
X106889500Y-87192982D01*
X106889500Y-87305018D01*
X106918497Y-87413237D01*
X106974515Y-87510263D01*
X107053737Y-87589485D01*
X107150763Y-87645503D01*
X107258982Y-87674500D01*
X107258984Y-87674500D01*
X107371016Y-87674500D01*
X107371018Y-87674500D01*
X107479237Y-87645503D01*
X107576263Y-87589485D01*
X107655485Y-87510263D01*
X107711503Y-87413237D01*
X107740500Y-87305018D01*
X107740500Y-87192982D01*
X107711503Y-87084763D01*
X107700660Y-87065982D01*
X113417300Y-87065982D01*
X113417300Y-87178018D01*
X113446297Y-87286237D01*
X113502315Y-87383263D01*
X113581537Y-87462485D01*
X113678563Y-87518503D01*
X113786782Y-87547500D01*
X113786784Y-87547500D01*
X113898816Y-87547500D01*
X113898818Y-87547500D01*
X114007037Y-87518503D01*
X114104063Y-87462485D01*
X114183285Y-87383263D01*
X114239303Y-87286237D01*
X114264290Y-87192982D01*
X123653500Y-87192982D01*
X123653500Y-87305018D01*
X123682497Y-87413237D01*
X123738515Y-87510263D01*
X123817737Y-87589485D01*
X123914763Y-87645503D01*
X124022982Y-87674500D01*
X124022984Y-87674500D01*
X124135016Y-87674500D01*
X124135018Y-87674500D01*
X124243237Y-87645503D01*
X124340263Y-87589485D01*
X124419485Y-87510263D01*
X124475503Y-87413237D01*
X124504500Y-87305018D01*
X124504500Y-87192982D01*
X126320500Y-87192982D01*
X126320500Y-87305018D01*
X126349497Y-87413237D01*
X126405515Y-87510263D01*
X126484737Y-87589485D01*
X126581763Y-87645503D01*
X126689982Y-87674500D01*
X126689984Y-87674500D01*
X126802016Y-87674500D01*
X126802018Y-87674500D01*
X126910237Y-87645503D01*
X127007263Y-87589485D01*
X127086485Y-87510263D01*
X127142503Y-87413237D01*
X127171500Y-87305018D01*
X127171500Y-87192982D01*
X127142503Y-87084763D01*
X127086485Y-86987737D01*
X127007263Y-86908515D01*
X126910237Y-86852497D01*
X126802018Y-86823500D01*
X126689982Y-86823500D01*
X126581763Y-86852497D01*
X126581760Y-86852498D01*
X126484740Y-86908513D01*
X126484734Y-86908517D01*
X126405517Y-86987734D01*
X126405513Y-86987740D01*
X126349498Y-87084760D01*
X126349498Y-87084761D01*
X126349497Y-87084763D01*
X126320500Y-87192982D01*
X124504500Y-87192982D01*
X124475503Y-87084763D01*
X124419485Y-86987737D01*
X124340263Y-86908515D01*
X124243237Y-86852497D01*
X124135018Y-86823500D01*
X124022982Y-86823500D01*
X123914763Y-86852497D01*
X123914760Y-86852498D01*
X123817740Y-86908513D01*
X123817734Y-86908517D01*
X123738517Y-86987734D01*
X123738513Y-86987740D01*
X123682498Y-87084760D01*
X123682498Y-87084761D01*
X123682497Y-87084763D01*
X123653500Y-87192982D01*
X114264290Y-87192982D01*
X114268300Y-87178018D01*
X114268300Y-87065982D01*
X114239303Y-86957763D01*
X114183285Y-86860737D01*
X114104063Y-86781515D01*
X114007037Y-86725497D01*
X113898818Y-86696500D01*
X113786782Y-86696500D01*
X113678563Y-86725497D01*
X113678560Y-86725498D01*
X113581540Y-86781513D01*
X113581534Y-86781517D01*
X113502317Y-86860734D01*
X113502313Y-86860740D01*
X113446298Y-86957760D01*
X113446297Y-86957763D01*
X113417300Y-87065982D01*
X107700660Y-87065982D01*
X107655485Y-86987737D01*
X107576263Y-86908515D01*
X107479237Y-86852497D01*
X107371018Y-86823500D01*
X107258982Y-86823500D01*
X107150763Y-86852497D01*
X107150760Y-86852498D01*
X107053740Y-86908513D01*
X107053734Y-86908517D01*
X106974517Y-86987734D01*
X106974513Y-86987740D01*
X106918498Y-87084760D01*
X106918498Y-87084761D01*
X106918497Y-87084763D01*
X106889500Y-87192982D01*
X100494730Y-87192982D01*
X100464263Y-87162515D01*
X100367237Y-87106497D01*
X100259018Y-87077500D01*
X100146982Y-87077500D01*
X100038763Y-87106497D01*
X100038760Y-87106498D01*
X99941740Y-87162513D01*
X99941734Y-87162517D01*
X99862517Y-87241734D01*
X99862513Y-87241740D01*
X99806498Y-87338760D01*
X99806497Y-87338763D01*
X99777500Y-87446982D01*
X71068500Y-87446982D01*
X71068500Y-86051500D01*
X71088185Y-85984461D01*
X71140989Y-85938706D01*
X71192500Y-85927500D01*
X128578500Y-85927500D01*
X128645539Y-85947185D01*
G37*
G04 #@! TD.AperFunction*
M02*
