G04 #@! TF.GenerationSoftware,KiCad,Pcbnew,9.0.4*
G04 #@! TF.CreationDate,2025-10-03T12:39:18+02:00*
G04 #@! TF.ProjectId,Mini-EMS-ESP,4d696e69-2d45-44d5-932d-4553502e6b69,rev?*
G04 #@! TF.SameCoordinates,Original*
G04 #@! TF.FileFunction,Legend,Top*
G04 #@! TF.FilePolarity,Positive*
%FSLAX46Y46*%
G04 Gerber Fmt 4.6, Leading zero omitted, Abs format (unit mm)*
G04 Created by KiCad (PCBNEW 9.0.4) date 2025-10-03 12:39:18*
%MOMM*%
%LPD*%
G01*
G04 APERTURE LIST*
%ADD10C,0.150000*%
%ADD11C,0.300000*%
%ADD12C,0.120000*%
%ADD13C,0.100000*%
G04 APERTURE END LIST*
D10*
X71405979Y-103181209D02*
X71739312Y-103181209D01*
X71882169Y-103705019D02*
X71405979Y-103705019D01*
X71405979Y-103705019D02*
X71405979Y-102705019D01*
X71405979Y-102705019D02*
X71882169Y-102705019D01*
X72310741Y-103705019D02*
X72310741Y-102705019D01*
X72310741Y-102705019D02*
X72644074Y-103419304D01*
X72644074Y-103419304D02*
X72977407Y-102705019D01*
X72977407Y-102705019D02*
X72977407Y-103705019D01*
X73405979Y-103657400D02*
X73548836Y-103705019D01*
X73548836Y-103705019D02*
X73786931Y-103705019D01*
X73786931Y-103705019D02*
X73882169Y-103657400D01*
X73882169Y-103657400D02*
X73929788Y-103609780D01*
X73929788Y-103609780D02*
X73977407Y-103514542D01*
X73977407Y-103514542D02*
X73977407Y-103419304D01*
X73977407Y-103419304D02*
X73929788Y-103324066D01*
X73929788Y-103324066D02*
X73882169Y-103276447D01*
X73882169Y-103276447D02*
X73786931Y-103228828D01*
X73786931Y-103228828D02*
X73596455Y-103181209D01*
X73596455Y-103181209D02*
X73501217Y-103133590D01*
X73501217Y-103133590D02*
X73453598Y-103085971D01*
X73453598Y-103085971D02*
X73405979Y-102990733D01*
X73405979Y-102990733D02*
X73405979Y-102895495D01*
X73405979Y-102895495D02*
X73453598Y-102800257D01*
X73453598Y-102800257D02*
X73501217Y-102752638D01*
X73501217Y-102752638D02*
X73596455Y-102705019D01*
X73596455Y-102705019D02*
X73834550Y-102705019D01*
X73834550Y-102705019D02*
X73977407Y-102752638D01*
X71405979Y-113830219D02*
X71405979Y-114639742D01*
X71405979Y-114639742D02*
X71453598Y-114734980D01*
X71453598Y-114734980D02*
X71501217Y-114782600D01*
X71501217Y-114782600D02*
X71596455Y-114830219D01*
X71596455Y-114830219D02*
X71786931Y-114830219D01*
X71786931Y-114830219D02*
X71882169Y-114782600D01*
X71882169Y-114782600D02*
X71929788Y-114734980D01*
X71929788Y-114734980D02*
X71977407Y-114639742D01*
X71977407Y-114639742D02*
X71977407Y-113830219D01*
X72405979Y-114782600D02*
X72548836Y-114830219D01*
X72548836Y-114830219D02*
X72786931Y-114830219D01*
X72786931Y-114830219D02*
X72882169Y-114782600D01*
X72882169Y-114782600D02*
X72929788Y-114734980D01*
X72929788Y-114734980D02*
X72977407Y-114639742D01*
X72977407Y-114639742D02*
X72977407Y-114544504D01*
X72977407Y-114544504D02*
X72929788Y-114449266D01*
X72929788Y-114449266D02*
X72882169Y-114401647D01*
X72882169Y-114401647D02*
X72786931Y-114354028D01*
X72786931Y-114354028D02*
X72596455Y-114306409D01*
X72596455Y-114306409D02*
X72501217Y-114258790D01*
X72501217Y-114258790D02*
X72453598Y-114211171D01*
X72453598Y-114211171D02*
X72405979Y-114115933D01*
X72405979Y-114115933D02*
X72405979Y-114020695D01*
X72405979Y-114020695D02*
X72453598Y-113925457D01*
X72453598Y-113925457D02*
X72501217Y-113877838D01*
X72501217Y-113877838D02*
X72596455Y-113830219D01*
X72596455Y-113830219D02*
X72834550Y-113830219D01*
X72834550Y-113830219D02*
X72977407Y-113877838D01*
X73739312Y-114306409D02*
X73882169Y-114354028D01*
X73882169Y-114354028D02*
X73929788Y-114401647D01*
X73929788Y-114401647D02*
X73977407Y-114496885D01*
X73977407Y-114496885D02*
X73977407Y-114639742D01*
X73977407Y-114639742D02*
X73929788Y-114734980D01*
X73929788Y-114734980D02*
X73882169Y-114782600D01*
X73882169Y-114782600D02*
X73786931Y-114830219D01*
X73786931Y-114830219D02*
X73405979Y-114830219D01*
X73405979Y-114830219D02*
X73405979Y-113830219D01*
X73405979Y-113830219D02*
X73739312Y-113830219D01*
X73739312Y-113830219D02*
X73834550Y-113877838D01*
X73834550Y-113877838D02*
X73882169Y-113925457D01*
X73882169Y-113925457D02*
X73929788Y-114020695D01*
X73929788Y-114020695D02*
X73929788Y-114115933D01*
X73929788Y-114115933D02*
X73882169Y-114211171D01*
X73882169Y-114211171D02*
X73834550Y-114258790D01*
X73834550Y-114258790D02*
X73739312Y-114306409D01*
X73739312Y-114306409D02*
X73405979Y-114306409D01*
D11*
X72149158Y-88792038D02*
X72149158Y-86792038D01*
X72149158Y-86792038D02*
X72815825Y-88220609D01*
X72815825Y-88220609D02*
X73482491Y-86792038D01*
X73482491Y-86792038D02*
X73482491Y-88792038D01*
X74434872Y-88792038D02*
X74434872Y-87458704D01*
X74434872Y-86792038D02*
X74339634Y-86887276D01*
X74339634Y-86887276D02*
X74434872Y-86982514D01*
X74434872Y-86982514D02*
X74530110Y-86887276D01*
X74530110Y-86887276D02*
X74434872Y-86792038D01*
X74434872Y-86792038D02*
X74434872Y-86982514D01*
X75387253Y-87458704D02*
X75387253Y-88792038D01*
X75387253Y-87649180D02*
X75482491Y-87553942D01*
X75482491Y-87553942D02*
X75672967Y-87458704D01*
X75672967Y-87458704D02*
X75958682Y-87458704D01*
X75958682Y-87458704D02*
X76149158Y-87553942D01*
X76149158Y-87553942D02*
X76244396Y-87744419D01*
X76244396Y-87744419D02*
X76244396Y-88792038D01*
X77196777Y-88792038D02*
X77196777Y-87458704D01*
X77196777Y-86792038D02*
X77101539Y-86887276D01*
X77101539Y-86887276D02*
X77196777Y-86982514D01*
X77196777Y-86982514D02*
X77292015Y-86887276D01*
X77292015Y-86887276D02*
X77196777Y-86792038D01*
X77196777Y-86792038D02*
X77196777Y-86982514D01*
X78149158Y-87744419D02*
X78815825Y-87744419D01*
X79101539Y-88792038D02*
X78149158Y-88792038D01*
X78149158Y-88792038D02*
X78149158Y-86792038D01*
X78149158Y-86792038D02*
X79101539Y-86792038D01*
X79958682Y-87744419D02*
X80625349Y-87744419D01*
X80911063Y-88792038D02*
X79958682Y-88792038D01*
X79958682Y-88792038D02*
X79958682Y-86792038D01*
X79958682Y-86792038D02*
X80911063Y-86792038D01*
D10*
X101142969Y-93545019D02*
X100666779Y-93545019D01*
X100666779Y-93545019D02*
X100666779Y-92545019D01*
X101476303Y-93545019D02*
X101476303Y-92545019D01*
X101476303Y-92545019D02*
X101809636Y-93259304D01*
X101809636Y-93259304D02*
X102142969Y-92545019D01*
X102142969Y-92545019D02*
X102142969Y-93545019D01*
X102523922Y-92545019D02*
X103142969Y-92545019D01*
X103142969Y-92545019D02*
X102809636Y-92925971D01*
X102809636Y-92925971D02*
X102952493Y-92925971D01*
X102952493Y-92925971D02*
X103047731Y-92973590D01*
X103047731Y-92973590D02*
X103095350Y-93021209D01*
X103095350Y-93021209D02*
X103142969Y-93116447D01*
X103142969Y-93116447D02*
X103142969Y-93354542D01*
X103142969Y-93354542D02*
X103095350Y-93449780D01*
X103095350Y-93449780D02*
X103047731Y-93497400D01*
X103047731Y-93497400D02*
X102952493Y-93545019D01*
X102952493Y-93545019D02*
X102666779Y-93545019D01*
X102666779Y-93545019D02*
X102571541Y-93497400D01*
X102571541Y-93497400D02*
X102523922Y-93449780D01*
X103619160Y-93545019D02*
X103809636Y-93545019D01*
X103809636Y-93545019D02*
X103904874Y-93497400D01*
X103904874Y-93497400D02*
X103952493Y-93449780D01*
X103952493Y-93449780D02*
X104047731Y-93306923D01*
X104047731Y-93306923D02*
X104095350Y-93116447D01*
X104095350Y-93116447D02*
X104095350Y-92735495D01*
X104095350Y-92735495D02*
X104047731Y-92640257D01*
X104047731Y-92640257D02*
X104000112Y-92592638D01*
X104000112Y-92592638D02*
X103904874Y-92545019D01*
X103904874Y-92545019D02*
X103714398Y-92545019D01*
X103714398Y-92545019D02*
X103619160Y-92592638D01*
X103619160Y-92592638D02*
X103571541Y-92640257D01*
X103571541Y-92640257D02*
X103523922Y-92735495D01*
X103523922Y-92735495D02*
X103523922Y-92973590D01*
X103523922Y-92973590D02*
X103571541Y-93068828D01*
X103571541Y-93068828D02*
X103619160Y-93116447D01*
X103619160Y-93116447D02*
X103714398Y-93164066D01*
X103714398Y-93164066D02*
X103904874Y-93164066D01*
X103904874Y-93164066D02*
X104000112Y-93116447D01*
X104000112Y-93116447D02*
X104047731Y-93068828D01*
X104047731Y-93068828D02*
X104095350Y-92973590D01*
X104428684Y-92545019D02*
X105047731Y-92545019D01*
X105047731Y-92545019D02*
X104714398Y-92925971D01*
X104714398Y-92925971D02*
X104857255Y-92925971D01*
X104857255Y-92925971D02*
X104952493Y-92973590D01*
X104952493Y-92973590D02*
X105000112Y-93021209D01*
X105000112Y-93021209D02*
X105047731Y-93116447D01*
X105047731Y-93116447D02*
X105047731Y-93354542D01*
X105047731Y-93354542D02*
X105000112Y-93449780D01*
X105000112Y-93449780D02*
X104952493Y-93497400D01*
X104952493Y-93497400D02*
X104857255Y-93545019D01*
X104857255Y-93545019D02*
X104571541Y-93545019D01*
X104571541Y-93545019D02*
X104476303Y-93497400D01*
X104476303Y-93497400D02*
X104428684Y-93449780D01*
D12*
X72466489Y-90529174D02*
X72216489Y-90172031D01*
X72037918Y-90529174D02*
X72037918Y-89779174D01*
X72037918Y-89779174D02*
X72323632Y-89779174D01*
X72323632Y-89779174D02*
X72395061Y-89814888D01*
X72395061Y-89814888D02*
X72430775Y-89850602D01*
X72430775Y-89850602D02*
X72466489Y-89922031D01*
X72466489Y-89922031D02*
X72466489Y-90029174D01*
X72466489Y-90029174D02*
X72430775Y-90100602D01*
X72430775Y-90100602D02*
X72395061Y-90136317D01*
X72395061Y-90136317D02*
X72323632Y-90172031D01*
X72323632Y-90172031D02*
X72037918Y-90172031D01*
X73073632Y-90493460D02*
X73002204Y-90529174D01*
X73002204Y-90529174D02*
X72859347Y-90529174D01*
X72859347Y-90529174D02*
X72787918Y-90493460D01*
X72787918Y-90493460D02*
X72752204Y-90422031D01*
X72752204Y-90422031D02*
X72752204Y-90136317D01*
X72752204Y-90136317D02*
X72787918Y-90064888D01*
X72787918Y-90064888D02*
X72859347Y-90029174D01*
X72859347Y-90029174D02*
X73002204Y-90029174D01*
X73002204Y-90029174D02*
X73073632Y-90064888D01*
X73073632Y-90064888D02*
X73109347Y-90136317D01*
X73109347Y-90136317D02*
X73109347Y-90207745D01*
X73109347Y-90207745D02*
X72752204Y-90279174D01*
X73359346Y-90029174D02*
X73537918Y-90529174D01*
X73537918Y-90529174D02*
X73716489Y-90029174D01*
X74716490Y-89779174D02*
X74787919Y-89779174D01*
X74787919Y-89779174D02*
X74859347Y-89814888D01*
X74859347Y-89814888D02*
X74895062Y-89850602D01*
X74895062Y-89850602D02*
X74930776Y-89922031D01*
X74930776Y-89922031D02*
X74966490Y-90064888D01*
X74966490Y-90064888D02*
X74966490Y-90243460D01*
X74966490Y-90243460D02*
X74930776Y-90386317D01*
X74930776Y-90386317D02*
X74895062Y-90457745D01*
X74895062Y-90457745D02*
X74859347Y-90493460D01*
X74859347Y-90493460D02*
X74787919Y-90529174D01*
X74787919Y-90529174D02*
X74716490Y-90529174D01*
X74716490Y-90529174D02*
X74645062Y-90493460D01*
X74645062Y-90493460D02*
X74609347Y-90457745D01*
X74609347Y-90457745D02*
X74573633Y-90386317D01*
X74573633Y-90386317D02*
X74537919Y-90243460D01*
X74537919Y-90243460D02*
X74537919Y-90064888D01*
X74537919Y-90064888D02*
X74573633Y-89922031D01*
X74573633Y-89922031D02*
X74609347Y-89850602D01*
X74609347Y-89850602D02*
X74645062Y-89814888D01*
X74645062Y-89814888D02*
X74716490Y-89779174D01*
X75287919Y-90457745D02*
X75323633Y-90493460D01*
X75323633Y-90493460D02*
X75287919Y-90529174D01*
X75287919Y-90529174D02*
X75252205Y-90493460D01*
X75252205Y-90493460D02*
X75287919Y-90457745D01*
X75287919Y-90457745D02*
X75287919Y-90529174D01*
X76037919Y-90529174D02*
X75609348Y-90529174D01*
X75823633Y-90529174D02*
X75823633Y-89779174D01*
X75823633Y-89779174D02*
X75752205Y-89886317D01*
X75752205Y-89886317D02*
X75680776Y-89957745D01*
X75680776Y-89957745D02*
X75609348Y-89993460D01*
X76895063Y-89850602D02*
X76930777Y-89814888D01*
X76930777Y-89814888D02*
X77002206Y-89779174D01*
X77002206Y-89779174D02*
X77180777Y-89779174D01*
X77180777Y-89779174D02*
X77252206Y-89814888D01*
X77252206Y-89814888D02*
X77287920Y-89850602D01*
X77287920Y-89850602D02*
X77323634Y-89922031D01*
X77323634Y-89922031D02*
X77323634Y-89993460D01*
X77323634Y-89993460D02*
X77287920Y-90100602D01*
X77287920Y-90100602D02*
X76859348Y-90529174D01*
X76859348Y-90529174D02*
X77323634Y-90529174D01*
X77787920Y-89779174D02*
X77859349Y-89779174D01*
X77859349Y-89779174D02*
X77930777Y-89814888D01*
X77930777Y-89814888D02*
X77966492Y-89850602D01*
X77966492Y-89850602D02*
X78002206Y-89922031D01*
X78002206Y-89922031D02*
X78037920Y-90064888D01*
X78037920Y-90064888D02*
X78037920Y-90243460D01*
X78037920Y-90243460D02*
X78002206Y-90386317D01*
X78002206Y-90386317D02*
X77966492Y-90457745D01*
X77966492Y-90457745D02*
X77930777Y-90493460D01*
X77930777Y-90493460D02*
X77859349Y-90529174D01*
X77859349Y-90529174D02*
X77787920Y-90529174D01*
X77787920Y-90529174D02*
X77716492Y-90493460D01*
X77716492Y-90493460D02*
X77680777Y-90457745D01*
X77680777Y-90457745D02*
X77645063Y-90386317D01*
X77645063Y-90386317D02*
X77609349Y-90243460D01*
X77609349Y-90243460D02*
X77609349Y-90064888D01*
X77609349Y-90064888D02*
X77645063Y-89922031D01*
X77645063Y-89922031D02*
X77680777Y-89850602D01*
X77680777Y-89850602D02*
X77716492Y-89814888D01*
X77716492Y-89814888D02*
X77787920Y-89779174D01*
X78323635Y-89850602D02*
X78359349Y-89814888D01*
X78359349Y-89814888D02*
X78430778Y-89779174D01*
X78430778Y-89779174D02*
X78609349Y-89779174D01*
X78609349Y-89779174D02*
X78680778Y-89814888D01*
X78680778Y-89814888D02*
X78716492Y-89850602D01*
X78716492Y-89850602D02*
X78752206Y-89922031D01*
X78752206Y-89922031D02*
X78752206Y-89993460D01*
X78752206Y-89993460D02*
X78716492Y-90100602D01*
X78716492Y-90100602D02*
X78287920Y-90529174D01*
X78287920Y-90529174D02*
X78752206Y-90529174D01*
X79430778Y-89779174D02*
X79073635Y-89779174D01*
X79073635Y-89779174D02*
X79037921Y-90136317D01*
X79037921Y-90136317D02*
X79073635Y-90100602D01*
X79073635Y-90100602D02*
X79145064Y-90064888D01*
X79145064Y-90064888D02*
X79323635Y-90064888D01*
X79323635Y-90064888D02*
X79395064Y-90100602D01*
X79395064Y-90100602D02*
X79430778Y-90136317D01*
X79430778Y-90136317D02*
X79466492Y-90207745D01*
X79466492Y-90207745D02*
X79466492Y-90386317D01*
X79466492Y-90386317D02*
X79430778Y-90457745D01*
X79430778Y-90457745D02*
X79395064Y-90493460D01*
X79395064Y-90493460D02*
X79323635Y-90529174D01*
X79323635Y-90529174D02*
X79145064Y-90529174D01*
X79145064Y-90529174D02*
X79073635Y-90493460D01*
X79073635Y-90493460D02*
X79037921Y-90457745D01*
D10*
X74568207Y-120475380D02*
X74520588Y-120523000D01*
X74520588Y-120523000D02*
X74377731Y-120570619D01*
X74377731Y-120570619D02*
X74282493Y-120570619D01*
X74282493Y-120570619D02*
X74139636Y-120523000D01*
X74139636Y-120523000D02*
X74044398Y-120427761D01*
X74044398Y-120427761D02*
X73996779Y-120332523D01*
X73996779Y-120332523D02*
X73949160Y-120142047D01*
X73949160Y-120142047D02*
X73949160Y-119999190D01*
X73949160Y-119999190D02*
X73996779Y-119808714D01*
X73996779Y-119808714D02*
X74044398Y-119713476D01*
X74044398Y-119713476D02*
X74139636Y-119618238D01*
X74139636Y-119618238D02*
X74282493Y-119570619D01*
X74282493Y-119570619D02*
X74377731Y-119570619D01*
X74377731Y-119570619D02*
X74520588Y-119618238D01*
X74520588Y-119618238D02*
X74568207Y-119665857D01*
X74996779Y-120570619D02*
X74996779Y-119570619D01*
X74996779Y-120046809D02*
X75568207Y-120046809D01*
X75568207Y-120570619D02*
X75568207Y-119570619D01*
X75949160Y-119570619D02*
X76568207Y-119570619D01*
X76568207Y-119570619D02*
X76234874Y-119951571D01*
X76234874Y-119951571D02*
X76377731Y-119951571D01*
X76377731Y-119951571D02*
X76472969Y-119999190D01*
X76472969Y-119999190D02*
X76520588Y-120046809D01*
X76520588Y-120046809D02*
X76568207Y-120142047D01*
X76568207Y-120142047D02*
X76568207Y-120380142D01*
X76568207Y-120380142D02*
X76520588Y-120475380D01*
X76520588Y-120475380D02*
X76472969Y-120523000D01*
X76472969Y-120523000D02*
X76377731Y-120570619D01*
X76377731Y-120570619D02*
X76092017Y-120570619D01*
X76092017Y-120570619D02*
X75996779Y-120523000D01*
X75996779Y-120523000D02*
X75949160Y-120475380D01*
X77425350Y-119903952D02*
X77425350Y-120570619D01*
X77187255Y-119523000D02*
X76949160Y-120237285D01*
X76949160Y-120237285D02*
X77568207Y-120237285D01*
X78139636Y-119570619D02*
X78234874Y-119570619D01*
X78234874Y-119570619D02*
X78330112Y-119618238D01*
X78330112Y-119618238D02*
X78377731Y-119665857D01*
X78377731Y-119665857D02*
X78425350Y-119761095D01*
X78425350Y-119761095D02*
X78472969Y-119951571D01*
X78472969Y-119951571D02*
X78472969Y-120189666D01*
X78472969Y-120189666D02*
X78425350Y-120380142D01*
X78425350Y-120380142D02*
X78377731Y-120475380D01*
X78377731Y-120475380D02*
X78330112Y-120523000D01*
X78330112Y-120523000D02*
X78234874Y-120570619D01*
X78234874Y-120570619D02*
X78139636Y-120570619D01*
X78139636Y-120570619D02*
X78044398Y-120523000D01*
X78044398Y-120523000D02*
X77996779Y-120475380D01*
X77996779Y-120475380D02*
X77949160Y-120380142D01*
X77949160Y-120380142D02*
X77901541Y-120189666D01*
X77901541Y-120189666D02*
X77901541Y-119951571D01*
X77901541Y-119951571D02*
X77949160Y-119761095D01*
X77949160Y-119761095D02*
X77996779Y-119665857D01*
X77996779Y-119665857D02*
X78044398Y-119618238D01*
X78044398Y-119618238D02*
X78139636Y-119570619D01*
X79472969Y-120475380D02*
X79425350Y-120523000D01*
X79425350Y-120523000D02*
X79282493Y-120570619D01*
X79282493Y-120570619D02*
X79187255Y-120570619D01*
X79187255Y-120570619D02*
X79044398Y-120523000D01*
X79044398Y-120523000D02*
X78949160Y-120427761D01*
X78949160Y-120427761D02*
X78901541Y-120332523D01*
X78901541Y-120332523D02*
X78853922Y-120142047D01*
X78853922Y-120142047D02*
X78853922Y-119999190D01*
X78853922Y-119999190D02*
X78901541Y-119808714D01*
X78901541Y-119808714D02*
X78949160Y-119713476D01*
X78949160Y-119713476D02*
X79044398Y-119618238D01*
X79044398Y-119618238D02*
X79187255Y-119570619D01*
X79187255Y-119570619D02*
X79282493Y-119570619D01*
X79282493Y-119570619D02*
X79425350Y-119618238D01*
X79425350Y-119618238D02*
X79472969Y-119665857D01*
D12*
X109686724Y-92327000D02*
X109329581Y-92577000D01*
X109686724Y-92755571D02*
X108936724Y-92755571D01*
X108936724Y-92755571D02*
X108936724Y-92469857D01*
X108936724Y-92469857D02*
X108972438Y-92398428D01*
X108972438Y-92398428D02*
X109008152Y-92362714D01*
X109008152Y-92362714D02*
X109079581Y-92327000D01*
X109079581Y-92327000D02*
X109186724Y-92327000D01*
X109186724Y-92327000D02*
X109258152Y-92362714D01*
X109258152Y-92362714D02*
X109293867Y-92398428D01*
X109293867Y-92398428D02*
X109329581Y-92469857D01*
X109329581Y-92469857D02*
X109329581Y-92755571D01*
X108936724Y-92077000D02*
X108936724Y-91612714D01*
X108936724Y-91612714D02*
X109222438Y-91862714D01*
X109222438Y-91862714D02*
X109222438Y-91755571D01*
X109222438Y-91755571D02*
X109258152Y-91684143D01*
X109258152Y-91684143D02*
X109293867Y-91648428D01*
X109293867Y-91648428D02*
X109365295Y-91612714D01*
X109365295Y-91612714D02*
X109543867Y-91612714D01*
X109543867Y-91612714D02*
X109615295Y-91648428D01*
X109615295Y-91648428D02*
X109651010Y-91684143D01*
X109651010Y-91684143D02*
X109686724Y-91755571D01*
X109686724Y-91755571D02*
X109686724Y-91969857D01*
X109686724Y-91969857D02*
X109651010Y-92041285D01*
X109651010Y-92041285D02*
X109615295Y-92077000D01*
X94543571Y-115842152D02*
X94472142Y-115806438D01*
X94472142Y-115806438D02*
X94400714Y-115735010D01*
X94400714Y-115735010D02*
X94293571Y-115627867D01*
X94293571Y-115627867D02*
X94222142Y-115592152D01*
X94222142Y-115592152D02*
X94150714Y-115592152D01*
X94186428Y-115770724D02*
X94115000Y-115735010D01*
X94115000Y-115735010D02*
X94043571Y-115663581D01*
X94043571Y-115663581D02*
X94007857Y-115520724D01*
X94007857Y-115520724D02*
X94007857Y-115270724D01*
X94007857Y-115270724D02*
X94043571Y-115127867D01*
X94043571Y-115127867D02*
X94115000Y-115056438D01*
X94115000Y-115056438D02*
X94186428Y-115020724D01*
X94186428Y-115020724D02*
X94329285Y-115020724D01*
X94329285Y-115020724D02*
X94400714Y-115056438D01*
X94400714Y-115056438D02*
X94472142Y-115127867D01*
X94472142Y-115127867D02*
X94507857Y-115270724D01*
X94507857Y-115270724D02*
X94507857Y-115520724D01*
X94507857Y-115520724D02*
X94472142Y-115663581D01*
X94472142Y-115663581D02*
X94400714Y-115735010D01*
X94400714Y-115735010D02*
X94329285Y-115770724D01*
X94329285Y-115770724D02*
X94186428Y-115770724D01*
X95222142Y-115770724D02*
X94793571Y-115770724D01*
X95007856Y-115770724D02*
X95007856Y-115020724D01*
X95007856Y-115020724D02*
X94936428Y-115127867D01*
X94936428Y-115127867D02*
X94864999Y-115199295D01*
X94864999Y-115199295D02*
X94793571Y-115235010D01*
X123445999Y-111521295D02*
X123410285Y-111557010D01*
X123410285Y-111557010D02*
X123303142Y-111592724D01*
X123303142Y-111592724D02*
X123231714Y-111592724D01*
X123231714Y-111592724D02*
X123124571Y-111557010D01*
X123124571Y-111557010D02*
X123053142Y-111485581D01*
X123053142Y-111485581D02*
X123017428Y-111414152D01*
X123017428Y-111414152D02*
X122981714Y-111271295D01*
X122981714Y-111271295D02*
X122981714Y-111164152D01*
X122981714Y-111164152D02*
X123017428Y-111021295D01*
X123017428Y-111021295D02*
X123053142Y-110949867D01*
X123053142Y-110949867D02*
X123124571Y-110878438D01*
X123124571Y-110878438D02*
X123231714Y-110842724D01*
X123231714Y-110842724D02*
X123303142Y-110842724D01*
X123303142Y-110842724D02*
X123410285Y-110878438D01*
X123410285Y-110878438D02*
X123445999Y-110914152D01*
X123803142Y-111592724D02*
X123945999Y-111592724D01*
X123945999Y-111592724D02*
X124017428Y-111557010D01*
X124017428Y-111557010D02*
X124053142Y-111521295D01*
X124053142Y-111521295D02*
X124124571Y-111414152D01*
X124124571Y-111414152D02*
X124160285Y-111271295D01*
X124160285Y-111271295D02*
X124160285Y-110985581D01*
X124160285Y-110985581D02*
X124124571Y-110914152D01*
X124124571Y-110914152D02*
X124088857Y-110878438D01*
X124088857Y-110878438D02*
X124017428Y-110842724D01*
X124017428Y-110842724D02*
X123874571Y-110842724D01*
X123874571Y-110842724D02*
X123803142Y-110878438D01*
X123803142Y-110878438D02*
X123767428Y-110914152D01*
X123767428Y-110914152D02*
X123731714Y-110985581D01*
X123731714Y-110985581D02*
X123731714Y-111164152D01*
X123731714Y-111164152D02*
X123767428Y-111235581D01*
X123767428Y-111235581D02*
X123803142Y-111271295D01*
X123803142Y-111271295D02*
X123874571Y-111307010D01*
X123874571Y-111307010D02*
X124017428Y-111307010D01*
X124017428Y-111307010D02*
X124088857Y-111271295D01*
X124088857Y-111271295D02*
X124124571Y-111235581D01*
X124124571Y-111235581D02*
X124160285Y-111164152D01*
X108375295Y-99566000D02*
X108411010Y-99601714D01*
X108411010Y-99601714D02*
X108446724Y-99708857D01*
X108446724Y-99708857D02*
X108446724Y-99780285D01*
X108446724Y-99780285D02*
X108411010Y-99887428D01*
X108411010Y-99887428D02*
X108339581Y-99958857D01*
X108339581Y-99958857D02*
X108268152Y-99994571D01*
X108268152Y-99994571D02*
X108125295Y-100030285D01*
X108125295Y-100030285D02*
X108018152Y-100030285D01*
X108018152Y-100030285D02*
X107875295Y-99994571D01*
X107875295Y-99994571D02*
X107803867Y-99958857D01*
X107803867Y-99958857D02*
X107732438Y-99887428D01*
X107732438Y-99887428D02*
X107696724Y-99780285D01*
X107696724Y-99780285D02*
X107696724Y-99708857D01*
X107696724Y-99708857D02*
X107732438Y-99601714D01*
X107732438Y-99601714D02*
X107768152Y-99566000D01*
X107696724Y-99316000D02*
X107696724Y-98851714D01*
X107696724Y-98851714D02*
X107982438Y-99101714D01*
X107982438Y-99101714D02*
X107982438Y-98994571D01*
X107982438Y-98994571D02*
X108018152Y-98923143D01*
X108018152Y-98923143D02*
X108053867Y-98887428D01*
X108053867Y-98887428D02*
X108125295Y-98851714D01*
X108125295Y-98851714D02*
X108303867Y-98851714D01*
X108303867Y-98851714D02*
X108375295Y-98887428D01*
X108375295Y-98887428D02*
X108411010Y-98923143D01*
X108411010Y-98923143D02*
X108446724Y-98994571D01*
X108446724Y-98994571D02*
X108446724Y-99208857D01*
X108446724Y-99208857D02*
X108411010Y-99280285D01*
X108411010Y-99280285D02*
X108375295Y-99316000D01*
X122091295Y-104749143D02*
X122127010Y-104784857D01*
X122127010Y-104784857D02*
X122162724Y-104892000D01*
X122162724Y-104892000D02*
X122162724Y-104963428D01*
X122162724Y-104963428D02*
X122127010Y-105070571D01*
X122127010Y-105070571D02*
X122055581Y-105142000D01*
X122055581Y-105142000D02*
X121984152Y-105177714D01*
X121984152Y-105177714D02*
X121841295Y-105213428D01*
X121841295Y-105213428D02*
X121734152Y-105213428D01*
X121734152Y-105213428D02*
X121591295Y-105177714D01*
X121591295Y-105177714D02*
X121519867Y-105142000D01*
X121519867Y-105142000D02*
X121448438Y-105070571D01*
X121448438Y-105070571D02*
X121412724Y-104963428D01*
X121412724Y-104963428D02*
X121412724Y-104892000D01*
X121412724Y-104892000D02*
X121448438Y-104784857D01*
X121448438Y-104784857D02*
X121484152Y-104749143D01*
X122162724Y-104034857D02*
X122162724Y-104463428D01*
X122162724Y-104249143D02*
X121412724Y-104249143D01*
X121412724Y-104249143D02*
X121519867Y-104320571D01*
X121519867Y-104320571D02*
X121591295Y-104392000D01*
X121591295Y-104392000D02*
X121627010Y-104463428D01*
X121484152Y-103749142D02*
X121448438Y-103713428D01*
X121448438Y-103713428D02*
X121412724Y-103642000D01*
X121412724Y-103642000D02*
X121412724Y-103463428D01*
X121412724Y-103463428D02*
X121448438Y-103392000D01*
X121448438Y-103392000D02*
X121484152Y-103356285D01*
X121484152Y-103356285D02*
X121555581Y-103320571D01*
X121555581Y-103320571D02*
X121627010Y-103320571D01*
X121627010Y-103320571D02*
X121734152Y-103356285D01*
X121734152Y-103356285D02*
X122162724Y-103784857D01*
X122162724Y-103784857D02*
X122162724Y-103320571D01*
X88224724Y-101899571D02*
X87474724Y-101899571D01*
X87474724Y-101899571D02*
X87474724Y-101721000D01*
X87474724Y-101721000D02*
X87510438Y-101613857D01*
X87510438Y-101613857D02*
X87581867Y-101542428D01*
X87581867Y-101542428D02*
X87653295Y-101506714D01*
X87653295Y-101506714D02*
X87796152Y-101471000D01*
X87796152Y-101471000D02*
X87903295Y-101471000D01*
X87903295Y-101471000D02*
X88046152Y-101506714D01*
X88046152Y-101506714D02*
X88117581Y-101542428D01*
X88117581Y-101542428D02*
X88189010Y-101613857D01*
X88189010Y-101613857D02*
X88224724Y-101721000D01*
X88224724Y-101721000D02*
X88224724Y-101899571D01*
X87724724Y-100828143D02*
X88224724Y-100828143D01*
X87439010Y-101006714D02*
X87974724Y-101185285D01*
X87974724Y-101185285D02*
X87974724Y-100721000D01*
X123469856Y-116474295D02*
X123434142Y-116510010D01*
X123434142Y-116510010D02*
X123326999Y-116545724D01*
X123326999Y-116545724D02*
X123255571Y-116545724D01*
X123255571Y-116545724D02*
X123148428Y-116510010D01*
X123148428Y-116510010D02*
X123076999Y-116438581D01*
X123076999Y-116438581D02*
X123041285Y-116367152D01*
X123041285Y-116367152D02*
X123005571Y-116224295D01*
X123005571Y-116224295D02*
X123005571Y-116117152D01*
X123005571Y-116117152D02*
X123041285Y-115974295D01*
X123041285Y-115974295D02*
X123076999Y-115902867D01*
X123076999Y-115902867D02*
X123148428Y-115831438D01*
X123148428Y-115831438D02*
X123255571Y-115795724D01*
X123255571Y-115795724D02*
X123326999Y-115795724D01*
X123326999Y-115795724D02*
X123434142Y-115831438D01*
X123434142Y-115831438D02*
X123469856Y-115867152D01*
X124184142Y-116545724D02*
X123755571Y-116545724D01*
X123969856Y-116545724D02*
X123969856Y-115795724D01*
X123969856Y-115795724D02*
X123898428Y-115902867D01*
X123898428Y-115902867D02*
X123826999Y-115974295D01*
X123826999Y-115974295D02*
X123755571Y-116010010D01*
X124827000Y-116045724D02*
X124827000Y-116545724D01*
X124648428Y-115760010D02*
X124469857Y-116295724D01*
X124469857Y-116295724D02*
X124934142Y-116295724D01*
X83029724Y-90673999D02*
X83565438Y-90673999D01*
X83565438Y-90673999D02*
X83672581Y-90709714D01*
X83672581Y-90709714D02*
X83744010Y-90781142D01*
X83744010Y-90781142D02*
X83779724Y-90888285D01*
X83779724Y-90888285D02*
X83779724Y-90959714D01*
X83351152Y-90209713D02*
X83315438Y-90281142D01*
X83315438Y-90281142D02*
X83279724Y-90316856D01*
X83279724Y-90316856D02*
X83208295Y-90352570D01*
X83208295Y-90352570D02*
X83172581Y-90352570D01*
X83172581Y-90352570D02*
X83101152Y-90316856D01*
X83101152Y-90316856D02*
X83065438Y-90281142D01*
X83065438Y-90281142D02*
X83029724Y-90209713D01*
X83029724Y-90209713D02*
X83029724Y-90066856D01*
X83029724Y-90066856D02*
X83065438Y-89995428D01*
X83065438Y-89995428D02*
X83101152Y-89959713D01*
X83101152Y-89959713D02*
X83172581Y-89923999D01*
X83172581Y-89923999D02*
X83208295Y-89923999D01*
X83208295Y-89923999D02*
X83279724Y-89959713D01*
X83279724Y-89959713D02*
X83315438Y-89995428D01*
X83315438Y-89995428D02*
X83351152Y-90066856D01*
X83351152Y-90066856D02*
X83351152Y-90209713D01*
X83351152Y-90209713D02*
X83386867Y-90281142D01*
X83386867Y-90281142D02*
X83422581Y-90316856D01*
X83422581Y-90316856D02*
X83494010Y-90352570D01*
X83494010Y-90352570D02*
X83636867Y-90352570D01*
X83636867Y-90352570D02*
X83708295Y-90316856D01*
X83708295Y-90316856D02*
X83744010Y-90281142D01*
X83744010Y-90281142D02*
X83779724Y-90209713D01*
X83779724Y-90209713D02*
X83779724Y-90066856D01*
X83779724Y-90066856D02*
X83744010Y-89995428D01*
X83744010Y-89995428D02*
X83708295Y-89959713D01*
X83708295Y-89959713D02*
X83636867Y-89923999D01*
X83636867Y-89923999D02*
X83494010Y-89923999D01*
X83494010Y-89923999D02*
X83422581Y-89959713D01*
X83422581Y-89959713D02*
X83386867Y-89995428D01*
X83386867Y-89995428D02*
X83351152Y-90066856D01*
X85776256Y-110454495D02*
X85740542Y-110490210D01*
X85740542Y-110490210D02*
X85633399Y-110525924D01*
X85633399Y-110525924D02*
X85561971Y-110525924D01*
X85561971Y-110525924D02*
X85454828Y-110490210D01*
X85454828Y-110490210D02*
X85383399Y-110418781D01*
X85383399Y-110418781D02*
X85347685Y-110347352D01*
X85347685Y-110347352D02*
X85311971Y-110204495D01*
X85311971Y-110204495D02*
X85311971Y-110097352D01*
X85311971Y-110097352D02*
X85347685Y-109954495D01*
X85347685Y-109954495D02*
X85383399Y-109883067D01*
X85383399Y-109883067D02*
X85454828Y-109811638D01*
X85454828Y-109811638D02*
X85561971Y-109775924D01*
X85561971Y-109775924D02*
X85633399Y-109775924D01*
X85633399Y-109775924D02*
X85740542Y-109811638D01*
X85740542Y-109811638D02*
X85776256Y-109847352D01*
X86490542Y-110525924D02*
X86061971Y-110525924D01*
X86276256Y-110525924D02*
X86276256Y-109775924D01*
X86276256Y-109775924D02*
X86204828Y-109883067D01*
X86204828Y-109883067D02*
X86133399Y-109954495D01*
X86133399Y-109954495D02*
X86061971Y-109990210D01*
X87169114Y-109775924D02*
X86811971Y-109775924D01*
X86811971Y-109775924D02*
X86776257Y-110133067D01*
X86776257Y-110133067D02*
X86811971Y-110097352D01*
X86811971Y-110097352D02*
X86883400Y-110061638D01*
X86883400Y-110061638D02*
X87061971Y-110061638D01*
X87061971Y-110061638D02*
X87133400Y-110097352D01*
X87133400Y-110097352D02*
X87169114Y-110133067D01*
X87169114Y-110133067D02*
X87204828Y-110204495D01*
X87204828Y-110204495D02*
X87204828Y-110383067D01*
X87204828Y-110383067D02*
X87169114Y-110454495D01*
X87169114Y-110454495D02*
X87133400Y-110490210D01*
X87133400Y-110490210D02*
X87061971Y-110525924D01*
X87061971Y-110525924D02*
X86883400Y-110525924D01*
X86883400Y-110525924D02*
X86811971Y-110490210D01*
X86811971Y-110490210D02*
X86776257Y-110454495D01*
X105733724Y-93535428D02*
X106340867Y-93535428D01*
X106340867Y-93535428D02*
X106412295Y-93499714D01*
X106412295Y-93499714D02*
X106448010Y-93464000D01*
X106448010Y-93464000D02*
X106483724Y-93392571D01*
X106483724Y-93392571D02*
X106483724Y-93249714D01*
X106483724Y-93249714D02*
X106448010Y-93178285D01*
X106448010Y-93178285D02*
X106412295Y-93142571D01*
X106412295Y-93142571D02*
X106340867Y-93106857D01*
X106340867Y-93106857D02*
X105733724Y-93106857D01*
X105805152Y-92785428D02*
X105769438Y-92749714D01*
X105769438Y-92749714D02*
X105733724Y-92678286D01*
X105733724Y-92678286D02*
X105733724Y-92499714D01*
X105733724Y-92499714D02*
X105769438Y-92428286D01*
X105769438Y-92428286D02*
X105805152Y-92392571D01*
X105805152Y-92392571D02*
X105876581Y-92356857D01*
X105876581Y-92356857D02*
X105948010Y-92356857D01*
X105948010Y-92356857D02*
X106055152Y-92392571D01*
X106055152Y-92392571D02*
X106483724Y-92821143D01*
X106483724Y-92821143D02*
X106483724Y-92356857D01*
X95710428Y-87153152D02*
X95638999Y-87117438D01*
X95638999Y-87117438D02*
X95567571Y-87046010D01*
X95567571Y-87046010D02*
X95460428Y-86938867D01*
X95460428Y-86938867D02*
X95388999Y-86903152D01*
X95388999Y-86903152D02*
X95317571Y-86903152D01*
X95353285Y-87081724D02*
X95281857Y-87046010D01*
X95281857Y-87046010D02*
X95210428Y-86974581D01*
X95210428Y-86974581D02*
X95174714Y-86831724D01*
X95174714Y-86831724D02*
X95174714Y-86581724D01*
X95174714Y-86581724D02*
X95210428Y-86438867D01*
X95210428Y-86438867D02*
X95281857Y-86367438D01*
X95281857Y-86367438D02*
X95353285Y-86331724D01*
X95353285Y-86331724D02*
X95496142Y-86331724D01*
X95496142Y-86331724D02*
X95567571Y-86367438D01*
X95567571Y-86367438D02*
X95638999Y-86438867D01*
X95638999Y-86438867D02*
X95674714Y-86581724D01*
X95674714Y-86581724D02*
X95674714Y-86831724D01*
X95674714Y-86831724D02*
X95638999Y-86974581D01*
X95638999Y-86974581D02*
X95567571Y-87046010D01*
X95567571Y-87046010D02*
X95496142Y-87081724D01*
X95496142Y-87081724D02*
X95353285Y-87081724D01*
X96388999Y-87081724D02*
X95960428Y-87081724D01*
X96174713Y-87081724D02*
X96174713Y-86331724D01*
X96174713Y-86331724D02*
X96103285Y-86438867D01*
X96103285Y-86438867D02*
X96031856Y-86510295D01*
X96031856Y-86510295D02*
X95960428Y-86546010D01*
X97103285Y-87081724D02*
X96674714Y-87081724D01*
X96888999Y-87081724D02*
X96888999Y-86331724D01*
X96888999Y-86331724D02*
X96817571Y-86438867D01*
X96817571Y-86438867D02*
X96746142Y-86510295D01*
X96746142Y-86510295D02*
X96674714Y-86546010D01*
D13*
X105428371Y-103579599D02*
X105142657Y-103779599D01*
X105428371Y-103922456D02*
X104828371Y-103922456D01*
X104828371Y-103922456D02*
X104828371Y-103693885D01*
X104828371Y-103693885D02*
X104856942Y-103636742D01*
X104856942Y-103636742D02*
X104885514Y-103608171D01*
X104885514Y-103608171D02*
X104942657Y-103579599D01*
X104942657Y-103579599D02*
X105028371Y-103579599D01*
X105028371Y-103579599D02*
X105085514Y-103608171D01*
X105085514Y-103608171D02*
X105114085Y-103636742D01*
X105114085Y-103636742D02*
X105142657Y-103693885D01*
X105142657Y-103693885D02*
X105142657Y-103922456D01*
X105085514Y-103236742D02*
X105056942Y-103293885D01*
X105056942Y-103293885D02*
X105028371Y-103322456D01*
X105028371Y-103322456D02*
X104971228Y-103351028D01*
X104971228Y-103351028D02*
X104942657Y-103351028D01*
X104942657Y-103351028D02*
X104885514Y-103322456D01*
X104885514Y-103322456D02*
X104856942Y-103293885D01*
X104856942Y-103293885D02*
X104828371Y-103236742D01*
X104828371Y-103236742D02*
X104828371Y-103122456D01*
X104828371Y-103122456D02*
X104856942Y-103065314D01*
X104856942Y-103065314D02*
X104885514Y-103036742D01*
X104885514Y-103036742D02*
X104942657Y-103008171D01*
X104942657Y-103008171D02*
X104971228Y-103008171D01*
X104971228Y-103008171D02*
X105028371Y-103036742D01*
X105028371Y-103036742D02*
X105056942Y-103065314D01*
X105056942Y-103065314D02*
X105085514Y-103122456D01*
X105085514Y-103122456D02*
X105085514Y-103236742D01*
X105085514Y-103236742D02*
X105114085Y-103293885D01*
X105114085Y-103293885D02*
X105142657Y-103322456D01*
X105142657Y-103322456D02*
X105199800Y-103351028D01*
X105199800Y-103351028D02*
X105314085Y-103351028D01*
X105314085Y-103351028D02*
X105371228Y-103322456D01*
X105371228Y-103322456D02*
X105399800Y-103293885D01*
X105399800Y-103293885D02*
X105428371Y-103236742D01*
X105428371Y-103236742D02*
X105428371Y-103122456D01*
X105428371Y-103122456D02*
X105399800Y-103065314D01*
X105399800Y-103065314D02*
X105371228Y-103036742D01*
X105371228Y-103036742D02*
X105314085Y-103008171D01*
X105314085Y-103008171D02*
X105199800Y-103008171D01*
X105199800Y-103008171D02*
X105142657Y-103036742D01*
X105142657Y-103036742D02*
X105114085Y-103065314D01*
X105114085Y-103065314D02*
X105085514Y-103122456D01*
D12*
X81835924Y-123405828D02*
X82443067Y-123405828D01*
X82443067Y-123405828D02*
X82514495Y-123370114D01*
X82514495Y-123370114D02*
X82550210Y-123334400D01*
X82550210Y-123334400D02*
X82585924Y-123262971D01*
X82585924Y-123262971D02*
X82585924Y-123120114D01*
X82585924Y-123120114D02*
X82550210Y-123048685D01*
X82550210Y-123048685D02*
X82514495Y-123012971D01*
X82514495Y-123012971D02*
X82443067Y-122977257D01*
X82443067Y-122977257D02*
X81835924Y-122977257D01*
X82085924Y-122298686D02*
X82585924Y-122298686D01*
X81800210Y-122477257D02*
X82335924Y-122655828D01*
X82335924Y-122655828D02*
X82335924Y-122191543D01*
X99857924Y-99591400D02*
X99500781Y-99841400D01*
X99857924Y-100019971D02*
X99107924Y-100019971D01*
X99107924Y-100019971D02*
X99107924Y-99734257D01*
X99107924Y-99734257D02*
X99143638Y-99662828D01*
X99143638Y-99662828D02*
X99179352Y-99627114D01*
X99179352Y-99627114D02*
X99250781Y-99591400D01*
X99250781Y-99591400D02*
X99357924Y-99591400D01*
X99357924Y-99591400D02*
X99429352Y-99627114D01*
X99429352Y-99627114D02*
X99465067Y-99662828D01*
X99465067Y-99662828D02*
X99500781Y-99734257D01*
X99500781Y-99734257D02*
X99500781Y-100019971D01*
X99357924Y-98948543D02*
X99857924Y-98948543D01*
X99072210Y-99127114D02*
X99607924Y-99305685D01*
X99607924Y-99305685D02*
X99607924Y-98841400D01*
X108229856Y-120482724D02*
X107979856Y-120125581D01*
X107801285Y-120482724D02*
X107801285Y-119732724D01*
X107801285Y-119732724D02*
X108086999Y-119732724D01*
X108086999Y-119732724D02*
X108158428Y-119768438D01*
X108158428Y-119768438D02*
X108194142Y-119804152D01*
X108194142Y-119804152D02*
X108229856Y-119875581D01*
X108229856Y-119875581D02*
X108229856Y-119982724D01*
X108229856Y-119982724D02*
X108194142Y-120054152D01*
X108194142Y-120054152D02*
X108158428Y-120089867D01*
X108158428Y-120089867D02*
X108086999Y-120125581D01*
X108086999Y-120125581D02*
X107801285Y-120125581D01*
X108944142Y-120482724D02*
X108515571Y-120482724D01*
X108729856Y-120482724D02*
X108729856Y-119732724D01*
X108729856Y-119732724D02*
X108658428Y-119839867D01*
X108658428Y-119839867D02*
X108586999Y-119911295D01*
X108586999Y-119911295D02*
X108515571Y-119947010D01*
X109587000Y-119982724D02*
X109587000Y-120482724D01*
X109408428Y-119697010D02*
X109229857Y-120232724D01*
X109229857Y-120232724D02*
X109694142Y-120232724D01*
X125434724Y-119354143D02*
X125077581Y-119604143D01*
X125434724Y-119782714D02*
X124684724Y-119782714D01*
X124684724Y-119782714D02*
X124684724Y-119497000D01*
X124684724Y-119497000D02*
X124720438Y-119425571D01*
X124720438Y-119425571D02*
X124756152Y-119389857D01*
X124756152Y-119389857D02*
X124827581Y-119354143D01*
X124827581Y-119354143D02*
X124934724Y-119354143D01*
X124934724Y-119354143D02*
X125006152Y-119389857D01*
X125006152Y-119389857D02*
X125041867Y-119425571D01*
X125041867Y-119425571D02*
X125077581Y-119497000D01*
X125077581Y-119497000D02*
X125077581Y-119782714D01*
X125434724Y-118639857D02*
X125434724Y-119068428D01*
X125434724Y-118854143D02*
X124684724Y-118854143D01*
X124684724Y-118854143D02*
X124791867Y-118925571D01*
X124791867Y-118925571D02*
X124863295Y-118997000D01*
X124863295Y-118997000D02*
X124899010Y-119068428D01*
X124684724Y-118389857D02*
X124684724Y-117925571D01*
X124684724Y-117925571D02*
X124970438Y-118175571D01*
X124970438Y-118175571D02*
X124970438Y-118068428D01*
X124970438Y-118068428D02*
X125006152Y-117997000D01*
X125006152Y-117997000D02*
X125041867Y-117961285D01*
X125041867Y-117961285D02*
X125113295Y-117925571D01*
X125113295Y-117925571D02*
X125291867Y-117925571D01*
X125291867Y-117925571D02*
X125363295Y-117961285D01*
X125363295Y-117961285D02*
X125399010Y-117997000D01*
X125399010Y-117997000D02*
X125434724Y-118068428D01*
X125434724Y-118068428D02*
X125434724Y-118282714D01*
X125434724Y-118282714D02*
X125399010Y-118354142D01*
X125399010Y-118354142D02*
X125363295Y-118389857D01*
X126089285Y-108798724D02*
X126089285Y-108048724D01*
X126089285Y-108048724D02*
X126267856Y-108048724D01*
X126267856Y-108048724D02*
X126374999Y-108084438D01*
X126374999Y-108084438D02*
X126446428Y-108155867D01*
X126446428Y-108155867D02*
X126482142Y-108227295D01*
X126482142Y-108227295D02*
X126517856Y-108370152D01*
X126517856Y-108370152D02*
X126517856Y-108477295D01*
X126517856Y-108477295D02*
X126482142Y-108620152D01*
X126482142Y-108620152D02*
X126446428Y-108691581D01*
X126446428Y-108691581D02*
X126374999Y-108763010D01*
X126374999Y-108763010D02*
X126267856Y-108798724D01*
X126267856Y-108798724D02*
X126089285Y-108798724D01*
X127232142Y-108798724D02*
X126803571Y-108798724D01*
X127017856Y-108798724D02*
X127017856Y-108048724D01*
X127017856Y-108048724D02*
X126946428Y-108155867D01*
X126946428Y-108155867D02*
X126874999Y-108227295D01*
X126874999Y-108227295D02*
X126803571Y-108263010D01*
X127696428Y-108048724D02*
X127767857Y-108048724D01*
X127767857Y-108048724D02*
X127839285Y-108084438D01*
X127839285Y-108084438D02*
X127875000Y-108120152D01*
X127875000Y-108120152D02*
X127910714Y-108191581D01*
X127910714Y-108191581D02*
X127946428Y-108334438D01*
X127946428Y-108334438D02*
X127946428Y-108513010D01*
X127946428Y-108513010D02*
X127910714Y-108655867D01*
X127910714Y-108655867D02*
X127875000Y-108727295D01*
X127875000Y-108727295D02*
X127839285Y-108763010D01*
X127839285Y-108763010D02*
X127767857Y-108798724D01*
X127767857Y-108798724D02*
X127696428Y-108798724D01*
X127696428Y-108798724D02*
X127625000Y-108763010D01*
X127625000Y-108763010D02*
X127589285Y-108727295D01*
X127589285Y-108727295D02*
X127553571Y-108655867D01*
X127553571Y-108655867D02*
X127517857Y-108513010D01*
X127517857Y-108513010D02*
X127517857Y-108334438D01*
X127517857Y-108334438D02*
X127553571Y-108191581D01*
X127553571Y-108191581D02*
X127589285Y-108120152D01*
X127589285Y-108120152D02*
X127625000Y-108084438D01*
X127625000Y-108084438D02*
X127696428Y-108048724D01*
D10*
X126209219Y-95092685D02*
X125209219Y-95092685D01*
X125209219Y-95092685D02*
X125209219Y-94854590D01*
X125209219Y-94854590D02*
X125256838Y-94711733D01*
X125256838Y-94711733D02*
X125352076Y-94616495D01*
X125352076Y-94616495D02*
X125447314Y-94568876D01*
X125447314Y-94568876D02*
X125637790Y-94521257D01*
X125637790Y-94521257D02*
X125780647Y-94521257D01*
X125780647Y-94521257D02*
X125971123Y-94568876D01*
X125971123Y-94568876D02*
X126066361Y-94616495D01*
X126066361Y-94616495D02*
X126161600Y-94711733D01*
X126161600Y-94711733D02*
X126209219Y-94854590D01*
X126209219Y-94854590D02*
X126209219Y-95092685D01*
X126209219Y-93568876D02*
X126209219Y-94140304D01*
X126209219Y-93854590D02*
X125209219Y-93854590D01*
X125209219Y-93854590D02*
X125352076Y-93949828D01*
X125352076Y-93949828D02*
X125447314Y-94045066D01*
X125447314Y-94045066D02*
X125494933Y-94140304D01*
X126209219Y-92616495D02*
X126209219Y-93187923D01*
X126209219Y-92902209D02*
X125209219Y-92902209D01*
X125209219Y-92902209D02*
X125352076Y-92997447D01*
X125352076Y-92997447D02*
X125447314Y-93092685D01*
X125447314Y-93092685D02*
X125494933Y-93187923D01*
D12*
X104649999Y-87772295D02*
X104614285Y-87808010D01*
X104614285Y-87808010D02*
X104507142Y-87843724D01*
X104507142Y-87843724D02*
X104435714Y-87843724D01*
X104435714Y-87843724D02*
X104328571Y-87808010D01*
X104328571Y-87808010D02*
X104257142Y-87736581D01*
X104257142Y-87736581D02*
X104221428Y-87665152D01*
X104221428Y-87665152D02*
X104185714Y-87522295D01*
X104185714Y-87522295D02*
X104185714Y-87415152D01*
X104185714Y-87415152D02*
X104221428Y-87272295D01*
X104221428Y-87272295D02*
X104257142Y-87200867D01*
X104257142Y-87200867D02*
X104328571Y-87129438D01*
X104328571Y-87129438D02*
X104435714Y-87093724D01*
X104435714Y-87093724D02*
X104507142Y-87093724D01*
X104507142Y-87093724D02*
X104614285Y-87129438D01*
X104614285Y-87129438D02*
X104649999Y-87165152D01*
X105292857Y-87093724D02*
X105149999Y-87093724D01*
X105149999Y-87093724D02*
X105078571Y-87129438D01*
X105078571Y-87129438D02*
X105042857Y-87165152D01*
X105042857Y-87165152D02*
X104971428Y-87272295D01*
X104971428Y-87272295D02*
X104935714Y-87415152D01*
X104935714Y-87415152D02*
X104935714Y-87700867D01*
X104935714Y-87700867D02*
X104971428Y-87772295D01*
X104971428Y-87772295D02*
X105007142Y-87808010D01*
X105007142Y-87808010D02*
X105078571Y-87843724D01*
X105078571Y-87843724D02*
X105221428Y-87843724D01*
X105221428Y-87843724D02*
X105292857Y-87808010D01*
X105292857Y-87808010D02*
X105328571Y-87772295D01*
X105328571Y-87772295D02*
X105364285Y-87700867D01*
X105364285Y-87700867D02*
X105364285Y-87522295D01*
X105364285Y-87522295D02*
X105328571Y-87450867D01*
X105328571Y-87450867D02*
X105292857Y-87415152D01*
X105292857Y-87415152D02*
X105221428Y-87379438D01*
X105221428Y-87379438D02*
X105078571Y-87379438D01*
X105078571Y-87379438D02*
X105007142Y-87415152D01*
X105007142Y-87415152D02*
X104971428Y-87450867D01*
X104971428Y-87450867D02*
X104935714Y-87522295D01*
X88275524Y-96184571D02*
X87525524Y-96184571D01*
X87525524Y-96184571D02*
X87525524Y-96006000D01*
X87525524Y-96006000D02*
X87561238Y-95898857D01*
X87561238Y-95898857D02*
X87632667Y-95827428D01*
X87632667Y-95827428D02*
X87704095Y-95791714D01*
X87704095Y-95791714D02*
X87846952Y-95756000D01*
X87846952Y-95756000D02*
X87954095Y-95756000D01*
X87954095Y-95756000D02*
X88096952Y-95791714D01*
X88096952Y-95791714D02*
X88168381Y-95827428D01*
X88168381Y-95827428D02*
X88239810Y-95898857D01*
X88239810Y-95898857D02*
X88275524Y-96006000D01*
X88275524Y-96006000D02*
X88275524Y-96184571D01*
X88275524Y-95041714D02*
X88275524Y-95470285D01*
X88275524Y-95256000D02*
X87525524Y-95256000D01*
X87525524Y-95256000D02*
X87632667Y-95327428D01*
X87632667Y-95327428D02*
X87704095Y-95398857D01*
X87704095Y-95398857D02*
X87739810Y-95470285D01*
X110390724Y-107439999D02*
X110390724Y-107797142D01*
X110390724Y-107797142D02*
X109640724Y-107797142D01*
X109640724Y-107261428D02*
X109640724Y-106797142D01*
X109640724Y-106797142D02*
X109926438Y-107047142D01*
X109926438Y-107047142D02*
X109926438Y-106939999D01*
X109926438Y-106939999D02*
X109962152Y-106868571D01*
X109962152Y-106868571D02*
X109997867Y-106832856D01*
X109997867Y-106832856D02*
X110069295Y-106797142D01*
X110069295Y-106797142D02*
X110247867Y-106797142D01*
X110247867Y-106797142D02*
X110319295Y-106832856D01*
X110319295Y-106832856D02*
X110355010Y-106868571D01*
X110355010Y-106868571D02*
X110390724Y-106939999D01*
X110390724Y-106939999D02*
X110390724Y-107154285D01*
X110390724Y-107154285D02*
X110355010Y-107225713D01*
X110355010Y-107225713D02*
X110319295Y-107261428D01*
X108229856Y-115656724D02*
X107979856Y-115299581D01*
X107801285Y-115656724D02*
X107801285Y-114906724D01*
X107801285Y-114906724D02*
X108086999Y-114906724D01*
X108086999Y-114906724D02*
X108158428Y-114942438D01*
X108158428Y-114942438D02*
X108194142Y-114978152D01*
X108194142Y-114978152D02*
X108229856Y-115049581D01*
X108229856Y-115049581D02*
X108229856Y-115156724D01*
X108229856Y-115156724D02*
X108194142Y-115228152D01*
X108194142Y-115228152D02*
X108158428Y-115263867D01*
X108158428Y-115263867D02*
X108086999Y-115299581D01*
X108086999Y-115299581D02*
X107801285Y-115299581D01*
X108944142Y-115656724D02*
X108515571Y-115656724D01*
X108729856Y-115656724D02*
X108729856Y-114906724D01*
X108729856Y-114906724D02*
X108658428Y-115013867D01*
X108658428Y-115013867D02*
X108586999Y-115085295D01*
X108586999Y-115085295D02*
X108515571Y-115121010D01*
X109622714Y-114906724D02*
X109265571Y-114906724D01*
X109265571Y-114906724D02*
X109229857Y-115263867D01*
X109229857Y-115263867D02*
X109265571Y-115228152D01*
X109265571Y-115228152D02*
X109337000Y-115192438D01*
X109337000Y-115192438D02*
X109515571Y-115192438D01*
X109515571Y-115192438D02*
X109587000Y-115228152D01*
X109587000Y-115228152D02*
X109622714Y-115263867D01*
X109622714Y-115263867D02*
X109658428Y-115335295D01*
X109658428Y-115335295D02*
X109658428Y-115513867D01*
X109658428Y-115513867D02*
X109622714Y-115585295D01*
X109622714Y-115585295D02*
X109587000Y-115621010D01*
X109587000Y-115621010D02*
X109515571Y-115656724D01*
X109515571Y-115656724D02*
X109337000Y-115656724D01*
X109337000Y-115656724D02*
X109265571Y-115621010D01*
X109265571Y-115621010D02*
X109229857Y-115585295D01*
X88529524Y-115696543D02*
X88172381Y-115946543D01*
X88529524Y-116125114D02*
X87779524Y-116125114D01*
X87779524Y-116125114D02*
X87779524Y-115839400D01*
X87779524Y-115839400D02*
X87815238Y-115767971D01*
X87815238Y-115767971D02*
X87850952Y-115732257D01*
X87850952Y-115732257D02*
X87922381Y-115696543D01*
X87922381Y-115696543D02*
X88029524Y-115696543D01*
X88029524Y-115696543D02*
X88100952Y-115732257D01*
X88100952Y-115732257D02*
X88136667Y-115767971D01*
X88136667Y-115767971D02*
X88172381Y-115839400D01*
X88172381Y-115839400D02*
X88172381Y-116125114D01*
X88529524Y-114982257D02*
X88529524Y-115410828D01*
X88529524Y-115196543D02*
X87779524Y-115196543D01*
X87779524Y-115196543D02*
X87886667Y-115267971D01*
X87886667Y-115267971D02*
X87958095Y-115339400D01*
X87958095Y-115339400D02*
X87993810Y-115410828D01*
X87850952Y-114696542D02*
X87815238Y-114660828D01*
X87815238Y-114660828D02*
X87779524Y-114589400D01*
X87779524Y-114589400D02*
X87779524Y-114410828D01*
X87779524Y-114410828D02*
X87815238Y-114339400D01*
X87815238Y-114339400D02*
X87850952Y-114303685D01*
X87850952Y-114303685D02*
X87922381Y-114267971D01*
X87922381Y-114267971D02*
X87993810Y-114267971D01*
X87993810Y-114267971D02*
X88100952Y-114303685D01*
X88100952Y-114303685D02*
X88529524Y-114732257D01*
X88529524Y-114732257D02*
X88529524Y-114267971D01*
X100865399Y-97673524D02*
X100615399Y-97316381D01*
X100436828Y-97673524D02*
X100436828Y-96923524D01*
X100436828Y-96923524D02*
X100722542Y-96923524D01*
X100722542Y-96923524D02*
X100793971Y-96959238D01*
X100793971Y-96959238D02*
X100829685Y-96994952D01*
X100829685Y-96994952D02*
X100865399Y-97066381D01*
X100865399Y-97066381D02*
X100865399Y-97173524D01*
X100865399Y-97173524D02*
X100829685Y-97244952D01*
X100829685Y-97244952D02*
X100793971Y-97280667D01*
X100793971Y-97280667D02*
X100722542Y-97316381D01*
X100722542Y-97316381D02*
X100436828Y-97316381D01*
X101508257Y-96923524D02*
X101365399Y-96923524D01*
X101365399Y-96923524D02*
X101293971Y-96959238D01*
X101293971Y-96959238D02*
X101258257Y-96994952D01*
X101258257Y-96994952D02*
X101186828Y-97102095D01*
X101186828Y-97102095D02*
X101151114Y-97244952D01*
X101151114Y-97244952D02*
X101151114Y-97530667D01*
X101151114Y-97530667D02*
X101186828Y-97602095D01*
X101186828Y-97602095D02*
X101222542Y-97637810D01*
X101222542Y-97637810D02*
X101293971Y-97673524D01*
X101293971Y-97673524D02*
X101436828Y-97673524D01*
X101436828Y-97673524D02*
X101508257Y-97637810D01*
X101508257Y-97637810D02*
X101543971Y-97602095D01*
X101543971Y-97602095D02*
X101579685Y-97530667D01*
X101579685Y-97530667D02*
X101579685Y-97352095D01*
X101579685Y-97352095D02*
X101543971Y-97280667D01*
X101543971Y-97280667D02*
X101508257Y-97244952D01*
X101508257Y-97244952D02*
X101436828Y-97209238D01*
X101436828Y-97209238D02*
X101293971Y-97209238D01*
X101293971Y-97209238D02*
X101222542Y-97244952D01*
X101222542Y-97244952D02*
X101186828Y-97280667D01*
X101186828Y-97280667D02*
X101151114Y-97352095D01*
D13*
X102634371Y-103579599D02*
X102348657Y-103779599D01*
X102634371Y-103922456D02*
X102034371Y-103922456D01*
X102034371Y-103922456D02*
X102034371Y-103693885D01*
X102034371Y-103693885D02*
X102062942Y-103636742D01*
X102062942Y-103636742D02*
X102091514Y-103608171D01*
X102091514Y-103608171D02*
X102148657Y-103579599D01*
X102148657Y-103579599D02*
X102234371Y-103579599D01*
X102234371Y-103579599D02*
X102291514Y-103608171D01*
X102291514Y-103608171D02*
X102320085Y-103636742D01*
X102320085Y-103636742D02*
X102348657Y-103693885D01*
X102348657Y-103693885D02*
X102348657Y-103922456D01*
X102034371Y-103379599D02*
X102034371Y-102979599D01*
X102034371Y-102979599D02*
X102634371Y-103236742D01*
D12*
X103608599Y-97622724D02*
X103358599Y-97265581D01*
X103180028Y-97622724D02*
X103180028Y-96872724D01*
X103180028Y-96872724D02*
X103465742Y-96872724D01*
X103465742Y-96872724D02*
X103537171Y-96908438D01*
X103537171Y-96908438D02*
X103572885Y-96944152D01*
X103572885Y-96944152D02*
X103608599Y-97015581D01*
X103608599Y-97015581D02*
X103608599Y-97122724D01*
X103608599Y-97122724D02*
X103572885Y-97194152D01*
X103572885Y-97194152D02*
X103537171Y-97229867D01*
X103537171Y-97229867D02*
X103465742Y-97265581D01*
X103465742Y-97265581D02*
X103180028Y-97265581D01*
X103965742Y-97622724D02*
X104108599Y-97622724D01*
X104108599Y-97622724D02*
X104180028Y-97587010D01*
X104180028Y-97587010D02*
X104215742Y-97551295D01*
X104215742Y-97551295D02*
X104287171Y-97444152D01*
X104287171Y-97444152D02*
X104322885Y-97301295D01*
X104322885Y-97301295D02*
X104322885Y-97015581D01*
X104322885Y-97015581D02*
X104287171Y-96944152D01*
X104287171Y-96944152D02*
X104251457Y-96908438D01*
X104251457Y-96908438D02*
X104180028Y-96872724D01*
X104180028Y-96872724D02*
X104037171Y-96872724D01*
X104037171Y-96872724D02*
X103965742Y-96908438D01*
X103965742Y-96908438D02*
X103930028Y-96944152D01*
X103930028Y-96944152D02*
X103894314Y-97015581D01*
X103894314Y-97015581D02*
X103894314Y-97194152D01*
X103894314Y-97194152D02*
X103930028Y-97265581D01*
X103930028Y-97265581D02*
X103965742Y-97301295D01*
X103965742Y-97301295D02*
X104037171Y-97337010D01*
X104037171Y-97337010D02*
X104180028Y-97337010D01*
X104180028Y-97337010D02*
X104251457Y-97301295D01*
X104251457Y-97301295D02*
X104287171Y-97265581D01*
X104287171Y-97265581D02*
X104322885Y-97194152D01*
X117411571Y-111760724D02*
X117411571Y-112367867D01*
X117411571Y-112367867D02*
X117447285Y-112439295D01*
X117447285Y-112439295D02*
X117483000Y-112475010D01*
X117483000Y-112475010D02*
X117554428Y-112510724D01*
X117554428Y-112510724D02*
X117697285Y-112510724D01*
X117697285Y-112510724D02*
X117768714Y-112475010D01*
X117768714Y-112475010D02*
X117804428Y-112439295D01*
X117804428Y-112439295D02*
X117840142Y-112367867D01*
X117840142Y-112367867D02*
X117840142Y-111760724D01*
X118125856Y-111760724D02*
X118590142Y-111760724D01*
X118590142Y-111760724D02*
X118340142Y-112046438D01*
X118340142Y-112046438D02*
X118447285Y-112046438D01*
X118447285Y-112046438D02*
X118518714Y-112082152D01*
X118518714Y-112082152D02*
X118554428Y-112117867D01*
X118554428Y-112117867D02*
X118590142Y-112189295D01*
X118590142Y-112189295D02*
X118590142Y-112367867D01*
X118590142Y-112367867D02*
X118554428Y-112439295D01*
X118554428Y-112439295D02*
X118518714Y-112475010D01*
X118518714Y-112475010D02*
X118447285Y-112510724D01*
X118447285Y-112510724D02*
X118232999Y-112510724D01*
X118232999Y-112510724D02*
X118161571Y-112475010D01*
X118161571Y-112475010D02*
X118125856Y-112439295D01*
X127001999Y-116601295D02*
X126966285Y-116637010D01*
X126966285Y-116637010D02*
X126859142Y-116672724D01*
X126859142Y-116672724D02*
X126787714Y-116672724D01*
X126787714Y-116672724D02*
X126680571Y-116637010D01*
X126680571Y-116637010D02*
X126609142Y-116565581D01*
X126609142Y-116565581D02*
X126573428Y-116494152D01*
X126573428Y-116494152D02*
X126537714Y-116351295D01*
X126537714Y-116351295D02*
X126537714Y-116244152D01*
X126537714Y-116244152D02*
X126573428Y-116101295D01*
X126573428Y-116101295D02*
X126609142Y-116029867D01*
X126609142Y-116029867D02*
X126680571Y-115958438D01*
X126680571Y-115958438D02*
X126787714Y-115922724D01*
X126787714Y-115922724D02*
X126859142Y-115922724D01*
X126859142Y-115922724D02*
X126966285Y-115958438D01*
X126966285Y-115958438D02*
X127001999Y-115994152D01*
X127430571Y-116244152D02*
X127359142Y-116208438D01*
X127359142Y-116208438D02*
X127323428Y-116172724D01*
X127323428Y-116172724D02*
X127287714Y-116101295D01*
X127287714Y-116101295D02*
X127287714Y-116065581D01*
X127287714Y-116065581D02*
X127323428Y-115994152D01*
X127323428Y-115994152D02*
X127359142Y-115958438D01*
X127359142Y-115958438D02*
X127430571Y-115922724D01*
X127430571Y-115922724D02*
X127573428Y-115922724D01*
X127573428Y-115922724D02*
X127644857Y-115958438D01*
X127644857Y-115958438D02*
X127680571Y-115994152D01*
X127680571Y-115994152D02*
X127716285Y-116065581D01*
X127716285Y-116065581D02*
X127716285Y-116101295D01*
X127716285Y-116101295D02*
X127680571Y-116172724D01*
X127680571Y-116172724D02*
X127644857Y-116208438D01*
X127644857Y-116208438D02*
X127573428Y-116244152D01*
X127573428Y-116244152D02*
X127430571Y-116244152D01*
X127430571Y-116244152D02*
X127359142Y-116279867D01*
X127359142Y-116279867D02*
X127323428Y-116315581D01*
X127323428Y-116315581D02*
X127287714Y-116387010D01*
X127287714Y-116387010D02*
X127287714Y-116529867D01*
X127287714Y-116529867D02*
X127323428Y-116601295D01*
X127323428Y-116601295D02*
X127359142Y-116637010D01*
X127359142Y-116637010D02*
X127430571Y-116672724D01*
X127430571Y-116672724D02*
X127573428Y-116672724D01*
X127573428Y-116672724D02*
X127644857Y-116637010D01*
X127644857Y-116637010D02*
X127680571Y-116601295D01*
X127680571Y-116601295D02*
X127716285Y-116529867D01*
X127716285Y-116529867D02*
X127716285Y-116387010D01*
X127716285Y-116387010D02*
X127680571Y-116315581D01*
X127680571Y-116315581D02*
X127644857Y-116279867D01*
X127644857Y-116279867D02*
X127573428Y-116244152D01*
X108229856Y-113370724D02*
X107979856Y-113013581D01*
X107801285Y-113370724D02*
X107801285Y-112620724D01*
X107801285Y-112620724D02*
X108086999Y-112620724D01*
X108086999Y-112620724D02*
X108158428Y-112656438D01*
X108158428Y-112656438D02*
X108194142Y-112692152D01*
X108194142Y-112692152D02*
X108229856Y-112763581D01*
X108229856Y-112763581D02*
X108229856Y-112870724D01*
X108229856Y-112870724D02*
X108194142Y-112942152D01*
X108194142Y-112942152D02*
X108158428Y-112977867D01*
X108158428Y-112977867D02*
X108086999Y-113013581D01*
X108086999Y-113013581D02*
X107801285Y-113013581D01*
X108944142Y-113370724D02*
X108515571Y-113370724D01*
X108729856Y-113370724D02*
X108729856Y-112620724D01*
X108729856Y-112620724D02*
X108658428Y-112727867D01*
X108658428Y-112727867D02*
X108586999Y-112799295D01*
X108586999Y-112799295D02*
X108515571Y-112835010D01*
X109587000Y-112620724D02*
X109444142Y-112620724D01*
X109444142Y-112620724D02*
X109372714Y-112656438D01*
X109372714Y-112656438D02*
X109337000Y-112692152D01*
X109337000Y-112692152D02*
X109265571Y-112799295D01*
X109265571Y-112799295D02*
X109229857Y-112942152D01*
X109229857Y-112942152D02*
X109229857Y-113227867D01*
X109229857Y-113227867D02*
X109265571Y-113299295D01*
X109265571Y-113299295D02*
X109301285Y-113335010D01*
X109301285Y-113335010D02*
X109372714Y-113370724D01*
X109372714Y-113370724D02*
X109515571Y-113370724D01*
X109515571Y-113370724D02*
X109587000Y-113335010D01*
X109587000Y-113335010D02*
X109622714Y-113299295D01*
X109622714Y-113299295D02*
X109658428Y-113227867D01*
X109658428Y-113227867D02*
X109658428Y-113049295D01*
X109658428Y-113049295D02*
X109622714Y-112977867D01*
X109622714Y-112977867D02*
X109587000Y-112942152D01*
X109587000Y-112942152D02*
X109515571Y-112906438D01*
X109515571Y-112906438D02*
X109372714Y-112906438D01*
X109372714Y-112906438D02*
X109301285Y-112942152D01*
X109301285Y-112942152D02*
X109265571Y-112977867D01*
X109265571Y-112977867D02*
X109229857Y-113049295D01*
X126198295Y-104241143D02*
X126234010Y-104276857D01*
X126234010Y-104276857D02*
X126269724Y-104384000D01*
X126269724Y-104384000D02*
X126269724Y-104455428D01*
X126269724Y-104455428D02*
X126234010Y-104562571D01*
X126234010Y-104562571D02*
X126162581Y-104634000D01*
X126162581Y-104634000D02*
X126091152Y-104669714D01*
X126091152Y-104669714D02*
X125948295Y-104705428D01*
X125948295Y-104705428D02*
X125841152Y-104705428D01*
X125841152Y-104705428D02*
X125698295Y-104669714D01*
X125698295Y-104669714D02*
X125626867Y-104634000D01*
X125626867Y-104634000D02*
X125555438Y-104562571D01*
X125555438Y-104562571D02*
X125519724Y-104455428D01*
X125519724Y-104455428D02*
X125519724Y-104384000D01*
X125519724Y-104384000D02*
X125555438Y-104276857D01*
X125555438Y-104276857D02*
X125591152Y-104241143D01*
X126269724Y-103526857D02*
X126269724Y-103955428D01*
X126269724Y-103741143D02*
X125519724Y-103741143D01*
X125519724Y-103741143D02*
X125626867Y-103812571D01*
X125626867Y-103812571D02*
X125698295Y-103884000D01*
X125698295Y-103884000D02*
X125734010Y-103955428D01*
X126269724Y-102812571D02*
X126269724Y-103241142D01*
X126269724Y-103026857D02*
X125519724Y-103026857D01*
X125519724Y-103026857D02*
X125626867Y-103098285D01*
X125626867Y-103098285D02*
X125698295Y-103169714D01*
X125698295Y-103169714D02*
X125734010Y-103241142D01*
X88478724Y-112750143D02*
X88121581Y-113000143D01*
X88478724Y-113178714D02*
X87728724Y-113178714D01*
X87728724Y-113178714D02*
X87728724Y-112893000D01*
X87728724Y-112893000D02*
X87764438Y-112821571D01*
X87764438Y-112821571D02*
X87800152Y-112785857D01*
X87800152Y-112785857D02*
X87871581Y-112750143D01*
X87871581Y-112750143D02*
X87978724Y-112750143D01*
X87978724Y-112750143D02*
X88050152Y-112785857D01*
X88050152Y-112785857D02*
X88085867Y-112821571D01*
X88085867Y-112821571D02*
X88121581Y-112893000D01*
X88121581Y-112893000D02*
X88121581Y-113178714D01*
X88478724Y-112035857D02*
X88478724Y-112464428D01*
X88478724Y-112250143D02*
X87728724Y-112250143D01*
X87728724Y-112250143D02*
X87835867Y-112321571D01*
X87835867Y-112321571D02*
X87907295Y-112393000D01*
X87907295Y-112393000D02*
X87943010Y-112464428D01*
X88478724Y-111321571D02*
X88478724Y-111750142D01*
X88478724Y-111535857D02*
X87728724Y-111535857D01*
X87728724Y-111535857D02*
X87835867Y-111607285D01*
X87835867Y-111607285D02*
X87907295Y-111678714D01*
X87907295Y-111678714D02*
X87943010Y-111750142D01*
X88224724Y-93348238D02*
X87474724Y-93348238D01*
X87474724Y-93348238D02*
X87474724Y-93169667D01*
X87474724Y-93169667D02*
X87510438Y-93062524D01*
X87510438Y-93062524D02*
X87581867Y-92991095D01*
X87581867Y-92991095D02*
X87653295Y-92955381D01*
X87653295Y-92955381D02*
X87796152Y-92919667D01*
X87796152Y-92919667D02*
X87903295Y-92919667D01*
X87903295Y-92919667D02*
X88046152Y-92955381D01*
X88046152Y-92955381D02*
X88117581Y-92991095D01*
X88117581Y-92991095D02*
X88189010Y-93062524D01*
X88189010Y-93062524D02*
X88224724Y-93169667D01*
X88224724Y-93169667D02*
X88224724Y-93348238D01*
X87546152Y-92633952D02*
X87510438Y-92598238D01*
X87510438Y-92598238D02*
X87474724Y-92526810D01*
X87474724Y-92526810D02*
X87474724Y-92348238D01*
X87474724Y-92348238D02*
X87510438Y-92276810D01*
X87510438Y-92276810D02*
X87546152Y-92241095D01*
X87546152Y-92241095D02*
X87617581Y-92205381D01*
X87617581Y-92205381D02*
X87689010Y-92205381D01*
X87689010Y-92205381D02*
X87796152Y-92241095D01*
X87796152Y-92241095D02*
X88224724Y-92669667D01*
X88224724Y-92669667D02*
X88224724Y-92205381D01*
X118424324Y-89432943D02*
X118067181Y-89682943D01*
X118424324Y-89861514D02*
X117674324Y-89861514D01*
X117674324Y-89861514D02*
X117674324Y-89575800D01*
X117674324Y-89575800D02*
X117710038Y-89504371D01*
X117710038Y-89504371D02*
X117745752Y-89468657D01*
X117745752Y-89468657D02*
X117817181Y-89432943D01*
X117817181Y-89432943D02*
X117924324Y-89432943D01*
X117924324Y-89432943D02*
X117995752Y-89468657D01*
X117995752Y-89468657D02*
X118031467Y-89504371D01*
X118031467Y-89504371D02*
X118067181Y-89575800D01*
X118067181Y-89575800D02*
X118067181Y-89861514D01*
X117745752Y-89147228D02*
X117710038Y-89111514D01*
X117710038Y-89111514D02*
X117674324Y-89040086D01*
X117674324Y-89040086D02*
X117674324Y-88861514D01*
X117674324Y-88861514D02*
X117710038Y-88790086D01*
X117710038Y-88790086D02*
X117745752Y-88754371D01*
X117745752Y-88754371D02*
X117817181Y-88718657D01*
X117817181Y-88718657D02*
X117888610Y-88718657D01*
X117888610Y-88718657D02*
X117995752Y-88754371D01*
X117995752Y-88754371D02*
X118424324Y-89182943D01*
X118424324Y-89182943D02*
X118424324Y-88718657D01*
X117745752Y-88432942D02*
X117710038Y-88397228D01*
X117710038Y-88397228D02*
X117674324Y-88325800D01*
X117674324Y-88325800D02*
X117674324Y-88147228D01*
X117674324Y-88147228D02*
X117710038Y-88075800D01*
X117710038Y-88075800D02*
X117745752Y-88040085D01*
X117745752Y-88040085D02*
X117817181Y-88004371D01*
X117817181Y-88004371D02*
X117888610Y-88004371D01*
X117888610Y-88004371D02*
X117995752Y-88040085D01*
X117995752Y-88040085D02*
X118424324Y-88468657D01*
X118424324Y-88468657D02*
X118424324Y-88004371D01*
X90044999Y-106216295D02*
X90009285Y-106252010D01*
X90009285Y-106252010D02*
X89902142Y-106287724D01*
X89902142Y-106287724D02*
X89830714Y-106287724D01*
X89830714Y-106287724D02*
X89723571Y-106252010D01*
X89723571Y-106252010D02*
X89652142Y-106180581D01*
X89652142Y-106180581D02*
X89616428Y-106109152D01*
X89616428Y-106109152D02*
X89580714Y-105966295D01*
X89580714Y-105966295D02*
X89580714Y-105859152D01*
X89580714Y-105859152D02*
X89616428Y-105716295D01*
X89616428Y-105716295D02*
X89652142Y-105644867D01*
X89652142Y-105644867D02*
X89723571Y-105573438D01*
X89723571Y-105573438D02*
X89830714Y-105537724D01*
X89830714Y-105537724D02*
X89902142Y-105537724D01*
X89902142Y-105537724D02*
X90009285Y-105573438D01*
X90009285Y-105573438D02*
X90044999Y-105609152D01*
X90759285Y-106287724D02*
X90330714Y-106287724D01*
X90544999Y-106287724D02*
X90544999Y-105537724D01*
X90544999Y-105537724D02*
X90473571Y-105644867D01*
X90473571Y-105644867D02*
X90402142Y-105716295D01*
X90402142Y-105716295D02*
X90330714Y-105752010D01*
X91314999Y-88759295D02*
X91279285Y-88795010D01*
X91279285Y-88795010D02*
X91172142Y-88830724D01*
X91172142Y-88830724D02*
X91100714Y-88830724D01*
X91100714Y-88830724D02*
X90993571Y-88795010D01*
X90993571Y-88795010D02*
X90922142Y-88723581D01*
X90922142Y-88723581D02*
X90886428Y-88652152D01*
X90886428Y-88652152D02*
X90850714Y-88509295D01*
X90850714Y-88509295D02*
X90850714Y-88402152D01*
X90850714Y-88402152D02*
X90886428Y-88259295D01*
X90886428Y-88259295D02*
X90922142Y-88187867D01*
X90922142Y-88187867D02*
X90993571Y-88116438D01*
X90993571Y-88116438D02*
X91100714Y-88080724D01*
X91100714Y-88080724D02*
X91172142Y-88080724D01*
X91172142Y-88080724D02*
X91279285Y-88116438D01*
X91279285Y-88116438D02*
X91314999Y-88152152D01*
X91600714Y-88152152D02*
X91636428Y-88116438D01*
X91636428Y-88116438D02*
X91707857Y-88080724D01*
X91707857Y-88080724D02*
X91886428Y-88080724D01*
X91886428Y-88080724D02*
X91957857Y-88116438D01*
X91957857Y-88116438D02*
X91993571Y-88152152D01*
X91993571Y-88152152D02*
X92029285Y-88223581D01*
X92029285Y-88223581D02*
X92029285Y-88295010D01*
X92029285Y-88295010D02*
X91993571Y-88402152D01*
X91993571Y-88402152D02*
X91564999Y-88830724D01*
X91564999Y-88830724D02*
X92029285Y-88830724D01*
X94413799Y-91780724D02*
X94163799Y-91423581D01*
X93985228Y-91780724D02*
X93985228Y-91030724D01*
X93985228Y-91030724D02*
X94270942Y-91030724D01*
X94270942Y-91030724D02*
X94342371Y-91066438D01*
X94342371Y-91066438D02*
X94378085Y-91102152D01*
X94378085Y-91102152D02*
X94413799Y-91173581D01*
X94413799Y-91173581D02*
X94413799Y-91280724D01*
X94413799Y-91280724D02*
X94378085Y-91352152D01*
X94378085Y-91352152D02*
X94342371Y-91387867D01*
X94342371Y-91387867D02*
X94270942Y-91423581D01*
X94270942Y-91423581D02*
X93985228Y-91423581D01*
X95128085Y-91780724D02*
X94699514Y-91780724D01*
X94913799Y-91780724D02*
X94913799Y-91030724D01*
X94913799Y-91030724D02*
X94842371Y-91137867D01*
X94842371Y-91137867D02*
X94770942Y-91209295D01*
X94770942Y-91209295D02*
X94699514Y-91245010D01*
X112432095Y-89382143D02*
X112467810Y-89417857D01*
X112467810Y-89417857D02*
X112503524Y-89525000D01*
X112503524Y-89525000D02*
X112503524Y-89596428D01*
X112503524Y-89596428D02*
X112467810Y-89703571D01*
X112467810Y-89703571D02*
X112396381Y-89775000D01*
X112396381Y-89775000D02*
X112324952Y-89810714D01*
X112324952Y-89810714D02*
X112182095Y-89846428D01*
X112182095Y-89846428D02*
X112074952Y-89846428D01*
X112074952Y-89846428D02*
X111932095Y-89810714D01*
X111932095Y-89810714D02*
X111860667Y-89775000D01*
X111860667Y-89775000D02*
X111789238Y-89703571D01*
X111789238Y-89703571D02*
X111753524Y-89596428D01*
X111753524Y-89596428D02*
X111753524Y-89525000D01*
X111753524Y-89525000D02*
X111789238Y-89417857D01*
X111789238Y-89417857D02*
X111824952Y-89382143D01*
X112503524Y-88667857D02*
X112503524Y-89096428D01*
X112503524Y-88882143D02*
X111753524Y-88882143D01*
X111753524Y-88882143D02*
X111860667Y-88953571D01*
X111860667Y-88953571D02*
X111932095Y-89025000D01*
X111932095Y-89025000D02*
X111967810Y-89096428D01*
X112074952Y-88239285D02*
X112039238Y-88310714D01*
X112039238Y-88310714D02*
X112003524Y-88346428D01*
X112003524Y-88346428D02*
X111932095Y-88382142D01*
X111932095Y-88382142D02*
X111896381Y-88382142D01*
X111896381Y-88382142D02*
X111824952Y-88346428D01*
X111824952Y-88346428D02*
X111789238Y-88310714D01*
X111789238Y-88310714D02*
X111753524Y-88239285D01*
X111753524Y-88239285D02*
X111753524Y-88096428D01*
X111753524Y-88096428D02*
X111789238Y-88025000D01*
X111789238Y-88025000D02*
X111824952Y-87989285D01*
X111824952Y-87989285D02*
X111896381Y-87953571D01*
X111896381Y-87953571D02*
X111932095Y-87953571D01*
X111932095Y-87953571D02*
X112003524Y-87989285D01*
X112003524Y-87989285D02*
X112039238Y-88025000D01*
X112039238Y-88025000D02*
X112074952Y-88096428D01*
X112074952Y-88096428D02*
X112074952Y-88239285D01*
X112074952Y-88239285D02*
X112110667Y-88310714D01*
X112110667Y-88310714D02*
X112146381Y-88346428D01*
X112146381Y-88346428D02*
X112217810Y-88382142D01*
X112217810Y-88382142D02*
X112360667Y-88382142D01*
X112360667Y-88382142D02*
X112432095Y-88346428D01*
X112432095Y-88346428D02*
X112467810Y-88310714D01*
X112467810Y-88310714D02*
X112503524Y-88239285D01*
X112503524Y-88239285D02*
X112503524Y-88096428D01*
X112503524Y-88096428D02*
X112467810Y-88025000D01*
X112467810Y-88025000D02*
X112432095Y-87989285D01*
X112432095Y-87989285D02*
X112360667Y-87953571D01*
X112360667Y-87953571D02*
X112217810Y-87953571D01*
X112217810Y-87953571D02*
X112146381Y-87989285D01*
X112146381Y-87989285D02*
X112110667Y-88025000D01*
X112110667Y-88025000D02*
X112074952Y-88096428D01*
X114325856Y-123276724D02*
X114075856Y-122919581D01*
X113897285Y-123276724D02*
X113897285Y-122526724D01*
X113897285Y-122526724D02*
X114182999Y-122526724D01*
X114182999Y-122526724D02*
X114254428Y-122562438D01*
X114254428Y-122562438D02*
X114290142Y-122598152D01*
X114290142Y-122598152D02*
X114325856Y-122669581D01*
X114325856Y-122669581D02*
X114325856Y-122776724D01*
X114325856Y-122776724D02*
X114290142Y-122848152D01*
X114290142Y-122848152D02*
X114254428Y-122883867D01*
X114254428Y-122883867D02*
X114182999Y-122919581D01*
X114182999Y-122919581D02*
X113897285Y-122919581D01*
X115040142Y-123276724D02*
X114611571Y-123276724D01*
X114825856Y-123276724D02*
X114825856Y-122526724D01*
X114825856Y-122526724D02*
X114754428Y-122633867D01*
X114754428Y-122633867D02*
X114682999Y-122705295D01*
X114682999Y-122705295D02*
X114611571Y-122741010D01*
X115290142Y-122526724D02*
X115790142Y-122526724D01*
X115790142Y-122526724D02*
X115468714Y-123276724D01*
X83464856Y-117871295D02*
X83429142Y-117907010D01*
X83429142Y-117907010D02*
X83321999Y-117942724D01*
X83321999Y-117942724D02*
X83250571Y-117942724D01*
X83250571Y-117942724D02*
X83143428Y-117907010D01*
X83143428Y-117907010D02*
X83071999Y-117835581D01*
X83071999Y-117835581D02*
X83036285Y-117764152D01*
X83036285Y-117764152D02*
X83000571Y-117621295D01*
X83000571Y-117621295D02*
X83000571Y-117514152D01*
X83000571Y-117514152D02*
X83036285Y-117371295D01*
X83036285Y-117371295D02*
X83071999Y-117299867D01*
X83071999Y-117299867D02*
X83143428Y-117228438D01*
X83143428Y-117228438D02*
X83250571Y-117192724D01*
X83250571Y-117192724D02*
X83321999Y-117192724D01*
X83321999Y-117192724D02*
X83429142Y-117228438D01*
X83429142Y-117228438D02*
X83464856Y-117264152D01*
X84179142Y-117942724D02*
X83750571Y-117942724D01*
X83964856Y-117942724D02*
X83964856Y-117192724D01*
X83964856Y-117192724D02*
X83893428Y-117299867D01*
X83893428Y-117299867D02*
X83821999Y-117371295D01*
X83821999Y-117371295D02*
X83750571Y-117407010D01*
X84822000Y-117192724D02*
X84679142Y-117192724D01*
X84679142Y-117192724D02*
X84607714Y-117228438D01*
X84607714Y-117228438D02*
X84572000Y-117264152D01*
X84572000Y-117264152D02*
X84500571Y-117371295D01*
X84500571Y-117371295D02*
X84464857Y-117514152D01*
X84464857Y-117514152D02*
X84464857Y-117799867D01*
X84464857Y-117799867D02*
X84500571Y-117871295D01*
X84500571Y-117871295D02*
X84536285Y-117907010D01*
X84536285Y-117907010D02*
X84607714Y-117942724D01*
X84607714Y-117942724D02*
X84750571Y-117942724D01*
X84750571Y-117942724D02*
X84822000Y-117907010D01*
X84822000Y-117907010D02*
X84857714Y-117871295D01*
X84857714Y-117871295D02*
X84893428Y-117799867D01*
X84893428Y-117799867D02*
X84893428Y-117621295D01*
X84893428Y-117621295D02*
X84857714Y-117549867D01*
X84857714Y-117549867D02*
X84822000Y-117514152D01*
X84822000Y-117514152D02*
X84750571Y-117478438D01*
X84750571Y-117478438D02*
X84607714Y-117478438D01*
X84607714Y-117478438D02*
X84536285Y-117514152D01*
X84536285Y-117514152D02*
X84500571Y-117549867D01*
X84500571Y-117549867D02*
X84464857Y-117621295D01*
X107848856Y-94829724D02*
X107598856Y-94472581D01*
X107420285Y-94829724D02*
X107420285Y-94079724D01*
X107420285Y-94079724D02*
X107705999Y-94079724D01*
X107705999Y-94079724D02*
X107777428Y-94115438D01*
X107777428Y-94115438D02*
X107813142Y-94151152D01*
X107813142Y-94151152D02*
X107848856Y-94222581D01*
X107848856Y-94222581D02*
X107848856Y-94329724D01*
X107848856Y-94329724D02*
X107813142Y-94401152D01*
X107813142Y-94401152D02*
X107777428Y-94436867D01*
X107777428Y-94436867D02*
X107705999Y-94472581D01*
X107705999Y-94472581D02*
X107420285Y-94472581D01*
X108563142Y-94829724D02*
X108134571Y-94829724D01*
X108348856Y-94829724D02*
X108348856Y-94079724D01*
X108348856Y-94079724D02*
X108277428Y-94186867D01*
X108277428Y-94186867D02*
X108205999Y-94258295D01*
X108205999Y-94258295D02*
X108134571Y-94294010D01*
X109027428Y-94079724D02*
X109098857Y-94079724D01*
X109098857Y-94079724D02*
X109170285Y-94115438D01*
X109170285Y-94115438D02*
X109206000Y-94151152D01*
X109206000Y-94151152D02*
X109241714Y-94222581D01*
X109241714Y-94222581D02*
X109277428Y-94365438D01*
X109277428Y-94365438D02*
X109277428Y-94544010D01*
X109277428Y-94544010D02*
X109241714Y-94686867D01*
X109241714Y-94686867D02*
X109206000Y-94758295D01*
X109206000Y-94758295D02*
X109170285Y-94794010D01*
X109170285Y-94794010D02*
X109098857Y-94829724D01*
X109098857Y-94829724D02*
X109027428Y-94829724D01*
X109027428Y-94829724D02*
X108956000Y-94794010D01*
X108956000Y-94794010D02*
X108920285Y-94758295D01*
X108920285Y-94758295D02*
X108884571Y-94686867D01*
X108884571Y-94686867D02*
X108848857Y-94544010D01*
X108848857Y-94544010D02*
X108848857Y-94365438D01*
X108848857Y-94365438D02*
X108884571Y-94222581D01*
X108884571Y-94222581D02*
X108920285Y-94151152D01*
X108920285Y-94151152D02*
X108956000Y-94115438D01*
X108956000Y-94115438D02*
X109027428Y-94079724D01*
X113309856Y-95756295D02*
X113274142Y-95792010D01*
X113274142Y-95792010D02*
X113166999Y-95827724D01*
X113166999Y-95827724D02*
X113095571Y-95827724D01*
X113095571Y-95827724D02*
X112988428Y-95792010D01*
X112988428Y-95792010D02*
X112916999Y-95720581D01*
X112916999Y-95720581D02*
X112881285Y-95649152D01*
X112881285Y-95649152D02*
X112845571Y-95506295D01*
X112845571Y-95506295D02*
X112845571Y-95399152D01*
X112845571Y-95399152D02*
X112881285Y-95256295D01*
X112881285Y-95256295D02*
X112916999Y-95184867D01*
X112916999Y-95184867D02*
X112988428Y-95113438D01*
X112988428Y-95113438D02*
X113095571Y-95077724D01*
X113095571Y-95077724D02*
X113166999Y-95077724D01*
X113166999Y-95077724D02*
X113274142Y-95113438D01*
X113274142Y-95113438D02*
X113309856Y-95149152D01*
X114024142Y-95827724D02*
X113595571Y-95827724D01*
X113809856Y-95827724D02*
X113809856Y-95077724D01*
X113809856Y-95077724D02*
X113738428Y-95184867D01*
X113738428Y-95184867D02*
X113666999Y-95256295D01*
X113666999Y-95256295D02*
X113595571Y-95292010D01*
X114274142Y-95077724D02*
X114738428Y-95077724D01*
X114738428Y-95077724D02*
X114488428Y-95363438D01*
X114488428Y-95363438D02*
X114595571Y-95363438D01*
X114595571Y-95363438D02*
X114667000Y-95399152D01*
X114667000Y-95399152D02*
X114702714Y-95434867D01*
X114702714Y-95434867D02*
X114738428Y-95506295D01*
X114738428Y-95506295D02*
X114738428Y-95684867D01*
X114738428Y-95684867D02*
X114702714Y-95756295D01*
X114702714Y-95756295D02*
X114667000Y-95792010D01*
X114667000Y-95792010D02*
X114595571Y-95827724D01*
X114595571Y-95827724D02*
X114381285Y-95827724D01*
X114381285Y-95827724D02*
X114309857Y-95792010D01*
X114309857Y-95792010D02*
X114274142Y-95756295D01*
D10*
X122960019Y-98788457D02*
X122483828Y-99121790D01*
X122960019Y-99359885D02*
X121960019Y-99359885D01*
X121960019Y-99359885D02*
X121960019Y-98978933D01*
X121960019Y-98978933D02*
X122007638Y-98883695D01*
X122007638Y-98883695D02*
X122055257Y-98836076D01*
X122055257Y-98836076D02*
X122150495Y-98788457D01*
X122150495Y-98788457D02*
X122293352Y-98788457D01*
X122293352Y-98788457D02*
X122388590Y-98836076D01*
X122388590Y-98836076D02*
X122436209Y-98883695D01*
X122436209Y-98883695D02*
X122483828Y-98978933D01*
X122483828Y-98978933D02*
X122483828Y-99359885D01*
X122055257Y-98407504D02*
X122007638Y-98359885D01*
X122007638Y-98359885D02*
X121960019Y-98264647D01*
X121960019Y-98264647D02*
X121960019Y-98026552D01*
X121960019Y-98026552D02*
X122007638Y-97931314D01*
X122007638Y-97931314D02*
X122055257Y-97883695D01*
X122055257Y-97883695D02*
X122150495Y-97836076D01*
X122150495Y-97836076D02*
X122245733Y-97836076D01*
X122245733Y-97836076D02*
X122388590Y-97883695D01*
X122388590Y-97883695D02*
X122960019Y-98455123D01*
X122960019Y-98455123D02*
X122960019Y-97836076D01*
X122960019Y-96883695D02*
X122960019Y-97455123D01*
X122960019Y-97169409D02*
X121960019Y-97169409D01*
X121960019Y-97169409D02*
X122102876Y-97264647D01*
X122102876Y-97264647D02*
X122198114Y-97359885D01*
X122198114Y-97359885D02*
X122245733Y-97455123D01*
D12*
X105284999Y-123713295D02*
X105249285Y-123749010D01*
X105249285Y-123749010D02*
X105142142Y-123784724D01*
X105142142Y-123784724D02*
X105070714Y-123784724D01*
X105070714Y-123784724D02*
X104963571Y-123749010D01*
X104963571Y-123749010D02*
X104892142Y-123677581D01*
X104892142Y-123677581D02*
X104856428Y-123606152D01*
X104856428Y-123606152D02*
X104820714Y-123463295D01*
X104820714Y-123463295D02*
X104820714Y-123356152D01*
X104820714Y-123356152D02*
X104856428Y-123213295D01*
X104856428Y-123213295D02*
X104892142Y-123141867D01*
X104892142Y-123141867D02*
X104963571Y-123070438D01*
X104963571Y-123070438D02*
X105070714Y-123034724D01*
X105070714Y-123034724D02*
X105142142Y-123034724D01*
X105142142Y-123034724D02*
X105249285Y-123070438D01*
X105249285Y-123070438D02*
X105284999Y-123106152D01*
X105534999Y-123034724D02*
X106034999Y-123034724D01*
X106034999Y-123034724D02*
X105713571Y-123784724D01*
X108229856Y-117871295D02*
X108194142Y-117907010D01*
X108194142Y-117907010D02*
X108086999Y-117942724D01*
X108086999Y-117942724D02*
X108015571Y-117942724D01*
X108015571Y-117942724D02*
X107908428Y-117907010D01*
X107908428Y-117907010D02*
X107836999Y-117835581D01*
X107836999Y-117835581D02*
X107801285Y-117764152D01*
X107801285Y-117764152D02*
X107765571Y-117621295D01*
X107765571Y-117621295D02*
X107765571Y-117514152D01*
X107765571Y-117514152D02*
X107801285Y-117371295D01*
X107801285Y-117371295D02*
X107836999Y-117299867D01*
X107836999Y-117299867D02*
X107908428Y-117228438D01*
X107908428Y-117228438D02*
X108015571Y-117192724D01*
X108015571Y-117192724D02*
X108086999Y-117192724D01*
X108086999Y-117192724D02*
X108194142Y-117228438D01*
X108194142Y-117228438D02*
X108229856Y-117264152D01*
X108944142Y-117942724D02*
X108515571Y-117942724D01*
X108729856Y-117942724D02*
X108729856Y-117192724D01*
X108729856Y-117192724D02*
X108658428Y-117299867D01*
X108658428Y-117299867D02*
X108586999Y-117371295D01*
X108586999Y-117371295D02*
X108515571Y-117407010D01*
X109408428Y-117192724D02*
X109479857Y-117192724D01*
X109479857Y-117192724D02*
X109551285Y-117228438D01*
X109551285Y-117228438D02*
X109587000Y-117264152D01*
X109587000Y-117264152D02*
X109622714Y-117335581D01*
X109622714Y-117335581D02*
X109658428Y-117478438D01*
X109658428Y-117478438D02*
X109658428Y-117657010D01*
X109658428Y-117657010D02*
X109622714Y-117799867D01*
X109622714Y-117799867D02*
X109587000Y-117871295D01*
X109587000Y-117871295D02*
X109551285Y-117907010D01*
X109551285Y-117907010D02*
X109479857Y-117942724D01*
X109479857Y-117942724D02*
X109408428Y-117942724D01*
X109408428Y-117942724D02*
X109337000Y-117907010D01*
X109337000Y-117907010D02*
X109301285Y-117871295D01*
X109301285Y-117871295D02*
X109265571Y-117799867D01*
X109265571Y-117799867D02*
X109229857Y-117657010D01*
X109229857Y-117657010D02*
X109229857Y-117478438D01*
X109229857Y-117478438D02*
X109265571Y-117335581D01*
X109265571Y-117335581D02*
X109301285Y-117264152D01*
X109301285Y-117264152D02*
X109337000Y-117228438D01*
X109337000Y-117228438D02*
X109408428Y-117192724D01*
X81663356Y-104862724D02*
X81413356Y-104505581D01*
X81234785Y-104862724D02*
X81234785Y-104112724D01*
X81234785Y-104112724D02*
X81520499Y-104112724D01*
X81520499Y-104112724D02*
X81591928Y-104148438D01*
X81591928Y-104148438D02*
X81627642Y-104184152D01*
X81627642Y-104184152D02*
X81663356Y-104255581D01*
X81663356Y-104255581D02*
X81663356Y-104362724D01*
X81663356Y-104362724D02*
X81627642Y-104434152D01*
X81627642Y-104434152D02*
X81591928Y-104469867D01*
X81591928Y-104469867D02*
X81520499Y-104505581D01*
X81520499Y-104505581D02*
X81234785Y-104505581D01*
X81949071Y-104184152D02*
X81984785Y-104148438D01*
X81984785Y-104148438D02*
X82056214Y-104112724D01*
X82056214Y-104112724D02*
X82234785Y-104112724D01*
X82234785Y-104112724D02*
X82306214Y-104148438D01*
X82306214Y-104148438D02*
X82341928Y-104184152D01*
X82341928Y-104184152D02*
X82377642Y-104255581D01*
X82377642Y-104255581D02*
X82377642Y-104327010D01*
X82377642Y-104327010D02*
X82341928Y-104434152D01*
X82341928Y-104434152D02*
X81913356Y-104862724D01*
X81913356Y-104862724D02*
X82377642Y-104862724D01*
X82841928Y-104112724D02*
X82913357Y-104112724D01*
X82913357Y-104112724D02*
X82984785Y-104148438D01*
X82984785Y-104148438D02*
X83020500Y-104184152D01*
X83020500Y-104184152D02*
X83056214Y-104255581D01*
X83056214Y-104255581D02*
X83091928Y-104398438D01*
X83091928Y-104398438D02*
X83091928Y-104577010D01*
X83091928Y-104577010D02*
X83056214Y-104719867D01*
X83056214Y-104719867D02*
X83020500Y-104791295D01*
X83020500Y-104791295D02*
X82984785Y-104827010D01*
X82984785Y-104827010D02*
X82913357Y-104862724D01*
X82913357Y-104862724D02*
X82841928Y-104862724D01*
X82841928Y-104862724D02*
X82770500Y-104827010D01*
X82770500Y-104827010D02*
X82734785Y-104791295D01*
X82734785Y-104791295D02*
X82699071Y-104719867D01*
X82699071Y-104719867D02*
X82663357Y-104577010D01*
X82663357Y-104577010D02*
X82663357Y-104398438D01*
X82663357Y-104398438D02*
X82699071Y-104255581D01*
X82699071Y-104255581D02*
X82734785Y-104184152D01*
X82734785Y-104184152D02*
X82770500Y-104148438D01*
X82770500Y-104148438D02*
X82841928Y-104112724D01*
X96535295Y-106043000D02*
X96571010Y-106078714D01*
X96571010Y-106078714D02*
X96606724Y-106185857D01*
X96606724Y-106185857D02*
X96606724Y-106257285D01*
X96606724Y-106257285D02*
X96571010Y-106364428D01*
X96571010Y-106364428D02*
X96499581Y-106435857D01*
X96499581Y-106435857D02*
X96428152Y-106471571D01*
X96428152Y-106471571D02*
X96285295Y-106507285D01*
X96285295Y-106507285D02*
X96178152Y-106507285D01*
X96178152Y-106507285D02*
X96035295Y-106471571D01*
X96035295Y-106471571D02*
X95963867Y-106435857D01*
X95963867Y-106435857D02*
X95892438Y-106364428D01*
X95892438Y-106364428D02*
X95856724Y-106257285D01*
X95856724Y-106257285D02*
X95856724Y-106185857D01*
X95856724Y-106185857D02*
X95892438Y-106078714D01*
X95892438Y-106078714D02*
X95928152Y-106043000D01*
X95856724Y-105364428D02*
X95856724Y-105721571D01*
X95856724Y-105721571D02*
X96213867Y-105757285D01*
X96213867Y-105757285D02*
X96178152Y-105721571D01*
X96178152Y-105721571D02*
X96142438Y-105650143D01*
X96142438Y-105650143D02*
X96142438Y-105471571D01*
X96142438Y-105471571D02*
X96178152Y-105400143D01*
X96178152Y-105400143D02*
X96213867Y-105364428D01*
X96213867Y-105364428D02*
X96285295Y-105328714D01*
X96285295Y-105328714D02*
X96463867Y-105328714D01*
X96463867Y-105328714D02*
X96535295Y-105364428D01*
X96535295Y-105364428D02*
X96571010Y-105400143D01*
X96571010Y-105400143D02*
X96606724Y-105471571D01*
X96606724Y-105471571D02*
X96606724Y-105650143D01*
X96606724Y-105650143D02*
X96571010Y-105721571D01*
X96571010Y-105721571D02*
X96535295Y-105757285D01*
X86446724Y-90760666D02*
X86446724Y-91117809D01*
X86446724Y-91117809D02*
X85696724Y-91117809D01*
X86446724Y-90117809D02*
X86446724Y-90546380D01*
X86446724Y-90332095D02*
X85696724Y-90332095D01*
X85696724Y-90332095D02*
X85803867Y-90403523D01*
X85803867Y-90403523D02*
X85875295Y-90474952D01*
X85875295Y-90474952D02*
X85911010Y-90546380D01*
X124674295Y-89431143D02*
X124710010Y-89466857D01*
X124710010Y-89466857D02*
X124745724Y-89574000D01*
X124745724Y-89574000D02*
X124745724Y-89645428D01*
X124745724Y-89645428D02*
X124710010Y-89752571D01*
X124710010Y-89752571D02*
X124638581Y-89824000D01*
X124638581Y-89824000D02*
X124567152Y-89859714D01*
X124567152Y-89859714D02*
X124424295Y-89895428D01*
X124424295Y-89895428D02*
X124317152Y-89895428D01*
X124317152Y-89895428D02*
X124174295Y-89859714D01*
X124174295Y-89859714D02*
X124102867Y-89824000D01*
X124102867Y-89824000D02*
X124031438Y-89752571D01*
X124031438Y-89752571D02*
X123995724Y-89645428D01*
X123995724Y-89645428D02*
X123995724Y-89574000D01*
X123995724Y-89574000D02*
X124031438Y-89466857D01*
X124031438Y-89466857D02*
X124067152Y-89431143D01*
X124745724Y-88716857D02*
X124745724Y-89145428D01*
X124745724Y-88931143D02*
X123995724Y-88931143D01*
X123995724Y-88931143D02*
X124102867Y-89002571D01*
X124102867Y-89002571D02*
X124174295Y-89074000D01*
X124174295Y-89074000D02*
X124210010Y-89145428D01*
X123995724Y-88466857D02*
X123995724Y-87966857D01*
X123995724Y-87966857D02*
X124745724Y-88288285D01*
X92358085Y-106512724D02*
X92358085Y-105762724D01*
X92358085Y-105762724D02*
X92536656Y-105762724D01*
X92536656Y-105762724D02*
X92643799Y-105798438D01*
X92643799Y-105798438D02*
X92715228Y-105869867D01*
X92715228Y-105869867D02*
X92750942Y-105941295D01*
X92750942Y-105941295D02*
X92786656Y-106084152D01*
X92786656Y-106084152D02*
X92786656Y-106191295D01*
X92786656Y-106191295D02*
X92750942Y-106334152D01*
X92750942Y-106334152D02*
X92715228Y-106405581D01*
X92715228Y-106405581D02*
X92643799Y-106477010D01*
X92643799Y-106477010D02*
X92536656Y-106512724D01*
X92536656Y-106512724D02*
X92358085Y-106512724D01*
X93072371Y-105834152D02*
X93108085Y-105798438D01*
X93108085Y-105798438D02*
X93179514Y-105762724D01*
X93179514Y-105762724D02*
X93358085Y-105762724D01*
X93358085Y-105762724D02*
X93429514Y-105798438D01*
X93429514Y-105798438D02*
X93465228Y-105834152D01*
X93465228Y-105834152D02*
X93500942Y-105905581D01*
X93500942Y-105905581D02*
X93500942Y-105977010D01*
X93500942Y-105977010D02*
X93465228Y-106084152D01*
X93465228Y-106084152D02*
X93036656Y-106512724D01*
X93036656Y-106512724D02*
X93500942Y-106512724D01*
X93929514Y-106084152D02*
X93858085Y-106048438D01*
X93858085Y-106048438D02*
X93822371Y-106012724D01*
X93822371Y-106012724D02*
X93786657Y-105941295D01*
X93786657Y-105941295D02*
X93786657Y-105905581D01*
X93786657Y-105905581D02*
X93822371Y-105834152D01*
X93822371Y-105834152D02*
X93858085Y-105798438D01*
X93858085Y-105798438D02*
X93929514Y-105762724D01*
X93929514Y-105762724D02*
X94072371Y-105762724D01*
X94072371Y-105762724D02*
X94143800Y-105798438D01*
X94143800Y-105798438D02*
X94179514Y-105834152D01*
X94179514Y-105834152D02*
X94215228Y-105905581D01*
X94215228Y-105905581D02*
X94215228Y-105941295D01*
X94215228Y-105941295D02*
X94179514Y-106012724D01*
X94179514Y-106012724D02*
X94143800Y-106048438D01*
X94143800Y-106048438D02*
X94072371Y-106084152D01*
X94072371Y-106084152D02*
X93929514Y-106084152D01*
X93929514Y-106084152D02*
X93858085Y-106119867D01*
X93858085Y-106119867D02*
X93822371Y-106155581D01*
X93822371Y-106155581D02*
X93786657Y-106227010D01*
X93786657Y-106227010D02*
X93786657Y-106369867D01*
X93786657Y-106369867D02*
X93822371Y-106441295D01*
X93822371Y-106441295D02*
X93858085Y-106477010D01*
X93858085Y-106477010D02*
X93929514Y-106512724D01*
X93929514Y-106512724D02*
X94072371Y-106512724D01*
X94072371Y-106512724D02*
X94143800Y-106477010D01*
X94143800Y-106477010D02*
X94179514Y-106441295D01*
X94179514Y-106441295D02*
X94215228Y-106369867D01*
X94215228Y-106369867D02*
X94215228Y-106227010D01*
X94215228Y-106227010D02*
X94179514Y-106155581D01*
X94179514Y-106155581D02*
X94143800Y-106119867D01*
X94143800Y-106119867D02*
X94072371Y-106084152D01*
X98071399Y-91780724D02*
X97821399Y-91423581D01*
X97642828Y-91780724D02*
X97642828Y-91030724D01*
X97642828Y-91030724D02*
X97928542Y-91030724D01*
X97928542Y-91030724D02*
X97999971Y-91066438D01*
X97999971Y-91066438D02*
X98035685Y-91102152D01*
X98035685Y-91102152D02*
X98071399Y-91173581D01*
X98071399Y-91173581D02*
X98071399Y-91280724D01*
X98071399Y-91280724D02*
X98035685Y-91352152D01*
X98035685Y-91352152D02*
X97999971Y-91387867D01*
X97999971Y-91387867D02*
X97928542Y-91423581D01*
X97928542Y-91423581D02*
X97642828Y-91423581D01*
X98357114Y-91102152D02*
X98392828Y-91066438D01*
X98392828Y-91066438D02*
X98464257Y-91030724D01*
X98464257Y-91030724D02*
X98642828Y-91030724D01*
X98642828Y-91030724D02*
X98714257Y-91066438D01*
X98714257Y-91066438D02*
X98749971Y-91102152D01*
X98749971Y-91102152D02*
X98785685Y-91173581D01*
X98785685Y-91173581D02*
X98785685Y-91245010D01*
X98785685Y-91245010D02*
X98749971Y-91352152D01*
X98749971Y-91352152D02*
X98321399Y-91780724D01*
X98321399Y-91780724D02*
X98785685Y-91780724D01*
X103506999Y-109180295D02*
X103471285Y-109216010D01*
X103471285Y-109216010D02*
X103364142Y-109251724D01*
X103364142Y-109251724D02*
X103292714Y-109251724D01*
X103292714Y-109251724D02*
X103185571Y-109216010D01*
X103185571Y-109216010D02*
X103114142Y-109144581D01*
X103114142Y-109144581D02*
X103078428Y-109073152D01*
X103078428Y-109073152D02*
X103042714Y-108930295D01*
X103042714Y-108930295D02*
X103042714Y-108823152D01*
X103042714Y-108823152D02*
X103078428Y-108680295D01*
X103078428Y-108680295D02*
X103114142Y-108608867D01*
X103114142Y-108608867D02*
X103185571Y-108537438D01*
X103185571Y-108537438D02*
X103292714Y-108501724D01*
X103292714Y-108501724D02*
X103364142Y-108501724D01*
X103364142Y-108501724D02*
X103471285Y-108537438D01*
X103471285Y-108537438D02*
X103506999Y-108573152D01*
X104149857Y-108751724D02*
X104149857Y-109251724D01*
X103971285Y-108466010D02*
X103792714Y-109001724D01*
X103792714Y-109001724D02*
X104256999Y-109001724D01*
X97876724Y-122346571D02*
X97126724Y-122346571D01*
X97126724Y-122346571D02*
X97126724Y-122168000D01*
X97126724Y-122168000D02*
X97162438Y-122060857D01*
X97162438Y-122060857D02*
X97233867Y-121989428D01*
X97233867Y-121989428D02*
X97305295Y-121953714D01*
X97305295Y-121953714D02*
X97448152Y-121918000D01*
X97448152Y-121918000D02*
X97555295Y-121918000D01*
X97555295Y-121918000D02*
X97698152Y-121953714D01*
X97698152Y-121953714D02*
X97769581Y-121989428D01*
X97769581Y-121989428D02*
X97841010Y-122060857D01*
X97841010Y-122060857D02*
X97876724Y-122168000D01*
X97876724Y-122168000D02*
X97876724Y-122346571D01*
X97876724Y-121560857D02*
X97876724Y-121418000D01*
X97876724Y-121418000D02*
X97841010Y-121346571D01*
X97841010Y-121346571D02*
X97805295Y-121310857D01*
X97805295Y-121310857D02*
X97698152Y-121239428D01*
X97698152Y-121239428D02*
X97555295Y-121203714D01*
X97555295Y-121203714D02*
X97269581Y-121203714D01*
X97269581Y-121203714D02*
X97198152Y-121239428D01*
X97198152Y-121239428D02*
X97162438Y-121275143D01*
X97162438Y-121275143D02*
X97126724Y-121346571D01*
X97126724Y-121346571D02*
X97126724Y-121489428D01*
X97126724Y-121489428D02*
X97162438Y-121560857D01*
X97162438Y-121560857D02*
X97198152Y-121596571D01*
X97198152Y-121596571D02*
X97269581Y-121632285D01*
X97269581Y-121632285D02*
X97448152Y-121632285D01*
X97448152Y-121632285D02*
X97519581Y-121596571D01*
X97519581Y-121596571D02*
X97555295Y-121560857D01*
X97555295Y-121560857D02*
X97591010Y-121489428D01*
X97591010Y-121489428D02*
X97591010Y-121346571D01*
X97591010Y-121346571D02*
X97555295Y-121275143D01*
X97555295Y-121275143D02*
X97519581Y-121239428D01*
X97519581Y-121239428D02*
X97448152Y-121203714D01*
X81663356Y-108291724D02*
X81413356Y-107934581D01*
X81234785Y-108291724D02*
X81234785Y-107541724D01*
X81234785Y-107541724D02*
X81520499Y-107541724D01*
X81520499Y-107541724D02*
X81591928Y-107577438D01*
X81591928Y-107577438D02*
X81627642Y-107613152D01*
X81627642Y-107613152D02*
X81663356Y-107684581D01*
X81663356Y-107684581D02*
X81663356Y-107791724D01*
X81663356Y-107791724D02*
X81627642Y-107863152D01*
X81627642Y-107863152D02*
X81591928Y-107898867D01*
X81591928Y-107898867D02*
X81520499Y-107934581D01*
X81520499Y-107934581D02*
X81234785Y-107934581D01*
X82377642Y-108291724D02*
X81949071Y-108291724D01*
X82163356Y-108291724D02*
X82163356Y-107541724D01*
X82163356Y-107541724D02*
X82091928Y-107648867D01*
X82091928Y-107648867D02*
X82020499Y-107720295D01*
X82020499Y-107720295D02*
X81949071Y-107756010D01*
X82734785Y-108291724D02*
X82877642Y-108291724D01*
X82877642Y-108291724D02*
X82949071Y-108256010D01*
X82949071Y-108256010D02*
X82984785Y-108220295D01*
X82984785Y-108220295D02*
X83056214Y-108113152D01*
X83056214Y-108113152D02*
X83091928Y-107970295D01*
X83091928Y-107970295D02*
X83091928Y-107684581D01*
X83091928Y-107684581D02*
X83056214Y-107613152D01*
X83056214Y-107613152D02*
X83020500Y-107577438D01*
X83020500Y-107577438D02*
X82949071Y-107541724D01*
X82949071Y-107541724D02*
X82806214Y-107541724D01*
X82806214Y-107541724D02*
X82734785Y-107577438D01*
X82734785Y-107577438D02*
X82699071Y-107613152D01*
X82699071Y-107613152D02*
X82663357Y-107684581D01*
X82663357Y-107684581D02*
X82663357Y-107863152D01*
X82663357Y-107863152D02*
X82699071Y-107934581D01*
X82699071Y-107934581D02*
X82734785Y-107970295D01*
X82734785Y-107970295D02*
X82806214Y-108006010D01*
X82806214Y-108006010D02*
X82949071Y-108006010D01*
X82949071Y-108006010D02*
X83020500Y-107970295D01*
X83020500Y-107970295D02*
X83056214Y-107934581D01*
X83056214Y-107934581D02*
X83091928Y-107863152D01*
X96708324Y-103757000D02*
X96351181Y-104007000D01*
X96708324Y-104185571D02*
X95958324Y-104185571D01*
X95958324Y-104185571D02*
X95958324Y-103899857D01*
X95958324Y-103899857D02*
X95994038Y-103828428D01*
X95994038Y-103828428D02*
X96029752Y-103792714D01*
X96029752Y-103792714D02*
X96101181Y-103757000D01*
X96101181Y-103757000D02*
X96208324Y-103757000D01*
X96208324Y-103757000D02*
X96279752Y-103792714D01*
X96279752Y-103792714D02*
X96315467Y-103828428D01*
X96315467Y-103828428D02*
X96351181Y-103899857D01*
X96351181Y-103899857D02*
X96351181Y-104185571D01*
X95958324Y-103078428D02*
X95958324Y-103435571D01*
X95958324Y-103435571D02*
X96315467Y-103471285D01*
X96315467Y-103471285D02*
X96279752Y-103435571D01*
X96279752Y-103435571D02*
X96244038Y-103364143D01*
X96244038Y-103364143D02*
X96244038Y-103185571D01*
X96244038Y-103185571D02*
X96279752Y-103114143D01*
X96279752Y-103114143D02*
X96315467Y-103078428D01*
X96315467Y-103078428D02*
X96386895Y-103042714D01*
X96386895Y-103042714D02*
X96565467Y-103042714D01*
X96565467Y-103042714D02*
X96636895Y-103078428D01*
X96636895Y-103078428D02*
X96672610Y-103114143D01*
X96672610Y-103114143D02*
X96708324Y-103185571D01*
X96708324Y-103185571D02*
X96708324Y-103364143D01*
X96708324Y-103364143D02*
X96672610Y-103435571D01*
X96672610Y-103435571D02*
X96636895Y-103471285D01*
X88275524Y-99054771D02*
X87525524Y-99054771D01*
X87525524Y-99054771D02*
X87525524Y-98876200D01*
X87525524Y-98876200D02*
X87561238Y-98769057D01*
X87561238Y-98769057D02*
X87632667Y-98697628D01*
X87632667Y-98697628D02*
X87704095Y-98661914D01*
X87704095Y-98661914D02*
X87846952Y-98626200D01*
X87846952Y-98626200D02*
X87954095Y-98626200D01*
X87954095Y-98626200D02*
X88096952Y-98661914D01*
X88096952Y-98661914D02*
X88168381Y-98697628D01*
X88168381Y-98697628D02*
X88239810Y-98769057D01*
X88239810Y-98769057D02*
X88275524Y-98876200D01*
X88275524Y-98876200D02*
X88275524Y-99054771D01*
X87525524Y-98376200D02*
X87525524Y-97911914D01*
X87525524Y-97911914D02*
X87811238Y-98161914D01*
X87811238Y-98161914D02*
X87811238Y-98054771D01*
X87811238Y-98054771D02*
X87846952Y-97983343D01*
X87846952Y-97983343D02*
X87882667Y-97947628D01*
X87882667Y-97947628D02*
X87954095Y-97911914D01*
X87954095Y-97911914D02*
X88132667Y-97911914D01*
X88132667Y-97911914D02*
X88204095Y-97947628D01*
X88204095Y-97947628D02*
X88239810Y-97983343D01*
X88239810Y-97983343D02*
X88275524Y-98054771D01*
X88275524Y-98054771D02*
X88275524Y-98269057D01*
X88275524Y-98269057D02*
X88239810Y-98340485D01*
X88239810Y-98340485D02*
X88204095Y-98376200D01*
X117500856Y-123276724D02*
X117250856Y-122919581D01*
X117072285Y-123276724D02*
X117072285Y-122526724D01*
X117072285Y-122526724D02*
X117357999Y-122526724D01*
X117357999Y-122526724D02*
X117429428Y-122562438D01*
X117429428Y-122562438D02*
X117465142Y-122598152D01*
X117465142Y-122598152D02*
X117500856Y-122669581D01*
X117500856Y-122669581D02*
X117500856Y-122776724D01*
X117500856Y-122776724D02*
X117465142Y-122848152D01*
X117465142Y-122848152D02*
X117429428Y-122883867D01*
X117429428Y-122883867D02*
X117357999Y-122919581D01*
X117357999Y-122919581D02*
X117072285Y-122919581D01*
X118215142Y-123276724D02*
X117786571Y-123276724D01*
X118000856Y-123276724D02*
X118000856Y-122526724D01*
X118000856Y-122526724D02*
X117929428Y-122633867D01*
X117929428Y-122633867D02*
X117857999Y-122705295D01*
X117857999Y-122705295D02*
X117786571Y-122741010D01*
X118643714Y-122848152D02*
X118572285Y-122812438D01*
X118572285Y-122812438D02*
X118536571Y-122776724D01*
X118536571Y-122776724D02*
X118500857Y-122705295D01*
X118500857Y-122705295D02*
X118500857Y-122669581D01*
X118500857Y-122669581D02*
X118536571Y-122598152D01*
X118536571Y-122598152D02*
X118572285Y-122562438D01*
X118572285Y-122562438D02*
X118643714Y-122526724D01*
X118643714Y-122526724D02*
X118786571Y-122526724D01*
X118786571Y-122526724D02*
X118858000Y-122562438D01*
X118858000Y-122562438D02*
X118893714Y-122598152D01*
X118893714Y-122598152D02*
X118929428Y-122669581D01*
X118929428Y-122669581D02*
X118929428Y-122705295D01*
X118929428Y-122705295D02*
X118893714Y-122776724D01*
X118893714Y-122776724D02*
X118858000Y-122812438D01*
X118858000Y-122812438D02*
X118786571Y-122848152D01*
X118786571Y-122848152D02*
X118643714Y-122848152D01*
X118643714Y-122848152D02*
X118572285Y-122883867D01*
X118572285Y-122883867D02*
X118536571Y-122919581D01*
X118536571Y-122919581D02*
X118500857Y-122991010D01*
X118500857Y-122991010D02*
X118500857Y-123133867D01*
X118500857Y-123133867D02*
X118536571Y-123205295D01*
X118536571Y-123205295D02*
X118572285Y-123241010D01*
X118572285Y-123241010D02*
X118643714Y-123276724D01*
X118643714Y-123276724D02*
X118786571Y-123276724D01*
X118786571Y-123276724D02*
X118858000Y-123241010D01*
X118858000Y-123241010D02*
X118893714Y-123205295D01*
X118893714Y-123205295D02*
X118929428Y-123133867D01*
X118929428Y-123133867D02*
X118929428Y-122991010D01*
X118929428Y-122991010D02*
X118893714Y-122919581D01*
X118893714Y-122919581D02*
X118858000Y-122883867D01*
X118858000Y-122883867D02*
X118786571Y-122848152D01*
X86446724Y-103460666D02*
X86446724Y-103817809D01*
X86446724Y-103817809D02*
X85696724Y-103817809D01*
X85768152Y-103246380D02*
X85732438Y-103210666D01*
X85732438Y-103210666D02*
X85696724Y-103139238D01*
X85696724Y-103139238D02*
X85696724Y-102960666D01*
X85696724Y-102960666D02*
X85732438Y-102889238D01*
X85732438Y-102889238D02*
X85768152Y-102853523D01*
X85768152Y-102853523D02*
X85839581Y-102817809D01*
X85839581Y-102817809D02*
X85911010Y-102817809D01*
X85911010Y-102817809D02*
X86018152Y-102853523D01*
X86018152Y-102853523D02*
X86446724Y-103282095D01*
X86446724Y-103282095D02*
X86446724Y-102817809D01*
X79184571Y-114551124D02*
X79184571Y-115158267D01*
X79184571Y-115158267D02*
X79220285Y-115229695D01*
X79220285Y-115229695D02*
X79256000Y-115265410D01*
X79256000Y-115265410D02*
X79327428Y-115301124D01*
X79327428Y-115301124D02*
X79470285Y-115301124D01*
X79470285Y-115301124D02*
X79541714Y-115265410D01*
X79541714Y-115265410D02*
X79577428Y-115229695D01*
X79577428Y-115229695D02*
X79613142Y-115158267D01*
X79613142Y-115158267D02*
X79613142Y-114551124D01*
X80327428Y-114551124D02*
X79970285Y-114551124D01*
X79970285Y-114551124D02*
X79934571Y-114908267D01*
X79934571Y-114908267D02*
X79970285Y-114872552D01*
X79970285Y-114872552D02*
X80041714Y-114836838D01*
X80041714Y-114836838D02*
X80220285Y-114836838D01*
X80220285Y-114836838D02*
X80291714Y-114872552D01*
X80291714Y-114872552D02*
X80327428Y-114908267D01*
X80327428Y-114908267D02*
X80363142Y-114979695D01*
X80363142Y-114979695D02*
X80363142Y-115158267D01*
X80363142Y-115158267D02*
X80327428Y-115229695D01*
X80327428Y-115229695D02*
X80291714Y-115265410D01*
X80291714Y-115265410D02*
X80220285Y-115301124D01*
X80220285Y-115301124D02*
X80041714Y-115301124D01*
X80041714Y-115301124D02*
X79970285Y-115265410D01*
X79970285Y-115265410D02*
X79934571Y-115229695D01*
X108416724Y-104012543D02*
X108059581Y-104262543D01*
X108416724Y-104441114D02*
X107666724Y-104441114D01*
X107666724Y-104441114D02*
X107666724Y-104155400D01*
X107666724Y-104155400D02*
X107702438Y-104083971D01*
X107702438Y-104083971D02*
X107738152Y-104048257D01*
X107738152Y-104048257D02*
X107809581Y-104012543D01*
X107809581Y-104012543D02*
X107916724Y-104012543D01*
X107916724Y-104012543D02*
X107988152Y-104048257D01*
X107988152Y-104048257D02*
X108023867Y-104083971D01*
X108023867Y-104083971D02*
X108059581Y-104155400D01*
X108059581Y-104155400D02*
X108059581Y-104441114D01*
X107738152Y-103726828D02*
X107702438Y-103691114D01*
X107702438Y-103691114D02*
X107666724Y-103619686D01*
X107666724Y-103619686D02*
X107666724Y-103441114D01*
X107666724Y-103441114D02*
X107702438Y-103369686D01*
X107702438Y-103369686D02*
X107738152Y-103333971D01*
X107738152Y-103333971D02*
X107809581Y-103298257D01*
X107809581Y-103298257D02*
X107881010Y-103298257D01*
X107881010Y-103298257D02*
X107988152Y-103333971D01*
X107988152Y-103333971D02*
X108416724Y-103762543D01*
X108416724Y-103762543D02*
X108416724Y-103298257D01*
X107666724Y-103048257D02*
X107666724Y-102583971D01*
X107666724Y-102583971D02*
X107952438Y-102833971D01*
X107952438Y-102833971D02*
X107952438Y-102726828D01*
X107952438Y-102726828D02*
X107988152Y-102655400D01*
X107988152Y-102655400D02*
X108023867Y-102619685D01*
X108023867Y-102619685D02*
X108095295Y-102583971D01*
X108095295Y-102583971D02*
X108273867Y-102583971D01*
X108273867Y-102583971D02*
X108345295Y-102619685D01*
X108345295Y-102619685D02*
X108381010Y-102655400D01*
X108381010Y-102655400D02*
X108416724Y-102726828D01*
X108416724Y-102726828D02*
X108416724Y-102941114D01*
X108416724Y-102941114D02*
X108381010Y-103012542D01*
X108381010Y-103012542D02*
X108345295Y-103048257D01*
X86847371Y-120554152D02*
X86775942Y-120518438D01*
X86775942Y-120518438D02*
X86704514Y-120447010D01*
X86704514Y-120447010D02*
X86597371Y-120339867D01*
X86597371Y-120339867D02*
X86525942Y-120304152D01*
X86525942Y-120304152D02*
X86454514Y-120304152D01*
X86490228Y-120482724D02*
X86418800Y-120447010D01*
X86418800Y-120447010D02*
X86347371Y-120375581D01*
X86347371Y-120375581D02*
X86311657Y-120232724D01*
X86311657Y-120232724D02*
X86311657Y-119982724D01*
X86311657Y-119982724D02*
X86347371Y-119839867D01*
X86347371Y-119839867D02*
X86418800Y-119768438D01*
X86418800Y-119768438D02*
X86490228Y-119732724D01*
X86490228Y-119732724D02*
X86633085Y-119732724D01*
X86633085Y-119732724D02*
X86704514Y-119768438D01*
X86704514Y-119768438D02*
X86775942Y-119839867D01*
X86775942Y-119839867D02*
X86811657Y-119982724D01*
X86811657Y-119982724D02*
X86811657Y-120232724D01*
X86811657Y-120232724D02*
X86775942Y-120375581D01*
X86775942Y-120375581D02*
X86704514Y-120447010D01*
X86704514Y-120447010D02*
X86633085Y-120482724D01*
X86633085Y-120482724D02*
X86490228Y-120482724D01*
X87097371Y-119804152D02*
X87133085Y-119768438D01*
X87133085Y-119768438D02*
X87204514Y-119732724D01*
X87204514Y-119732724D02*
X87383085Y-119732724D01*
X87383085Y-119732724D02*
X87454514Y-119768438D01*
X87454514Y-119768438D02*
X87490228Y-119804152D01*
X87490228Y-119804152D02*
X87525942Y-119875581D01*
X87525942Y-119875581D02*
X87525942Y-119947010D01*
X87525942Y-119947010D02*
X87490228Y-120054152D01*
X87490228Y-120054152D02*
X87061656Y-120482724D01*
X87061656Y-120482724D02*
X87525942Y-120482724D01*
X93477228Y-103718724D02*
X93477228Y-102968724D01*
X93477228Y-102968724D02*
X93655799Y-102968724D01*
X93655799Y-102968724D02*
X93762942Y-103004438D01*
X93762942Y-103004438D02*
X93834371Y-103075867D01*
X93834371Y-103075867D02*
X93870085Y-103147295D01*
X93870085Y-103147295D02*
X93905799Y-103290152D01*
X93905799Y-103290152D02*
X93905799Y-103397295D01*
X93905799Y-103397295D02*
X93870085Y-103540152D01*
X93870085Y-103540152D02*
X93834371Y-103611581D01*
X93834371Y-103611581D02*
X93762942Y-103683010D01*
X93762942Y-103683010D02*
X93655799Y-103718724D01*
X93655799Y-103718724D02*
X93477228Y-103718724D01*
X94584371Y-102968724D02*
X94227228Y-102968724D01*
X94227228Y-102968724D02*
X94191514Y-103325867D01*
X94191514Y-103325867D02*
X94227228Y-103290152D01*
X94227228Y-103290152D02*
X94298657Y-103254438D01*
X94298657Y-103254438D02*
X94477228Y-103254438D01*
X94477228Y-103254438D02*
X94548657Y-103290152D01*
X94548657Y-103290152D02*
X94584371Y-103325867D01*
X94584371Y-103325867D02*
X94620085Y-103397295D01*
X94620085Y-103397295D02*
X94620085Y-103575867D01*
X94620085Y-103575867D02*
X94584371Y-103647295D01*
X94584371Y-103647295D02*
X94548657Y-103683010D01*
X94548657Y-103683010D02*
X94477228Y-103718724D01*
X94477228Y-103718724D02*
X94298657Y-103718724D01*
X94298657Y-103718724D02*
X94227228Y-103683010D01*
X94227228Y-103683010D02*
X94191514Y-103647295D01*
X92847524Y-122168771D02*
X92097524Y-122168771D01*
X92097524Y-122168771D02*
X92097524Y-121990200D01*
X92097524Y-121990200D02*
X92133238Y-121883057D01*
X92133238Y-121883057D02*
X92204667Y-121811628D01*
X92204667Y-121811628D02*
X92276095Y-121775914D01*
X92276095Y-121775914D02*
X92418952Y-121740200D01*
X92418952Y-121740200D02*
X92526095Y-121740200D01*
X92526095Y-121740200D02*
X92668952Y-121775914D01*
X92668952Y-121775914D02*
X92740381Y-121811628D01*
X92740381Y-121811628D02*
X92811810Y-121883057D01*
X92811810Y-121883057D02*
X92847524Y-121990200D01*
X92847524Y-121990200D02*
X92847524Y-122168771D01*
X92418952Y-121311628D02*
X92383238Y-121383057D01*
X92383238Y-121383057D02*
X92347524Y-121418771D01*
X92347524Y-121418771D02*
X92276095Y-121454485D01*
X92276095Y-121454485D02*
X92240381Y-121454485D01*
X92240381Y-121454485D02*
X92168952Y-121418771D01*
X92168952Y-121418771D02*
X92133238Y-121383057D01*
X92133238Y-121383057D02*
X92097524Y-121311628D01*
X92097524Y-121311628D02*
X92097524Y-121168771D01*
X92097524Y-121168771D02*
X92133238Y-121097343D01*
X92133238Y-121097343D02*
X92168952Y-121061628D01*
X92168952Y-121061628D02*
X92240381Y-121025914D01*
X92240381Y-121025914D02*
X92276095Y-121025914D01*
X92276095Y-121025914D02*
X92347524Y-121061628D01*
X92347524Y-121061628D02*
X92383238Y-121097343D01*
X92383238Y-121097343D02*
X92418952Y-121168771D01*
X92418952Y-121168771D02*
X92418952Y-121311628D01*
X92418952Y-121311628D02*
X92454667Y-121383057D01*
X92454667Y-121383057D02*
X92490381Y-121418771D01*
X92490381Y-121418771D02*
X92561810Y-121454485D01*
X92561810Y-121454485D02*
X92704667Y-121454485D01*
X92704667Y-121454485D02*
X92776095Y-121418771D01*
X92776095Y-121418771D02*
X92811810Y-121383057D01*
X92811810Y-121383057D02*
X92847524Y-121311628D01*
X92847524Y-121311628D02*
X92847524Y-121168771D01*
X92847524Y-121168771D02*
X92811810Y-121097343D01*
X92811810Y-121097343D02*
X92776095Y-121061628D01*
X92776095Y-121061628D02*
X92704667Y-121025914D01*
X92704667Y-121025914D02*
X92561810Y-121025914D01*
X92561810Y-121025914D02*
X92490381Y-121061628D01*
X92490381Y-121061628D02*
X92454667Y-121097343D01*
X92454667Y-121097343D02*
X92418952Y-121168771D01*
X86954724Y-118257171D02*
X86204724Y-118257171D01*
X86204724Y-118257171D02*
X86204724Y-118078600D01*
X86204724Y-118078600D02*
X86240438Y-117971457D01*
X86240438Y-117971457D02*
X86311867Y-117900028D01*
X86311867Y-117900028D02*
X86383295Y-117864314D01*
X86383295Y-117864314D02*
X86526152Y-117828600D01*
X86526152Y-117828600D02*
X86633295Y-117828600D01*
X86633295Y-117828600D02*
X86776152Y-117864314D01*
X86776152Y-117864314D02*
X86847581Y-117900028D01*
X86847581Y-117900028D02*
X86919010Y-117971457D01*
X86919010Y-117971457D02*
X86954724Y-118078600D01*
X86954724Y-118078600D02*
X86954724Y-118257171D01*
X86204724Y-117578600D02*
X86204724Y-117078600D01*
X86204724Y-117078600D02*
X86954724Y-117400028D01*
X98862028Y-112119524D02*
X98862028Y-111369524D01*
X98862028Y-111369524D02*
X99040599Y-111369524D01*
X99040599Y-111369524D02*
X99147742Y-111405238D01*
X99147742Y-111405238D02*
X99219171Y-111476667D01*
X99219171Y-111476667D02*
X99254885Y-111548095D01*
X99254885Y-111548095D02*
X99290599Y-111690952D01*
X99290599Y-111690952D02*
X99290599Y-111798095D01*
X99290599Y-111798095D02*
X99254885Y-111940952D01*
X99254885Y-111940952D02*
X99219171Y-112012381D01*
X99219171Y-112012381D02*
X99147742Y-112083810D01*
X99147742Y-112083810D02*
X99040599Y-112119524D01*
X99040599Y-112119524D02*
X98862028Y-112119524D01*
X99933457Y-111369524D02*
X99790599Y-111369524D01*
X99790599Y-111369524D02*
X99719171Y-111405238D01*
X99719171Y-111405238D02*
X99683457Y-111440952D01*
X99683457Y-111440952D02*
X99612028Y-111548095D01*
X99612028Y-111548095D02*
X99576314Y-111690952D01*
X99576314Y-111690952D02*
X99576314Y-111976667D01*
X99576314Y-111976667D02*
X99612028Y-112048095D01*
X99612028Y-112048095D02*
X99647742Y-112083810D01*
X99647742Y-112083810D02*
X99719171Y-112119524D01*
X99719171Y-112119524D02*
X99862028Y-112119524D01*
X99862028Y-112119524D02*
X99933457Y-112083810D01*
X99933457Y-112083810D02*
X99969171Y-112048095D01*
X99969171Y-112048095D02*
X100004885Y-111976667D01*
X100004885Y-111976667D02*
X100004885Y-111798095D01*
X100004885Y-111798095D02*
X99969171Y-111726667D01*
X99969171Y-111726667D02*
X99933457Y-111690952D01*
X99933457Y-111690952D02*
X99862028Y-111655238D01*
X99862028Y-111655238D02*
X99719171Y-111655238D01*
X99719171Y-111655238D02*
X99647742Y-111690952D01*
X99647742Y-111690952D02*
X99612028Y-111726667D01*
X99612028Y-111726667D02*
X99576314Y-111798095D01*
X106961000Y-91974936D02*
X106961000Y-92429064D01*
X108431000Y-91974936D02*
X108431000Y-92429064D01*
X94615000Y-111470000D02*
X93965000Y-111470000D01*
X94615000Y-111470000D02*
X95265000Y-111470000D01*
X94615000Y-114590000D02*
X93965000Y-114590000D01*
X94615000Y-114590000D02*
X95265000Y-114590000D01*
X96017500Y-114870000D02*
X95537500Y-114870000D01*
X95777500Y-114540000D01*
X96017500Y-114870000D01*
G36*
X96017500Y-114870000D02*
G01*
X95537500Y-114870000D01*
X95777500Y-114540000D01*
X96017500Y-114870000D01*
G37*
X121099252Y-110771000D02*
X120576748Y-110771000D01*
X121099252Y-112241000D02*
X120576748Y-112241000D01*
X105691000Y-99179748D02*
X105691000Y-99702252D01*
X107161000Y-99179748D02*
X107161000Y-99702252D01*
X119407000Y-104005748D02*
X119407000Y-104528252D01*
X120877000Y-104005748D02*
X120877000Y-104528252D01*
X88445000Y-100303667D02*
X88445000Y-102303667D01*
X88445000Y-100303667D02*
X92455000Y-100303667D01*
X88445000Y-102303667D02*
X92455000Y-102303667D01*
X123217000Y-114114252D02*
X123217000Y-113591748D01*
X124687000Y-114114252D02*
X124687000Y-113591748D01*
X71297000Y-91486000D02*
X71297000Y-101836000D01*
X71297000Y-101836000D02*
X72247000Y-101836000D01*
X71997000Y-102336000D02*
X73897000Y-102336000D01*
X72247000Y-101836000D02*
X71997000Y-102336000D01*
X73697000Y-101836000D02*
X79097000Y-101836000D01*
X73897000Y-102336000D02*
X73947000Y-102336000D01*
X73947000Y-102336000D02*
X73697000Y-101836000D01*
X78797000Y-102336000D02*
X83897000Y-102336000D01*
X79097000Y-101836000D02*
X78797000Y-102336000D01*
X83897000Y-91486000D02*
X71297000Y-91486000D01*
X83897000Y-102336000D02*
X83897000Y-91486000D01*
X85323000Y-113868252D02*
X85323000Y-112445748D01*
X87143000Y-113868252D02*
X87143000Y-112445748D01*
X100183000Y-92964000D02*
X100183000Y-91014000D01*
X100183000Y-92964000D02*
X100183000Y-94914000D01*
X105303000Y-92964000D02*
X105303000Y-91014000D01*
X105303000Y-92964000D02*
X105303000Y-94914000D01*
X105538000Y-90504000D02*
X105208000Y-90264000D01*
X105538000Y-90024000D01*
X105538000Y-90504000D01*
G36*
X105538000Y-90504000D02*
G01*
X105208000Y-90264000D01*
X105538000Y-90024000D01*
X105538000Y-90504000D01*
G37*
X94579000Y-89535000D02*
X94579000Y-88885000D01*
X94579000Y-89535000D02*
X94579000Y-90185000D01*
X97699000Y-89535000D02*
X97699000Y-88885000D01*
X97699000Y-89535000D02*
X97699000Y-90185000D01*
X97979000Y-88612500D02*
X97649000Y-88372500D01*
X97979000Y-88132500D01*
X97979000Y-88612500D01*
G36*
X97979000Y-88612500D02*
G01*
X97649000Y-88372500D01*
X97979000Y-88132500D01*
X97979000Y-88612500D01*
G37*
X103024000Y-103277936D02*
X103024000Y-103732064D01*
X104494000Y-103277936D02*
X104494000Y-103732064D01*
X71394000Y-119953000D02*
X71394000Y-118003000D01*
X71394000Y-119953000D02*
X71394000Y-121903000D01*
X81514000Y-119953000D02*
X81514000Y-118003000D01*
X81514000Y-119953000D02*
X81514000Y-121903000D01*
X81789000Y-117493000D02*
X81459000Y-117253000D01*
X81789000Y-117013000D01*
X81789000Y-117493000D01*
G36*
X81789000Y-117493000D02*
G01*
X81459000Y-117253000D01*
X81789000Y-117013000D01*
X81789000Y-117493000D01*
G37*
X97309000Y-99213936D02*
X97309000Y-99668064D01*
X98779000Y-99213936D02*
X98779000Y-99668064D01*
X111659936Y-119407000D02*
X112114064Y-119407000D01*
X111659936Y-120877000D02*
X112114064Y-120877000D01*
X122709000Y-118644936D02*
X122709000Y-119099064D01*
X124179000Y-118644936D02*
X124179000Y-119099064D01*
X118410000Y-106808000D02*
X118410000Y-110108000D01*
X118410000Y-106808000D02*
X123920000Y-106808000D01*
X118410000Y-110108000D02*
X123920000Y-110108000D01*
X123144400Y-92193400D02*
X123144400Y-94878400D01*
X125064400Y-92193400D02*
X123144400Y-92193400D01*
X125064400Y-94878400D02*
X125064400Y-92193400D01*
X101719748Y-86830000D02*
X102242252Y-86830000D01*
X101719748Y-88300000D02*
X102242252Y-88300000D01*
X93165000Y-94631000D02*
X89155000Y-94631000D01*
X93165000Y-96631000D02*
X89155000Y-96631000D01*
X93165000Y-96631000D02*
X93165000Y-94631000D01*
X110890000Y-103805000D02*
X112290000Y-103805000D01*
X110890000Y-110825000D02*
X110890000Y-103805000D01*
X112290000Y-110825000D02*
X110890000Y-110825000D01*
X116310000Y-103805000D02*
X117710000Y-103805000D01*
X117710000Y-103805000D02*
X117710000Y-110825000D01*
X117710000Y-110825000D02*
X116310000Y-110825000D01*
X112114064Y-114581000D02*
X111659936Y-114581000D01*
X112114064Y-116051000D02*
X111659936Y-116051000D01*
X90196936Y-114454000D02*
X90651064Y-114454000D01*
X90196936Y-115924000D02*
X90651064Y-115924000D01*
X100230000Y-99213936D02*
X100230000Y-99668064D01*
X101700000Y-99213936D02*
X101700000Y-99668064D01*
X100230000Y-103277936D02*
X100230000Y-103732064D01*
X101700000Y-103277936D02*
X101700000Y-103732064D01*
X103024000Y-99668064D02*
X103024000Y-99213936D01*
X104494000Y-99668064D02*
X104494000Y-99213936D01*
X117983000Y-113010000D02*
X116033000Y-113010000D01*
X117983000Y-113010000D02*
X119933000Y-113010000D01*
X117983000Y-118130000D02*
X116033000Y-118130000D01*
X117983000Y-118130000D02*
X119933000Y-118130000D01*
X115283000Y-113105000D02*
X115043000Y-112775000D01*
X115523000Y-112775000D01*
X115283000Y-113105000D01*
G36*
X115283000Y-113105000D02*
G01*
X115043000Y-112775000D01*
X115523000Y-112775000D01*
X115283000Y-113105000D01*
G37*
X125836000Y-113995252D02*
X125836000Y-112572748D01*
X127656000Y-113995252D02*
X127656000Y-112572748D01*
X111659936Y-112295000D02*
X112114064Y-112295000D01*
X111659936Y-113765000D02*
X112114064Y-113765000D01*
X123169000Y-103047748D02*
X123169000Y-104470252D01*
X124989000Y-103047748D02*
X124989000Y-104470252D01*
X90627564Y-111533000D02*
X90173436Y-111533000D01*
X90627564Y-113003000D02*
X90173436Y-113003000D01*
X88445000Y-91794667D02*
X88445000Y-93794667D01*
X88445000Y-91794667D02*
X92455000Y-91794667D01*
X88445000Y-93794667D02*
X92455000Y-93794667D01*
X115698600Y-88723736D02*
X115698600Y-89177864D01*
X117168600Y-88723736D02*
X117168600Y-89177864D01*
X90431252Y-103532000D02*
X89908748Y-103532000D01*
X90431252Y-105002000D02*
X89908748Y-105002000D01*
X91178748Y-89435000D02*
X91701252Y-89435000D01*
X91178748Y-90905000D02*
X91701252Y-90905000D01*
X94213000Y-95088064D02*
X94213000Y-93633936D01*
X96033000Y-95088064D02*
X96033000Y-93633936D01*
X113107800Y-89161252D02*
X113107800Y-88638748D01*
X114577800Y-89161252D02*
X114577800Y-88638748D01*
X114454000Y-120041936D02*
X114454000Y-120496064D01*
X115924000Y-120041936D02*
X115924000Y-120496064D01*
X83212000Y-120276252D02*
X83212000Y-119753748D01*
X84682000Y-120276252D02*
X84682000Y-119753748D01*
X108103936Y-95404000D02*
X108558064Y-95404000D01*
X108103936Y-96874000D02*
X108558064Y-96874000D01*
X110167000Y-97502000D02*
X110792000Y-97502000D01*
X110479500Y-97189500D02*
X110479500Y-97814500D01*
X111032000Y-97491437D02*
X111032000Y-98127000D01*
X111032000Y-97491437D02*
X112096437Y-96427000D01*
X111032000Y-100882563D02*
X111032000Y-100247000D01*
X111032000Y-100882563D02*
X112096437Y-101947000D01*
X112096437Y-96427000D02*
X116552000Y-96427000D01*
X112096437Y-101947000D02*
X116552000Y-101947000D01*
X116552000Y-96427000D02*
X116552000Y-98127000D01*
X116552000Y-101947000D02*
X116552000Y-100247000D01*
X123420200Y-98372664D02*
X123420200Y-97918536D01*
X124890200Y-98372664D02*
X124890200Y-97918536D01*
X98383000Y-113623000D02*
X101233000Y-113623000D01*
X98383000Y-121278563D02*
X98383000Y-113623000D01*
X99447437Y-122343000D02*
X98383000Y-121278563D01*
X99447437Y-122343000D02*
X101233000Y-122343000D01*
X99733000Y-123083000D02*
X100733000Y-123083000D01*
X100233000Y-123583000D02*
X100233000Y-122583000D01*
X106038563Y-122343000D02*
X104253000Y-122343000D01*
X106038563Y-122343000D02*
X107103000Y-121278563D01*
X107103000Y-113623000D02*
X104253000Y-113623000D01*
X107103000Y-121278563D02*
X107103000Y-113623000D01*
X111625748Y-116867000D02*
X112148252Y-116867000D01*
X111625748Y-118337000D02*
X112148252Y-118337000D01*
X81918436Y-105437000D02*
X82372564Y-105437000D01*
X81918436Y-106907000D02*
X82372564Y-106907000D01*
X98544748Y-106199000D02*
X99067252Y-106199000D01*
X98544748Y-107669000D02*
X99067252Y-107669000D01*
X85196000Y-94950909D02*
X85196000Y-93280425D01*
X87016000Y-94950909D02*
X87016000Y-93280425D01*
X121645000Y-88237748D02*
X121645000Y-89660252D01*
X123465000Y-88237748D02*
X123465000Y-89660252D01*
X88692000Y-107062000D02*
X88692000Y-110362000D01*
X88692000Y-107062000D02*
X94202000Y-107062000D01*
X88692000Y-110362000D02*
X94202000Y-110362000D01*
X97261000Y-95088064D02*
X97261000Y-93633936D01*
X99081000Y-95088064D02*
X99081000Y-93633936D01*
X104343252Y-106151000D02*
X102920748Y-106151000D01*
X104343252Y-107971000D02*
X102920748Y-107971000D01*
X93346000Y-116124000D02*
X93346000Y-121634000D01*
X96646000Y-116124000D02*
X93346000Y-116124000D01*
X96646000Y-116124000D02*
X96646000Y-121634000D01*
X81918436Y-108866000D02*
X82372564Y-108866000D01*
X81918436Y-110336000D02*
X82372564Y-110336000D01*
X97309000Y-103277936D02*
X97309000Y-103732064D01*
X98779000Y-103277936D02*
X98779000Y-103732064D01*
X93165000Y-97467334D02*
X89155000Y-97467334D01*
X93165000Y-99467334D02*
X89155000Y-99467334D01*
X93165000Y-99467334D02*
X93165000Y-97467334D01*
X116740000Y-120041936D02*
X116740000Y-120496064D01*
X118210000Y-120041936D02*
X118210000Y-120496064D01*
X85196000Y-100741909D02*
X85196000Y-99071425D01*
X87016000Y-100741909D02*
X87016000Y-99071425D01*
X80736000Y-113538000D02*
X80736000Y-112738000D01*
X80736000Y-113538000D02*
X80736000Y-114338000D01*
X83856000Y-113538000D02*
X83856000Y-112738000D01*
X83856000Y-113538000D02*
X83856000Y-114338000D01*
X84136000Y-112478000D02*
X83806000Y-112238000D01*
X84136000Y-111998000D01*
X84136000Y-112478000D01*
G36*
X84136000Y-112478000D02*
G01*
X83806000Y-112238000D01*
X84136000Y-111998000D01*
X84136000Y-112478000D01*
G37*
X105691000Y-103303336D02*
X105691000Y-103757464D01*
X107161000Y-103303336D02*
X107161000Y-103757464D01*
X87629000Y-121029000D02*
X86229000Y-121029000D01*
X87639000Y-123349000D02*
X86229000Y-123349000D01*
X88249000Y-123629000D02*
X87769000Y-123629000D01*
X88009000Y-123299000D01*
X88249000Y-123629000D01*
G36*
X88249000Y-123629000D02*
G01*
X87769000Y-123629000D01*
X88009000Y-123299000D01*
X88249000Y-123629000D01*
G37*
X94123000Y-97716000D02*
X94123000Y-101726000D01*
X96123000Y-97716000D02*
X94123000Y-97716000D01*
X96123000Y-97716000D02*
X96123000Y-101726000D01*
X91678000Y-119255200D02*
X89678000Y-119255200D01*
X91678000Y-119255200D02*
X91678000Y-123265200D01*
X89678000Y-119255200D02*
X89678000Y-123265200D01*
X91869600Y-118703600D02*
X91869600Y-116703600D01*
X91869600Y-118703600D02*
X87859600Y-118703600D01*
X91869600Y-116703600D02*
X87859600Y-116703600D01*
X101775600Y-110778800D02*
X101775600Y-108778800D01*
X101775600Y-110778800D02*
X97765600Y-110778800D01*
X101775600Y-108778800D02*
X97765600Y-108778800D01*
M02*
