G04 #@! TF.GenerationSoftware,KiCad,Pcbnew,9.0.4*
G04 #@! TF.CreationDate,2025-10-03T12:39:18+02:00*
G04 #@! TF.ProjectId,Mini-EMS-ESP,4d696e69-2d45-44d5-932d-4553502e6b69,rev?*
G04 #@! TF.SameCoordinates,Original*
G04 #@! TF.FileFunction,Copper,L4,Bot*
G04 #@! TF.FilePolarity,Positive*
%FSLAX46Y46*%
G04 Gerber Fmt 4.6, Leading zero omitted, Abs format (unit mm)*
G04 Created by KiCad (PCBNEW 9.0.4) date 2025-10-03 12:39:18*
%MOMM*%
%LPD*%
G01*
G04 APERTURE LIST*
G04 #@! TA.AperFunction,ComponentPad*
%ADD10O,1.600000X1.000000*%
G04 #@! TD*
G04 #@! TA.AperFunction,ComponentPad*
%ADD11O,2.100000X1.000000*%
G04 #@! TD*
G04 #@! TA.AperFunction,ComponentPad*
%ADD12R,3.960000X1.980000*%
G04 #@! TD*
G04 #@! TA.AperFunction,ComponentPad*
%ADD13O,3.960000X1.980000*%
G04 #@! TD*
G04 #@! TA.AperFunction,SMDPad,CuDef*
%ADD14R,1.500000X0.900000*%
G04 #@! TD*
G04 #@! TA.AperFunction,SMDPad,CuDef*
%ADD15R,0.900000X1.500000*%
G04 #@! TD*
G04 #@! TA.AperFunction,SMDPad,CuDef*
%ADD16R,1.050000X1.050000*%
G04 #@! TD*
G04 #@! TA.AperFunction,HeatsinkPad*
%ADD17C,0.600000*%
G04 #@! TD*
G04 #@! TA.AperFunction,HeatsinkPad*
%ADD18R,4.200000X4.200000*%
G04 #@! TD*
G04 #@! TA.AperFunction,ViaPad*
%ADD19C,0.450000*%
G04 #@! TD*
G04 #@! TA.AperFunction,Conductor*
%ADD20C,0.250000*%
G04 #@! TD*
G04 #@! TA.AperFunction,Conductor*
%ADD21C,0.500000*%
G04 #@! TD*
G04 APERTURE END LIST*
D10*
X73826000Y-113032000D03*
X73826000Y-113032000D03*
D11*
X78006000Y-113032000D03*
X78006000Y-113032000D03*
D10*
X73826000Y-104392000D03*
X73826000Y-104392000D03*
D11*
X78006000Y-104392000D03*
X78006000Y-104392000D03*
D12*
X77597000Y-94136000D03*
D13*
X77597000Y-99136000D03*
D14*
X125704000Y-87249000D03*
X125704000Y-88519000D03*
X125704000Y-89789000D03*
X125704000Y-91059000D03*
X125704000Y-92329000D03*
X125704000Y-93599000D03*
X125704000Y-94869000D03*
X125704000Y-96139000D03*
X125704000Y-97409000D03*
X125704000Y-98679000D03*
X125704000Y-99949000D03*
X125704000Y-101219000D03*
X125704000Y-102489000D03*
X125704000Y-103759000D03*
D15*
X122664000Y-105009000D03*
X121394000Y-105009000D03*
X120124000Y-105009000D03*
X118854000Y-105009000D03*
X117584000Y-105009000D03*
X116314000Y-105009000D03*
X115044000Y-105009000D03*
X113774000Y-105009000D03*
X112504000Y-105009000D03*
X111234000Y-105009000D03*
D14*
X108204000Y-103759000D03*
X108204000Y-102489000D03*
X108204000Y-101219000D03*
X108204000Y-99949000D03*
X108204000Y-98679000D03*
X108204000Y-97409000D03*
X108204000Y-96139000D03*
X108204000Y-94869000D03*
X108204000Y-93599000D03*
X108204000Y-92329000D03*
X108204000Y-91059000D03*
X108204000Y-89789000D03*
X108204000Y-88519000D03*
X108204000Y-87249000D03*
D16*
X119159000Y-96114000D03*
D17*
X119159000Y-95351500D03*
D16*
X119159000Y-94589000D03*
D17*
X119159000Y-93826500D03*
D16*
X119159000Y-93064000D03*
D17*
X118396500Y-96114000D03*
X118396500Y-94589000D03*
X118396500Y-93064000D03*
D16*
X117634000Y-96114000D03*
D17*
X117634000Y-95351500D03*
D16*
X117634000Y-94589000D03*
D18*
X117634000Y-94589000D03*
D17*
X117634000Y-93826500D03*
D16*
X117634000Y-93064000D03*
D17*
X116871500Y-96114000D03*
X116871500Y-94589000D03*
X116871500Y-93064000D03*
D16*
X116109000Y-96114000D03*
D17*
X116109000Y-95351500D03*
D16*
X116109000Y-94589000D03*
D17*
X116109000Y-93826500D03*
D16*
X116109000Y-93064000D03*
D19*
X101889168Y-109712368D03*
X94538800Y-113995200D03*
X92252800Y-115163600D03*
X118745000Y-115443000D03*
X79502000Y-112522000D03*
X118745000Y-114554000D03*
X103632000Y-112522000D03*
X117221000Y-115443000D03*
X125603000Y-106553000D03*
X117221000Y-116332000D03*
X82677000Y-118999000D03*
X101854000Y-112522000D03*
X117983000Y-117221000D03*
X102743000Y-112522000D03*
X118745000Y-113665000D03*
X117221000Y-117221000D03*
X121285000Y-119761000D03*
X119761000Y-118745000D03*
X81534000Y-117475000D03*
X100203000Y-87503000D03*
X117983000Y-115443000D03*
X117221000Y-98679000D03*
X124841000Y-106553000D03*
X84963000Y-111633000D03*
X92456000Y-93726000D03*
X118999000Y-118745000D03*
X83058000Y-107188000D03*
X120523000Y-119761000D03*
X93218000Y-90170000D03*
X120523000Y-120777000D03*
X124104400Y-91897200D03*
X95123000Y-89535000D03*
X83058000Y-110490000D03*
X117221000Y-114554000D03*
X124079000Y-106553000D03*
X119761000Y-119761000D03*
X118999000Y-120777000D03*
X82042000Y-111506000D03*
X79375000Y-105029000D03*
X100838000Y-91821000D03*
X126746000Y-87249000D03*
X105283000Y-100457000D03*
X95123000Y-102489000D03*
X118745000Y-117221000D03*
X117983000Y-116332000D03*
X117221000Y-99695000D03*
X119761000Y-120777000D03*
X124079000Y-87249000D03*
X104775000Y-104394000D03*
X117221000Y-113665000D03*
X92456000Y-102235000D03*
X117983000Y-114554000D03*
X107315000Y-87249000D03*
X123317000Y-106553000D03*
X121285000Y-118745000D03*
X118999000Y-119761000D03*
X118745000Y-116332000D03*
X117983000Y-113665000D03*
X113842800Y-87122000D03*
X121285000Y-120777000D03*
X120523000Y-118745000D03*
X105123000Y-97188000D03*
X115824000Y-101600000D03*
X112776000Y-101600000D03*
X118364000Y-121158000D03*
X113792000Y-101600000D03*
X110363000Y-99695000D03*
X116840000Y-101600000D03*
X106553000Y-93091000D03*
X126746000Y-88519000D03*
X124333000Y-88519000D03*
X110363000Y-98679000D03*
X116433600Y-87071200D03*
X119126000Y-103378000D03*
X82448400Y-121818400D03*
X114808000Y-101600000D03*
X117856000Y-101600000D03*
X102006400Y-98501200D03*
X103378000Y-107137200D03*
X100838000Y-106984800D03*
X101778750Y-101778750D03*
X103505000Y-92185000D03*
X122809000Y-114935000D03*
X111760000Y-113030000D03*
X87503000Y-121285000D03*
X107543600Y-104800400D03*
X86360000Y-123190000D03*
X122936000Y-92025000D03*
X98044000Y-89052400D03*
X104648000Y-89052400D03*
X110109000Y-96139000D03*
X79629000Y-118745000D03*
X78359000Y-118872000D03*
X80137000Y-109855000D03*
X83185000Y-111506000D03*
X81153000Y-111142000D03*
X79947000Y-108913000D03*
X126949200Y-96164400D03*
D20*
X93370400Y-115163600D02*
X94538800Y-113995200D01*
X92252800Y-115163600D02*
X93370400Y-115163600D01*
D21*
X122664000Y-105009000D02*
X122664000Y-105900000D01*
X124079000Y-87249000D02*
X125704000Y-87249000D01*
X107315000Y-87249000D02*
X108204000Y-87249000D01*
X125704000Y-87249000D02*
X126746000Y-87249000D01*
X122664000Y-105900000D02*
X123317000Y-106553000D01*
D20*
X122029000Y-121303000D02*
X126238000Y-117094000D01*
D21*
X125704000Y-88519000D02*
X126746000Y-88519000D01*
D20*
X126238000Y-117094000D02*
X126238000Y-105918000D01*
X123698000Y-103378000D02*
X119126000Y-103378000D01*
X126238000Y-105918000D02*
X123698000Y-103378000D01*
X118509000Y-121303000D02*
X122029000Y-121303000D01*
X118364000Y-121158000D02*
X118509000Y-121303000D01*
D21*
X124333000Y-88519000D02*
X125704000Y-88519000D01*
D20*
X103378000Y-107137200D02*
X103378000Y-99872800D01*
X103378000Y-99872800D02*
X102006400Y-98501200D01*
X100838000Y-102719500D02*
X101778750Y-101778750D01*
X100838000Y-106984800D02*
X100838000Y-102719500D01*
X107357877Y-98679000D02*
X103462939Y-94784061D01*
X108204000Y-98679000D02*
X107357877Y-98679000D01*
X103462939Y-92227061D02*
X103462939Y-94784061D01*
X103505000Y-92185000D02*
X103462939Y-92227061D01*
X111760000Y-113030000D02*
X120904000Y-113030000D01*
X120904000Y-113030000D02*
X122809000Y-114935000D01*
X107543600Y-104800400D02*
X108204000Y-104140000D01*
X87503000Y-121285000D02*
X91059000Y-121285000D01*
X108204000Y-104140000D02*
X108204000Y-103759000D01*
X91059000Y-121285000D02*
X107543600Y-104800400D01*
X91235454Y-121711000D02*
X107552727Y-105393727D01*
X115951000Y-97663000D02*
X120142000Y-97663000D01*
X108220273Y-105393727D02*
X115951000Y-97663000D01*
X86360000Y-123190000D02*
X87630000Y-123190000D01*
X125172000Y-89789000D02*
X125704000Y-89789000D01*
X122936000Y-92025000D02*
X125172000Y-89789000D01*
X122936000Y-94869000D02*
X122936000Y-92025000D01*
X87630000Y-123190000D02*
X89109000Y-121711000D01*
X107552727Y-105393727D02*
X108220273Y-105393727D01*
X120142000Y-97663000D02*
X122936000Y-94869000D01*
X104648000Y-89052400D02*
X98044000Y-89052400D01*
X110109000Y-89424000D02*
X110109000Y-96139000D01*
X108204000Y-88519000D02*
X109204000Y-88519000D01*
X109204000Y-88519000D02*
X110109000Y-89424000D01*
X102109123Y-92837000D02*
X103287123Y-91659000D01*
X103287123Y-91659000D02*
X106534000Y-91659000D01*
X79629000Y-118745000D02*
X79629000Y-118204454D01*
X79629000Y-118204454D02*
X84201000Y-113632454D01*
X98138454Y-92837000D02*
X102109123Y-92837000D01*
X107204000Y-92329000D02*
X108204000Y-92329000D01*
X106534000Y-91659000D02*
X107204000Y-92329000D01*
X84201000Y-113632454D02*
X84201000Y-106774454D01*
X84201000Y-106774454D02*
X98138454Y-92837000D01*
X83711000Y-106662000D02*
X83711000Y-113520000D01*
X108204000Y-91059000D02*
X107442000Y-91059000D01*
X107442000Y-91059000D02*
X107315000Y-91186000D01*
X99187000Y-91186000D02*
X83711000Y-106662000D01*
X107315000Y-91186000D02*
X99187000Y-91186000D01*
X83711000Y-113520000D02*
X78359000Y-118872000D01*
X80137000Y-109855000D02*
X80137000Y-110871000D01*
X81298000Y-112032000D02*
X82659000Y-112032000D01*
X82659000Y-112032000D02*
X83185000Y-111506000D01*
X80137000Y-110871000D02*
X81298000Y-112032000D01*
X81153000Y-110119000D02*
X79947000Y-108913000D01*
X81153000Y-111142000D02*
X81153000Y-110119000D01*
X126949200Y-96164400D02*
X125729400Y-96164400D01*
X125729400Y-96164400D02*
X125704000Y-96139000D01*
X89109000Y-121711000D02*
X91235454Y-121711000D01*
G04 #@! TA.AperFunction,Conductor*
G36*
X125855539Y-106064685D02*
G01*
X125901294Y-106117489D01*
X125912500Y-106169000D01*
X125912500Y-116907811D01*
X125892815Y-116974850D01*
X125876181Y-116995492D01*
X121930492Y-120941181D01*
X121869169Y-120974666D01*
X121842811Y-120977500D01*
X118822705Y-120977500D01*
X118755666Y-120957815D01*
X118715319Y-120915502D01*
X118704485Y-120896737D01*
X118625263Y-120817515D01*
X118528237Y-120761497D01*
X118420018Y-120732500D01*
X118307982Y-120732500D01*
X118199763Y-120761497D01*
X118199760Y-120761498D01*
X118102740Y-120817513D01*
X118102734Y-120817517D01*
X118023517Y-120896734D01*
X118023513Y-120896740D01*
X117967498Y-120993760D01*
X117967497Y-120993763D01*
X117938500Y-121101982D01*
X117938500Y-121214018D01*
X117967497Y-121322237D01*
X118023515Y-121419263D01*
X118102737Y-121498485D01*
X118199763Y-121554503D01*
X118307982Y-121583500D01*
X118310614Y-121583500D01*
X118313155Y-121584180D01*
X118316042Y-121584561D01*
X118315991Y-121584941D01*
X118372612Y-121600112D01*
X118383361Y-121606318D01*
X118466147Y-121628500D01*
X118466149Y-121628500D01*
X122071851Y-121628500D01*
X122071853Y-121628500D01*
X122154639Y-121606318D01*
X122228862Y-121563465D01*
X126498465Y-117293862D01*
X126541318Y-117219639D01*
X126563500Y-117136853D01*
X126563500Y-117051147D01*
X126563500Y-106169000D01*
X126583185Y-106101961D01*
X126635989Y-106056206D01*
X126687500Y-106045000D01*
X128019000Y-106045000D01*
X128086039Y-106064685D01*
X128131794Y-106117489D01*
X128143000Y-106169000D01*
X128143000Y-123193000D01*
X128123315Y-123260039D01*
X128070511Y-123305794D01*
X128019000Y-123317000D01*
X108836000Y-123317000D01*
X108768961Y-123297315D01*
X108723206Y-123244511D01*
X108712000Y-123193000D01*
X108712000Y-112973982D01*
X111334500Y-112973982D01*
X111334500Y-113086018D01*
X111363497Y-113194237D01*
X111419515Y-113291263D01*
X111498737Y-113370485D01*
X111595763Y-113426503D01*
X111703982Y-113455500D01*
X111703984Y-113455500D01*
X111816016Y-113455500D01*
X111816018Y-113455500D01*
X111924237Y-113426503D01*
X112018443Y-113372112D01*
X112080443Y-113355500D01*
X120717811Y-113355500D01*
X120784850Y-113375185D01*
X120805492Y-113391819D01*
X122352249Y-114938575D01*
X122384342Y-114994162D01*
X122412497Y-115099237D01*
X122468515Y-115196263D01*
X122547737Y-115275485D01*
X122644763Y-115331503D01*
X122752982Y-115360500D01*
X122752984Y-115360500D01*
X122865016Y-115360500D01*
X122865018Y-115360500D01*
X122973237Y-115331503D01*
X123070263Y-115275485D01*
X123149485Y-115196263D01*
X123205503Y-115099237D01*
X123234500Y-114991018D01*
X123234500Y-114878982D01*
X123205503Y-114770763D01*
X123149485Y-114673737D01*
X123070263Y-114594515D01*
X122973237Y-114538497D01*
X122868162Y-114510342D01*
X122812575Y-114478249D01*
X121103864Y-112769537D01*
X121103863Y-112769536D01*
X121103862Y-112769535D01*
X121066750Y-112748108D01*
X121029640Y-112726682D01*
X120988246Y-112715591D01*
X120946853Y-112704500D01*
X120946852Y-112704500D01*
X112080443Y-112704500D01*
X112018443Y-112687887D01*
X111924239Y-112633498D01*
X111924238Y-112633497D01*
X111924237Y-112633497D01*
X111816018Y-112604500D01*
X111703982Y-112604500D01*
X111595763Y-112633497D01*
X111595760Y-112633498D01*
X111498740Y-112689513D01*
X111498734Y-112689517D01*
X111419517Y-112768734D01*
X111419513Y-112768740D01*
X111363498Y-112865760D01*
X111363497Y-112865763D01*
X111334500Y-112973982D01*
X108712000Y-112973982D01*
X108712000Y-106169000D01*
X108731685Y-106101961D01*
X108784489Y-106056206D01*
X108836000Y-106045000D01*
X125788500Y-106045000D01*
X125855539Y-106064685D01*
G37*
G04 #@! TD.AperFunction*
M02*
